<svg width="40" height="40" viewBox="0 0 40 40" fill="none" xmlns="http://www.w3.org/2000/svg">
<path d="M20 40C31.0457 40 40 31.0457 40 20C40 8.9543 31.0457 0 20 0C8.9543 0 0 8.9543 0 20C0 31.0457 8.9543 40 20 40Z" fill="#6C53A2"/>
<path d="M33.695 9.24957L33.498 7.46098C33.4179 6.73238 32.7101 6.29254 32.055 6.46441C31.9393 6.49488 31.825 6.5441 31.7161 6.61465L27.7838 9.15981C26.4807 10.0032 25.2413 10.9389 24.0747 11.9595C24.0705 11.9595 24.0665 11.9592 24.0624 11.9592H15.9389C15.9347 11.9592 15.9307 11.9595 15.9266 11.9595C14.76 10.9389 13.5207 10.0032 12.2175 9.15981L8.28513 6.61473C8.17622 6.54418 8.06185 6.49496 7.9463 6.46449C7.29114 6.29254 6.58333 6.73238 6.50325 7.46106L6.3063 9.24965C6.04677 11.6058 6.87091 13.9523 8.54685 15.6282L10.0097 17.0911C9.96943 17.3717 9.94755 17.6582 9.94755 17.9499V27.3624C9.94755 30.039 11.703 32.3038 14.1249 33.0725C14.8288 33.2952 15.3804 33.8366 15.6718 34.5155C16.1515 35.6319 17.2616 36.414 18.5546 36.414H21.4468C22.7397 36.414 23.8499 35.6319 24.3296 34.5155C24.621 33.8366 25.1725 33.2952 25.8765 33.0725C28.2983 32.3038 30.0538 30.039 30.0538 27.3624V17.9499C30.0538 17.6582 30.0318 17.3717 29.9916 17.0911L31.4545 15.6282C33.1304 13.9523 33.9545 11.6057 33.695 9.24957Z" fill="#EE6781"/>
<path d="M31.4539 15.6279C33.1297 13.9522 33.9539 11.6061 33.6945 9.24982L33.4976 7.46075C33.4172 6.73263 32.7094 6.29278 32.0547 6.46466C32.0406 6.46857 32.0258 6.47247 32.0117 6.47716C31.914 6.50685 31.818 6.54982 31.725 6.60841C31.7242 6.60919 31.7234 6.60919 31.7226 6.60997C31.7203 6.61153 31.718 6.6131 31.7156 6.61466L27.7828 9.15997C26.6941 9.86419 25.6509 10.6342 24.6567 11.4632L24.6556 11.4628L24.606 11.5051C24.4273 11.6547 24.2496 11.8057 24.0741 11.9592V11.9595C24.0699 11.9595 24.0659 11.9592 24.0616 11.9592H20V36.4139H21.4461C22.7391 36.4139 23.8492 35.6318 24.3289 34.5154C24.6203 33.8365 25.1719 33.2951 25.8758 33.0725C28.2976 32.3037 30.0531 30.0389 30.0531 27.3623V17.9498C30.0531 17.6579 30.0312 17.3711 29.9908 17.0904L29.9914 17.0904L31.4539 15.6279Z" fill="#F4829B"/>
<path d="M11.6464 13.7709C10.7831 14.6568 10.1925 15.8076 10.0089 17.0904L8.54639 15.6279C6.8706 13.9522 6.04638 11.6061 6.30576 9.24982L6.50263 7.46075C6.5831 6.73263 7.29092 6.29278 7.9456 6.46466C8.05889 6.49435 8.1706 6.542 8.27764 6.60997C8.1331 6.52169 7.91592 7.10294 7.87764 8.01075C7.80967 9.64044 9.30576 11.8803 11.3589 13.5389L11.6464 13.7709Z" fill="#F4829B"/>
<path d="M31.454 15.6279L29.9915 17.0904C29.8079 15.8076 29.2173 14.6568 28.354 13.7709L28.6415 13.5389C30.6946 11.8803 32.1907 9.64044 32.1227 8.01075C32.0845 7.10763 31.8696 6.52794 31.7251 6.60841C31.8181 6.54982 31.9142 6.50685 32.0118 6.47716C32.0259 6.47247 32.0407 6.46857 32.0548 6.46466C32.7095 6.29278 33.4173 6.73263 33.4977 7.46075L33.6946 9.24982C33.954 11.6061 33.1298 13.9522 31.454 15.6279Z" fill="#FF9FB4"/>
<path d="M24.0884 33.0804V33.1267C24.0884 34.1237 23.2801 34.9319 22.2832 34.9319H17.7169C16.7198 34.9319 15.9116 34.1237 15.9116 33.1267V33.0804C15.9116 30.823 17.7418 28.9919 20.0001 28.9919C22.2583 28.9919 24.0884 30.823 24.0884 33.0804Z" fill="#FF9FB4"/>
<path d="M24.0884 33.0804V33.1267C24.0884 34.1237 23.2802 34.9319 22.2832 34.9319H20V28.9919C22.2583 28.9919 24.0884 30.823 24.0884 33.0804Z" fill="#FFCCD7"/>
<path d="M22.7503 31.3837C22.665 31.3837 22.5803 31.3475 22.5209 31.2773C21.7783 30.3992 20.8831 29.9156 20.0001 29.9156C19.1171 29.9156 18.2218 30.3992 17.4793 31.2773C17.3722 31.4039 17.1827 31.4198 17.0561 31.3127C16.9295 31.2056 16.9136 31.0161 17.0207 30.8895C17.8793 29.8742 18.9374 29.3149 20.0001 29.3149C21.0628 29.3149 22.121 29.8741 22.9795 30.8895C23.0866 31.0161 23.0707 31.2056 22.9441 31.3127C22.8877 31.3604 22.8189 31.3837 22.7503 31.3837Z" fill="white"/>
<path d="M21.55 34.3273H21.9467C22.5349 34.3273 23.0118 33.8504 23.0118 33.2622V33.2351C23.0118 32.4957 22.6791 31.834 22.1552 31.3914C21.5412 30.8729 20.5996 31.321 20.5996 32.1247V33.3768C20.5995 33.9018 21.0251 34.3273 21.55 34.3273Z" fill="#2E3140"/>
<path d="M18.4501 34.3273H18.0534C17.4652 34.3273 16.9883 33.8504 16.9883 33.2622V33.2351C16.9883 32.4957 17.321 31.834 17.8448 31.3914C18.4588 30.8729 19.4005 31.321 19.4005 32.1247V33.3768C19.4005 33.9018 18.975 34.3273 18.4501 34.3273Z" fill="#2E3140"/>
<path d="M22.1573 28.8141L21.7597 28.65C21.1964 28.4172 20.5987 28.3008 20.0003 28.3008C19.4018 28.3008 18.8042 28.4172 18.2409 28.65L17.8432 28.8141C17.4057 28.9953 17.0081 28.4836 17.2917 28.1031L18.0886 27.0359C18.5659 26.3969 19.2831 26.0781 20.0003 26.0781C20.7175 26.0781 21.4347 26.3969 21.912 27.0359L22.7089 28.1031C22.9925 28.4836 22.5948 28.9953 22.1573 28.8141Z" fill="#F4829B"/>
<path d="M22.1575 28.8141L21.7599 28.65C21.1966 28.4172 20.5989 28.3008 20.0005 28.3008V26.0781C20.7177 26.0781 21.4349 26.3969 21.9122 27.0359L22.7091 28.1031C22.9927 28.4836 22.595 28.9953 22.1575 28.8141Z" fill="#FF9FB4"/>
<path d="M22.1573 26.0404L21.7597 25.8763C21.1964 25.6435 20.5987 25.5271 20.0003 25.5271C19.4018 25.5271 18.8042 25.6435 18.2409 25.8763L17.8432 26.0404C17.4057 26.2216 17.0081 25.7099 17.2917 25.3294L18.0886 24.2623C18.5659 23.6232 19.2831 23.3044 20.0003 23.3044C20.7175 23.3044 21.4347 23.6232 21.912 24.2623L22.7089 25.3294C22.9925 25.7099 22.5948 26.2216 22.1573 26.0404Z" fill="#F4829B"/>
<path d="M22.1575 26.0404L21.7599 25.8763C21.1966 25.6435 20.5989 25.5271 20.0005 25.5271V23.3044C20.7177 23.3044 21.4349 23.6232 21.9122 24.2623L22.7091 25.3294C22.9927 25.7099 22.595 26.2216 22.1575 26.0404Z" fill="#FF9FB4"/>
<path d="M19.9995 20.2393H22.4308C24.3897 20.2393 25.9777 18.6513 25.9777 16.6924C25.9777 14.7336 24.3897 13.1455 22.4308 13.1455H19.9995V20.2393Z" fill="#FF9FB4"/>
<path d="M20.0002 13.1465H17.5688C15.61 13.1465 14.022 14.7345 14.022 16.6934C14.022 18.6522 15.6099 20.2402 17.5688 20.2402H20.0002V13.1465Z" fill="#F4829B"/>
<path d="M26.3963 24.3677C25.0354 24.3677 23.9321 25.471 23.9321 26.8319V29.0681C23.9321 30.429 25.0354 31.5323 26.3963 31.5323C27.7573 31.5323 28.8606 30.429 28.8606 29.0681V26.8319C28.8606 25.471 27.7573 24.3677 26.3963 24.3677Z" fill="#FF9FB4"/>
<path d="M13.66 24.3677C12.2991 24.3677 11.1958 25.471 11.1958 26.8319V29.0681C11.1958 30.429 12.2991 31.5323 13.66 31.5323C15.021 31.5323 16.1242 30.429 16.1242 29.0681V26.8319C16.1242 25.471 15.021 24.3677 13.66 24.3677Z" fill="#F4829B"/>
<path d="M20.001 17.1558H23.2218C24.0143 17.1558 24.6567 16.5134 24.6567 15.721C24.6567 14.9286 24.0143 14.2861 23.2218 14.2861H20.001V17.1558Z" fill="#FFCCD7"/>
<path d="M20.0008 14.2871H16.78C15.9876 14.2871 15.3452 14.9295 15.3452 15.722C15.3452 16.5144 15.9876 17.1568 16.78 17.1568H20.0008V14.2871Z" fill="#FF9FB4"/>
<path d="M27.5721 21.9491C27.7676 22.6789 27.3402 23.4282 26.615 23.6324C26.6091 23.6351 26.6029 23.6367 26.5968 23.6385L25.6699 23.8868C25.3024 23.9853 24.9289 23.9258 24.6231 23.7492C24.3162 23.5729 24.0782 23.2803 23.9795 22.9117C23.7961 22.2271 24.1611 21.5242 24.8051 21.2714C24.8538 21.2518 24.9043 21.2349 24.9556 21.2211L25.8825 20.9728C26.251 20.874 26.6237 20.9348 26.9296 21.1114C27.2354 21.2879 27.4733 21.5806 27.5721 21.9491Z" fill="#3E4E60"/>
<path d="M27.5726 21.9482C27.7682 22.678 27.3408 23.4273 26.6155 23.6315C25.8172 23.3867 25.1407 22.7055 24.8934 21.7826C24.8475 21.6112 24.818 21.4398 24.8057 21.2704C24.8543 21.2508 24.9048 21.2339 24.9561 21.2202L25.883 20.9718C26.2515 20.873 26.6243 20.9338 26.9301 21.1104C27.2359 21.287 27.4739 21.5797 27.5726 21.9482Z" fill="#2E3140"/>
<path d="M26.328 21.4969L25.7703 21.6464C25.5301 21.7107 25.3876 21.9575 25.452 22.1977C25.5164 22.4379 25.7632 22.5804 26.0033 22.516L26.5611 22.3665C26.8012 22.3022 26.9437 22.0554 26.8793 21.8152C26.815 21.575 26.5682 21.4325 26.328 21.4969Z" fill="white"/>
<path d="M16.0766 22.9108C15.8811 23.6407 15.1362 24.0758 14.406 23.8901C14.3996 23.8895 14.3934 23.8878 14.3873 23.8862L13.4604 23.6378C13.0929 23.5394 12.7992 23.3011 12.6226 22.9953C12.445 22.6892 12.3852 22.3167 12.484 21.9482C12.6674 21.2635 13.335 20.8373 14.0192 20.9404C14.0712 20.9477 14.1233 20.9583 14.1746 20.9721L15.1015 21.2204C15.47 21.3192 15.7624 21.5582 15.939 21.864C16.1156 22.1699 16.1754 22.5423 16.0766 22.9108Z" fill="#3E4E60"/>
<path d="M16.0767 22.9109C15.8811 23.6407 15.1363 24.0759 14.406 23.8902C13.8371 23.279 13.5919 22.3507 13.8391 21.4279C13.885 21.2565 13.9453 21.0933 14.0192 20.9404C14.0712 20.9478 14.1233 20.9584 14.1746 20.9721L15.1015 21.2205C15.47 21.3193 15.7624 21.5582 15.939 21.8641C16.1156 22.17 16.1754 22.5424 16.0767 22.9109Z" fill="#2E3140"/>
<path d="M15.2251 21.8983L14.6674 21.7489C14.4272 21.6845 14.1804 21.8271 14.116 22.0671C14.0517 22.3073 14.1942 22.5541 14.4343 22.6185L14.9921 22.7679C15.2322 22.8323 15.479 22.6897 15.5434 22.4496C15.6078 22.2095 15.4653 21.9626 15.2251 21.8983Z" fill="white"/>
</svg>
