<svg width="40" height="40" viewBox="0 0 40 40" fill="none" xmlns="http://www.w3.org/2000/svg">
<path d="M20 40C31.0457 40 40 31.0457 40 20C40 8.9543 31.0457 0 20 0C8.9543 0 0 8.9543 0 20C0 31.0457 8.9543 40 20 40Z" fill="#EE6781"/>
<path d="M33.6622 14.8138C33.323 15.9128 32.6189 17.076 31.3906 18.2772L23.6973 11.616C25.1521 9.57393 26.2605 8.22682 27.1552 7.40276C29.0588 5.64784 29.9906 6.2619 31.2299 7.5858C32.5808 9.02955 34.6367 11.6531 33.6622 14.8138Z" fill="#334353"/>
<path d="M33.6624 14.8138C29.871 13.8364 27.1387 11.0809 27.1387 7.83385C27.1387 7.68893 27.1442 7.5458 27.1554 7.40276C29.059 5.64784 29.9909 6.2619 31.2302 7.5858C32.581 9.02955 34.637 11.6531 33.6624 14.8138Z" fill="#2E3140"/>
<path d="M26.8548 13.2144C26.608 12.955 26.509 12.5876 26.5948 12.2401C27.4023 8.97233 28.6691 5.51101 31.3007 8.8896C33.6386 11.8912 32.888 14.5191 31.5541 16.3498C31.1668 16.8813 30.3934 16.9337 29.94 16.4572L26.8548 13.2144Z" fill="#F4829B"/>
<path d="M6.33697 14.8138C6.67611 15.9128 7.38025 17.076 8.60853 18.2772L16.3019 11.616C14.847 9.57393 13.7387 8.22682 12.844 7.40276C10.9404 5.64784 10.0085 6.2619 8.76923 7.5858C7.41845 9.02955 5.36244 11.6531 6.33697 14.8138Z" fill="#2E3140"/>
<path d="M6.33697 14.8138C10.1284 13.8364 12.8607 11.0809 12.8607 7.83385C12.8607 7.68893 12.8552 7.5458 12.844 7.40276C10.9404 5.64784 10.0085 6.2619 8.76923 7.5858C7.41845 9.02955 5.36244 11.6531 6.33697 14.8138Z" fill="#151516"/>
<path d="M13.1443 13.2144C13.3911 12.955 13.4901 12.5876 13.4042 12.2401C12.5967 8.97233 11.3299 5.51101 8.69834 8.8896C6.36044 11.8912 7.11099 14.5191 8.4449 16.3498C8.83224 16.8813 9.60568 16.9337 10.059 16.4572L13.1443 13.2144Z" fill="#9175A7"/>
<path d="M31.8356 20.205V24.2946C31.8356 25.8498 31.0162 27.2898 29.6793 28.0841L24.3011 31.28C23.7594 31.6015 23.1416 31.7706 22.5126 31.7706H17.4865C16.8576 31.7706 16.2397 31.6015 15.6981 31.28L10.3199 28.0841C8.98303 27.2898 8.16357 25.8497 8.16357 24.2946V20.205C8.16357 19.0734 8.59928 17.9846 9.38061 17.1651L13.539 12.7996C14.259 12.0433 15.2577 11.616 16.3019 11.616H23.6971C24.7413 11.616 25.7401 12.0433 26.4601 12.7996L30.6194 17.1651C31.3999 17.9846 31.8356 19.0734 31.8356 20.205Z" fill="#2E3140"/>
<path d="M31.8355 20.205V24.2946C31.8355 25.8498 31.0162 27.2898 29.6792 28.0841L24.301 31.28C23.7594 31.6015 23.1415 31.7706 22.5126 31.7706H19.9995V11.616H23.6971C24.7413 11.616 25.7401 12.0433 26.4601 12.7996L30.6194 17.1651C31.3998 17.9846 31.8355 19.0734 31.8355 20.205Z" fill="#334353"/>
<path d="M27.7 21.8544C26.7873 22.7671 25.3051 22.7671 24.3924 21.8544C23.4787 20.9407 23.4798 19.4595 24.3924 18.5468C24.6398 18.2994 24.9287 18.1187 25.2372 18.006C26.0669 17.701 27.0337 17.8805 27.7 18.5468C28.3652 19.2121 28.5459 20.1799 28.2409 21.0097C28.1281 21.3182 27.9474 21.607 27.7 21.8544Z" fill="#F4829B"/>
<path d="M28.236 21.0102C28.7666 20.4795 28.5245 19.3771 27.6952 18.5478C26.8659 17.7185 25.7634 17.4763 25.2328 18.007C24.7021 18.5376 24.9443 19.6401 25.7736 20.4694C26.6029 21.2987 27.7053 21.5408 28.236 21.0102Z" fill="#F0A6B3"/>
<path d="M27.6786 20.2006C27.6786 20.9036 27.2326 21.5043 26.6086 21.7344C26.4324 21.7974 26.2436 21.8333 26.0458 21.8333C25.1432 21.8333 24.4131 21.1015 24.4131 20.2006C24.4131 19.2979 25.1432 18.5679 26.0458 18.5679C26.2436 18.5679 26.4325 18.6038 26.6086 18.6668C27.2326 18.8969 27.6786 19.4958 27.6786 20.2006Z" fill="#2E3140"/>
<path d="M27.1186 20.2006C27.1186 20.6625 26.8256 21.0571 26.4156 21.2084C26.2999 21.2497 26.1758 21.2734 26.0459 21.2734C25.4528 21.2734 24.9731 20.7925 24.9731 20.2007C24.9731 19.6076 25.4528 19.1279 26.0459 19.1279C26.1758 19.1279 26.2999 19.1515 26.4156 19.1929C26.8256 19.344 27.1186 19.7375 27.1186 20.2006Z" fill="#3E4E60"/>
<path d="M27.1187 19.6861C27.1187 19.9264 26.9663 20.1317 26.753 20.2103C26.6928 20.2318 26.6282 20.2442 26.5606 20.2442C26.2521 20.2442 26.0024 19.994 26.0024 19.6861C26.0024 19.3775 26.252 19.1279 26.5606 19.1279C26.6281 19.1279 26.6928 19.1402 26.753 19.1618C26.9663 19.2404 27.1187 19.445 27.1187 19.6861Z" fill="white"/>
<path d="M12.2997 18.5469C11.3871 19.4595 11.3871 20.9418 12.2997 21.8544C13.2135 22.7682 14.6946 22.7671 15.6073 21.8544C15.8547 21.607 16.0354 21.3181 16.1482 21.0097C16.4532 20.1799 16.2736 19.2132 15.6073 18.5469C14.9421 17.8816 13.9743 17.701 13.1445 18.006C12.836 18.1187 12.5471 18.2994 12.2997 18.5469Z" fill="#9175A7"/>
<path d="M16.1442 21.0089C16.6748 20.4783 16.4327 19.3759 15.6034 18.5466C14.7741 17.7172 13.6716 17.4751 13.141 18.0058C12.6103 18.5364 12.8525 19.6388 13.6818 20.4681C14.5111 21.2975 15.6135 21.5396 16.1442 21.0089Z" fill="#F4829B"/>
<path d="M15.5868 20.2006C15.5868 20.9036 15.1408 21.5043 14.5168 21.7344C14.3406 21.7974 14.1518 21.8333 13.954 21.8333C13.0514 21.8333 12.3213 21.1015 12.3213 20.2006C12.3213 19.2979 13.0514 18.5679 13.954 18.5679C14.1518 18.5679 14.3407 18.6038 14.5168 18.6668C15.1408 18.8969 15.5868 19.4958 15.5868 20.2006Z" fill="#2E3140"/>
<path d="M15.0268 20.2006C15.0268 20.6625 14.7338 21.0571 14.3238 21.2084C14.2081 21.2497 14.084 21.2734 13.9541 21.2734C13.361 21.2734 12.8813 20.7925 12.8813 20.2007C12.8813 19.6076 13.361 19.1279 13.9541 19.1279C14.084 19.1279 14.2081 19.1515 14.3238 19.1929C14.7338 19.344 15.0268 19.7375 15.0268 20.2006Z" fill="#3E4E60"/>
<path d="M15.0259 19.6861C15.0259 19.9264 14.8735 20.1317 14.6602 20.2103C14.6 20.2318 14.5355 20.2442 14.4678 20.2442C14.1593 20.2442 13.9097 19.994 13.9097 19.6861C13.9097 19.3775 14.1592 19.1279 14.4678 19.1279C14.5354 19.1279 14.6 19.1402 14.6602 19.1618C14.8735 19.2404 15.0259 19.445 15.0259 19.6861Z" fill="white"/>
<path d="M25.9358 27.8472L24.0657 31.0858C23.3104 32.3939 21.914 33.2003 20.4034 33.2003H19.598C18.0864 33.2003 16.6901 32.3939 15.9347 31.0858L14.0646 27.8472C13.3845 26.6692 13.6912 25.1688 14.7781 24.3521L18.3856 21.6431C18.864 21.2845 19.4326 21.1042 20.0003 21.1042C20.5689 21.1042 21.1374 21.2845 21.615 21.6431L25.2225 24.3521C26.3093 25.1688 26.6159 26.6693 25.9358 27.8472Z" fill="#9175A7"/>
<path d="M25.9361 27.8472L24.066 31.0858C23.3107 32.3939 21.9143 33.2003 20.4037 33.2003H20.0005V21.1042C20.5691 21.1042 21.1376 21.2845 21.6152 21.6431L25.2227 24.3521C26.3096 25.1688 26.6162 26.6693 25.9361 27.8472Z" fill="#F4829B"/>
<path d="M23.6987 32.5566C23.3918 32.5566 23.1431 32.3079 23.1431 32.001V30.6582H24.2543V32.001C24.2544 32.3079 24.0056 32.5566 23.6987 32.5566Z" fill="white"/>
<path d="M16.3007 32.5566C15.9939 32.5566 15.7451 32.3079 15.7451 32.001V30.6582H16.8564V32.001C16.8564 32.3079 16.6076 32.5566 16.3007 32.5566Z" fill="#EBD9EA"/>
<path d="M24.446 30.0453C24.3007 29.9399 24.0973 29.9724 23.992 30.1177C23.5196 30.7692 22.8264 30.4578 21.74 29.8673C21.1266 29.5337 20.5472 29.2188 19.9999 29.2188C19.4527 29.2188 18.8733 29.5337 18.2599 29.8673C17.1738 30.4578 16.4802 30.7694 16.0079 30.1177C15.9026 29.9724 15.6992 29.9399 15.5538 30.0453C15.4084 30.1507 15.376 30.3541 15.4813 30.4995C15.8204 30.9671 16.2249 31.1365 16.6526 31.1365C17.287 31.1365 17.9724 30.7638 18.5704 30.4387C19.0855 30.1587 19.6181 29.8691 19.9999 29.8691C20.3817 29.8691 20.9143 30.1587 21.4293 30.4387C22.0273 30.7638 22.7127 31.1365 23.3471 31.1365C23.7749 31.1365 24.1795 30.9671 24.5184 30.4995C24.624 30.3541 24.5915 30.1508 24.446 30.0453Z" fill="#2E3140"/>
<path d="M22.2122 26.96V28.2533C22.2122 28.8321 21.744 29.3012 21.1652 29.3012H18.8351C18.2572 29.3012 17.7881 28.8321 17.7881 28.2533V26.96C17.7881 25.809 18.7208 24.8762 19.8719 24.8762H20.1293C21.2795 24.8762 22.2122 25.809 22.2122 26.96Z" fill="#2E3140"/>
<path d="M22.212 26.9592V28.2524C22.212 28.8312 21.7438 29.3003 21.165 29.3003H20V24.8752H20.1291C21.2793 24.8753 22.212 25.8081 22.212 26.9592Z" fill="#334353"/>
<path d="M21.2305 27.1523H20.9505C20.6888 27.1523 20.4766 27.3645 20.4766 27.6263V28.2248C20.4766 28.4866 20.6888 28.6987 20.9505 28.6987H21.2305C21.4923 28.6987 21.7045 28.4866 21.7045 28.2248V27.6263C21.7045 27.3645 21.4923 27.1523 21.2305 27.1523Z" fill="#2E3140"/>
<path d="M19.0484 27.1523H18.7683C18.5066 27.1523 18.2944 27.3645 18.2944 27.6263V28.2248C18.2944 28.4866 18.5066 28.6987 18.7683 28.6987H19.0484C19.3101 28.6987 19.5223 28.4866 19.5223 28.2248V27.6263C19.5223 27.3645 19.3101 27.1523 19.0484 27.1523Z" fill="#151516"/>
<path d="M20 25.6174H21.0173C21.3428 25.6174 21.6067 25.8813 21.6067 26.2068C21.6067 26.5323 21.3428 26.7962 21.0173 26.7962H20V25.6174Z" fill="#3F5D77"/>
<path d="M20.0003 26.7962H18.9829C18.6575 26.7962 18.3936 26.5323 18.3936 26.2068C18.3936 25.8813 18.6575 25.6174 18.9829 25.6174H20.0003V26.7962Z" fill="#334353"/>
<path d="M20.4781 24.4598H20V21.6934H20.4781C20.9584 21.6934 21.3477 22.0827 21.3477 22.5629V23.5904C21.3477 24.0705 20.9584 24.4598 20.4781 24.4598Z" fill="#F0A6B3"/>
<path d="M19.5219 21.6934H20V24.4598H19.5219C19.0416 24.4598 18.6523 24.0705 18.6523 23.5903V22.5628C18.6523 22.0827 19.0416 21.6934 19.5219 21.6934Z" fill="#F4829B"/>
<path d="M25.5084 17.1022H20V12.4172H22.7141C23.6549 12.4172 24.5479 12.8321 25.1548 13.551L26.447 15.0818C27.121 15.8802 26.5534 17.1022 25.5084 17.1022Z" fill="#3E4E60"/>
<path d="M14.4917 17.1022H20.0002V12.4172H17.2861C16.3453 12.4172 15.4523 12.8321 14.8454 13.551L13.5532 15.0818C12.8792 15.8802 13.4468 17.1022 14.4917 17.1022Z" fill="#334353"/>
<path d="M31.3669 29.2945C31.3478 29.2545 30.8929 28.3073 29.6142 27.6966C28.9983 27.4026 28.3103 27.2356 27.5519 27.1956C26.2576 27.1278 24.7588 27.4296 23.0723 28.0994C22.9165 28.162 22.84 28.3386 22.9018 28.4951C22.9644 28.6509 23.141 28.7274 23.2976 28.6656C24.9433 28.0115 26.422 27.728 27.6641 27.8201C28.273 27.8654 28.8254 28.0011 29.3125 28.2273C30.4137 28.7387 30.813 29.5459 30.8155 29.5529C30.8677 29.6634 30.9773 29.7286 31.0912 29.7286C31.1348 29.7286 31.1791 29.7191 31.2208 29.6999C31.373 29.6277 31.4383 29.4467 31.3669 29.2945Z" fill="#3E4E60"/>
<path d="M31.3668 29.2945C31.4382 29.4467 31.3729 29.6277 31.2207 29.6999C31.1789 29.719 31.1346 29.7285 31.091 29.7285C30.9771 29.7285 30.8675 29.6633 30.8153 29.5528C30.8128 29.5459 30.4135 28.7387 29.3123 28.2272C28.8252 28.001 28.2729 27.8653 27.6639 27.8201C27.6179 27.6148 27.5796 27.4069 27.5518 27.1956C28.3103 27.2356 28.9983 27.4026 29.6141 27.6966C30.8928 28.3073 31.3477 29.2545 31.3668 29.2945Z" fill="#3F5D77"/>
<path d="M32.8025 25.5634C32.774 25.5294 32.0965 24.7262 30.7057 24.4549C30.0359 24.3244 29.328 24.3349 28.5836 24.486C27.3135 24.7442 25.938 25.4114 24.4726 26.4819C24.3375 26.5815 24.3076 26.7716 24.4066 26.9078C24.5062 27.0428 24.6963 27.0728 24.8324 26.9738C26.2621 25.9287 27.6228 25.2841 28.8485 25.0625C29.4494 24.9539 30.0181 24.9471 30.5463 25.0442C31.7404 25.2638 32.3289 25.9454 32.3332 25.9515C32.4114 26.0454 32.5338 26.0811 32.6442 26.0526C32.6863 26.0417 32.7268 26.0213 32.7624 25.9924C32.8917 25.8845 32.9096 25.6929 32.8025 25.5634Z" fill="#3E4E60"/>
<path d="M32.8024 25.5634C32.9095 25.6929 32.8916 25.8844 32.7623 25.9924C32.7267 26.0214 32.6862 26.0417 32.644 26.0526C32.5337 26.0811 32.4113 26.0454 32.3331 25.9515C32.3288 25.9454 31.7403 25.2638 30.5462 25.0442C30.0179 24.947 29.4492 24.9539 28.8484 25.0625C28.7524 24.8753 28.6633 24.6836 28.5835 24.486C29.3279 24.3349 30.0358 24.3244 30.7056 24.4549C32.0964 24.7262 32.7739 25.5295 32.8024 25.5634Z" fill="#3F5D77"/>
<path d="M8.7785 29.6999C8.82022 29.7191 8.8646 29.7286 8.90811 29.7286C9.0221 29.7286 9.13163 29.6634 9.18382 29.5529C9.18639 29.5459 9.58569 28.7388 10.6869 28.2273C11.174 28.0011 11.7263 27.8654 12.3352 27.8202C13.5773 27.728 15.0561 28.0115 16.7018 28.6656C16.8583 28.7274 17.0349 28.6509 17.0976 28.4952C17.1594 28.3386 17.0828 28.162 16.9271 28.0994C15.2405 27.4296 13.7418 27.1277 12.4475 27.1956C11.689 27.2356 11.0009 27.4027 10.3851 27.6966C9.10647 28.3073 8.65155 29.2545 8.63241 29.2945C8.56108 29.4468 8.62632 29.6277 8.7785 29.6999Z" fill="#334353"/>
<path d="M8.63241 29.2945C8.56108 29.4467 8.62632 29.6277 8.77858 29.6999C8.8203 29.719 8.86467 29.7285 8.90819 29.7285C9.02217 29.7285 9.13171 29.6633 9.18389 29.5528C9.18647 29.5459 9.58577 28.7387 10.6869 28.2272C11.1741 28.001 11.7264 27.8653 12.3353 27.8201C12.3814 27.6148 12.4197 27.4069 12.4475 27.1956C11.689 27.2356 11.0009 27.4026 10.3851 27.6966C9.10647 28.3073 8.65155 29.2545 8.63241 29.2945Z" fill="#3E4E60"/>
<path d="M7.23697 25.9933C7.2726 26.0223 7.31315 26.0427 7.35526 26.0536C7.46557 26.0821 7.58799 26.0464 7.66619 25.9525C7.67049 25.9464 8.25901 25.2647 9.45315 25.0451C9.98135 24.948 10.5501 24.9549 11.1509 25.0635C12.3766 25.2851 13.7373 25.9296 15.167 26.9747C15.3031 27.0737 15.4932 27.0438 15.5928 26.9087C15.6918 26.7726 15.6619 26.5825 15.5268 26.4829C14.0614 25.4124 12.686 24.7451 11.4158 24.4869C10.6714 24.3358 9.96346 24.3254 9.29369 24.4559C7.90291 24.7272 7.22541 25.5304 7.1969 25.5644C7.08979 25.6938 7.10768 25.8854 7.23697 25.9933Z" fill="#334353"/>
<path d="M7.19787 25.5634C7.09076 25.6929 7.10865 25.8844 7.23795 25.9924C7.27358 26.0214 7.31412 26.0417 7.35623 26.0526C7.46654 26.0811 7.58897 26.0454 7.66717 25.9515C7.67147 25.9454 8.25998 25.2638 9.45412 25.0442C9.98233 24.947 10.5511 24.9539 11.1519 25.0625C11.2479 24.8753 11.3369 24.6836 11.4168 24.486C10.6724 24.3349 9.96444 24.3244 9.29467 24.4549C7.90389 24.7262 7.22639 25.5295 7.19787 25.5634Z" fill="#3E4E60"/>
</svg>
