<svg width="40" height="40" viewBox="0 0 40 40" fill="none" xmlns="http://www.w3.org/2000/svg">
<path d="M40 20C40 31.0458 31.0458 40 20 40C8.95416 40 0 31.0458 0 20C0 8.95416 8.95416 0 20 0C31.0458 0 40 8.95416 40 20Z" fill="#FFE05C"/>
<path d="M29.8526 35.1234V37.4082C26.9449 39.058 23.5822 40.0001 19.9994 40.0001C17.8876 40.0001 15.8533 39.6726 13.9423 39.0662C12.6117 38.6442 11.3406 38.0857 10.1465 37.4082V35.1234C10.1465 31.6129 12.579 28.671 15.8517 27.8931C16.2149 27.8065 16.5887 27.7469 16.9708 27.7158C17.1716 27.6996 17.3743 27.6914 17.579 27.6914H22.4191C22.9913 27.6914 23.548 27.7552 24.0826 27.8776C26.4688 28.4235 28.4174 30.1176 29.3161 32.3469C29.6622 33.205 29.8526 34.1419 29.8526 35.1234Z" fill="#0C85A5"/>
<path d="M29.8532 35.1234V37.4082C28.0777 38.4156 26.1331 39.1593 24.072 39.5844C22.9175 39.8237 21.7264 39.9634 20.5084 39.9937C20.3397 39.9976 20.1697 40.0001 20 40.0001C17.8882 40.0001 15.8539 39.6726 13.9429 39.0662V35.1234C13.9429 34.5969 13.9975 34.0824 14.1022 33.5871C14.3143 32.5748 14.733 31.6392 15.3119 30.8246C16.6586 28.9283 18.8736 27.6914 21.3763 27.6914H22.4197C26.5256 27.6914 29.8532 31.0187 29.8532 35.1234Z" fill="#1DA2DD"/>
<path d="M29.3161 32.3469C27.9138 33.5288 25.5081 34.3076 22.7759 34.3076C18.4476 34.3076 14.939 32.3527 14.939 29.9402C14.939 29.1999 15.2689 28.5038 15.8517 27.8931C16.2149 27.8065 16.5887 27.7469 16.9708 27.7158C17.1716 27.6996 17.3743 27.6914 17.579 27.6914H22.4191C22.9913 27.6914 23.548 27.7552 24.0826 27.8776C26.4688 28.4235 28.4174 30.1176 29.3161 32.3469Z" fill="#D39272"/>
<path d="M17.579 27.6914H21.3766C18.8736 27.6914 16.6589 28.9283 15.3122 30.8243C15.2673 30.8881 15.2222 30.9525 15.1797 31.0178C15.0223 30.6736 14.939 30.3126 14.939 29.9402C14.939 29.1999 15.2689 28.5038 15.8517 27.8931C16.2149 27.8065 16.5887 27.7469 16.9708 27.7158C17.1716 27.6996 17.3743 27.6914 17.579 27.6914Z" fill="#BF7C5E"/>
<path d="M22.6513 24.8281V28.0825C22.6513 29.2739 21.8658 30.281 20.7836 30.6155C20.5361 30.6924 20.2722 30.7339 19.999 30.7339C18.5345 30.7339 17.3477 29.5471 17.3477 28.0825V24.8281H22.6513Z" fill="#BF7C5E"/>
<path d="M22.6514 27.8765V28.0825C22.6514 29.2739 21.8658 30.2809 20.7837 30.6154C19.8074 30.3154 19.0735 29.4664 18.938 28.4279C19.115 28.4386 19.2932 28.4441 19.472 28.4441C19.9738 28.4441 20.4657 28.4044 20.9445 28.3257C21.535 28.2308 22.1054 28.0788 22.6514 27.8765Z" fill="#D39272"/>
<path d="M12.7257 19.4949C12.7257 20.7224 11.8288 21.7404 10.6545 21.9293C10.5263 21.9501 10.3942 21.9608 10.2596 21.9608C8.89728 21.9608 7.79346 20.8572 7.79346 19.4949C7.79346 18.1326 8.89728 17.0288 10.2596 17.0288C10.3942 17.0288 10.5263 17.0398 10.6545 17.0605C11.8288 17.2495 12.7257 18.2672 12.7257 19.4949Z" fill="#D39272"/>
<path d="M12.7255 19.4949C12.7255 20.7224 11.8286 21.7404 10.6543 21.9293C10.441 21.1536 10.3271 20.3372 10.3271 19.4949C10.3271 18.6523 10.441 17.836 10.6543 17.0605C11.8286 17.2495 12.7255 18.2672 12.7255 19.4949Z" fill="#BF7C5E"/>
<path d="M11.1406 19.4949C11.1406 19.9816 10.746 20.3762 10.2593 20.3762C9.77252 20.3762 9.37793 19.9816 9.37793 19.4949C9.37793 19.0081 9.77252 18.6135 10.2593 18.6135C10.746 18.6135 11.1406 19.0081 11.1406 19.4949Z" fill="#BF7C5E"/>
<path d="M27.2734 19.4949C27.2734 20.7224 28.17 21.7404 29.3444 21.9293C29.4728 21.9501 29.6047 21.9608 29.7396 21.9608C31.1019 21.9608 32.2054 20.8572 32.2054 19.4949C32.2054 18.1326 31.1019 17.0288 29.7396 17.0288C29.6047 17.0288 29.4728 17.0398 29.3444 17.0605C28.17 17.2495 27.2734 18.2672 27.2734 19.4949Z" fill="#D39272"/>
<path d="M27.2734 19.4949C27.2734 20.7224 28.17 21.7404 29.3444 21.9293C29.5577 21.1536 29.6718 20.3372 29.6718 19.4949C29.6718 18.6523 29.558 17.836 29.3444 17.0605C28.17 17.2495 27.2734 18.2672 27.2734 19.4949Z" fill="#BF7C5E"/>
<path d="M29.1749 14.6906V18.1845C29.1749 22.7502 25.8397 26.5378 21.4723 27.2406C21.4576 27.243 21.4421 27.2455 21.4274 27.2482C20.963 27.3224 20.486 27.359 19.9995 27.359C14.9327 27.359 10.8247 23.2513 10.8247 18.1845V14.6906C10.8247 13.6237 11.0069 12.5983 11.3432 11.6455C12.5978 8.07495 16.0005 5.51514 19.9995 5.51514H20.0004C20.486 5.51514 20.9636 5.55267 21.429 5.62592C25.8174 6.31165 29.1749 10.1093 29.1749 14.6906Z" fill="#BF7C5E"/>
<path d="M30.6211 19.4949C30.6211 19.9816 30.2265 20.3762 29.7397 20.3762C29.253 20.3762 28.8584 19.9816 28.8584 19.4949C28.8584 19.0081 29.253 18.6135 29.7397 18.6135C30.2265 18.6135 30.6211 19.0081 30.6211 19.4949Z" fill="#BF7C5E"/>
<path d="M29.1748 14.6906V18.1845C29.1748 22.7502 25.8392 26.5381 21.4719 27.2409C21.4572 27.2433 21.4417 27.2458 21.427 27.2482C17.0383 26.5625 13.6816 22.7649 13.6816 18.1845V14.6906C13.6816 10.1093 17.0392 6.31195 21.4285 5.62622C25.8173 6.31195 29.1748 10.1093 29.1748 14.6906Z" fill="#D39272"/>
<path d="M29.1749 14.6906V16.9836L27.7556 16.3486L27.0021 12.258C26.7891 11.1035 25.6608 10.3558 24.5146 10.6107L21.6307 11.2512C20.5571 11.4905 19.4435 11.4905 18.3702 11.2512L15.486 10.6107C14.34 10.3558 13.2118 11.1035 12.9988 12.258L12.2453 16.3486L10.8247 16.9846V14.6906C10.8247 13.6237 11.0069 12.5983 11.3432 11.6455C12.5978 8.07495 16.0005 5.51514 19.9995 5.51514H20.0004C20.486 5.51514 20.9636 5.55267 21.429 5.62592C25.8174 6.31165 29.1749 10.1093 29.1749 14.6906Z" fill="#BF7C5E"/>
<path d="M19.9989 23.1117C19.2305 23.1117 18.4623 22.9191 17.762 22.534C17.5645 22.4257 17.4922 22.1773 17.6008 21.9798C17.7095 21.7824 17.9576 21.7103 18.1553 21.8187C19.3095 22.4534 20.688 22.4534 21.8425 21.8187C22.0399 21.71 22.288 21.7821 22.3967 21.9798C22.5053 22.1773 22.4333 22.4257 22.2355 22.534C21.5355 22.9191 20.767 23.1117 19.9989 23.1117Z" fill="#BF7C5E"/>
<path d="M21.0403 20.2709H18.9587C18.7109 20.2709 18.5098 20.0698 18.5098 19.8217C18.5098 19.5739 18.7109 19.3728 18.9587 19.3728H21.0403C21.2884 19.3728 21.4895 19.5739 21.4895 19.8217C21.4895 20.0698 21.2884 20.2709 21.0403 20.2709Z" fill="#BF7C5E"/>
<path d="M18.0455 17.65C18.0455 18.225 17.5795 18.691 17.0045 18.691C16.4299 18.691 15.9639 18.225 15.9639 17.65C15.9639 17.0754 16.4299 16.6094 17.0045 16.6094C17.5795 16.6094 18.0455 17.0754 18.0455 17.65Z" fill="#2F373B"/>
<path d="M24.0352 17.65C24.0352 18.225 23.5692 18.691 22.9943 18.691C22.4196 18.691 21.9536 18.225 21.9536 17.65C21.9536 17.0754 22.4196 16.6094 22.9943 16.6094C23.5692 16.6094 24.0352 17.0754 24.0352 17.65Z" fill="#2F373B"/>
<path d="M17.8331 17.4664C17.8331 17.7126 17.6335 17.9125 17.3873 17.9125C17.141 17.9125 16.9414 17.7126 16.9414 17.4664C16.9414 17.2201 17.141 17.0205 17.3873 17.0205C17.6335 17.0205 17.8331 17.2201 17.8331 17.4664Z" fill="white"/>
<path d="M23.8745 17.4664C23.8745 17.7126 23.6746 17.9125 23.4283 17.9125C23.182 17.9125 22.9824 17.7126 22.9824 17.4664C22.9824 17.2201 23.182 17.0205 23.4283 17.0205C23.6746 17.0205 23.8745 17.2201 23.8745 17.4664Z" fill="white"/>
<path d="M20.4582 4.51172H19.5411C18.9677 4.51172 18.5029 4.9765 18.5029 5.54993V9.40582C18.5029 9.97894 18.9677 10.4437 19.5411 10.4437H20.4582C21.0316 10.4437 21.4964 9.97894 21.4964 9.40582V5.54993C21.4964 4.9765 21.0316 4.51172 20.4582 4.51172Z" fill="#2F373B"/>
<path d="M26.9238 6.71637L26.0211 6.27783C25.5271 6.03796 24.9316 6.24396 24.6915 6.73804L23.1857 9.83771C22.9456 10.3321 23.1516 10.9272 23.6459 11.1674L24.5487 11.6059C25.0427 11.8461 25.6381 11.6401 25.878 11.1457L27.3841 8.04602C27.6239 7.55194 27.4182 6.95654 26.9238 6.71637Z" fill="#2F373B"/>
<path d="M30.5328 12.7771L29.7817 11.7789C29.4921 11.3941 28.9453 11.3169 28.5607 11.6065L26.8808 12.8708C26.4959 13.1604 26.419 13.707 26.7086 14.0918L27.4597 15.0901C27.7493 15.4749 28.2962 15.5521 28.6807 15.2622L30.3607 13.9981C30.7452 13.7085 30.8224 13.162 30.5328 12.7771Z" fill="#2F373B"/>
<path d="M13.075 6.71637L13.9777 6.27783C14.4717 6.03796 15.0671 6.24396 15.3073 6.73804L16.813 9.83771C17.0532 10.3321 16.8472 10.9272 16.3528 11.1674L15.4501 11.6059C14.9561 11.8461 14.361 11.6401 14.1208 11.1457L12.6147 8.04602C12.3749 7.55194 12.5809 6.95654 13.075 6.71637Z" fill="#151A1C"/>
<path d="M9.46585 12.7771L10.2172 11.7789C10.5068 11.3941 11.0534 11.3169 11.4382 11.6065L13.1179 12.8708C13.5027 13.1604 13.5799 13.707 13.2903 14.0918L12.539 15.0901C12.2494 15.4749 11.7028 15.5521 11.318 15.2622L9.63827 13.9981C9.25344 13.7085 9.17623 13.162 9.46585 12.7771Z" fill="#151A1C"/>
<path d="M13.8427 35.1233V39.0341C12.5478 38.6154 11.3112 38.0685 10.147 37.4081V35.1233H13.8427Z" fill="#BF7C5E"/>
<path d="M19.9995 24.9006L20.7838 23.542H19.2148L19.9995 24.9006Z" fill="#2F373B"/>
</svg>
