<svg width="40" height="40" viewBox="0 0 40 40" fill="none" xmlns="http://www.w3.org/2000/svg">
<path d="M20 40C31.0457 40 40 31.0457 40 20C40 8.9543 31.0457 0 20 0C8.9543 0 0 8.9543 0 20C0 31.0457 8.9543 40 20 40Z" fill="#6C53A2"/>
<path d="M34.7334 22.4734C34.7334 23.0718 34.5553 23.6757 34.185 24.1445C33.0764 25.5468 31.5733 26.3343 30.0061 26.3343H6.4311C6.10063 26.3343 5.80141 26.1648 5.58422 25.8906C4.87719 25.0338 5.29383 23.3236 6.4311 23.3038C6.86977 23.2762 9.66547 23.3767 10.0077 23.2288C10.1834 23.1795 10.3545 23.1062 10.5186 23.0085C11.8498 22.2195 13.3022 21.8101 14.7725 21.8101H25.1209C26.8752 21.7832 27.5147 20.3091 28.41 19.0054C29.0428 18.0562 30.1194 17.8085 30.9756 18.4163L33.7772 20.4054C34.4248 20.8696 34.7324 21.6801 34.7334 22.4734Z" fill="#9175A7"/>
<path d="M34.7339 22.4734C34.7339 23.0718 34.5558 23.6757 34.1855 24.1445C33.0769 25.5468 31.5738 26.3343 30.0066 26.3343H6.43157C5.68352 26.3164 5.23001 25.5583 5.23391 24.8195H9.20501C10.7605 24.8195 12.3019 24.5265 13.748 23.9554C15.1936 23.383 16.7362 23.091 18.2917 23.0906H28.8339C29.7183 23.0906 30.5667 22.739 31.1917 22.114C31.782 21.5235 32.5818 21.192 33.4167 21.1921H34.4394C34.6339 21.5773 34.7339 22.0234 34.7339 22.4734Z" fill="#A583BB"/>
<path d="M27.0554 25.0408H18.0381C16.7467 24.9896 16.7423 23.1437 18.0381 23.0906H27.0554C28.3468 23.1417 28.3512 24.9877 27.0554 25.0408Z" fill="#C2AACF"/>
<path d="M13.9597 25.5774C13.9591 25.9951 13.621 26.3348 13.2027 26.3344H6.43156C5.68187 26.3165 5.23116 25.5583 5.2339 24.8196H13.2027C13.6206 24.8196 13.9597 25.1586 13.9597 25.5774Z" fill="#C2AACF"/>
<path d="M35.0044 14.9055V15.5867C35.0492 17.2291 33.8683 18.9427 32.3857 18.8999H27.524C27.0896 18.8999 26.6708 19.1476 26.4162 19.5929C26.0544 20.2226 25.4685 20.6406 24.7927 20.6406C24.2326 20.6406 23.674 20.5804 23.1216 20.4609L17.438 19.2304C17.1279 19.1632 16.8185 19.3663 16.6888 19.7296C16.4966 20.2663 16.0693 20.6406 15.5724 20.6406H12.5318C11.7247 20.6406 10.9888 20.2538 10.4333 19.6187C10.2052 19.3578 9.85522 19.3898 9.64506 19.6742C9.206 20.2687 8.581 20.6406 7.88647 20.6406H5.66459C5.14272 20.6406 4.66928 20.3726 4.32787 19.9398C3.96537 19.4787 3.77061 18.8604 3.77397 18.2484C3.77397 17.1624 4.35287 16.2124 5.18256 15.9359L8.65287 14.7788C9.16459 14.6077 9.66928 14.8437 9.981 15.3046C10.2271 15.6687 10.6005 15.8523 10.9755 15.7843L16.7974 14.7235L25.0498 13.2195C25.7815 13.0967 26.4649 12.583 26.9255 11.8992C27.5137 11.0997 28.3331 10.7136 29.2138 10.768C29.9537 10.768 30.6646 11.1367 31.1919 11.7938L31.4685 12.1391C31.9271 12.7102 32.5443 13.0297 33.188 13.0297H33.5216C34.3412 13.0297 35.0044 13.8695 35.0044 14.9055Z" fill="#9175A7"/>
<path d="M35.004 14.9057C35.0014 15.291 35.022 15.8659 34.954 16.237H27.4188C26.9345 16.237 26.4696 16.4291 26.1266 16.7721C25.394 17.5839 24.5079 18.0853 23.3946 18.0854H19.9595C19.3482 18.1103 18.6475 17.8332 18.0766 17.6362C17.6024 17.4737 17.0766 17.5995 16.7266 17.9581L16.4727 18.2182C15.9306 18.7737 15.1876 19.087 14.411 19.087H13.3306C12.6106 19.0961 11.9309 18.8004 11.3806 18.3471C10.6032 17.7737 9.53524 17.8034 8.79227 18.4198L8.56961 18.6034C8.19305 18.9159 7.71883 19.087 7.22977 19.087H3.89305C3.60352 18.1541 3.84274 16.936 4.57665 16.2924C4.75633 16.1323 4.96024 16.0104 5.18211 15.9362L8.48055 14.8362L8.65243 14.7791C9.16414 14.608 9.66883 14.844 9.98055 15.3049C10.2195 15.6611 10.6005 15.855 10.9751 15.7846C14.3223 15.1746 21.6506 13.8391 25.0493 13.2198C25.8051 13.0941 26.4894 12.5489 26.9251 11.8995C27.5132 11.0998 28.3327 10.714 29.2134 10.7682C29.9532 10.7682 30.6641 11.137 31.1915 11.794L31.4681 12.1393C31.8952 12.6749 32.5129 13.0309 33.1876 13.0299H33.5212C34.3407 13.0299 35.004 13.8698 35.004 14.9057Z" fill="#A583BB"/>
<path d="M32.13 12.7259C30.6403 14.1886 27.7441 14.096 26.3901 12.5259C26.5852 12.3512 26.7673 12.1197 26.9253 11.8993C27.4581 11.1782 28.2034 10.7681 28.9847 10.7681C29.8225 10.7175 30.6065 11.0608 31.1917 11.7938C31.4487 12.129 31.7715 12.5281 32.13 12.7259Z" fill="#C2AACF"/>
<path d="M10.0042 15.3382C9.99131 16.1769 9.42326 16.9288 8.61982 17.1703L7.68311 17.4562L6.40342 17.8945L5.96904 18.0281C5.21357 18.2593 4.39639 18.0132 3.89404 17.4109C4.10162 16.7273 4.52873 16.1638 5.18232 15.9359L8.48076 14.8359C9.07803 14.5813 9.63647 14.7778 10.0042 15.3382Z" fill="#C2AACF"/>
<path d="M23.5943 15.9291L12.9475 17.1807C12.0295 17.2893 11.1787 16.6861 10.9756 15.7846C15.6507 14.9327 20.3747 14.0715 25.0498 13.2197L25.1584 13.8104C25.3475 14.8361 24.6295 15.8072 23.5943 15.9291Z" fill="#C2AACF"/>
<path d="M15.6139 16.2186C15.407 16.2574 15.198 16.114 15.1623 15.9007L15.0146 15.0483L15.7834 14.9077L15.9326 15.7671C15.9693 15.9796 15.8264 16.1819 15.6139 16.2186Z" fill="#A583BB"/>
<path d="M13.8681 16.4242C13.6602 16.4609 13.4522 16.3201 13.4165 16.1062L13.2876 15.3633L14.0556 15.2227L14.186 15.9727C14.2227 16.1852 14.0806 16.3875 13.8681 16.4242Z" fill="#A583BB"/>
<path d="M12.1213 16.6295C11.9134 16.6662 11.7054 16.5255 11.6697 16.3116L11.5596 15.678L12.3283 15.5374L12.4393 16.178C12.476 16.3905 12.3338 16.5928 12.1213 16.6295Z" fill="#A583BB"/>
<path d="M17.3614 16.0131C17.1538 16.0519 16.9455 15.9084 16.9099 15.6951L16.7427 14.7334L17.5114 14.5928L17.6794 15.5615C17.7169 15.774 17.5739 15.9764 17.3614 16.0131Z" fill="#A583BB"/>
<path d="M19.1082 15.8078C18.9004 15.8464 18.6923 15.7039 18.6566 15.4898L18.4707 14.4187L19.2387 14.2781L19.4262 15.3562C19.4629 15.5687 19.3207 15.771 19.1082 15.8078Z" fill="#A583BB"/>
<path d="M20.855 15.603C20.6471 15.6396 20.4391 15.4989 20.4034 15.285L20.1987 14.1038L20.9667 13.9631L21.173 15.1514C21.2097 15.3639 21.0675 15.5655 20.855 15.603Z" fill="#A583BB"/>
<path d="M22.6011 15.3977C22.394 15.4344 22.1861 15.2935 22.1495 15.0797L21.9253 13.7891L22.6948 13.6484L22.9198 14.9461C22.9565 15.1586 22.8144 15.3609 22.6011 15.3977Z" fill="#A583BB"/>
<path d="M24.3479 15.1921C24.1402 15.2288 23.9319 15.0879 23.8963 14.8741L23.6533 13.4741C23.6536 13.4742 24.4217 13.3332 24.4221 13.3335L24.6658 14.7405C24.7033 14.953 24.5604 15.1554 24.3479 15.1921Z" fill="#A583BB"/>
<path d="M33.2381 16.2366H28.6971C27.9016 16.2097 27.8993 15.0605 28.6971 15.0327H33.2381C33.5705 15.0327 33.84 15.3022 33.84 15.6347C33.84 15.9671 33.5705 16.2366 33.2381 16.2366Z" fill="#C2AACF"/>
<path d="M31.0838 13.6056C31.0845 14.3997 30.4343 15.0351 29.6565 15.0329H27.6979C26.9094 15.0332 26.2703 14.394 26.2705 13.6056C26.267 12.8152 26.9225 12.1739 27.6979 12.1782H29.6565C30.4444 12.1779 31.0836 12.8171 31.0838 13.6056Z" fill="#746087"/>
<path d="M31.084 13.6055C31.084 14.1078 30.8246 14.5492 30.4324 14.8031C28.8168 14.6766 27.5527 13.5539 27.548 12.1859C27.5248 12.1692 29.6095 12.1818 29.6566 12.1781C30.4446 12.1778 31.0838 12.817 31.084 13.6055Z" fill="#9175A7"/>
<path d="M30.5445 13.6054C30.5445 14.1187 30.1281 14.5343 29.6156 14.5343H27.7383C26.506 14.4854 26.5057 12.7264 27.7383 12.6765H29.6156C30.1283 12.6763 30.5447 13.0935 30.5445 13.6054Z" fill="#53B976"/>
<path d="M29.1174 13.6054C29.1174 13.957 28.9963 14.2796 28.7924 14.5343H27.7385C27.2246 14.5342 26.8097 14.1192 26.8096 13.6054C26.8096 13.0929 27.2252 12.6765 27.7385 12.6765H28.7916C28.9955 12.9304 29.1174 13.2539 29.1174 13.6054Z" fill="#2E3140"/>
<path d="M29.1175 13.6054C29.1175 13.957 28.9964 14.2796 28.7925 14.5343H28.1402C27.9064 13.966 27.9064 13.2448 28.1402 12.6765H28.7917C28.9956 12.9304 29.1175 13.2539 29.1175 13.6054Z" fill="#3E4E60"/>
<path d="M29.8264 13.1228H28.7261C28.5111 13.1228 28.3369 13.297 28.3369 13.5119C28.3369 13.7269 28.5111 13.9011 28.7261 13.9011H29.8264C30.3404 13.8854 30.3409 13.1387 29.8264 13.1228Z" fill="#83D5EF"/>
<path d="M8.21539 16.7101C8.21656 17.044 7.99922 17.3485 7.6818 17.4561L6.40211 17.8944C5.40008 18.195 4.91352 16.7813 5.89118 16.4015L7.17008 15.9632C7.67047 15.7809 8.22367 16.1808 8.21539 16.7101Z" fill="#2E3140"/>
<path d="M7.98633 17.2656C7.90352 17.3492 7.80118 17.4156 7.68243 17.4562L6.40274 17.8945C5.78649 18.1132 5.17789 17.4933 5.4043 16.8851C6.22641 16.6937 7.37711 16.8489 7.98633 17.2656Z" fill="#3E4E60"/>
<path d="M6.39473 19.9532V22.0501C6.39473 22.2524 6.14863 22.3516 6.00801 22.2063C5.96035 22.1571 5.91426 22.1063 5.87051 22.054C5.64395 21.7876 5.46426 21.4884 5.33457 21.1681C5.17988 20.786 5.09863 20.3735 5.09863 19.9532C5.0984 19.6781 5.32184 19.4554 5.59629 19.4556H5.89629C6.17207 19.4556 6.39473 19.6782 6.39473 19.9532Z" fill="#FBD9A3"/>
<path d="M5.87051 19.7297V21.0825C5.87051 21.3808 5.45777 21.4662 5.34379 21.1905C5.18301 20.8018 5.09863 20.3818 5.09863 19.953C5.09863 19.8155 5.1541 19.6913 5.24395 19.6015C5.42777 19.4012 5.85559 19.3819 5.87051 19.7297Z" fill="#FAEFDC"/>
<path d="M8.26562 23.6118L7.28062 21.7607C7.18554 21.582 6.92171 21.61 6.86585 21.8044C6.7514 22.2047 6.71569 22.6269 6.75905 23.0374C6.80194 23.4473 6.92397 23.8497 7.1214 24.2207C7.25046 24.4637 7.55226 24.5553 7.79452 24.4262L8.05937 24.2853C8.3028 24.1558 8.39476 23.8546 8.26562 23.6118Z" fill="#FBD9A3"/>
<path d="M7.90752 24.0554L7.27205 22.8611C7.13197 22.5977 6.72752 22.7162 6.75635 23.0131C6.79697 23.4319 6.91979 23.8422 7.12119 24.2207C7.1858 24.3421 7.29307 24.4257 7.41463 24.4628C7.66869 24.5548 8.05924 24.3666 7.90752 24.0554Z" fill="#FAEFDC"/>
<path d="M10.9492 23.2639L9.96421 21.4128C9.86913 21.2341 9.6053 21.2621 9.54944 21.4565C9.43499 21.8568 9.39929 22.279 9.44265 22.6895C9.48554 23.0994 9.60757 23.5017 9.80499 23.8728C9.93405 24.1158 10.2359 24.2074 10.4781 24.0783L10.743 23.9374C10.9864 23.8078 11.0784 23.5067 10.9492 23.2639Z" fill="#FBD9A3"/>
<path d="M10.5911 23.7075L9.95565 22.5132C9.81557 22.2498 9.41111 22.3683 9.43994 22.6652C9.48057 23.084 9.60338 23.4943 9.80479 23.8729C9.8694 23.9943 9.97666 24.0779 10.0982 24.115C10.3522 24.2069 10.7428 24.0187 10.5911 23.7075Z" fill="#FAEFDC"/>
<path d="M16.9726 21.8423L15.9876 19.9911C15.8926 19.8125 15.6287 19.8405 15.5729 20.0349C15.4584 20.4352 15.4227 20.8574 15.4661 21.2678C15.509 21.6778 15.631 22.0801 15.8284 22.4511C15.9575 22.6942 16.2593 22.7857 16.5016 22.6567L16.7664 22.5157C17.0098 22.3862 17.1019 22.0851 16.9726 21.8423Z" fill="#FBD9A3"/>
<path d="M16.6145 22.2858L15.9791 21.0915C15.839 20.8282 15.4346 20.9467 15.4634 21.2436C15.504 21.6623 15.6268 22.0727 15.8282 22.4512C15.8928 22.5726 16.0001 22.6562 16.1217 22.6933C16.3756 22.7853 16.7663 22.5971 16.6145 22.2858Z" fill="#FAEFDC"/>
<path d="M21.1763 21.9986L20.1913 20.1474C20.0962 19.9687 19.8324 19.9968 19.7765 20.1911C19.662 20.5914 19.6263 21.0136 19.6697 21.4241C19.7126 21.834 19.8346 22.2364 20.032 22.6074C20.1611 22.8504 20.4629 22.942 20.7052 22.8129L20.97 22.672C21.2134 22.5425 21.3054 22.2414 21.1763 21.9986Z" fill="#FBD9A3"/>
<path d="M20.8182 22.4421L20.1827 21.2478C20.0426 20.9844 19.6382 21.1029 19.667 21.3998C19.7076 21.8186 19.8304 22.229 20.0318 22.6074C20.0965 22.7288 20.2037 22.8124 20.3253 22.8495C20.5793 22.9415 20.9698 22.7533 20.8182 22.4421Z" fill="#FAEFDC"/>
<path d="M24.6138 21.9986L23.6288 20.1474C23.5337 19.9687 23.2699 19.9968 23.214 20.1911C23.0995 20.5914 23.0638 21.0136 23.1072 21.4241C23.1501 21.834 23.2721 22.2364 23.4695 22.6074C23.5986 22.8504 23.9004 22.942 24.1427 22.8129L24.4075 22.672C24.651 22.5425 24.743 22.2414 24.6138 21.9986Z" fill="#FBD9A3"/>
<path d="M24.2557 22.4421L23.6202 21.2478C23.4801 20.9844 23.0757 21.1029 23.1045 21.3998C23.1451 21.8186 23.2679 22.229 23.4693 22.6074C23.534 22.7288 23.6412 22.8124 23.7628 22.8495C24.0168 22.9415 24.4074 22.7533 24.2557 22.4421Z" fill="#FAEFDC"/>
<path d="M8.696 19.7284V21.8252C8.696 22.0276 8.4499 22.1268 8.30928 21.9815C8.26162 21.9323 8.21553 21.8815 8.17178 21.8291C7.94522 21.5627 7.76553 21.2635 7.63584 20.9432C7.48115 20.5612 7.3999 20.1487 7.3999 19.7284C7.39967 19.4532 7.62311 19.2306 7.89756 19.2307H8.19756C8.47334 19.2307 8.696 19.4534 8.696 19.7284Z" fill="#FBD9A3"/>
<path d="M8.17178 19.5048V20.8576C8.17178 21.1559 7.75904 21.2413 7.64506 20.9657C7.48428 20.5769 7.3999 20.1569 7.3999 19.7282C7.3999 19.5907 7.45537 19.4665 7.54521 19.3766C7.72904 19.1763 8.15685 19.1571 8.17178 19.5048Z" fill="#FAEFDC"/>
<path d="M14.7878 19.9532V22.0501C14.7878 22.2524 14.5417 22.3516 14.4011 22.2063C14.3534 22.1571 14.3073 22.1063 14.2636 22.054C14.037 21.7876 13.8573 21.4884 13.7276 21.1681C13.5729 20.786 13.4917 20.3735 13.4917 19.9532C13.4915 19.6781 13.7149 19.4554 13.9894 19.4556H14.2894C14.5651 19.4556 14.7878 19.6782 14.7878 19.9532Z" fill="#FBD9A3"/>
<path d="M14.2636 19.7297V21.0825C14.2636 21.3808 13.8508 21.4662 13.7369 21.1905C13.5761 20.8018 13.4917 20.3818 13.4917 19.953C13.4917 19.8155 13.5472 19.6913 13.637 19.6015C13.8208 19.4012 14.2487 19.3819 14.2636 19.7297Z" fill="#FAEFDC"/>
<path d="M19.1184 18.815V20.9119C19.1184 21.1142 18.8723 21.2135 18.7316 21.0682C18.684 21.0189 18.6379 20.9682 18.5941 20.9158C18.3676 20.6494 18.1879 20.3502 18.0582 20.0299C17.9035 19.6478 17.8223 19.2353 17.8223 18.815C17.822 18.5399 18.0455 18.3172 18.3199 18.3174H18.6199C18.8957 18.3174 19.1184 18.54 19.1184 18.815Z" fill="#FBD9A3"/>
<path d="M18.5941 18.5915V19.9443C18.5941 20.2426 18.1814 20.328 18.0674 20.0524C17.9066 19.6636 17.8223 19.2436 17.8223 18.8149C17.8223 18.6774 17.8777 18.5531 17.9676 18.4633C18.1514 18.263 18.5792 18.2438 18.5941 18.5915Z" fill="#FAEFDC"/>
<path d="M22.4387 19.7284V21.8252C22.4387 22.0276 22.1926 22.1268 22.052 21.9815C22.0043 21.9323 21.9582 21.8815 21.9145 21.8291C21.6879 21.5627 21.5082 21.2635 21.3785 20.9432C21.2238 20.5612 21.1426 20.1487 21.1426 19.7284C21.1423 19.4532 21.3658 19.2306 21.6402 19.2307H21.9402C22.216 19.2307 22.4387 19.4534 22.4387 19.7284Z" fill="#FBD9A3"/>
<path d="M21.9145 19.5048V20.8576C21.9145 21.1559 21.5017 21.2413 21.3877 20.9657C21.2269 20.5769 21.1426 20.1569 21.1426 19.7282C21.1426 19.5907 21.198 19.4665 21.2879 19.3766C21.4717 19.1763 21.8995 19.1571 21.9145 19.5048Z" fill="#FAEFDC"/>
<path d="M25.9675 19.9532V22.0501C25.9675 22.2524 25.7214 22.3516 25.5808 22.2063C25.5331 22.1571 25.487 22.1063 25.4433 22.054C25.2167 21.7876 25.037 21.4884 24.9073 21.1681C24.7526 20.786 24.6714 20.3735 24.6714 19.9532C24.6712 19.6781 24.8946 19.4554 25.169 19.4556H25.469C25.7448 19.4556 25.9675 19.6782 25.9675 19.9532Z" fill="#FBD9A3"/>
<path d="M25.4433 19.7297V21.0825C25.4433 21.3808 25.0305 21.4662 24.9165 21.1905C24.7557 20.8018 24.6714 20.3818 24.6714 19.953C24.6714 19.8155 24.7269 19.6913 24.8167 19.6015C25.0006 19.4012 25.4283 19.3819 25.4433 19.7297Z" fill="#FAEFDC"/>
<path d="M11.7907 19.5843V21.6812C11.7907 21.8835 11.5446 21.9828 11.404 21.8374C11.3563 21.7882 11.3103 21.7374 11.2665 21.6851C11.0399 21.4187 10.8603 21.1195 10.7306 20.7992C10.5759 20.4171 10.4946 20.0046 10.4946 19.5843C10.4944 19.3092 10.7178 19.0865 10.9923 19.0867H11.2923C11.5681 19.0867 11.7907 19.3093 11.7907 19.5843Z" fill="#FBD9A3"/>
<path d="M11.2665 19.3608V20.7136C11.2665 21.0119 10.8538 21.0973 10.7398 20.8216C10.579 20.4329 10.4946 20.0129 10.4946 19.5841C10.4946 19.4466 10.5501 19.3224 10.6399 19.2326C10.8238 19.0323 11.2516 19.0131 11.2665 19.3608Z" fill="#FAEFDC"/>
</svg>
