<svg width="40" height="40" viewBox="0 0 40 40" fill="none" xmlns="http://www.w3.org/2000/svg">
<path d="M40 20C40 31.0458 31.0458 40 20 40C8.95416 40 0 31.0458 0 20C0 8.95416 8.95416 0 20 0C31.0458 0 40 8.95416 40 20Z" fill="#FFE05C"/>
<path d="M29.8534 35.1234V37.4082C26.9454 39.058 23.5829 40.0001 20.0002 40.0001C17.8884 40.0001 15.8541 39.6726 13.9431 39.0662C12.6125 38.6442 11.3414 38.0857 10.147 37.4082V35.1234C10.147 31.2238 13.1505 28.0247 16.9716 27.7161C17.1724 27.6996 17.3748 27.6914 17.5798 27.6914H22.4199C22.9921 27.6914 23.5488 27.7552 24.0834 27.8776C27.3879 28.6335 29.8534 31.5909 29.8534 35.1234Z" fill="#DD104F"/>
<path d="M29.8534 35.1234V37.4082C28.0779 38.4156 26.1336 39.1593 24.0721 39.5844C22.918 39.8237 21.7269 39.9631 20.5089 39.9933C20.3401 39.9976 20.1702 40.0001 20.0005 40.0001C17.8887 40.0001 15.8544 39.6726 13.9434 39.0662V35.1234C13.9434 34.5966 13.998 34.0824 14.1024 33.5868C14.3148 32.5745 14.7335 31.6392 15.3124 30.8243C16.6591 28.9283 18.8738 27.6914 21.3768 27.6914H22.4199C26.5261 27.6914 29.8534 31.0187 29.8534 35.1234Z" fill="#F73B6C"/>
<path d="M33.8058 15.4923L27.0459 22.0417H12.9544L12.3587 21.4646L6.19385 15.4923H10.1495L6.7038 11.8531H10.1324L7.59705 9.31738H10.3717L7.7243 6.6709H12.3807L10.148 4.43823H16.1569V0.981201L20.0003 4.8252L23.8434 0.981201V4.43823H29.8517L27.6199 6.6709H32.2754L29.6289 9.31738H32.4036L29.8679 11.8531H33.2959L29.8508 15.4923H33.8058Z" fill="#2F373B"/>
<path d="M13.3057 11.853V22.0416H12.9544L12.3587 21.4645L6.19385 15.4922H10.1495L6.7038 11.853H13.3057Z" fill="#151A1C"/>
<path d="M23.2112 27.8596V28.0448C23.2112 29.4611 22.3027 30.6937 20.9492 31.1118C20.6431 31.2073 20.323 31.2556 19.9998 31.2556C18.2292 31.2556 16.7891 29.8154 16.7891 28.0448V27.7134C16.9703 27.6987 17.1531 27.6914 17.3384 27.6914H21.7091C22.2258 27.6914 22.7287 27.7494 23.2112 27.8596Z" fill="#F2EFEA"/>
<path d="M22.6518 24.8281V28.0825C22.6518 29.2739 21.8663 30.281 20.7841 30.6155C20.5366 30.6921 20.2726 30.7339 19.9995 30.7339C18.5353 30.7339 17.3481 29.5468 17.3481 28.0825V24.8281H22.6518Z" fill="#EAA27F"/>
<path d="M22.6519 27.8762V28.0825C22.6519 29.2739 21.8663 30.281 20.7842 30.6155C19.8079 30.3152 19.074 29.4665 18.9385 28.4277C19.1155 28.4387 19.2937 28.4442 19.4725 28.4442C19.9742 28.4442 20.4662 28.4042 20.9453 28.3254C21.5355 28.2308 22.1059 28.0789 22.6519 27.8762Z" fill="#F6BA97"/>
<path d="M12.7254 19.4949C12.7254 20.7224 11.8288 21.7404 10.6545 21.9293C10.5263 21.9501 10.3942 21.9608 10.2596 21.9608C8.89728 21.9608 7.79346 20.8572 7.79346 19.4949C7.79346 18.1326 8.89728 17.0288 10.2596 17.0288C10.3942 17.0288 10.5263 17.0398 10.6545 17.0605C11.8288 17.2495 12.7254 18.2672 12.7254 19.4949Z" fill="#F6BA97"/>
<path d="M12.7257 19.4949C12.7257 20.7224 11.8291 21.7404 10.6548 21.9293C10.4415 21.1536 10.3276 20.3372 10.3276 19.4949C10.3276 18.6523 10.4415 17.836 10.6548 17.0605C11.8291 17.2495 12.7257 18.2672 12.7257 19.4949Z" fill="#EAA27F"/>
<path d="M11.1409 19.4949C11.1409 19.9816 10.7463 20.3762 10.2596 20.3762C9.77283 20.3762 9.37793 19.9816 9.37793 19.4949C9.37793 19.0081 9.77283 18.6135 10.2596 18.6135C10.7463 18.6135 11.1409 19.0081 11.1409 19.4949Z" fill="#EAA27F"/>
<path d="M27.2739 19.4949C27.2739 20.7224 28.1705 21.7404 29.3448 21.9293C29.4733 21.9501 29.6052 21.9608 29.7397 21.9608C31.1021 21.9608 32.2059 20.8572 32.2059 19.4949C32.2059 18.1326 31.1021 17.0288 29.7397 17.0288C29.6052 17.0288 29.4733 17.0398 29.3448 17.0605C28.1705 17.2495 27.2739 18.2672 27.2739 19.4949Z" fill="#F6BA97"/>
<path d="M27.2739 19.4949C27.2739 20.7224 28.1705 21.7404 29.3448 21.9293C29.5582 21.1536 29.672 20.3372 29.672 19.4949C29.672 18.6523 29.5582 17.836 29.3448 17.0605C28.1705 17.2495 27.2739 18.2672 27.2739 19.4949Z" fill="#EAA27F"/>
<path d="M29.1749 14.6906V18.1845C29.1749 22.7502 25.8397 26.5378 21.4723 27.2406C21.4576 27.243 21.4421 27.2455 21.4274 27.2482C20.963 27.3224 20.486 27.359 19.9995 27.359C14.9327 27.359 10.8247 23.2513 10.8247 18.1845V14.6906C10.8247 13.6237 11.0069 12.5983 11.3432 11.6455C12.5978 8.07495 16.0005 5.51514 19.9995 5.51514H20.0004C20.486 5.51514 20.9636 5.55267 21.429 5.62592C25.8174 6.31165 29.1749 10.1093 29.1749 14.6906Z" fill="#EAA27F"/>
<path d="M30.6214 19.4949C30.6214 19.9816 30.2268 20.3762 29.7397 20.3762C29.253 20.3762 28.8584 19.9816 28.8584 19.4949C28.8584 19.0081 29.253 18.6135 29.7397 18.6135C30.2268 18.6135 30.6214 19.0081 30.6214 19.4949Z" fill="#EAA27F"/>
<path d="M29.175 14.6906V18.1846C29.175 22.7503 25.8397 26.5378 21.4724 27.2407C21.4577 27.2431 21.4421 27.2455 21.4275 27.2483C17.0388 26.5626 13.6821 22.765 13.6821 18.1846V14.6906C13.6821 10.1093 17.0397 6.31171 21.429 5.62598C25.8174 6.31171 29.175 10.1093 29.175 14.6906Z" fill="#F6BA97"/>
<path d="M19.9995 22.7033C19.231 22.7033 18.4629 22.5107 17.7625 22.1259C17.5648 22.0173 17.4927 21.7692 17.6014 21.5714C17.71 21.374 17.9581 21.3019 18.1556 21.4103C19.3101 22.045 20.6885 22.045 21.843 21.4103C22.0405 21.3019 22.2886 21.374 22.3972 21.5714C22.5059 21.7692 22.4338 22.0173 22.2361 22.1259C21.536 22.5107 20.7676 22.7033 19.9995 22.7033Z" fill="#EAA27F"/>
<path d="M21.0403 20.2706H18.9587C18.7106 20.2706 18.5098 20.0698 18.5098 19.8217C18.5098 19.5736 18.7106 19.3728 18.9587 19.3728H21.0403C21.2884 19.3728 21.4892 19.5736 21.4892 19.8217C21.4892 20.0698 21.2884 20.2706 21.0403 20.2706Z" fill="#EAA27F"/>
<path d="M18.0455 17.6501C18.0455 18.225 17.5798 18.6907 17.0048 18.6907C16.4299 18.6907 15.9639 18.225 15.9639 17.6501C15.9639 17.0751 16.4299 16.6091 17.0048 16.6091C17.5798 16.6091 18.0455 17.0751 18.0455 17.6501Z" fill="#2F373B"/>
<path d="M24.0355 17.6501C24.0355 18.225 23.5695 18.6907 22.9946 18.6907C22.4196 18.6907 21.9536 18.225 21.9536 17.6501C21.9536 17.0751 22.4196 16.6091 22.9946 16.6091C23.5695 16.6091 24.0355 17.0751 24.0355 17.6501Z" fill="#2F373B"/>
<path d="M17.8334 17.4664C17.8334 17.7126 17.6339 17.9122 17.3876 17.9122C17.1413 17.9122 16.9414 17.7126 16.9414 17.4664C16.9414 17.2201 17.1413 17.0205 17.3876 17.0205C17.6339 17.0205 17.8334 17.2201 17.8334 17.4664Z" fill="white"/>
<path d="M23.8745 17.4664C23.8745 17.7126 23.6746 17.9122 23.4283 17.9122C23.182 17.9122 22.9824 17.7126 22.9824 17.4664C22.9824 17.2201 23.182 17.0205 23.4283 17.0205C23.6746 17.0205 23.8745 17.2201 23.8745 17.4664Z" fill="white"/>
<path d="M29.8677 11.8531L29.3447 17.0606L28.5985 17.0948L26.4604 10.1639V13.8376L20.338 10.0416L21.3176 13.715L15.3496 9.41534L16.1757 13.2252L12.9918 11.6334L11.614 17.0948L10.5446 15.7551L10.1323 11.8531L13.3806 8.33807L14.5275 6.06787L17.889 5.30432L20.0002 4.8252L24.7463 5.75659L29.6288 9.31738L29.8677 11.8531Z" fill="#2F373B"/>
<path d="M23.8436 0.981201L21.808 6.98065L20.0005 4.8252L23.8436 0.981201Z" fill="#151A1C"/>
<path d="M29.8521 4.43823L23.8895 5.75659L23.8438 4.43823H29.8521Z" fill="#151A1C"/>
<path d="M17.9506 9.28656L15.3499 9.41534L16.176 13.2252L12.9921 11.6334L11.6142 17.0948L10.6547 17.0606L10.1326 11.8531L7.59717 9.31738H10.3718L7.72443 6.6709H12.3808L10.1481 4.43823H16.157V0.981201L20.0004 4.8252L20.8702 5.45447L21.808 6.98065L17.8892 4.43823L18.6125 7.45062L15.9309 5.83746L17.9506 9.28656Z" fill="#151A1C"/>
</svg>
