<svg width="40" height="40" viewBox="0 0 40 40" fill="none" xmlns="http://www.w3.org/2000/svg">
<path d="M40 20C40 31.0458 31.0458 40 20 40C8.95416 40 0 31.0458 0 20C0 8.95416 8.95416 0 20 0C31.0458 0 40 8.95416 40 20Z" fill="#F73B6C"/>
<path d="M29.8531 35.1234V37.4082C26.9454 39.058 23.5829 40.0001 20.0002 40.0001C17.8884 40.0001 15.8541 39.6726 13.9431 39.0662C12.6125 38.6442 11.3414 38.0857 10.147 37.4082V35.1234C10.147 31.2238 13.1502 28.0247 16.9716 27.7161C17.1724 27.6996 17.3748 27.6914 17.5798 27.6914H22.4196C22.9918 27.6914 23.5488 27.7552 24.0834 27.8776C27.3879 28.6335 29.8531 31.5909 29.8531 35.1234Z" fill="#0C85A5"/>
<path d="M29.8534 35.1234V37.4082C28.0779 38.4156 26.1333 39.1593 24.0721 39.5844C22.918 39.8237 21.7269 39.9631 20.5089 39.9933C20.3398 39.9976 20.1702 40.0001 20.0005 40.0001C17.8887 40.0001 15.8544 39.6726 13.9434 39.0662V35.1234C13.9434 34.5966 13.998 34.0824 14.1024 33.5868C14.3148 32.5745 14.7335 31.6392 15.3121 30.8243C16.6591 28.9283 18.8738 27.6914 21.3768 27.6914H22.4199C26.5261 27.6914 29.8534 31.0187 29.8534 35.1234Z" fill="#1DA2DD"/>
<path d="M19.9998 30.734L16.6535 32.5934L15.6357 27.8589L17.7149 26.6343" fill="#C1DCE5"/>
<path d="M19.9995 30.734L23.3455 32.5934L24.3635 27.8589L22.2844 26.6343" fill="#C1DCE5"/>
<path d="M22.6518 24.8281V28.0825C22.6518 29.2739 21.8663 30.281 20.7841 30.6155C20.5366 30.6921 20.2723 30.7339 19.9995 30.7339C18.535 30.7339 17.3481 29.5468 17.3481 28.0825V24.8281H22.6518Z" fill="#EAA27F"/>
<path d="M22.6519 27.8762V28.0825C22.6519 29.2739 21.8663 30.281 20.7842 30.6155C19.8079 30.3152 19.074 29.4665 18.9385 28.4277C19.1155 28.4387 19.2937 28.4442 19.4725 28.4442C19.9742 28.4442 20.4659 28.4042 20.945 28.3254C21.5355 28.2308 22.1059 28.0789 22.6519 27.8762Z" fill="#F6BA97"/>
<path d="M12.7259 19.4949C12.7259 20.7224 11.8293 21.7404 10.655 21.9293C10.5265 21.9501 10.3947 21.9608 10.2598 21.9608C8.89746 21.9608 7.79395 20.8572 7.79395 19.4949C7.79395 18.1326 8.89746 17.0288 10.2598 17.0288C10.3947 17.0288 10.5265 17.0398 10.655 17.0605C11.8293 17.2495 12.7259 18.2672 12.7259 19.4949Z" fill="#F6BA97"/>
<path d="M12.726 19.4949C12.726 20.7224 11.8294 21.7404 10.6551 21.9293C10.4418 21.1536 10.3276 20.3372 10.3276 19.4949C10.3276 18.6523 10.4418 17.836 10.6551 17.0605C11.8294 17.2495 12.726 18.2672 12.726 19.4949Z" fill="#EAA27F"/>
<path d="M11.1416 19.4949C11.1416 19.9816 10.747 20.3762 10.2603 20.3762C9.7735 20.3762 9.37891 19.9816 9.37891 19.4949C9.37891 19.0081 9.7735 18.6135 10.2603 18.6135C10.747 18.6135 11.1416 19.0081 11.1416 19.4949Z" fill="#EAA27F"/>
<path d="M27.2744 19.4949C27.2744 20.7224 28.171 21.7404 29.3453 21.9293C29.4738 21.9501 29.6057 21.9608 29.7405 21.9608C31.1028 21.9608 32.2064 20.8572 32.2064 19.4949C32.2064 18.1326 31.1028 17.0288 29.7405 17.0288C29.6057 17.0288 29.4738 17.0398 29.3453 17.0605C28.171 17.2495 27.2744 18.2672 27.2744 19.4949Z" fill="#F6BA97"/>
<path d="M27.2744 19.4949C27.2744 20.7224 28.171 21.7404 29.3453 21.9293C29.5587 21.1536 29.6728 20.3372 29.6728 19.4949C29.6728 18.6523 29.5587 17.836 29.3453 17.0605C28.171 17.2495 27.2744 18.2672 27.2744 19.4949Z" fill="#EAA27F"/>
<path d="M29.1749 14.6906V18.1845C29.1749 22.7502 25.8394 26.5378 21.4723 27.2406C21.4573 27.243 21.4421 27.2455 21.4271 27.2482C20.9626 27.3224 20.486 27.359 19.9995 27.359C14.9327 27.359 10.8247 23.2513 10.8247 18.1845V14.6906C10.8247 13.6237 11.0069 12.5983 11.3432 11.6455C12.5978 8.07495 16.0002 5.51514 19.9995 5.51514H20.0004C20.486 5.51514 20.9636 5.55267 21.429 5.62592C25.8174 6.31165 29.1749 10.1093 29.1749 14.6906Z" fill="#EAA27F"/>
<path d="M30.6211 19.4949C30.6211 19.9816 30.2265 20.3762 29.7397 20.3762C29.253 20.3762 28.8584 19.9816 28.8584 19.4949C28.8584 19.0081 29.253 18.6135 29.7397 18.6135C30.2265 18.6135 30.6211 19.0081 30.6211 19.4949Z" fill="#EAA27F"/>
<path d="M29.175 14.6906V18.1846C29.175 22.7503 25.8394 26.5378 21.4724 27.2407C21.4574 27.2431 21.4421 27.2455 21.4272 27.2483C17.0388 26.5626 13.6821 22.765 13.6821 18.1846V14.6906C13.6821 10.1093 17.0397 6.31171 21.429 5.62598C25.8174 6.31171 29.175 10.1093 29.175 14.6906Z" fill="#F6BA97"/>
<path d="M17.769 17.8748H23.4288V20.5661H17.769V17.8748Z" fill="#EAA27F"/>
<path d="M19.9996 23.2747C19.2315 23.2747 18.4631 23.0822 17.763 22.6973C17.5653 22.5887 17.4932 22.3406 17.6019 22.1431C17.7105 21.9454 17.9586 21.8734 18.1561 21.982C19.3105 22.6168 20.689 22.6165 21.8435 21.982C22.0406 21.8734 22.2891 21.9454 22.3977 22.1431C22.5063 22.3406 22.434 22.5887 22.2366 22.6973C21.5365 23.0822 20.7681 23.2747 19.9996 23.2747Z" fill="#EAA27F"/>
<path d="M21.0408 20.8422H18.9592C18.7111 20.8422 18.5103 20.6411 18.5103 20.3932C18.5103 20.1451 18.7111 19.9443 18.9592 19.9443H21.0408C21.2889 19.9443 21.4897 20.1451 21.4897 20.3932C21.4897 20.6411 21.2889 20.8422 21.0408 20.8422Z" fill="#EAA27F"/>
<path d="M28.9775 17.5091L28.7898 12.0538C23.047 13.999 19.2216 14.9175 16.7955 14.5028C20.1964 13.8528 22.837 11.585 22.8975 11.5328C22.8264 11.5624 18.9497 13.1451 16.5376 13.6242C15.406 13.8488 14.2576 13.2644 13.8044 12.203C13.8011 12.1975 13.7987 12.1908 13.7962 12.1853C13.7962 12.1853 13.513 17.0602 10.6541 17.0602C10.6541 17.0602 7.14338 5.16472 13.2249 6.96068C13.2249 6.96068 14.984 5.34508 17.6103 4.42681C17.6201 4.42345 17.6298 4.4204 17.6405 4.41613C17.6689 4.40545 17.6982 4.39568 17.7278 4.38683C17.7586 4.37707 17.7882 4.3673 17.816 4.35753C20.5931 3.4414 24.282 3.34588 27.8779 6.67504C35.0209 13.2873 28.9775 17.5091 28.9775 17.5091Z" fill="#FFE05C"/>
<path d="M16.5376 13.6241C15.406 13.8488 14.2576 13.2643 13.8044 12.2029C13.8011 12.1974 13.7987 12.1907 13.7962 12.1852C13.7962 12.1852 13.513 17.0601 10.6541 17.0601C10.6541 17.0601 7.14338 5.16467 13.2249 6.96063C13.2249 6.96063 14.984 5.34503 17.6103 4.42676C14.0062 5.73932 14.9562 13.6241 16.5376 13.6241Z" fill="#E89F18"/>
<path d="M18.9843 18.0579C18.9843 19.7321 17.6274 21.0889 15.9539 21.0889C15.7009 21.0889 15.4543 21.0578 15.2193 20.9992C13.9 20.6711 12.9229 19.4791 12.9229 18.0579C12.9229 16.6376 13.9 15.4456 15.2193 15.1176C15.4543 15.0587 15.7009 15.0278 15.9539 15.0278C17.6274 15.0278 18.9843 16.3843 18.9843 18.0579Z" fill="white"/>
<path d="M27.0844 18.0579C27.0844 19.7321 25.7276 21.0889 24.0543 21.0889C23.801 21.0889 23.5544 21.0578 23.3195 20.9992C22.0011 20.6711 21.0239 19.4791 21.0239 18.0579C21.0239 16.6376 22.0011 15.4456 23.3195 15.1176C23.5544 15.0587 23.801 15.0278 24.0543 15.0278C25.7276 15.0278 27.0844 16.3843 27.0844 18.0579Z" fill="white"/>
<path d="M17.5148 18.0578C17.5148 19.479 16.5377 20.671 15.2193 20.9991C13.9 20.671 12.9229 19.479 12.9229 18.0578C12.9229 16.6375 13.9 15.4455 15.2193 15.1174C16.5377 15.4455 17.5148 16.6375 17.5148 18.0578Z" fill="#C1DCE5"/>
<path d="M25.615 18.0578C25.615 19.479 24.6378 20.671 23.3195 20.9991C22.0011 20.671 21.0239 19.479 21.0239 18.0578C21.0239 16.6375 22.0011 15.4455 23.3195 15.1174C24.6378 15.4455 25.615 16.6375 25.615 18.0578Z" fill="#C1DCE5"/>
<path d="M15.9536 21.5716C14.0164 21.5716 12.4404 19.9954 12.4404 18.0581C12.4404 16.1208 14.0164 14.5449 15.9536 14.5449C17.8909 14.5449 19.4668 16.1208 19.4668 18.0581C19.4668 19.9954 17.8909 21.5716 15.9536 21.5716ZM15.9536 15.5108C14.5489 15.5108 13.4063 16.6534 13.4063 18.0581C13.4063 19.4628 14.5492 20.6054 15.9536 20.6054C17.3583 20.6054 18.5009 19.4628 18.5009 18.0581C18.5009 16.6537 17.3583 15.5108 15.9536 15.5108Z" fill="#2F373B"/>
<path d="M24.054 21.5716C22.1168 21.5716 20.5405 19.9954 20.5405 18.0581C20.5405 16.1208 22.1168 14.5449 24.054 14.5449C25.9913 14.5449 27.5672 16.1208 27.5672 18.0581C27.5672 19.9954 25.9913 21.5716 24.054 21.5716ZM24.054 15.5108C22.6493 15.5108 21.5067 16.6534 21.5067 18.0581C21.5067 19.4628 22.6493 20.6054 24.054 20.6054C25.4584 20.6054 26.6013 19.4628 26.6013 18.0581C26.6013 16.6537 25.4587 15.5108 24.054 15.5108Z" fill="#2F373B"/>
<path d="M18.9839 17.575H21.0237V18.5411H18.9839V17.575Z" fill="#2F373B"/>
<path d="M29.175 15.9956V17.0445L27.2078 17.8773L26.8315 16.9874L29.175 15.9956Z" fill="#2F373B"/>
<path d="M13.1328 16.9875L12.7562 17.8774L10.8247 17.0595V16.0112L13.1328 16.9875Z" fill="#2F373B"/>
<path d="M18.046 18.0582C18.046 18.6332 17.58 19.0992 17.0053 19.0992C16.4304 19.0992 15.9644 18.6332 15.9644 18.0582C15.9644 17.4836 16.4304 17.0176 17.0053 17.0176C17.58 17.0176 18.046 17.4836 18.046 18.0582Z" fill="#2F373B"/>
<path d="M24.0357 18.0582C24.0357 18.6332 23.5697 19.0992 22.9951 19.0992C22.4201 19.0992 21.9541 18.6332 21.9541 18.0582C21.9541 17.4836 22.4201 17.0176 22.9951 17.0176C23.5697 17.0176 24.0357 17.4836 24.0357 18.0582Z" fill="#2F373B"/>
<path d="M17.8339 17.8749C17.8339 18.1212 17.6343 18.3207 17.3881 18.3207C17.1418 18.3207 16.9419 18.1212 16.9419 17.8749C16.9419 17.6283 17.1418 17.4287 17.3881 17.4287C17.6343 17.4287 17.8339 17.6283 17.8339 17.8749Z" fill="white"/>
<path d="M23.8749 17.8749C23.8749 18.1212 23.675 18.3207 23.4288 18.3207C23.1825 18.3207 22.9829 18.1212 22.9829 17.8749C22.9829 17.6283 23.1825 17.4287 23.4288 17.4287C23.675 17.4287 23.8749 17.6283 23.8749 17.8749Z" fill="white"/>
</svg>
