<svg width="40" height="40" viewBox="0 0 40 40" fill="none" xmlns="http://www.w3.org/2000/svg">
<path d="M20 40C31.0457 40 40 31.0457 40 20C40 8.9543 31.0457 0 20 0C8.9543 0 0 8.9543 0 20C0 31.0457 8.9543 40 20 40Z" fill="#6C53A2"/>
<path d="M31.4023 28.7383C31.3164 28.8243 31.1969 28.8782 31.0648 28.8774L28.4898 28.8782C28.1016 28.8735 27.9352 28.4868 28.0547 28.2055C28.1039 28.0868 28.2047 27.9868 28.3609 27.9414C28.4016 27.9305 28.4453 27.9243 28.4898 27.9235L31.0648 27.9227C31.2719 27.9188 31.4305 28.0485 31.5008 28.2157C31.5726 28.3852 31.5531 28.5938 31.4023 28.7383Z" fill="#2E3140"/>
<path d="M31.5008 28.2157C31.4789 28.2664 31.4461 28.3133 31.4023 28.3555C31.3164 28.4414 31.1969 28.4953 31.0648 28.4946L28.4898 28.4953C28.268 28.493 28.1187 28.3664 28.0547 28.2055C28.1039 28.0868 28.2047 27.9868 28.3609 27.9414C28.4016 27.9305 28.4453 27.9243 28.4898 27.9235L31.0648 27.9227C31.2719 27.9187 31.4305 28.0484 31.5008 28.2157Z" fill="#334353"/>
<path d="M30.7114 28.0916H28.8438C28.7324 28.0916 28.6421 28.1819 28.6421 28.2933C28.6421 28.4047 28.7324 28.495 28.8438 28.495H30.7114C30.8228 28.495 30.9131 28.4047 30.9131 28.2933C30.913 28.1819 30.8228 28.0916 30.7114 28.0916Z" fill="#3E4E60"/>
<path d="M31.4023 31.6314C31.3164 31.7173 31.1969 31.7712 31.0648 31.7705L28.4898 31.7712C28.1016 31.7665 27.9352 31.3798 28.0547 31.0986C28.1039 30.9798 28.2047 30.8798 28.3609 30.8345C28.4016 30.8236 28.4453 30.8173 28.4898 30.8165L31.0648 30.8158C31.2719 30.8119 31.4305 30.9415 31.5008 31.1087C31.5726 31.2783 31.5531 31.4869 31.4023 31.6314Z" fill="#2E3140"/>
<path d="M31.5008 31.1087C31.4789 31.1595 31.4461 31.2064 31.4023 31.2486C31.3164 31.3345 31.1969 31.3884 31.0648 31.3876L28.4898 31.3884C28.268 31.3861 28.1187 31.2595 28.0547 31.0986C28.1039 30.9798 28.2047 30.8798 28.3609 30.8345C28.4016 30.8236 28.4453 30.8173 28.4898 30.8165L31.0648 30.8158C31.2719 30.8119 31.4305 30.9415 31.5008 31.1087Z" fill="#334353"/>
<path d="M30.7114 30.9846H28.8438C28.7324 30.9846 28.6421 31.0749 28.6421 31.1863C28.6421 31.2977 28.7324 31.3881 28.8438 31.3881H30.7114C30.8228 31.3881 30.9131 31.2977 30.9131 31.1863C30.913 31.0749 30.8228 30.9846 30.7114 30.9846Z" fill="#3E4E60"/>
<path d="M31.4023 25.8391C31.3164 25.9251 31.1969 25.979 31.0648 25.9782L28.4898 25.979C28.1016 25.9743 27.9352 25.5876 28.0547 25.3063C28.1039 25.1876 28.2047 25.0876 28.3609 25.0423C28.4016 25.0313 28.4453 25.0251 28.4898 25.0243L31.0648 25.0235C31.2719 25.0196 31.4305 25.1493 31.5008 25.3165C31.5726 25.486 31.5531 25.6946 31.4023 25.8391Z" fill="#2E3140"/>
<path d="M31.5008 25.3165C31.4789 25.3673 31.4461 25.4142 31.4023 25.4563C31.3164 25.5423 31.1969 25.5962 31.0648 25.5954L28.4898 25.5962C28.268 25.5938 28.1187 25.4673 28.0547 25.3063C28.1039 25.1876 28.2047 25.0876 28.3609 25.0423C28.4016 25.0313 28.4453 25.0251 28.4898 25.0243L31.0648 25.0235C31.2719 25.0196 31.4305 25.1493 31.5008 25.3165Z" fill="#334353"/>
<path d="M30.7114 25.1924H28.8438C28.7324 25.1924 28.6421 25.2827 28.6421 25.3941C28.6421 25.5055 28.7324 25.5958 28.8438 25.5958H30.7114C30.8228 25.5958 30.9131 25.5055 30.9131 25.3941C30.913 25.2827 30.8228 25.1924 30.7114 25.1924Z" fill="#3E4E60"/>
<path d="M31.4023 22.9466C31.3164 23.0325 31.1969 23.0864 31.0648 23.0856L28.4898 23.0864C28.1016 23.0817 27.9352 22.695 28.0547 22.4138C28.1039 22.295 28.2047 22.195 28.3609 22.1497C28.4016 22.1388 28.4453 22.1325 28.4898 22.1317L31.0648 22.1309C31.2719 22.127 31.4305 22.2567 31.5008 22.4239C31.5726 22.5934 31.5531 22.802 31.4023 22.9466Z" fill="#2E3140"/>
<path d="M31.5008 22.4239C31.4789 22.4747 31.4461 22.5216 31.4023 22.5638C31.3164 22.6497 31.1969 22.7036 31.0648 22.7028L28.4898 22.7036C28.268 22.7013 28.1187 22.5747 28.0547 22.4138C28.1039 22.295 28.2047 22.195 28.3609 22.1497C28.4016 22.1388 28.4453 22.1325 28.4898 22.1317L31.0648 22.1309C31.2719 22.127 31.4305 22.2567 31.5008 22.4239Z" fill="#334353"/>
<path d="M30.7114 22.2998H28.8438C28.7324 22.2998 28.6421 22.3901 28.6421 22.5015C28.6421 22.6129 28.7324 22.7032 28.8438 22.7032H30.7114C30.8228 22.7032 30.9131 22.6129 30.9131 22.5015C30.913 22.39 30.8228 22.2998 30.7114 22.2998Z" fill="#3E4E60"/>
<path d="M11.8452 14.8531C11.7593 14.939 11.6397 14.9929 11.5077 14.9921L8.93271 14.9929C8.54443 14.9882 8.37802 14.6015 8.49756 14.3203C8.54677 14.2015 8.64756 14.1015 8.8038 14.0562C8.84443 14.0453 8.88818 14.039 8.93271 14.0382L11.5077 14.0374C11.7147 14.0335 11.8733 14.1632 11.9436 14.3304C12.0155 14.4999 11.996 14.7085 11.8452 14.8531Z" fill="#2E3140"/>
<path d="M11.9437 14.3304C11.9218 14.3812 11.889 14.4281 11.8452 14.4703C11.7593 14.5562 11.6397 14.6101 11.5077 14.6093L8.93271 14.6101C8.71084 14.6078 8.56162 14.4812 8.49756 14.3203C8.54678 14.2015 8.64756 14.1015 8.80381 14.0562C8.84443 14.0453 8.88818 14.039 8.93271 14.0382L11.5077 14.0374C11.7147 14.0335 11.8733 14.1632 11.9437 14.3304Z" fill="#334353"/>
<path d="M11.1543 14.2063H9.28668C9.17527 14.2063 9.08496 14.2966 9.08496 14.408C9.08496 14.5194 9.17527 14.6097 9.28668 14.6097H11.1543C11.2657 14.6097 11.356 14.5194 11.356 14.408C11.3559 14.2966 11.2656 14.2063 11.1543 14.2063Z" fill="#3E4E60"/>
<path d="M11.8452 17.7461C11.7593 17.8321 11.6397 17.886 11.5077 17.8852L8.93271 17.886C8.54443 17.8813 8.37802 17.4946 8.49756 17.2133C8.54677 17.0946 8.64756 16.9946 8.8038 16.9493C8.84443 16.9383 8.88818 16.9321 8.93271 16.9313L11.5077 16.9305C11.7147 16.9266 11.8733 17.0563 11.9436 17.2235C12.0155 17.393 11.996 17.6016 11.8452 17.7461Z" fill="#2E3140"/>
<path d="M11.9437 17.2235C11.9218 17.2743 11.889 17.3211 11.8452 17.3633C11.7593 17.4493 11.6397 17.5032 11.5077 17.5024L8.93271 17.5032C8.71084 17.5008 8.56162 17.3743 8.49756 17.2133C8.54678 17.0946 8.64756 16.9946 8.80381 16.9493C8.84443 16.9383 8.88818 16.9321 8.93271 16.9313L11.5077 16.9305C11.7147 16.9266 11.8733 17.0563 11.9437 17.2235Z" fill="#334353"/>
<path d="M11.1543 17.0994H9.28668C9.17527 17.0994 9.08496 17.1897 9.08496 17.3011C9.08496 17.4125 9.17527 17.5028 9.28668 17.5028H11.1543C11.2657 17.5028 11.356 17.4125 11.356 17.3011C11.3559 17.1897 11.2656 17.0994 11.1543 17.0994Z" fill="#3E4E60"/>
<path d="M22.6235 28.7383C22.5376 28.8243 22.4181 28.8782 22.286 28.8774L19.711 28.8782C19.3228 28.8735 19.1563 28.4868 19.2759 28.2055C19.3251 28.0868 19.4259 27.9868 19.5821 27.9414C19.6228 27.9305 19.6665 27.9243 19.711 27.9235L22.286 27.9227C22.4931 27.9188 22.6517 28.0485 22.722 28.2157C22.7938 28.3852 22.7742 28.5938 22.6235 28.7383Z" fill="#2E3140"/>
<path d="M22.722 28.2157C22.7001 28.2664 22.6673 28.3133 22.6235 28.3555C22.5376 28.4414 22.4181 28.4953 22.286 28.4946L19.711 28.4953C19.4892 28.493 19.3399 28.3664 19.2759 28.2055C19.3251 28.0868 19.4259 27.9868 19.5821 27.9414C19.6228 27.9305 19.6665 27.9243 19.711 27.9235L22.286 27.9227C22.4931 27.9187 22.6517 28.0484 22.722 28.2157Z" fill="#334353"/>
<path d="M21.9326 28.0916H20.065C19.9536 28.0916 19.8633 28.1819 19.8633 28.2933C19.8633 28.4047 19.9536 28.495 20.065 28.495H21.9326C22.044 28.495 22.1343 28.4047 22.1343 28.2933C22.1343 28.1819 22.044 28.0916 21.9326 28.0916Z" fill="#3E4E60"/>
<path d="M22.6235 31.6314C22.5376 31.7173 22.4181 31.7712 22.286 31.7705L19.711 31.7712C19.3228 31.7665 19.1563 31.3798 19.2759 31.0986C19.3251 30.9798 19.4259 30.8798 19.5821 30.8345C19.6228 30.8236 19.6665 30.8173 19.711 30.8165L22.286 30.8158C22.4931 30.8119 22.6517 30.9415 22.722 31.1087C22.7938 31.2783 22.7742 31.4869 22.6235 31.6314Z" fill="#2E3140"/>
<path d="M22.722 31.1087C22.7001 31.1595 22.6673 31.2064 22.6235 31.2486C22.5376 31.3345 22.4181 31.3884 22.286 31.3876L19.711 31.3884C19.4892 31.3861 19.3399 31.2595 19.2759 31.0986C19.3251 30.9798 19.4259 30.8798 19.5821 30.8345C19.6228 30.8236 19.6665 30.8173 19.711 30.8165L22.286 30.8158C22.4931 30.8119 22.6517 30.9415 22.722 31.1087Z" fill="#334353"/>
<path d="M21.9326 30.9846H20.065C19.9536 30.9846 19.8633 31.0749 19.8633 31.1863C19.8633 31.2977 19.9536 31.3881 20.065 31.3881H21.9326C22.044 31.3881 22.1343 31.2977 22.1343 31.1863C22.1343 31.0749 22.044 30.9846 21.9326 30.9846Z" fill="#3E4E60"/>
<path d="M17.7259 23.3855C17.8118 23.4714 17.8657 23.591 17.8649 23.723L17.8657 26.298C17.861 26.6863 17.4743 26.8527 17.1931 26.7331C17.0743 26.6839 16.9743 26.5831 16.929 26.4269C16.9181 26.3863 16.9118 26.3425 16.911 26.298L16.9102 23.723C16.9063 23.516 17.036 23.3574 17.2032 23.2871C17.3727 23.2152 17.5813 23.2347 17.7259 23.3855Z" fill="#2E3140"/>
<path d="M17.2032 23.2871C17.254 23.309 17.3009 23.3418 17.3431 23.3855C17.429 23.4715 17.4829 23.591 17.4821 23.723L17.4829 26.298C17.4806 26.5199 17.354 26.6691 17.1931 26.7332C17.0743 26.684 16.9743 26.5832 16.929 26.427C16.9181 26.3863 16.9118 26.3426 16.911 26.298L16.9102 23.723C16.9063 23.516 17.036 23.3574 17.2032 23.2871Z" fill="#334353"/>
<path d="M17.0791 24.0762V25.9438C17.0791 26.0552 17.1694 26.1455 17.2808 26.1455C17.3922 26.1455 17.4825 26.0552 17.4825 25.9438V24.0762C17.4825 23.9648 17.3922 23.8745 17.2808 23.8745C17.1694 23.8746 17.0791 23.9648 17.0791 24.0762Z" fill="#3E4E60"/>
<path d="M20.6194 23.3855C20.7053 23.4714 20.7593 23.591 20.7585 23.723L20.7593 26.298C20.7546 26.6863 20.3679 26.8527 20.0866 26.7331C19.9679 26.6839 19.8679 26.5831 19.8225 26.4269C19.8116 26.3863 19.8054 26.3425 19.8046 26.298L19.8038 23.723C19.7999 23.516 19.9296 23.3574 20.0968 23.2871C20.2663 23.2152 20.4749 23.2347 20.6194 23.3855Z" fill="#2E3140"/>
<path d="M20.0968 23.2871C20.1475 23.309 20.1944 23.3418 20.2366 23.3855C20.3226 23.4715 20.3765 23.591 20.3757 23.723L20.3765 26.298C20.3741 26.5199 20.2476 26.6691 20.0866 26.7332C19.9679 26.684 19.8679 26.5832 19.8226 26.427C19.8116 26.3863 19.8054 26.3426 19.8046 26.298L19.8038 23.723C19.7998 23.516 19.9296 23.3574 20.0968 23.2871Z" fill="#334353"/>
<path d="M19.9727 24.0762V25.9438C19.9727 26.0552 20.063 26.1455 20.1744 26.1455C20.2858 26.1455 20.3761 26.0552 20.3761 25.9438V24.0762C20.3761 23.9648 20.2858 23.8745 20.1744 23.8745C20.063 23.8746 19.9727 23.9648 19.9727 24.0762Z" fill="#3E4E60"/>
<path d="M19.846 14.5581C19.9319 14.644 19.9858 14.7636 19.985 14.8956L19.9858 17.4706C19.9811 17.8589 19.5944 18.0253 19.3132 17.9058C19.1944 17.8565 19.0944 17.7558 19.0491 17.5995C19.0382 17.5589 19.0319 17.5151 19.0311 17.4706L19.0304 14.8956C19.0265 14.6886 19.1561 14.53 19.3233 14.4597C19.4929 14.3878 19.7015 14.4073 19.846 14.5581Z" fill="#2E3140"/>
<path d="M19.3233 14.4597C19.3741 14.4816 19.421 14.5144 19.4632 14.5582C19.5491 14.6441 19.603 14.7636 19.6022 14.8957L19.603 17.4707C19.6007 17.6925 19.4741 17.8417 19.3132 17.9058C19.1944 17.8566 19.0944 17.7558 19.0491 17.5996C19.0382 17.5589 19.0319 17.5152 19.0311 17.4707L19.0304 14.8957C19.0265 14.6886 19.1561 14.53 19.3233 14.4597Z" fill="#334353"/>
<path d="M19.1992 15.2488V17.1164C19.1992 17.2278 19.2895 17.3181 19.4009 17.3181C19.5123 17.3181 19.6027 17.2278 19.6027 17.1164V15.2488C19.6027 15.1374 19.5123 15.0471 19.4009 15.0471C19.2895 15.0472 19.1992 15.1375 19.1992 15.2488Z" fill="#3E4E60"/>
<path d="M22.7395 14.5581C22.8255 14.644 22.8794 14.7636 22.8786 14.8956L22.8794 17.4706C22.8747 17.8589 22.488 18.0253 22.2067 17.9058C22.088 17.8565 21.988 17.7558 21.9427 17.5995C21.9317 17.5589 21.9255 17.5151 21.9247 17.4706L21.9239 14.8956C21.92 14.6886 22.0497 14.53 22.2169 14.4597C22.3864 14.3878 22.595 14.4073 22.7395 14.5581Z" fill="#2E3140"/>
<path d="M22.2169 14.4597C22.2677 14.4816 22.3145 14.5144 22.3567 14.5582C22.4427 14.6441 22.4966 14.7636 22.4958 14.8957L22.4966 17.4707C22.4942 17.6925 22.3677 17.8417 22.2067 17.9058C22.088 17.8566 21.988 17.7558 21.9427 17.5996C21.9317 17.5589 21.9255 17.5152 21.9247 17.4707L21.9239 14.8957C21.92 14.6886 22.0497 14.53 22.2169 14.4597Z" fill="#334353"/>
<path d="M22.0928 15.2488V17.1164C22.0928 17.2278 22.1831 17.3181 22.2945 17.3181C22.4059 17.3181 22.4962 17.2278 22.4962 17.1164V15.2488C22.4962 15.1374 22.4059 15.0471 22.2945 15.0471C22.183 15.0472 22.0928 15.1375 22.0928 15.2488Z" fill="#3E4E60"/>
<path d="M26.0558 14.9386C26.1219 15.0405 26.1497 15.1687 26.1214 15.2976L25.5848 17.8161C25.4992 18.1948 25.0862 18.2768 24.8361 18.1012C24.7303 18.0283 24.6536 17.9089 24.6418 17.7466C24.6396 17.7046 24.6426 17.6605 24.6511 17.6168L25.1878 15.0983C25.2271 14.895 25.3871 14.767 25.5653 14.7331C25.746 14.6983 25.9459 14.7609 26.0558 14.9386Z" fill="#2E3140"/>
<path d="M25.5643 14.7332C25.6094 14.7651 25.6484 14.807 25.6805 14.8586C25.7466 14.9606 25.7744 15.0888 25.7461 15.2177L25.2095 17.7361C25.1609 17.9526 25.0059 18.0721 24.8352 18.1012C24.7293 18.0283 24.6526 17.9089 24.6409 17.7466C24.6386 17.7046 24.6416 17.6605 24.6502 17.6167L25.1868 15.0983C25.2262 14.895 25.3861 14.767 25.5643 14.7332Z" fill="#334353"/>
<path d="M25.278 15.4792L24.8883 17.3057C24.865 17.4146 24.9345 17.5218 25.0434 17.5451C25.1523 17.5683 25.2595 17.4988 25.2828 17.3899L25.6726 15.5634C25.6959 15.4545 25.6263 15.3473 25.5174 15.324C25.4084 15.3008 25.3013 15.3703 25.278 15.4792Z" fill="#3E4E60"/>
<path d="M29.1998 16.7095C29.2111 16.8305 29.1764 16.9569 29.0914 17.0581L27.4486 19.0409C27.1972 19.3369 26.7933 19.2181 26.6531 18.9467C26.5931 18.833 26.5804 18.6916 26.6453 18.5424C26.6628 18.5041 26.6859 18.4664 26.7137 18.4317L28.3566 16.4488C28.4857 16.287 28.6867 16.2476 28.8603 16.3002C29.0367 16.353 29.1847 16.5011 29.1998 16.7095Z" fill="#2E3140"/>
<path d="M28.8603 16.3002C28.8855 16.3494 28.9007 16.4047 28.9051 16.4652C28.9164 16.5862 28.8817 16.7126 28.7968 16.8138L27.1539 18.7967C27.0106 18.966 26.8179 19.0001 26.6531 18.9467C26.5931 18.833 26.5804 18.6916 26.6453 18.5424C26.6628 18.5041 26.6859 18.4665 26.7137 18.4317L28.3566 16.4489C28.4857 16.2869 28.6868 16.2476 28.8603 16.3002Z" fill="#334353"/>
<path d="M28.2613 16.8286L27.0694 18.2663C26.9983 18.3521 27.0102 18.4792 27.0959 18.5503C27.1817 18.6214 27.3088 18.6095 27.3799 18.5238L28.5719 17.086C28.643 17.0002 28.6311 16.8731 28.5453 16.802C28.4596 16.7309 28.3324 16.7428 28.2613 16.8286Z" fill="#3E4E60"/>
<path d="M31.0421 19.7363C30.9963 19.8488 30.907 19.9449 30.785 19.9954L28.4121 20.9953C28.0524 21.1416 27.749 20.8498 27.75 20.5442C27.7493 20.4157 27.8034 20.2845 27.9298 20.182C27.963 20.1562 28.0009 20.1335 28.0416 20.1155L30.4145 19.1156C30.6038 19.0316 30.8003 19.0896 30.93 19.2164C31.062 19.3447 31.125 19.5446 31.0421 19.7363Z" fill="#2E3140"/>
<path d="M30.9291 19.2159C30.9286 19.2712 30.9166 19.3272 30.8926 19.3829C30.8468 19.4955 30.7575 19.5915 30.6355 19.6421L28.2625 20.642C28.0572 20.726 27.8705 20.6672 27.749 20.5437C27.7483 20.4152 27.8024 20.284 27.9288 20.1815C27.962 20.1557 27.9999 20.1329 28.0406 20.115L30.4136 19.115C30.6029 19.0311 30.7995 19.0891 30.9291 19.2159Z" fill="#334353"/>
<path d="M30.1538 19.4077L28.4326 20.1324C28.3299 20.1756 28.2817 20.2939 28.3249 20.3965C28.3681 20.4992 28.4864 20.5474 28.5891 20.5042L30.3103 19.7795C30.413 19.7363 30.4612 19.618 30.418 19.5153C30.3748 19.4127 30.2565 19.3645 30.1538 19.4077Z" fill="#3E4E60"/>
<path d="M12.0445 20.2459C11.9786 20.348 11.8731 20.4259 11.7439 20.453L9.22687 20.9962C8.84632 21.0734 8.60218 20.7305 8.65976 20.4303C8.68288 20.3038 8.7603 20.1849 8.90351 20.1076C8.94093 20.0883 8.98241 20.0731 9.0257 20.063L11.5427 19.5197C11.7443 19.4723 11.9266 19.5657 12.0306 19.7143C12.1366 19.8648 12.1615 20.0729 12.0445 20.2459Z" fill="#2E3140"/>
<path d="M12.0305 19.7138C12.0198 19.768 11.9976 19.8208 11.9637 19.8712C11.8979 19.9734 11.7923 20.0512 11.6631 20.0783L9.14607 20.6215C8.92873 20.6659 8.75615 20.5737 8.65967 20.4298C8.68279 20.3034 8.76021 20.1845 8.90342 20.1072C8.94084 20.0879 8.98232 20.0727 9.0256 20.0625L11.5426 19.5193C11.7443 19.4718 11.9266 19.5652 12.0305 19.7138Z" fill="#334353"/>
<path d="M11.2334 19.7587L9.40778 20.1521C9.29888 20.1756 9.22966 20.2829 9.25309 20.3918C9.27653 20.5007 9.38388 20.5699 9.49278 20.5465L11.3184 20.1531C11.4273 20.1296 11.4965 20.0223 11.4731 19.9134C11.4496 19.8045 11.3423 19.7353 11.2334 19.7587Z" fill="#3E4E60"/>
<path d="M13.1551 22.3269C13.1348 22.4467 13.0685 22.5599 12.9604 22.6357L10.8613 24.1272C10.5421 24.3481 10.1824 24.1291 10.1171 23.8306C10.0885 23.7053 10.1128 23.5654 10.2139 23.438C10.2407 23.4056 10.2728 23.3752 10.3086 23.3487L12.4078 21.8573C12.5743 21.7343 12.7787 21.7482 12.9328 21.8438C13.0895 21.9404 13.1943 22.1218 13.1551 22.3269Z" fill="#2E3140"/>
<path d="M12.9319 21.844C12.9434 21.8981 12.9438 21.9553 12.9326 22.015C12.9122 22.1349 12.846 22.248 12.7379 22.3239L10.6387 23.8153C10.4565 23.9418 10.2615 23.925 10.1162 23.8309C10.0876 23.7056 10.1118 23.5657 10.2129 23.4383C10.2397 23.4059 10.2718 23.3755 10.3076 23.349L12.4068 21.8576C12.5733 21.7345 12.7777 21.7484 12.9319 21.844Z" fill="#334353"/>
<path d="M12.2171 22.1996L10.6943 23.2809C10.6035 23.3454 10.5821 23.4713 10.6467 23.5621C10.7112 23.653 10.8371 23.6743 10.9279 23.6098L12.4506 22.5285C12.5415 22.464 12.5628 22.3382 12.4983 22.2473C12.4338 22.1564 12.3079 22.1351 12.2171 22.1996Z" fill="#3E4E60"/>
<path d="M15.3002 23.3523C15.3428 23.466 15.3424 23.5972 15.287 23.7171L14.222 26.0614C14.057 26.4129 13.636 26.4043 13.4295 26.1791C13.3417 26.0851 13.2924 25.952 13.3159 25.7911C13.3228 25.7496 13.3352 25.7071 13.3529 25.6663L14.4181 23.3219C14.5002 23.1318 14.6839 23.0411 14.8652 23.0464C15.0492 23.0511 15.231 23.1553 15.3002 23.3523Z" fill="#2E3140"/>
<path d="M14.8642 23.0464C14.9014 23.0873 14.9304 23.1366 14.9508 23.1939C14.9934 23.3077 14.993 23.4388 14.9376 23.5587L13.8725 25.9031C13.7785 26.1041 13.6015 26.1875 13.4285 26.1792C13.3408 26.0852 13.2915 25.9521 13.3149 25.7912C13.3218 25.7497 13.3342 25.7073 13.3519 25.6664L14.4171 23.3221C14.4992 23.1318 14.6829 23.0412 14.8642 23.0464Z" fill="#334353"/>
<path d="M14.4245 23.7135L13.6514 25.4135C13.6053 25.5149 13.6502 25.6346 13.7516 25.6806C13.853 25.7267 13.9726 25.6819 14.0187 25.5805L14.7917 23.8804C14.8378 23.779 14.793 23.6594 14.6916 23.6133C14.5902 23.5673 14.4706 23.6121 14.4245 23.7135Z" fill="#3E4E60"/>
<path d="M28.5028 22.0083V31.3325C28.5028 31.4028 28.5005 31.4732 28.4958 31.5419C28.4442 32.3177 28.1083 33.0161 27.5911 33.5325C27.0333 34.0911 26.2635 34.4384 25.4127 34.4442C23.6893 34.4559 22.2794 33.0009 22.2794 31.2775V24.7794C22.2794 24.1749 21.7894 23.6849 21.1849 23.6849H16.0668C13.5556 23.6849 11.52 21.6492 11.52 19.1381V9.81387C11.52 8.95449 11.8685 8.17637 12.4317 7.61387C12.9481 7.09668 13.6466 6.76074 14.4224 6.70918C14.4911 6.70449 14.5614 6.70215 14.6317 6.70215C16.3505 6.70215 17.7435 8.09512 17.7435 9.81387V16.367C17.7435 16.9714 18.2335 17.4615 18.838 17.4615H23.956C26.4672 17.4615 28.5028 19.4972 28.5028 22.0083Z" fill="#DD5E26"/>
<path d="M28.5029 22.0084V31.3326C28.2053 31.3326 27.917 31.2904 27.6443 31.2131C27.5326 31.1811 27.424 31.1428 27.3186 31.099C26.6553 30.8264 26.1076 30.3303 25.7678 29.7061C25.7264 29.6303 25.6881 29.5522 25.6529 29.4717C25.485 29.0889 25.3912 28.6654 25.3912 28.2209V23.2061C25.3912 22.892 25.3365 22.5904 25.235 22.3115C25.042 21.7779 24.6818 21.324 24.2178 21.0147C23.7998 20.7358 23.2983 20.5733 22.7584 20.5733H16.9498C16.9053 20.5733 16.8607 20.5717 16.817 20.5693C16.1967 20.5342 15.642 20.2561 15.2467 19.8272C14.8646 19.4139 14.6318 18.8615 14.6318 18.2553V6.70215C16.3506 6.70215 17.7436 8.09512 17.7436 9.81387V16.367C17.7436 16.9717 18.2334 17.4615 18.8381 17.4615H23.9561C26.467 17.4615 28.5029 19.4975 28.5029 22.0084Z" fill="#EA792E"/>
<path d="M17.7435 9.81387V12.9404H11.52V9.81387C11.52 8.95449 11.8685 8.17637 12.4317 7.61387C12.9466 7.09824 13.6419 6.76309 14.4153 6.70996C14.4864 6.70449 14.5591 6.70215 14.6317 6.70215C16.3506 6.70215 17.7435 8.09512 17.7435 9.81387Z" fill="#BF5E39"/>
<path d="M17.7436 9.81387V12.9404H14.6318V6.70215C16.3507 6.70215 17.7436 8.09512 17.7436 9.81387Z" fill="#DD5E26"/>
<path d="M18.4526 10.215V10.622C18.4551 11.0107 18.131 11.3289 17.7485 11.3266C17.3594 11.3266 17.0444 11.0111 17.0444 10.622V10.215C17.0772 9.2852 18.4164 9.27918 18.4526 10.215Z" fill="#334353"/>
<path d="M18.4533 10.215V10.6221C18.4524 10.9045 18.2892 11.15 18.0413 11.2628C17.7984 11.1523 17.6294 10.9069 17.6294 10.6221V10.215C17.6294 9.93018 17.7984 9.68525 18.0413 9.57471C18.2843 9.68525 18.4533 9.93018 18.4533 10.215Z" fill="#3E4E60"/>
<path d="M10.8106 10.6226V10.2156C10.8081 9.82686 11.1322 9.50866 11.5147 9.511C11.9038 9.511 12.2188 9.82655 12.2188 10.2156V10.6226C12.186 11.5524 10.8468 11.5584 10.8106 10.6226Z" fill="#2E3140"/>
<path d="M10.8105 10.6225V10.2155C10.8114 9.93307 10.9747 9.68752 11.2225 9.57471C11.4655 9.68525 11.6345 9.93064 11.6345 10.2155V10.6225C11.6345 10.9074 11.4655 11.1523 11.2225 11.2628C10.9795 11.1523 10.8105 10.9074 10.8105 10.6225Z" fill="#334353"/>
<path d="M17.8302 6.03289C17.8302 6.15469 17.7837 6.27711 17.6902 6.37L15.8696 8.19125C15.4747 8.5779 14.8517 8.09891 15.1162 7.62063C15.1369 7.5836 15.1633 7.54844 15.1946 7.51641L17.0153 5.69516C17.3044 5.39477 17.8391 5.61742 17.8302 6.03289Z" fill="#EA792E"/>
<path d="M17.7686 5.79949C17.7479 5.83652 17.7215 5.87168 17.6902 5.90308L15.8696 7.72433C15.6529 7.94792 15.264 7.89308 15.1162 7.62074C15.1369 7.58371 15.1633 7.54855 15.1946 7.51652L17.0153 5.69527C17.2313 5.47277 17.6222 5.52652 17.7686 5.79949Z" fill="#F39E22"/>
<path d="M14.0673 8.19115C13.8814 8.37764 13.5788 8.37764 13.3924 8.19115L11.5718 6.3699C11.3834 6.18381 11.3891 5.87537 11.5718 5.69506C11.7586 5.50912 12.0605 5.50928 12.2466 5.69506L14.0673 7.51631C14.2494 7.69732 14.2561 8.00428 14.0673 8.19115Z" fill="#DD5E26"/>
<path d="M14.1456 7.62044C13.9975 7.89271 13.6091 7.94771 13.3922 7.72404L11.5716 5.90286C11.5402 5.87146 11.5139 5.8363 11.4932 5.79927C11.6398 5.52622 12.0308 5.47255 12.2465 5.69505L14.0671 7.51622C14.0985 7.54825 14.1249 7.58341 14.1456 7.62044Z" fill="#EA792E"/>
<path d="M16.4425 13.697H14.6313V15.3332H16.4425C16.8943 15.3332 17.2606 14.9669 17.2606 14.5151C17.2606 14.0633 16.8943 13.697 16.4425 13.697Z" fill="#F39E22"/>
<path d="M12.8205 15.3332H14.6317V13.697H12.8205C12.3687 13.697 12.0024 14.0633 12.0024 14.5151C12.0024 14.9669 12.3687 15.3332 12.8205 15.3332Z" fill="#EA792E"/>
<path d="M16.4425 16.5901H14.6313V18.2263H16.4425C16.8943 18.2263 17.2606 17.86 17.2606 17.4082C17.2606 16.9563 16.8943 16.5901 16.4425 16.5901Z" fill="#F39E22"/>
<path d="M12.8205 18.2263H14.6317V16.5901H12.8205C12.3687 16.5901 12.0024 16.9563 12.0024 17.4081C12.0024 17.86 12.3687 18.2263 12.8205 18.2263Z" fill="#EA792E"/>
<path d="M18.2837 18.7619V20.5731H19.9199V18.7619C19.9199 18.3101 19.5536 17.9438 19.1018 17.9438C18.6499 17.9438 18.2837 18.31 18.2837 18.7619Z" fill="#F39E22"/>
<path d="M19.9189 22.3842V20.573H18.2827V22.3842C18.2827 22.836 18.649 23.2022 19.1008 23.2022C19.5526 23.2023 19.9189 22.836 19.9189 22.3842Z" fill="#EA792E"/>
<path d="M21.1758 18.7619V20.5731H22.812V18.7619C22.812 18.3101 22.4457 17.9438 21.9939 17.9438C21.5421 17.9438 21.1758 18.31 21.1758 18.7619Z" fill="#F39E22"/>
<path d="M22.812 22.3842V20.573H21.1758V22.3842C21.1758 22.836 21.542 23.2022 21.9938 23.2022C22.4457 23.2023 22.812 22.836 22.812 22.3842Z" fill="#EA792E"/>
<path d="M27.2027 29.4724H23.5803C23.1285 29.4724 22.7622 29.8387 22.7622 30.2905C22.7622 30.7423 23.1285 31.1085 23.5803 31.1085H27.2027C27.6545 31.1085 28.0207 30.7423 28.0207 30.2905C28.0207 29.8387 27.6545 29.4724 27.2027 29.4724Z" fill="#EA792E"/>
<path d="M28.0205 30.2894C28.0205 30.7019 27.7158 31.0425 27.3189 31.0988C26.6557 30.8261 26.108 30.33 25.7682 29.7058C25.7268 29.63 25.6885 29.5519 25.6533 29.4714H27.2025C27.6549 29.4714 28.0205 29.8378 28.0205 30.2894Z" fill="#F39E22"/>
<path d="M27.2023 26.5784H25.3911V28.2145H27.2023C27.6541 28.2145 28.0203 27.8483 28.0203 27.3965C28.0203 26.9446 27.6541 26.5784 27.2023 26.5784Z" fill="#F39E22"/>
<path d="M23.5803 28.2145H25.3914V26.5784H23.5803C23.1285 26.5784 22.7622 26.9446 22.7622 27.3964C22.7622 27.8482 23.1285 28.2145 23.5803 28.2145Z" fill="#EA792E"/>
<path d="M27.2023 23.6853H25.3911V25.3215H27.2023C27.6541 25.3215 28.0203 24.9552 28.0203 24.5034C28.0203 24.0516 27.6541 23.6853 27.2023 23.6853Z" fill="#F39E22"/>
<path d="M23.5803 25.3215H25.3914V23.6853H23.5803C23.1285 23.6853 22.7622 24.0516 22.7622 24.5033C22.7622 24.9552 23.1285 25.3215 23.5803 25.3215Z" fill="#EA792E"/>
<path d="M25.8193 19.4123L23.6371 21.5945C23.3176 21.914 23.3175 22.4319 23.6371 22.7515C23.9565 23.0709 24.4745 23.0709 24.794 22.7515L26.9763 20.5692C27.2958 20.2498 27.2958 19.7318 26.9763 19.4123C26.6568 19.0927 26.1388 19.0927 25.8193 19.4123Z" fill="#EA792E"/>
<path d="M26.9762 20.5693L25.234 22.3115C25.041 21.7779 24.6809 21.324 24.2168 21.0146L25.8191 19.4123C26.1387 19.0927 26.6566 19.0927 26.9762 19.4123C27.2957 19.7318 27.2957 20.2498 26.9762 20.5693Z" fill="#F39E22"/>
<path d="M16.0399 19.033L13.9125 21.1605C13.593 21.4799 13.5929 21.9979 13.9125 22.3174C14.2319 22.6369 14.7499 22.6369 15.0694 22.3174L17.1968 20.19C17.5163 19.8705 17.5164 19.3526 17.1968 19.033C16.8774 18.7136 16.3594 18.7136 16.0399 19.033Z" fill="#EA792E"/>
<path d="M17.1961 20.1896L16.8164 20.5693C16.1961 20.5341 15.6414 20.256 15.2461 19.8271L16.0398 19.0333C16.3594 18.7138 16.8773 18.7138 17.1961 19.0333C17.5156 19.3529 17.5156 19.8708 17.1961 20.1896Z" fill="#F39E22"/>
</svg>
