<svg width="40" height="40" viewBox="0 0 40 40" fill="none" xmlns="http://www.w3.org/2000/svg">
<path d="M20 40C31.0457 40 40 31.0457 40 20C40 8.9543 31.0457 0 20 0C8.9543 0 0 8.9543 0 20C0 31.0457 8.9543 40 20 40Z" fill="#EA792E"/>
<path d="M21.9779 29.0172V27.0132C21.9539 25.9626 23.0976 25.2045 24.0551 25.6194C24.6033 25.844 24.9897 26.3829 24.9897 27.0126L24.9903 28.1909C24.9896 28.483 24.8399 28.7545 24.5932 28.9089C24.5284 28.9511 23.3002 29.7182 23.2762 29.7352C22.7113 30.0903 21.9779 29.6844 21.9779 29.0172Z" fill="#3F6C8E"/>
<path d="M23.1206 29.0179V27.0126C23.1206 26.3828 23.5071 25.844 24.0553 25.6194C24.6035 25.844 24.9899 26.3828 24.9899 27.0127L24.9905 28.1909C24.9898 28.4831 24.8401 28.7545 24.5934 28.9089L23.4068 29.653C23.2343 29.5019 23.1206 29.2799 23.1206 29.0179Z" fill="#22A8B9"/>
<path d="M23.6758 27.0127C23.9828 27.0127 24.2316 27.2615 24.2317 27.5685L24.2321 27.684C24.207 28.4196 23.1453 28.4205 23.1199 27.6842C23.0847 27.3278 23.3039 27.0195 23.6758 27.0127Z" fill="#4FCAE8"/>
<path d="M24.2025 32.1241L22.7125 30.6341C22.2507 30.1723 22.2508 29.4228 22.7125 28.9611C23.1743 28.4993 23.9239 28.4993 24.3856 28.9611L25.4167 29.9922C25.5783 30.1538 25.6457 30.388 25.595 30.6113L25.3224 31.8016C25.287 31.9589 25.2014 32.085 25.0912 32.1734C24.8412 32.3728 24.4592 32.3808 24.2025 32.1241Z" fill="#3F5D77"/>
<path d="M25.0917 32.1733L23.9489 31.0305C23.305 30.4054 23.6128 29.2694 24.4773 29.0522L25.4171 29.992C25.5787 30.1537 25.6462 30.3878 25.5954 30.6111L25.3229 31.8014C25.2875 31.9588 25.2019 32.0849 25.0917 32.1733Z" fill="#3F6C8E"/>
<path d="M24.154 30.0338C24.3059 29.882 24.5522 29.882 24.7041 30.0338L24.9713 30.301C25.3248 30.6729 24.7931 31.2048 24.4212 30.8511L24.1541 30.584C24.002 30.432 24.002 30.1858 24.154 30.0338Z" fill="#22A8B9"/>
<path d="M23.1829 35.1472L25.3057 33.6632C26.0132 33.1666 26.3603 32.2286 25.8543 31.7226C25.3482 31.2165 24.4076 31.5646 23.9114 32.2744L22.4297 34.3939C22.175 34.7789 22.7816 35.4079 23.1829 35.1472Z" fill="#334353"/>
<path d="M23.1827 35.1473L25.3054 33.6633C25.0334 33.0465 24.1345 33.0749 23.7151 33.5532L22.4775 34.9165C22.6268 35.1369 22.9475 35.3014 23.1827 35.1473Z" fill="#3E4E60"/>
<path d="M23.8038 33.91C23.6845 33.7906 23.4934 33.7978 23.3852 33.9171L22.809 34.5518C22.6649 34.717 22.9599 35.0043 23.1255 34.8682L23.7873 34.3191C23.9116 34.216 23.9232 34.0294 23.8038 33.91Z" fill="#3F5D77"/>
<path d="M18.0617 29.0172V27.0132C18.0857 25.9626 16.9421 25.2045 15.9846 25.6194C15.4363 25.844 15.0499 26.3829 15.0499 27.0126L15.0493 28.1909C15.05 28.483 15.1997 28.7545 15.4464 28.9089C15.5113 28.9511 16.7394 29.7182 16.7635 29.7352C17.3283 30.0903 18.0617 29.6844 18.0617 29.0172Z" fill="#3F6C8E"/>
<path d="M16.9192 29.0179V27.0126C16.9192 26.3828 16.5328 25.844 15.9845 25.6194C15.4363 25.844 15.0499 26.3828 15.0499 27.0127L15.0493 28.1909C15.05 28.4831 15.1997 28.7545 15.4464 28.9089L16.6331 29.653C16.8055 29.5019 16.9192 29.2799 16.9192 29.0179Z" fill="#22A8B9"/>
<path d="M16.3629 27.0127C16.0559 27.0127 15.8071 27.2615 15.807 27.5685L15.8066 27.684C15.8317 28.4196 16.8934 28.4205 16.9188 27.6842C16.954 27.3278 16.7348 27.0195 16.3629 27.0127Z" fill="#4FCAE8"/>
<path d="M15.8378 32.1241L17.3278 30.6341C17.7896 30.1723 17.7895 29.4228 17.3278 28.9611C16.866 28.4993 16.1165 28.4993 15.6547 28.9611L14.6236 29.9922C14.462 30.1538 14.3946 30.388 14.4453 30.6113L14.7179 31.8016C14.7533 31.9589 14.8389 32.085 14.9491 32.1734C15.1992 32.3728 15.5812 32.3808 15.8378 32.1241Z" fill="#3F5D77"/>
<path d="M14.949 32.1733L16.0918 31.0305C16.7357 30.4054 16.4279 29.2694 15.5634 29.0522L14.6236 29.992C14.462 30.1537 14.3946 30.3878 14.4453 30.6111L14.7179 31.8014C14.7532 31.9588 14.8388 32.0849 14.949 32.1733Z" fill="#3F6C8E"/>
<path d="M15.8861 30.0338C15.7343 29.882 15.4879 29.882 15.336 30.0338L15.0688 30.301C14.7153 30.6729 15.247 31.2048 15.619 30.8511L15.8861 30.584C16.0381 30.432 16.0381 30.1858 15.8861 30.0338Z" fill="#22A8B9"/>
<path d="M16.8566 35.1472L14.7339 33.6632C14.0263 33.1666 13.6793 32.2286 14.1853 31.7226C14.6913 31.2165 15.6319 31.5646 16.1281 32.2744L17.6099 34.3939C17.8645 34.7789 17.2579 35.4079 16.8566 35.1472Z" fill="#334353"/>
<path d="M16.8566 35.1473L14.7339 33.6633C15.0059 33.0465 15.9048 33.0749 16.3242 33.5532L17.5618 34.9165C17.4125 35.1369 17.0919 35.3014 16.8566 35.1473Z" fill="#3E4E60"/>
<path d="M16.2362 33.91C16.3556 33.7906 16.5467 33.7978 16.6549 33.9171L17.2311 34.5518C17.3751 34.717 17.0801 35.0043 16.9146 34.8682L16.2528 34.3191C16.1285 34.216 16.1169 34.0294 16.2362 33.91Z" fill="#3F5D77"/>
<path d="M29.517 28.2968C29.143 28.6748 28.5165 28.679 28.1384 28.2968L23.4258 23.5842C23.0449 23.2033 23.0449 22.5865 23.4258 22.2056C23.8066 21.8247 24.4234 21.8247 24.8044 22.2056L29.517 26.9182C29.8979 27.2992 29.8979 27.916 29.517 28.2968Z" fill="#3F6C8E"/>
<path d="M29.5173 28.2967C29.4916 28.3224 29.4651 28.3464 29.4373 28.3684L25.2222 24.1533C24.8119 23.7485 24.8507 23.0605 25.3022 22.7031L29.5173 26.9182C29.8982 27.2991 29.8982 27.9159 29.5173 28.2967Z" fill="#22A8B9"/>
<path d="M29.3777 27.2895L25.9865 23.8984C25.6431 23.5712 25.148 24.0626 25.4765 24.4084L28.8677 27.7995C29.2111 28.1267 29.7062 27.6353 29.3777 27.2895Z" fill="#4FCAE8"/>
<path d="M30.7904 32.0298V29.0595C30.7441 27.9416 29.1453 27.9417 29.1006 29.0619V32.0298C29.1006 32.4166 29.3604 32.7425 29.7149 32.8426C30.2422 32.9999 30.7992 32.5821 30.7904 32.0298Z" fill="#3F5D77"/>
<path d="M30.7909 32.0298V29.0595C30.2642 28.9018 29.7066 29.3204 29.7154 29.8722V32.8424C30.2427 33.0001 30.7997 32.5818 30.7909 32.0298Z" fill="#3F6C8E"/>
<path d="M30.0523 30.062C29.8659 30.062 29.7148 30.2131 29.7148 30.3994V31.7099C29.7284 32.1555 30.3759 32.1561 30.3897 31.7099V30.3994C30.3897 30.2131 30.2386 30.062 30.0523 30.062Z" fill="#22A8B9"/>
<path d="M26.8898 36.195L28.9014 34.5999C29.5722 34.0666 30.0222 33.2314 29.6922 32.9015C29.3623 32.5716 28.5249 33.0228 27.9915 33.6953L26.3987 35.7039C26.113 36.0753 26.5329 36.4767 26.8898 36.195Z" fill="#334353"/>
<path d="M26.8899 36.1951L28.9015 34.5999C28.7451 34.1041 28.0114 34.355 27.6071 34.7858L26.3477 36.1273C26.4573 36.3216 26.7198 36.3339 26.8899 36.1951Z" fill="#3E4E60"/>
<path d="M27.6178 35.0653C27.54 34.9875 27.3809 35.0266 27.2708 35.144L26.6844 35.7686C26.5376 35.9301 26.7281 36.1161 26.8908 35.9749L27.533 35.4062C27.6536 35.2993 27.6956 35.1431 27.6178 35.0653Z" fill="#3F5D77"/>
<path d="M10.5206 28.2968C10.8946 28.6748 11.5211 28.679 11.8992 28.2968L16.6118 23.5842C16.9927 23.2033 16.9927 22.5865 16.6118 22.2056C16.231 21.8247 15.6142 21.8247 15.2332 22.2056L10.5206 26.9182C10.1396 27.2992 10.1396 27.916 10.5206 28.2968Z" fill="#3F6C8E"/>
<path d="M10.5206 28.2967C10.5463 28.3224 10.5728 28.3464 10.6006 28.3684L14.8157 24.1533C15.2259 23.7485 15.1872 23.0605 14.7357 22.7031L10.5206 26.9182C10.1396 27.2991 10.1396 27.9159 10.5206 28.2967Z" fill="#22A8B9"/>
<path d="M10.6596 27.2895L14.0508 23.8984C14.3942 23.5712 14.8893 24.0626 14.5608 24.4084L11.1696 27.7995C10.8262 28.1267 10.3311 27.6353 10.6596 27.2895Z" fill="#4FCAE8"/>
<path d="M9.24766 32.0298V29.0595C9.29399 27.9416 10.8928 27.9417 10.9375 29.0619V32.0298C10.9375 32.4166 10.6777 32.7425 10.3232 32.8426C9.79586 32.9999 9.23891 32.5821 9.24766 32.0298Z" fill="#3F5D77"/>
<path d="M9.24766 32.0298V29.0595C9.77438 28.9018 10.332 29.3204 10.3231 29.8722V32.8424C9.79579 33.0001 9.23891 32.5818 9.24766 32.0298Z" fill="#3F6C8E"/>
<path d="M9.98586 30.062C10.1722 30.062 10.3233 30.2131 10.3233 30.3994V31.7099C10.3097 32.1555 9.66227 32.1561 9.64844 31.7099V30.3994C9.64844 30.2131 9.79953 30.062 9.98586 30.062Z" fill="#22A8B9"/>
<path d="M13.1485 36.195L11.1369 34.5999C10.466 34.0666 10.0161 33.2314 10.346 32.9015C10.676 32.5716 11.5134 33.0228 12.0467 33.6953L13.6396 35.7039C13.9253 36.0753 13.5053 36.4767 13.1485 36.195Z" fill="#334353"/>
<path d="M13.1483 36.1951L11.1367 34.5999C11.2931 34.1041 12.0268 34.355 12.4311 34.7858L13.6905 36.1273C13.5809 36.3216 13.3184 36.3339 13.1483 36.1951Z" fill="#3E4E60"/>
<path d="M12.4208 35.0653C12.4986 34.9875 12.6577 35.0266 12.7678 35.144L13.3541 35.7686C13.501 35.9301 13.3105 36.1161 13.1478 35.9749L12.5056 35.4062C12.385 35.2993 12.343 35.1431 12.4208 35.0653Z" fill="#3F5D77"/>
<path d="M32.6543 22.3608C32.6571 22.8925 32.217 23.3385 31.6795 23.3355H25.0148C24.4761 23.3355 24.04 22.8993 24.04 22.3608C24.04 21.8222 24.4762 21.386 25.0148 21.386H31.6795C32.2181 21.3859 32.6543 21.8221 32.6543 22.3608Z" fill="#3F6C8E"/>
<path d="M32.6546 22.3607C32.6546 22.3971 32.6528 22.4329 32.6487 22.468H26.6877C26.1113 22.4718 25.6523 21.9579 25.7188 21.386H31.6798C32.2184 21.3859 32.6546 21.8221 32.6546 22.3607Z" fill="#22A8B9"/>
<path d="M31.844 21.7466H27.0481C26.849 21.7466 26.6875 21.9081 26.6875 22.1072C26.6875 22.3064 26.849 22.4678 27.0481 22.4678H31.844C32.3192 22.4538 32.3218 21.7616 31.844 21.7466Z" fill="#4FCAE8"/>
<path d="M35.9434 24.8143L33.8431 22.714C33.0198 21.9563 31.8894 23.0869 32.6499 23.9106L34.7484 26.0092C35.0219 26.2826 35.436 26.3294 35.7575 26.1495C36.2417 25.8879 36.34 25.1986 35.9434 24.8143Z" fill="#3F5D77"/>
<path d="M35.943 24.8144L33.8427 22.7141C33.3588 22.9751 33.2605 23.6654 33.6569 24.0493L35.7572 26.1496C36.2415 25.8882 36.3395 25.1986 35.943 24.8144Z" fill="#3F6C8E"/>
<path d="M34.0295 23.9448C33.8977 24.0766 33.8977 24.2902 34.0295 24.422L34.9562 25.3486C35.2784 25.6552 35.7401 25.1943 35.4333 24.8714L34.5067 23.9448C34.3749 23.813 34.1612 23.813 34.0295 23.9448Z" fill="#22A8B9"/>
<path d="M36.1867 30.4894L36.4812 27.9391C36.5785 27.0876 36.306 26.179 35.8395 26.179C35.3729 26.179 35.0998 27.0901 35.1982 27.9429L35.4922 30.4894C35.5528 30.9541 36.1335 30.9409 36.1867 30.4894Z" fill="#334353"/>
<path d="M36.1864 30.4893L36.4809 27.939C36.0196 27.699 35.6783 28.3952 35.697 28.9856L35.755 30.8248C35.9701 30.8847 36.1643 30.7078 36.1864 30.4893Z" fill="#3E4E60"/>
<path d="M35.9029 29.1758C35.7929 29.1758 35.708 29.3159 35.7131 29.4769L35.7401 30.333C35.7505 30.5511 36.0167 30.548 36.0319 30.333L36.0838 29.4769C36.0936 29.3159 36.0129 29.1758 35.9029 29.1758Z" fill="#3F5D77"/>
<path d="M7.8213 22.3608C7.81849 22.8925 8.25857 23.3385 8.79607 23.3355H15.4608C15.9994 23.3355 16.4355 22.8993 16.4355 22.3608C16.4355 21.8222 15.9994 21.386 15.4608 21.386H8.79607C8.2574 21.3859 7.8213 21.8221 7.8213 22.3608Z" fill="#3F6C8E"/>
<path d="M7.82129 22.3607C7.82129 22.3971 7.82309 22.4329 7.82723 22.468H13.7882C14.3646 22.4718 14.8236 21.9579 14.7571 21.386H8.79606C8.25738 21.3859 7.82129 21.8221 7.82129 22.3607Z" fill="#22A8B9"/>
<path d="M8.63187 21.7466H13.4277C13.6269 21.7466 13.7884 21.9081 13.7884 22.1072C13.7884 22.3064 13.6269 22.4678 13.4277 22.4678H8.63187C8.15655 22.4538 8.15398 21.7616 8.63187 21.7466Z" fill="#4FCAE8"/>
<path d="M4.53305 24.8143L6.63336 22.714C7.45664 21.9563 8.58711 23.0869 7.82657 23.9106L5.72797 26.0092C5.45453 26.2826 5.04039 26.3294 4.71891 26.1495C4.23477 25.8879 4.13633 25.1986 4.53305 24.8143Z" fill="#3F5D77"/>
<path d="M4.53306 24.8144L6.63337 22.7141C7.11728 22.9751 7.21556 23.6654 6.81916 24.0493L4.71884 26.1496C4.23454 25.8882 4.1365 25.1986 4.53306 24.8144Z" fill="#3F6C8E"/>
<path d="M6.4465 23.9448C6.57829 24.0766 6.57829 24.2902 6.4465 24.422L5.51986 25.3486C5.19759 25.6552 4.73587 25.1943 5.04267 24.8714L5.96931 23.9448C6.10111 23.813 6.31478 23.813 6.4465 23.9448Z" fill="#22A8B9"/>
<path d="M4.28867 30.4894L3.99422 27.9391C3.89696 27.0876 4.16938 26.179 4.63594 26.179C5.1025 26.179 5.37562 27.0901 5.27719 27.9429L4.9832 30.4894C4.92258 30.9541 4.34188 30.9409 4.28867 30.4894Z" fill="#334353"/>
<path d="M4.28859 30.4893L3.99414 27.939C4.45539 27.699 4.79672 28.3952 4.77797 28.9856L4.72 30.8248C4.50492 30.8847 4.31078 30.7078 4.28859 30.4893Z" fill="#3E4E60"/>
<path d="M4.57285 29.1758C4.68285 29.1758 4.7677 29.3159 4.76262 29.4769L4.73566 30.333C4.72527 30.5511 4.45902 30.548 4.44387 30.333L4.39191 29.4769C4.38215 29.3159 4.46277 29.1758 4.57285 29.1758Z" fill="#3F5D77"/>
<path d="M30.7112 19.5842C30.7141 20.1159 30.2738 20.562 29.7364 20.559H26.7119C25.4199 20.5086 25.4181 18.6605 26.7119 18.6094H29.7364C30.275 18.6095 30.7112 19.0455 30.7112 19.5842Z" fill="#3F6C8E"/>
<path d="M30.7112 19.5841C30.7112 19.6205 30.7094 19.6562 30.7052 19.6914H28.3844C27.8081 19.6952 27.349 19.1813 27.4156 18.6094H29.7364C30.275 18.6094 30.7112 19.0455 30.7112 19.5841Z" fill="#22A8B9"/>
<path d="M29.9008 18.9702H28.7452C28.2688 18.9848 28.2683 19.6768 28.7452 19.6915H29.9008C30.3771 19.6769 30.3777 18.985 29.9008 18.9702Z" fill="#4FCAE8"/>
<path d="M33.7691 16.7975L31.6688 18.8978C30.8455 19.6555 29.715 18.5249 30.4756 17.7012L32.5742 15.6026C32.8476 15.3292 33.2617 15.2824 33.5832 15.4623C34.0674 15.7239 34.1658 16.4132 33.7691 16.7975Z" fill="#3F5D77"/>
<path d="M33.7692 16.7976L31.6689 18.8979C31.1849 18.6369 31.0867 17.9466 31.4831 17.5627L33.5834 15.4624C34.0677 15.7238 34.1657 16.4133 33.7692 16.7976Z" fill="#3F6C8E"/>
<path d="M31.8557 17.6669C31.7239 17.5351 31.7239 17.3215 31.8557 17.1897L32.7823 16.2631C33.1046 15.9565 33.5663 16.4175 33.2595 16.7403L32.3329 17.6669C32.2012 17.7987 31.9875 17.7987 31.8557 17.6669Z" fill="#22A8B9"/>
<path d="M34.2253 11.2462L34.5198 13.7965C34.617 14.648 34.3446 15.5566 33.878 15.5566C33.4115 15.5566 33.1384 14.6455 33.2368 13.7927L33.5308 11.2462C33.5915 10.7815 34.1722 10.7947 34.2253 11.2462Z" fill="#334353"/>
<path d="M34.225 11.2462L34.5194 13.7965C34.0582 14.0365 33.7168 13.3403 33.7356 12.7499L33.7936 10.9107C34.0086 10.8508 34.2029 11.0277 34.225 11.2462Z" fill="#3E4E60"/>
<path d="M33.9414 12.5599C33.8314 12.5599 33.7466 12.4197 33.7517 12.2588L33.7786 11.4026C33.789 11.1846 34.0553 11.1877 34.0704 11.4026L34.1224 12.2588C34.1321 12.4197 34.0514 12.5599 33.9414 12.5599Z" fill="#3F5D77"/>
<path d="M9.32765 19.5842C9.32476 20.1159 9.76499 20.562 10.3024 20.559H13.3269C14.619 20.5086 14.6208 18.6605 13.3269 18.6094H10.3024C9.76382 18.6095 9.32765 19.0455 9.32765 19.5842Z" fill="#3F6C8E"/>
<path d="M9.32764 19.5851C9.32764 19.6214 9.32943 19.6572 9.33357 19.6924H11.6544C12.2307 19.6962 12.6898 19.1823 12.6232 18.6104H10.3024C9.76381 18.6104 9.32764 19.0464 9.32764 19.5851Z" fill="#22A8B9"/>
<path d="M10.1382 18.9702H11.2938C11.7702 18.9848 11.7707 19.6768 11.2938 19.6915H10.1382C9.66188 19.6769 9.66134 18.985 10.1382 18.9702Z" fill="#4FCAE8"/>
<path d="M6.26986 16.7975L8.37018 18.8978C9.19346 19.6555 10.3239 18.5249 9.56338 17.7012L7.46479 15.6026C7.19135 15.3292 6.77721 15.2824 6.45572 15.4623C5.97158 15.7239 5.87315 16.4132 6.26986 16.7975Z" fill="#3F5D77"/>
<path d="M6.26988 16.7976L8.37019 18.8979C8.85409 18.6369 8.95238 17.9466 8.55597 17.5627L6.45566 15.4624C5.97136 15.7238 5.87331 16.4133 6.26988 16.7976Z" fill="#3F6C8E"/>
<path d="M8.18332 17.6669C8.31511 17.5351 8.31511 17.3215 8.18332 17.1897L7.25667 16.2631C6.93441 15.9565 6.47269 16.4175 6.77949 16.7403L7.70613 17.6669C7.83792 17.7987 8.0516 17.7987 8.18332 17.6669Z" fill="#22A8B9"/>
<path d="M5.81407 11.2462L5.51961 13.7965C5.42235 14.648 5.69477 15.5566 6.16133 15.5566C6.6279 15.5566 6.90102 14.6455 6.80259 13.7927L6.5086 11.2462C6.4479 10.7815 5.86719 10.7947 5.81407 11.2462Z" fill="#334353"/>
<path d="M5.81398 11.2462L5.51953 13.7965C5.98078 14.0365 6.32211 13.3403 6.30336 12.7499L6.24539 10.9107C6.03031 10.8508 5.83609 11.0277 5.81398 11.2462Z" fill="#3E4E60"/>
<path d="M6.09776 12.5599C6.20776 12.5599 6.2926 12.4197 6.28752 12.2588L6.26057 11.4026C6.25018 11.1846 5.98393 11.1877 5.96877 11.4026L5.91682 12.2588C5.90705 12.4197 5.98775 12.5599 6.09776 12.5599Z" fill="#3F5D77"/>
<path d="M29.8846 14.2295L28.4676 15.6465C27.7416 16.4063 26.3968 16.1338 26.0131 15.1633C25.7843 14.6169 25.8921 13.9626 26.3374 13.5173L27.1701 12.6836C27.3772 12.4775 27.675 12.3915 27.9586 12.4567C28.0344 12.4727 29.4451 12.7987 29.4743 12.8038C30.1247 12.9521 30.3564 13.7577 29.8846 14.2295Z" fill="#3F6C8E"/>
<path d="M29.0772 13.4211L27.6592 14.8391C27.2139 15.2844 26.5596 15.3921 26.0131 15.1634C25.7843 14.6169 25.8921 13.9627 26.3374 13.5173L27.1701 12.6836C27.3772 12.4775 27.675 12.3915 27.9587 12.4567L29.3239 12.7697C29.3391 12.9984 29.2625 13.2358 29.0772 13.4211Z" fill="#22A8B9"/>
<path d="M27.2665 14.446C27.0081 14.1777 27.0716 13.8062 27.3478 13.578C27.8856 13.0757 28.637 13.8258 28.1343 14.3644C27.9084 14.6408 27.5329 14.7041 27.2665 14.446Z" fill="#4FCAE8"/>
<path d="M30.5087 10.4595V12.5666C30.5087 13.2196 29.9787 13.7496 29.3256 13.7496C28.6726 13.7496 28.1426 13.2196 28.1426 12.5666V11.1084C28.1426 10.8798 28.2605 10.6665 28.4542 10.5446L29.4886 9.89565C29.6249 9.80948 29.7746 9.78081 29.9151 9.7962C30.2328 9.83214 30.5087 10.0966 30.5087 10.4595Z" fill="#3F5D77"/>
<path d="M29.9151 9.79665V11.4128C29.9283 12.3101 28.9074 12.8957 28.1426 12.4379V11.1088C28.1426 10.8803 28.2605 10.667 28.4542 10.545L29.4886 9.89611C29.6249 9.81001 29.7746 9.78134 29.9151 9.79665Z" fill="#3F6C8E"/>
<path d="M29.0648 11.9717C28.8499 11.9717 28.6758 11.7976 28.6758 11.5827V11.2049C28.6916 10.6909 29.438 10.6908 29.4537 11.2049V11.5827C29.4537 11.7976 29.2795 11.9717 29.0648 11.9717Z" fill="#22A8B9"/>
<path d="M26.7126 10.6345L25.7516 9.67336C24.2622 8.15602 24.4767 6.67586 24.4733 4.74609L28.5371 8.80992L26.7126 10.6345Z" fill="#3E4E60"/>
<path d="M26.7294 7.3967C24.6525 9.63655 27.6872 12.6676 29.9003 10.59C30.7492 9.7149 30.702 8.25881 29.8398 7.3967L27.3149 4.87178C26.4413 3.99818 25.2564 3.50732 24.0209 3.50732C23.7305 3.50732 23.5851 3.85834 23.7904 4.06365L26.7294 7.00256C26.8383 7.11154 26.8383 7.28795 26.7294 7.3967Z" fill="#334353"/>
<path d="M26.4065 4.63736L29.0096 7.24049C29.3965 7.65143 28.8176 8.23291 28.4049 7.84518L25.8018 5.24205C25.4149 4.83111 25.9938 4.24963 26.4065 4.63736Z" fill="#3E4E60"/>
<path d="M26.8752 5.1056L28.0038 6.2342C28.1708 6.40115 28.1708 6.67193 28.0038 6.83888C27.8369 7.00584 27.5661 7.00584 27.3992 6.83888L26.2706 5.71029C25.8834 5.29873 26.4631 4.7181 26.8752 5.1056Z" fill="#3F5D77"/>
<path d="M25.818 6.7593L25.9152 7.72743C25.9388 7.96243 25.7675 8.17196 25.5325 8.19555C25.2975 8.21915 25.088 8.04782 25.0644 7.81282L24.9672 6.84469C24.928 6.28086 25.7442 6.19852 25.818 6.7593Z" fill="#3F5D77"/>
<path d="M29.3883 10.2481C28.7523 10.8841 27.7173 10.8841 27.0813 10.2481C26.9495 10.1162 26.9495 9.90237 27.0813 9.7705C27.2132 9.63862 27.427 9.63862 27.5589 9.7705C27.9316 10.1432 28.538 10.1432 28.9108 9.7705C29.233 9.4637 29.6955 9.92503 29.3883 10.2481Z" fill="#3E4E60"/>
<path d="M10.1526 14.2295L11.5696 15.6465C12.2956 16.4063 13.6404 16.1338 14.0241 15.1633C14.2529 14.6169 14.1451 13.9626 13.6998 13.5173L12.8671 12.6836C12.66 12.4775 12.3622 12.3915 12.0786 12.4567C12.0028 12.4727 10.5921 12.7987 10.563 12.8038C9.91246 12.9521 9.68089 13.7577 10.1526 14.2295Z" fill="#3F6C8E"/>
<path d="M10.9605 13.4211L12.3785 14.8391C12.8238 15.2844 13.4781 15.3921 14.0246 15.1634C14.2534 14.6169 14.1456 13.9627 13.7003 13.5173L12.8675 12.6836C12.6605 12.4775 12.3627 12.3915 12.079 12.4567L10.7138 12.7697C10.6986 12.9984 10.7753 13.2358 10.9605 13.4211Z" fill="#22A8B9"/>
<path d="M12.7713 14.446C13.0297 14.1777 12.9662 13.8062 12.69 13.578C12.1522 13.0757 11.4008 13.8258 11.9035 14.3644C12.1294 14.6408 12.5048 14.7041 12.7713 14.446Z" fill="#4FCAE8"/>
<path d="M9.52832 10.4595V12.5666C9.52832 13.2196 10.0583 13.7496 10.7114 13.7496C11.3644 13.7496 11.8944 13.2196 11.8944 12.5666V11.1084C11.8944 10.8798 11.7765 10.6665 11.5828 10.5446L10.5484 9.89565C10.4121 9.80948 10.2624 9.78081 10.1219 9.7962C9.8041 9.83214 9.52832 10.0966 9.52832 10.4595Z" fill="#3F5D77"/>
<path d="M10.1217 9.79617V11.4123C10.1085 12.3096 11.1294 12.8952 11.8942 12.4374V11.1084C11.8942 10.8798 11.7763 10.6665 11.5826 10.5445L10.5482 9.89562C10.4119 9.80953 10.2622 9.78085 10.1217 9.79617Z" fill="#3F6C8E"/>
<path d="M10.972 11.9717C11.1868 11.9717 11.361 11.7976 11.361 11.5827V11.2049C11.3451 10.6909 10.5988 10.6908 10.583 11.2049V11.5827C10.583 11.7976 10.7571 11.9717 10.972 11.9717Z" fill="#22A8B9"/>
<path d="M13.3249 10.6345L14.286 9.67336C15.7754 8.15602 15.5609 6.67586 15.5643 4.74609L11.5005 8.80992L13.3249 10.6345Z" fill="#3E4E60"/>
<path d="M13.3078 7.3967C15.3848 9.63655 12.3501 12.6676 10.137 10.59C9.28801 9.7149 9.33527 8.25881 10.1975 7.3967L12.7224 4.87178C13.596 3.99818 14.7809 3.50732 16.0164 3.50732C16.3068 3.50732 16.4521 3.85834 16.2468 4.06365L13.3079 7.00256C13.199 7.11154 13.199 7.28795 13.3078 7.3967Z" fill="#334353"/>
<path d="M13.631 4.63736L11.0278 7.24049C10.641 7.65143 11.2199 8.23291 11.6325 7.84518L14.2357 5.24205C14.6225 4.83111 14.0436 4.24963 13.631 4.63736Z" fill="#3E4E60"/>
<path d="M13.163 5.1056L12.0344 6.2342C11.8674 6.40115 11.8674 6.67193 12.0344 6.83888C12.2013 7.00584 12.4721 7.00584 12.6391 6.83888L13.7677 5.71029C14.1548 5.29873 13.5751 4.7181 13.163 5.1056Z" fill="#3F5D77"/>
<path d="M14.2205 6.7593L14.1233 7.72743C14.0997 7.96243 14.271 8.17196 14.506 8.19555C14.741 8.21915 14.9505 8.04782 14.9741 7.81282L15.0713 6.84469C15.1105 6.28086 14.2942 6.19852 14.2205 6.7593Z" fill="#3F5D77"/>
<path d="M10.6487 10.2481C11.2848 10.8841 12.3197 10.8841 12.9557 10.2481C13.0876 10.1162 13.0876 9.90237 12.9557 9.7705C12.8238 9.63862 12.61 9.63862 12.4781 9.7705C12.1054 10.1432 11.499 10.1432 11.1262 9.7705C10.804 9.4637 10.3416 9.92503 10.6487 10.2481Z" fill="#3E4E60"/>
<path d="M23.56 12.2529L23.3454 12.0383C23.0096 11.7025 22.4497 11.7609 22.1904 12.1588L21.2912 13.5389C21.1479 13.7587 21.1782 14.0489 21.3638 14.2344C21.5493 14.42 21.8395 14.4503 22.0593 14.307L23.4394 13.4078C23.8374 13.1486 23.8958 12.5887 23.56 12.2529Z" fill="#3F6C8E"/>
<path d="M22.7791 11.8833L23.0498 11.6126C23.3067 11.3525 23.7337 11.3564 23.9865 11.6123C24.2451 11.871 24.2448 12.2903 23.9861 12.5489L23.7154 12.8196C23.0755 13.4162 22.181 12.5297 22.7791 11.8833Z" fill="#334353"/>
<path d="M22.7791 11.8829L23.0493 11.6127C23.2381 11.4253 23.5097 11.3707 23.7503 11.4603C23.8372 11.6956 23.7867 11.9712 23.5973 12.1606L23.3271 12.4309C23.1459 12.6143 22.863 12.6732 22.6275 12.5832C22.5367 12.3469 22.5956 12.0643 22.7791 11.8829Z" fill="#3E4E60"/>
<path d="M16.6928 12.0384L16.4783 12.2529C16.1424 12.5887 16.2009 13.1486 16.5987 13.4079L17.9788 14.3071C18.1987 14.4504 18.4888 14.4201 18.6744 14.2345C18.8599 14.049 18.8902 13.7588 18.7469 13.539L17.8477 12.1589C17.5885 11.7609 17.0287 11.7025 16.6928 12.0384Z" fill="#3F5D77"/>
<path d="M16.9856 11.6092L17.2563 11.8799C17.5164 12.1368 17.5126 12.5639 17.2566 12.8166C16.998 13.0753 16.5787 13.075 16.32 12.8163L16.0493 12.5456C15.4527 11.9056 16.3392 11.011 16.9856 11.6092Z" fill="#334353"/>
<path d="M16.9854 11.6092L17.2557 11.8794C17.443 12.0682 17.4976 12.3397 17.408 12.5804C17.1728 12.6673 16.8972 12.6168 16.7077 12.4274L16.4375 12.1572C16.254 11.976 16.1951 11.6931 16.2852 11.4575C16.5215 11.3668 16.804 11.4257 16.9854 11.6092Z" fill="#3E4E60"/>
<path d="M28.7252 19.2318C28.7252 19.9734 28.489 20.6958 28.0515 21.294L24.9473 25.5394C24.1883 26.5776 22.9792 27.1915 21.6929 27.1915H18.3462C17.0598 27.1915 15.8508 26.5776 15.0917 25.5394L11.9875 21.294C11.7687 20.9948 11.6005 20.6645 11.4864 20.3168C10.5896 16.9028 13.5246 13.503 16.9912 13.5543H23.0477C26.1831 13.5542 28.7254 16.0964 28.7252 19.2318Z" fill="#3E4E60"/>
<path d="M28.7252 19.2317C28.7252 19.9733 28.4891 20.6957 28.0516 21.2939L24.9473 25.5393C24.1883 26.5776 22.9792 27.1915 21.6929 27.1915H20.0195V13.5542H23.0477C26.1831 13.5541 28.7254 16.0963 28.7252 19.2317Z" fill="#3F5D77"/>
<path d="M25.5519 18.8529C25.5519 19.3247 25.4024 19.7834 25.1244 20.1636L23.1513 22.8621C22.6689 23.5214 21.9005 23.9115 21.0835 23.9115H18.9557C18.1387 23.9115 17.3703 23.5214 16.8879 22.8621L14.9148 20.1636C14.6364 19.7825 14.4874 19.3247 14.4873 18.8529C14.4873 16.8605 16.1027 15.2451 18.0951 15.2451H21.9441C23.9362 15.2454 25.5519 16.8604 25.5519 18.8529Z" fill="#3F5D77"/>
<path d="M25.5518 18.8529C25.5518 19.3247 25.4023 19.7834 25.1243 20.1636L23.1512 22.8621C22.6688 23.5214 21.9004 23.9115 21.0834 23.9115H20.0195V15.2451H21.944C23.9361 15.2454 25.5518 16.8604 25.5518 18.8529Z" fill="#3F6C8E"/>
<path d="M23.1053 19.331H20.0195V17.1802H23.1053C24.5323 17.2378 24.5318 19.2735 23.1053 19.331Z" fill="#22A8B9"/>
<path d="M16.9338 17.1802H20.0196V19.331H16.9338C15.5068 19.2734 15.5074 17.2377 16.9338 17.1802Z" fill="#3F6C8E"/>
</svg>
