<svg width="40" height="40" viewBox="0 0 40 40" fill="none" xmlns="http://www.w3.org/2000/svg">
<path d="M40 20C40 31.0458 31.0458 40 20 40C8.95416 40 0 31.0458 0 20C0 8.95416 8.95416 0 20 0C31.0458 0 40 8.95416 40 20Z" fill="#F46D11"/>
<path d="M28.0482 10.7443H11.9502L12.6832 6.88811L12.9918 5.26366C13.3494 3.38194 15.3526 2.31169 17.1153 3.06029L18.8255 3.78691C19.5756 4.10612 20.4228 4.10612 21.1732 3.78691L22.8834 3.06029C24.6458 2.31169 26.649 3.38194 27.0067 5.26366L27.3152 6.88719L28.0482 10.7443Z" fill="#FFE05C"/>
<path d="M18.826 3.78691C17.1158 3.06029 15.4291 6.14439 15.4291 8.83818C15.4291 9.66429 14.7614 10.2832 13.8348 10.7443H11.9507L12.9922 5.26366C13.3499 3.38194 15.3531 2.31169 17.1158 3.06029L18.826 3.78691Z" fill="#E89F18"/>
<path d="M28.0487 10.7444H11.9507L12.6837 6.88818C14.8642 6.48322 17.3557 6.25464 20.0006 6.25464C22.6456 6.25464 25.1352 6.48322 27.3157 6.88727L28.0487 10.7444Z" fill="#E89F18"/>
<path d="M31.8371 13.1933C31.8371 15.6848 28.1219 17.7804 23.0761 18.3956C22.0956 18.5165 21.0641 18.5803 20.0005 18.5803C13.4628 18.5803 8.16309 16.1688 8.16309 13.1933C8.16309 10.2178 13.4628 7.80542 20.0005 7.80542C21.0644 7.80542 22.0959 7.8692 23.0761 7.99005C28.1219 8.60559 31.8371 10.7018 31.8371 13.1933Z" fill="#E89F18"/>
<path d="M31.837 13.1934C31.837 15.6848 28.1218 17.7805 23.076 18.3957C18.03 17.7805 15.8916 15.6848 15.8916 13.1934C15.8916 11.3638 17.0449 9.74732 19.6559 8.77381C21.6103 8.04536 23.6693 7.96601 25.6652 8.46192C29.3425 9.37562 31.837 11.1517 31.837 13.1934Z" fill="#FFE05C"/>
<path d="M29.8526 35.1234V37.4082C26.9449 39.058 23.5822 40.0001 19.9994 40.0001C17.8876 40.0001 15.8533 39.6726 13.9423 39.0662C12.6117 38.6442 11.3406 38.0857 10.1465 37.4082V35.1234C10.1465 32.9926 11.0434 31.0703 12.4802 29.7144C13.3432 28.9011 14.4009 28.2914 15.5765 27.9633C16.0257 27.8382 16.4917 27.7543 16.9708 27.7158C17.1716 27.6996 17.3743 27.6914 17.579 27.6914H22.4191C22.9913 27.6914 23.548 27.7552 24.0826 27.8776C27.3871 28.6335 29.8526 31.5909 29.8526 35.1234Z" fill="#0C85A5"/>
<path d="M29.8532 35.1234V37.4082C28.0777 38.4156 26.1331 39.1593 24.072 39.5844C22.9175 39.8237 21.7264 39.9634 20.5084 39.9937C20.3397 39.9976 20.1697 40.0001 20 40.0001C17.8882 40.0001 15.8539 39.6726 13.9429 39.0662V35.1234C13.9429 34.5969 13.9975 34.0824 14.1022 33.5871C14.3143 32.5748 14.733 31.6392 15.3119 30.8246C16.6586 28.9283 18.8736 27.6914 21.3763 27.6914H22.4197C26.5256 27.6914 29.8532 31.0187 29.8532 35.1234Z" fill="#1DA2DD"/>
<path d="M20.6533 27.3589V39.9074C20.436 39.915 20.2191 39.9181 20.0002 39.9181C19.7814 39.9181 19.5635 39.915 19.3472 39.9074V27.3589H20.6533Z" fill="#0C85A5"/>
<path d="M12.7257 19.4949C12.7257 20.7227 11.8288 21.7404 10.6545 21.9293C10.5263 21.9501 10.3942 21.9611 10.2596 21.9611C8.89728 21.9611 7.79346 20.8572 7.79346 19.4949C7.79346 18.1326 8.89728 17.0288 10.2596 17.0288C10.3942 17.0288 10.5263 17.0398 10.6545 17.0605C11.8288 17.2495 12.7257 18.2672 12.7257 19.4949Z" fill="#F6BA97"/>
<path d="M12.7255 19.4949C12.7255 20.7227 11.8286 21.7404 10.6543 21.9293C10.441 21.1536 10.3271 20.3375 10.3271 19.4949C10.3271 18.6523 10.441 17.8363 10.6543 17.0605C11.8286 17.2495 12.7255 18.2672 12.7255 19.4949Z" fill="#EAA27F"/>
<path d="M11.1406 19.4949C11.1406 19.9816 10.746 20.3762 10.2593 20.3762C9.77252 20.3762 9.37793 19.9816 9.37793 19.4949C9.37793 19.0081 9.77252 18.6135 10.2593 18.6135C10.746 18.6135 11.1406 19.0081 11.1406 19.4949Z" fill="#EAA27F"/>
<path d="M27.2734 19.4949C27.2734 20.7227 28.17 21.7404 29.3444 21.9293C29.4728 21.9501 29.6047 21.9611 29.7396 21.9611C31.1019 21.9611 32.2054 20.8572 32.2054 19.4949C32.2054 18.1326 31.1019 17.0288 29.7396 17.0288C29.6047 17.0288 29.4728 17.0398 29.3444 17.0605C28.17 17.2495 27.2734 18.2672 27.2734 19.4949Z" fill="#F6BA97"/>
<path d="M27.2734 19.4949C27.2734 20.7227 28.17 21.7404 29.3444 21.9293C29.5577 21.1536 29.6718 20.3375 29.6718 19.4949C29.6718 18.6523 29.558 17.8363 29.3444 17.0605C28.17 17.2495 27.2734 18.2672 27.2734 19.4949Z" fill="#EAA27F"/>
<path d="M29.1749 14.6905V18.1844C29.1749 19.0685 29.0501 19.924 28.8157 20.733C27.8444 24.1018 24.9937 26.6741 21.4723 27.2405C21.4576 27.243 21.4421 27.2454 21.4274 27.2482C20.963 27.3223 20.486 27.3589 19.9995 27.3589C15.8168 27.3589 12.2877 24.5599 11.1839 20.733C10.9498 19.924 10.8247 19.0685 10.8247 18.1844V14.6905C10.8247 14.3582 10.8427 14.0292 10.8772 13.706C11.3325 13.4554 11.8364 13.2244 12.3823 13.0154C12.8706 12.8277 13.3931 12.6586 13.9433 12.5091C15.7155 12.0275 17.7873 11.7507 20.0004 11.7507C21.064 11.7507 22.0958 11.8145 23.0763 11.9354C25.4786 12.2283 27.5807 12.8579 29.1221 13.7051C29.1572 14.0292 29.1749 14.3575 29.1749 14.6905Z" fill="#EAA27F"/>
<path d="M30.6211 19.4949C30.6211 19.9816 30.2265 20.3762 29.7397 20.3762C29.253 20.3762 28.8584 19.9816 28.8584 19.4949C28.8584 19.0081 29.253 18.6135 29.7397 18.6135C30.2265 18.6135 30.6211 19.0081 30.6211 19.4949Z" fill="#EAA27F"/>
<path d="M29.175 14.6905V18.1844C29.175 19.0685 29.0502 19.924 28.8158 20.733C27.8444 24.1018 24.9938 26.6741 21.4724 27.2405C21.4577 27.243 21.4421 27.2454 21.4275 27.2482C18.3065 26.7608 15.7073 24.6987 14.4664 21.9012C13.962 20.7647 13.6821 19.5068 13.6821 18.1844V14.6905C13.6821 13.9385 13.7728 13.2079 13.9434 12.5091C14.3099 12.4096 14.6886 12.319 15.0795 12.2381V12.2375C16.5776 11.9247 18.2445 11.7507 20.0005 11.7507C21.064 11.7507 22.0958 11.8145 23.0764 11.9354C25.4787 12.2283 27.5807 12.8579 29.1222 13.7051C29.1573 14.0292 29.175 14.3575 29.175 14.6905Z" fill="#F6BA97"/>
<path d="M19.9989 22.7032C19.2305 22.7032 18.4623 22.5106 17.762 22.1258C17.5645 22.0172 17.4922 21.7691 17.6008 21.5716C17.7095 21.3738 17.9576 21.3018 18.1553 21.4105C19.3095 22.0452 20.688 22.0449 21.8425 21.4105C22.0399 21.3018 22.288 21.3738 22.3967 21.5716C22.5053 21.7691 22.4333 22.0172 22.2355 22.1258C21.5355 22.5106 20.767 22.7032 19.9989 22.7032Z" fill="#EAA27F"/>
<path d="M21.0403 20.2709H18.9587C18.7109 20.2709 18.5098 20.0698 18.5098 19.8217C18.5098 19.5739 18.7109 19.3728 18.9587 19.3728H21.0403C21.2884 19.3728 21.4895 19.5739 21.4895 19.8217C21.4895 20.0698 21.2884 20.2709 21.0403 20.2709Z" fill="#EAA27F"/>
<path d="M20.1171 36.1332L18.1906 36.9575C17.8527 37.1022 17.4609 36.9462 17.3165 36.6075L14.5907 30.2366L13.7197 28.2008C14.8226 27.7674 16.0314 27.5944 17.2445 27.7275L18.5443 30.7649L20.4675 35.2589C20.6118 35.5976 20.4553 35.9886 20.1171 36.1332Z" fill="#673389"/>
<path d="M17.6563 28.6891C16.7298 29.2246 15.929 29.9552 15.312 30.8244C15.2122 30.9651 15.1169 31.1094 15.0269 31.2571L13.7192 28.2008C14.8231 27.7674 16.0309 27.5944 17.2449 27.7275L17.6563 28.6891Z" fill="#512375"/>
<path d="M18.0455 17.65C18.0455 18.225 17.5795 18.691 17.0045 18.691C16.4299 18.691 15.9639 18.225 15.9639 17.65C15.9639 17.0754 16.4299 16.6094 17.0045 16.6094C17.5795 16.6094 18.0455 17.0754 18.0455 17.65Z" fill="#2F373B"/>
<path d="M24.0352 17.65C24.0352 18.225 23.5692 18.691 22.9943 18.691C22.4196 18.691 21.9536 18.225 21.9536 17.65C21.9536 17.0754 22.4196 16.6094 22.9943 16.6094C23.5692 16.6094 24.0352 17.0754 24.0352 17.65Z" fill="#2F373B"/>
<path d="M17.8331 17.4664C17.8331 17.7126 17.6335 17.9125 17.3873 17.9125C17.141 17.9125 16.9414 17.7126 16.9414 17.4664C16.9414 17.2201 17.141 17.0205 17.3873 17.0205C17.6335 17.0205 17.8331 17.2201 17.8331 17.4664Z" fill="white"/>
<path d="M23.8745 17.4664C23.8745 17.7126 23.6746 17.9125 23.4283 17.9125C23.182 17.9125 22.9824 17.7126 22.9824 17.4664C22.9824 17.2201 23.182 17.0205 23.4283 17.0205C23.6746 17.0205 23.8745 17.2201 23.8745 17.4664Z" fill="white"/>
<path d="M26.5909 25.475C26.8762 26.4027 27.1616 27.3304 27.4469 28.2582C27.5571 28.6085 27.2971 29.0028 26.8619 29.1218C22.37 30.3514 17.6297 30.3514 13.1375 29.1218C12.7026 29.0028 12.4426 28.6085 12.5525 28.2582C12.8381 27.3304 13.1235 26.4027 13.4088 25.475C13.5193 25.1234 13.8977 24.9299 14.2581 25.0282C18.0167 26.0572 21.983 26.0569 25.7416 25.0282C26.1017 24.9299 26.4804 25.1234 26.5909 25.475Z" fill="#512375"/>
<path d="M18.5443 30.7649C17.2186 30.6907 15.8959 30.5152 14.5907 30.2366L13.7197 28.2008C14.8226 27.7674 16.0314 27.5944 17.2445 27.7275L18.5443 30.7649Z" fill="#512375"/>
<path d="M26.5912 25.475C26.8765 26.4027 27.1619 27.3304 27.4472 28.2582C27.5574 28.6085 27.2974 29.0028 26.8622 29.1218C23.6502 30.001 20.311 30.2516 17.0264 29.8735C16.5814 29.8222 16.2677 29.4725 16.3233 29.1096C16.464 28.1492 16.6049 27.1888 16.7459 26.2284C16.8015 25.8644 17.1436 25.6147 17.5119 25.6572C20.2603 25.9736 23.0542 25.764 25.7419 25.0282C26.102 24.9299 26.4807 25.1234 26.5912 25.475Z" fill="#673389"/>
<path d="M29.1746 14.6905V17.0587C24.3967 16.9567 20.6687 12.5894 15.0791 12.2381V12.2375C16.5772 11.9247 18.2441 11.7507 20.0001 11.7507C21.0636 11.7507 22.0954 11.8145 23.0759 11.9354C25.4783 12.2283 27.5803 12.8579 29.1218 13.7051C29.1569 14.0292 29.1746 14.3575 29.1746 14.6905Z" fill="#2F373B"/>
<path d="M12.3823 13.0154C12.3823 14.7296 12.2249 16.6503 10.8247 17.0236V14.6905C10.8247 14.3582 10.8427 14.0292 10.8772 13.706C11.3325 13.4554 11.8364 13.2244 12.3823 13.0154Z" fill="#2F373B"/>
</svg>
