<svg width="40" height="40" viewBox="0 0 40 40" fill="none" xmlns="http://www.w3.org/2000/svg">
<path d="M20 40C31.0457 40 40 31.0457 40 20C40 8.9543 31.0457 0 20 0C8.9543 0 0 8.9543 0 20C0 31.0457 8.9543 40 20 40Z" fill="#EE6781"/>
<path d="M28.1734 29.6239C27.7919 30.0049 27.1744 30.0053 26.7933 29.6239L23.6855 26.5161L25.0657 25.136L28.1734 28.2437C28.5595 28.6275 28.5475 29.2529 28.1734 29.6239Z" fill="#57409B"/>
<path d="M28.3926 29.286C28.0362 29.4236 27.6302 29.3461 27.3494 29.0667L24.2417 25.9589L25.0656 25.135L28.1733 28.2428C28.4557 28.5253 28.5283 28.9372 28.3926 29.286Z" fill="#6C53A2"/>
<path d="M26.8266 28.5437L25.1111 26.8282C24.7383 26.432 25.2963 25.8723 25.6936 26.2457L27.409 27.9611C27.7819 28.3573 27.2238 28.917 26.8266 28.5437Z" fill="#9175A7"/>
<path d="M27.0227 30.7738L24.768 33.0285C24.5773 33.2192 24.2973 33.2669 24.0621 33.1723C23.6379 33.0092 23.5148 32.4234 23.8461 32.1066L26.1008 29.8519C26.2279 29.7248 26.3947 29.6612 26.5615 29.6617C27.125 29.6513 27.4368 30.3681 27.0227 30.7738Z" fill="#57409B"/>
<path d="M27.0228 30.7739L24.7681 33.0286C24.5774 33.2193 24.2974 33.267 24.0623 33.1724C23.9677 32.9372 24.0154 32.6572 24.2061 32.4665L26.4608 30.2118C26.6502 30.0229 26.9262 29.9736 27.1662 30.0685C27.2608 30.3036 27.2135 30.5833 27.0228 30.7739Z" fill="#6C53A2"/>
<path d="M24.567 32.472C24.4659 32.3709 24.4659 32.207 24.567 32.1059L26.1311 30.5419C26.2322 30.4408 26.3961 30.4408 26.4972 30.5419C26.5983 30.643 26.5983 30.8069 26.4972 30.908L24.9331 32.472C24.832 32.5731 24.6681 32.5731 24.567 32.472Z" fill="#9175A7"/>
<path d="M24.1475 38.2336C24.2522 38.2336 24.3371 38.1488 24.3371 38.0441V36.9456H23.958V38.0441C23.9579 38.1488 24.0429 38.2336 24.1475 38.2336Z" fill="#3E4E60"/>
<path d="M23.4527 38.2336C23.5574 38.2336 23.6422 38.1488 23.6422 38.0441V36.9456H23.2632V38.0441C23.2632 38.1488 23.348 38.2336 23.4527 38.2336Z" fill="#3E4E60"/>
<path d="M24.1516 37.169C24.0231 37.1696 23.5926 37.1694 23.4572 37.1694C23.2766 37.1694 23.1304 37.0232 23.1304 36.8426V36.4994C23.1619 35.6148 24.4355 35.6089 24.4704 36.4994V36.8426C24.4704 37.0203 24.3285 37.1651 24.1516 37.169Z" fill="#57409B"/>
<path d="M24.1435 35.8293C23.9519 35.8299 23.6509 35.829 23.4573 35.8293C23.2766 35.8293 23.1304 35.6831 23.1304 35.5025V35.1593C23.1619 34.275 24.4354 34.269 24.4699 35.1598V35.5029C24.4704 35.6831 24.3242 35.8293 24.1435 35.8293Z" fill="#57409B"/>
<path d="M24.1435 34.4894C23.9514 34.4904 23.651 34.4895 23.4568 34.4899C23.2766 34.4894 23.1304 34.3432 23.1304 34.1635L23.1299 33.8199C23.1615 32.9355 24.4353 32.9287 24.4699 33.8199V34.163C24.4699 34.3437 24.3237 34.4899 24.1435 34.4894Z" fill="#57409B"/>
<path d="M23.9578 37.1697C23.778 37.169 23.6313 37.0223 23.6313 36.8433V36.4993C23.6313 36.2181 23.8044 35.9768 24.051 35.8782C24.2997 35.975 24.4717 36.2287 24.4701 36.4993V36.8426C24.4696 37.02 24.3287 37.1647 24.1518 37.169H24.1457L23.9578 37.1697Z" fill="#6C53A2"/>
<path d="M24.1436 35.8297H23.9577C23.778 35.8297 23.6313 35.6836 23.6313 35.5032V35.1599C23.6313 34.8787 23.8051 34.6375 24.051 34.5381C24.2985 34.6361 24.4723 34.889 24.4701 35.1599V35.5032C24.4702 35.6839 24.3225 35.8297 24.1436 35.8297Z" fill="#6C53A2"/>
<path d="M23.9585 34.49C23.7786 34.4888 23.6311 34.345 23.6313 34.1629V33.8196C23.6313 33.5391 23.8051 33.2978 24.051 33.1978C24.2982 33.2964 24.4721 33.549 24.4701 33.8196V34.1629C24.4702 34.3429 24.3232 34.4896 24.1437 34.4893L23.9585 34.49Z" fill="#6C53A2"/>
<path d="M24.2602 34.4165C24.0432 34.4165 23.8668 34.2401 23.8668 34.0225C23.8587 33.7273 24.2057 33.529 24.4555 33.6812C24.4817 33.7733 24.4667 34.0643 24.4704 34.1631C24.4676 34.2888 24.4018 34.4344 24.2602 34.4165Z" fill="#9175A7"/>
<path d="M24.2602 35.7561C24.0432 35.7561 23.8668 35.5797 23.8668 35.3627C23.8587 35.0669 24.2055 34.8686 24.4555 35.0208C24.4817 35.1129 24.4667 35.4044 24.4704 35.5034C24.4675 35.6302 24.4019 35.7735 24.2602 35.7561Z" fill="#9175A7"/>
<path d="M24.2602 37.0956C24.0432 37.0956 23.8668 36.9198 23.8668 36.7022C23.8587 36.407 24.2057 36.2087 24.4555 36.3609C24.4817 36.453 24.4667 36.744 24.4704 36.8427C24.4675 36.9693 24.4018 37.1131 24.2602 37.0956Z" fill="#9175A7"/>
<path d="M11.8276 29.6229C12.209 30.0039 12.8265 30.0043 13.2077 29.6229L16.3155 26.5152L14.9353 25.135L11.8276 28.2427C11.4415 28.6266 11.4535 29.2519 11.8276 29.6229Z" fill="#57409B"/>
<path d="M11.6083 29.286C11.9647 29.4236 12.3707 29.3461 12.6515 29.0667L15.7592 25.9589L14.9353 25.135L11.8276 28.2428C11.5452 28.5253 11.4725 28.9372 11.6083 29.286Z" fill="#6C53A2"/>
<path d="M13.1745 28.5437L14.89 26.8282C15.2628 26.432 14.7047 25.8723 14.3075 26.2457L12.5921 27.9611C12.2192 28.3573 12.7772 28.917 13.1745 28.5437Z" fill="#9175A7"/>
<path d="M12.9782 30.7738L15.2329 33.0285C15.4236 33.2192 15.7036 33.2669 15.9387 33.1723C16.363 33.0092 16.486 32.4234 16.1548 32.1066L13.9001 29.8519C13.773 29.7248 13.6062 29.6612 13.4394 29.6617C12.8759 29.6513 12.5641 30.3681 12.9782 30.7738Z" fill="#57409B"/>
<path d="M12.9787 30.7739L15.2334 33.0286C15.4241 33.2193 15.7041 33.267 15.9392 33.1724C16.0339 32.9372 15.9861 32.6572 15.7954 32.4665L13.5407 30.2118C13.3513 30.0229 13.0753 29.9736 12.8353 30.0685C12.7407 30.3036 12.788 30.5833 12.9787 30.7739Z" fill="#6C53A2"/>
<path d="M15.4352 32.472C15.5363 32.3709 15.5363 32.207 15.4352 32.1059L13.8711 30.5419C13.77 30.4408 13.6061 30.4408 13.505 30.5419C13.4039 30.643 13.4039 30.8069 13.505 30.908L15.0691 32.472C15.1702 32.5731 15.3341 32.5731 15.4352 32.472Z" fill="#9175A7"/>
<path d="M15.8531 38.2336C15.7484 38.2336 15.6636 38.1488 15.6636 38.0441V36.9456H16.0426V38.0441C16.0427 38.1488 15.9578 38.2336 15.8531 38.2336Z" fill="#2E3140"/>
<path d="M16.5479 38.2336C16.4432 38.2336 16.3584 38.1488 16.3584 38.0441V36.9456H16.7375V38.0441C16.7375 38.1488 16.6526 38.2336 16.5479 38.2336Z" fill="#2E3140"/>
<path d="M15.849 37.169C15.9775 37.1696 16.408 37.1694 16.5434 37.1694C16.724 37.1694 16.8703 37.0232 16.8703 36.8426V36.4994C16.8387 35.6148 15.5651 35.6089 15.5303 36.4994V36.8426C15.5303 37.0203 15.6721 37.1651 15.849 37.169Z" fill="#57409B"/>
<path d="M15.8572 35.8293C16.0487 35.8299 16.3497 35.829 16.5434 35.8293C16.724 35.8293 16.8703 35.6831 16.8703 35.5025V35.1593C16.8388 34.275 15.5653 34.269 15.5308 35.1598V35.5029C15.5303 35.6831 15.6765 35.8293 15.8572 35.8293Z" fill="#57409B"/>
<path d="M15.8572 34.4894C16.0492 34.4904 16.3497 34.4895 16.5439 34.4899C16.724 34.4894 16.8703 34.3432 16.8703 34.1635L16.8708 33.8199C16.8391 32.9355 15.5654 32.9287 15.5308 33.8199V34.163C15.5308 34.3437 15.6769 34.4899 15.8572 34.4894Z" fill="#57409B"/>
<path d="M16.0426 37.1697C16.2224 37.169 16.369 37.0223 16.369 36.8433V36.4993C16.369 36.2181 16.196 35.9768 15.9493 35.8782C15.7007 35.975 15.5286 36.2287 15.5303 36.4993V36.8426C15.5308 37.02 15.6717 37.1647 15.8486 37.169H15.8547L16.0426 37.1697Z" fill="#6C53A2"/>
<path d="M15.8568 35.8297H16.0426C16.2224 35.8297 16.369 35.6836 16.369 35.5032V35.1599C16.369 34.8787 16.1953 34.6375 15.9494 34.5381C15.7019 34.6361 15.5281 34.889 15.5303 35.1599V35.5032C15.5302 35.6839 15.6779 35.8297 15.8568 35.8297Z" fill="#6C53A2"/>
<path d="M16.0419 34.49C16.2218 34.4888 16.3693 34.345 16.369 34.1629V33.8196C16.369 33.5391 16.1953 33.2978 15.9494 33.1978C15.7022 33.2964 15.5283 33.549 15.5303 33.8196V34.1629C15.5302 34.3429 15.6772 34.4896 15.8567 34.4893L16.0419 34.49Z" fill="#6C53A2"/>
<path d="M15.7405 34.4165C15.9574 34.4165 16.1338 34.2401 16.1338 34.0225C16.142 33.7273 15.7949 33.529 15.5452 33.6812C15.519 33.7733 15.534 34.0643 15.5302 34.1631C15.5331 34.2888 15.5988 34.4344 15.7405 34.4165Z" fill="#9175A7"/>
<path d="M15.7405 35.7561C15.9574 35.7561 16.1338 35.5797 16.1338 35.3627C16.142 35.0669 15.7952 34.8686 15.5452 35.0208C15.519 35.1129 15.534 35.4044 15.5302 35.5034C15.5331 35.6302 15.5988 35.7735 15.7405 35.7561Z" fill="#9175A7"/>
<path d="M15.7405 37.0956C15.9574 37.0956 16.1338 36.9198 16.1338 36.7022C16.142 36.407 15.7949 36.2087 15.5452 36.3609C15.519 36.453 15.534 36.744 15.5302 36.8427C15.5331 36.9693 15.5988 37.1131 15.7405 37.0956Z" fill="#9175A7"/>
<path d="M30.4359 19.5257C30.4356 20.0648 29.9992 20.5018 29.46 20.5016H25.0649V18.5498H29.46C30.0044 18.5482 30.4381 18.9989 30.4359 19.5257Z" fill="#57409B"/>
<path d="M30.3528 19.1314C30.1981 19.4807 29.8561 19.713 29.4599 19.714H25.0649V18.5488H29.4599C29.8594 18.5489 30.2021 18.7888 30.3528 19.1314Z" fill="#6C53A2"/>
<path d="M28.72 19.7139H26.294C25.7502 19.6974 25.7491 18.907 26.294 18.8901H28.7199C28.9474 18.8901 29.1318 19.0745 29.1318 19.302C29.1318 19.5295 28.9474 19.7139 28.72 19.7139Z" fill="#9175A7"/>
<path d="M30.4365 21.1522V24.3408C30.4029 25.2075 29.1638 25.2024 29.1328 24.3408V21.1522C29.1328 20.9725 29.2058 20.8096 29.3241 20.692C29.7152 20.2861 30.4424 20.5726 30.4365 21.1522Z" fill="#57409B"/>
<path d="M30.4369 21.1522V24.3408C30.4369 24.6104 30.2727 24.8422 30.0395 24.9416C29.8063 24.8422 29.6421 24.6104 29.6421 24.3408V21.1522C29.6425 20.8846 29.8026 20.6546 30.0395 20.552C30.2727 20.6514 30.4369 20.8825 30.4369 21.1522Z" fill="#6C53A2"/>
<path d="M29.9009 24.09C29.7579 24.09 29.6421 23.9741 29.6421 23.8311V21.6192C29.6421 21.4762 29.7579 21.3604 29.9009 21.3604C30.0439 21.3604 30.1597 21.4762 30.1597 21.6192V23.8311C30.1597 23.974 30.0439 24.09 29.9009 24.09Z" fill="#9175A7"/>
<path d="M33.6782 28.4601C33.7521 28.3861 33.7521 28.2661 33.6782 28.1921L32.9014 27.4153L32.6333 27.6833L33.4101 28.4601C33.4842 28.5342 33.6042 28.5342 33.6782 28.4601Z" fill="#3E4E60"/>
<path d="M33.1864 28.9516C33.2605 28.8775 33.2605 28.7575 33.1864 28.6835L32.4096 27.9067L32.1416 28.1748L32.9184 28.9516C32.9924 29.0256 33.1124 29.0256 33.1864 28.9516Z" fill="#3E4E60"/>
<path d="M32.9283 27.7045C32.8379 27.7958 32.5334 28.1001 32.4377 28.1958C32.3099 28.3235 32.1031 28.3235 31.9754 28.1958L31.7327 27.9532C31.1287 27.3075 32.0279 26.3996 32.6802 27.0057L32.9228 27.2483C33.0486 27.374 33.0506 27.5767 32.9283 27.7045Z" fill="#57409B"/>
<path d="M31.9756 26.7631C31.8405 26.8989 31.627 27.1111 31.4903 27.2483C31.3626 27.3761 31.1558 27.3761 31.0281 27.2483L30.7854 27.0058C30.1815 26.3603 31.0806 25.4525 31.7329 26.0589L31.9756 26.3015C32.1033 26.4286 32.1033 26.6354 31.9756 26.7631Z" fill="#57409B"/>
<path d="M31.0277 25.8156C30.8926 25.9521 30.6795 26.164 30.5425 26.3015C30.4148 26.4286 30.208 26.4286 30.081 26.3015L29.8377 26.0589C29.2338 25.4133 30.1325 24.5047 30.7852 25.1114L31.0277 25.354C31.1555 25.4817 31.1555 25.6885 31.0277 25.8156Z" fill="#57409B"/>
<path d="M32.7917 27.8422C32.6641 27.9689 32.4567 27.9689 32.33 27.8422L32.0868 27.599C31.888 27.4001 31.8398 27.1072 31.9444 26.863C32.1887 26.7557 32.4897 26.8134 32.6799 27.0059L32.9226 27.2486C33.0476 27.3743 33.0504 27.5764 32.9283 27.7046L32.924 27.7089L32.7917 27.8422Z" fill="#6C53A2"/>
<path d="M31.9753 26.763L31.8439 26.8944C31.7168 27.0215 31.5098 27.022 31.3822 26.8944L31.1395 26.6517C30.9407 26.4528 30.8929 26.1594 30.9966 25.9153C31.2409 25.8096 31.5426 25.8656 31.7325 26.0586L31.9753 26.3014C32.1031 26.4289 32.1019 26.6365 31.9753 26.763Z" fill="#6C53A2"/>
<path d="M30.8972 25.9468C30.7692 26.0731 30.5632 26.0757 30.4347 25.9468L30.1919 25.704C29.9936 25.5057 29.9458 25.2122 30.049 24.9676C30.2936 24.8626 30.5951 24.9183 30.785 25.111L31.0277 25.3537C31.155 25.481 31.1548 25.6886 31.0277 25.8154L30.8972 25.9468Z" fill="#6C53A2"/>
<path d="M31.0578 25.6817C30.9044 25.8352 30.655 25.8352 30.5011 25.6812C30.2867 25.4783 30.3918 25.0927 30.676 25.0237C30.7596 25.0702 30.9549 25.2866 31.0273 25.3539C31.1142 25.4448 31.1706 25.5942 31.0578 25.6817Z" fill="#9175A7"/>
<path d="M32.0046 26.629C31.8511 26.7824 31.6017 26.7824 31.4483 26.629C31.2334 26.4256 31.3383 26.0401 31.6228 25.9709C31.7064 26.0176 31.9019 26.2343 31.9745 26.3017C32.0623 26.3934 32.1172 26.5411 32.0046 26.629Z" fill="#9175A7"/>
<path d="M32.9524 27.576C32.799 27.7295 32.55 27.7299 32.3961 27.576C32.1817 27.3731 32.2869 26.9874 32.5711 26.9185C32.6547 26.9651 32.8498 27.1814 32.9223 27.2487C33.0097 27.3402 33.065 27.4882 32.9524 27.576Z" fill="#9175A7"/>
<path d="M9.56446 19.5257C9.56477 20.0648 10.0012 20.5018 10.5404 20.5016H14.9354V18.5498H10.5404C9.99595 18.5482 9.56227 18.9989 9.56446 19.5257Z" fill="#57409B"/>
<path d="M9.64746 19.1314C9.80215 19.4807 10.1441 19.713 10.5403 19.714H14.9353V18.5488H10.5403C10.1408 18.5489 9.79816 18.7888 9.64746 19.1314Z" fill="#6C53A2"/>
<path d="M11.2796 19.7139H13.7056C14.2493 19.6974 14.2505 18.907 13.7056 18.8901H11.2796C11.0521 18.8901 10.8677 19.0745 10.8677 19.302C10.8677 19.5295 11.0521 19.7139 11.2796 19.7139Z" fill="#9175A7"/>
<path d="M9.564 21.1522V24.3408C9.59759 25.2075 10.8367 25.2024 10.8677 24.3408V21.1522C10.8677 20.9725 10.7947 20.8096 10.6764 20.692C10.2853 20.2861 9.55806 20.5726 9.564 21.1522Z" fill="#57409B"/>
<path d="M9.56445 21.1522V24.3408C9.56445 24.6104 9.72867 24.8422 9.96187 24.9416C10.1951 24.8422 10.3593 24.6104 10.3593 24.3408V21.1522C10.3589 20.8846 10.1987 20.6546 9.96187 20.552C9.72867 20.6514 9.56445 20.8825 9.56445 21.1522Z" fill="#6C53A2"/>
<path d="M10.0996 24.09C10.2426 24.09 10.3585 23.9741 10.3585 23.8311V21.6192C10.3585 21.4762 10.2426 21.3604 10.0996 21.3604C9.95668 21.3604 9.84082 21.4762 9.84082 21.6192V23.8311C9.84082 23.974 9.95668 24.09 10.0996 24.09Z" fill="#9175A7"/>
<path d="M6.32209 28.4601C6.24811 28.3861 6.24811 28.2661 6.32209 28.1921L7.09889 27.4153L7.36693 27.6833L6.59014 28.4601C6.51607 28.5342 6.39607 28.5342 6.32209 28.4601Z" fill="#2E3140"/>
<path d="M6.81379 28.9516C6.7398 28.8775 6.7398 28.7575 6.81379 28.6835L7.59059 27.9067L7.85863 28.1748L7.08184 28.9516C7.00785 29.0256 6.88785 29.0256 6.81379 28.9516Z" fill="#2E3140"/>
<path d="M7.07178 27.7045C7.16217 27.7958 7.4667 28.1001 7.5624 28.1958C7.69014 28.3235 7.89694 28.3235 8.02467 28.1958L8.26733 27.9532C8.87139 27.3075 7.97217 26.3996 7.31983 27.0057L7.07725 27.2483C6.95147 27.374 6.94944 27.5767 7.07178 27.7045Z" fill="#57409B"/>
<path d="M8.02451 26.7631C8.15959 26.8989 8.37311 27.1111 8.50975 27.2483C8.63748 27.3761 8.84428 27.3761 8.97201 27.2483L9.21467 27.0058C9.81858 26.3603 8.91944 25.4525 8.26717 26.0589L8.02451 26.3015C7.89678 26.4286 7.89678 26.6354 8.02451 26.7631Z" fill="#57409B"/>
<path d="M8.97227 25.8156C9.10742 25.9521 9.32047 26.164 9.4575 26.3015C9.58523 26.4286 9.79203 26.4286 9.91906 26.3015L10.1623 26.0589C10.7662 25.4133 9.8675 24.5047 9.21484 25.1114L8.97227 25.354C8.84453 25.4817 8.84453 25.6885 8.97227 25.8156Z" fill="#57409B"/>
<path d="M7.2088 27.8422C7.33637 27.9689 7.5438 27.9689 7.67044 27.8422L7.91372 27.599C8.11254 27.4001 8.16075 27.1072 8.05614 26.863C7.81184 26.7557 7.51083 26.8134 7.32067 27.0059L7.07794 27.2486C6.95294 27.3743 6.9502 27.5764 7.07223 27.7046L7.07653 27.7089L7.2088 27.8422Z" fill="#6C53A2"/>
<path d="M8.02462 26.763L8.15603 26.8944C8.28314 27.0215 8.49009 27.022 8.61767 26.8944L8.8604 26.6517C9.05923 26.4528 9.10696 26.1594 9.00329 25.9153C8.75899 25.8096 8.45728 25.8656 8.26735 26.0586L8.02462 26.3014C7.89681 26.4289 7.89798 26.6365 8.02462 26.763Z" fill="#6C53A2"/>
<path d="M9.10284 25.9468C9.23089 26.0731 9.43682 26.0757 9.56542 25.9468L9.80815 25.704C10.0065 25.5057 10.0542 25.2122 9.95104 24.9676C9.70651 24.8626 9.40495 24.9183 9.21511 25.111L8.97237 25.3537C8.84503 25.481 8.84526 25.6886 8.97237 25.8154L9.10284 25.9468Z" fill="#6C53A2"/>
<path d="M8.94239 25.6817C9.09582 25.8352 9.34528 25.8352 9.4991 25.6812C9.71356 25.4783 9.6084 25.0927 9.32418 25.0237C9.24059 25.0702 9.04535 25.2866 8.97293 25.3539C8.88598 25.4448 8.82965 25.5942 8.94239 25.6817Z" fill="#9175A7"/>
<path d="M7.99595 26.629C8.14939 26.7824 8.39884 26.7824 8.5522 26.629C8.76712 26.4256 8.6622 26.0401 8.37775 25.9709C8.29408 26.0176 8.09861 26.2343 8.02603 26.3017C7.93822 26.3934 7.88338 26.5411 7.99595 26.629Z" fill="#9175A7"/>
<path d="M7.04809 27.576C7.20152 27.7295 7.45051 27.7299 7.60434 27.576C7.81879 27.3731 7.71363 26.9874 7.42941 26.9185C7.34574 26.9651 7.15066 27.1814 7.07817 27.2487C6.99074 27.3402 6.93551 27.4882 7.04809 27.576Z" fill="#9175A7"/>
<path d="M27.9896 14.7254C27.9893 15.2645 27.5529 15.7015 27.0136 15.7013H22.6187V13.7495H27.0136C27.5582 13.7479 27.9918 14.1985 27.9896 14.7254Z" fill="#57409B"/>
<path d="M27.9065 14.3311C27.7518 14.6804 27.4098 14.9127 27.0137 14.9137H22.6187V13.7485H27.0137C27.4131 13.7486 27.7558 13.9885 27.9065 14.3311Z" fill="#6C53A2"/>
<path d="M26.2737 14.9136H23.8477C23.304 14.8971 23.3028 14.1067 23.8477 14.0898H26.2737C26.5012 14.0898 26.6855 14.2742 26.6855 14.5017C26.6855 14.7292 26.5012 14.9136 26.2737 14.9136Z" fill="#9175A7"/>
<path d="M27.9902 9.89566V13.0843C27.9566 13.9509 26.7175 13.9458 26.6865 13.0843V9.89566C26.6865 9.7159 26.7595 9.55301 26.8778 9.43543C27.2689 9.02957 27.9961 9.3159 27.9902 9.89566Z" fill="#57409B"/>
<path d="M27.9906 9.89557V13.0842C27.9906 13.3538 27.8264 13.5856 27.5932 13.685C27.36 13.5856 27.1958 13.3538 27.1958 13.0842V9.89557C27.1962 9.62799 27.3563 9.39799 27.5932 9.29541C27.8264 9.39479 27.9906 9.62588 27.9906 9.89557Z" fill="#6C53A2"/>
<path d="M27.4546 12.8331C27.3117 12.8331 27.1958 12.7173 27.1958 12.5743V10.3623C27.1958 10.2194 27.3117 10.1035 27.4546 10.1035C27.5976 10.1035 27.7135 10.2194 27.7135 10.3623V12.5743C27.7135 12.7173 27.5976 12.8331 27.4546 12.8331Z" fill="#9175A7"/>
<path d="M30.2314 5.14606C30.1574 5.07208 30.0373 5.07208 29.9633 5.14606L29.1865 5.92286L29.4546 6.19091L30.2314 5.41411C30.3054 5.34005 30.3054 5.22005 30.2314 5.14606Z" fill="#3E4E60"/>
<path d="M30.7231 5.63752C30.649 5.56354 30.529 5.56354 30.455 5.63752L29.6782 6.41432L29.9463 6.68236L30.7231 5.90557C30.7971 5.83158 30.7971 5.71158 30.7231 5.63752Z" fill="#3E4E60"/>
<path d="M29.4755 5.89624C29.5668 5.98663 29.8711 6.29116 29.9668 6.38687C30.0945 6.5146 30.0945 6.7214 29.9668 6.84913L29.7242 7.09179C29.0785 7.69585 28.1706 6.79663 28.7767 6.14429L29.0193 5.90171C29.145 5.77593 29.3477 5.7739 29.4755 5.89624Z" fill="#57409B"/>
<path d="M28.5348 6.84922C28.6706 6.9843 28.8829 7.19781 29.0201 7.33445C29.1478 7.46219 29.1478 7.66899 29.0201 7.79672L28.7775 8.03938C28.132 8.64328 27.2242 7.74414 27.8306 7.09188L28.0733 6.84922C28.2003 6.72148 28.4071 6.72148 28.5348 6.84922Z" fill="#57409B"/>
<path d="M27.5871 7.79673C27.7236 7.93188 27.9354 8.14493 28.073 8.28196C28.2001 8.4097 28.2001 8.61649 28.073 8.74353L27.8304 8.98681C27.1848 9.59064 26.2762 8.69196 26.8829 8.03931L27.1254 7.79673C27.2532 7.66899 27.46 7.66899 27.5871 7.79673Z" fill="#57409B"/>
<path d="M29.6137 6.03253C29.7404 6.1601 29.7404 6.36753 29.6137 6.49417L29.3704 6.73745C29.1716 6.93627 28.8787 6.98448 28.6345 6.87987C28.5272 6.63557 28.5849 6.33456 28.7774 6.1444L29.0201 5.90167C29.1458 5.77667 29.3479 5.77393 29.4761 5.89596L29.4804 5.90026L29.6137 6.03253Z" fill="#6C53A2"/>
<path d="M28.5347 6.84884L28.6661 6.98024C28.7932 7.10735 28.7937 7.31431 28.6661 7.44188L28.4234 7.68462C28.2246 7.88345 27.9311 7.93118 27.687 7.82751C27.5813 7.58321 27.6373 7.28149 27.8303 7.09157L28.0731 6.84884C28.2007 6.72103 28.4083 6.7222 28.5347 6.84884Z" fill="#6C53A2"/>
<path d="M27.718 7.92682C27.8443 8.05486 27.8469 8.2608 27.718 8.3894L27.4753 8.63213C27.2769 8.83049 26.9835 8.87822 26.7389 8.77502C26.6338 8.53049 26.6896 8.22893 26.8822 8.03908L27.125 7.79635C27.2522 7.669 27.4598 7.66924 27.5866 7.79635L27.718 7.92682Z" fill="#6C53A2"/>
<path d="M27.4534 7.76591C27.6069 7.91935 27.6069 8.1688 27.453 8.32263C27.25 8.53708 26.8644 8.43193 26.7954 8.14771C26.842 8.06411 27.0584 7.86888 27.1256 7.79645C27.2164 7.7095 27.3659 7.65309 27.4534 7.76591Z" fill="#9175A7"/>
<path d="M28.4007 6.81868C28.5542 6.97212 28.5542 7.22158 28.4007 7.37494C28.1973 7.58986 27.8118 7.48493 27.7427 7.20048C27.7893 7.11681 28.006 6.92134 28.0734 6.84876C28.1652 6.76103 28.3129 6.70611 28.4007 6.81868Z" fill="#9175A7"/>
<path d="M29.348 5.87157C29.5014 6.02501 29.5019 6.274 29.348 6.42782C29.145 6.64228 28.7594 6.53712 28.6904 6.2529C28.7371 6.16923 28.9534 5.97415 29.0207 5.90165C29.1122 5.81423 29.2602 5.759 29.348 5.87157Z" fill="#9175A7"/>
<path d="M12.0112 14.7254C12.0116 15.2645 12.448 15.7015 12.9872 15.7013H17.3822V13.7495H12.9872C12.4426 13.7479 12.009 14.1985 12.0112 14.7254Z" fill="#57409B"/>
<path d="M12.0942 14.3311C12.2489 14.6804 12.5909 14.9127 12.9871 14.9137H17.3821V13.7485H12.9871C12.5876 13.7486 12.2449 13.9885 12.0942 14.3311Z" fill="#6C53A2"/>
<path d="M13.7263 14.9136H16.1523C16.6961 14.8971 16.6973 14.1067 16.1523 14.0898H13.7263C13.4988 14.0898 13.3145 14.2742 13.3145 14.5017C13.3145 14.7292 13.4988 14.9136 13.7263 14.9136Z" fill="#9175A7"/>
<path d="M12.0118 9.89566V13.0843C12.0453 13.9509 13.2845 13.9458 13.3154 13.0843V9.89566C13.3154 9.7159 13.2425 9.55301 13.1242 9.43543C12.733 9.02957 12.0058 9.3159 12.0118 9.89566Z" fill="#57409B"/>
<path d="M12.0122 9.89557V13.0842C12.0122 13.3538 12.1764 13.5856 12.4096 13.685C12.6428 13.5856 12.8071 13.3538 12.8071 13.0842V9.89557C12.8067 9.62799 12.6465 9.39799 12.4096 9.29541C12.1764 9.39479 12.0122 9.62588 12.0122 9.89557Z" fill="#6C53A2"/>
<path d="M12.5474 12.8331C12.6904 12.8331 12.8062 12.7173 12.8062 12.5743V10.3623C12.8062 10.2194 12.6904 10.1035 12.5474 10.1035C12.4044 10.1035 12.2886 10.2194 12.2886 10.3623V12.5743C12.2886 12.7173 12.4045 12.8331 12.5474 12.8331Z" fill="#9175A7"/>
<path d="M9.76984 5.14606C9.84383 5.07208 9.96391 5.07208 10.0379 5.14606L10.8147 5.92286L10.5466 6.19091L9.76984 5.41411C9.69586 5.34005 9.69586 5.22005 9.76984 5.14606Z" fill="#2E3140"/>
<path d="M9.27869 5.63752C9.35268 5.56354 9.47275 5.56354 9.54674 5.63752L10.3235 6.41432L10.0555 6.68236L9.27869 5.90557C9.20463 5.83158 9.20463 5.71158 9.27869 5.63752Z" fill="#2E3140"/>
<path d="M10.5256 5.89624C10.4343 5.98663 10.13 6.29116 10.0343 6.38687C9.90654 6.5146 9.90654 6.7214 10.0343 6.84913L10.2769 7.09179C10.9226 7.69585 11.8305 6.79663 11.2244 6.14429L10.9818 5.90171C10.8561 5.77593 10.6533 5.7739 10.5256 5.89624Z" fill="#57409B"/>
<path d="M11.4673 6.84922C11.3315 6.9843 11.1192 7.19781 10.982 7.33445C10.8543 7.46219 10.8543 7.66899 10.982 7.79672L11.2246 8.03938C11.8701 8.64328 12.7779 7.74414 12.1715 7.09188L11.9288 6.84922C11.8018 6.72148 11.595 6.72148 11.4673 6.84922Z" fill="#57409B"/>
<path d="M12.4142 7.79673C12.2777 7.93188 12.0659 8.14493 11.9283 8.28196C11.8013 8.4097 11.8013 8.61649 11.9283 8.74353L12.1709 8.98681C12.8165 9.59064 13.7251 8.69196 13.1184 8.03931L12.8759 7.79673C12.7481 7.66899 12.5413 7.66899 12.4142 7.79673Z" fill="#57409B"/>
<path d="M10.3879 6.03253C10.2613 6.1601 10.2613 6.36753 10.3879 6.49417L10.6312 6.73745C10.8301 6.93627 11.123 6.98448 11.3672 6.87987C11.4745 6.63557 11.4168 6.33456 11.2243 6.1444L10.9815 5.90167C10.8558 5.77667 10.6538 5.77393 10.5256 5.89596L10.5213 5.90026L10.3879 6.03253Z" fill="#6C53A2"/>
<path d="M11.4671 6.84884L11.3357 6.98024C11.2086 7.10735 11.2082 7.31431 11.3357 7.44188L11.5785 7.68462C11.7773 7.88345 12.0707 7.93118 12.3149 7.82751C12.4206 7.58321 12.3646 7.28149 12.1715 7.09157L11.9288 6.84884C11.8012 6.72103 11.5936 6.7222 11.4671 6.84884Z" fill="#6C53A2"/>
<path d="M12.2832 7.92682C12.1569 8.05486 12.1543 8.2608 12.2832 8.3894L12.526 8.63213C12.7243 8.83049 13.0178 8.87822 13.2624 8.77502C13.3674 8.53049 13.3117 8.22893 13.119 8.03908L12.8763 7.79635C12.749 7.669 12.5414 7.66924 12.4146 7.79635L12.2832 7.92682Z" fill="#6C53A2"/>
<path d="M12.5486 7.76591C12.3952 7.91935 12.3952 8.1688 12.5491 8.32263C12.752 8.53708 13.1377 8.43193 13.2067 8.14771C13.1601 8.06411 12.9437 7.86888 12.8764 7.79645C12.7856 7.7095 12.6361 7.65309 12.5486 7.76591Z" fill="#9175A7"/>
<path d="M11.6014 6.81868C11.448 6.97212 11.448 7.22158 11.6014 7.37494C11.8048 7.58986 12.1903 7.48493 12.2595 7.20048C12.2128 7.11681 11.9961 6.92134 11.9288 6.84876C11.837 6.76103 11.6893 6.70611 11.6014 6.81868Z" fill="#9175A7"/>
<path d="M10.6543 5.87157C10.5009 6.02501 10.5004 6.274 10.6543 6.42782C10.8573 6.64228 11.2429 6.53712 11.3119 6.2529C11.2653 6.16923 11.0489 5.97415 10.9817 5.90165C10.8902 5.81423 10.7421 5.759 10.6543 5.87157Z" fill="#9175A7"/>
<path d="M25.0646 18.4492V26.8372C25.0646 29.6342 22.7966 31.9022 19.9996 31.9022C17.2022 31.9022 14.9346 29.6346 14.9346 26.8372V18.4492C14.9346 17.696 15.3057 17.0297 15.8754 16.6233C16.2398 16.3602 16.7072 16.2046 17.1768 16.2071H22.8224C24.0607 16.2071 25.0646 17.211 25.0646 18.4492Z" fill="#F9C744"/>
<path d="M25.0645 18.4487V26.8367C25.0646 29.6337 22.7965 31.9017 19.9995 31.9017V16.2065H22.8223C22.8877 16.2065 22.9526 16.2094 23.0169 16.2147C24.16 16.3126 25.0648 17.273 25.0645 18.4487Z" fill="#FAD98F"/>
<path d="M22.1489 16.2065V29.5003C22.1489 29.8059 21.9011 30.0537 21.5954 30.0537C21.2897 30.0537 21.042 29.8059 21.042 29.5003V16.2065H22.1489Z" fill="#FAEFDC"/>
<path d="M24.1235 16.6227V27.1845C24.1235 27.4901 23.8757 27.738 23.57 27.738C23.2643 27.738 23.0166 27.4901 23.0166 27.1845V16.2146C23.4276 16.2499 23.8062 16.3964 24.1235 16.6227Z" fill="#FAEFDC"/>
<path d="M18.9575 16.2065V29.5003C18.9575 29.8059 18.7096 30.0537 18.404 30.0537C18.0983 30.0537 17.8506 29.8059 17.8506 29.5003V16.2065H18.9575Z" fill="#FAD98F"/>
<path d="M16.9824 16.2146V27.1846C16.9824 27.4902 16.7346 27.738 16.4289 27.738C16.1232 27.738 15.8755 27.4902 15.8755 27.1846V16.6227C16.1928 16.3964 16.5713 16.2499 16.9824 16.2146Z" fill="#FAD98F"/>
<path d="M21.0416 16.2075V18.1017C21.0416 18.6772 20.5749 19.1438 19.9995 19.1438C19.4242 19.1438 18.9575 18.6771 18.9575 18.1017V16.2075H21.0416Z" fill="#57409B"/>
<path d="M21.0415 16.2066V18.1008C21.0415 18.6763 20.5749 19.1429 19.9995 19.1429V16.2065H21.0415V16.2066Z" fill="#6C53A2"/>
<path d="M24.192 13.2258V14.011C24.192 15.224 23.2086 16.2067 21.9962 16.2067H18.0024C16.7901 16.2067 15.8066 15.2239 15.8066 14.011V13.2258C15.8066 12.0135 16.7901 11.03 18.0024 11.03H21.9962C23.2087 11.03 24.192 12.0135 24.192 13.2258Z" fill="#57409B"/>
<path d="M24.1924 13.2257V14.011C24.215 15.8605 21.9136 16.947 20.5847 15.6215C20.2232 15.2606 19.9995 14.7612 19.9995 14.2097V13.027C19.9995 12.6262 20.1178 12.2531 20.3219 11.9402C21.493 10.188 24.1961 11.1584 24.1924 13.2257Z" fill="#6C53A2"/>
<path d="M22.1678 11.9407H17.8298C16.6312 11.9886 16.6294 13.7001 17.8298 13.749H22.1678C22.6671 13.749 23.072 13.3442 23.072 12.8448C23.072 12.3454 22.6672 11.9407 22.1678 11.9407Z" fill="#6C53A2"/>
<path d="M23.0726 12.8444C23.0726 13.3439 22.6677 13.7487 22.1683 13.7487H19.9995V13.0269C19.9995 12.6261 20.1178 12.2531 20.3219 11.9402H22.1683C22.6674 11.9401 23.0726 12.3453 23.0726 12.8444Z" fill="#9175A7"/>
<path d="M22.0031 8.39461V9.66047C22.0031 10.4167 21.3901 11.0298 20.6331 11.0298H19.368C18.611 11.0298 17.998 10.4168 17.998 9.66047V8.39461C17.998 7.63836 18.611 7.02539 19.368 7.02539H20.6331C21.3901 7.02539 22.0031 7.63836 22.0031 8.39461Z" fill="#57409B"/>
<path d="M22.003 8.39461V9.66047C22.003 10.4167 21.39 11.0298 20.6331 11.0298C20.2837 11.0298 20.0005 10.7466 20.0005 10.3972V7.02539H20.6331C21.39 7.02539 22.003 7.63836 22.003 8.39461Z" fill="#6C53A2"/>
<path d="M22.3101 8.11816C22.6602 8.32027 22.782 8.76543 22.5849 9.11707C22.5837 9.12027 22.582 9.12324 22.5803 9.12621L22.3236 9.57082C21.8003 10.4018 20.5876 9.69511 21.0449 8.83254L21.3016 8.38793C21.5058 8.03504 21.957 7.91426 22.3101 8.11816Z" fill="#2E3140"/>
<path d="M22.31 8.11816C22.6601 8.32027 22.7819 8.76543 22.5848 9.11707C22.1231 9.37542 21.44 9.29378 21.0068 8.90847C21.0207 8.86519 21.2741 8.43847 21.3014 8.38793C21.5057 8.03504 21.9569 7.91426 22.31 8.11816Z" fill="#3E4E60"/>
<path d="M21.6687 8.41783L21.5142 8.68533C21.4477 8.80049 21.4872 8.94783 21.6024 9.01432C21.7175 9.0808 21.8648 9.04135 21.9313 8.92619L22.0858 8.65869C22.2377 8.37963 21.8345 8.14674 21.6687 8.41783Z" fill="white"/>
<path d="M17.6908 8.11816C17.3407 8.32027 17.2189 8.76543 17.416 9.11707C17.4173 9.12027 17.4189 9.12324 17.4206 9.12621L17.6773 9.57082C18.2006 10.4018 19.4133 9.69511 18.956 8.83254L18.6993 8.38793C18.4952 8.03504 18.0439 7.91426 17.6908 8.11816Z" fill="#2E3140"/>
<path d="M17.6908 8.11816C17.3407 8.32027 17.2189 8.76543 17.416 9.11707C17.8777 9.37542 18.5609 9.29378 18.994 8.90847C18.9801 8.86519 18.7267 8.43847 18.6994 8.38793C18.4952 8.03504 18.0439 7.91426 17.6908 8.11816Z" fill="#3E4E60"/>
<path d="M18.3325 8.41783L18.487 8.68533C18.5535 8.80049 18.514 8.94783 18.3988 9.01432C18.2837 9.0808 18.1363 9.04135 18.0699 8.92619L17.9154 8.65869C17.7635 8.37963 18.1667 8.14674 18.3325 8.41783Z" fill="white"/>
<path d="M25.2289 4.51257C25.2289 4.77116 25.1133 5.02819 24.8875 5.19773L21.3726 7.84304C21.2789 7.91335 21.1476 7.90476 21.0648 7.82116C20.9812 7.73835 20.9726 7.6071 21.0429 7.51335C21.2421 7.24976 23.4254 4.34648 23.6883 3.99851C24.1887 3.33851 25.232 3.7089 25.2289 4.51257Z" fill="#6C53A2"/>
<path d="M24.7692 4.05473C24.7692 4.31254 24.6535 4.56958 24.4278 4.73911L22.6219 6.09801C22.4279 6.24395 22.1825 5.99848 22.3285 5.8045L23.6879 3.99848C23.9424 3.61872 24.7282 3.45997 24.7692 4.05473Z" fill="#9175A7"/>
<path d="M14.7705 4.51257C14.7705 4.77116 14.8861 5.02819 15.1119 5.19773L18.6268 7.84304C18.7205 7.91335 18.8518 7.90476 18.9346 7.82116C19.0182 7.73835 19.0268 7.6071 18.9565 7.51335C18.7573 7.24976 16.574 4.34648 16.3111 3.99851C15.8107 3.33851 14.7674 3.7089 14.7705 4.51257Z" fill="#57409B"/>
<path d="M15.23 4.05473C15.23 4.31254 15.3456 4.56958 15.5714 4.73911L17.3772 6.09801C17.5712 6.24395 17.8167 5.99848 17.6707 5.8045L16.3113 3.99848C16.0568 3.61872 15.271 3.45997 15.23 4.05473Z" fill="#6C53A2"/>
<path d="M20.6035 7.24821L21.2625 6.58923C21.3467 6.50509 21.3467 6.36868 21.2625 6.28446L21.0497 6.07165C20.9656 5.98751 20.8292 5.98751 20.7449 6.07165L20.5159 6.30071C20.4317 6.38485 20.4317 6.52126 20.5159 6.60548C20.6 6.68962 20.6 6.82603 20.5159 6.91025L20.3906 7.03548C20.2534 7.17728 20.4613 7.38587 20.6035 7.24821Z" fill="#3E4E60"/>
<path d="M19.6085 7.24912C19.5506 7.30772 19.4541 7.30764 19.396 7.24912L18.7375 6.58975C18.664 6.51631 18.6546 6.40381 18.7093 6.32022C18.7175 6.29889 18.9302 6.09436 18.95 6.07256C19.0343 5.98818 19.1703 5.98818 19.2546 6.07256L19.4835 6.30147C19.5679 6.38584 19.5679 6.52178 19.4835 6.60615C19.4414 6.64834 19.4203 6.70381 19.4203 6.7585C19.4096 6.86764 19.5418 6.96506 19.6085 7.03584C19.6679 7.09522 19.6679 7.18975 19.6085 7.24912Z" fill="#2E3140"/>
</svg>
