<svg width="40" height="40" viewBox="0 0 40 40" fill="none" xmlns="http://www.w3.org/2000/svg">
<path d="M20 40C31.0457 40 40 31.0457 40 20C40 8.9543 31.0457 0 20 0C8.9543 0 0 8.9543 0 20C0 31.0457 8.9543 40 20 40Z" fill="#6C53A2"/>
<path d="M13.5381 2.96555V15.2156C13.5381 15.8677 13.6616 16.5034 13.8913 17.0334L15.35 20.3991L15.7125 20.0006L19.1507 16.2184L18.2902 10.2673C18.1756 9.57883 17.9663 8.94422 17.6782 8.41266L14.4239 2.4011C14.2526 2.08743 13.9672 2.03274 13.7573 2.27344C13.689 2.35274 13.6339 2.45673 13.5964 2.57524C13.5882 2.59985 13.5811 2.62634 13.575 2.6518C13.5508 2.7504 13.5381 2.85618 13.5381 2.96555Z" fill="#F4829B"/>
<path d="M19.151 16.2187L15.7127 20.0007L15.3354 18.3734C15.2721 18.0984 15.2189 17.8194 15.1775 17.5366C14.9916 16.2804 15.0205 14.9585 15.2666 13.7194C15.3783 13.1554 15.4447 12.489 15.4666 11.7921C15.5119 10.3812 15.3752 8.8421 15.0604 7.76007L13.5752 2.65226C13.5814 2.62648 13.5885 2.59992 13.5971 2.5757C13.6346 2.45695 13.6893 2.35304 13.7572 2.27335C13.9674 2.03273 14.2525 2.08742 14.4244 2.40148L16.0838 5.46624L17.6783 8.41234C17.9666 8.94437 18.176 9.57874 18.2908 10.267L18.6041 12.4327L19.151 16.2187Z" fill="#D48D77"/>
<path d="M16.6025 9.8132C16.6025 10.5374 16.5619 11.3054 16.4838 12.078C16.2799 14.0952 15.8229 16.1468 15.1775 17.5366C14.9916 16.2804 15.0205 14.9585 15.2666 13.7194C15.3783 13.1554 15.4447 12.489 15.4666 11.7921C15.5119 10.3812 15.3752 8.8421 15.0604 7.76007L13.5752 2.65226C13.5814 2.62648 13.5885 2.59992 13.5971 2.5757C13.6346 2.45695 13.6893 2.35304 13.7572 2.27335C13.9674 2.03273 14.2525 2.08742 14.4244 2.40148L16.0838 5.46624C16.4182 6.80617 16.6025 8.27413 16.6025 9.8132Z" fill="#EEA47D"/>
<path d="M15.4666 11.7921C15.5119 10.3812 15.3752 8.8421 15.0604 7.76007L13.5752 2.65226C13.5814 2.62648 13.5885 2.59992 13.5971 2.5757C13.6346 2.45695 13.6893 2.35304 13.7572 2.27335C13.9674 2.03273 14.2525 2.08742 14.4244 2.40148L16.0838 5.46624L17.6783 8.41234C17.9666 8.94437 18.176 9.57874 18.2908 10.267L18.6041 12.4327C17.5205 12.3312 16.4697 12.114 15.4666 11.7921Z" fill="#2E3140"/>
<path d="M16.6025 9.8132C16.6025 10.5374 16.5619 11.3054 16.4838 12.078C16.14 11.9944 15.8002 11.8991 15.4666 11.7921C15.5119 10.3812 15.3752 8.8421 15.0604 7.76007L13.5752 2.65226C13.5814 2.62648 13.5885 2.59992 13.5971 2.5757C13.6346 2.45695 13.6893 2.35304 13.7572 2.27335C13.9674 2.03273 14.2525 2.08742 14.4244 2.40148L16.0838 5.46624C16.4182 6.80617 16.6025 8.27413 16.6025 9.8132Z" fill="#334353"/>
<path d="M26.4628 2.96555V15.2156C26.4628 15.8677 26.3392 16.5034 26.1096 17.0334L24.6508 20.3991L24.2883 20.0006L20.8501 16.2184L21.7106 10.2673C21.8253 9.57883 22.0346 8.94422 22.3227 8.41266L25.5769 2.4011C25.7482 2.08743 26.0336 2.03274 26.2435 2.27344C26.3118 2.35274 26.367 2.45673 26.4044 2.57524C26.4127 2.59985 26.4198 2.62634 26.4259 2.6518C26.4501 2.7504 26.4628 2.85618 26.4628 2.96555Z" fill="#FF9FB4"/>
<path d="M24.7345 13.7204C24.9813 14.9594 25.0095 16.2813 24.8235 17.5376C24.7821 17.8204 24.729 18.0993 24.6657 18.3743L24.2884 20.0016L20.8501 16.2196L21.3978 12.4337L21.711 10.268C21.8251 9.57975 22.0345 8.94537 22.3228 8.41334L23.9181 5.46725L25.5774 2.40248C25.7485 2.08834 26.0337 2.03373 26.2438 2.27435C26.3118 2.35404 26.3673 2.45795 26.4048 2.5767C26.4126 2.60092 26.4196 2.62748 26.4259 2.65326L24.9407 7.76107C24.6267 8.84311 24.4892 10.3822 24.5345 11.7931C24.5563 12.4907 24.6228 13.1563 24.7345 13.7204Z" fill="#EEA47D"/>
<path d="M24.7344 13.7194C24.9813 14.9585 25.0094 16.2803 24.8234 17.5366C24.1781 16.1467 23.7211 14.0952 23.518 12.078C23.4391 11.3053 23.3984 10.5374 23.3984 9.81315C23.3984 8.27408 23.5836 6.80611 23.918 5.46627L25.5773 2.4015C25.7484 2.08736 26.0336 2.03275 26.2438 2.27338C26.3117 2.35306 26.3672 2.45697 26.4047 2.57572C26.4125 2.59994 26.4195 2.6265 26.4258 2.65228L24.9406 7.7601C24.6266 8.84213 24.4891 10.3812 24.5344 11.7921C24.5563 12.4897 24.6227 13.1553 24.7344 13.7194Z" fill="#F5B890"/>
<path d="M24.9409 7.76001C24.6269 8.84204 24.4894 10.3811 24.5347 11.792C23.5315 12.1139 22.4815 12.3311 21.3979 12.4327L21.7112 10.267C21.8253 9.57876 22.0347 8.94439 22.3229 8.41236L23.9183 5.46627L25.5776 2.4015C25.7487 2.08736 26.0339 2.03275 26.244 2.27338C26.312 2.35306 26.3675 2.45697 26.405 2.57572C26.4128 2.59994 26.4198 2.6265 26.4261 2.65228L24.9409 7.76001Z" fill="#334353"/>
<path d="M24.9406 7.76002C24.6266 8.84205 24.4891 10.3811 24.5344 11.792C24.2008 11.8991 23.8617 11.9944 23.518 12.078C23.4391 11.3053 23.3984 10.5374 23.3984 9.81314C23.3984 8.27408 23.5836 6.80611 23.918 5.46627L25.5773 2.4015C25.7484 2.08736 26.0336 2.03275 26.2438 2.27338C26.3117 2.35306 26.3672 2.45697 26.4047 2.57572C26.4125 2.59994 26.4195 2.6265 26.4258 2.65228L24.9406 7.76002Z" fill="#3E4E60"/>
<path d="M27.9677 26.6478V28.1171C27.9677 31.7884 24.564 34.7649 20.3658 34.7649H19.6354C15.4364 34.7649 12.0327 31.7884 12.0327 28.1171V26.6478C12.0327 22.9764 15.4364 19.3054 19.6354 19.3054H20.3658C24.564 19.3054 27.9677 22.9764 27.9677 26.6478Z" fill="#A26D5A"/>
<path d="M27.9676 26.6478V28.1171C27.9676 31.7884 24.5639 34.7649 20.3656 34.7649H20.0005V19.3054H20.3657C24.5639 19.3054 27.9676 22.9764 27.9676 26.6478Z" fill="#C17E62"/>
<path d="M21.667 35.214H18.3335C16.1689 35.214 14.5184 32.9773 14.8611 30.5093L15.0688 29.0132L15.2995 27.3492C15.4727 26.1039 15.4727 24.8335 15.2995 23.5882L14.9724 21.2281C14.5709 18.3406 16.5029 15.7234 19.0359 15.7234H20.9647C23.4977 15.7234 25.4297 18.3406 25.0281 21.2281L24.701 23.5882C24.5278 24.8335 24.5278 26.1039 24.701 27.3492L24.9318 29.0132L25.1395 30.5093C25.4822 32.9773 23.8317 35.214 21.667 35.214Z" fill="#C17E62"/>
<path d="M21.6673 35.214H20.0005V15.7234H20.9649C23.4979 15.7234 25.4299 18.3406 25.0284 21.2281L24.7013 23.5882C24.5281 24.8335 24.5281 26.1039 24.7013 27.3492L24.932 29.0132L25.1397 30.5093C25.4824 32.9773 23.8319 35.214 21.6673 35.214Z" fill="#D48D77"/>
<path d="M25.0453 24.0122C25.8057 24.1462 26.3152 24.8658 26.1911 25.6257C26.191 25.6323 26.1899 25.6387 26.1888 25.6452L26.0185 26.6109C25.951 26.9938 25.7346 27.3141 25.4389 27.5211C25.1431 27.7291 24.7692 27.8231 24.3853 27.7555C23.6719 27.6297 23.1785 26.988 23.2224 26.2823C23.2253 26.2287 23.2315 26.1747 23.241 26.1212L23.4113 25.1554C23.479 24.7714 23.6962 24.4524 23.9919 24.2455C24.2875 24.0385 24.6614 23.9445 25.0453 24.0122Z" fill="#3E4E60"/>
<path d="M25.045 24.0122C25.8054 24.1462 26.3148 24.8658 26.1908 25.6257C25.6192 26.2594 24.696 26.5917 23.7345 26.4222C23.5559 26.3907 23.3844 26.3439 23.2222 26.2822C23.225 26.2287 23.2312 26.1746 23.2407 26.1211L23.411 25.1553C23.4787 24.7713 23.6959 24.4523 23.9916 24.2454C24.2872 24.0385 24.6611 23.9445 25.045 24.0122Z" fill="#2E3140"/>
<path d="M24.0904 24.9691L23.988 25.5502C23.9439 25.8004 24.111 26.039 24.3611 26.0831C24.6114 26.1273 24.85 25.9602 24.8941 25.71L24.9965 25.1289C25.0407 24.8787 24.8736 24.6401 24.6234 24.5959C24.3732 24.5518 24.1346 24.7188 24.0904 24.9691Z" fill="white"/>
<path d="M14.9549 24.0122C14.1945 24.1462 13.6851 24.8658 13.8091 25.6257C13.8092 25.6323 13.8103 25.6387 13.8115 25.6452L13.9818 26.6109C14.0493 26.9938 14.2657 27.3141 14.5613 27.5211C14.8572 27.7291 15.231 27.8231 15.615 27.7555C16.3283 27.6297 16.8217 26.988 16.7778 26.2823C16.775 26.2287 16.7687 26.1747 16.7593 26.1212L16.589 25.1554C16.5212 24.7714 16.304 24.4524 16.0083 24.2455C15.7127 24.0385 15.3388 23.9445 14.9549 24.0122Z" fill="#3E4E60"/>
<path d="M14.9549 24.0122C14.1945 24.1462 13.6851 24.8658 13.8091 25.6257C14.3807 26.2594 15.3039 26.5917 16.2654 26.4222C16.444 26.3907 16.6155 26.3439 16.7777 26.2822C16.7749 26.2287 16.7687 26.1746 16.7592 26.1211L16.5889 25.1553C16.5212 24.7713 16.304 24.4523 16.0083 24.2454C15.7127 24.0385 15.3388 23.9445 14.9549 24.0122Z" fill="#2E3140"/>
<path d="M15.9097 24.9691L16.0122 25.5502C16.0563 25.8004 15.8892 26.039 15.639 26.0831C15.3888 26.1273 15.1502 25.9602 15.1061 25.71L15.0037 25.1289C14.9595 24.8787 15.1266 24.6401 15.3768 24.5959C15.627 24.5518 15.8656 24.7188 15.9097 24.9691Z" fill="white"/>
<path d="M20.001 17.103C22.8225 17.103 23.6382 18.4207 23.6382 20.2141C23.6382 22.0076 22.9574 25.2285 20.001 25.2285V17.103Z" fill="#EEA47D"/>
<path d="M20.0005 17.103C17.179 17.103 16.3633 18.4207 16.3633 20.2141C16.3633 22.0076 17.0441 25.2285 20.0005 25.2285V17.103Z" fill="#D48D77"/>
<path d="M25.5515 32.3851C25.5515 34.2675 23.8967 35.8593 21.7853 35.8593H18.2161C15.8983 35.8593 14.1311 33.9421 14.4981 31.8266C14.5624 31.4556 14.7552 31.1355 15.0264 30.9072C15.297 30.6795 15.6459 30.5442 16.0222 30.5442H23.9792C24.7319 30.5442 25.3747 31.0853 25.5033 31.8266C25.5361 32.0148 25.5515 32.201 25.5515 32.3851Z" fill="#D48D77"/>
<path d="M25.5509 32.3851C25.5509 34.2675 23.8961 35.8593 21.7847 35.8593H20V30.5442H23.9784C24.7312 30.5442 25.374 31.0853 25.5026 31.8266C25.5355 32.0148 25.5509 32.201 25.5509 32.3851Z" fill="#EEA47D"/>
<path d="M24.693 34.1491C24.5245 34.0742 24.3267 34.1501 24.2512 34.3186C24.2466 34.3291 23.7735 35.3623 22.904 35.3623C21.5874 35.3623 21.0144 34.5237 20.6422 34.0157C20.4426 33.7434 20.3351 33.4151 20.3351 33.0775V32.4564C20.3351 32.2815 20.2072 32.1253 20.0331 32.1087C19.8334 32.0898 19.6655 32.2462 19.6655 32.442V33.0775C19.6655 33.4151 19.5579 33.7434 19.3583 34.0157C18.9862 34.5237 18.4131 35.3623 17.0965 35.3623C16.227 35.3623 15.754 34.3291 15.7497 34.3195C15.6751 34.1504 15.4775 34.0737 15.3083 34.1482C15.139 34.2228 15.0623 34.4205 15.1369 34.5897C15.1629 34.6486 15.7879 36.032 17.0965 36.032C18.3534 36.032 19.0124 35.3691 19.4557 34.841C19.7401 34.5022 20.2605 34.5022 20.5448 34.841C20.9881 35.3691 21.6471 36.032 22.904 36.032C24.2126 36.032 24.8376 34.6486 24.8636 34.5897C24.938 34.4208 24.8616 34.224 24.693 34.1491Z" fill="#A26D5A"/>
<path d="M21.5621 29.9238V31.2258C21.5621 31.4434 21.4989 31.6574 21.3812 31.8412L21.0879 32.297C20.9372 32.5322 20.6776 32.6742 20.399 32.6742H19.6021C19.3234 32.6742 19.0639 32.5323 18.9132 32.297L18.6198 31.8412C18.5022 31.6574 18.439 31.4435 18.439 31.2258V29.9238C18.439 29.4709 18.8058 29.104 19.2587 29.104H20.7424C21.1952 29.1041 21.5621 29.4709 21.5621 29.9238Z" fill="#F4829B"/>
<path d="M21.5621 29.9237V31.2257C21.5621 31.4433 21.4988 31.6573 21.3812 31.8411L21.0878 32.2969C20.9371 32.5321 20.6776 32.6741 20.3989 32.6741H20.0005V29.104H20.7423C21.1952 29.104 21.5621 29.4708 21.5621 29.9237Z" fill="#FF9FB4"/>
<path d="M27.557 34.1467C27.543 34.1174 27.2093 33.4226 26.2714 32.9747C25.8197 32.7591 25.315 32.6366 24.7587 32.6072C23.8093 32.5574 22.71 32.7788 21.4728 33.2701C21.3586 33.316 21.3024 33.4456 21.3477 33.5604C21.3937 33.6746 21.5232 33.7308 21.638 33.6855C22.8451 33.2057 23.9298 32.9977 24.8409 33.0653C25.2876 33.0985 25.6927 33.1981 26.05 33.3639C26.8577 33.7391 27.1506 34.3312 27.1525 34.3363C27.1908 34.4173 27.2712 34.4652 27.3548 34.4652C27.3866 34.4652 27.4192 34.4581 27.4498 34.4442C27.5615 34.3911 27.6093 34.2584 27.557 34.1467Z" fill="#EEA47D"/>
<path d="M27.5567 34.1468C27.6091 34.2584 27.5612 34.3912 27.4495 34.4441C27.4189 34.4582 27.3863 34.4651 27.3545 34.4651C27.2709 34.4651 27.1905 34.4173 27.1522 34.3362C27.1502 34.3312 26.8574 33.7391 26.0497 33.3639C25.6924 33.198 25.2873 33.0985 24.8406 33.0653C24.8068 32.9148 24.7788 32.7623 24.7583 32.6072C25.3146 32.6366 25.8193 32.7591 26.271 32.9747C27.209 33.4226 27.5427 34.1174 27.5567 34.1468Z" fill="#F5B890"/>
<path d="M28.6104 31.4108C28.5894 31.3859 28.0925 30.7967 27.0724 30.5978C26.5811 30.502 26.0618 30.5097 25.5158 30.6205C24.5842 30.8099 23.5753 31.2993 22.5005 32.0846C22.4014 32.1576 22.3794 32.2971 22.452 32.3969C22.5251 32.496 22.6645 32.5179 22.7644 32.4453C23.813 31.6788 24.8112 31.206 25.7101 31.0435C26.1508 30.9639 26.568 30.9588 26.9554 31.03C27.8314 31.1911 28.263 31.6911 28.2662 31.6956C28.3236 31.7645 28.4133 31.7907 28.4943 31.7697C28.5251 31.7618 28.5549 31.7468 28.5811 31.7256C28.6758 31.6463 28.689 31.5058 28.6104 31.4108Z" fill="#EEA47D"/>
<path d="M28.6102 31.4099C28.6888 31.5049 28.6757 31.6454 28.5809 31.7246C28.5547 31.7459 28.525 31.7608 28.4941 31.7687C28.4131 31.7897 28.3234 31.7634 28.266 31.6946C28.2629 31.6901 27.8312 31.1902 26.9552 31.0291C26.5678 30.9579 26.1506 30.9629 25.7099 31.0425C25.6395 30.9051 25.5741 30.7645 25.5156 30.6195C26.0616 30.5087 26.5809 30.501 27.0722 30.5968C28.0923 30.7959 28.5893 31.385 28.6102 31.4099Z" fill="#F5B890"/>
<path d="M12.5517 34.4442C12.5823 34.4582 12.6149 34.4652 12.6468 34.4652C12.7304 34.4652 12.8108 34.4173 12.849 34.3363C12.851 34.3312 13.1438 33.7391 13.9515 33.3639C14.3088 33.1981 14.714 33.0985 15.1606 33.0653C16.0717 32.9977 17.1564 33.2057 18.3635 33.6855C18.4783 33.7308 18.6079 33.6746 18.6538 33.5604C18.6991 33.4456 18.6429 33.316 18.5287 33.2701C17.2916 32.7788 16.1922 32.5574 15.2429 32.6072C14.6865 32.6366 14.1819 32.7591 13.7301 32.9747C12.7922 33.4226 12.4586 34.1174 12.4445 34.1467C12.3922 34.2585 12.4401 34.3913 12.5517 34.4442Z" fill="#EEA47D"/>
<path d="M12.4441 34.1468C12.3917 34.2584 12.4396 34.3912 12.5512 34.4441C12.5819 34.4582 12.6144 34.4651 12.6463 34.4651C12.7299 34.4651 12.8103 34.4173 12.8486 34.3362C12.8505 34.3312 13.1434 33.7391 13.9511 33.3639C14.3084 33.198 14.7135 33.0985 15.1602 33.0653C15.194 32.9148 15.222 32.7623 15.2425 32.6072C14.6862 32.6366 14.1815 32.7591 13.7298 32.9747C12.7918 33.4226 12.4581 34.1174 12.4441 34.1468Z" fill="#F5B890"/>
<path d="M11.42 31.7246C11.4462 31.7459 11.4759 31.7608 11.5068 31.7687C11.5878 31.7897 11.6775 31.7634 11.7349 31.6946C11.738 31.6902 12.1697 31.1902 13.0457 31.0291C13.4331 30.9579 13.8503 30.9629 14.291 31.0425C15.19 31.205 16.1881 31.6778 17.2368 32.4444C17.3366 32.517 17.4761 32.495 17.5491 32.3959C17.6217 32.2961 17.5997 32.1566 17.5007 32.0836C16.4258 31.2984 15.4169 30.809 14.4853 30.6195C13.9393 30.5087 13.42 30.501 12.9287 30.5968C11.9086 30.7958 11.4117 31.385 11.3907 31.4098C11.3121 31.5049 11.3252 31.6454 11.42 31.7246Z" fill="#EEA47D"/>
<path d="M11.3907 31.4099C11.3121 31.5049 11.3252 31.6454 11.4201 31.7246C11.4462 31.7459 11.4759 31.7608 11.5069 31.7687C11.5878 31.7897 11.6776 31.7634 11.7349 31.6946C11.738 31.6901 12.1697 31.1902 13.0457 31.0291C13.4331 30.9579 13.8503 30.9629 14.291 31.0425C14.3614 30.9051 14.4268 30.7645 14.4853 30.6195C13.9393 30.5087 13.42 30.501 12.9287 30.5968C11.9086 30.7959 11.4116 31.385 11.3907 31.4099Z" fill="#F5B890"/>
</svg>
