<svg width="40" height="40" viewBox="0 0 40 40" fill="none" xmlns="http://www.w3.org/2000/svg">
<path d="M20 40C31.0457 40 40 31.0457 40 20C40 8.9543 31.0457 0 20 0C8.9543 0 0 8.9543 0 20C0 31.0457 8.9543 40 20 40Z" fill="#22BCE0"/>
<path d="M23.2183 22.8943L26.9558 26.6318C27.1626 26.8373 27.1575 27.1741 26.9562 27.3726C26.7515 27.5773 26.4197 27.5773 26.215 27.3726L22.4775 23.6351L23.2183 22.8943Z" fill="#3E4E60"/>
<path d="M22.7666 23.3458L26.5041 27.0833C26.6573 27.2365 26.8824 27.275 27.0713 27.199C27.1473 27.01 27.1089 26.785 26.9557 26.6318L23.2182 22.8943L22.7666 23.3458Z" fill="#3F5D77"/>
<path d="M26.5089 26.7936C26.4277 26.8748 26.296 26.8748 26.2148 26.7936L24.9579 25.5367C24.8767 25.4555 24.8767 25.3238 24.9579 25.2426C25.0392 25.1613 25.1709 25.1613 25.2521 25.2426L26.5089 26.4995C26.5901 26.5806 26.5901 26.7123 26.5089 26.7936Z" fill="#3F6C8E"/>
<path d="M26.6632 31.5668C26.5163 31.4199 26.4359 31.2082 26.4679 30.9835L26.962 27.4832C26.9753 27.39 27.0548 27.3203 27.1493 27.3208C27.2438 27.3203 27.3233 27.39 27.3366 27.4833C27.3733 27.7463 27.7823 30.6365 27.8307 30.9835C27.9241 31.6405 27.1143 32.0259 26.6632 31.5668Z" fill="#B26E2B"/>
<path d="M27.1865 31.5676C27.0388 31.4209 26.9578 31.2085 26.9899 30.9829L27.2434 29.1846C27.2705 28.9915 27.5501 28.9915 27.5772 29.1846C27.6398 29.631 27.769 30.5412 27.8311 30.9834C27.9026 31.3367 27.5496 31.8802 27.1865 31.5676Z" fill="#C68132"/>
<path d="M27.4496 31.2422C27.1061 30.9167 27.2637 30.2997 27.7168 30.175L27.8308 30.9834C27.8526 31.1383 27.8215 31.2866 27.7519 31.4122C27.6414 31.3852 27.5362 31.3288 27.4496 31.2422Z" fill="#DD8C29"/>
<path d="M29.4588 34.5776C29.5182 34.5182 29.5182 34.4217 29.4588 34.3623L28.8345 33.738L28.6191 33.9534L29.2434 34.5776C29.3029 34.6372 29.3993 34.6372 29.4588 34.5776Z" fill="#3E4E60"/>
<path d="M29.0637 34.9727C29.1232 34.9132 29.1232 34.8167 29.0637 34.7573L28.4395 34.1331L28.2241 34.3485L28.8483 34.9727C28.9078 35.0321 29.0042 35.0321 29.0637 34.9727Z" fill="#3E4E60"/>
<path d="M28.8561 33.9707C28.7835 34.0441 28.5388 34.2886 28.4618 34.3656C28.3592 34.4682 28.193 34.4682 28.0903 34.3656L27.8954 34.1707C27.4089 33.6543 28.135 32.9211 28.6568 33.4093L28.8517 33.6042C28.9528 33.7051 28.9544 33.8681 28.8561 33.9707Z" fill="#3E4E60"/>
<path d="M28.09 33.2141C27.9815 33.3232 27.8098 33.4938 27.7001 33.604C27.5974 33.7067 27.4313 33.7067 27.3286 33.604L27.1336 33.4091C26.6472 32.8929 27.3733 32.1598 27.895 32.6482L28.0899 32.8432C28.1927 32.9452 28.1927 33.1115 28.09 33.2141Z" fill="#3E4E60"/>
<path d="M27.3288 32.4527C27.2202 32.5624 27.049 32.7326 26.9388 32.8431C26.8362 32.9452 26.67 32.9452 26.5679 32.8431L26.3724 32.6481C25.886 32.1319 26.6118 31.3982 27.1338 31.8867L27.3287 32.0817C27.4314 32.1844 27.4314 32.3506 27.3288 32.4527Z" fill="#3E4E60"/>
<path d="M28.7465 34.0813C28.644 34.1831 28.4773 34.1831 28.3756 34.0813L28.1801 33.8858C28.0204 33.726 27.9816 33.4907 28.0657 33.2944C28.262 33.2082 28.5039 33.2546 28.6567 33.4092L28.8518 33.6043C28.9535 33.7064 28.9544 33.8721 28.853 33.9741C28.8529 33.9742 28.7465 34.0813 28.7465 34.0813Z" fill="#3F5D77"/>
<path d="M28.091 33.2141L27.9853 33.3197C27.8832 33.4219 27.7169 33.4222 27.6144 33.3197L27.4193 33.1246C27.2596 32.9649 27.2212 32.7291 27.3045 32.5328C27.5008 32.4479 27.7432 32.4929 27.8959 32.6481L28.091 32.8431C28.1937 32.9457 28.1928 33.1124 28.091 33.2141Z" fill="#3F5D77"/>
<path d="M27.2241 32.5581C27.1213 32.6596 26.9558 32.6617 26.8524 32.5581L26.6574 32.3631C26.498 32.2037 26.4596 31.9679 26.5425 31.7713C26.739 31.6869 26.9813 31.7317 27.1339 31.8865L27.329 32.0816C27.4313 32.1839 27.4312 32.3507 27.329 32.4525L27.2241 32.5581Z" fill="#3F5D77"/>
<path d="M27.3534 32.345C27.2301 32.4683 27.0297 32.4683 26.906 32.3446C26.7337 32.1816 26.8182 31.8716 27.0465 31.8162C27.1138 31.8537 27.2705 32.0275 27.3288 32.0815C27.3988 32.1546 27.444 32.2747 27.3534 32.345Z" fill="#3F6C8E"/>
<path d="M28.1141 33.1062C27.9908 33.2295 27.7904 33.2295 27.6671 33.1062C27.4943 32.9427 27.5787 32.633 27.8072 32.5774C27.8745 32.6149 28.0315 32.789 28.0899 32.8431C28.1604 32.9168 28.2046 33.0356 28.1141 33.1062Z" fill="#3F6C8E"/>
<path d="M28.8755 33.8673C28.7522 33.9906 28.5521 33.991 28.4285 33.8673C28.2561 33.7043 28.3406 33.3943 28.569 33.3389C28.6363 33.3764 28.793 33.5502 28.8513 33.6042C28.9216 33.6778 28.966 33.7968 28.8755 33.8673Z" fill="#3F6C8E"/>
<path d="M16.7809 22.8943L13.0434 26.6318C12.8366 26.8373 12.8417 27.1741 13.043 27.3726C13.2477 27.5773 13.5794 27.5773 13.7841 27.3726L17.5216 23.6351L16.7809 22.8943Z" fill="#3E4E60"/>
<path d="M17.2327 23.3458L13.4952 27.0833C13.342 27.2365 13.1169 27.275 12.928 27.199C12.852 27.01 12.8904 26.785 13.0436 26.6318L16.7811 22.8943L17.2327 23.3458Z" fill="#3F5D77"/>
<path d="M13.4911 26.7936C13.5723 26.8748 13.704 26.8748 13.7852 26.7936L15.0421 25.5367C15.1233 25.4555 15.1233 25.3238 15.0421 25.2426C14.9608 25.1613 14.8291 25.1613 14.7479 25.2426L13.4911 26.4995C13.4099 26.5806 13.4099 26.7123 13.4911 26.7936Z" fill="#3F6C8E"/>
<path d="M13.3361 31.5668C13.483 31.4199 13.5633 31.2082 13.5314 30.9835L13.0373 27.4832C13.0239 27.39 12.9445 27.3203 12.85 27.3208C12.7554 27.3203 12.676 27.39 12.6626 27.4833C12.626 27.7463 12.2169 30.6365 12.1686 30.9835C12.0752 31.6405 12.885 32.0259 13.3361 31.5668Z" fill="#B26E2B"/>
<path d="M12.8131 31.5676C12.9608 31.4209 13.0418 31.2085 13.0097 30.9829L12.7562 29.1846C12.7291 28.9915 12.4495 28.9915 12.4224 29.1846C12.3598 29.631 12.2306 30.5412 12.1685 30.9834C12.097 31.3367 12.45 31.8802 12.8131 31.5676Z" fill="#C68132"/>
<path d="M12.5497 31.2422C12.8932 30.9167 12.7357 30.2997 12.2826 30.175L12.1685 30.9834C12.1467 31.1383 12.1778 31.2866 12.2475 31.4122C12.3579 31.3852 12.4632 31.3288 12.5497 31.2422Z" fill="#DD8C29"/>
<path d="M10.5407 34.5776C10.4812 34.5182 10.4812 34.4217 10.5407 34.3623L11.1649 33.738L11.3803 33.9534L10.7561 34.5776C10.6965 34.6372 10.6001 34.6372 10.5407 34.5776Z" fill="#3E4E60"/>
<path d="M10.9357 34.9727C10.8763 34.9132 10.8763 34.8167 10.9357 34.7573L11.5599 34.1331L11.7753 34.3485L11.1511 34.9727C11.0916 35.0321 10.9952 35.0321 10.9357 34.9727Z" fill="#3E4E60"/>
<path d="M11.1434 33.9707C11.216 34.0441 11.4607 34.2886 11.5377 34.3656C11.6403 34.4682 11.8065 34.4682 11.9092 34.3656L12.1042 34.1707C12.5907 33.6543 11.8646 32.9211 11.3428 33.4093L11.1478 33.6042C11.0467 33.7051 11.0451 33.8681 11.1434 33.9707Z" fill="#3E4E60"/>
<path d="M11.909 33.2141C12.0175 33.3232 12.1892 33.4938 12.2989 33.604C12.4016 33.7067 12.5678 33.7067 12.6704 33.604L12.8654 33.4091C13.3518 32.8929 12.6257 32.1598 12.104 32.6482L11.9091 32.8432C11.8064 32.9452 11.8064 33.1115 11.909 33.2141Z" fill="#3E4E60"/>
<path d="M12.6702 32.4527C12.7788 32.5624 12.95 32.7326 13.0602 32.8431C13.1628 32.9452 13.329 32.9452 13.4311 32.8431L13.6267 32.6481C14.113 32.1319 13.3872 31.3982 12.8652 31.8867L12.6703 32.0817C12.5676 32.1844 12.5676 32.3506 12.6702 32.4527Z" fill="#3E4E60"/>
<path d="M11.2528 34.0813C11.3554 34.1831 11.522 34.1831 11.6237 34.0813L11.8192 33.8858C11.979 33.726 12.0177 33.4907 11.9337 33.2944C11.7374 33.2082 11.4954 33.2546 11.3426 33.4092L11.1476 33.6043C11.0458 33.7064 11.045 33.8721 11.1464 33.9741C11.1465 33.9742 11.2528 34.0813 11.2528 34.0813Z" fill="#3F5D77"/>
<path d="M11.9092 33.2141L12.0148 33.3197C12.117 33.4219 12.2833 33.4222 12.3858 33.3197L12.5809 33.1246C12.7406 32.9649 12.779 32.7291 12.6957 32.5328C12.4994 32.4479 12.257 32.4929 12.1043 32.6481L11.9092 32.8431C11.8065 32.9457 11.8074 33.1124 11.9092 33.2141Z" fill="#3F5D77"/>
<path d="M12.7758 32.5581C12.8787 32.6596 13.0441 32.6617 13.1475 32.5581L13.3426 32.3631C13.502 32.2037 13.5403 31.9679 13.4574 31.7713C13.2609 31.6869 13.0186 31.7317 12.866 31.8865L12.6709 32.0816C12.5686 32.1839 12.5687 32.3507 12.6709 32.4525C12.6709 32.4526 12.7758 32.5581 12.7758 32.5581Z" fill="#3F5D77"/>
<path d="M12.6449 32.345C12.7682 32.4683 12.9686 32.4683 13.0923 32.3446C13.2647 32.1816 13.1801 31.8716 12.9518 31.8162C12.8845 31.8537 12.7278 32.0275 12.6695 32.0815C12.5995 32.1546 12.5543 32.2747 12.6449 32.345Z" fill="#3F6C8E"/>
<path d="M11.8839 33.1062C12.0072 33.2295 12.2076 33.2295 12.3309 33.1062C12.5036 32.9427 12.4193 32.633 12.1908 32.5774C12.1235 32.6149 11.9665 32.789 11.9081 32.8431C11.8376 32.9168 11.7934 33.0356 11.8839 33.1062Z" fill="#3F6C8E"/>
<path d="M11.1231 33.8673C11.2464 33.9906 11.4464 33.991 11.5701 33.8673C11.7425 33.7043 11.6579 33.3943 11.4296 33.3389C11.3623 33.3764 11.2056 33.5502 11.1473 33.6042C11.077 33.6778 11.0326 33.7968 11.1231 33.8673Z" fill="#3F6C8E"/>
<path d="M22.2158 15.6643H25.7612C26.0527 15.6634 26.2872 15.9052 26.2853 16.1878C26.2853 16.4773 26.0507 16.7119 25.7612 16.7119H22.2158V15.6643Z" fill="#3E4E60"/>
<path d="M22.2158 16.3039H25.7612C25.9779 16.3039 26.1642 16.1719 26.244 15.9846C26.1642 15.7972 25.9779 15.6653 25.7612 15.6653H22.2158V16.3039Z" fill="#3F5D77"/>
<path d="M25.5598 16.095C25.5598 16.2099 25.4667 16.3031 25.3518 16.3031H23.5743C23.4594 16.3031 23.3662 16.2099 23.3662 16.095C23.3662 15.9802 23.4593 15.887 23.5743 15.887H25.3518C25.4667 15.887 25.5598 15.9801 25.5598 16.095Z" fill="#3F6C8E"/>
<path d="M28.9999 12.6931C28.7921 12.6931 28.5856 12.786 28.4494 12.9675L26.3237 15.792C26.2672 15.8673 26.2741 15.9728 26.3413 16.0393C26.4078 16.1065 26.5133 16.1134 26.5886 16.0569C26.8005 15.8969 29.1334 14.1424 29.4131 13.9312C29.9436 13.5326 29.6435 12.6876 28.9999 12.6931Z" fill="#B26E2B"/>
<path d="M29.3704 13.0625C29.1622 13.0618 28.9548 13.1547 28.8179 13.3369L27.7255 14.7877C27.6081 14.9434 27.8058 15.1412 27.9616 15.0238C28.3215 14.7524 29.0566 14.2002 29.413 13.9314C29.7134 13.7321 29.8481 13.0982 29.3704 13.0625Z" fill="#C68132"/>
<path d="M29.3261 13.4787C28.853 13.4661 28.5281 14.0137 28.7605 14.4223L29.4127 13.9314C29.5377 13.8372 29.6205 13.7104 29.6601 13.5723C29.5628 13.5133 29.4485 13.4787 29.3261 13.4787Z" fill="#DD8C29"/>
<path d="M33.6 12.3459C33.6 12.2618 33.5318 12.1936 33.4477 12.1936H32.5649V12.4982H33.4477C33.5318 12.4982 33.6 12.43 33.6 12.3459Z" fill="#3E4E60"/>
<path d="M33.6 12.9045C33.6 12.8204 33.5318 12.7522 33.4477 12.7522H32.5649V13.0568H33.4477C33.5318 13.0568 33.6 12.9886 33.6 12.9045Z" fill="#3E4E60"/>
<path d="M32.7453 12.3428C32.7458 12.446 32.7456 12.7921 32.7456 12.9008C32.7456 13.046 32.6281 13.1635 32.483 13.1635H32.2073C31.4971 13.1398 31.4923 12.113 32.2073 12.0867H32.483C32.6258 12.0867 32.7422 12.2007 32.7453 12.3428Z" fill="#3E4E60"/>
<path d="M31.6688 12.3493C31.6692 12.5032 31.6685 12.7451 31.6688 12.9007C31.6688 13.0458 31.5513 13.1633 31.4061 13.1633H31.1304C30.4205 13.1397 30.4156 12.113 31.1308 12.0869H31.4065C31.5513 12.0866 31.6688 12.2041 31.6688 12.3493Z" fill="#3E4E60"/>
<path d="M30.5918 12.3493C30.5926 12.5036 30.5919 12.745 30.5922 12.9011C30.5918 13.0458 30.4743 13.1633 30.3299 13.1633L30.0538 13.1637C29.3449 13.1425 29.3392 12.1105 30.0538 12.0869H30.3295C30.4747 12.087 30.5922 12.2045 30.5918 12.3493Z" fill="#3E4E60"/>
<path d="M32.7458 12.4986C32.7453 12.643 32.6275 12.7609 32.4835 12.7609H32.2071C31.9811 12.7609 31.7872 12.6218 31.708 12.4236C31.7858 12.2238 31.9896 12.0856 32.2071 12.0869H32.4829C32.6254 12.0873 32.7418 12.2006 32.7453 12.3427V12.3475L32.7458 12.4986Z" fill="#3F5D77"/>
<path d="M31.6692 12.3492V12.4986C31.6692 12.643 31.5519 12.7609 31.4068 12.7609H31.131C30.905 12.7609 30.7111 12.6213 30.6313 12.4237C30.7101 12.2247 30.9134 12.0851 31.131 12.0869H31.4068C31.552 12.0869 31.6692 12.2054 31.6692 12.3492Z" fill="#3F5D77"/>
<path d="M30.5926 12.498C30.5916 12.6426 30.4761 12.7611 30.3297 12.7609H30.0538C29.8284 12.7609 29.6345 12.6213 29.5542 12.4236C29.6335 12.225 29.8365 12.0853 30.0538 12.0869H30.3297C30.4744 12.0869 30.5922 12.2049 30.592 12.3493L30.5926 12.498Z" fill="#3F5D77"/>
<path d="M30.5335 12.2559C30.5335 12.4302 30.3918 12.572 30.2168 12.572C29.9796 12.5785 29.8203 12.2996 29.9426 12.0989C30.0167 12.0779 30.2504 12.0899 30.3298 12.087C30.4309 12.0892 30.5479 12.142 30.5335 12.2559Z" fill="#3F6C8E"/>
<path d="M31.6096 12.2559C31.6096 12.4302 31.4679 12.572 31.2935 12.572C31.0558 12.5785 30.8964 12.2999 31.0188 12.0989C31.0928 12.0779 31.327 12.0899 31.4065 12.087C31.5085 12.0892 31.6237 12.142 31.6096 12.2559Z" fill="#3F6C8E"/>
<path d="M32.6863 12.2559C32.6863 12.4302 32.5451 12.572 32.3702 12.572C32.133 12.5785 31.9736 12.2996 32.0959 12.0989C32.17 12.0779 32.4037 12.0899 32.4831 12.087C32.5848 12.0892 32.7003 12.142 32.6863 12.2559Z" fill="#3F6C8E"/>
<path d="M17.7838 15.6643H14.2384C13.9469 15.6634 13.7124 15.9052 13.7144 16.1878C13.7144 16.4773 13.949 16.7119 14.2384 16.7119H17.7838V15.6643Z" fill="#3E4E60"/>
<path d="M17.7836 16.3029H14.2382C14.0215 16.3029 13.8352 16.1709 13.7554 15.9836C13.8352 15.7963 14.0215 15.6643 14.2382 15.6643H17.7836V16.3029Z" fill="#3F5D77"/>
<path d="M14.4404 16.095C14.4404 16.2099 14.5336 16.3031 14.6485 16.3031H16.426C16.5408 16.3031 16.634 16.2099 16.634 16.095C16.634 15.9802 16.5409 15.887 16.426 15.887H14.6485C14.5336 15.887 14.4404 15.9801 14.4404 16.095Z" fill="#3F6C8E"/>
<path d="M10.9999 12.6931C11.2077 12.6931 11.4143 12.786 11.5504 12.9675L13.6761 15.792C13.7326 15.8673 13.7257 15.9728 13.6585 16.0393C13.592 16.1065 13.4865 16.1134 13.4112 16.0569C13.1993 15.8969 10.8664 14.1424 10.5868 13.9312C10.0562 13.5326 10.3563 12.6876 10.9999 12.6931Z" fill="#B26E2B"/>
<path d="M10.6296 13.0625C10.8378 13.0618 11.0452 13.1547 11.1821 13.3369L12.2744 14.7877C12.3918 14.9434 12.1941 15.1412 12.0383 15.0238C11.6785 14.7524 10.9434 14.2002 10.5869 13.9314C10.2865 13.7321 10.1518 13.0982 10.6296 13.0625Z" fill="#C68132"/>
<path d="M10.6729 13.4787C11.146 13.4661 11.4708 14.0137 11.2385 14.4223L10.5862 13.9314C10.4613 13.8372 10.3784 13.7104 10.3389 13.5723C10.4361 13.5133 10.5504 13.4787 10.6729 13.4787Z" fill="#DD8C29"/>
<path d="M6.39893 12.3459C6.39893 12.2618 6.46713 12.1936 6.55127 12.1936H7.434V12.4982H6.55127C6.46713 12.4982 6.39893 12.43 6.39893 12.3459Z" fill="#3E4E60"/>
<path d="M6.39893 12.9045C6.39893 12.8204 6.46713 12.7522 6.55127 12.7522H7.434V13.0568H6.55127C6.46713 13.0568 6.39893 12.9886 6.39893 12.9045Z" fill="#3E4E60"/>
<path d="M7.25481 12.3428C7.25426 12.446 7.25442 12.7921 7.25442 12.9008C7.25442 13.046 7.37192 13.1635 7.51707 13.1635H7.79277C8.50293 13.1398 8.50778 12.113 7.79277 12.0867H7.51707C7.37426 12.0867 7.25785 12.2007 7.25481 12.3428Z" fill="#3E4E60"/>
<path d="M8.33069 12.3493C8.3303 12.5032 8.331 12.7451 8.33069 12.9007C8.33069 13.0458 8.44819 13.1633 8.59334 13.1633H8.86905C9.57897 13.1397 9.58389 12.113 8.86866 12.0869H8.59295C8.44819 12.0866 8.33069 12.2041 8.33069 12.3493Z" fill="#3E4E60"/>
<path d="M9.40762 12.3493C9.40684 12.5036 9.40754 12.745 9.40723 12.9011C9.40762 13.0458 9.52512 13.1633 9.66949 13.1633L9.94558 13.1637C10.6545 13.1425 10.6602 12.1105 9.94558 12.0869H9.66988C9.52473 12.087 9.40723 12.2045 9.40762 12.3493Z" fill="#3E4E60"/>
<path d="M7.25342 12.4986C7.25396 12.643 7.37178 12.7609 7.51576 12.7609H7.79217C8.01811 12.7609 8.21201 12.6218 8.29123 12.4236C8.21342 12.2238 8.00959 12.0856 7.79217 12.0869H7.51631C7.37381 12.0873 7.25748 12.2006 7.25397 12.3427V12.3475L7.25342 12.4986Z" fill="#3F5D77"/>
<path d="M8.33105 12.3492V12.4986C8.33105 12.643 8.4484 12.7609 8.5934 12.7609H8.86926C9.0952 12.7609 9.2891 12.6213 9.36887 12.4237C9.29012 12.2247 9.08684 12.0851 8.86926 12.0869H8.5934C8.44824 12.0869 8.33098 12.2054 8.33105 12.3492Z" fill="#3F5D77"/>
<path d="M9.40723 12.498C9.40816 12.6426 9.52371 12.7611 9.67012 12.7609H9.94598C10.1714 12.7609 10.3653 12.6213 10.4456 12.4236C10.3663 12.225 10.1633 12.0853 9.94598 12.0869H9.67012C9.52543 12.0869 9.40762 12.2049 9.40777 12.3493L9.40723 12.498Z" fill="#3F5D77"/>
<path d="M9.46605 12.2559C9.46605 12.4302 9.60777 12.572 9.78269 12.572C10.0199 12.5785 10.1793 12.2996 10.0569 12.0989C9.98285 12.0779 9.7491 12.0899 9.66972 12.087C9.56863 12.0892 9.45167 12.142 9.46605 12.2559Z" fill="#3F6C8E"/>
<path d="M8.38936 12.2559C8.38936 12.4302 8.53107 12.572 8.70545 12.572C8.94318 12.5785 9.10256 12.2999 8.98021 12.0989C8.90615 12.0779 8.67201 12.0899 8.59248 12.087C8.49045 12.0892 8.37529 12.142 8.38936 12.2559Z" fill="#3F6C8E"/>
<path d="M7.31318 12.2559C7.31318 12.4302 7.45435 12.572 7.62928 12.572C7.86646 12.5785 8.02584 12.2996 7.90357 12.0989C7.82951 12.0779 7.59576 12.0899 7.51638 12.087C7.41467 12.0892 7.29912 12.142 7.31318 12.2559Z" fill="#3F6C8E"/>
<path d="M22.418 13.8325H25.7615C26.053 13.8316 26.2875 14.0734 26.2855 14.356C26.2855 14.6455 26.0509 14.8801 25.7615 14.8801H22.418V13.8325Z" fill="#3E4E60"/>
<path d="M22.418 14.4721H25.7615C25.9782 14.4721 26.1645 14.3401 26.2443 14.1528C26.1645 13.9654 25.9782 13.8335 25.7615 13.8335H22.418V14.4721Z" fill="#3F5D77"/>
<path d="M25.5598 14.2632C25.5598 14.3781 25.4667 14.4713 25.3518 14.4713H23.5743C23.4594 14.4713 23.3662 14.3781 23.3662 14.2632C23.3662 14.1484 23.4593 14.0552 23.5743 14.0552H25.3518C25.4667 14.0552 25.5598 14.1483 25.5598 14.2632Z" fill="#3F6C8E"/>
<path d="M25.9259 9.90596C25.779 10.0529 25.6986 10.2646 25.7306 10.4892L26.2247 13.9896C26.238 14.0828 26.3175 14.1524 26.412 14.152C26.5065 14.1524 26.586 14.0828 26.5993 13.9895C26.636 13.7265 27.045 10.8363 27.0934 10.4892C27.1868 9.83229 26.3771 9.4469 25.9259 9.90596Z" fill="#B26E2B"/>
<path d="M26.4492 9.90513C26.3015 10.0518 26.2205 10.2642 26.2526 10.4898L26.5061 12.2881C26.5332 12.4812 26.8128 12.4812 26.8399 12.2881C26.9025 11.8418 27.0317 10.9315 27.0938 10.4893C27.1653 10.136 26.8123 9.59255 26.4492 9.90513Z" fill="#C68132"/>
<path d="M26.7123 10.2305C26.3688 10.5561 26.5263 11.1731 26.9795 11.2977L27.0935 10.4894C27.1153 10.3345 27.0842 10.1862 27.0146 10.0605C26.9041 10.0877 26.7989 10.144 26.7123 10.2305Z" fill="#DD8C29"/>
<path d="M29.2771 6.52701C29.2177 6.46756 29.1212 6.46756 29.0617 6.52701L28.4375 7.15123L28.6529 7.36662L29.2771 6.7424C29.3366 6.68287 29.3366 6.58647 29.2771 6.52701Z" fill="#3E4E60"/>
<path d="M29.6726 6.92203C29.6132 6.86258 29.5167 6.86258 29.4572 6.92203L28.833 7.54625L29.0484 7.76164L29.6726 7.13742C29.7321 7.07797 29.7321 6.98156 29.6726 6.92203Z" fill="#3E4E60"/>
<path d="M28.6702 7.12974C28.7436 7.2024 28.9881 7.44709 29.0651 7.52404C29.1677 7.6267 29.1677 7.79287 29.0651 7.89552L28.8701 8.09052C28.3538 8.57701 27.6206 7.85092 28.1087 7.32912L28.3036 7.1342C28.4046 7.03303 28.5676 7.03138 28.6702 7.12974Z" fill="#3E4E60"/>
<path d="M27.9135 7.89534C28.0227 8.00386 28.1932 8.1755 28.3035 8.28526C28.4061 8.38792 28.4061 8.55409 28.3035 8.65675L28.1085 8.85175C27.5924 9.33815 26.8592 8.61206 27.3477 8.09034L27.5427 7.89542C27.6446 7.79269 27.8109 7.79269 27.9135 7.89534Z" fill="#3E4E60"/>
<path d="M27.1524 8.65682C27.2621 8.76541 27.4323 8.93658 27.5428 9.04674C27.645 9.14939 27.645 9.31557 27.5428 9.41768L27.3478 9.61322C26.8316 10.0996 26.0979 9.37377 26.5864 8.85182L26.7814 8.65689C26.884 8.55416 27.0502 8.55416 27.1524 8.65682Z" fill="#3E4E60"/>
<path d="M28.7805 7.23937C28.8823 7.34194 28.8823 7.50858 28.7805 7.6103L28.585 7.80577C28.4253 7.96554 28.1899 8.00429 27.9936 7.92022C27.9074 7.7239 27.9538 7.48202 28.1085 7.32921L28.3035 7.13413C28.4056 7.03241 28.5713 7.03155 28.6733 7.13296C28.6734 7.13304 28.7805 7.23937 28.7805 7.23937Z" fill="#3F5D77"/>
<path d="M27.914 7.8953L28.0196 8.00093C28.1218 8.10312 28.1221 8.26937 28.0196 8.37187L27.8246 8.56694C27.6648 8.72671 27.429 8.76507 27.2328 8.68179C27.1479 8.48546 27.1929 8.24304 27.348 8.09038L27.5431 7.8953C27.6457 7.79257 27.8125 7.79351 27.914 7.8953Z" fill="#3F5D77"/>
<path d="M27.2581 8.76162C27.3596 8.86451 27.3617 9.02998 27.2581 9.13334L27.063 9.32842C26.9036 9.48779 26.6679 9.52615 26.4712 9.44326C26.3869 9.24678 26.4316 9.00443 26.5865 8.85186L26.7815 8.65678C26.8838 8.55443 27.0506 8.55459 27.1525 8.65678L27.2581 8.76162Z" fill="#3F5D77"/>
<path d="M27.045 8.63213C27.1682 8.75542 27.1682 8.95588 27.0446 9.07955C26.8815 9.2519 26.5716 9.16737 26.5161 8.93901C26.5536 8.87174 26.7274 8.71503 26.7814 8.65674C26.8546 8.58682 26.9746 8.54159 27.045 8.63213Z" fill="#3F6C8E"/>
<path d="M27.8062 7.87094C27.9295 7.99422 27.9295 8.19469 27.8062 8.31797C27.6427 8.49071 27.333 8.40633 27.2773 8.17782C27.3148 8.11055 27.489 7.95352 27.543 7.89516C27.6169 7.82462 27.7355 7.78047 27.8062 7.87094Z" fill="#3F6C8E"/>
<path d="M28.567 7.10989C28.6903 7.23317 28.6907 7.43325 28.567 7.55692C28.404 7.72926 28.094 7.64473 28.0386 7.41637C28.0761 7.34911 28.2499 7.19239 28.3039 7.13411C28.3775 7.0638 28.4965 7.01942 28.567 7.10989Z" fill="#3F6C8E"/>
<path d="M17.5819 13.8325H14.2384C13.9469 13.8316 13.7124 14.0734 13.7144 14.356C13.7144 14.6455 13.949 14.8801 14.2384 14.8801H17.5819V13.8325Z" fill="#3E4E60"/>
<path d="M17.5817 14.4711H14.2382C14.0215 14.4711 13.8352 14.3392 13.7554 14.1518C13.8352 13.9645 14.0215 13.8325 14.2382 13.8325H17.5817V14.4711Z" fill="#3F5D77"/>
<path d="M14.4404 14.2632C14.4404 14.3781 14.5336 14.4713 14.6485 14.4713H16.426C16.5408 14.4713 16.634 14.3781 16.634 14.2632C16.634 14.1484 16.5409 14.0552 16.426 14.0552H14.6485C14.5336 14.0552 14.4404 14.1483 14.4404 14.2632Z" fill="#3F6C8E"/>
<path d="M14.0734 9.90596C14.2203 10.0529 14.3006 10.2646 14.2687 10.4892L13.7746 13.9896C13.7613 14.0828 13.6818 14.1524 13.5873 14.152C13.4927 14.1524 13.4133 14.0828 13.3999 13.9895C13.3633 13.7265 12.9542 10.8363 12.9059 10.4892C12.8125 9.83229 13.6222 9.4469 14.0734 9.90596Z" fill="#B26E2B"/>
<path d="M13.5504 9.90513C13.6981 10.0518 13.7791 10.2642 13.747 10.4898L13.4935 12.2881C13.4664 12.4812 13.1868 12.4812 13.1597 12.2881C13.0971 11.8418 12.9679 10.9315 12.9058 10.4893C12.8343 10.136 13.1873 9.59255 13.5504 9.90513Z" fill="#C68132"/>
<path d="M13.287 10.2305C13.6306 10.5561 13.473 11.1731 13.0199 11.2977L12.9058 10.4894C12.884 10.3345 12.9151 10.1862 12.9848 10.0605C13.0952 10.0877 13.2004 10.144 13.287 10.2305Z" fill="#DD8C29"/>
<path d="M10.7234 6.52701C10.7828 6.46756 10.8793 6.46756 10.9387 6.52701L11.563 7.15123L11.3476 7.36662L10.7234 6.7424C10.6638 6.68287 10.6638 6.58647 10.7234 6.52701Z" fill="#3E4E60"/>
<path d="M10.3279 6.92203C10.3873 6.86258 10.4838 6.86258 10.5432 6.92203L11.1675 7.54625L10.9521 7.76164L10.3279 7.13742C10.2683 7.07797 10.2683 6.98156 10.3279 6.92203Z" fill="#3E4E60"/>
<path d="M11.3297 7.12974C11.2564 7.2024 11.0119 7.44709 10.9349 7.52404C10.8322 7.6267 10.8322 7.79287 10.9349 7.89552L11.1298 8.09052C11.6462 8.57701 12.3794 7.85092 11.8912 7.32912L11.6963 7.1342C11.5954 7.03303 11.4324 7.03138 11.3297 7.12974Z" fill="#3E4E60"/>
<path d="M12.0861 7.89534C11.9769 8.00386 11.8064 8.1755 11.6961 8.28526C11.5935 8.38792 11.5935 8.55409 11.6961 8.65675L11.8911 8.85175C12.4072 9.33815 13.1403 8.61206 12.6519 8.09034L12.4569 7.89542C12.355 7.79269 12.1887 7.79269 12.0861 7.89534Z" fill="#3E4E60"/>
<path d="M12.8474 8.65682C12.7377 8.76541 12.5675 8.93658 12.457 9.04674C12.3548 9.14939 12.3548 9.31557 12.457 9.41768L12.652 9.61322C13.1682 10.0996 13.902 9.37377 13.4134 8.85182L13.2184 8.65689C13.1158 8.55416 12.9496 8.55416 12.8474 8.65682Z" fill="#3E4E60"/>
<path d="M11.2199 7.23937C11.1181 7.34194 11.1181 7.50858 11.2199 7.6103L11.4154 7.80577C11.5751 7.96554 11.8105 8.00429 12.0068 7.92022C12.093 7.7239 12.0466 7.48202 11.8919 7.32921L11.6969 7.13413C11.5948 7.03241 11.4291 7.03155 11.327 7.13296C11.327 7.13304 11.2199 7.23937 11.2199 7.23937Z" fill="#3F5D77"/>
<path d="M12.0867 7.8953L11.9811 8.00093C11.8789 8.10312 11.8786 8.26937 11.9811 8.37187L12.1761 8.56694C12.3359 8.72671 12.5717 8.76507 12.7679 8.68179C12.8529 8.48546 12.8079 8.24304 12.6527 8.09038L12.4576 7.8953C12.355 7.79257 12.1882 7.79351 12.0867 7.8953Z" fill="#3F5D77"/>
<path d="M12.7424 8.76162C12.6409 8.86451 12.6388 9.02998 12.7424 9.13334L12.9375 9.32842C13.0969 9.48779 13.3327 9.52615 13.5293 9.44326C13.6137 9.24678 13.5689 9.00443 13.4141 8.85186L13.219 8.65678C13.1167 8.55443 12.9499 8.55459 12.8481 8.65678L12.7424 8.76162Z" fill="#3F5D77"/>
<path d="M12.9557 8.63213C12.8324 8.75542 12.8324 8.95588 12.9561 9.07955C13.1191 9.2519 13.429 9.16737 13.4845 8.93901C13.447 8.87174 13.2732 8.71503 13.2192 8.65674C13.1461 8.58682 13.026 8.54159 12.9557 8.63213Z" fill="#3F6C8E"/>
<path d="M12.1945 7.87094C12.0712 7.99422 12.0712 8.19469 12.1945 8.31797C12.358 8.49071 12.6677 8.40633 12.7233 8.17782C12.6858 8.11055 12.5117 7.95352 12.4576 7.89516C12.3838 7.82462 12.2651 7.78047 12.1945 7.87094Z" fill="#3F6C8E"/>
<path d="M11.4334 7.10989C11.3101 7.23317 11.3098 7.43325 11.4334 7.55692C11.5965 7.72926 11.9064 7.64473 11.9619 7.41637C11.9244 7.34911 11.7505 7.19239 11.6966 7.13411C11.623 7.0638 11.504 7.01942 11.4334 7.10989Z" fill="#3F6C8E"/>
<path d="M23.5847 22.2225V28.81C23.5755 29.9011 23.1424 31.1063 22.5344 32.0513C20.3942 35.3798 17.6026 33.48 16.6337 30.2237C16.4919 29.7309 16.4141 29.2457 16.4141 28.81V22.2225C16.4141 20.9104 17.4776 19.8469 18.7896 19.8469H21.2091C22.5212 19.847 23.5847 20.9104 23.5847 22.2225Z" fill="#F39E22"/>
<path d="M23.5848 22.2225V28.8099C23.5915 30.6394 22.1057 33.7635 19.9995 33.8077V19.8469H21.2093C22.5214 19.8469 23.5848 20.9104 23.5848 22.2225Z" fill="#F9C744"/>
<path d="M20.733 32.3244C20.3279 32.3244 19.9995 31.9959 19.9995 31.5909V22.8922C19.9995 22.487 20.3279 22.1587 20.733 22.1587C21.1382 22.1587 21.4665 22.4871 21.4665 22.8922V31.5909C21.4666 31.996 21.1382 32.3244 20.733 32.3244Z" fill="#FAD98F"/>
<path d="M23.3649 30.2236C22.9379 31.7594 21.6426 33.807 19.9999 33.8077C18.4555 33.8077 17.139 31.9714 16.6343 30.2236H23.3649Z" fill="#3E4E60"/>
<path d="M16.4141 27.1934H23.5847V28.8098H16.4141V27.1934Z" fill="#3E4E60"/>
<path d="M16.4141 25.1162H23.5847V26.1778H16.4141V25.1162Z" fill="#3E4E60"/>
<path d="M16.4141 23.6121H23.5847V24.4069H16.4141V23.6121Z" fill="#3E4E60"/>
<path d="M19.9995 30.2235V33.8079C21.6429 33.8066 22.9374 31.7601 23.3644 30.2235H19.9995ZM19.9995 27.1938V28.8102H23.5847V27.1938H19.9995ZM19.9995 25.1165V26.1782H23.5847V25.1165H19.9995ZM19.9995 23.6118V24.4071H23.5847V23.6118H19.9995Z" fill="#3F5D77"/>
<path d="M19.9995 23.6118H21.4659V24.4071H19.9995V23.6118Z" fill="#3F6C8E"/>
<path d="M19.9995 25.1165H21.4659V26.1782H19.9995V25.1165Z" fill="#3F6C8E"/>
<path d="M19.9995 27.1938H21.4659V28.8103H19.9995V27.1938Z" fill="#3F6C8E"/>
<path d="M19.9995 30.2234H21.4659V31.5906C21.4659 31.996 21.1378 32.3242 20.7331 32.3242C20.3276 32.3242 19.9995 31.996 19.9995 31.5906V30.2234Z" fill="#3F6C8E"/>
<path d="M23.1991 15.3308V17.4154C23.1991 18.7588 22.1099 19.848 20.766 19.848H19.2339C17.89 19.848 16.8008 18.7588 16.8008 17.4154V15.3308C16.8008 13.9869 17.89 12.8977 19.2339 12.8977H20.766C22.1098 12.8977 23.1991 13.987 23.1991 15.3308Z" fill="#B26E2B"/>
<path d="M23.1987 15.3299V17.4145C23.1987 18.7579 22.1095 19.8471 20.7656 19.8471H19.9995V12.8967H20.7656C22.1094 12.8968 23.1987 13.9861 23.1987 15.3299Z" fill="#C68132"/>
<path d="M21.8114 15.5966V17.1478C21.8114 18.1474 21.1946 18.9579 20.4337 18.9579H19.5662C18.8053 18.9579 18.1885 18.1474 18.1885 17.1478V15.5966C18.1885 14.5966 18.8053 13.7861 19.5662 13.7861H20.4337C21.1946 13.7861 21.8114 14.5966 21.8114 15.5966Z" fill="#3E4E60"/>
<path d="M21.811 15.5966V17.1478C21.811 18.1474 21.1942 18.9579 20.4333 18.9579H19.9995V13.7861H20.4333C21.1942 13.7861 21.811 14.5966 21.811 15.5966Z" fill="#3F5D77"/>
<path d="M23.1992 10.5192V11.0887C23.1992 12.0869 22.3894 12.8967 21.3912 12.8967H18.6088C17.6106 12.8967 16.8008 12.0869 16.8008 11.0887V10.5192C16.8008 9.52103 17.6106 8.71118 18.6088 8.71118H21.3912C22.3894 8.71118 23.1992 9.52103 23.1992 10.5192Z" fill="#334353"/>
<path d="M23.1992 10.5192V11.0886C23.1992 12.0868 22.3894 12.8967 21.3912 12.8967H20V8.71118H21.3912C22.3894 8.7111 23.1992 9.52095 23.1992 10.5192Z" fill="#3E4E60"/>
<path d="M23.1993 7.45063C23.1993 7.57243 23.1528 7.69485 23.0593 7.78774L21.2387 9.60899C20.8439 9.99563 20.2208 9.51665 20.4853 9.03837C20.506 9.00134 20.5325 8.96618 20.5638 8.93415L22.3844 7.1129C22.6736 6.81251 23.2083 7.03509 23.1993 7.45063Z" fill="#3F5D77"/>
<path d="M23.1378 7.21703C23.1171 7.25406 23.0907 7.28921 23.0593 7.32062L21.2387 9.14187C21.022 9.36546 20.6332 9.31062 20.4854 9.03828C20.5061 9.00125 20.5325 8.96609 20.5638 8.93406L22.3844 7.11281C22.6003 6.89023 22.9914 6.94398 23.1378 7.21703Z" fill="#3F6C8E"/>
<path d="M19.4364 9.60888C19.2505 9.79536 18.948 9.79536 18.7616 9.60888L16.9409 7.78763C16.7526 7.60153 16.7582 7.2931 16.9409 7.11278C17.1277 6.92685 17.4297 6.927 17.6158 7.11278L19.4364 8.93403C19.6186 9.11505 19.6252 9.422 19.4364 9.60888Z" fill="#3E4E60"/>
<path d="M19.5147 9.03816C19.3667 9.31043 18.9782 9.36543 18.7614 9.14176L16.9407 7.32059C16.9093 7.28918 16.883 7.25402 16.8623 7.21699C17.0089 6.94395 17.4 6.89027 17.6157 7.11277L19.4363 8.93394C19.4677 8.96597 19.494 9.00113 19.5147 9.03816Z" fill="#3F5D77"/>
<path d="M23.6478 11.0692C23.6522 11.3051 23.6534 11.5856 23.5454 11.7943C23.3652 12.1924 22.9647 12.4692 22.4995 12.4692H22.2478C21.6138 12.4692 21.0996 11.955 21.0996 11.321V11.0692C21.097 10.4298 21.6284 9.91736 22.2478 9.92166H22.4995C23.1335 9.92166 23.6478 10.4352 23.6478 11.0692Z" fill="#3F5D77"/>
<path d="M23.6476 11.0692C23.6531 11.3052 23.6525 11.5854 23.5452 11.7943C23.352 11.882 23.0888 11.8762 22.8754 11.8734C22.2413 11.8734 21.7272 11.3593 21.7272 10.7252C21.7223 10.4899 21.7219 10.2086 21.8295 10.0002C22.0231 9.91368 22.2859 9.91868 22.4994 9.92173C23.1334 9.92165 23.6476 10.4352 23.6476 11.0692Z" fill="#3F6C8E"/>
<path d="M23.3072 11.2021C23.1701 11.3392 22.9479 11.3392 22.8108 11.2021L22.3876 10.7789C22.0685 10.4433 22.5483 9.96316 22.8841 10.2824L23.3073 10.7056C23.4443 10.8427 23.4443 11.065 23.3072 11.2021Z" fill="#CDE6F6"/>
<path d="M18.9002 11.0692V11.321C18.9002 11.955 18.386 12.4692 17.752 12.4692H17.5003C16.8608 12.4712 16.3489 11.9414 16.3521 11.321V11.0692C16.3521 10.4352 16.8662 9.92166 17.5003 9.92166H17.752C18.3714 9.91744 18.9028 10.4298 18.9002 11.0692Z" fill="#3E4E60"/>
<path d="M18.2722 10.4736V10.7254C18.2722 11.3594 17.7581 11.8736 17.124 11.8736C16.9104 11.8761 16.6478 11.8822 16.4542 11.7944C16.3467 11.5862 16.3466 11.3047 16.3518 11.0693C16.3518 10.4353 16.866 9.92177 17.5 9.92177C17.7134 9.91934 17.9763 9.91333 18.1699 10.0002C18.2358 10.1447 18.2722 10.3047 18.2722 10.4736Z" fill="#3F5D77"/>
<path d="M16.6922 11.202C16.5551 11.0649 16.5551 10.8426 16.6922 10.7055L17.1154 10.2823C17.4509 9.96327 17.9311 10.4431 17.6119 10.7789L17.1887 11.2021C17.0516 11.3391 16.8293 11.3391 16.6922 11.202Z" fill="#83D5EF"/>
<path d="M36.8806 17.9305C36.8806 18.6883 36.4165 19.404 35.6431 19.7633L34.0509 20.5024C32.0399 21.436 29.7063 21.5844 27.5845 20.9329C27.4331 20.9144 22.5721 19.0159 22.2634 18.9C21.4701 18.5817 21.6935 17.539 22.5251 17.4844C23.0623 17.4496 28.3378 17.106 28.6923 17.0836C29.9225 17.0504 32.7853 16.2118 34.0118 15.9415C35.4124 15.5896 36.8764 16.5411 36.8806 17.9305Z" fill="#CDE6F6"/>
<path d="M31.1298 25.0095C28.9052 26.3167 26.2221 25.8566 24.1939 24.4501C23.4642 23.9423 22.8603 23.3173 22.422 22.6048L20.8431 20.0392C20.7158 19.8329 20.7611 19.5806 20.9564 19.404C21.167 19.2128 21.5057 19.156 21.7767 19.2579L27.6306 21.4235L30.9056 22.6353C32.0783 23.0689 32.2017 24.379 31.1298 25.0095Z" fill="#CDE6F6"/>
<path d="M31.1296 25.0095C30.4718 25.3962 29.7226 25.6431 28.9499 25.74C28.2632 24.422 27.8062 22.965 27.6304 21.4236L30.9054 22.6353C32.078 23.0689 32.2015 24.3791 31.1296 25.0095Z" fill="white"/>
<path d="M36.8805 17.9305C36.8805 18.6884 36.4164 19.404 35.643 19.7634L34.0508 20.5024C32.0398 21.436 29.7062 21.5845 27.5844 20.9329C27.4883 19.6669 27.5944 18.3423 27.8812 17.136C28.7317 17.0902 29.6499 17.0241 30.4703 16.8102L34.0117 15.9415C35.4123 15.5895 36.8763 16.5412 36.8805 17.9305Z" fill="white"/>
<path d="M17.7367 18.9C17.4064 19.0183 12.583 20.9156 12.4156 20.9328C10.2937 21.5844 7.96011 21.4359 5.94917 20.5023L4.35698 19.7633C3.40292 19.3186 2.91745 18.3366 3.19917 17.3906C3.5273 16.2929 4.77652 15.6437 5.98823 15.9414L9.52964 16.8101C10.3475 17.0232 11.2715 17.0908 12.1187 17.1359L17.475 17.4844C18.3007 17.5372 18.5348 18.5794 17.7367 18.9Z" fill="#83D5EF"/>
<path d="M19.1566 20.039L17.5777 22.6046C17.1394 23.3171 16.5355 23.9421 15.8058 24.45C14.6959 25.2156 13.2165 25.7925 11.8019 25.7875C10.7811 25.7881 9.7402 25.5223 8.86988 25.0093C7.79801 24.3789 7.92145 23.0687 9.0941 22.6351C11.115 21.8872 16.1463 20.026 18.223 19.2578C18.7098 19.0512 19.4682 19.4878 19.1566 20.039Z" fill="#83D5EF"/>
<path d="M9.09459 22.6351L12.3696 21.4233C12.1938 22.9647 11.7368 24.4218 11.0501 25.7397C10.2774 25.6429 9.52818 25.396 8.87037 25.0093C7.7985 24.3788 7.92193 23.0687 9.09459 22.6351Z" fill="#CDE6F6"/>
<path d="M12.4501 20.0003C12.4501 20.3144 12.4384 20.6253 12.4157 20.9331C10.2939 21.5847 7.96026 21.4362 5.94932 20.5026L4.35713 19.7636C3.58369 19.4042 3.11963 18.6886 3.11963 17.9308C3.12408 16.5415 4.58752 15.5898 5.98838 15.9417L9.52979 16.8104C10.3492 17.0236 11.2706 17.091 12.1189 17.1362C12.3353 18.0558 12.4501 19.0151 12.4501 20.0003Z" fill="#CDE6F6"/>
</svg>
