<svg width="40" height="40" viewBox="0 0 40 40" fill="none" xmlns="http://www.w3.org/2000/svg">
<path d="M20 40C31.0457 40 40 31.0457 40 20C40 8.9543 31.0457 0 20 0C8.9543 0 0 8.9543 0 20C0 31.0457 8.9543 40 20 40Z" fill="#53B976"/>
<path d="M21.2606 28.867L20.209 38.7374C20.1887 38.9233 20.0942 39.017 19.9997 39.017C19.9051 39.017 19.8106 38.9233 19.7903 38.7374L18.7387 28.867C18.5942 27.5147 19.1989 26.2678 19.9997 26.2678C20.8004 26.2678 21.4051 27.5147 21.2606 28.867Z" fill="#B26E2B"/>
<path d="M21.2609 28.867L20.2094 38.7374C20.1891 38.9233 20.0945 39.017 20 39.017V26.2678C20.8008 26.2678 21.4055 27.5147 21.2609 28.867Z" fill="#C68132"/>
<path d="M26.6362 24.4663L25.2385 28.6288C24.9565 29.4679 23.8651 29.6749 23.2956 28.9968L22.4604 28.0022L21.6471 27.0327C21.2167 26.521 20.6081 26.2655 19.9995 26.2655C19.3909 26.2655 18.7823 26.521 18.3518 27.0327L16.7034 28.9968C16.1339 29.6749 15.0425 29.4679 14.7604 28.6288L13.3628 24.4663C12.8503 22.9397 13.2464 21.2538 14.3854 20.1147L16.0096 18.4897H23.9893L25.6135 20.1147C26.7526 21.2538 27.1487 22.9397 26.6362 24.4663Z" fill="#B26E2B"/>
<path d="M26.6367 24.4663L25.2391 28.6288C24.957 29.4679 23.8656 29.6749 23.2961 28.9968L22.4609 28.0022L21.6477 27.0327C21.2172 26.521 20.6086 26.2655 20 26.2655V18.4897H23.9898L25.6141 20.1147C26.7531 21.2538 27.1492 22.9397 26.6367 24.4663Z" fill="#C68132"/>
<path d="M23.989 18.4897L20.5843 25.1249C20.4616 25.3632 20.2304 25.4827 19.9991 25.4827C19.7679 25.4827 19.5366 25.3632 19.414 25.1249L16.0093 18.4897H23.989Z" fill="#C68132"/>
<path d="M23.9889 18.4897L20.5842 25.1249C20.4615 25.3632 20.2303 25.4827 19.999 25.4827V18.4897H23.9889Z" fill="#DD8C29"/>
<path d="M26.6359 24.4662L25.2382 28.6287C24.9562 29.4678 23.8648 29.6748 23.2952 28.9967C22.781 28.3844 22.6453 27.5388 22.9421 26.7963L24.7288 22.3271C25.1427 21.2915 26.6792 21.468 26.8217 22.5742C26.9024 23.1996 26.8441 23.8461 26.6359 24.4662Z" fill="#DD8C29"/>
<path d="M13.3628 24.4662L14.7604 28.6287C15.0425 29.4678 16.1339 29.6748 16.7034 28.9967C17.2176 28.3844 17.3533 27.5388 17.0565 26.7963L15.2699 22.3271C14.8559 21.2915 13.3195 21.468 13.1769 22.5742C13.0963 23.1996 13.1546 23.8461 13.3628 24.4662Z" fill="#C68132"/>
<path d="M21.6403 18.4897V22.055C21.6403 22.5079 21.2731 22.8751 20.8202 22.8751C20.3672 22.8751 20 22.5079 20 22.055V18.4897H21.6403Z" fill="#F9C744"/>
<path d="M20.8202 18.8457C20.3672 18.8457 20 19.2129 20 19.6659V20.8398C20 21.2928 20.3672 21.66 20.8202 21.66C21.2731 21.66 21.6403 21.2928 21.6403 20.8398V19.6659C21.6402 19.2129 21.273 18.8457 20.8202 18.8457Z" fill="white"/>
<path d="M24.5954 17.8845C24.5954 18.2189 24.3243 18.49 23.9899 18.49H16.0103C15.8431 18.49 15.6915 18.422 15.5821 18.3126C15.4728 18.2033 15.4048 18.0517 15.4048 17.8845C15.4048 17.5501 15.6759 17.2791 16.0103 17.2791H23.9899C24.1571 17.2791 24.3087 17.347 24.4181 17.4564C24.5274 17.5658 24.5954 17.7173 24.5954 17.8845Z" fill="#F9C744"/>
<path d="M24.5953 17.8845C24.5953 18.2189 24.3242 18.49 23.9898 18.49H20V17.2791H23.9898C24.157 17.2791 24.3086 17.347 24.418 17.4564C24.5273 17.5658 24.5953 17.7173 24.5953 17.8845Z" fill="#FAD98F"/>
<path d="M31.4648 13.6267V21.4689C31.4648 22.5548 30.0563 22.9814 29.4539 22.0783L27.5133 19.1712C27.175 18.6642 26.7375 18.2439 26.2359 17.9306C25.568 17.5111 24.7867 17.2791 23.9742 17.2791H16.0258C15.2133 17.2791 14.432 17.5111 13.7641 17.9306C13.2625 18.2439 12.825 18.6642 12.4867 19.1712L10.5461 22.0783C9.94375 22.9814 8.53516 22.5548 8.53516 21.4689V13.6267C8.53516 7.29468 13.668 2.16187 20 2.16187C26.332 2.16187 31.4648 7.29468 31.4648 13.6267Z" fill="#B26E2B"/>
<path d="M31.4648 13.6267V21.4689C31.4648 22.2048 30.818 22.6376 30.2133 22.5595C29.9266 22.5228 29.6477 22.3697 29.4539 22.0783L28.5734 20.7595L27.5133 19.1712C26.7242 17.9892 25.3961 17.2791 23.9742 17.2791H20V2.16187C26.332 2.16187 31.4648 7.29468 31.4648 13.6267Z" fill="#C68132"/>
<path d="M26.236 11.7821V17.9306C25.5681 17.511 24.7868 17.279 23.9743 17.279H16.0259C15.2134 17.279 14.4321 17.511 13.7642 17.9306V11.7821C13.7642 8.3376 16.5563 5.54541 20.0001 5.54541C23.4438 5.54541 26.236 8.3376 26.236 11.7821Z" fill="#C68132"/>
<path d="M26.2359 11.7821V17.9306C25.7406 17.6196 25.182 17.411 24.5953 17.3251C24.3914 17.2946 24.1836 17.279 23.9742 17.279H20V5.54541C23.4438 5.54541 26.2359 8.3376 26.2359 11.7821Z" fill="#DD8C29"/>
<path d="M21.3878 8.50098H20V17.2791H23.2805V10.3937C23.2805 9.3484 22.4331 8.50098 21.3878 8.50098Z" fill="#F39E22"/>
<path d="M18.6125 8.50098H20.0003V17.2791H16.7197V10.3937C16.7197 9.3484 17.5671 8.50098 18.6125 8.50098Z" fill="#DD8C29"/>
<path d="M20 17.2789V11.2137C20 10.7607 20.3672 10.3936 20.8202 10.3936C21.2731 10.3936 21.6403 10.7607 21.6403 11.2137V17.2789H20Z" fill="#F9C744"/>
<path d="M20.8202 15.7513C21.2731 15.7513 21.6403 15.3841 21.6403 14.9312V12.429C21.6403 11.9761 21.2731 11.6089 20.8202 11.6089C20.3672 11.6089 20 11.9761 20 12.429V14.9312C20 15.3841 20.3672 15.7513 20.8202 15.7513Z" fill="white"/>
<path d="M26.2358 12.429V17.9305C25.7405 17.6196 25.1819 17.411 24.5952 17.325V12.429C24.5952 11.9758 24.9624 11.6086 25.4155 11.6086C25.6421 11.6086 25.8468 11.7 25.9952 11.8485C26.1437 11.9969 26.2358 12.2024 26.2358 12.429Z" fill="#F39E22"/>
<path d="M25.4154 16.9666C25.8683 16.9666 26.2355 16.5995 26.2355 16.1465V13.6444C26.2355 13.1914 25.8683 12.8242 25.4154 12.8242C24.9624 12.8242 24.5952 13.1914 24.5952 13.6444V16.1465C24.5953 16.5995 24.9625 16.9666 25.4154 16.9666Z" fill="#F9C744"/>
<path d="M30.2131 11.2139V22.5594C29.9264 22.5227 29.6475 22.3696 29.4537 22.0782L28.5732 20.7594V11.2139C28.5732 10.9873 28.6654 10.7826 28.8131 10.6342C28.9615 10.4857 29.167 10.3936 29.3928 10.3936C29.8459 10.3936 30.2131 10.7607 30.2131 11.2139Z" fill="#DD8C29"/>
<path d="M29.3929 18.207C29.8459 18.207 30.2131 17.8398 30.2131 17.3868V12.5352C30.2131 12.0823 29.8459 11.7151 29.3929 11.7151C28.9399 11.7151 28.5728 12.0823 28.5728 12.5352V17.3868C28.5728 17.8398 28.94 18.207 29.3929 18.207Z" fill="#F39E22"/>
<path d="M9.78613 11.2139V22.5594C10.0729 22.5227 10.3518 22.3696 10.5455 22.0782L11.426 20.7594V11.2139C11.426 10.9873 11.3338 10.7826 11.1861 10.6342C11.0377 10.4857 10.8322 10.3936 10.6064 10.3936C10.1533 10.3936 9.78613 10.7607 9.78613 11.2139Z" fill="#C68132"/>
<path d="M10.6073 18.207C10.1543 18.207 9.78711 17.8398 9.78711 17.3868V12.5352C9.78711 12.0823 10.1543 11.7151 10.6073 11.7151C11.0602 11.7151 11.4274 12.0823 11.4274 12.5352V17.3868C11.4274 17.8398 11.0602 18.207 10.6073 18.207Z" fill="#DD8C29"/>
</svg>
