<svg width="40" height="40" viewBox="0 0 40 40" fill="none" xmlns="http://www.w3.org/2000/svg">
<path d="M40 20C40 31.0458 31.0458 40 20 40C8.95416 40 0 31.0458 0 20C0 8.95416 8.95416 0 20 0C31.0458 0 40 8.95416 40 20Z" fill="#27BA9E"/>
<path d="M26.1836 25.777V23.9811C26.1836 22.764 27.1705 21.7771 28.3879 21.7771V23.5731C28.3879 24.7904 27.4009 25.777 26.1836 25.777Z" fill="#151A1C"/>
<path d="M26.1836 28.9811V27.1855C26.1836 25.9681 27.1705 24.9812 28.3879 24.9812V26.7772C28.3879 27.9945 27.4009 28.9811 26.1836 28.9811Z" fill="#151A1C"/>
<path d="M26.1836 32.1853V30.3893C26.1836 29.172 27.1705 28.1851 28.3879 28.1851V29.981C28.3879 31.1984 27.4009 32.1853 26.1836 32.1853Z" fill="#151A1C"/>
<path d="M13.8161 25.777V23.9811C13.8161 22.764 12.8292 21.7771 11.6118 21.7771V23.5731C11.6118 24.7904 12.5988 25.777 13.8161 25.777Z" fill="#151A1C"/>
<path d="M13.8161 28.9811V27.1855C13.8161 25.9681 12.8292 24.9812 11.6118 24.9812V26.7772C11.6118 27.9945 12.5988 28.9811 13.8161 28.9811Z" fill="#151A1C"/>
<path d="M13.8161 32.1853V30.3893C13.8161 29.172 12.8292 28.1851 11.6118 28.1851V29.981C11.6118 31.1984 12.5988 32.1853 13.8161 32.1853Z" fill="#151A1C"/>
<path d="M29.8531 35.1234V37.4082C28.6785 38.0735 27.4303 38.6252 26.1226 39.0439C25.9871 39.0882 25.8516 39.1297 25.7143 39.1706C25.2059 39.3226 24.6883 39.4547 24.1634 39.5649C23.9333 39.6137 23.7023 39.6589 23.4694 39.6989C22.3421 39.8972 21.183 40.0001 20.0002 40.0001C18.8173 40.0001 17.658 39.8972 16.5306 39.6995C16.2981 39.6595 16.0671 39.6146 15.837 39.5658C15.2269 39.4367 14.6288 39.2798 14.041 39.097C14.0084 39.0864 13.9757 39.0766 13.9431 39.0662C13.9211 39.0595 13.8997 39.0522 13.8777 39.0449C12.5707 38.6262 11.3219 38.0744 10.147 37.4082V35.1234C10.147 32.3664 11.6475 29.9601 13.8777 28.6774C14.4826 28.3289 15.1406 28.0637 15.837 27.8971C16.205 27.8083 16.5837 27.7469 16.9716 27.7158C17.1724 27.6996 17.3748 27.6914 17.5798 27.6914H22.4196C22.9918 27.6914 23.5488 27.7552 24.0834 27.8776C24.1103 27.884 24.1371 27.8898 24.1634 27.8962C24.8598 28.0637 25.5178 28.3289 26.1226 28.6774C28.3519 29.9607 29.8531 32.3673 29.8531 35.1234Z" fill="#0C85A5"/>
<path d="M29.8534 35.1234V37.4082C27.0861 38.9786 23.9064 39.9076 20.5172 39.9933C20.345 39.9976 20.1735 40.0001 20.0005 40.0001C19.8275 40.0001 19.655 39.9976 19.4838 39.9927C17.5563 39.9445 15.6975 39.6229 13.9434 39.0662V35.1234C13.9434 31.0187 17.2713 27.6914 21.3768 27.6914H22.4199C26.5261 27.6914 29.8534 31.0187 29.8534 35.1234Z" fill="#1DA2DD"/>
<path d="M19.9993 30.734L16.6533 32.5934L15.6353 27.8589L17.7144 26.6343" fill="#C1DCE5"/>
<path d="M19.9995 30.734L23.3455 32.5934L24.3635 27.8589L22.2844 26.6343" fill="#C1DCE5"/>
<path d="M22.6518 24.8281V28.0825C22.6518 29.2739 21.8663 30.281 20.7841 30.6155C20.5366 30.6921 20.2726 30.7339 19.9995 30.7339C18.5353 30.7339 17.3481 29.5468 17.3481 28.0825V24.8281H22.6518Z" fill="#EAA27F"/>
<path d="M22.6519 27.8762V28.0825C22.6519 29.2739 21.8663 30.281 20.7842 30.6155C19.8079 30.3152 19.074 29.4665 18.9385 28.4277C19.1155 28.4387 19.2937 28.4442 19.4725 28.4442C19.9742 28.4442 20.4662 28.4042 20.9453 28.3254C21.5355 28.2308 22.1059 28.0789 22.6519 27.8762Z" fill="#F6BA97"/>
<path d="M12.6058 19.4946C12.6058 20.7224 11.7092 21.7401 10.5349 21.929C10.4064 21.9501 10.2745 21.9608 10.1396 21.9608C8.77765 21.9608 7.67383 20.8569 7.67383 19.4946C7.67383 18.1326 8.77765 17.0288 10.1396 17.0288C10.2745 17.0288 10.4064 17.0395 10.5349 17.0605C11.7092 17.2495 12.6058 18.2672 12.6058 19.4946Z" fill="#F6BA97"/>
<path d="M12.6061 19.4946C12.6061 20.7224 11.7095 21.7401 10.5352 21.929C10.3218 21.1536 10.208 20.3372 10.208 19.4946C10.208 18.6523 10.3218 17.836 10.5352 17.0605C11.7095 17.2495 12.6061 18.2672 12.6061 19.4946Z" fill="#EAA27F"/>
<path d="M11.0213 19.4946C11.0213 19.9817 10.6267 20.3763 10.1396 20.3763C9.65289 20.3763 9.2583 19.9817 9.2583 19.4946C9.2583 19.0079 9.65289 18.6133 10.1396 18.6133C10.6267 18.6133 11.0213 19.0079 11.0213 19.4946Z" fill="#EAA27F"/>
<path d="M27.3936 19.4946C27.3936 20.7224 28.2902 21.7401 29.4645 21.929C29.593 21.9501 29.7248 21.9608 29.8597 21.9608C31.222 21.9608 32.3255 20.8569 32.3255 19.4946C32.3255 18.1326 31.222 17.0288 29.8597 17.0288C29.7248 17.0288 29.593 17.0395 29.4645 17.0605C28.2902 17.2495 27.3936 18.2672 27.3936 19.4946Z" fill="#F6BA97"/>
<path d="M27.3936 19.4946C27.3936 20.7224 28.2902 21.7401 29.4645 21.929C29.6778 21.1536 29.7919 20.3372 29.7919 19.4946C29.7919 18.6523 29.6781 17.836 29.4645 17.0605C28.2902 17.2495 27.3936 18.2672 27.3936 19.4946Z" fill="#EAA27F"/>
<path d="M30.7412 19.4946C30.7412 19.9817 30.3466 20.3763 29.8599 20.3763C29.3731 20.3763 28.9785 19.9817 28.9785 19.4946C28.9785 19.0079 29.3731 18.6133 29.8599 18.6133C30.3466 18.6133 30.7412 19.0079 30.7412 19.4946Z" fill="#EAA27F"/>
<path d="M29.1749 14.6906V18.1845C29.1749 22.7502 25.8397 26.5378 21.4723 27.2406C21.4576 27.243 21.4421 27.2455 21.4274 27.2482C20.963 27.3224 20.486 27.359 19.9995 27.359C14.9327 27.359 10.8247 23.2513 10.8247 18.1845V14.6906C10.8247 13.6237 11.0069 12.5983 11.3432 11.6455C12.5978 8.07495 16.0005 5.51514 19.9995 5.51514H20.0004C20.486 5.51514 20.9636 5.55267 21.429 5.62592C25.8174 6.31165 29.1749 10.1093 29.1749 14.6906Z" fill="#EAA27F"/>
<path d="M29.175 14.6906V18.1846C29.175 18.9396 29.0837 19.6741 28.9113 20.3763C28.5979 21.6538 28.0175 22.826 27.2313 23.8309V23.8318C25.8379 25.6132 23.8021 26.8653 21.4724 27.2407C21.4577 27.2431 21.4421 27.2455 21.4275 27.2483C17.0388 26.5626 13.6821 22.765 13.6821 18.1846V14.6906C13.6821 10.1093 17.0397 6.31171 21.429 5.62598C25.2852 6.2287 28.3458 9.23438 29.0316 13.0637C29.1262 13.5917 29.175 14.1355 29.175 14.6906Z" fill="#F6BA97"/>
<path d="M26.2448 20.5933C26.2448 21.2247 25.733 21.7362 25.1019 21.7362C24.4708 21.7362 23.959 21.2247 23.959 20.5933C23.959 19.9622 24.4708 19.4504 25.1019 19.4504C25.733 19.4504 26.2448 19.9622 26.2448 20.5933Z" fill="#EAA27F"/>
<path d="M16.0406 20.5933C16.0406 21.2247 15.5289 21.7362 14.8978 21.7362C14.2667 21.7362 13.7549 21.2247 13.7549 20.5933C13.7549 19.9622 14.2667 19.4504 14.8978 19.4504C15.5289 19.4504 16.0406 19.9622 16.0406 20.5933Z" fill="#EAA27F"/>
<path d="M24.9272 17.4098C24.9272 16.5681 24.2448 15.8857 23.4034 15.8857C22.5618 15.8857 21.8794 16.5681 21.8794 17.4098" fill="#EAA27F"/>
<path d="M18.121 17.4098C18.121 16.5681 17.4387 15.8857 16.5973 15.8857C15.7556 15.8857 15.0732 16.5681 15.0732 17.4098" fill="#EAA27F"/>
<path d="M17.6378 18.0582C17.6378 18.6332 17.1718 19.0992 16.5971 19.0992C16.0222 19.0992 15.5562 18.6332 15.5562 18.0582C15.5562 17.4836 16.0222 17.0176 16.5971 17.0176C17.1718 17.0176 17.6378 17.4836 17.6378 18.0582Z" fill="#2F373B"/>
<path d="M24.4439 18.0582C24.4439 18.6332 23.9779 19.0992 23.4033 19.0992C22.8283 19.0992 22.3623 18.6332 22.3623 18.0582C22.3623 17.4836 22.8283 17.0176 23.4033 17.0176C23.9779 17.0176 24.4439 17.4836 24.4439 18.0582Z" fill="#2F373B"/>
<path d="M21.0408 20.6786H18.9592C18.7111 20.6786 18.5103 20.4778 18.5103 20.2297C18.5103 19.9819 18.7111 19.7808 18.9592 19.7808H21.0408C21.2889 19.7808 21.4897 19.9819 21.4897 20.2297C21.4897 20.4778 21.2889 20.6786 21.0408 20.6786Z" fill="#EAA27F"/>
<path d="M19.9999 23.5194C19.2314 23.5194 18.4633 23.3271 17.7629 22.942C17.5655 22.8333 17.4932 22.5852 17.6018 22.3878C17.7105 22.1903 17.9586 22.1183 18.156 22.2266C19.3105 22.8614 20.689 22.8614 21.8434 22.2266C22.0409 22.118 22.289 22.19 22.3976 22.3878C22.5063 22.5852 22.4343 22.8333 22.2365 22.942C21.5364 23.3271 20.768 23.5194 19.9999 23.5194Z" fill="#EAA27F"/>
<path d="M17.4257 17.8749C17.4257 18.1212 17.2258 18.3207 16.9796 18.3207C16.7333 18.3207 16.5337 18.1212 16.5337 17.8749C16.5337 17.6283 16.7333 17.4287 16.9796 17.4287C17.2258 17.4287 17.4257 17.6283 17.4257 17.8749Z" fill="white"/>
<path d="M24.2828 17.8749C24.2828 18.1212 24.0833 18.3207 23.837 18.3207C23.5907 18.3207 23.3911 18.1212 23.3911 17.8749C23.3911 17.6283 23.5907 17.4287 23.837 17.4287C24.0833 17.4287 24.2828 17.6283 24.2828 17.8749Z" fill="white"/>
<path d="M21.4287 4.80951C20.9633 4.73627 20.4857 4.69873 20.0002 4.69873C19.5143 4.69873 19.0367 4.73627 18.5717 4.80951C14.1829 5.49524 9.87109 7.99738 9.87109 12.8015C9.87109 17.6055 10.8254 18.1844 10.8254 18.1844C10.8254 18.1844 18.3675 13.1646 20.0002 9.75977C21.6329 13.1646 29.1747 18.1844 29.1747 18.1844C29.1747 18.1844 30.129 17.6055 30.129 12.8015C30.129 7.99738 25.8171 5.49524 21.4287 4.80951Z" fill="#2F373B"/>
<path d="M20.0002 4.69873C19.7618 4.69873 19.5266 4.73627 19.298 4.80951C17.1404 5.49524 15.0206 7.99738 15.0206 12.8015C15.0206 13.6807 15.0359 14.4186 15.0621 15.0375C12.8713 16.8228 10.8254 18.1844 10.8254 18.1844C10.8254 18.1844 9.87109 17.6055 9.87109 12.8015C9.87109 7.99738 14.1829 5.49524 18.5717 4.80951C19.0367 4.73627 19.5143 4.69873 20.0002 4.69873Z" fill="#151A1C"/>
<path d="M19.9989 4.69849C19.9403 4.69849 19.882 4.70062 19.8237 4.70184C19.8817 4.69971 19.94 4.69849 19.9989 4.69849Z" fill="#151A1C"/>
</svg>
