<svg width="40" height="40" viewBox="0 0 40 40" fill="none" xmlns="http://www.w3.org/2000/svg">
<path d="M40 20C40 31.0455 31.0455 40 20 40C8.95416 40 0 31.0455 0 20C0 8.95416 8.95416 0 20 0C31.0455 0 40 8.95416 40 20Z" fill="#2F373B"/>
<path d="M29.8531 35.1234V37.4082C26.9451 39.058 23.5826 40.0001 19.9999 40.0001C17.8881 40.0001 15.8538 39.6726 13.9427 39.0662C12.6122 38.6442 11.3411 38.0857 10.147 37.4082V35.1234C10.147 31.2238 13.1502 28.0247 16.9713 27.7161C17.1721 27.6996 17.3745 27.6914 17.5795 27.6914H22.4196C22.9918 27.6914 23.5485 27.7552 24.0831 27.8776C27.3876 28.6335 29.8531 31.5912 29.8531 35.1234Z" fill="#D65A05"/>
<path d="M29.8529 35.1234V37.4082C28.0774 38.4156 26.1331 39.1593 24.0717 39.5844C22.9175 39.8237 21.7264 39.9631 20.5084 39.9933C20.3397 39.9976 20.1697 40.0001 20 40.0001C17.8882 40.0001 15.8539 39.6726 13.9429 39.0662V35.1234C13.9429 34.5966 13.9975 34.0824 14.1019 33.5868C14.3143 32.5748 14.733 31.6392 15.3119 30.8243C16.6586 28.9283 18.8733 27.6914 21.3763 27.6914H22.4194C26.5256 27.6914 29.8529 31.0187 29.8529 35.1234Z" fill="#F46D11"/>
<path d="M22.6513 24.8281V28.0825C22.6513 29.2739 21.8658 30.281 20.7836 30.6155C20.5361 30.6921 20.2722 30.7339 19.999 30.7339C18.5348 30.7339 17.3477 29.5468 17.3477 28.0825V24.8281H22.6513Z" fill="#EAA27F"/>
<path d="M22.6514 27.8762V28.0825C22.6514 29.2739 21.8658 30.281 20.7837 30.6155C19.8074 30.3152 19.0735 29.4665 18.938 28.4277C19.115 28.4387 19.2932 28.4442 19.472 28.4442C19.9738 28.4442 20.4657 28.4042 20.9448 28.3257C21.535 28.2308 22.1054 28.0789 22.6514 27.8762Z" fill="#F6BA97"/>
<path d="M12.7254 19.4949C12.7254 20.7224 11.8288 21.7404 10.6545 21.9293C10.5263 21.9501 10.3942 21.9608 10.2596 21.9608C8.89728 21.9608 7.79346 20.8572 7.79346 19.4949C7.79346 18.1326 8.89728 17.0288 10.2596 17.0288C10.3942 17.0288 10.5263 17.0395 10.6545 17.0605C11.8288 17.2495 12.7254 18.2672 12.7254 19.4949Z" fill="#F6BA97"/>
<path d="M12.7252 19.4949C12.7252 20.7224 11.8286 21.7404 10.6543 21.9293C10.441 21.1536 10.3271 20.3372 10.3271 19.4949C10.3271 18.6523 10.441 17.836 10.6543 17.0605C11.8286 17.2495 12.7252 18.2672 12.7252 19.4949Z" fill="#EAA27F"/>
<path d="M11.1406 19.4949C11.1406 19.9817 10.746 20.3763 10.2593 20.3763C9.77252 20.3763 9.37793 19.9817 9.37793 19.4949C9.37793 19.0082 9.77252 18.6133 10.2593 18.6133C10.746 18.6133 11.1406 19.0082 11.1406 19.4949Z" fill="#EAA27F"/>
<path d="M27.2734 19.4949C27.2734 20.7224 28.17 21.7404 29.3444 21.9293C29.4728 21.9501 29.6047 21.9608 29.7396 21.9608C31.1019 21.9608 32.2054 20.8572 32.2054 19.4949C32.2054 18.1326 31.1019 17.0288 29.7396 17.0288C29.6047 17.0288 29.4728 17.0395 29.3444 17.0605C28.17 17.2495 27.2734 18.2672 27.2734 19.4949Z" fill="#F6BA97"/>
<path d="M27.2734 19.4949C27.2734 20.7224 28.17 21.7404 29.3444 21.9293C29.5577 21.1536 29.6718 20.3372 29.6718 19.4949C29.6718 18.6523 29.558 17.836 29.3444 17.0605C28.17 17.2495 27.2734 18.2672 27.2734 19.4949Z" fill="#EAA27F"/>
<path d="M29.1746 14.6906V18.1845C29.1746 22.7502 25.8394 26.5378 21.472 27.2409C21.4573 27.2433 21.4418 27.2458 21.4271 27.2482C20.9626 27.3224 20.4857 27.359 19.9992 27.359C14.9324 27.359 10.8247 23.2513 10.8247 18.1845V14.6906C10.8247 13.6237 11.0066 12.5983 11.3429 11.6458C12.5978 8.07495 16.0002 5.51514 19.9992 5.51514H20.0001C20.4857 5.51514 20.9633 5.55267 21.4286 5.62622C25.8171 6.31195 29.1746 10.1093 29.1746 14.6906Z" fill="#EAA27F"/>
<path d="M30.6211 19.4949C30.6211 19.9817 30.2265 20.3763 29.7397 20.3763C29.253 20.3763 28.8584 19.9817 28.8584 19.4949C28.8584 19.0082 29.253 18.6133 29.7397 18.6133C30.2265 18.6133 30.6211 19.0082 30.6211 19.4949Z" fill="#EAA27F"/>
<path d="M29.1745 14.6906V18.1845C29.1745 22.7502 25.8392 26.5378 21.4719 27.2409C21.4572 27.2433 21.4417 27.2458 21.427 27.2482C17.0383 26.5625 13.6816 22.7649 13.6816 18.1845V14.6906C13.6816 10.1093 17.0392 6.31195 21.4285 5.62622C25.817 6.31195 29.1745 10.1093 29.1745 14.6906Z" fill="#F6BA97"/>
<path d="M19.9997 22.7035C19.2313 22.7035 18.4632 22.5109 17.7628 22.1261C17.5654 22.0174 17.4933 21.7693 17.6017 21.5716C17.7103 21.3741 17.9587 21.3021 18.1562 21.4107C19.3107 22.0452 20.6888 22.0452 21.8433 21.4107C22.0408 21.3021 22.2889 21.3741 22.3975 21.5716C22.5062 21.7693 22.4341 22.0174 22.2367 22.1261C21.5363 22.5109 20.7679 22.7035 19.9997 22.7035Z" fill="#EAA27F"/>
<path d="M21.0403 20.2706H18.9587C18.7109 20.2706 18.5098 20.0698 18.5098 19.8217C18.5098 19.5739 18.7109 19.3728 18.9587 19.3728H21.0403C21.2884 19.3728 21.4892 19.5739 21.4892 19.8217C21.4892 20.0698 21.2884 20.2706 21.0403 20.2706Z" fill="#EAA27F"/>
<path d="M18.0458 17.65C18.0458 18.225 17.5798 18.691 17.0048 18.691C16.4299 18.691 15.9639 18.225 15.9639 17.65C15.9639 17.0751 16.4299 16.6094 17.0048 16.6094C17.5798 16.6094 18.0458 17.0751 18.0458 17.65Z" fill="#2F373B"/>
<path d="M24.0352 17.65C24.0352 18.225 23.5692 18.691 22.9943 18.691C22.4193 18.691 21.9536 18.225 21.9536 17.65C21.9536 17.0751 22.4193 16.6094 22.9943 16.6094C23.5692 16.6094 24.0352 17.0751 24.0352 17.65Z" fill="#2F373B"/>
<path d="M17.8331 17.4664C17.8331 17.7126 17.6335 17.9125 17.3873 17.9125C17.141 17.9125 16.9414 17.7126 16.9414 17.4664C16.9414 17.2201 17.141 17.0205 17.3873 17.0205C17.6335 17.0205 17.8331 17.2201 17.8331 17.4664Z" fill="white"/>
<path d="M23.8745 17.4664C23.8745 17.7126 23.6749 17.9125 23.4286 17.9125C23.182 17.9125 22.9824 17.7126 22.9824 17.4664C22.9824 17.2201 23.182 17.0205 23.4286 17.0205C23.6749 17.0205 23.8745 17.2201 23.8745 17.4664Z" fill="white"/>
<path d="M31.0354 12.4211C31.5856 14.1819 30.7995 16.0865 29.1751 16.96C28.1176 13.6955 25.7937 11.92 23.7341 10.9608C21.6738 10.0016 19.8779 9.85883 19.8779 9.85883C21.1431 11.1241 20.7235 12.6326 20.7235 12.6326C19.3807 11.7567 18.153 11.3508 17.1603 11.1812C15.6567 10.9239 14.6942 11.2056 14.6942 11.2056L15.3472 12.7568C12.7349 12.7568 10.6542 15.8357 10.6542 15.8357C8.19605 13.3772 9.2248 9.9812 9.2248 9.9812L10.531 10.6343C10.531 10.6343 9.91877 6.91998 11.9186 4.91986L13.388 5.65472C13.388 5.65472 14.1226 1.32825 19.2654 0.919922V3.53223C19.2654 3.53223 21.8777 0.919922 27.8369 2.22607L25.7962 4.59332C25.7962 4.59332 30.0411 4.91986 31.4288 9.49139H29.3881C29.3881 9.49139 30.4687 10.6065 31.0354 12.4211Z" fill="#F73B6C"/>
<path d="M27.8371 2.22583C22.6128 2.22583 21.429 4.40143 21.429 4.40143L19.2656 3.53198C19.2656 3.53198 21.8779 0.919678 27.8371 2.22583Z" fill="#DD104F"/>
<path d="M17.1603 11.1812C15.6567 10.9239 14.6942 11.2056 14.6942 11.2056L15.3472 12.7568C12.7349 12.7568 10.6542 15.8357 10.6542 15.8357C8.19605 13.3772 9.2248 9.9812 9.2248 9.9812L10.531 10.6343C10.531 10.6343 9.91877 6.91998 11.9186 4.91986L13.388 5.65472C13.388 5.65472 14.1226 1.32825 19.2654 0.919922C16.5716 2.71588 16.5716 6.14453 16.5716 6.14453L19.6737 5.32819C19.6737 5.32819 13.4796 8.82764 17.1603 11.1812Z" fill="#DD104F"/>
<path d="M10.6543 15.8355L10.8478 18.84L11.8741 17.814L11.6739 13.6953" fill="#DD104F"/>
<path d="M29.337 15.8355L29.1432 18.84L28.1172 17.814L28.3174 13.6953" fill="#F73B6C"/>
</svg>
