<svg width="40" height="40" viewBox="0 0 40 40" fill="none" xmlns="http://www.w3.org/2000/svg">
<path d="M20 40C31.0457 40 40 31.0457 40 20C40 8.9543 31.0457 0 20 0C8.9543 0 0 8.9543 0 20C0 31.0457 8.9543 40 20 40Z" fill="#22BCE0"/>
<path d="M32.1226 28.9401V30.7577C32.1226 31.0433 32.0811 31.3197 32.0034 31.5803V31.5809C31.6488 32.768 30.5491 33.634 29.2462 33.634H10.7534C9.45039 33.634 8.35016 32.768 7.99609 31.5802C7.91844 31.3196 7.87695 31.0433 7.87695 30.7576V28.94C7.87695 28.4656 7.99148 28.0181 8.19477 27.624C8.48039 27.0699 8.94102 26.6204 9.50367 26.3486C9.88141 26.1664 10.3052 26.0637 10.7534 26.0637H29.2462C29.6087 26.0637 29.9555 26.1308 30.2747 26.2539C30.9373 26.5066 31.4823 26.9988 31.8047 27.624C32.008 28.0182 32.1226 28.4657 32.1226 28.9401Z" fill="#D48D77"/>
<path d="M31.8042 27.6231C30.925 30.4086 28.3197 32.4288 25.2433 32.4288H14.7552C12.8554 32.4288 11.1359 31.6589 9.89145 30.4138C9.11957 29.6426 8.53059 28.6891 8.19434 27.623C8.67207 26.6964 9.63879 26.0627 10.7529 26.0627H29.2457C30.3597 26.0628 31.3264 26.6965 31.8042 27.6231Z" fill="#EEA47D"/>
<path d="M30.0201 28.2666C30.0201 28.8076 29.5818 29.2458 29.0409 29.2458H10.9587C10.6882 29.2458 10.4435 29.1359 10.2664 28.959C10.0894 28.7819 9.97949 28.5372 9.97949 28.2667C9.97949 28.0449 10.0532 27.8403 10.1775 27.6758C10.3565 27.4395 10.6395 27.2869 10.9586 27.2869H29.0408C29.3021 27.2869 29.5396 27.3895 29.7146 27.5567C29.7212 27.5619 29.7271 27.5679 29.7331 27.5738C29.9102 27.7514 30.0201 27.9962 30.0201 28.2666Z" fill="#F5B890"/>
<path d="M19.9992 30.6877C19.1857 30.6877 18.5264 31.3471 18.5264 32.1606V33.6334H21.4719V32.1606C21.472 31.3472 20.8126 30.6877 19.9992 30.6877Z" fill="#FBD9A3"/>
<path d="M10.8219 32.1612V33.6339H10.7529C9.44991 33.6339 8.34967 32.7679 7.99561 31.5801C8.22131 31.0557 8.74248 30.6885 9.3492 30.6885C10.1626 30.6885 10.8219 31.3478 10.8219 32.1612Z" fill="#FBD9A3"/>
<path d="M12.8991 30.6877C12.0856 30.6877 11.4263 31.3471 11.4263 32.1606V33.6334H14.3718V32.1606C14.3718 31.3472 13.7124 30.6877 12.8991 30.6877Z" fill="#FBD9A3"/>
<path d="M16.4494 30.6877C15.6359 30.6877 14.9766 31.3471 14.9766 32.1606V33.6334H17.9221V32.1606C17.9221 31.3472 17.2627 30.6877 16.4494 30.6877Z" fill="#FBD9A3"/>
<path d="M23.549 30.6877C22.7356 30.6877 22.0762 31.3471 22.0762 32.1606V33.6334H25.0217V32.1606C25.0218 31.3472 24.3624 30.6877 23.549 30.6877Z" fill="#FBD9A3"/>
<path d="M27.0998 30.6877C26.2863 30.6877 25.627 31.3471 25.627 32.1606V33.6334H28.5725V32.1606C28.5725 31.3472 27.9131 30.6877 27.0998 30.6877Z" fill="#FBD9A3"/>
<path d="M32.0026 31.5792V31.5798C31.6479 32.767 30.5483 33.633 29.2453 33.633H29.1763V32.1602C29.1763 31.3469 29.8356 30.6875 30.649 30.6875C31.2557 30.6876 31.7769 31.0548 32.0026 31.5792Z" fill="#FBD9A3"/>
<path d="M21.4718 32.1602V32.4288H18.5264V32.1602C18.5264 31.3469 19.1857 30.6875 19.9991 30.6875C20.8124 30.6875 21.4718 31.3469 21.4718 32.1602Z" fill="#FBD9A3"/>
<path d="M14.3711 32.1603V32.4176C13.3465 32.3616 12.3825 32.0813 11.5264 31.6246C11.7403 31.0758 12.2739 30.6875 12.8984 30.6875C13.7118 30.6876 14.3711 31.347 14.3711 32.1603Z" fill="#FBD9A3"/>
<path d="M17.9211 32.1602V32.4288H14.9756V32.1602C14.9756 31.3469 15.635 30.6875 16.4483 30.6875C17.2617 30.6875 17.9211 31.3469 17.9211 32.1602Z" fill="#FBD9A3"/>
<path d="M25.0216 32.1602V32.4288H22.0762V32.1602C22.0762 31.3469 22.7355 30.6875 23.5489 30.6875C24.3623 30.6875 25.0216 31.3469 25.0216 32.1602Z" fill="#FBD9A3"/>
<path d="M28.4712 31.6252C27.6144 32.0813 26.6504 32.3616 25.6265 32.4182V32.1602C25.6265 31.3469 26.2858 30.6875 27.0992 30.6875C27.7237 30.6875 28.2574 31.0764 28.4712 31.6252Z" fill="#FBD9A3"/>
<path d="M14.3711 32.1603V32.4176C13.3465 32.3616 12.3825 32.0813 11.5264 31.6246C11.7403 31.0758 12.2739 30.6875 12.8984 30.6875C13.7118 30.6876 14.3711 31.347 14.3711 32.1603Z" fill="#FAEFDC"/>
<path d="M17.9211 32.1602V32.4288H14.9756V32.1602C14.9756 31.3469 15.635 30.6875 16.4483 30.6875C17.2617 30.6875 17.9211 31.3469 17.9211 32.1602Z" fill="#FAEFDC"/>
<path d="M21.4718 32.1602V32.4288H18.5264V32.1602C18.5264 31.3469 19.1857 30.6875 19.9991 30.6875C20.8124 30.6875 21.4718 31.3469 21.4718 32.1602Z" fill="#FAEFDC"/>
<path d="M25.0216 32.1602V32.4288H22.0762V32.1602C22.0762 31.3469 22.7355 30.6875 23.5489 30.6875C24.3623 30.6875 25.0216 31.3469 25.0216 32.1602Z" fill="#FAEFDC"/>
<path d="M28.4712 31.6252C27.6144 32.0813 26.6504 32.3616 25.6265 32.4182V32.1602C25.6265 31.3469 26.2858 30.6875 27.0992 30.6875C27.7237 30.6875 28.2574 31.0764 28.4712 31.6252Z" fill="#FAEFDC"/>
<path d="M10.8608 22.525V23.8951C10.8608 24.1104 10.8921 24.3188 10.9506 24.5152V24.5157C11.2179 25.4106 12.0469 26.0634 13.0291 26.0634H26.9697C27.9519 26.0634 28.7814 25.4106 29.0483 24.5152C29.1068 24.3187 29.138 24.1104 29.138 23.8951V22.525C29.138 22.1673 29.0517 21.83 28.8984 21.5329C28.6831 21.1152 28.3358 20.7764 27.9117 20.5715C27.6269 20.434 27.3075 20.3567 26.9697 20.3567H13.0291C12.7558 20.3567 12.4944 20.4073 12.2537 20.5C11.7542 20.6905 11.3434 21.0616 11.1004 21.5329C10.9472 21.83 10.8608 22.1673 10.8608 22.525Z" fill="#D48D77"/>
<path d="M11.1001 21.5319C11.7628 23.6317 13.7268 25.1547 16.046 25.1547H23.9524C25.3846 25.1547 26.6807 24.5743 27.6189 23.6357C28.2007 23.0543 28.6447 22.3355 28.8982 21.5319C28.5381 20.8334 27.8093 20.3557 26.9695 20.3557H13.0288C12.1889 20.3557 11.4603 20.8334 11.1001 21.5319Z" fill="#EEA47D"/>
<path d="M12.4458 22.017C12.4458 22.4247 12.7762 22.7551 13.1839 22.7551H26.815C27.0189 22.7551 27.2034 22.6723 27.3368 22.5389C27.4703 22.4054 27.5531 22.2209 27.5531 22.017C27.5531 21.8498 27.4975 21.6955 27.4038 21.5715C27.2689 21.3934 27.0556 21.2783 26.815 21.2783H13.1839C12.987 21.2783 12.8079 21.3557 12.676 21.4817C12.671 21.4857 12.6665 21.4901 12.6621 21.4946C12.5286 21.6286 12.4458 21.8132 12.4458 22.017Z" fill="#F5B890"/>
<path d="M19.9989 23.8423C20.6121 23.8423 21.1091 24.3394 21.1091 24.9525V26.0628H18.8887V24.9525C18.8887 24.3393 19.3857 23.8423 19.9989 23.8423Z" fill="#FBD9A3"/>
<path d="M26.9175 24.9524V26.0627H26.9696C27.9518 26.0627 28.7812 25.4099 29.0481 24.5145C28.8779 24.1191 28.4851 23.8423 28.0277 23.8423C27.4145 23.8422 26.9175 24.3392 26.9175 24.9524Z" fill="#FBD9A3"/>
<path d="M25.3514 23.8423C25.9646 23.8423 26.4617 24.3394 26.4617 24.9525V26.0628H24.2412V24.9525C24.2412 24.3393 24.7382 23.8423 25.3514 23.8423Z" fill="#FBD9A3"/>
<path d="M22.6752 23.8423C23.2884 23.8423 23.7854 24.3394 23.7854 24.9525V26.0628H21.5649V24.9525C21.5649 24.3393 22.0621 23.8423 22.6752 23.8423Z" fill="#FBD9A3"/>
<path d="M17.3226 23.8423C17.9358 23.8423 18.4329 24.3394 18.4329 24.9525V26.0628H16.2124V24.9525C16.2124 24.3393 16.7094 23.8423 17.3226 23.8423Z" fill="#FBD9A3"/>
<path d="M14.6469 23.8423C15.2601 23.8423 15.7571 24.3394 15.7571 24.9525V26.0628H13.5366V24.9525C13.5366 24.3393 14.0337 23.8423 14.6469 23.8423Z" fill="#FBD9A3"/>
<path d="M10.9502 24.5143V24.5148C11.2175 25.4097 12.0465 26.0625 13.0287 26.0625H13.0808V24.9523C13.0808 24.3392 12.5838 23.842 11.9706 23.842C11.5132 23.8421 11.1204 24.1189 10.9502 24.5143Z" fill="#FBD9A3"/>
<path d="M18.8887 24.9523V25.1547H21.1091V24.9523C21.1091 24.3392 20.612 23.842 19.9988 23.842C19.3858 23.842 18.8887 24.3391 18.8887 24.9523Z" fill="#FBD9A3"/>
<path d="M24.2412 24.9524V25.1464C25.0136 25.1042 25.7403 24.8929 26.3857 24.5487C26.2245 24.1349 25.8222 23.8423 25.3514 23.8423C24.7382 23.8422 24.2412 24.3392 24.2412 24.9524Z" fill="#FBD9A3"/>
<path d="M21.5649 24.9523V25.1547H23.7853V24.9523C23.7853 24.3392 23.2883 23.842 22.6751 23.842C22.062 23.842 21.5649 24.3391 21.5649 24.9523Z" fill="#FBD9A3"/>
<path d="M16.2119 24.9523V25.1547H18.4323V24.9523C18.4323 24.3392 17.9353 23.842 17.3221 23.842C16.7089 23.842 16.2119 24.3391 16.2119 24.9523Z" fill="#FBD9A3"/>
<path d="M13.6118 24.549C14.2577 24.8927 14.9845 25.1041 15.7563 25.1467V24.9523C15.7563 24.3392 15.2593 23.842 14.6461 23.842C14.1753 23.8421 13.773 24.1353 13.6118 24.549Z" fill="#FBD9A3"/>
<path d="M24.2412 24.9524V25.1464C25.0136 25.1042 25.7403 24.8929 26.3857 24.5487C26.2245 24.1349 25.8222 23.8423 25.3514 23.8423C24.7382 23.8422 24.2412 24.3392 24.2412 24.9524Z" fill="#FAEFDC"/>
<path d="M21.5649 24.9523V25.1547H23.7853V24.9523C23.7853 24.3392 23.2883 23.842 22.6751 23.842C22.062 23.842 21.5649 24.3391 21.5649 24.9523Z" fill="#FAEFDC"/>
<path d="M18.8887 24.9523V25.1547H21.1091V24.9523C21.1091 24.3392 20.612 23.842 19.9988 23.842C19.3858 23.842 18.8887 24.3391 18.8887 24.9523Z" fill="#FAEFDC"/>
<path d="M16.2119 24.9523V25.1547H18.4323V24.9523C18.4323 24.3392 17.9353 23.842 17.3221 23.842C16.7089 23.842 16.2119 24.3391 16.2119 24.9523Z" fill="#FAEFDC"/>
<path d="M13.6118 24.549C14.2577 24.8927 14.9845 25.1041 15.7563 25.1467V24.9523C15.7563 24.3392 15.2593 23.842 14.6461 23.842C14.1753 23.8421 13.773 24.1353 13.6118 24.549Z" fill="#FAEFDC"/>
<path d="M25.6908 13.7936V13.7943C25.6697 13.8459 25.6478 13.8975 25.626 13.949L22.8596 20.356H17.1393L14.3728 13.949C14.351 13.8975 14.3291 13.8459 14.308 13.7943V13.7936C13.5174 11.8264 13.726 9.57715 14.9346 7.82793C15.9971 6.28887 17.7338 5.22637 19.7986 5.1623C19.865 5.15996 19.9322 5.15918 19.9994 5.15918C20.0666 5.15918 20.1338 5.15996 20.2002 5.1623C22.265 5.22637 24.0017 6.28887 25.0643 7.82793C26.2728 9.57715 26.4814 11.8264 25.6908 13.7936Z" fill="#D48D77"/>
<path d="M25.6906 13.7936V13.7944C25.6695 13.846 25.6476 13.8976 25.6258 13.9491L22.8594 20.3561H17.1391L14.3726 13.9491C14.3508 13.8976 14.3289 13.846 14.3078 13.7944V13.7936C13.943 12.1796 14.2391 10.464 15.1953 9.07959C16.2031 7.62021 17.8508 6.6124 19.8086 6.55146C19.8719 6.54912 19.9351 6.54834 19.9992 6.54834C20.0633 6.54834 20.1266 6.54912 20.1898 6.55146C22.1476 6.6124 23.7953 7.62021 24.8031 9.07959C25.7594 10.464 26.0555 12.1796 25.6906 13.7936Z" fill="#FBD9A3"/>
<path d="M25.6914 13.7936V13.7943C25.6703 13.8459 25.6484 13.8975 25.6266 13.949L22.8602 20.356H20V5.15918C20.0672 5.15918 20.1344 5.15996 20.2008 5.1623C22.2656 5.22637 24.0023 6.28887 25.0648 7.82793C26.2734 9.57715 26.482 11.8264 25.6914 13.7936Z" fill="#EEA47D"/>
<path d="M25.6914 13.7936V13.7944C25.6703 13.846 25.6484 13.8976 25.6266 13.9491L22.8602 20.3561H20V6.54834C20.0641 6.54834 20.1273 6.54912 20.1906 6.55146C22.1484 6.6124 23.7961 7.62021 24.8039 9.07959C25.7602 10.464 26.0563 12.1796 25.6914 13.7936Z" fill="#FAEFDC"/>
<path d="M22.6199 15.0898L21.8652 20.3562H18.134L17.3793 15.0898C17.1059 13.1789 17.3277 11.2289 18.0231 9.42733L18.5246 8.13045C18.6395 7.83045 18.8395 7.58202 19.091 7.40624C19.9041 6.81499 21.1251 7.18061 21.4746 8.13045C22.4544 10.4352 22.9935 12.5708 22.6199 15.0898Z" fill="#F9C744"/>
<path d="M22.6198 15.0898L21.8651 20.3562H19.9995V7.11865C20.6527 7.11889 21.2404 7.52045 21.4745 8.13037L21.9761 9.42725C22.6714 11.2288 22.8933 13.1788 22.6198 15.0898Z" fill="#FBD9A3"/>
<path d="M21.9176 15.2491C21.9176 15.8577 21.4238 16.3514 20.8152 16.3514H19.1824C18.5738 16.3514 18.0801 15.8577 18.0801 15.2491C18.0801 14.9452 18.2035 14.6694 18.4027 14.4694C18.6027 14.2702 18.8785 14.1467 19.1824 14.1467H20.8152C21.4238 14.1467 21.9176 14.6405 21.9176 15.2491Z" fill="#FBD9A3"/>
<path d="M21.6514 17.8631C21.6514 18.4725 21.1576 18.9662 20.549 18.9662H19.449C18.8404 18.9662 18.3467 18.4725 18.3467 17.8631C18.3467 17.5592 18.4701 17.2834 18.6693 17.0834C18.8693 16.8842 19.1443 16.7607 19.449 16.7607H20.549C21.1576 16.7607 21.6514 17.2545 21.6514 17.8631Z" fill="#FBD9A3"/>
<path d="M21.4661 20.3562H18.5317C18.5599 20.0999 18.6755 19.871 18.8474 19.6984C19.0466 19.4992 19.3224 19.3757 19.6271 19.3757H20.3708C20.9388 19.3757 21.406 19.8046 21.4661 20.3562Z" fill="#FBD9A3"/>
<path d="M22.1843 12.6351C22.1843 13.2437 21.6905 13.7374 21.0819 13.7374H18.9163C18.3077 13.7374 17.814 13.2437 17.814 12.6351C17.814 12.3304 17.9374 12.0546 18.1366 11.8554C18.3366 11.6562 18.6116 11.5327 18.9163 11.5327H21.0819C21.6905 11.5327 22.1843 12.0257 22.1843 12.6351Z" fill="#FBD9A3"/>
<path d="M21.4738 10.0203C21.4738 10.6297 20.9809 11.1227 20.3715 11.1227H19.6277C19.0184 11.1227 18.5254 10.6297 18.5254 10.0203C18.5254 9.71562 18.6488 9.44062 18.848 9.24062C19.0473 9.04141 19.323 8.91797 19.6277 8.91797H20.3715C20.9809 8.91797 21.4738 9.41172 21.4738 10.0203Z" fill="#FBD9A3"/>
<path d="M20.908 7.40615V7.5999C20.908 8.10146 20.501 8.5085 19.9994 8.5085C19.7486 8.5085 19.5213 8.40693 19.3572 8.24209C19.1924 8.07803 19.0908 7.85068 19.0908 7.5999V7.40615C19.351 7.22256 19.6666 7.11865 19.9994 7.11865C20.3322 7.11865 20.6479 7.22256 20.908 7.40615Z" fill="#FBD9A3"/>
<path d="M19.9995 8.5085V7.11865C20.3323 7.11865 20.6479 7.22256 20.9081 7.40615V7.5999C20.9081 8.10146 20.5011 8.5085 19.9995 8.5085Z" fill="#FAEFDC"/>
<path d="M20.3714 11.1227H19.9995V8.91797H20.3714C20.9808 8.91797 21.4737 9.41172 21.4737 10.0203C21.4737 10.6297 20.9808 11.1227 20.3714 11.1227Z" fill="#FAEFDC"/>
<path d="M21.6519 17.8631C21.6519 18.4725 21.1581 18.9662 20.5495 18.9662H19.9995V16.7607H20.5495C21.1581 16.7607 21.6519 17.2545 21.6519 17.8631Z" fill="#FAEFDC"/>
<path d="M21.4667 20.3562H19.9995V19.3757H20.3714C20.9394 19.3757 21.4065 19.8046 21.4667 20.3562Z" fill="#FAEFDC"/>
<path d="M21.9183 15.2491C21.9183 15.8577 21.4245 16.3514 20.8159 16.3514H19.9995V14.1467H20.8159C21.4245 14.1467 21.9183 14.6405 21.9183 15.2491Z" fill="#FAEFDC"/>
<path d="M21.0823 13.7374H19.9995V11.5327H21.0823C21.6909 11.5327 22.1847 12.0257 22.1847 12.6351C22.1847 13.2437 21.6909 13.7374 21.0823 13.7374Z" fill="#FAEFDC"/>
<path d="M23.3723 5.55537V5.7874C23.3723 6.90615 22.4652 7.81396 21.3465 7.81396H18.6527C17.534 7.81396 16.627 6.90615 16.627 5.7874V5.55537C16.627 4.84209 17.2051 4.26318 17.9191 4.26318H22.0801C22.7941 4.26318 23.3723 4.84209 23.3723 5.55537Z" fill="#D48D77"/>
<path d="M23.3722 5.55537V5.7874C23.3722 6.90615 22.4651 7.81396 21.3464 7.81396H19.9995V4.26318H22.08C22.794 4.26318 23.3722 4.84209 23.3722 5.55537Z" fill="#EEA47D"/>
<path d="M21.134 5.2335H19.9995V4.5542H21.134C21.3216 4.5542 21.4737 4.70631 21.4737 4.89389C21.4737 5.08146 21.3216 5.2335 21.134 5.2335Z" fill="#F5B890"/>
<path d="M18.8651 4.5542H19.9996V5.2335H18.8651C18.6775 5.2335 18.5254 5.08139 18.5254 4.89381C18.5254 4.70623 18.6775 4.5542 18.8651 4.5542Z" fill="#EEA47D"/>
<path d="M22.8701 6.32631C22.864 6.35092 22.8568 6.37553 22.849 6.40014C22.8172 6.50123 22.7728 6.59522 22.7164 6.6778C22.4564 7.05826 22.0344 7.05826 21.7744 6.6778C21.5144 6.29733 21.515 5.68045 21.7744 5.29991C21.7858 5.28412 21.7965 5.26826 21.8086 5.2542C21.871 5.17428 21.9412 5.11451 22.0151 5.07405C22.2511 4.94748 22.5267 5.02217 22.7164 5.29983C22.9055 5.57678 22.9571 5.98006 22.8701 6.32631Z" fill="#D48D77"/>
<path d="M22.8702 6.32623C22.8642 6.35084 22.857 6.37545 22.8492 6.40006C22.7915 6.41764 22.732 6.42733 22.6708 6.42733C22.2145 6.42733 21.8404 5.91061 21.8086 5.2542C21.871 5.17428 21.9413 5.11451 22.0152 5.07405C22.2511 4.94748 22.5267 5.02217 22.7164 5.29983C22.9056 5.5767 22.9572 5.97998 22.8702 6.32623Z" fill="#F5B890"/>
<path d="M22.6666 5.98907C22.6666 6.25423 22.5517 6.48071 22.3909 6.56759C22.3455 6.59134 22.2968 6.60485 22.2459 6.60485C22.0133 6.60485 21.8252 6.32884 21.8252 5.98907C21.8252 5.6486 22.0133 5.37329 22.2459 5.37329C22.2968 5.37329 22.3455 5.38688 22.3909 5.41056C22.5517 5.49735 22.6666 5.72321 22.6666 5.98907Z" fill="#3F5D77"/>
<path d="M22.3909 6.56743C22.5432 6.56743 22.6666 6.30842 22.6666 5.98892C22.6666 5.66941 22.5432 5.4104 22.3909 5.4104C22.2387 5.4104 22.1152 5.66941 22.1152 5.98892C22.1152 6.30842 22.2387 6.56743 22.3909 6.56743Z" fill="#2E3140"/>
<path d="M22.2449 6.14707C22.3595 6.14707 22.4523 6.01118 22.4523 5.84355C22.4523 5.67593 22.3595 5.54004 22.2449 5.54004C22.1304 5.54004 22.0376 5.67593 22.0376 5.84355C22.0376 6.01118 22.1304 6.14707 22.2449 6.14707Z" fill="#83D5EF"/>
<path d="M18.3779 6.32631C18.3719 6.35092 18.3647 6.37553 18.3569 6.40014C18.3251 6.50123 18.2806 6.59522 18.2242 6.6778C17.9642 7.05826 17.5422 7.05826 17.2822 6.6778C17.0222 6.29733 17.0228 5.68045 17.2822 5.29991C17.2936 5.28412 17.3044 5.26826 17.3164 5.2542C17.3788 5.17428 17.449 5.11451 17.5229 5.07405C17.7589 4.94748 18.0345 5.02217 18.2242 5.29983C18.4133 5.57678 18.465 5.98006 18.3779 6.32631Z" fill="#EEA47D"/>
<path d="M18.378 6.32623C18.3719 6.35084 18.3648 6.37545 18.3569 6.40006C18.2993 6.41764 18.2398 6.42733 18.1786 6.42733C17.7223 6.42733 17.3482 5.91061 17.3164 5.2542C17.3788 5.17428 17.4491 5.11451 17.523 5.07405C17.7589 4.94748 18.0345 5.02217 18.2242 5.29983C18.4134 5.5767 18.4651 5.97998 18.378 6.32623Z" fill="#F5B890"/>
<path d="M18.174 5.98907C18.174 6.25423 18.0591 6.48071 17.8983 6.56759C17.8529 6.59134 17.8042 6.60485 17.7533 6.60485C17.5207 6.60485 17.3325 6.32884 17.3325 5.98907C17.3325 5.6486 17.5206 5.37329 17.7533 5.37329C17.8042 5.37329 17.8529 5.38688 17.8983 5.41056C18.0591 5.49735 18.174 5.72321 18.174 5.98907Z" fill="#3F5D77"/>
<path d="M17.8988 6.56743C18.051 6.56743 18.1745 6.30842 18.1745 5.98892C18.1745 5.66941 18.051 5.4104 17.8988 5.4104C17.7465 5.4104 17.623 5.66941 17.623 5.98892C17.623 6.30842 17.7465 6.56743 17.8988 6.56743Z" fill="#2E3140"/>
<path d="M17.7528 6.14707C17.8673 6.14707 17.9601 6.01118 17.9601 5.84355C17.9601 5.67593 17.8673 5.54004 17.7528 5.54004C17.6382 5.54004 17.5454 5.67593 17.5454 5.84355C17.5454 6.01118 17.6382 6.14707 17.7528 6.14707Z" fill="#83D5EF"/>
<path d="M20.5319 7.16076C20.4431 7.07201 20.4431 6.92818 20.5319 6.83951L20.6139 6.75748C20.7027 6.66873 20.8465 6.66873 20.9352 6.75748C21.0239 6.84623 21.0239 6.99006 20.9352 7.07873L20.8531 7.16076C20.7645 7.24951 20.6206 7.24951 20.5319 7.16076Z" fill="#3F5D77"/>
<path d="M19.4684 7.16076C19.3796 7.24951 19.2358 7.24951 19.1471 7.16076L19.0651 7.07873C18.9763 6.98998 18.9763 6.84615 19.0651 6.75748C19.1538 6.66873 19.2977 6.66873 19.3864 6.75748L19.4684 6.83951C19.5571 6.92818 19.5571 7.07201 19.4684 7.16076Z" fill="#2E3140"/>
<path d="M21.0866 10.3625L20.2731 8.93234V7.64258C20.2731 7.49156 20.1507 7.36914 19.9997 7.36914C19.8487 7.36914 19.7263 7.49156 19.7263 7.64258V8.93234L18.9128 10.3625C18.8381 10.4938 18.884 10.6607 19.0153 10.7353C19.1467 10.8101 19.3135 10.7641 19.3881 10.6328L19.9997 9.55773L20.6113 10.6329C20.6617 10.7215 20.7541 10.7712 20.8492 10.7712C20.895 10.7712 20.9415 10.7597 20.9842 10.7354C21.1154 10.6607 21.1613 10.4938 21.0866 10.3625Z" fill="#E9465E"/>
</svg>
