<svg width="40" height="40" viewBox="0 0 40 40" fill="none" xmlns="http://www.w3.org/2000/svg">
<path d="M40 20C40 31.0458 31.0458 40 20 40C8.95416 40 0 31.0458 0 20C0 8.95416 8.95416 0 20 0C31.0458 0 40 8.95416 40 20Z" fill="#FFE05C"/>
<path d="M29.8531 35.1234V37.4082C26.9454 39.058 23.5829 40.0001 20.0002 40.0001C17.8884 40.0001 15.8541 39.6726 13.9431 39.0662C12.6125 38.6442 11.3414 38.0857 10.147 37.4082V35.1234C10.147 31.2238 13.1502 28.0247 16.9716 27.7161C17.1724 27.6996 17.3748 27.6914 17.5798 27.6914H22.4196C22.9918 27.6914 23.5488 27.7552 24.0834 27.8776C27.3879 28.6335 29.8531 31.5909 29.8531 35.1234Z" fill="#151A1C"/>
<path d="M29.8534 35.1234V37.4082C28.0779 38.4156 26.1333 39.1593 24.0721 39.5844C22.918 39.8237 21.7269 39.9631 20.5089 39.9933C20.3398 39.9976 20.1702 40.0001 20.0005 40.0001C17.8887 40.0001 15.8544 39.6726 13.9434 39.0662V35.1234C13.9434 34.5966 13.998 34.0824 14.1024 33.5868C14.3148 32.5745 14.7335 31.6392 15.3121 30.8243C16.6591 28.9283 18.8738 27.6914 21.3768 27.6914H22.4199C26.5261 27.6914 29.8534 31.0187 29.8534 35.1234Z" fill="#2F373B"/>
<path d="M22.6518 24.8281V28.0825C22.6518 29.2739 21.8663 30.281 20.7841 30.6155C20.5366 30.6921 20.2723 30.7339 19.9995 30.7339C18.535 30.7339 17.3481 29.5468 17.3481 28.0825V24.8281H22.6518Z" fill="#151A1C"/>
<path d="M22.6519 27.8762V28.0825C22.6519 29.2739 21.8663 30.281 20.7842 30.6155C19.8079 30.3152 19.074 29.4665 18.9385 28.4277C19.1155 28.4387 19.2937 28.4442 19.4725 28.4442C19.9742 28.4442 20.4659 28.4042 20.945 28.3254C21.5355 28.2308 22.1059 28.0789 22.6519 27.8762Z" fill="#2F373B"/>
<path d="M12.7259 19.4949C12.7259 20.7224 11.8293 21.7404 10.655 21.9293C10.5265 21.9501 10.3947 21.9608 10.2598 21.9608C8.89746 21.9608 7.79395 20.8572 7.79395 19.4949C7.79395 18.1326 8.89746 17.0288 10.2598 17.0288C10.3947 17.0288 10.5265 17.0398 10.655 17.0605C11.8293 17.2495 12.7259 18.2672 12.7259 19.4949Z" fill="#F6BA97"/>
<path d="M12.726 19.4949C12.726 20.7224 11.8294 21.7404 10.6551 21.9293C10.4418 21.1536 10.3276 20.3372 10.3276 19.4949C10.3276 18.6523 10.4418 17.836 10.6551 17.0605C11.8294 17.2495 12.726 18.2672 12.726 19.4949Z" fill="#EAA27F"/>
<path d="M11.1416 19.4949C11.1416 19.9816 10.747 20.3762 10.2603 20.3762C9.7735 20.3762 9.37891 19.9816 9.37891 19.4949C9.37891 19.0081 9.7735 18.6135 10.2603 18.6135C10.747 18.6135 11.1416 19.0081 11.1416 19.4949Z" fill="#EAA27F"/>
<path d="M27.2744 19.4949C27.2744 20.7224 28.171 21.7404 29.3453 21.9293C29.4738 21.9501 29.6057 21.9608 29.7405 21.9608C31.1028 21.9608 32.2064 20.8572 32.2064 19.4949C32.2064 18.1326 31.1028 17.0288 29.7405 17.0288C29.6057 17.0288 29.4738 17.0398 29.3453 17.0605C28.171 17.2495 27.2744 18.2672 27.2744 19.4949Z" fill="#F6BA97"/>
<path d="M27.2739 19.4949C27.2739 20.7224 28.1705 21.7404 29.3448 21.9293C29.5582 21.1536 29.6723 20.3372 29.6723 19.4949C29.6723 18.6523 29.5582 17.836 29.3448 17.0605C28.1705 17.2495 27.2739 18.2672 27.2739 19.4949Z" fill="#EAA27F"/>
<path d="M29.1749 14.6906V18.1845C29.1749 22.7502 25.8394 26.5378 21.4723 27.2406C21.4573 27.243 21.4421 27.2455 21.4271 27.2482C20.9626 27.3224 20.486 27.359 19.9995 27.359C14.9327 27.359 10.8247 23.2513 10.8247 18.1845V14.6906C10.8247 13.6237 11.0069 12.5983 11.3432 11.6455C12.5978 8.07495 16.0002 5.51514 19.9995 5.51514H20.0004C20.486 5.51514 20.9636 5.55267 21.429 5.62592C25.8174 6.31165 29.1749 10.1093 29.1749 14.6906Z" fill="#EAA27F"/>
<path d="M30.6211 19.4949C30.6211 19.9816 30.2265 20.3762 29.7397 20.3762C29.253 20.3762 28.8584 19.9816 28.8584 19.4949C28.8584 19.0081 29.253 18.6135 29.7397 18.6135C30.2265 18.6135 30.6211 19.0081 30.6211 19.4949Z" fill="#EAA27F"/>
<path d="M29.175 14.6906V18.1846C29.175 22.7503 25.8394 26.5378 21.4724 27.2407C21.4574 27.2431 21.4421 27.2455 21.4272 27.2483C17.0388 26.5626 13.6821 22.765 13.6821 18.1846V14.6906C13.6821 10.1093 17.0397 6.31171 21.429 5.62598C25.8174 6.31171 29.175 10.1093 29.175 14.6906Z" fill="#F6BA97"/>
<path d="M19.9996 22.7031C19.2315 22.7031 18.4631 22.5105 17.763 22.1257C17.5653 22.017 17.4932 21.7689 17.6019 21.5712C17.7105 21.3737 17.9586 21.3017 18.1561 21.41C19.3105 22.0448 20.689 22.0448 21.8435 21.41C22.0406 21.3017 22.2891 21.3737 22.3977 21.5712C22.5063 21.7689 22.434 22.017 22.2366 22.1257C21.5365 22.5105 20.7681 22.7031 19.9996 22.7031Z" fill="#EAA27F"/>
<path d="M21.0408 20.2706H18.9592C18.7111 20.2706 18.5103 20.0698 18.5103 19.8217C18.5103 19.5736 18.7111 19.3728 18.9592 19.3728H21.0408C21.2889 19.3728 21.4897 19.5736 21.4897 19.8217C21.4897 20.0698 21.2889 20.2706 21.0408 20.2706Z" fill="#EAA27F"/>
<path d="M18.046 17.6501C18.046 18.225 17.58 18.6907 17.0053 18.6907C16.4304 18.6907 15.9644 18.225 15.9644 17.6501C15.9644 17.0751 16.4304 16.6091 17.0053 16.6091C17.58 16.6091 18.046 17.0751 18.046 17.6501Z" fill="#2F373B"/>
<path d="M24.0357 17.6501C24.0357 18.225 23.5697 18.6907 22.9951 18.6907C22.4201 18.6907 21.9541 18.225 21.9541 17.6501C21.9541 17.0751 22.4201 16.6091 22.9951 16.6091C23.5697 16.6091 24.0357 17.0751 24.0357 17.6501Z" fill="#2F373B"/>
<path d="M17.8339 17.4664C17.8339 17.7126 17.6343 17.9122 17.3881 17.9122C17.1418 17.9122 16.9419 17.7126 16.9419 17.4664C16.9419 17.2201 17.1418 17.0205 17.3881 17.0205C17.6343 17.0205 17.8339 17.2201 17.8339 17.4664Z" fill="white"/>
<path d="M23.8749 17.4664C23.8749 17.7126 23.675 17.9122 23.4288 17.9122C23.1825 17.9122 22.9829 17.7126 22.9829 17.4664C22.9829 17.2201 23.1825 17.0205 23.4288 17.0205C23.675 17.0205 23.8749 17.2201 23.8749 17.4664Z" fill="white"/>
<path d="M30.129 11.159C30.129 14.989 29.1747 15.4507 29.1747 15.4507C29.1747 15.4507 20.3813 14.0081 20.0002 8.73376C20.205 11.5643 17.5478 13.291 15.0417 14.2837C12.8768 15.1406 10.8254 15.4507 10.8254 15.4507C10.8254 15.4507 9.87109 14.989 9.87109 11.159C9.87109 7.32874 14.1829 5.3338 18.5717 4.78723C19.0367 4.72864 19.5143 4.69873 20.0002 4.69873C20.4857 4.69873 20.9633 4.72864 21.4287 4.78723C25.8171 5.3338 30.129 7.32874 30.129 11.159Z" fill="#2F373B"/>
<path d="M20.0002 4.69873C19.7618 4.69873 19.5266 4.72864 19.298 4.78723C17.1404 5.3338 15.0206 7.32874 15.0206 11.1587C15.0206 11.6476 15.028 13.2134 15.0417 14.2834C12.8768 15.1406 10.8254 15.4504 10.8254 15.4504C10.8254 15.4504 9.87109 14.989 9.87109 11.1587C9.87109 7.32874 14.1829 5.3338 18.5717 4.78693C19.0367 4.72864 19.5143 4.69873 20.0002 4.69873Z" fill="#151A1C"/>
</svg>
