<svg width="40" height="40" viewBox="0 0 40 40" fill="none" xmlns="http://www.w3.org/2000/svg">
<path d="M20 40C31.0457 40 40 31.0457 40 20C40 8.9543 31.0457 0 20 0C8.9543 0 0 8.9543 0 20C0 31.0457 8.9543 40 20 40Z" fill="#22BCE0"/>
<path d="M32.3238 18.495V26.8041C32.3238 31.3165 28.6662 34.9733 24.1545 34.9733H15.8446C11.3329 34.9733 7.67529 31.3165 7.67529 26.8041V18.495C7.67529 13.9833 11.3329 10.3257 15.8446 10.3257H24.1545C28.6662 10.3257 32.3238 13.9833 32.3238 18.495Z" fill="#C17E62"/>
<path d="M32.3238 18.495V26.8041C32.3238 31.3165 28.6662 34.9733 24.1545 34.9733H19.9995V10.3257H24.1545C28.6662 10.3257 32.3238 13.9833 32.3238 18.495Z" fill="#D48D77"/>
<path d="M32.0779 16.4756L26.2046 10.6022L29.0017 7.8051C30.2015 6.60533 32.1466 6.60533 33.3464 7.8051L34.8751 9.33377C36.0748 10.5335 36.0748 12.4787 34.8751 13.6785L32.0779 16.4756Z" fill="#D48D77"/>
<path d="M30.0931 14.4907L28.1891 12.5867C27.6746 12.0722 27.6746 11.238 28.1891 10.7234L29.198 9.71445C29.9215 8.99102 31.0943 8.99102 31.8177 9.71445L32.9653 10.862C33.6887 11.5855 33.6887 12.7583 32.9653 13.4817L31.9564 14.4906C31.4419 15.0053 30.6076 15.0053 30.0931 14.4907Z" fill="#C17E62"/>
<path d="M34.8179 10.4208L32.2594 7.8623C31.9427 7.54558 31.4293 7.54558 31.1125 7.8623C30.7958 8.17901 30.7958 8.69245 31.1125 9.00917L33.6711 11.5677C33.9878 11.8844 34.5012 11.8844 34.8179 11.5677C35.1347 11.251 35.1347 10.7375 34.8179 10.4208Z" fill="#EEA47D"/>
<path d="M13.8003 10.6022L7.92691 16.4756L5.1298 13.6785C3.93004 12.4787 3.93004 10.5335 5.1298 9.33377L6.65848 7.8051C7.85824 6.60533 9.8034 6.60533 11.0032 7.8051L13.8003 10.6022Z" fill="#C17E62"/>
<path d="M11.8159 12.5869L9.91191 14.4909C9.39738 15.0054 8.56316 15.0054 8.04855 14.4909L7.03965 13.482C6.31621 12.7585 6.31621 11.5857 7.03965 10.8623L8.18723 9.7147C8.91066 8.99126 10.0835 8.99126 10.8069 9.7147L11.8158 10.7236C12.3304 11.2381 12.3304 12.0724 11.8159 12.5869Z" fill="#A26D5A"/>
<path d="M7.74576 7.8623L5.18725 10.4208C4.87053 10.7375 4.87053 11.251 5.18725 11.5677C5.50396 11.8844 6.0174 11.8844 6.33412 11.5677L8.89264 9.00917C9.20936 8.69245 9.20936 8.17901 8.89264 7.8623C8.57592 7.54558 8.0624 7.54558 7.74576 7.8623Z" fill="#D48D77"/>
<path d="M27.7761 22.6092C27.0041 23.3812 25.7502 23.3812 24.9783 22.6092C24.2053 21.8362 24.2063 20.5834 24.9783 19.8114C25.1876 19.6021 25.4319 19.4493 25.6928 19.3539C26.3947 19.0959 27.2124 19.2478 27.7761 19.8114C28.3387 20.3741 28.4916 21.1928 28.2336 21.8947C28.1383 22.1555 27.9854 22.3999 27.7761 22.6092Z" fill="#C17E62"/>
<path d="M27.7583 21.2102C27.7583 21.805 27.3811 22.3129 26.8533 22.5076C26.7042 22.5608 26.5445 22.5913 26.3772 22.5913C25.6137 22.5913 24.9961 21.9722 24.9961 21.2102C24.9961 20.4466 25.6137 19.8291 26.3772 19.8291C26.5445 19.8291 26.7042 19.8595 26.8533 19.9128C27.3811 20.1074 27.7583 20.6139 27.7583 21.2102Z" fill="#DD5E26"/>
<path d="M27.2841 21.2103C27.2841 21.6011 27.0363 21.9349 26.6895 22.0628C26.5915 22.0978 26.4866 22.1178 26.3767 22.1178C25.8749 22.1178 25.4692 21.7111 25.4692 21.2104C25.4692 20.7087 25.875 20.303 26.3767 20.303C26.4866 20.303 26.5915 20.323 26.6895 20.358C27.0363 20.4857 27.2841 20.8185 27.2841 21.2103Z" fill="#2E3140"/>
<path d="M27.2845 20.7748C27.2845 20.9781 27.1556 21.1518 26.9752 21.2184C26.9242 21.2366 26.8696 21.247 26.8124 21.247C26.5514 21.247 26.3403 21.0353 26.3403 20.7748C26.3403 20.5138 26.5514 20.3027 26.8124 20.3027C26.8696 20.3027 26.9242 20.3131 26.9752 20.3313C27.1556 20.3979 27.2845 20.5711 27.2845 20.7748Z" fill="white"/>
<path d="M12.2231 22.6092C12.9951 23.3812 14.249 23.3812 15.0209 22.6092C15.7939 21.8362 15.7929 20.5834 15.0209 19.8114C14.8116 19.6021 14.5672 19.4493 14.3064 19.3539C13.6045 19.0959 12.7868 19.2478 12.2231 19.8114C11.6605 20.3741 11.5076 21.1928 11.7656 21.8947C11.8609 22.1555 12.0138 22.3999 12.2231 22.6092Z" fill="#A26D5A"/>
<path d="M15.0039 21.2102C15.0039 21.805 14.6267 22.3129 14.0989 22.5076C13.9498 22.5608 13.7901 22.5913 13.6228 22.5913C12.8593 22.5913 12.2417 21.9722 12.2417 21.2102C12.2417 20.4466 12.8593 19.8291 13.6228 19.8291C13.7901 19.8291 13.9498 19.8595 14.0989 19.9128C14.6267 20.1074 15.0039 20.6139 15.0039 21.2102Z" fill="#DD5E26"/>
<path d="M14.5297 21.2103C14.5297 21.6011 14.2819 21.9349 13.9351 22.0628C13.8371 22.0978 13.7322 22.1178 13.6223 22.1178C13.1206 22.1178 12.7148 21.7111 12.7148 21.2104C12.7148 20.7087 13.1206 20.303 13.6223 20.303C13.7322 20.303 13.8371 20.323 13.9351 20.358C14.2818 20.4857 14.5297 20.8185 14.5297 21.2103Z" fill="#2E3140"/>
<path d="M14.5302 20.7748C14.5302 20.9781 14.4013 21.1518 14.2208 21.2184C14.1698 21.2366 14.1152 21.247 14.058 21.247C13.797 21.247 13.5859 21.0353 13.5859 20.7748C13.5859 20.5138 13.797 20.3027 14.058 20.3027C14.1152 20.3027 14.1698 20.3131 14.2208 20.3313C14.4012 20.3979 14.5302 20.5711 14.5302 20.7748Z" fill="white"/>
<path d="M25.0429 30.1912C25.0429 31.5335 24.174 32.7507 22.86 33.1645C21.9298 33.4582 20.965 33.6047 20 33.6047C19.0351 33.6047 18.0703 33.4582 17.1401 33.1645C15.6771 32.7036 14.766 31.2479 14.9911 29.7311L15.898 23.6208C16.1033 22.2355 17.2924 21.2102 18.6925 21.2102H21.3075C22.7076 21.2102 23.8968 22.2355 24.102 23.6208L25.009 29.7311C25.0322 29.885 25.0429 30.039 25.0429 30.1912Z" fill="#D48D77"/>
<path d="M25.0429 30.1912C25.0429 31.5335 24.174 32.7507 22.8599 33.1645C21.9298 33.4582 20.9649 33.6047 20 33.6047V21.2102H21.3075C22.7076 21.2102 23.8968 22.2355 24.102 23.6208L25.009 29.7311C25.0321 29.885 25.0429 30.039 25.0429 30.1912Z" fill="#EEA47D"/>
<path d="M21.1909 22.1177H20V26.7172H21.1909C22.0431 26.7172 22.7338 26.0264 22.7338 25.1743V23.6605C22.7338 22.8085 22.0431 22.1177 21.1909 22.1177Z" fill="#F5B890"/>
<path d="M18.809 26.7172H19.9999V22.1177H18.809C17.9569 22.1177 17.2661 22.8085 17.2661 23.6606V25.1744C17.2661 26.0264 17.9569 26.7172 18.809 26.7172Z" fill="#EEA47D"/>
<path d="M22.5215 28.6021V29.2151C22.5215 30.256 21.8164 31.1009 20.9467 31.1009H19.0533C18.1836 31.1009 17.4785 30.256 17.4785 29.2151V28.6021C17.4785 27.5611 18.1836 26.7173 19.0533 26.7173H20.9466C21.8164 26.7173 22.5215 27.5611 22.5215 28.6021Z" fill="#2E3140"/>
<path d="M22.521 28.6021V29.2151C22.521 30.256 21.8159 31.1009 20.9462 31.1009H19.9995V26.7173H20.9462C21.8159 26.7173 22.521 27.5611 22.521 28.6021Z" fill="#334353"/>
<path d="M20.682 29.1683L20.4722 29.3781C20.2762 29.5741 20.2762 29.892 20.4722 30.088L20.9206 30.5364C21.1166 30.7324 21.4345 30.7324 21.6305 30.5364L21.8403 30.3266C22.0363 30.1306 22.0363 29.8127 21.8403 29.6167L21.3919 29.1683C21.1959 28.9722 20.8781 28.9722 20.682 29.1683Z" fill="#2E3140"/>
<path d="M19.5282 29.3788L19.3185 29.169C19.1225 28.973 18.8046 28.973 18.6086 29.169L18.1602 29.6173C17.9642 29.8134 17.9642 30.1313 18.1602 30.3273L18.37 30.537C18.566 30.7331 18.8839 30.7331 19.0799 30.537L19.5282 30.0887C19.7243 29.8927 19.7243 29.5748 19.5282 29.3788Z" fill="#151516"/>
<path d="M20.0005 27.4075H21.0782C21.4229 27.4075 21.7025 27.687 21.7025 28.0318C21.7025 28.3765 21.4229 28.6561 21.0782 28.6561H20.0005V27.4075Z" fill="#3F5D77"/>
<path d="M20.0003 28.6561H18.9226C18.5779 28.6561 18.2983 28.3765 18.2983 28.0318C18.2983 27.687 18.5779 27.4075 18.9226 27.4075H20.0003V28.6561Z" fill="#334353"/>
<path d="M24.0187 32.2483C23.9321 32.0368 23.6906 31.9354 23.479 32.0221C23.1839 32.1429 22.781 32.2846 22.6749 32.2947C22.3502 32.323 21.7723 32.2277 21.2624 32.1437C20.9619 32.094 20.6721 32.0464 20.4139 32.0179V30.8801C20.4139 30.6515 20.2286 30.4663 20.0001 30.4663C19.7716 30.4663 19.5864 30.6515 19.5864 30.8801V32.0179C19.3281 32.0463 19.0383 32.094 18.7378 32.1437C18.228 32.2277 17.6502 32.3232 17.3253 32.2947C17.2296 32.2856 16.8539 32.1582 16.5212 32.0221C16.31 31.9357 16.0682 32.0369 15.9816 32.2483C15.8951 32.4598 15.9963 32.7014 16.2078 32.7879C16.3825 32.8595 16.9746 33.0948 17.2534 33.1191C17.6823 33.1564 18.2872 33.0566 18.8725 32.9601C19.2936 32.8906 19.7292 32.8187 20.0002 32.8187C20.2711 32.8187 20.7067 32.8906 21.1279 32.9601C21.6271 33.0424 22.1406 33.1272 22.5469 33.1272C22.617 33.1272 22.6839 33.1246 22.747 33.1191C23.0258 33.0948 23.6178 32.8595 23.7927 32.7879C24.004 32.7014 24.1053 32.4597 24.0187 32.2483Z" fill="#151516"/>
<path d="M26.3394 25.4271V30.0284C26.3394 30.8393 27.3198 31.2455 27.8933 30.6721L29.2302 29.3351C30.1171 28.4482 30.6153 27.2454 30.6153 25.9913V24.5031C30.6153 23.8671 29.9797 23.4272 29.3844 23.6512L26.929 24.5751C26.5743 24.7085 26.3394 25.048 26.3394 25.4271Z" fill="#EEA47D"/>
<path d="M13.6607 25.4271V30.0284C13.6607 30.8393 12.6802 31.2455 12.1068 30.6721L10.7698 29.3351C9.88297 28.4482 9.38477 27.2454 9.38477 25.9913V24.5031C9.38477 23.8671 10.0204 23.4272 10.6156 23.6512L13.071 24.5751C13.4258 24.7085 13.6607 25.048 13.6607 25.4271Z" fill="#D48D77"/>
<path d="M24.0763 17.9587H19.9995V11.3972H23.3717C24.3513 11.3972 25.2305 11.9982 25.5864 12.9108L26.2911 14.718C26.8987 16.2766 25.7492 17.9587 24.0763 17.9587Z" fill="#EEA47D"/>
<path d="M15.9229 17.9587H19.9997V11.3972H16.6275C15.6479 11.3972 14.7686 11.9982 14.4128 12.9108L13.7081 14.718C13.1004 16.2766 14.25 17.9587 15.9229 17.9587Z" fill="#D48D77"/>
</svg>
