<svg width="40" height="40" viewBox="0 0 40 40" fill="none" xmlns="http://www.w3.org/2000/svg">
<path d="M20 40C31.0457 40 40 31.0457 40 20C40 8.9543 31.0457 0 20 0C8.9543 0 0 8.9543 0 20C0 31.0457 8.9543 40 20 40Z" fill="#EA792E"/>
<path d="M22.5559 24.162V31.733C22.5559 32.4391 22.2694 33.0776 21.807 33.5406C21.3446 34.003 20.7048 34.2895 19.9994 34.2895C18.5878 34.2895 17.4429 33.1445 17.4429 31.733V24.162C17.4429 22.7498 18.5878 21.6055 19.9994 21.6055C21.4109 21.6055 22.5559 22.7498 22.5559 24.162Z" fill="#DECEE5"/>
<path d="M22.556 24.162V31.733C22.556 32.4391 22.2696 33.0776 21.8072 33.5406C21.3447 34.003 20.705 34.2895 19.9995 34.2895V21.6055C21.4111 21.6055 22.556 22.7498 22.556 24.162Z" fill="#F4E6F4"/>
<path d="M21.8764 27.5571H19.9995V28.3378H21.8764C22.092 28.3378 22.2668 28.1631 22.2668 27.9474C22.2667 27.7319 22.0919 27.5571 21.8764 27.5571Z" fill="#DECEE5"/>
<path d="M21.8764 29.1445H19.9995V29.9252H21.8764C22.092 29.9252 22.2668 29.7505 22.2668 29.5348C22.2667 29.3193 22.0919 29.1445 21.8764 29.1445Z" fill="#DECEE5"/>
<path d="M21.8764 30.7317H19.9995V31.5124H21.8764C22.092 31.5124 22.2668 31.3376 22.2668 31.122C22.2667 30.9065 22.0919 30.7317 21.8764 30.7317Z" fill="#DECEE5"/>
<path d="M21.8764 25.97H19.9995V26.7507H21.8764C22.092 26.7507 22.2668 26.5759 22.2668 26.3603C22.2667 26.1447 22.0919 25.97 21.8764 25.97Z" fill="#DECEE5"/>
<path d="M21.8764 24.3826H19.9995V25.1633H21.8764C22.092 25.1633 22.2668 24.9885 22.2668 24.7729C22.2667 24.5573 22.0919 24.3826 21.8764 24.3826Z" fill="#DECEE5"/>
<path d="M21.2195 22.7954H19.9995V23.5761H21.2195C21.4351 23.5761 21.6099 23.4013 21.6099 23.1857C21.6098 22.9702 21.4351 22.7954 21.2195 22.7954Z" fill="#DECEE5"/>
<path d="M21.2195 32.3191H19.9995V33.0998H21.2195C21.4351 33.0998 21.6099 32.925 21.6099 32.7094C21.6098 32.4939 21.4351 32.3191 21.2195 32.3191Z" fill="#DECEE5"/>
<path d="M18.1223 28.3378H19.9992V27.5571H18.1223C17.9067 27.5571 17.7319 27.7319 17.7319 27.9475C17.732 28.1631 17.9068 28.3378 18.1223 28.3378Z" fill="#C2AACF"/>
<path d="M18.1223 26.7507H19.9992V25.97H18.1223C17.9067 25.97 17.7319 26.1447 17.7319 26.3604C17.732 26.5759 17.9068 26.7507 18.1223 26.7507Z" fill="#C2AACF"/>
<path d="M18.1223 25.1633H19.9992V24.3826H18.1223C17.9067 24.3826 17.7319 24.5573 17.7319 24.773C17.732 24.9885 17.9068 25.1633 18.1223 25.1633Z" fill="#C2AACF"/>
<path d="M18.1223 29.925H19.9992V29.1443H18.1223C17.9067 29.1443 17.7319 29.3191 17.7319 29.5347C17.732 29.7502 17.9068 29.925 18.1223 29.925Z" fill="#C2AACF"/>
<path d="M18.1223 31.5124H19.9992V30.7317H18.1223C17.9067 30.7317 17.7319 30.9065 17.7319 31.1221C17.732 31.3376 17.9068 31.5124 18.1223 31.5124Z" fill="#C2AACF"/>
<path d="M18.7791 33.0995H19.9991V32.3188H18.7791C18.5634 32.3188 18.3887 32.4936 18.3887 32.7092C18.3888 32.9248 18.5635 33.0995 18.7791 33.0995Z" fill="#C2AACF"/>
<path d="M18.7791 23.5761H19.9991V22.7954H18.7791C18.5634 22.7954 18.3887 22.9702 18.3887 23.1858C18.3888 23.4013 18.5635 23.5761 18.7791 23.5761Z" fill="#C2AACF"/>
<path d="M21.8708 17.0199V19.7347C21.8708 20.2517 21.6613 20.7194 21.323 21.0576C20.9841 21.3959 20.5163 21.6054 20.0001 21.6054C18.9668 21.6054 18.1294 20.7679 18.1294 19.7347V17.0199C18.1294 15.9867 18.9669 15.1492 20.0001 15.1492C21.0333 15.1492 21.8708 15.9867 21.8708 17.0199Z" fill="#C2AACF"/>
<path d="M21.8707 17.0199V19.7347C21.8707 20.2517 21.6612 20.7194 21.3229 21.0576C20.984 21.3959 20.5163 21.6054 20 21.6054V15.1492C21.0332 15.1492 21.8707 15.9867 21.8707 17.0199Z" fill="#DECEE5"/>
<path d="M19.9995 20.3084V15.9778C20.7054 15.9778 21.2778 16.55 21.2778 17.2561V19.0302C21.2778 19.7361 20.7054 20.3084 19.9995 20.3084Z" fill="#F4E6F4"/>
<path d="M20 15.9778V20.3084C19.294 20.3084 18.7217 19.7361 18.7217 19.0301V17.256C18.7217 16.55 19.294 15.9778 20 15.9778Z" fill="#DECEE5"/>
<path d="M22.2487 13.1622V13.5819C22.2487 14.4477 21.5471 15.1492 20.6814 15.1492H19.3178C18.452 15.1492 17.7505 14.4476 17.7505 13.5819V13.1622C17.7505 12.2964 18.4521 11.5942 19.3178 11.5942H20.6814C21.5472 11.5943 22.2487 12.2964 22.2487 13.1622Z" fill="#DECEE5"/>
<path d="M22.2486 13.1622V13.5819C22.2486 14.4477 21.547 15.1492 20.6813 15.1492H19.9995V11.5942H20.6813C21.5471 11.5943 22.2486 12.2964 22.2486 13.1622Z" fill="#F4E6F4"/>
<path d="M22.5559 13.1417V13.6909C22.5559 13.9536 22.4495 14.1907 22.278 14.3628C22.1979 14.443 22.1046 14.5087 22.0002 14.5553C21.8807 14.6105 21.7467 14.6413 21.6061 14.6413C21.0813 14.6413 20.6562 14.2157 20.6562 13.6909V13.1417C20.6562 12.6169 21.0813 12.1919 21.6061 12.1919C21.7466 12.1919 21.8806 12.2228 22.0002 12.2779C22.328 12.4271 22.5559 12.7575 22.5559 13.1417Z" fill="#3F5D77"/>
<path d="M22.5562 13.1417V13.6908C22.5562 13.9535 22.4497 14.1906 22.2783 14.3628C22.1982 14.4429 22.1049 14.5086 22.0005 14.5553C21.6728 14.4061 21.4448 14.0751 21.4448 13.6908V13.1417C21.4448 12.7574 21.6728 12.427 22.0005 12.2778C22.3283 12.427 22.5562 12.7574 22.5562 13.1417Z" fill="#3F6C8E"/>
<path d="M17.4429 13.6915V13.1424C17.4429 12.8796 17.5493 12.6425 17.7208 12.4704C17.8009 12.3903 17.8942 12.3246 17.9986 12.2779C18.1181 12.2228 18.2521 12.1919 18.3927 12.1919C18.9176 12.1919 19.3426 12.6175 19.3426 13.1424V13.6915C19.3426 14.2163 18.9176 14.6413 18.3927 14.6413C18.2522 14.6413 18.1182 14.6105 17.9986 14.5553C17.6708 14.4062 17.4429 14.0758 17.4429 13.6915Z" fill="#3F5D77"/>
<path d="M17.4429 13.6914V13.1423C17.4429 12.8796 17.5493 12.6424 17.7208 12.4703C17.8009 12.3902 17.8942 12.3245 17.9986 12.2778C18.3264 12.427 18.5543 12.758 18.5543 13.1423V13.6914C18.5543 14.0757 18.3264 14.4061 17.9986 14.5553C17.6708 14.4061 17.4429 14.0757 17.4429 13.6914Z" fill="#3F6C8E"/>
<path d="M20.4697 12.2633C20.3529 12.219 20.2942 12.0885 20.3385 11.9718L21.8036 8.10907C21.8479 7.99235 21.9784 7.9336 22.0951 7.9779C22.2119 8.0222 22.2706 8.15266 22.2263 8.26938L20.7612 12.1321C20.7169 12.2488 20.5864 12.3075 20.4697 12.2633Z" fill="#DECEE5"/>
<path d="M22.0951 8.51588C22.3922 8.51588 22.6331 8.27502 22.6331 7.97791C22.6331 7.6808 22.3922 7.43994 22.0951 7.43994C21.798 7.43994 21.5571 7.6808 21.5571 7.97791C21.5571 8.27502 21.798 8.51588 22.0951 8.51588Z" fill="#F4E6F4"/>
<path d="M19.5307 12.2633C19.6474 12.219 19.7061 12.0885 19.6619 11.9718L18.1967 8.10907C18.1524 7.99235 18.0219 7.9336 17.9052 7.9779C17.7885 8.0222 17.7297 8.15266 17.774 8.26938L19.2392 12.1321C19.2834 12.2488 19.414 12.3075 19.5307 12.2633Z" fill="#C2AACF"/>
<path d="M17.9047 8.51588C18.2018 8.51588 18.4426 8.27502 18.4426 7.97791C18.4426 7.6808 18.2018 7.43994 17.9047 7.43994C17.6076 7.43994 17.3667 7.6808 17.3667 7.97791C17.3667 8.27502 17.6076 8.51588 17.9047 8.51588Z" fill="#DECEE5"/>
<path d="M32.3594 24.8168V26.3164C32.3594 27.4996 31.4837 28.4792 30.3446 28.6394C30.2367 28.655 30.1264 28.6632 30.0135 28.6632H28.2146C26.7542 28.6632 25.4181 27.8397 24.7615 26.5347L21.5129 20.0816C21.4409 19.9377 21.4033 19.779 21.4033 19.6188C21.4033 19.3343 21.5186 19.0767 21.705 18.8911C21.8914 18.7047 22.149 18.5894 22.4328 18.5894H25.5072C26.127 18.5894 26.7379 18.6858 27.3184 18.8698C28.2244 19.1568 29.0576 19.658 29.742 20.3425L31.047 21.6483C31.8876 22.4889 32.3594 23.6287 32.3594 24.8168Z" fill="#FBCB74"/>
<path d="M32.3592 24.8168V26.3164C32.3592 27.4996 31.4835 28.4792 30.3445 28.6395C28.4221 26.3001 27.2676 23.3057 27.2676 20.0424C27.2676 19.6475 27.2848 19.2557 27.3183 18.8699C28.2243 19.1568 29.0575 19.6581 29.7419 20.3425L31.0469 21.6484C31.8874 22.4889 32.3592 23.6287 32.3592 24.8168Z" fill="#FBD9A3"/>
<path d="M27.9038 22.0955C27.0543 22.0955 26.3657 22.7841 26.3657 23.6335V24.9534C26.3657 25.8029 27.0543 26.4915 27.9038 26.4915C28.7532 26.4915 29.4418 25.8029 29.4418 24.9534V23.6334C29.4418 22.7841 28.7532 22.0955 27.9038 22.0955Z" fill="#3F6C8E"/>
<path d="M28.7611 26.2306C28.5162 26.3953 28.2206 26.4915 27.9034 26.4915C27.0543 26.4915 26.3652 25.8032 26.3652 24.9533V23.6338C26.3652 22.9478 26.8141 22.3674 27.4338 22.1687C27.6609 23.6114 28.1159 24.978 28.7611 26.2306Z" fill="#3F5D77"/>
<path d="M37.311 12.5305L36.7828 17.7023C36.6396 19.1021 35.8359 20.2559 34.7271 20.9117C33.8203 21.4481 32.7099 21.6509 31.5905 21.3818L27.2707 20.3442L22.5543 19.2109C21.9738 19.071 21.5649 18.5526 21.5649 17.9557C21.5649 17.6941 21.6442 17.4447 21.7849 17.2362C21.9247 17.0277 22.1258 16.86 22.3678 16.7611L28.5749 14.2296L30.4768 13.4535L35.6993 11.3235C36.5194 10.9892 37.4009 11.649 37.311 12.5305Z" fill="#FBD9A3"/>
<path d="M37.3106 12.5305L36.7824 17.7023C36.6393 19.1021 35.8355 20.2559 34.7268 20.9117C33.82 21.4481 32.7096 21.6509 31.5901 21.3818L27.2704 20.3442C27.2679 20.2436 27.2671 20.143 27.2671 20.0424C27.2671 17.9623 27.7365 15.9909 28.5746 14.2296L30.4765 13.4535L35.699 11.3235C36.519 10.9892 37.4005 11.649 37.3106 12.5305Z" fill="#FAEFDC"/>
<path d="M37.3107 12.5305L36.7825 17.7023C36.6394 19.1021 35.8356 20.2558 34.7269 20.9116V15.7869C34.7269 14.4983 33.6822 13.4536 32.3935 13.4536H30.4766L35.6991 11.3236C36.5191 10.9891 37.4006 11.649 37.3107 12.5305Z" fill="#3F6C8E"/>
<path d="M31.7223 14.9971C31.0343 14.9971 30.4766 15.5548 30.4766 16.2429V17.2527C30.4766 17.9407 31.0343 18.4985 31.7223 18.4985C32.4104 18.4985 32.9681 17.9407 32.9681 17.2527V16.2429C32.9681 15.5549 32.4104 14.9971 31.7223 14.9971Z" fill="#3F6C8E"/>
<path d="M7.64014 24.8168V26.3164C7.64014 27.4996 8.51584 28.4792 9.6549 28.6394C9.76279 28.655 9.87318 28.6632 9.98607 28.6632H11.785C13.2454 28.6632 14.5815 27.8397 15.238 26.5347L18.4867 20.0816C18.5587 19.9377 18.5962 19.779 18.5962 19.6188C18.5962 19.3343 18.4809 19.0767 18.2945 18.8911C18.1081 18.7047 17.8505 18.5894 17.5668 18.5894H14.4923C13.8726 18.5894 13.2617 18.6858 12.6812 18.8698C11.7751 19.1568 10.9419 19.658 10.2576 20.3425L8.95256 21.6483C8.11193 22.4889 7.64014 23.6287 7.64014 24.8168Z" fill="#F9C744"/>
<path d="M7.64014 24.8168V26.3164C7.64014 27.4996 8.51584 28.4792 9.6549 28.6395C11.5772 26.3001 12.7318 23.3057 12.7318 20.0424C12.7318 19.6475 12.7146 19.2557 12.6811 18.8699C11.7751 19.1568 10.9419 19.6581 10.2575 20.3425L8.95248 21.6484C8.11193 22.4889 7.64014 23.6287 7.64014 24.8168Z" fill="#FBCB74"/>
<path d="M12.0966 22.0955C12.9461 22.0955 13.6347 22.7841 13.6347 23.6335V24.9534C13.6347 25.8029 12.9461 26.4915 12.0966 26.4915C11.2472 26.4915 10.5586 25.8029 10.5586 24.9534V23.6334C10.5587 22.7841 11.2473 22.0955 12.0966 22.0955Z" fill="#3F6C8E"/>
<path d="M11.2393 26.2306C11.4841 26.3953 11.7797 26.4915 12.0969 26.4915C12.9461 26.4915 13.6351 25.8032 13.6351 24.9533V23.6338C13.6351 22.9478 13.1863 22.3674 12.5665 22.1687C12.3394 23.6114 11.8844 24.978 11.2393 26.2306Z" fill="#3F5D77"/>
<path d="M2.68799 12.5305L3.21619 17.7023C3.35932 19.1021 4.16307 20.2559 5.27182 20.9117C6.17862 21.4481 7.28901 21.6509 8.40846 21.3818L12.7282 20.3442L17.4446 19.2109C18.0252 19.071 18.434 18.5526 18.434 17.9557C18.434 17.6941 18.3547 17.4447 18.2141 17.2362C18.0742 17.0277 17.8731 16.86 17.6311 16.7611L11.4241 14.2296L9.52213 13.4535L4.29963 11.3235C3.47955 10.9892 2.59807 11.649 2.68799 12.5305Z" fill="#FBCB74"/>
<path d="M2.68799 12.5305L3.21619 17.7023C3.35932 19.1021 4.16307 20.2559 5.27182 20.9117C6.17862 21.4481 7.28901 21.6509 8.40846 21.3818L12.7282 20.3442C12.7306 20.2436 12.7315 20.143 12.7315 20.0424C12.7315 17.9623 12.2621 15.9909 11.424 14.2296L9.52205 13.4535L4.29955 11.3235C3.47955 10.9892 2.59807 11.649 2.68799 12.5305Z" fill="#FBD9A3"/>
<path d="M2.68799 12.5309L3.21619 17.7027C3.35932 19.1026 4.16307 20.2563 5.27182 20.9121V15.7874C5.27182 14.4988 6.31651 13.4541 7.60518 13.4541H9.52213L4.29963 11.3241C3.47955 10.9896 2.59807 11.6495 2.68799 12.5309Z" fill="#3F5D77"/>
<path d="M8.27654 14.9971C8.96459 14.9971 9.52232 15.5548 9.52232 16.2429V17.2527C9.52232 17.9407 8.96459 18.4985 8.27654 18.4985C7.5885 18.4985 7.03076 17.9407 7.03076 17.2527V16.2429C7.03076 15.5549 7.5885 14.9971 8.27654 14.9971Z" fill="#3F5D77"/>
</svg>
