<svg width="40" height="40" viewBox="0 0 40 40" fill="none" xmlns="http://www.w3.org/2000/svg">
<path d="M40 20C40 31.0458 31.0458 40 20 40C8.95416 40 0 31.0458 0 20C0 8.95416 8.95416 0 20 0C31.0458 0 40 8.95416 40 20Z" fill="#673389"/>
<path d="M10.1182 25.4139C11.2501 26.5458 13.0848 26.5458 14.2167 25.4139C15.3483 24.2823 15.3483 22.4473 14.2167 21.3157" fill="#D65A05"/>
<path d="M29.8818 25.4139C28.7499 26.5458 26.9152 26.5458 25.7833 25.4139C24.6517 24.2823 24.6517 22.4473 25.7833 21.3157" fill="#D65A05"/>
<path d="M19.21 4.53308C20.0474 5.37048 21.4051 5.37048 22.2428 4.53308C23.0802 3.69568 23.0802 2.33765 22.2428 1.50024L19.21 4.53308Z" fill="#F46D11"/>
<path d="M29.8531 35.1234V37.4082C28.6785 38.0735 27.4303 38.6252 26.1226 39.0439C25.9871 39.0882 25.8516 39.1297 25.7143 39.1706C25.2059 39.3226 24.6883 39.4547 24.1634 39.5649C23.9333 39.6137 23.7023 39.6589 23.4694 39.6989C22.3421 39.8972 21.183 40.0001 20.0002 40.0001C18.8173 40.0001 17.658 39.8972 16.5306 39.6995C16.2981 39.6595 16.0671 39.6146 15.837 39.5658C15.2269 39.4367 14.6288 39.2798 14.041 39.097C14.0084 39.0864 13.9757 39.0766 13.9431 39.0662C13.9211 39.0595 13.8997 39.0522 13.8777 39.0449C12.5707 38.6262 11.3219 38.0744 10.147 37.4082V35.1234C10.147 32.3664 11.6475 29.9601 13.8777 28.6774C14.4826 28.3289 15.1406 28.0637 15.837 27.8971C16.205 27.8083 16.5837 27.7469 16.9716 27.7158C17.1724 27.6996 17.3748 27.6914 17.5798 27.6914H22.4196C22.9918 27.6914 23.5488 27.7552 24.0834 27.8776C24.1103 27.884 24.1371 27.8898 24.1634 27.8962C24.8598 28.0637 25.5178 28.3289 26.1226 28.6774C28.3519 29.9607 29.8531 32.3673 29.8531 35.1234Z" fill="#0C85A5"/>
<path d="M29.8534 35.1234V37.4082C27.0861 38.9786 23.9064 39.9076 20.5172 39.9933C20.345 39.9976 20.1735 40.0001 20.0005 40.0001C19.8275 40.0001 19.655 39.9976 19.4838 39.9927C17.5563 39.9445 15.6975 39.6229 13.9434 39.0662V35.1234C13.9434 31.0187 17.2713 27.6914 21.3768 27.6914H22.4199C26.5261 27.6914 29.8534 31.0187 29.8534 35.1234Z" fill="#1DA2DD"/>
<path d="M23.2112 27.8596V28.0448C23.2112 29.4611 22.3027 30.6937 20.9492 31.1118C20.6431 31.2073 20.323 31.2556 19.9998 31.2556C18.2292 31.2556 16.7891 29.8154 16.7891 28.0448V27.7134C16.9703 27.6987 17.1531 27.6914 17.3384 27.6914H21.7091C22.2258 27.6914 22.7287 27.7494 23.2112 27.8596Z" fill="#F2EFEA"/>
<path d="M22.6518 24.8281V28.0825C22.6518 29.2739 21.8663 30.281 20.7841 30.6155C20.5366 30.6921 20.2726 30.7339 19.9995 30.7339C18.5353 30.7339 17.3481 29.5468 17.3481 28.0825V24.8281H22.6518Z" fill="#EAA27F"/>
<path d="M22.6519 27.8762V28.0825C22.6519 29.2739 21.8663 30.281 20.7842 30.6155C19.8079 30.3152 19.074 29.4665 18.9385 28.4277C19.1155 28.4387 19.2937 28.4442 19.4725 28.4442C19.9742 28.4442 20.4662 28.4042 20.9453 28.3254C21.5355 28.2308 22.1059 28.0789 22.6519 27.8762Z" fill="#F6BA97"/>
<path d="M12.6058 19.4946C12.6058 20.7224 11.7092 21.7401 10.5349 21.929C10.4064 21.9501 10.2745 21.9608 10.1396 21.9608C8.77765 21.9608 7.67383 20.8569 7.67383 19.4946C7.67383 18.1326 8.77765 17.0288 10.1396 17.0288C10.2745 17.0288 10.4064 17.0395 10.5349 17.0605C11.7092 17.2495 12.6058 18.2672 12.6058 19.4946Z" fill="#F6BA97"/>
<path d="M12.6061 19.4946C12.6061 20.7224 11.7095 21.7401 10.5352 21.929C10.3218 21.1536 10.208 20.3372 10.208 19.4946C10.208 18.6523 10.3218 17.836 10.5352 17.0605C11.7095 17.2495 12.6061 18.2672 12.6061 19.4946Z" fill="#EAA27F"/>
<path d="M11.0213 19.4946C11.0213 19.9817 10.6267 20.3763 10.1396 20.3763C9.65289 20.3763 9.2583 19.9817 9.2583 19.4946C9.2583 19.0079 9.65289 18.6133 10.1396 18.6133C10.6267 18.6133 11.0213 19.0079 11.0213 19.4946Z" fill="#EAA27F"/>
<path d="M27.3936 19.4946C27.3936 20.7224 28.2902 21.7401 29.4645 21.929C29.593 21.9501 29.7248 21.9608 29.8597 21.9608C31.222 21.9608 32.3255 20.8569 32.3255 19.4946C32.3255 18.1326 31.222 17.0288 29.8597 17.0288C29.7248 17.0288 29.593 17.0395 29.4645 17.0605C28.2902 17.2495 27.3936 18.2672 27.3936 19.4946Z" fill="#F6BA97"/>
<path d="M27.3936 19.4946C27.3936 20.7224 28.2902 21.7401 29.4645 21.929C29.6778 21.1536 29.7919 20.3372 29.7919 19.4946C29.7919 18.6523 29.6781 17.836 29.4645 17.0605C28.2902 17.2495 27.3936 18.2672 27.3936 19.4946Z" fill="#EAA27F"/>
<path d="M30.7412 19.4946C30.7412 19.9817 30.3466 20.3763 29.8599 20.3763C29.3731 20.3763 28.9785 19.9817 28.9785 19.4946C28.9785 19.0079 29.3731 18.6133 29.8599 18.6133C30.3466 18.6133 30.7412 19.0079 30.7412 19.4946Z" fill="#EAA27F"/>
<path d="M29.1749 14.6906V18.1845C29.1749 22.7502 25.8397 26.5378 21.4723 27.2406C21.4576 27.243 21.4421 27.2455 21.4274 27.2482C20.963 27.3224 20.486 27.359 19.9995 27.359C14.9327 27.359 10.8247 23.2513 10.8247 18.1845V14.6906C10.8247 13.6237 11.0069 12.5983 11.3432 11.6455C12.5978 8.07495 16.0005 5.51514 19.9995 5.51514H20.0004C20.486 5.51514 20.9636 5.55267 21.429 5.62592C25.8174 6.31165 29.1749 10.1093 29.1749 14.6906Z" fill="#EAA27F"/>
<path d="M29.175 14.6906V18.1846C29.175 22.7503 25.8397 26.5378 21.4724 27.2407C21.4577 27.2431 21.4421 27.2455 21.4275 27.2483C17.0388 26.5626 13.6821 22.765 13.6821 18.1846V14.6906C13.6821 10.1093 17.0397 6.31171 21.429 5.62598C25.8174 6.31171 29.175 10.1093 29.175 14.6906Z" fill="#F6BA97"/>
<path d="M26.2448 20.5933C26.2448 21.2247 25.733 21.7362 25.1019 21.7362C24.4708 21.7362 23.959 21.2247 23.959 20.5933C23.959 19.9622 24.4708 19.4504 25.1019 19.4504C25.733 19.4504 26.2448 19.9622 26.2448 20.5933Z" fill="#EAA27F"/>
<path d="M16.0406 20.5933C16.0406 21.2247 15.5289 21.7362 14.8978 21.7362C14.2667 21.7362 13.7549 21.2247 13.7549 20.5933C13.7549 19.9622 14.2667 19.4504 14.8978 19.4504C15.5289 19.4504 16.0406 19.9622 16.0406 20.5933Z" fill="#EAA27F"/>
<path d="M24.9272 17.4098C24.9272 16.5681 24.2448 15.8857 23.4034 15.8857C22.5618 15.8857 21.8794 16.5681 21.8794 17.4098" fill="#EAA27F"/>
<path d="M18.121 17.4098C18.121 16.5681 17.4387 15.8857 16.5973 15.8857C15.7556 15.8857 15.0732 16.5681 15.0732 17.4098" fill="#EAA27F"/>
<path d="M17.6378 18.0582C17.6378 18.6332 17.1718 19.0992 16.5971 19.0992C16.0222 19.0992 15.5562 18.6332 15.5562 18.0582C15.5562 17.4836 16.0222 17.0176 16.5971 17.0176C17.1718 17.0176 17.6378 17.4836 17.6378 18.0582Z" fill="#2F373B"/>
<path d="M24.4439 18.0582C24.4439 18.6332 23.9779 19.0992 23.4033 19.0992C22.8283 19.0992 22.3623 18.6332 22.3623 18.0582C22.3623 17.4836 22.8283 17.0176 23.4033 17.0176C23.9779 17.0176 24.4439 17.4836 24.4439 18.0582Z" fill="#2F373B"/>
<path d="M21.0408 20.6786H18.9592C18.7114 20.6786 18.5103 20.4778 18.5103 20.2297C18.5103 19.9819 18.7114 19.7808 18.9592 19.7808H21.0408C21.2889 19.7808 21.49 19.9819 21.49 20.2297C21.49 20.4778 21.2889 20.6786 21.0408 20.6786Z" fill="#EAA27F"/>
<path d="M19.9999 23.5194C19.2314 23.5194 18.4633 23.3271 17.7629 22.942C17.5655 22.8333 17.4932 22.5852 17.6018 22.3878C17.7105 22.1903 17.9586 22.1183 18.156 22.2266C19.3105 22.8614 20.689 22.8614 21.8434 22.2266C22.0409 22.118 22.289 22.19 22.3976 22.3878C22.5063 22.5852 22.4343 22.8333 22.2365 22.942C21.5364 23.3271 20.768 23.5194 19.9999 23.5194Z" fill="#EAA27F"/>
<path d="M17.4257 17.8749C17.4257 18.1212 17.2261 18.3207 16.9799 18.3207C16.7333 18.3207 16.5337 18.1212 16.5337 17.8749C16.5337 17.6283 16.7333 17.4287 16.9799 17.4287C17.2261 17.4287 17.4257 17.6283 17.4257 17.8749Z" fill="white"/>
<path d="M24.2828 17.8749C24.2828 18.1212 24.0833 18.3207 23.837 18.3207C23.5907 18.3207 23.3911 18.1212 23.3911 17.8749C23.3911 17.6283 23.5907 17.4287 23.837 17.4287C24.0833 17.4287 24.2828 17.6283 24.2828 17.8749Z" fill="white"/>
<path d="M29.9577 14.7159C29.9577 14.7159 30.4066 17.6548 27.7534 18.5526L26.4491 12.92V14.8792C22.1226 14.8792 20.9797 12.0222 20.9797 12.0222V14.0629C17.7958 14.9607 14.3675 13.1647 14.3675 13.1647V16.2668C13.3061 16.2668 12.4083 15.5323 12.4083 15.5323L12.245 18.5526C9.5918 17.6548 10.041 14.7159 10.041 14.7159H8.73486C8.73486 11.0425 12.0817 9.08331 12.0817 9.08331H9.95923C11.4726 5.60156 14.951 4.42785 17.3869 4.03906C18.6116 3.84405 19.5723 3.84741 19.8881 3.85473C19.9608 3.85626 19.9992 3.8587 19.9992 3.8587C19.9992 3.8587 20.0386 3.85626 20.1112 3.85534C20.4277 3.84741 21.3887 3.84405 22.6115 4.03906C25.0474 4.42785 28.5258 5.60156 30.0392 9.08331H27.9167C27.9167 9.08331 31.2639 11.0425 31.2639 14.7159H29.9577Z" fill="#F46D11"/>
<path d="M20.9797 14.0628C17.7958 14.9606 14.3675 13.1647 14.3675 13.1647V16.2668C13.3061 16.2668 12.4083 15.5322 12.4083 15.5322L12.245 18.5526C9.5918 17.6547 10.041 14.7159 10.041 14.7159H8.73486C8.73486 11.0425 12.0817 9.08325 12.0817 9.08325H9.95923C11.4726 5.6015 14.951 4.4278 17.3869 4.039C16.9453 3.22601 17.0686 2.18781 17.7559 1.50024L19.8628 3.60718L19.9583 3.78448L19.9992 3.85864C19.9992 3.85864 19.9412 3.87329 19.8384 3.90442C19.5167 4.00146 18.7578 4.25964 17.982 4.72961C16.9038 5.38361 15.796 6.44897 15.796 8.06274L18.2832 7.45148C18.1779 7.49207 14.618 8.87817 15.0206 11.5323L18.2042 11.0425C18.2042 11.0425 17.285 13.4277 20.9797 14.0628Z" fill="#D65A05"/>
<path d="M20.5167 30.906V39.9932C20.3446 39.9975 20.1731 39.9999 20.0001 39.9999C19.827 39.9999 19.6546 39.9975 19.4834 39.9926V30.906H20.5167Z" fill="#F2EFEA"/>
<path d="M22.9664 32.9198C22.9664 33.4157 22.5645 33.8176 22.0682 33.8176C21.5723 33.8176 21.1704 33.4157 21.1704 32.9198C21.1704 32.4239 21.5723 32.022 22.0682 32.022C22.5645 32.022 22.9664 32.4239 22.9664 32.9198Z" fill="#0C85A5"/>
<path d="M22.9664 36.7294C22.9664 37.2253 22.5645 37.6275 22.0682 37.6275C21.5723 37.6275 21.1704 37.2253 21.1704 36.7294C21.1704 36.2335 21.5723 35.8315 22.0682 35.8315C22.5645 35.8315 22.9664 36.2335 22.9664 36.7294Z" fill="#0C85A5"/>
<path d="M18.8301 32.9198C18.8301 33.4157 18.4279 33.8176 17.932 33.8176C17.4361 33.8176 17.0342 33.4157 17.0342 32.9198C17.0342 32.4239 17.4361 32.022 17.932 32.022C18.4279 32.022 18.8301 32.4239 18.8301 32.9198Z" fill="#0C85A5"/>
<path d="M18.8301 36.7294C18.8301 37.2253 18.4279 37.6275 17.932 37.6275C17.4361 37.6275 17.0342 37.2253 17.0342 36.7294C17.0342 36.2335 17.4361 35.8315 17.932 35.8315C18.4279 35.8315 18.8301 36.2335 18.8301 36.7294Z" fill="#0C85A5"/>
<path d="M31.517 21.7743C31.517 22.1616 31.203 22.4753 30.8157 22.4753C30.4285 22.4753 30.1147 22.1616 30.1147 21.7743C30.1147 21.387 30.4285 21.073 30.8157 21.073C31.203 21.073 31.517 21.387 31.517 21.7743Z" fill="#1DA2DD"/>
<path d="M9.88568 21.7743C9.88568 22.1616 9.57166 22.4753 9.18439 22.4753C8.79712 22.4753 8.4834 22.1616 8.4834 21.7743C8.4834 21.387 8.79712 21.073 9.18439 21.073C9.57166 21.073 9.88568 21.387 9.88568 21.7743Z" fill="#1DA2DD"/>
</svg>
