<svg width="40" height="40" viewBox="0 0 40 40" fill="none" xmlns="http://www.w3.org/2000/svg">
<path d="M40 20C40 31.0458 31.0455 40 20 40C8.95416 40 0 31.0458 0 20C0 8.95447 8.95416 0 20 0C31.0455 0 40 8.95447 40 20Z" fill="#F46D11"/>
<path d="M34.8049 14.8056C34.8049 21.5811 30.2532 27.2937 24.0411 29.0521C22.756 29.4162 21.401 29.6106 20.0002 29.6106C11.8231 29.6106 5.19434 22.9819 5.19434 14.8056C5.19434 6.62842 11.8231 0 20.0002 0C21.401 0 22.756 0.194397 24.0411 0.558472C30.2532 2.31659 34.8049 8.02948 34.8049 14.8056Z" fill="#151A1C"/>
<path d="M34.8048 14.8057C34.8048 21.5812 30.2531 27.2938 24.041 29.0522C17.8279 27.2947 13.2759 21.5812 13.2759 14.8057C13.2759 8.0296 17.8279 2.31671 24.041 0.558594C30.2531 2.31671 34.8048 8.0296 34.8048 14.8057Z" fill="#2F373B"/>
<path d="M29.8531 35.1234V37.4082C28.6891 38.0686 27.4523 38.6155 26.1577 39.0336C24.218 39.6613 22.1486 40.0001 20.0002 40.0001C18.2125 40.0001 16.4794 39.7657 14.8302 39.325C14.5314 39.2457 14.236 39.1593 13.9431 39.0662C13.9095 39.0555 13.8759 39.0449 13.8427 39.0336C13.3748 38.8831 12.9143 38.715 12.463 38.5306C11.6637 38.2056 10.8907 37.8303 10.147 37.4082V35.1234C10.147 33.5584 10.631 32.1061 11.4571 30.9086C12.5258 29.3577 14.1692 28.2334 16.0802 27.8425C16.3716 27.783 16.6686 27.7405 16.9716 27.7158C17.1724 27.6996 17.3748 27.6914 17.5795 27.6914H22.4196C22.9412 27.6914 23.4499 27.7445 23.9406 27.8464C23.9885 27.8562 24.0361 27.8669 24.0834 27.8776C25.9243 28.2987 27.5038 29.4025 28.543 30.9086C29.3691 32.1061 29.8531 33.5584 29.8531 35.1234Z" fill="#E89F18"/>
<path d="M29.8529 35.1234V37.4082C26.9452 39.058 23.5828 40.0001 20 40.0001C17.8882 40.0001 15.8539 39.6726 13.9429 39.0662V35.1234C13.9429 31.0187 17.2711 27.6914 21.3763 27.6914H22.4194C26.5256 27.6914 29.8529 31.0187 29.8529 35.1234Z" fill="#FFE05C"/>
<path d="M23.3474 30.7158C23.3474 32.4504 22.0275 33.8774 20.3368 34.0462C20.2266 34.0569 20.1137 34.0627 20.0005 34.0627C19.8879 34.0627 19.7759 34.0569 19.6657 34.0462C17.9741 33.8781 16.6533 32.4514 16.6533 30.7158C16.6533 28.8677 18.1523 27.3687 20.0005 27.3687C21.8486 27.3687 23.3474 28.8677 23.3474 30.7158Z" fill="#F2EFEA"/>
<path d="M19.9993 30.734L16.653 32.5934L15.6353 27.8589L17.7144 26.6343" fill="#D8D4CE"/>
<path d="M19.9995 30.734L23.3455 32.5934L24.3635 27.8589L22.2844 26.6343" fill="#D8D4CE"/>
<path d="M22.6518 24.8281V28.0825C22.6518 29.2739 21.866 30.281 20.7841 30.6155C20.5363 30.6921 20.2723 30.7339 19.9995 30.7339C18.535 30.7339 17.3481 29.5468 17.3481 28.0825V24.8281H22.6518Z" fill="#BF7C5E"/>
<path d="M22.6517 27.8762V28.0825C22.6517 29.2739 21.8658 30.281 20.784 30.6155C19.8077 30.3152 19.0738 29.4665 18.938 28.4277C19.1153 28.4387 19.2932 28.4442 19.4724 28.4442C19.9741 28.4442 20.4657 28.4042 20.9448 28.3257C21.535 28.2308 22.1057 28.0789 22.6517 27.8762Z" fill="#D39272"/>
<path d="M13.8427 35.1232V39.0334C13.3748 38.883 12.9143 38.7148 12.463 38.5305C11.6637 38.2055 10.8907 37.8301 10.147 37.4081V35.1232C10.147 33.5583 10.631 32.106 11.4571 30.9084L13.8427 35.1232Z" fill="#D8D4CE"/>
<path d="M29.8531 35.1232V37.4081C28.6891 38.0685 27.4523 38.6154 26.1577 39.0334V35.1232L28.543 30.9084C29.3691 32.106 29.8531 33.5583 29.8531 35.1232Z" fill="#F2EFEA"/>
<path d="M12.7254 19.4949C12.7254 20.7227 11.8288 21.7404 10.6545 21.9293C10.5263 21.9501 10.3942 21.9611 10.2596 21.9611C8.89728 21.9611 7.79346 20.8572 7.79346 19.4949C7.79346 18.1326 8.89728 17.0288 10.2596 17.0288C10.3942 17.0288 10.5263 17.0398 10.6545 17.0605C11.8288 17.2495 12.7254 18.2675 12.7254 19.4949Z" fill="#D39272"/>
<path d="M12.7252 19.4949C12.7252 20.7227 11.8286 21.7404 10.6543 21.9293C10.441 21.1539 10.3271 20.3375 10.3271 19.4949C10.3271 18.6523 10.441 17.8363 10.6543 17.0605C11.8286 17.2495 12.7252 18.2675 12.7252 19.4949Z" fill="#BF7C5E"/>
<path d="M11.1406 19.4949C11.1406 19.9816 10.746 20.3762 10.2593 20.3762C9.77252 20.3762 9.37793 19.9816 9.37793 19.4949C9.37793 19.0081 9.77252 18.6135 10.2593 18.6135C10.746 18.6135 11.1406 19.0081 11.1406 19.4949Z" fill="#BF7C5E"/>
<path d="M27.2734 19.4949C27.2734 20.7227 28.17 21.7404 29.3444 21.9293C29.4728 21.9501 29.6047 21.9611 29.7393 21.9611C31.1016 21.9611 32.2054 20.8572 32.2054 19.4949C32.2054 18.1326 31.1016 17.0288 29.7393 17.0288C29.6047 17.0288 29.4728 17.0398 29.3444 17.0605C28.17 17.2495 27.2734 18.2675 27.2734 19.4949Z" fill="#D39272"/>
<path d="M27.2734 19.4949C27.2734 20.7227 28.17 21.7404 29.3444 21.9293C29.5577 21.1539 29.6715 20.3375 29.6715 19.4949C29.6715 18.6523 29.5577 17.8363 29.3444 17.0605C28.17 17.2495 27.2734 18.2675 27.2734 19.4949Z" fill="#BF7C5E"/>
<path d="M30.6209 19.4949C30.6209 19.9816 30.2263 20.3762 29.7393 20.3762C29.2525 20.3762 28.8579 19.9816 28.8579 19.4949C28.8579 19.0081 29.2525 18.6135 29.7393 18.6135C30.2263 18.6135 30.6209 19.0081 30.6209 19.4949Z" fill="#BF7C5E"/>
<path d="M29.175 18.1845C29.175 22.7502 25.8395 26.5378 21.4724 27.2409C20.993 27.3199 20.5016 27.359 19.9996 27.359C14.9319 27.359 10.8242 23.2513 10.8242 18.1845C10.8242 16.4636 11.2975 14.8529 12.123 13.4766H27.8762C28.7017 14.8529 29.175 16.4636 29.175 18.1845Z" fill="#BF7C5E"/>
<path d="M29.1746 18.1845C29.1746 22.7502 25.8391 26.5378 21.472 27.2409C17.1046 26.5378 13.769 22.7502 13.769 18.1845C13.769 16.4636 14.2424 14.8529 15.0679 13.4766H27.8758C28.5527 14.6057 28.9933 15.8923 29.1298 17.2693C29.1591 17.5705 29.1746 17.876 29.1746 18.1845Z" fill="#D39272"/>
<path d="M9.59961 10.2932H12.1347V17.0947H9.59961V10.2932Z" fill="#151A1C"/>
<path d="M27.8193 10.2932H30.3541V17.0947H27.8193V10.2932Z" fill="#2F373B"/>
<path d="M26.2448 20.5936C26.2448 21.2247 25.733 21.7361 25.1019 21.7361C24.4705 21.7361 23.959 21.2247 23.959 20.5936C23.959 19.9622 24.4705 19.4507 25.1019 19.4507C25.733 19.4507 26.2448 19.9622 26.2448 20.5936Z" fill="#BF7C5E"/>
<path d="M16.0406 20.5936C16.0406 21.2247 15.5289 21.7361 14.8978 21.7361C14.2667 21.7361 13.7549 21.2247 13.7549 20.5936C13.7549 19.9622 14.2667 19.4507 14.8978 19.4507C15.5289 19.4507 16.0406 19.9622 16.0406 20.5936Z" fill="#BF7C5E"/>
<path d="M24.9272 17.4098C24.9272 16.5681 24.2448 15.8857 23.4031 15.8857C22.5618 15.8857 21.8794 16.5681 21.8794 17.4098" fill="#BF7C5E"/>
<path d="M18.121 17.4098C18.121 16.5681 17.4387 15.8857 16.597 15.8857C15.7556 15.8857 15.0732 16.5681 15.0732 17.4098" fill="#BF7C5E"/>
<path d="M17.6378 18.0585C17.6378 18.6332 17.1718 19.0992 16.5968 19.0992C16.0222 19.0992 15.5562 18.6332 15.5562 18.0585C15.5562 17.4836 16.0222 17.0176 16.5968 17.0176C17.1718 17.0176 17.6378 17.4836 17.6378 18.0585Z" fill="#2F373B"/>
<path d="M24.4439 18.0585C24.4439 18.6332 23.9779 19.0992 23.403 19.0992C22.8283 19.0992 22.3623 18.6332 22.3623 18.0585C22.3623 17.4836 22.8283 17.0176 23.403 17.0176C23.9779 17.0176 24.4439 17.4836 24.4439 18.0585Z" fill="#2F373B"/>
<path d="M21.0408 20.6789H18.9592C18.7111 20.6789 18.5103 20.4778 18.5103 20.2297C18.5103 19.9819 18.7111 19.7808 18.9592 19.7808H21.0408C21.2889 19.7808 21.4897 19.9819 21.4897 20.2297C21.4897 20.4778 21.2889 20.6789 21.0408 20.6789Z" fill="#BF7C5E"/>
<path d="M19.9996 23.5195C19.2315 23.5195 18.4631 23.3269 17.763 22.9418C17.5653 22.8335 17.4932 22.5851 17.6019 22.3876C17.7105 22.1902 17.9586 22.1182 18.1561 22.2265C19.3106 22.8613 20.689 22.8613 21.8432 22.2265C22.0406 22.1182 22.2891 22.1899 22.3977 22.3876C22.5063 22.5851 22.434 22.8335 22.2366 22.9418C21.5362 23.3269 20.7681 23.5195 19.9996 23.5195Z" fill="#BF7C5E"/>
<path d="M17.4254 17.8749C17.4254 18.1212 17.2258 18.3207 16.9796 18.3207C16.7333 18.3207 16.5337 18.1212 16.5337 17.8749C16.5337 17.6286 16.7333 17.4287 16.9796 17.4287C17.2258 17.4287 17.4254 17.6286 17.4254 17.8749Z" fill="white"/>
<path d="M24.2828 17.8749C24.2828 18.1212 24.0833 18.3207 23.837 18.3207C23.5907 18.3207 23.3911 18.1212 23.3911 17.8749C23.3911 17.6286 23.5907 17.4287 23.837 17.4287C24.0833 17.4287 24.2828 17.6286 24.2828 17.8749Z" fill="white"/>
<path d="M31.517 21.7742C31.517 22.1615 31.203 22.4755 30.8157 22.4755C30.4285 22.4755 30.1147 22.1615 30.1147 21.7742C30.1147 21.387 30.4285 21.0732 30.8157 21.0732C31.203 21.0732 31.517 21.387 31.517 21.7742Z" fill="#FFE05C"/>
<path d="M9.88568 21.7742C9.88568 22.1615 9.57166 22.4755 9.18439 22.4755C8.79712 22.4755 8.4834 22.1615 8.4834 21.7742C8.4834 21.387 8.79712 21.0732 9.18439 21.0732C9.57166 21.0732 9.88568 21.387 9.88568 21.7742Z" fill="#FFE05C"/>
</svg>
