<svg width="40" height="40" viewBox="0 0 40 40" fill="none" xmlns="http://www.w3.org/2000/svg">
<path d="M20 40C31.0457 40 40 31.0457 40 20C40 8.9543 31.0457 0 20 0C8.9543 0 0 8.9543 0 20C0 31.0457 8.9543 40 20 40Z" fill="#22BCE0"/>
<path d="M38.1184 12.944L38.2511 13.5775C38.674 15.5969 37.3795 17.5772 35.3601 18L29.4588 19.2358C28.3983 19.4579 27.359 18.7785 27.1371 17.7187C27.0403 17.2566 27.1151 16.7934 27.3224 16.4005C27.5304 16.0075 27.8715 15.6847 28.3068 15.504L32.3254 13.8418L36.5281 12.1036C37.2047 11.8236 37.9685 12.2277 38.1184 12.944Z" fill="white"/>
<path d="M38.1183 12.944L38.251 13.5776C38.6739 15.5969 37.3794 17.5772 35.36 18.0001L35.1821 18.0373C33.7924 17.2273 32.7375 15.8543 32.3818 14.1558C32.3598 14.0511 32.3406 13.9465 32.3252 13.8418L36.5279 12.1036C37.2046 11.8236 37.9684 12.2277 38.1183 12.944Z" fill="#3E4E60"/>
<path d="M34.7054 17.102L29.8272 18.6131L29.6152 18.6786C29.5726 18.6921 29.5301 18.703 29.4873 18.712C28.7944 18.8571 28.0918 18.4527 27.8783 17.763C27.6518 17.0306 28.0615 16.2531 28.7939 16.026L33.7215 14.4999L33.8834 14.4495C33.926 14.436 33.9685 14.4251 34.0113 14.4161C34.7042 14.271 35.4067 14.6748 35.6204 15.3651C35.8474 16.0974 35.4377 16.8749 34.7054 17.102Z" fill="#F4829B"/>
<path d="M34.7058 17.1018L29.8276 18.613C30.3483 16.8784 31.7741 15.3465 33.7219 14.4996L33.8837 14.4492C33.9263 14.4357 33.9688 14.4249 34.0116 14.4159C34.7045 14.2708 35.407 14.6745 35.6207 15.3649C35.8478 16.0973 35.4381 16.8748 34.7058 17.1018Z" fill="#FF9FB4"/>
<path d="M1.88117 12.944L1.74852 13.5775C1.32563 15.5969 2.62008 17.5772 4.63953 18L10.5408 19.2358C11.6013 19.4579 12.6405 18.7785 12.8625 17.7187C12.9593 17.2566 12.8845 16.7934 12.6772 16.4005C12.4692 16.0075 12.1281 15.6847 11.6928 15.504L7.67422 13.8418L3.47149 12.1036C2.79492 11.8236 2.0311 12.2277 1.88117 12.944Z" fill="#EBD9EA"/>
<path d="M1.88117 12.944L1.74852 13.5776C1.32563 15.5969 2.62008 17.5772 4.63953 18.0001L4.81735 18.0373C6.20711 17.2273 7.26203 15.8543 7.61774 14.1558C7.63969 14.0511 7.65891 13.9465 7.6743 13.8418L3.47156 12.1036C2.79492 11.8236 2.0311 12.2277 1.88117 12.944Z" fill="#2E3140"/>
<path d="M5.29403 17.102L10.1722 18.6131L10.3842 18.6786C10.4268 18.6921 10.4693 18.703 10.5121 18.712C11.205 18.8571 11.9076 18.4527 12.1211 17.763C12.3476 17.0306 11.9379 16.2531 11.2055 16.026L6.27786 14.4999L6.11598 14.4495C6.0734 14.436 6.0309 14.4251 5.98809 14.4161C5.2952 14.271 4.5927 14.6748 4.37903 15.3651C4.152 16.0974 4.56168 16.8749 5.29403 17.102Z" fill="#EE6781"/>
<path d="M5.29447 17.1018L10.1726 18.613C9.65197 16.8784 8.22611 15.3465 6.27838 14.4996L6.1165 14.4492C6.07393 14.4357 6.03143 14.4249 5.98861 14.4159C5.29572 14.2708 4.59322 14.6745 4.37955 15.3649C4.15244 16.0973 4.56213 16.8748 5.29447 17.1018Z" fill="#F4829B"/>
<path d="M28.5913 17.081L26.1106 32.7173C25.7489 34.9972 23.7829 36.6762 21.4744 36.6762H18.525C16.2165 36.6762 14.2505 34.9972 13.8889 32.7173L11.4081 17.081C11.1412 15.4037 11.9411 13.836 13.2663 13.0083C13.3836 12.9352 13.4975 12.8561 13.6063 12.7718C14.121 12.3787 14.5419 11.8753 14.8575 11.304C15.4679 10.2015 16.6426 9.45459 17.9921 9.45459H22.0075C23.3569 9.45459 24.5316 10.2015 25.142 11.304C25.4576 11.8753 25.8785 12.3787 26.3932 12.7718C26.5019 12.8562 26.6158 12.9352 26.7332 13.0083C27.2862 13.3544 27.7479 13.8282 28.0784 14.3865C28.54 15.1637 28.747 16.1037 28.5913 17.081Z" fill="#EBD9EA"/>
<path d="M28.5916 17.0811L26.1109 32.7174C25.7491 34.9972 23.7832 36.6762 21.4747 36.6762H20V17.3184C20 15.6994 21.313 14.3865 22.932 14.3865H28.0786C28.5403 15.1638 28.7473 16.1037 28.5916 17.0811Z" fill="white"/>
<path d="M21.6317 10.0959H18.3681C17.6581 10.0959 17.0825 10.6716 17.0825 11.3816C17.0825 12.0916 17.6581 12.6672 18.3681 12.6672H21.6317C22.3418 12.6672 22.9174 12.0916 22.9174 11.3816C22.9174 10.6716 22.3418 10.0959 21.6317 10.0959Z" fill="white"/>
<path d="M28.5916 17.081L26.1109 32.7174H23.9224C22.8998 32.7174 22.0382 31.9531 21.9173 30.9375L21.1574 24.5819C21.0363 23.5691 20.9756 22.55 20.9756 21.53V20.6322C20.9756 20.0749 21.2017 19.5697 21.5668 19.2045C21.9379 18.8342 22.452 18.607 23.0185 18.6133C24.1261 18.6256 25.0144 17.6924 25.0144 16.5847V14.6864C25.0144 13.7952 25.5918 13.0387 26.3935 12.7717C26.5021 12.8561 26.6161 12.9352 26.7335 13.0082C28.0586 13.836 28.8586 15.4038 28.5916 17.081Z" fill="#3E4E60"/>
<path d="M19.0241 20.6321V21.5299C19.0241 22.5499 18.9634 23.5691 18.8423 24.5818L18.0824 30.9374C17.9616 31.953 17.0999 32.7173 16.0774 32.7173H13.8888L11.4081 17.0809C11.1412 15.4037 11.9411 13.8359 13.2663 13.0082C13.3836 12.9352 13.4975 12.856 13.6063 12.7717C14.408 13.0387 14.9853 13.7952 14.9853 14.6864V16.5847C14.9853 17.6924 15.8737 18.6256 16.9813 18.6133C17.5478 18.607 18.0618 18.8342 18.4329 19.2045C18.798 19.5695 19.0241 20.0748 19.0241 20.6321Z" fill="#2E3140"/>
<path d="M13.6376 31.132H14.8512C15.9502 31.132 16.8757 30.3106 17.0062 29.2194L17.3049 26.7224C17.4594 25.4308 16.4507 24.2942 15.1498 24.2942H12.5527L13.6376 31.132Z" fill="#3E4E60"/>
<path d="M26.3621 31.132H25.1485C24.0496 31.132 23.124 30.3106 22.9935 29.2194L22.6949 26.7224C22.5403 25.4308 23.549 24.2942 24.8499 24.2942H27.447L26.3621 31.132Z" fill="#3F5D77"/>
<path d="M26.7224 18.613C26.2051 18.613 25.7856 18.1936 25.7856 17.6762V15.4656C25.7856 14.9483 26.2051 14.5288 26.7224 14.5288C27.2398 14.5288 27.6592 14.9483 27.6592 15.4656V17.6762C27.6592 18.1936 27.2398 18.613 26.7224 18.613Z" fill="#3F5D77"/>
<path d="M13.2771 18.613C12.7598 18.613 12.3403 18.1936 12.3403 17.6762V15.4656C12.3403 14.9483 12.7598 14.5288 13.2771 14.5288C13.7945 14.5288 14.2139 14.9483 14.2139 15.4656V17.6762C14.2139 18.1936 13.7946 18.613 13.2771 18.613Z" fill="#3E4E60"/>
<path d="M37.0309 15.6459H36.6849C36.3991 15.6459 36.1534 15.4433 36.099 15.1626L35.8035 13.6391C35.7384 13.3029 35.9688 12.9809 36.308 12.9342L36.9495 12.8458C37.3081 12.7964 37.6278 13.075 37.6278 13.437V15.0491C37.6278 15.3787 37.3606 15.6459 37.0309 15.6459Z" fill="#3F5D77"/>
<path d="M2.95918 15.6459H3.30527C3.59105 15.6459 3.83676 15.4433 3.89113 15.1626L4.1866 13.6391C4.25176 13.3029 4.02137 12.9809 3.68215 12.9342L3.04059 12.8458C2.68199 12.7964 2.3623 13.075 2.3623 13.437V15.0491C2.36238 15.3787 2.62957 15.6459 2.95918 15.6459Z" fill="#3E4E60"/>
<path d="M30.478 8.50773C30.478 9.96156 30.3633 11.1415 29.9241 12.004C29.3746 13.083 28.3164 13.6656 26.3357 13.6656C24.4019 13.6656 23.7124 12.8457 23.7124 11.8753C23.7124 11.0093 24.4158 10.3337 25.2193 10.3337C25.6183 10.3337 25.9662 10.2989 26.2679 10.2345C29.3155 9.58765 27.5747 5.93304 25.6731 4.65491C23.9706 3.51155 25.3001 3.1228 25.9626 3.1228C26.6252 3.12288 30.478 5.23491 30.478 8.50773Z" fill="#B26E2B"/>
<path d="M30.4781 8.50772C30.4781 9.96155 30.3633 11.1415 29.9242 12.004C29.8337 12.0109 29.7416 12.0144 29.6494 12.0144C28.3687 12.0144 27.1922 11.3476 26.268 10.2345C27.6401 9.94327 28.0417 9.04241 27.8948 8.02335C27.7157 6.77905 26.7184 5.35835 25.6733 4.65491C23.9708 3.51155 25.3002 3.1228 25.9628 3.1228C26.5106 3.1228 29.2356 4.56444 30.166 6.9121C30.3615 7.40608 30.4781 7.93913 30.4781 8.50772Z" fill="#C68132"/>
<path d="M30.166 6.9121C29.5156 7.38687 28.7461 7.76679 27.8948 8.02335C27.7157 6.77905 26.7184 5.35835 25.6733 4.65491C23.9708 3.51155 25.3002 3.1228 25.9628 3.1228C26.5106 3.1228 29.2356 4.56444 30.166 6.9121Z" fill="#DD8C29"/>
<path d="M29.1984 10.7799C29.1757 10.7799 29.1527 10.7773 29.1298 10.772C28.9659 10.7343 28.8638 10.5709 28.9015 10.4072C29.5115 7.75951 28.7235 6.73466 27.2783 5.15107C27.165 5.02693 27.1737 4.83443 27.2979 4.72115C27.422 4.60787 27.6146 4.61662 27.7278 4.74076C29.2698 6.43021 30.1581 7.6638 29.4946 10.5437C29.4623 10.6846 29.337 10.7799 29.1984 10.7799Z" fill="#FBCB74"/>
<path d="M29.4036 8.77056C29.2446 8.77056 29.1108 8.64705 29.1002 8.48611C29.0416 7.59142 28.7257 6.86705 28.0096 5.98603C27.9036 5.85564 27.9233 5.66392 28.0538 5.5579C28.1842 5.45197 28.376 5.47165 28.4819 5.60212C29.0691 6.32454 29.624 7.16908 29.7077 8.44634C29.7186 8.61408 29.5916 8.75892 29.4238 8.76994C29.417 8.7704 29.4102 8.77056 29.4036 8.77056Z" fill="white"/>
<path d="M9.52148 8.50773C9.52148 9.96156 9.63625 11.1415 10.0754 12.004C10.6249 13.083 11.6831 13.6656 13.6638 13.6656C15.5976 13.6656 16.2871 12.8457 16.2871 11.8753C16.2871 11.0093 15.5837 10.3337 14.7802 10.3337C14.3812 10.3337 14.0334 10.2989 13.7316 10.2345C10.684 9.58765 12.4248 5.93304 14.3264 4.65491C16.0289 3.51155 14.6994 3.1228 14.0369 3.1228C13.3743 3.1228 9.52148 5.23491 9.52148 8.50773Z" fill="#B26E2B"/>
<path d="M9.52148 8.50772C9.52148 9.96155 9.63625 11.1415 10.0754 12.004C10.1659 12.0109 10.258 12.0144 10.3502 12.0144C11.6309 12.0144 12.8073 11.3476 13.7316 10.2345C12.3595 9.94327 11.9578 9.04241 12.1048 8.02335C12.2839 6.77905 13.2812 5.35835 14.3263 4.65491C16.0288 3.51155 14.6994 3.1228 14.0368 3.1228C13.489 3.1228 10.764 4.56444 9.83359 6.9121C9.63805 7.40608 9.52148 7.93913 9.52148 8.50772Z" fill="#C68132"/>
<path d="M9.8335 6.9121C10.4839 7.38687 11.2534 7.76679 12.1047 8.02335C12.2838 6.77905 13.2811 5.35835 14.3262 4.65491C16.0287 3.51155 14.6993 3.1228 14.0367 3.1228C13.4889 3.1228 10.7639 4.56444 9.8335 6.9121Z" fill="#DD8C29"/>
<path d="M10.801 10.7799C10.8236 10.7799 10.8466 10.7773 10.8695 10.772C11.0334 10.7343 11.1356 10.5709 11.0978 10.4072C10.4878 7.75951 11.2758 6.73466 12.721 5.15107C12.8343 5.02693 12.8256 4.83443 12.7014 4.72115C12.5773 4.60787 12.3847 4.61662 12.2715 4.74076C10.7295 6.43021 9.84119 7.6638 10.5047 10.5437C10.537 10.6846 10.6624 10.7799 10.801 10.7799Z" fill="#FBCB74"/>
<path d="M10.5962 8.77056C10.7552 8.77056 10.889 8.64705 10.8996 8.48611C10.9582 7.59142 11.2741 6.86705 11.9902 5.98603C12.0962 5.85564 12.0765 5.66392 11.946 5.5579C11.8156 5.45197 11.6238 5.47165 11.5179 5.60212C10.9307 6.32454 10.3758 7.16908 10.2922 8.44634C10.2812 8.61408 10.4083 8.75892 10.576 8.76994C10.5828 8.7704 10.5896 8.77056 10.5962 8.77056Z" fill="white"/>
<path d="M24.6326 33.9098L23.903 34.7423C23.4386 35.2726 22.8454 35.6926 22.1775 35.9798C21.5086 36.268 20.766 36.4234 19.9996 36.4234C18.4679 36.4234 17.0249 35.8019 16.0961 34.7423L15.3665 33.9098C14.939 33.422 15.3384 32.7185 16.0442 32.7185H23.955C24.6608 32.7184 25.0602 33.4219 24.6326 33.9098Z" fill="#EE6781"/>
<path d="M24.6321 33.9089L23.9025 34.7414C23.4381 35.2717 22.8449 35.6917 22.177 35.9789C21.508 36.2671 20.7654 36.4225 19.999 36.4225V32.7175H23.9545C24.6603 32.7175 25.0596 33.421 24.6321 33.9089Z" fill="#F4829B"/>
<path d="M21.1679 32.7175H18.8326C18.5119 32.7175 18.252 32.9775 18.252 33.2982C18.252 33.6189 18.512 33.8788 18.8326 33.8788H21.1679C21.4886 33.8788 21.7485 33.6188 21.7485 33.2982C21.7486 32.9775 21.4886 32.7175 21.1679 32.7175Z" fill="#FF9FB4"/>
<path d="M22.8839 33.0457H22.8024C22.4903 33.0457 22.2373 33.2986 22.2373 33.6107V34.1468C22.2373 34.4589 22.4903 34.7119 22.8024 34.7119H22.8839C23.196 34.7119 23.4489 34.4589 23.4489 34.1468V33.6107C23.4489 33.2986 23.1959 33.0457 22.8839 33.0457Z" fill="#3E4E60"/>
<path d="M17.1969 33.0457H17.1154C16.8033 33.0457 16.5503 33.2986 16.5503 33.6107V34.1468C16.5503 34.4589 16.8033 34.7119 17.1154 34.7119H17.1969C17.509 34.7119 17.7619 34.4589 17.7619 34.1468V33.6107C17.762 33.2986 17.509 33.0457 17.1969 33.0457Z" fill="#2E3140"/>
<path d="M24.9619 19.4822L23.6042 19.846C22.8645 20.0442 22.4256 20.8045 22.6238 21.5442L22.8017 22.208C22.9999 22.9477 23.7602 23.3867 24.4999 23.1885L25.8575 22.8247C26.5972 22.6265 27.0362 21.8662 26.838 21.1265L26.6601 20.4626C26.4619 19.7229 25.7016 19.284 24.9619 19.4822Z" fill="white"/>
<path d="M26.2 20.9418C26.36 21.539 26.0104 22.152 25.4169 22.3192C25.4121 22.3213 25.4071 22.3227 25.402 22.3241L24.6436 22.5273C24.3429 22.6078 24.0373 22.5592 23.787 22.4147C23.5359 22.2704 23.3412 22.031 23.2604 21.7295C23.1103 21.1692 23.409 20.5941 23.936 20.3872C23.9758 20.3711 24.0171 20.3573 24.0591 20.3461L24.8175 20.1429C25.119 20.0621 25.424 20.1118 25.6743 20.2563C25.9246 20.4008 26.1193 20.6402 26.2 20.9418Z" fill="#3E4E60"/>
<path d="M26.2005 20.9418C26.3605 21.539 26.0108 22.152 25.4174 22.3191C24.7642 22.1188 24.2107 21.5614 24.0083 20.8063C23.9707 20.6661 23.9467 20.5258 23.9365 20.3872C23.9764 20.3711 24.0176 20.3573 24.0596 20.3461L24.8181 20.1429C25.1196 20.0621 25.4246 20.1118 25.6748 20.2563C25.925 20.4008 26.1197 20.6402 26.2005 20.9418Z" fill="#2E3140"/>
<path d="M25.1831 20.5727L24.7267 20.695C24.5302 20.7476 24.4136 20.9496 24.4663 21.146C24.5189 21.3425 24.7209 21.4592 24.9174 21.4065L25.3737 21.2842C25.5702 21.2316 25.6868 21.0296 25.6342 20.8332C25.5815 20.6367 25.3795 20.52 25.1831 20.5727Z" fill="white"/>
<path d="M15.0936 19.4822L16.4513 19.846C17.191 20.0442 17.6299 20.8045 17.4317 21.5442L17.2538 22.208C17.0556 22.9477 16.2953 23.3867 15.5556 23.1885L14.198 22.8247C13.4583 22.6265 13.0193 21.8662 13.2175 21.1265L13.3954 20.4626C13.5936 19.7229 14.3539 19.284 15.0936 19.4822Z" fill="white"/>
<path d="M16.7943 21.7295C16.6343 22.3267 16.0249 22.6828 15.4274 22.5308C15.4221 22.5302 15.4171 22.5289 15.4121 22.5276L14.6536 22.3244C14.3529 22.2438 14.1126 22.0489 13.9682 21.7986C13.8229 21.5481 13.7739 21.2434 13.8547 20.9419C14.0048 20.3816 14.5511 20.033 15.1109 20.1173C15.1534 20.1233 15.1961 20.1319 15.2381 20.1433L15.9965 20.3465C16.298 20.4273 16.5373 20.6228 16.6818 20.873C16.8263 21.1232 16.8751 21.428 16.7943 21.7295Z" fill="#3E4E60"/>
<path d="M16.7951 21.7295C16.6351 22.3267 16.0256 22.6828 15.4281 22.5308C14.9626 22.0307 14.762 21.2712 14.9642 20.5161C15.0018 20.3759 15.0511 20.2423 15.1117 20.1172C15.1542 20.1232 15.1968 20.1319 15.2388 20.1432L15.9973 20.3464C16.2988 20.4272 16.5381 20.6227 16.6825 20.873C16.827 21.1232 16.8759 21.428 16.7951 21.7295Z" fill="#2E3140"/>
<path d="M16.0983 20.901L15.642 20.7788C15.4455 20.7261 15.2435 20.8427 15.1909 21.0392C15.1382 21.2357 15.2548 21.4376 15.4513 21.4903L15.9077 21.6126C16.1041 21.6652 16.3061 21.5486 16.3588 21.3521C16.4113 21.1556 16.2948 20.9537 16.0983 20.901Z" fill="white"/>
</svg>
