<svg width="40" height="40" viewBox="0 0 40 40" fill="none" xmlns="http://www.w3.org/2000/svg">
<path d="M40 20C40 31.0458 31.0458 40 20 40C8.95416 40 0 31.0458 0 20C0 8.95416 8.95416 0 20 0C31.0458 0 40 8.95416 40 20Z" fill="#1DA2DD"/>
<path d="M29.8531 35.1234V37.4082C28.6785 38.0735 27.4303 38.6252 26.1226 39.0439C26.1006 39.0513 26.0793 39.058 26.0573 39.0644C25.9438 39.1013 25.8297 39.1364 25.7143 39.1706C25.2059 39.3226 24.6883 39.4547 24.1634 39.5649C23.9333 39.6137 23.7023 39.6589 23.4694 39.6989C22.3421 39.8972 21.183 40.0001 20.0002 40.0001C18.8173 40.0001 17.658 39.8972 16.5306 39.6995C16.2981 39.6595 16.0671 39.6146 15.837 39.5658C15.2269 39.4367 14.6288 39.2798 14.041 39.097C14.0084 39.0864 13.9757 39.0766 13.9431 39.0662C13.9211 39.0595 13.8997 39.0522 13.8777 39.0449C12.5707 38.6262 11.3219 38.0744 10.147 37.4082V35.1234C10.147 32.3664 11.6475 29.9601 13.8777 28.6774C14.4826 28.3289 15.1406 28.0637 15.837 27.8971C16.205 27.8083 16.5837 27.7469 16.9716 27.7158C17.1724 27.6996 17.3748 27.6914 17.5798 27.6914H22.4196C22.9918 27.6914 23.5488 27.7552 24.0834 27.8776C24.1103 27.884 24.1371 27.8898 24.1634 27.8962C24.8598 28.0637 25.5178 28.3289 26.1226 28.6774C28.3519 29.9607 29.8531 32.3673 29.8531 35.1234Z" fill="#EAA27F"/>
<path d="M29.8534 35.1234V37.4082C27.0861 38.9786 23.9064 39.9076 20.5172 39.9933C20.345 39.9976 20.1735 40.0001 20.0005 40.0001C19.8275 40.0001 19.655 39.9976 19.4838 39.9927C17.5563 39.9445 15.6975 39.6229 13.9434 39.0662V35.1234C13.9434 31.0187 17.2713 27.6914 21.3768 27.6914H22.4199C26.5261 27.6914 29.8534 31.0187 29.8534 35.1234Z" fill="#F6BA97"/>
<path d="M22.6518 24.8281V28.0825C22.6518 29.2739 21.8663 30.281 20.7841 30.6155C20.5366 30.6921 20.2726 30.7339 19.9995 30.7339C18.5353 30.7339 17.3481 29.5468 17.3481 28.0825V24.8281H22.6518Z" fill="#EAA27F"/>
<path d="M22.6519 27.8762V28.0825C22.6519 29.2739 21.8663 30.281 20.7842 30.6155C19.8079 30.3152 19.074 29.4665 18.9385 28.4277C19.1155 28.4387 19.2937 28.4442 19.4725 28.4442C19.9742 28.4442 20.4662 28.4042 20.9453 28.3254C21.5355 28.2308 22.1059 28.0789 22.6519 27.8762Z" fill="#F6BA97"/>
<path d="M12.6058 19.4949C12.6058 20.7224 11.7092 21.7404 10.5349 21.9293C10.4064 21.9501 10.2745 21.9608 10.1396 21.9608C8.77765 21.9608 7.67383 20.8572 7.67383 19.4949C7.67383 18.1326 8.77765 17.0288 10.1396 17.0288C10.2745 17.0288 10.4064 17.0398 10.5349 17.0605C11.7092 17.2495 12.6058 18.2672 12.6058 19.4949Z" fill="#F6BA97"/>
<path d="M12.6061 19.4949C12.6061 20.7224 11.7095 21.7404 10.5352 21.9293C10.3218 21.1536 10.208 20.3372 10.208 19.4949C10.208 18.6523 10.3218 17.836 10.5352 17.0605C11.7095 17.2495 12.6061 18.2672 12.6061 19.4949Z" fill="#EAA27F"/>
<path d="M11.0213 19.4949C11.0213 19.9816 10.6267 20.3762 10.1396 20.3762C9.65289 20.3762 9.2583 19.9816 9.2583 19.4949C9.2583 19.0081 9.65289 18.6135 10.1396 18.6135C10.6267 18.6135 11.0213 19.0081 11.0213 19.4949Z" fill="#EAA27F"/>
<path d="M27.3936 19.4949C27.3936 20.7224 28.2902 21.7404 29.4645 21.9293C29.593 21.9501 29.7248 21.9608 29.8597 21.9608C31.222 21.9608 32.3255 20.8572 32.3255 19.4949C32.3255 18.1326 31.222 17.0288 29.8597 17.0288C29.7248 17.0288 29.593 17.0398 29.4645 17.0605C28.2902 17.2495 27.3936 18.2672 27.3936 19.4949Z" fill="#F6BA97"/>
<path d="M27.3936 19.4949C27.3936 20.7224 28.2902 21.7404 29.4645 21.9293C29.6778 21.1536 29.7919 20.3372 29.7919 19.4949C29.7919 18.6523 29.6781 17.836 29.4645 17.0605C28.2902 17.2495 27.3936 18.2672 27.3936 19.4949Z" fill="#EAA27F"/>
<path d="M30.7412 19.4949C30.7412 19.9816 30.3466 20.3762 29.8599 20.3762C29.3731 20.3762 28.9785 19.9816 28.9785 19.4949C28.9785 19.0081 29.3731 18.6135 29.8599 18.6135C30.3466 18.6135 30.7412 19.0081 30.7412 19.4949Z" fill="#EAA27F"/>
<path d="M29.1749 14.6906V18.1845C29.1749 22.7502 25.8397 26.5378 21.4723 27.2406C21.4576 27.243 21.4421 27.2455 21.4274 27.2482C20.963 27.3224 20.486 27.359 19.9995 27.359C14.9327 27.359 10.8247 23.2513 10.8247 18.1845V14.6906C10.8247 13.6237 11.0069 12.5983 11.3432 11.6455C12.5978 8.07495 16.0005 5.51514 19.9995 5.51514H20.0004C20.486 5.51514 20.9636 5.55267 21.429 5.62592C25.8174 6.31165 29.1749 10.1093 29.1749 14.6906Z" fill="#EAA27F"/>
<path d="M29.175 14.6906V18.1846C29.175 22.7503 25.8397 26.5378 21.4724 27.2407C21.4577 27.2431 21.4421 27.2455 21.4275 27.2483C17.0388 26.5626 13.6821 22.765 13.6821 18.1846V14.6906C13.6821 10.1093 17.0397 6.31171 21.429 5.62598C25.8174 6.31171 29.175 10.1093 29.175 14.6906Z" fill="#F6BA97"/>
<path d="M26.2448 20.5933C26.2448 21.2247 25.733 21.7362 25.1019 21.7362C24.4708 21.7362 23.959 21.2247 23.959 20.5933C23.959 19.9622 24.4708 19.4504 25.1019 19.4504C25.733 19.4504 26.2448 19.9622 26.2448 20.5933Z" fill="#EAA27F"/>
<path d="M16.0406 20.5933C16.0406 21.2247 15.5289 21.7362 14.8978 21.7362C14.2667 21.7362 13.7549 21.2247 13.7549 20.5933C13.7549 19.9622 14.2667 19.4504 14.8978 19.4504C15.5289 19.4504 16.0406 19.9622 16.0406 20.5933Z" fill="#EAA27F"/>
<path d="M24.9272 17.4098C24.9272 16.5681 24.2448 15.8857 23.4034 15.8857C22.5618 15.8857 21.8794 16.5681 21.8794 17.4098" fill="#EAA27F"/>
<path d="M18.121 17.4098C18.121 16.5681 17.4387 15.8857 16.5973 15.8857C15.7556 15.8857 15.0732 16.5681 15.0732 17.4098" fill="#EAA27F"/>
<path d="M17.6378 18.0582C17.6378 18.6332 17.1718 19.0992 16.5971 19.0992C16.0222 19.0992 15.5562 18.6332 15.5562 18.0582C15.5562 17.4836 16.0222 17.0176 16.5971 17.0176C17.1718 17.0176 17.6378 17.4836 17.6378 18.0582Z" fill="#2F373B"/>
<path d="M24.4439 18.0582C24.4439 18.6332 23.9779 19.0992 23.4033 19.0992C22.8283 19.0992 22.3623 18.6332 22.3623 18.0582C22.3623 17.4836 22.8283 17.0176 23.4033 17.0176C23.9779 17.0176 24.4439 17.4836 24.4439 18.0582Z" fill="#2F373B"/>
<path d="M21.0408 20.6786H18.9592C18.7114 20.6786 18.5103 20.4778 18.5103 20.2297C18.5103 19.9819 18.7114 19.7808 18.9592 19.7808H21.0408C21.2889 19.7808 21.49 19.9819 21.49 20.2297C21.49 20.4778 21.2889 20.6786 21.0408 20.6786Z" fill="#EAA27F"/>
<path d="M19.9999 23.5196C19.2314 23.5196 18.4633 23.3273 17.7629 22.9422C17.5655 22.8336 17.4932 22.5855 17.6018 22.388C17.7105 22.1906 17.9586 22.1185 18.156 22.2269C19.3105 22.8616 20.689 22.8616 21.8434 22.2269C22.0409 22.1182 22.289 22.1903 22.3976 22.388C22.5063 22.5855 22.4343 22.8336 22.2365 22.9422C21.5364 23.3273 20.768 23.5196 19.9999 23.5196Z" fill="#EAA27F"/>
<path d="M17.4257 17.8749C17.4257 18.1212 17.2261 18.3207 16.9799 18.3207C16.7333 18.3207 16.5337 18.1212 16.5337 17.8749C16.5337 17.6283 16.7333 17.4287 16.9799 17.4287C17.2261 17.4287 17.4257 17.6283 17.4257 17.8749Z" fill="white"/>
<path d="M24.2828 17.8749C24.2828 18.1212 24.0833 18.3207 23.837 18.3207C23.5907 18.3207 23.3911 18.1212 23.3911 17.8749C23.3911 17.6283 23.5907 17.4287 23.837 17.4287C24.0833 17.4287 24.2828 17.6283 24.2828 17.8749Z" fill="white"/>
<path d="M29.175 15.537C26.105 15.537 24.9532 11.314 24.9532 11.314C24.9532 11.314 21.7416 14.3624 16.7898 14.0358C14.7344 13.9003 13.4283 14.4954 12.6046 15.2388C11.8887 15.8855 11.5359 16.6429 11.3711 17.1288C11.2365 17.5264 10.7702 17.7239 10.408 17.5124C10.2535 17.4227 10.14 17.2731 10.14 17.0284C10.14 16.2667 10.8248 14.6904 10.8248 14.6904L9.60626 14.3624C9.07159 10.6609 11.647 8.89301 11.647 8.89301L10.6396 8.75659C11.7288 4.83813 16.3 5.0014 16.3 5.0014L15.6469 3.74988C19.074 2.57129 21.0787 4.39746 21.1416 4.45605H21.1425L21.1434 4.45697L21.6332 2.87891C27.0208 4.23969 27.0208 7.23254 27.0208 7.23254L28.2183 5.38257C32.3541 10.7646 29.175 15.537 29.175 15.537Z" fill="#F2EFEA"/>
<path d="M17.9867 4.67511L18.4765 5.49145C18.4765 5.49145 16.2454 5.92663 15.8102 8.15839L17.225 7.99512C17.225 7.99512 14.1229 9.32812 14.1229 10.8244L16.9506 10.9068C16.8316 10.9477 13.0398 12.1037 12.6046 15.2391C11.8887 15.8857 11.5359 16.6432 11.3711 17.129C11.2365 17.5267 10.7702 17.7241 10.408 17.5126C10.2535 17.4229 10.14 17.2734 10.14 17.0286C10.14 16.2669 10.8248 14.6907 10.8248 14.6907L9.60626 14.3626C9.07159 10.6611 11.647 8.89325 11.647 8.89325L10.6396 8.75683C11.7288 4.83838 16.3 5.00165 16.3 5.00165L15.6469 3.75012C19.074 2.57153 21.0787 4.3977 21.1416 4.4563C21.0919 4.43097 19.7482 3.76752 17.9867 4.67511Z" fill="#D8D4CE"/>
<path d="M26.0576 33.9263V39.0642C25.9441 39.1011 25.83 39.1362 25.7146 39.1704C25.2062 39.3224 24.6886 39.4545 24.1637 39.5647C23.9336 39.6135 23.7026 39.6587 23.4697 39.6987C22.3424 39.897 21.1833 39.9999 20.0005 39.9999C18.8176 39.9999 17.6583 39.897 16.5309 39.6993C16.3262 39.6642 16.122 39.6251 15.9188 39.5827C15.8919 39.5769 15.8641 39.5711 15.8373 39.5656C15.2272 39.4365 14.6291 39.2797 14.0413 39.0969C14.0087 39.0862 13.976 39.0764 13.9434 39.066V33.9263H26.0576Z" fill="#F73B6C"/>
<path d="M15.9188 33.9263V39.5827C15.8919 39.5769 15.8641 39.5711 15.8373 39.5656C15.2272 39.4365 14.6291 39.2797 14.0413 39.0969C14.0087 39.0862 13.976 39.0764 13.9434 39.066V33.9263H15.9188Z" fill="#DD104F"/>
<path d="M31.517 21.7742C31.517 22.1615 31.203 22.4755 30.8157 22.4755C30.4285 22.4755 30.1147 22.1615 30.1147 21.7742C30.1147 21.387 30.4285 21.0732 30.8157 21.0732C31.203 21.0732 31.517 21.387 31.517 21.7742Z" fill="#673389"/>
<path d="M9.88568 21.7742C9.88568 22.1615 9.57166 22.4755 9.18439 22.4755C8.79712 22.4755 8.4834 22.1615 8.4834 21.7742C8.4834 21.387 8.79712 21.0732 9.18439 21.0732C9.57166 21.0732 9.88568 21.387 9.88568 21.7742Z" fill="#673389"/>
</svg>
