<svg width="40" height="40" viewBox="0 0 40 40" fill="none" xmlns="http://www.w3.org/2000/svg">
<path d="M40 20C40 31.0458 31.0458 40 20 40C8.95416 40 0 31.0458 0 20C0 8.95416 8.95416 0 20 0C31.0458 0 40 8.95416 40 20Z" fill="#FFE05C"/>
<path d="M29.8531 35.1234V37.4082C27.6482 38.6588 25.1821 39.5029 22.5569 39.8374C21.7192 39.9445 20.8663 40.0001 20.0002 40.0001C18.9601 40.0001 17.9406 39.9207 16.9448 39.7681C15.916 39.6107 14.9135 39.3738 13.9431 39.0662C12.6125 38.6442 11.3414 38.0857 10.147 37.4082V35.1234C10.147 31.6514 12.5283 28.7339 15.7479 27.9191C16.1437 27.8181 16.5529 27.7494 16.9716 27.7158C17.1724 27.6996 17.3748 27.6914 17.5798 27.6914H22.4196C22.9863 27.6914 23.5381 27.7543 24.0679 27.8742C24.0728 27.8751 24.0786 27.8766 24.0834 27.8776C27.3879 28.6335 29.8531 31.5909 29.8531 35.1234Z" fill="#0C85A5"/>
<path d="M29.8534 35.1234V37.4082C28.0779 38.4156 26.1336 39.1593 24.0721 39.5844C23.9498 39.6097 23.8265 39.6342 23.7032 39.657C23.1261 39.7657 22.5402 39.849 21.9466 39.9052C21.4724 39.9518 20.9923 39.9811 20.5089 39.9933C20.3401 39.9976 20.1702 40.0001 20.0005 40.0001C19.3431 40.0001 18.6943 39.968 18.0535 39.907C17.4599 39.849 16.874 39.7657 16.2969 39.657C15.4943 39.5069 14.709 39.3085 13.9434 39.0662V35.1234C13.9434 34.5966 13.998 34.0824 14.1024 33.5868C14.3065 32.6139 14.7017 31.7118 15.2462 30.9199C15.2675 30.8872 15.2901 30.8564 15.3124 30.8243C15.7244 30.2442 16.2175 29.7257 16.776 29.2866C18.0413 28.2874 19.6395 27.6914 21.3768 27.6914H22.4199C22.7547 27.6914 23.0846 27.7134 23.4078 27.7567C23.9897 27.8333 24.5516 27.9789 25.0829 28.1837C27.8731 29.253 29.8534 31.9568 29.8534 35.1234Z" fill="#1DA2DD"/>
<path d="M22.6518 24.8281V28.0825C22.6518 29.2739 21.8663 30.281 20.7841 30.6155C20.5366 30.6921 20.2726 30.7339 19.9995 30.7339C18.5353 30.7339 17.3481 29.5468 17.3481 28.0825V24.8281H22.6518Z" fill="#EAA27F"/>
<path d="M22.6519 27.8762V28.0825C22.6519 29.2739 21.8663 30.281 20.7842 30.6155C19.8079 30.3152 19.074 29.4665 18.9385 28.4277C19.1155 28.4387 19.2937 28.4442 19.4725 28.4442C19.9742 28.4442 20.4662 28.4042 20.9453 28.3254C21.5355 28.2308 22.1059 28.0789 22.6519 27.8762Z" fill="#F6BA97"/>
<path d="M12.7254 19.4946C12.7254 20.7224 11.8288 21.7401 10.6545 21.929C10.5263 21.9501 10.3942 21.9608 10.2596 21.9608C8.89728 21.9608 7.79346 20.8569 7.79346 19.4946C7.79346 18.1326 8.89728 17.0288 10.2596 17.0288C10.3942 17.0288 10.5263 17.0395 10.6545 17.0605C11.8288 17.2495 12.7254 18.2672 12.7254 19.4946Z" fill="#F6BA97"/>
<path d="M12.7257 19.4946C12.7257 20.7224 11.8291 21.7401 10.6548 21.929C10.4415 21.1536 10.3276 20.3372 10.3276 19.4946C10.3276 18.6523 10.4415 17.836 10.6548 17.0605C11.8291 17.2495 12.7257 18.2672 12.7257 19.4946Z" fill="#EAA27F"/>
<path d="M11.1409 19.4946C11.1409 19.9817 10.7463 20.3763 10.2596 20.3763C9.77283 20.3763 9.37793 19.9817 9.37793 19.4946C9.37793 19.0079 9.77283 18.6133 10.2596 18.6133C10.7463 18.6133 11.1409 19.0079 11.1409 19.4946Z" fill="#EAA27F"/>
<path d="M27.2739 19.4946C27.2739 20.7224 28.1705 21.7401 29.3448 21.929C29.4733 21.9501 29.6052 21.9608 29.7397 21.9608C31.1021 21.9608 32.2059 20.8569 32.2059 19.4946C32.2059 18.1326 31.1021 17.0288 29.7397 17.0288C29.6052 17.0288 29.4733 17.0395 29.3448 17.0605C28.1705 17.2495 27.2739 18.2672 27.2739 19.4946Z" fill="#F6BA97"/>
<path d="M27.2739 19.4946C27.2739 20.7224 28.1705 21.7401 29.3448 21.929C29.5582 21.1536 29.672 20.3372 29.672 19.4946C29.672 18.6523 29.5582 17.836 29.3448 17.0605C28.1705 17.2495 27.2739 18.2672 27.2739 19.4946Z" fill="#EAA27F"/>
<path d="M29.1749 14.6906V18.1845C29.1749 22.7502 25.8397 26.5378 21.4723 27.2406C21.4576 27.243 21.4421 27.2455 21.4274 27.2482C20.963 27.3224 20.486 27.359 19.9995 27.359C14.9327 27.359 10.8247 23.2513 10.8247 18.1845V14.6906C10.8247 13.6237 11.0069 12.5983 11.3432 11.6455C12.5978 8.07495 16.0005 5.51514 19.9995 5.51514H20.0004C20.486 5.51514 20.9636 5.55267 21.429 5.62592C25.8174 6.31165 29.1749 10.1093 29.1749 14.6906Z" fill="#EAA27F"/>
<path d="M30.6214 19.4946C30.6214 19.9817 30.2268 20.3763 29.7397 20.3763C29.253 20.3763 28.8584 19.9817 28.8584 19.4946C28.8584 19.0079 29.253 18.6133 29.7397 18.6133C30.2268 18.6133 30.6214 19.0079 30.6214 19.4946Z" fill="#EAA27F"/>
<path d="M29.175 14.6906V18.1846C29.175 22.7503 25.8397 26.5378 21.4724 27.2407C21.4577 27.2431 21.4421 27.2455 21.4275 27.2483C17.0388 26.5626 13.6821 22.765 13.6821 18.1846V14.6906C13.6821 10.1093 17.0397 6.31171 21.429 5.62598C25.8174 6.31171 29.175 10.1093 29.175 14.6906Z" fill="#F6BA97"/>
<path d="M19.9995 22.7033C19.231 22.7033 18.4629 22.5107 17.7625 22.1259C17.5648 22.0173 17.4927 21.7692 17.6014 21.5714C17.71 21.374 17.9581 21.3019 18.1556 21.4103C19.3101 22.045 20.6885 22.045 21.843 21.4103C22.0405 21.3019 22.2886 21.374 22.3972 21.5714C22.5059 21.7692 22.4338 22.0173 22.2361 22.1259C21.536 22.5107 20.7676 22.7033 19.9995 22.7033Z" fill="#EAA27F"/>
<path d="M21.0403 20.2706H18.9587C18.7106 20.2706 18.5098 20.0698 18.5098 19.8217C18.5098 19.5736 18.7106 19.3728 18.9587 19.3728H21.0403C21.2884 19.3728 21.4892 19.5736 21.4892 19.8217C21.4892 20.0695 21.2884 20.2706 21.0403 20.2706Z" fill="#EAA27F"/>
<path d="M18.0455 17.6501C18.0455 18.225 17.5798 18.6907 17.0048 18.6907C16.4299 18.6907 15.9639 18.225 15.9639 17.6501C15.9639 17.0751 16.4299 16.6091 17.0048 16.6091C17.5798 16.6091 18.0455 17.0751 18.0455 17.6501Z" fill="#2F373B"/>
<path d="M24.0355 17.6501C24.0355 18.225 23.5695 18.6907 22.9946 18.6907C22.4196 18.6907 21.9536 18.225 21.9536 17.6501C21.9536 17.0751 22.4196 16.6091 22.9946 16.6091C23.5695 16.6091 24.0355 17.0751 24.0355 17.6501Z" fill="#2F373B"/>
<path d="M17.8334 17.4664C17.8334 17.7126 17.6339 17.9122 17.3876 17.9122C17.1413 17.9122 16.9414 17.7126 16.9414 17.4664C16.9414 17.2201 17.1413 17.0205 17.3876 17.0205C17.6339 17.0205 17.8334 17.2201 17.8334 17.4664Z" fill="white"/>
<path d="M23.8745 17.4664C23.8745 17.7126 23.6746 17.9122 23.4283 17.9122C23.182 17.9122 22.9824 17.7126 22.9824 17.4664C22.9824 17.2201 23.182 17.0205 23.4283 17.0205C23.6746 17.0205 23.8745 17.2201 23.8745 17.4664Z" fill="white"/>
<path d="M29.3456 4.22607V17.0602C28.8475 16.8375 28.4206 16.4996 28.0931 16.0825C27.7657 15.6659 27.538 15.1712 27.4395 14.635L27.0018 12.258C26.7888 11.1035 25.6606 10.3558 24.5143 10.6107L21.6304 11.2512C20.5568 11.4905 19.4432 11.4905 18.3699 11.2512L15.7552 10.6702L15.4857 10.6107C14.3398 10.3558 13.2115 11.1035 12.9985 12.258L12.5609 14.635C12.3635 15.7077 11.65 16.6147 10.6548 17.0602V4.22607H14.3929H25.6075H29.3456Z" fill="#2F373B"/>
<path d="M14.3929 4.22595C14.3929 5.25867 13.5561 6.09546 12.5234 6.09546C11.4916 6.09546 10.6548 5.25867 10.6548 4.22595C10.6548 3.19324 11.4916 2.35645 12.5234 2.35645C13.5561 2.35645 14.3929 3.19324 14.3929 4.22595Z" fill="#2F373B"/>
<path d="M18.1309 4.22595C18.1309 5.25867 17.2941 6.09546 16.2623 6.09546C16.0868 6.09546 15.9162 6.07074 15.7554 6.02496C14.9692 5.80463 14.3931 5.08319 14.3931 4.22595C14.3931 3.36871 14.9692 2.64728 15.7554 2.42664C15.9162 2.38116 16.0868 2.35645 16.2623 2.35645C17.2941 2.35645 18.1309 3.19324 18.1309 4.22595Z" fill="#2F373B"/>
<path d="M21.8693 4.22589C21.8693 5.2583 21.0322 6.09509 20.0001 6.09509C18.9677 6.09509 18.1309 5.2583 18.1309 4.22589C18.1309 3.19348 18.9677 2.35669 20.0001 2.35669C21.0322 2.35669 21.8693 3.19348 21.8693 4.22589Z" fill="#2F373B"/>
<path d="M25.6072 4.22589C25.6072 5.2583 24.7704 6.09509 23.738 6.09509C22.7059 6.09509 21.8691 5.2583 21.8691 4.22589C21.8691 3.19348 22.7059 2.35669 23.738 2.35669C24.7704 2.35669 25.6072 3.19348 25.6072 4.22589Z" fill="#2F373B"/>
<path d="M29.3458 4.22589C29.3458 5.2583 28.5087 6.09509 27.4766 6.09509C26.4442 6.09509 25.6074 5.2583 25.6074 4.22589C25.6074 3.19348 26.4442 2.35669 27.4766 2.35669C28.5087 2.35669 29.3458 3.19348 29.3458 4.22589Z" fill="#2F373B"/>
<path d="M14.3929 4.22595V10.6633C13.6965 10.8913 13.1414 11.483 12.9985 12.2579L12.5609 14.6349C12.3635 15.7076 11.65 16.6146 10.6548 17.0601V4.22595C10.6548 3.19324 11.4916 2.35645 12.5234 2.35645C13.5561 2.35645 14.3929 3.19324 14.3929 4.22595Z" fill="#151A1C"/>
<path d="M13.8427 35.1233V39.0341C12.5478 38.6154 11.3112 38.0685 10.147 37.4081V35.1233H13.8427Z" fill="#EAA27F"/>
<path d="M29.8531 35.1233V37.4081C28.6891 38.0685 27.4523 38.6154 26.1577 39.0341V35.1233H29.8531Z" fill="#F6BA97"/>
<path d="M26.1577 35.1233H29.8531V36.1035H26.1577V35.1233Z" fill="#F2EFEA"/>
<path d="M10.147 35.1233H13.8427V36.1035H10.147V35.1233Z" fill="#F2EFEA"/>
</svg>
