<svg width="40" height="40" viewBox="0 0 40 40" fill="none" xmlns="http://www.w3.org/2000/svg">
<path d="M40 20C40 31.0458 31.0458 40 20 40C8.95416 40 0 31.0458 0 20C0 8.95416 8.95416 0 20 0C31.0458 0 40 8.95416 40 20Z" fill="#FFE05C"/>
<path d="M21.3111 8.51102C20.9412 8.93949 20.5054 9.35819 20 9.7598L12.3429 14.4269C8.71588 17.1051 4.21484 12.9803 4.21484 12.9803C4.21484 12.9803 9.11169 14.6188 9.11169 8.81711C9.11169 1.47092 12.9429 -2.78205e-05 18.0243 0.0961026C22.7109 0.186129 24.5838 4.7247 21.3111 8.51102Z" fill="#151A1C"/>
<path d="M29.8534 35.1234V37.4082C28.6785 38.0735 27.4303 38.6252 26.1226 39.0443C25.9871 39.0882 25.8516 39.13 25.7146 39.1706C25.2059 39.3226 24.6883 39.4547 24.1634 39.5649C23.9333 39.614 23.7023 39.6589 23.4694 39.6989C22.3421 39.8972 21.183 40.0001 20.0002 40.0001C18.8173 40.0001 17.6583 39.8972 16.5309 39.6998C16.2981 39.6598 16.0671 39.6146 15.837 39.5658C15.2272 39.4367 14.6288 39.2802 14.041 39.0974C14.0084 39.0867 13.9757 39.0769 13.9431 39.0662C13.9211 39.0595 13.8997 39.0522 13.8777 39.0449C12.5707 38.6262 11.3219 38.0744 10.147 37.4082V35.1234C10.147 32.3667 11.6475 29.9601 13.8777 28.6777C14.4826 28.3289 15.1406 28.0637 15.837 27.8971C16.205 27.8083 16.5837 27.7469 16.9716 27.7161C17.1724 27.6996 17.3748 27.6914 17.5798 27.6914H22.4199C22.9921 27.6914 23.5488 27.7552 24.0834 27.8776C24.1103 27.8843 24.1375 27.8898 24.1634 27.8965C24.8598 28.0637 25.5178 28.3289 26.1226 28.6777C28.3519 29.961 29.8534 32.3673 29.8534 35.1234Z" fill="#0C85A5"/>
<path d="M29.8532 35.1234V37.4082C27.0856 38.9789 23.9062 39.9079 20.5167 39.9937C20.3445 39.9976 20.173 40.0001 20 40.0001C19.827 40.0001 19.6548 39.9976 19.4833 39.9927C17.5558 39.9445 15.697 39.6229 13.9429 39.0662V35.1234C13.9429 31.0187 17.2711 27.6914 21.3763 27.6914H22.4197C26.5256 27.6914 29.8532 31.0187 29.8532 35.1234Z" fill="#1DA2DD"/>
<path d="M23.347 30.7158C23.347 32.4504 22.0272 33.8774 20.3365 34.0462C20.2263 34.0569 20.1137 34.0627 20.0002 34.0627C19.8876 34.0627 19.7756 34.0569 19.6654 34.0462C17.9741 33.8781 16.6533 32.4514 16.6533 30.7158C16.6533 28.8677 18.152 27.3687 20.0002 27.3687C21.8483 27.3687 23.347 28.8677 23.347 30.7158Z" fill="#F2EFEA"/>
<path d="M19.9993 30.734L16.6533 32.5934L15.6353 27.8589L17.7144 26.6343" fill="#D8D4CE"/>
<path d="M19.9995 30.734L23.3455 32.5934L24.3635 27.8589L22.2844 26.6343" fill="#D8D4CE"/>
<path d="M22.6513 24.8281V28.0825C22.6513 29.2739 21.8658 30.281 20.7836 30.6155C20.5361 30.6924 20.2722 30.7339 19.999 30.7339C18.5348 30.7339 17.3477 29.5471 17.3477 28.0825V24.8281H22.6513Z" fill="#EAA27F"/>
<path d="M22.6514 27.8765V28.0825C22.6514 29.2739 21.8658 30.2809 20.7837 30.6154C19.8077 30.3154 19.0735 29.4664 18.938 28.4279C19.115 28.4386 19.2932 28.4441 19.472 28.4441C19.9738 28.4441 20.4657 28.4044 20.9448 28.3257C21.535 28.2308 22.1054 28.0788 22.6514 27.8765Z" fill="#F6BA97"/>
<path d="M12.6058 19.4949C12.6058 20.7224 11.7092 21.7404 10.5349 21.9293C10.4067 21.9501 10.2745 21.9608 10.14 21.9608C8.77765 21.9608 7.67383 20.8572 7.67383 19.4949C7.67383 18.1326 8.77765 17.0288 10.14 17.0288C10.2745 17.0288 10.4067 17.0398 10.5349 17.0605C11.7092 17.2495 12.6058 18.2672 12.6058 19.4949Z" fill="#F6BA97"/>
<path d="M12.6056 19.4949C12.6056 20.7224 11.709 21.7404 10.5347 21.9293C10.3214 21.1536 10.2075 20.3372 10.2075 19.4949C10.2075 18.6523 10.3214 17.836 10.5347 17.0605C11.709 17.2495 12.6056 18.2672 12.6056 19.4949Z" fill="#EAA27F"/>
<path d="M11.021 19.4949C11.021 19.9816 10.6264 20.3762 10.1396 20.3762C9.65289 20.3762 9.2583 19.9816 9.2583 19.4949C9.2583 19.0081 9.65289 18.6135 10.1396 18.6135C10.6264 18.6135 11.021 19.0081 11.021 19.4949Z" fill="#EAA27F"/>
<path d="M27.3936 19.4949C27.3936 20.7224 28.2905 21.7404 29.4648 21.9293C29.593 21.9501 29.7251 21.9608 29.8597 21.9608C31.222 21.9608 32.3258 20.8572 32.3258 19.4949C32.3258 18.1326 31.222 17.0288 29.8597 17.0288C29.7251 17.0288 29.593 17.0398 29.4648 17.0605C28.2905 17.2495 27.3936 18.2672 27.3936 19.4949Z" fill="#F6BA97"/>
<path d="M27.3936 19.4949C27.3936 20.7224 28.2905 21.7404 29.4648 21.9293C29.6778 21.1536 29.7919 20.3372 29.7919 19.4949C29.7919 18.6523 29.6781 17.836 29.4648 17.0605C28.2905 17.2495 27.3936 18.2672 27.3936 19.4949Z" fill="#EAA27F"/>
<path d="M30.7412 19.4949C30.7412 19.9816 30.3466 20.3762 29.8599 20.3762C29.3731 20.3762 28.9785 19.9816 28.9785 19.4949C28.9785 19.0081 29.3731 18.6135 29.8599 18.6135C30.3466 18.6135 30.7412 19.0081 30.7412 19.4949Z" fill="#EAA27F"/>
<path d="M29.1749 14.6906V18.1845C29.1749 22.7502 25.8397 26.5378 21.4723 27.2406C21.4576 27.243 21.4421 27.2455 21.4274 27.2482C20.963 27.3224 20.486 27.359 19.9995 27.359C14.9327 27.359 10.8247 23.2513 10.8247 18.1845V14.6906C10.8247 13.6237 11.0069 12.5983 11.3432 11.6455C12.5978 8.07495 16.0005 5.51514 19.9995 5.51514H20.0004C20.486 5.51514 20.9636 5.55267 21.429 5.62592C25.8174 6.31165 29.1749 10.1093 29.1749 14.6906Z" fill="#EAA27F"/>
<path d="M29.1748 14.6906V18.1845C29.1748 22.7502 25.8392 26.5381 21.4719 27.2409C21.4572 27.2433 21.4417 27.2458 21.427 27.2482C17.0383 26.5625 13.6816 22.7649 13.6816 18.1845V14.6906C13.6816 10.1093 17.0392 6.31195 21.4285 5.62622C25.8173 6.31195 29.1748 10.1093 29.1748 14.6906Z" fill="#F6BA97"/>
<path d="M26.2448 20.5936C26.2448 21.2247 25.733 21.7365 25.1019 21.7365C24.4708 21.7365 23.959 21.2247 23.959 20.5936C23.959 19.9622 24.4708 19.4507 25.1019 19.4507C25.733 19.4507 26.2448 19.9622 26.2448 20.5936Z" fill="#EAA27F"/>
<path d="M16.0402 20.5936C16.0402 21.2247 15.5287 21.7365 14.8973 21.7365C14.2662 21.7365 13.7544 21.2247 13.7544 20.5936C13.7544 19.9622 14.2662 19.4507 14.8973 19.4507C15.5287 19.4507 16.0402 19.9622 16.0402 20.5936Z" fill="#EAA27F"/>
<path d="M24.9267 17.4097C24.9267 16.5681 24.2446 15.886 23.403 15.886C22.5613 15.886 21.8789 16.5681 21.8789 17.4097" fill="#EAA27F"/>
<path d="M18.1205 17.4097C18.1205 16.5681 17.4385 15.886 16.5968 15.886C15.7551 15.886 15.0728 16.5681 15.0728 17.4097" fill="#EAA27F"/>
<path d="M18.9843 18.0579C18.9843 19.7321 17.6274 21.0889 15.9539 21.0889C15.7009 21.0889 15.4543 21.0578 15.2193 20.9992C13.9 20.6711 12.9229 19.4791 12.9229 18.0579C12.9229 16.6376 13.9 15.4456 15.2193 15.1176C15.4543 15.0587 15.7009 15.0278 15.9539 15.0278C17.6274 15.0278 18.9843 16.3843 18.9843 18.0579Z" fill="white"/>
<path d="M27.0844 18.0579C27.0844 19.7321 25.7276 21.0889 24.0543 21.0889C23.801 21.0889 23.5544 21.0578 23.3195 20.9992C22.0011 20.6711 21.0239 19.4791 21.0239 18.0579C21.0239 16.6376 22.0011 15.4456 23.3195 15.1176C23.5544 15.0587 23.801 15.0278 24.0543 15.0278C25.7276 15.0278 27.0844 16.3843 27.0844 18.0579Z" fill="white"/>
<path d="M17.5148 18.0578C17.5148 19.479 16.5377 20.671 15.2193 20.9991C13.9 20.671 12.9229 19.479 12.9229 18.0578C12.9229 16.6375 13.9 15.4455 15.2193 15.1174C16.5377 15.4455 17.5148 16.6375 17.5148 18.0578Z" fill="#C1DCE5"/>
<path d="M25.615 18.0578C25.615 19.479 24.6378 20.671 23.3195 20.9991C22.0011 20.671 21.0239 19.479 21.0239 18.0578C21.0239 16.6375 22.0011 15.4455 23.3195 15.1174C24.6378 15.4455 25.615 16.6375 25.615 18.0578Z" fill="#C1DCE5"/>
<path d="M15.9536 21.5716C14.0164 21.5716 12.4404 19.9954 12.4404 18.0581C12.4404 16.1208 14.0164 14.5449 15.9536 14.5449C17.8909 14.5449 19.4668 16.1208 19.4668 18.0581C19.4668 19.9954 17.8909 21.5716 15.9536 21.5716ZM15.9536 15.5108C14.5489 15.5108 13.4063 16.6534 13.4063 18.0581C13.4063 19.4628 14.5492 20.6054 15.9536 20.6054C17.3583 20.6054 18.5009 19.4628 18.5009 18.0581C18.5009 16.6537 17.3583 15.5108 15.9536 15.5108Z" fill="#2F373B"/>
<path d="M24.054 21.5716C22.1168 21.5716 20.5405 19.9954 20.5405 18.0581C20.5405 16.1208 22.1168 14.5449 24.054 14.5449C25.9913 14.5449 27.5672 16.1208 27.5672 18.0581C27.5672 19.9954 25.9913 21.5716 24.054 21.5716ZM24.054 15.5108C22.6493 15.5108 21.5067 16.6534 21.5067 18.0581C21.5067 19.4628 22.6493 20.6054 24.054 20.6054C25.4584 20.6054 26.6013 19.4628 26.6013 18.0581C26.6013 16.6537 25.4587 15.5108 24.054 15.5108Z" fill="#2F373B"/>
<path d="M18.9839 17.575H21.0237V18.5411H18.9839V17.575Z" fill="#2F373B"/>
<path d="M29.175 15.9956V17.0445L27.2078 17.8773L26.8315 16.9874L29.175 15.9956Z" fill="#2F373B"/>
<path d="M13.1328 16.9875L12.7562 17.8774L10.8247 17.0595V16.0112L13.1328 16.9875Z" fill="#2F373B"/>
<path d="M17.6378 18.0585C17.6378 18.6332 17.1718 19.0992 16.5971 19.0992C16.0222 19.0992 15.5562 18.6332 15.5562 18.0585C15.5562 17.4836 16.0222 17.0176 16.5971 17.0176C17.1718 17.0176 17.6378 17.4836 17.6378 18.0585Z" fill="#2F373B"/>
<path d="M24.4442 18.0585C24.4442 18.6332 23.9782 19.0992 23.4033 19.0992C22.8283 19.0992 22.3623 18.6332 22.3623 18.0585C22.3623 17.4836 22.8283 17.0176 23.4033 17.0176C23.9782 17.0176 24.4442 17.4836 24.4442 18.0585Z" fill="#2F373B"/>
<path d="M21.0408 21.087H18.9592C18.7114 21.087 18.5103 20.8862 18.5103 20.6381C18.5103 20.39 18.7114 20.1892 18.9592 20.1892H21.0408C21.2889 20.1892 21.4897 20.39 21.4897 20.6381C21.4897 20.8862 21.2889 21.087 21.0408 21.087Z" fill="#EAA27F"/>
<path d="M20.0002 23.9276C19.2318 23.9276 18.4637 23.7353 17.7633 23.3502C17.5658 23.2415 17.4938 22.9934 17.6022 22.796C17.7108 22.5985 17.9592 22.5265 18.1567 22.6348C19.3111 23.2696 20.6893 23.2696 21.8438 22.6348C22.0412 22.5262 22.2894 22.5982 22.398 22.796C22.5066 22.9934 22.4346 23.2415 22.2372 23.3502C21.5368 23.735 20.7684 23.9276 20.0002 23.9276Z" fill="#EAA27F"/>
<path d="M17.4257 17.8749C17.4257 18.1212 17.2261 18.3207 16.9796 18.3207C16.7333 18.3207 16.5337 18.1212 16.5337 17.8749C16.5337 17.6286 16.7333 17.4287 16.9796 17.4287C17.2261 17.4287 17.4257 17.6286 17.4257 17.8749Z" fill="white"/>
<path d="M24.2827 17.8749C24.2827 18.1212 24.0828 18.3207 23.8365 18.3207C23.5902 18.3207 23.3906 18.1212 23.3906 17.8749C23.3906 17.6286 23.5902 17.4287 23.8365 17.4287C24.0828 17.4287 24.2827 17.6286 24.2827 17.8749Z" fill="white"/>
<path d="M30.1298 12.8012C30.1298 17.6053 29.1755 18.1842 29.1755 18.1842C29.1755 18.1842 27.4357 9.75952 20.0007 9.75952H19.9992C17.6515 9.75952 15.8717 10.5997 14.5353 11.749C11.6392 14.2398 10.8244 18.1842 10.8244 18.1842C10.8244 18.1842 9.87012 17.6053 9.87012 12.8012C9.87012 7.99713 14.1819 5.4953 18.5707 4.80957C18.9796 4.74487 19.3986 4.70978 19.824 4.70184C19.882 4.69971 19.9403 4.69849 19.9992 4.69849H20.0007C20.4866 4.69849 20.9642 4.73602 21.4293 4.80957C25.818 5.4953 30.1298 7.99713 30.1298 12.8012Z" fill="#2F373B"/>
<path d="M22.9561 4.4718C22.4522 4.3421 21.9414 4.23682 21.4287 4.15686C20.9633 4.08331 20.4857 4.04578 20.0002 4.04578H19.9983C19.9397 4.04578 19.8818 4.04639 19.8238 4.04883C19.3984 4.05707 18.9797 4.09216 18.5698 4.15686C16.8703 4.42206 15.182 4.96008 13.7511 5.79901C12.8883 3.07104 15.0508 0.334534 18.0245 0.0961914C21.0661 0.154175 22.9234 2.08746 22.9561 4.4718Z" fill="#2F373B"/>
<path d="M22.3314 8.01807C20.8812 9.01569 20.5141 10.9999 21.5117 12.4504C22.509 13.9006 24.4933 14.2678 25.9438 13.2701" fill="#2F373B"/>
<path d="M14.5353 11.749C11.6392 14.2399 10.8244 18.1843 10.8244 18.1843C10.8244 18.1843 9.87012 17.6053 9.87012 12.8013C9.87012 7.99719 14.1819 5.49536 18.5707 4.80963C18.9796 4.74493 19.3986 4.70984 19.824 4.7019C16.3115 4.83374 14.2912 8.9173 14.5353 11.749Z" fill="#151A1C"/>
</svg>
