<svg width="40" height="40" viewBox="0 0 40 40" fill="none" xmlns="http://www.w3.org/2000/svg">
<path d="M40 20C40 31.0458 31.0455 40 20 40C8.95416 40 0 31.0458 0 20C0 8.95447 8.95416 0 20 0C31.0455 0 40 8.95447 40 20Z" fill="#F46D11"/>
<path d="M24.0547 4.07684C24.0547 5.84076 22.9338 7.34375 21.3658 7.91107C20.9322 8.06763 20.4653 8.15338 19.9779 8.15338C17.7266 8.15338 15.9014 6.32812 15.9014 4.07684C15.9014 1.82526 17.7266 0 19.9779 0C20.4653 0 20.9322 0.0857544 21.3658 0.24231C22.9338 0.809937 24.0547 2.31262 24.0547 4.07684Z" fill="#E89F18"/>
<path d="M24.0427 3.75751C22.8165 3.17615 21.4459 2.85205 19.9994 2.85205C19.6075 2.85205 19.2215 2.87585 18.8428 2.92224C19.2093 1.67743 20.1544 0.680725 21.366 0.242188C22.8384 0.77533 23.9169 2.13306 24.0427 3.75751Z" fill="#FFE05C"/>
<path d="M29.8531 35.1234V37.4082C28.8997 37.9478 27.8981 38.4131 26.8557 38.7934C26.614 38.8816 26.3689 38.9649 26.1226 39.0439C25.9871 39.0882 25.8516 39.1297 25.7143 39.1706C25.2059 39.3226 24.6883 39.4547 24.1634 39.5649C23.933 39.6137 23.702 39.6589 23.4694 39.6989C22.4263 39.8826 21.3561 39.9845 20.2645 39.9982C20.1763 39.9991 20.0884 40.0001 20.0002 40.0001C19.912 40.0001 19.8238 39.9991 19.7356 39.9982C18.6443 39.9845 17.574 39.8826 16.5306 39.6995C16.2981 39.6595 16.0671 39.6146 15.837 39.5658C15.2269 39.4367 14.6288 39.2798 14.041 39.097C14.0084 39.0864 13.9757 39.0766 13.9431 39.0662C13.9208 39.0595 13.8997 39.0522 13.8777 39.0449C13.6312 38.9658 13.387 38.8816 13.1447 38.7934C12.1022 38.4138 11.1006 37.9487 10.147 37.4082V35.1234C10.147 32.3664 11.6475 29.9601 13.8777 28.6774C14.4826 28.3289 15.1406 28.0637 15.837 27.8971C16.205 27.8083 16.5837 27.7469 16.9716 27.7158C17.1724 27.6996 17.3748 27.6914 17.5795 27.6914H22.4196C22.9918 27.6914 23.5488 27.7552 24.0834 27.8776C24.1103 27.884 24.1371 27.8898 24.1634 27.8962C24.8598 28.0637 25.5178 28.3289 26.1226 28.6774C28.3519 29.9607 29.8531 32.3673 29.8531 35.1234Z" fill="#EAA27F"/>
<path d="M29.8529 35.1234V37.4082C27.0856 38.9789 23.9059 39.9079 20.5167 39.9937C20.3445 39.9976 20.173 40.0001 20 40.0001C19.827 40.0001 19.6545 39.9976 19.4833 39.9927C17.5558 39.9445 15.697 39.6229 13.9429 39.0662V35.1234C13.9429 31.0187 17.2711 27.6914 21.3763 27.6914H22.4194C26.5256 27.6914 29.8529 31.0187 29.8529 35.1234Z" fill="#F6BA97"/>
<path d="M22.6513 24.8286V28.0827C22.6513 29.2741 21.8658 30.2812 20.7836 30.6157C20.5358 30.6926 20.2719 30.7341 19.999 30.7341C18.5345 30.7341 17.3477 29.5472 17.3477 28.0827V24.8286H22.6513Z" fill="#EAA27F"/>
<path d="M22.6514 27.8765V28.0825C22.6514 29.2739 21.8658 30.2809 20.7837 30.6154C19.8074 30.3154 19.0735 29.4664 18.938 28.4279C19.115 28.4386 19.2932 28.4441 19.472 28.4441C19.9738 28.4441 20.4654 28.4044 20.9445 28.3257C21.535 28.2308 22.1054 28.0788 22.6514 27.8765Z" fill="#F6BA97"/>
<path d="M12.6058 19.4949C12.6058 20.7227 11.7092 21.7404 10.5349 21.9293C10.4064 21.9501 10.2745 21.9611 10.1396 21.9611C8.77734 21.9611 7.67383 20.8572 7.67383 19.4949C7.67383 18.1326 8.77734 17.0288 10.1396 17.0288C10.2745 17.0288 10.4064 17.0398 10.5349 17.0605C11.7092 17.2495 12.6058 18.2675 12.6058 19.4949Z" fill="#F6BA97"/>
<path d="M12.6054 19.4949C12.6054 20.7227 11.7088 21.7404 10.5345 21.9293C10.3212 21.1539 10.207 20.3375 10.207 19.4949C10.207 18.6523 10.3212 17.8363 10.5345 17.0605C11.7088 17.2495 12.6054 18.2675 12.6054 19.4949Z" fill="#EAA27F"/>
<path d="M11.021 19.4949C11.021 19.9816 10.6264 20.3762 10.1396 20.3762C9.65289 20.3762 9.2583 19.9816 9.2583 19.4949C9.2583 19.0081 9.65289 18.6135 10.1396 18.6135C10.6264 18.6135 11.021 19.0081 11.021 19.4949Z" fill="#EAA27F"/>
<path d="M27.3936 19.4949C27.3936 20.7227 28.2902 21.7404 29.4645 21.9293C29.593 21.9501 29.7248 21.9611 29.8594 21.9611C31.2217 21.9611 32.3255 20.8572 32.3255 19.4949C32.3255 18.1326 31.2217 17.0288 29.8594 17.0288C29.7248 17.0288 29.593 17.0398 29.4645 17.0605C28.2902 17.2495 27.3936 18.2675 27.3936 19.4949Z" fill="#F6BA97"/>
<path d="M27.3936 19.4949C27.3936 20.7227 28.2902 21.7404 29.4645 21.9293C29.6778 21.1539 29.7916 20.3375 29.7916 19.4949C29.7916 18.6523 29.6778 17.8363 29.4645 17.0605C28.2902 17.2495 27.3936 18.2675 27.3936 19.4949Z" fill="#EAA27F"/>
<path d="M30.741 19.4949C30.741 19.9816 30.3464 20.3762 29.8594 20.3762C29.3726 20.3762 28.978 19.9816 28.978 19.4949C28.978 19.0081 29.3726 18.6135 29.8594 18.6135C30.3464 18.6135 30.741 19.0081 30.741 19.4949Z" fill="#EAA27F"/>
<path d="M29.1746 14.6906V18.1845C29.1746 22.7502 25.8394 26.5381 21.472 27.2409C21.4573 27.2433 21.4418 27.2458 21.4271 27.2482C20.9626 27.3224 20.4857 27.3593 19.9992 27.3593C14.9324 27.3593 10.8247 23.2513 10.8247 18.1845V14.6906C10.8247 13.6237 11.0066 12.5986 11.3429 11.6458C12.5978 8.07526 16.0002 5.51514 19.9992 5.51514H20.0001C20.4857 5.51514 20.9633 5.55267 21.4286 5.62622C25.8171 6.31195 29.1746 10.1096 29.1746 14.6906Z" fill="#EAA27F"/>
<path d="M29.1745 14.6906V18.1845C29.1745 22.7502 25.8392 26.5381 21.4719 27.2409C21.4572 27.2433 21.4417 27.2458 21.427 27.2482C17.0383 26.5625 13.6816 22.7649 13.6816 18.1845V14.6906C13.6816 10.1096 17.0392 6.31195 21.4285 5.62622C25.817 6.31195 29.1745 10.1096 29.1745 14.6906Z" fill="#F6BA97"/>
<path d="M26.2443 20.5936C26.2443 21.2247 25.7325 21.7365 25.1014 21.7365C24.4703 21.7365 23.9585 21.2247 23.9585 20.5936C23.9585 19.9625 24.4703 19.4507 25.1014 19.4507C25.7325 19.4507 26.2443 19.9625 26.2443 20.5936Z" fill="#EAA27F"/>
<path d="M16.0402 20.5936C16.0402 21.2247 15.5284 21.7365 14.8973 21.7365C14.2662 21.7365 13.7544 21.2247 13.7544 20.5936C13.7544 19.9625 14.2662 19.4507 14.8973 19.4507C15.5284 19.4507 16.0402 19.9625 16.0402 20.5936Z" fill="#EAA27F"/>
<path d="M24.9267 17.4097C24.9267 16.5681 24.2443 15.886 23.403 15.886C22.5613 15.886 21.8789 16.5681 21.8789 17.4097" fill="#EAA27F"/>
<path d="M18.1205 17.4097C18.1205 16.5681 17.4382 15.886 16.5965 15.886C15.7551 15.886 15.0728 16.5681 15.0728 17.4097" fill="#EAA27F"/>
<path d="M17.6378 18.0585C17.6378 18.6332 17.1718 19.0992 16.5971 19.0992C16.0222 19.0992 15.5562 18.6332 15.5562 18.0585C15.5562 17.4836 16.0222 17.0176 16.5971 17.0176C17.1718 17.0176 17.6378 17.4836 17.6378 18.0585Z" fill="#2F373B"/>
<path d="M24.4439 18.0585C24.4439 18.6332 23.9779 19.0992 23.4033 19.0992C22.8283 19.0992 22.3623 18.6332 22.3623 18.0585C22.3623 17.4836 22.8283 17.0176 23.4033 17.0176C23.9779 17.0176 24.4439 17.4836 24.4439 18.0585Z" fill="#2F373B"/>
<path d="M21.0408 20.6789H18.9592C18.7111 20.6789 18.5103 20.4778 18.5103 20.23C18.5103 19.9819 18.7111 19.7808 18.9592 19.7808H21.0408C21.2889 19.7808 21.4897 19.9819 21.4897 20.23C21.4897 20.4778 21.2889 20.6789 21.0408 20.6789Z" fill="#EAA27F"/>
<path d="M20.0004 23.5196C19.232 23.5196 18.4639 23.3271 17.7635 22.9422C17.5657 22.8336 17.4937 22.5855 17.6024 22.3877C17.711 22.1903 17.9591 22.1182 18.1566 22.2269C19.311 22.8614 20.6895 22.8614 21.844 22.2269C22.0411 22.1182 22.2896 22.1903 22.3982 22.3877C22.5068 22.5855 22.4348 22.8336 22.2371 22.9422C21.537 23.3271 20.7686 23.5196 20.0004 23.5196Z" fill="#EAA27F"/>
<path d="M17.4257 17.8748C17.4257 18.1211 17.2258 18.3207 16.9796 18.3207C16.7333 18.3207 16.5337 18.1211 16.5337 17.8748C16.5337 17.6285 16.7333 17.429 16.9796 17.429C17.2258 17.429 17.4257 17.6285 17.4257 17.8748Z" fill="white"/>
<path d="M17.3535 16.8794H23.143V20.2021H17.3535V16.8794Z" fill="#EAA27F"/>
<path d="M29.464 13.5411V17.0607C23.4191 16.548 19.9996 13.3284 19.9996 10.471C19.9996 13.3284 16.5801 16.548 10.5352 17.0607V13.5411C10.5352 8.31403 14.7725 4.07666 19.9996 4.07666C25.2266 4.07666 29.464 8.31403 29.464 13.5411Z" fill="#FFE05C"/>
<path d="M21.53 4.20081C17.0305 4.9314 13.5964 8.83521 13.5964 13.5413V16.5226C12.668 16.7805 11.6451 16.9666 10.5352 17.0603V13.5413C10.5352 8.31366 14.7725 4.0769 19.9996 4.0769C20.5211 4.0769 21.0323 4.11932 21.53 4.20081Z" fill="#E89F18"/>
<path d="M24.2823 17.8748C24.2823 18.1211 24.0828 18.3207 23.8365 18.3207C23.5902 18.3207 23.3906 18.1211 23.3906 17.8748C23.3906 17.6285 23.5902 17.429 23.8365 17.429C24.0828 17.429 24.2823 17.6285 24.2823 17.8748Z" fill="white"/>
<path d="M20.0004 17.0858C20.2732 17.0858 20.5766 17.1212 20.6693 17.7624C20.7353 18.1719 20.8634 18.5629 20.987 18.8925C21.4497 20.1254 21.84 20.7598 22.3792 21.1553C23.025 21.629 24.123 21.6284 24.7801 21.6284C25.4374 21.6284 26.5351 21.629 27.1809 21.1553C27.7204 20.7598 28.1107 20.1254 28.5734 18.8925C28.8273 18.229 29.3174 16.8768 29.4056 15.9857C29.419 15.8511 29.4257 15.6478 29.4294 15.4568C29.4346 15.1779 29.2094 14.949 28.9304 14.949H24.8499C21.9843 14.949 20.6236 15.4287 20.0004 15.4287C19.3769 15.4287 18.0161 14.949 15.1508 14.949H11.0703C10.7911 14.949 10.5662 15.1779 10.5714 15.4568C10.5747 15.6478 10.5818 15.8511 10.5949 15.9857C10.6831 16.8768 11.1735 18.229 11.4274 18.8925C11.89 20.1254 12.2804 20.7598 12.8199 21.1553C13.4657 21.629 14.5634 21.6284 15.2204 21.6284C15.8778 21.6284 16.9755 21.629 17.6212 21.1553C18.1608 20.7598 18.5511 20.1254 19.0138 18.8925C19.1374 18.5629 19.2655 18.1719 19.3311 17.7624C19.4239 17.1212 19.727 17.0858 20.0004 17.0858Z" fill="#1DA2DD"/>
<path d="M18.1833 18.582C17.3343 20.844 16.8436 20.7436 15.2191 20.7436C14.9784 20.7436 14.762 20.746 14.5661 20.7418C13.4412 20.7216 12.9776 20.5083 12.2544 18.582C11.2177 15.8196 12.9859 15.8342 15.2191 15.8342C15.7736 15.8342 16.3001 15.8333 16.7606 15.8742C18.1571 15.9981 18.963 16.505 18.1833 18.582Z" fill="#512375"/>
<path d="M27.7434 18.582C26.8944 20.844 26.404 20.7436 24.7792 20.7436C24.5671 20.7436 24.3745 20.7451 24.1982 20.7436C23.0211 20.7296 22.5523 20.5483 21.8144 18.582C20.7777 15.8196 22.5459 15.8342 24.7792 15.8342C25.363 15.8342 25.9148 15.8333 26.3924 15.8806C27.7449 16.0161 28.5091 16.541 27.7434 18.582Z" fill="#512375"/>
<path d="M27.744 18.5823C26.895 20.8443 26.4045 20.7438 24.7798 20.7438C24.5677 20.7438 24.3751 20.7454 24.1987 20.7438C25.7564 18.9683 26.2584 17.1559 26.3929 15.8809C27.7455 16.0164 28.5097 16.5413 27.744 18.5823Z" fill="#673389"/>
<path d="M18.1837 18.5821C17.3347 20.8441 16.8439 20.7437 15.2195 20.7437C14.9787 20.7437 14.7623 20.7461 14.5664 20.7418C16.1265 18.9633 16.627 17.1493 16.7609 15.8743C18.1574 15.9982 18.9634 16.5051 18.1837 18.5821Z" fill="#673389"/>
<path d="M20.0004 38.6749C20.0004 39.1443 19.9064 39.5911 19.7358 39.9982C18.6445 39.9844 17.5742 39.8825 16.5308 39.6994C16.2983 39.6594 16.0673 39.6146 15.8372 39.5657C15.2271 39.4366 14.629 39.2798 14.0412 39.097C14.0085 39.0863 13.9759 39.0765 13.9432 39.0662C13.921 39.0594 13.8999 39.0521 13.8779 39.0448C13.6313 38.9658 13.3872 38.8815 13.1449 38.7933C13.144 38.7543 13.1431 38.7149 13.1431 38.6749C13.1431 36.781 14.6778 35.2466 16.5717 35.2466C18.4656 35.2466 20.0004 36.781 20.0004 38.6749Z" fill="#512375"/>
<path d="M26.8575 38.6749C26.8575 38.7149 26.8566 38.7543 26.856 38.7933C26.6143 38.8815 26.3692 38.9648 26.1229 39.0439C25.9874 39.0881 25.8519 39.1296 25.7146 39.1705C25.2062 39.3225 24.6886 39.4547 24.1637 39.5648C23.9333 39.6136 23.7023 39.6588 23.4697 39.6988C22.4266 39.8825 21.3564 39.9844 20.2648 39.9982C20.0942 39.5911 20.0005 39.1443 20.0005 38.6749C20.0005 36.781 21.5352 35.2466 23.4288 35.2466C25.3228 35.2466 26.8575 36.781 26.8575 38.6749Z" fill="#512375"/>
<path d="M21.3066 38.6748C21.3066 39.3962 20.7216 39.981 20.0005 39.981C19.2791 39.981 18.6943 39.3962 18.6943 38.6748C18.6943 37.9537 19.2791 37.3687 20.0005 37.3687C20.7216 37.3687 21.3066 37.9537 21.3066 38.6748Z" fill="#FFE05C"/>
</svg>
