<svg width="40" height="40" viewBox="0 0 40 40" fill="none" xmlns="http://www.w3.org/2000/svg">
<path d="M20 40C31.0457 40 40 31.0457 40 20C40 8.9543 31.0457 0 20 0C8.9543 0 0 8.9543 0 20C0 31.0457 8.9543 40 20 40Z" fill="#EE6781"/>
<path d="M37.7792 24.5894L35.9157 26.4529C34.8757 27.4936 33.4597 27.9301 32.1049 27.7623C31.1254 27.6413 30.1775 27.2049 29.4256 26.4529L23.7004 20.7277C21.9085 18.9358 21.9085 16.0302 23.7004 14.2375L25.5638 12.3741C25.6236 12.3143 25.6848 12.2559 25.7474 12.2002C27.549 10.5841 30.3218 10.6419 32.054 12.3741L37.7792 18.0992C39.5718 19.8912 39.5718 22.7974 37.7792 24.5894Z" fill="#2E3140"/>
<path d="M37.3673 20.0836C37.041 20.4099 36.5118 20.4099 36.1855 20.0836L29.4098 13.3079C29.0835 12.9816 29.0835 12.4524 29.4098 12.1261C29.7361 11.7998 30.2653 11.7998 30.5916 12.1261L37.3673 18.9018C37.6936 19.2281 37.6936 19.7573 37.3673 20.0836Z" fill="#3E4E60"/>
<path d="M24.5118 23.9901H21.7842L22.3558 17.7199H22.3623C22.2979 16.4677 22.7436 15.1941 23.6998 14.2375L25.5632 12.3741L25.5653 12.372C25.6764 12.2604 25.8352 12.2092 25.9902 12.2369C26.8825 12.3962 27.7365 12.82 28.4261 13.5096L31.144 16.2275L34.1513 19.2348C35.9435 21.0269 35.9435 23.9327 34.1513 25.7249L32.2878 27.5884L32.2857 27.5905C32.1736 27.702 32.0141 27.753 31.8584 27.7252C30.9669 27.5655 30.1139 27.1419 29.4249 26.4529L28.6949 25.7229C27.5855 24.6134 26.0807 23.9901 24.5118 23.9901Z" fill="#F4E6F4"/>
<path d="M31.1927 24.999C30.137 24.7379 29.4928 23.6704 29.7539 22.6147L30.1692 20.9354C30.4303 19.8797 31.4978 19.2354 32.5535 19.4965C33.6092 19.7576 34.2534 20.8251 33.9923 21.8808L33.577 23.5602C33.3159 24.6159 32.2484 25.2601 31.1927 24.999Z" fill="white"/>
<path d="M31.143 16.2305C30.6241 18.5519 29.1251 20.5028 27.1026 21.6263C26.148 22.1566 24.9562 21.9845 24.184 21.2123L23.6994 20.7276C21.9075 18.9357 21.9075 16.0301 23.6994 14.2374L25.0226 12.9142L25.563 12.3739C25.6754 12.261 25.8362 12.2091 25.993 12.2373C26.8842 12.397 27.737 12.8206 28.4259 13.5094L31.1416 16.2251C31.1429 16.2266 31.1435 16.2285 31.143 16.2305Z" fill="#F9C744"/>
<path d="M26.4874 16.648C26.4874 18.4001 25.6172 19.9989 24.184 21.2121L23.6994 20.7275C21.9075 18.9355 21.9075 16.03 23.6994 14.2373L25.0226 12.9141C25.9491 13.9892 26.4874 15.2712 26.4874 16.648Z" fill="#F39E22"/>
<path d="M26.4481 19.7703C27.8164 19.7703 28.9255 18.6611 28.9255 17.2929C28.9255 15.9246 27.8164 14.8154 26.4481 14.8154C25.0799 14.8154 23.9707 15.9246 23.9707 17.2929C23.9707 18.6611 25.0799 19.7703 26.4481 19.7703Z" fill="#57409B"/>
<path d="M27.6347 17.4304C27.6347 17.7253 27.5577 18.0023 27.423 18.2429C27.1384 18.7529 26.5927 19.098 25.9664 19.098C25.0453 19.098 24.2988 18.3515 24.2988 17.4304C24.2988 16.7485 24.7078 16.1622 25.2934 15.9038C25.499 15.8131 25.7272 15.7622 25.9664 15.7622C26.8875 15.7621 27.6347 16.5093 27.6347 17.4304Z" fill="#22A8B9"/>
<path d="M27.6354 17.4304C27.6354 17.7253 27.5584 18.0023 27.4237 18.2429C27.2174 18.335 26.9899 18.3852 26.7501 18.3852C25.829 18.3852 25.0825 17.6387 25.0825 16.7176C25.0825 16.422 25.1595 16.1443 25.2942 15.9038C25.4998 15.8131 25.728 15.7622 25.9672 15.7622C26.8882 15.7621 27.6354 16.5093 27.6354 17.4304Z" fill="#4FCAE8"/>
<path d="M27.064 17.4304C27.064 17.6243 27.0131 17.8065 26.9244 17.9645C26.7375 18.3 26.3787 18.5268 25.9669 18.5268C25.8432 18.5268 25.7243 18.5061 25.6137 18.4683C25.1813 18.3219 24.8706 17.9122 24.8706 17.4304C24.8706 16.9822 25.1394 16.5965 25.5243 16.4261C25.5538 16.413 25.584 16.4013 25.615 16.3917C25.7257 16.3539 25.8439 16.3333 25.9669 16.3333C26.5725 16.3334 27.064 16.8248 27.064 17.4304Z" fill="#3E4E60"/>
<path d="M26.3587 17.4304C26.3587 17.6242 26.3079 17.8064 26.2192 17.9644C26.0879 18.1995 25.8728 18.3817 25.6137 18.4682C25.1813 18.3218 24.8706 17.9121 24.8706 17.4303C24.8706 16.9821 25.1394 16.5964 25.5243 16.426C25.5538 16.4129 25.584 16.4012 25.615 16.3916C26.0474 16.5388 26.3587 16.9485 26.3587 17.4304Z" fill="#2E3140"/>
<path d="M25.3478 17.76C25.7604 17.76 26.095 17.4255 26.095 17.0128C26.095 16.6002 25.7604 16.2656 25.3478 16.2656C24.9351 16.2656 24.6006 16.6002 24.6006 17.0128C24.6006 17.4255 24.9351 17.76 25.3478 17.76Z" fill="white"/>
<path d="M23.0527 19.6343V21.212L22.7781 21.8134L21.7841 23.9901C15.4048 23.9901 10.8554 23.4835 7.80035 22.9343C4.1984 22.2879 2.67285 21.5829 2.67285 21.5829C2.67285 21.5829 12.5119 19.6343 23.0527 19.6343Z" fill="#DD5E26"/>
<path d="M22.778 21.8132L21.784 23.99C15.4047 23.99 10.8554 23.4833 7.80029 22.9341C11.5925 22.4122 17.0708 21.8309 22.778 21.8132Z" fill="#BF5E39"/>
<path d="M23.0531 13.8074V20.2926C19.4915 20.2962 15.6337 20.5158 12.0305 20.772C9.14482 20.9698 3.77334 21.4565 1.79881 21.6729C1.4792 21.7057 1.24803 21.3789 1.38209 21.0875C4.24584 14.3984 13.3929 13.9705 23.0531 13.8074Z" fill="#EA792E"/>
<path d="M23.0534 13.8074V18.3134C16.5921 18.3274 8.29813 19.0392 2.14844 19.6567C5.63711 14.396 13.8227 13.963 23.0534 13.8074Z" fill="#F39E22"/>
<path d="M23.0535 20.2927C22.5466 20.2927 22.1357 19.8818 22.1357 19.375V14.7256C22.1357 14.2187 22.5467 13.8079 23.0535 13.8079C23.5604 13.8079 23.9712 14.2188 23.9712 14.7256V19.3749C23.9713 19.8818 23.5604 20.2927 23.0535 20.2927Z" fill="#2E3140"/>
<path d="M21.2942 23.8412C20.8697 23.5641 20.7502 22.9955 21.0272 22.571L22.2847 20.6443C22.5618 20.2198 23.1304 20.1003 23.5549 20.3773C23.9793 20.6544 24.0989 21.223 23.8218 21.6475L22.5643 23.5742C22.2873 23.9988 21.7186 24.1182 21.2942 23.8412Z" fill="#2E3140"/>
<path d="M18.9145 16.2923V20.38C18.3082 20.4033 17.6948 20.4306 17.0781 20.4611V16.2922C17.0781 15.7856 17.4892 15.3745 17.9959 15.3745C18.503 15.3747 18.9144 15.7851 18.9145 16.2923Z" fill="#DD5E26"/>
<path d="M15.4722 17.6702V20.548C14.8588 20.5833 14.2453 20.621 13.6367 20.6612V17.6702C13.6863 16.4525 15.4228 16.4529 15.4722 17.6702Z" fill="#DD5E26"/>
<path d="M12.0308 19.2759V20.7718C11.4077 20.8167 10.7943 20.8633 10.1953 20.9099V19.2759C10.245 18.0581 11.9815 18.0587 12.0308 19.2759Z" fill="#DD5E26"/>
<path d="M8.15076 18.2958C8.15076 19.3011 7.94521 20.2574 7.57349 21.1261C4.94873 21.3518 2.83865 21.5645 1.79881 21.6729C1.4792 21.7058 1.24803 21.379 1.38209 21.0876C2.32951 19.0168 3.75474 17.0143 7.64412 15.6357C7.97092 16.4587 8.15076 17.3564 8.15076 18.2958Z" fill="#2E3140"/>
<path d="M3.85216 19.8929C3.54966 19.4817 3.63786 18.903 4.04911 18.6005L5.92458 17.2211C6.33583 16.9186 6.9145 17.0068 7.217 17.418C7.5195 17.8293 7.4313 18.4079 7.02005 18.7104L5.1445 20.0898C4.73325 20.3923 4.15466 20.3042 3.85216 19.8929Z" fill="#3E4E60"/>
<path d="M21.1116 15.7103C21.1116 16.3309 20.6378 16.8617 20.0075 16.9211L18.9139 17.0239C17.3498 17.1716 15.2116 17.3735 13.6483 17.5201L11.5888 17.7144C10.8784 17.7858 10.252 17.2127 10.2559 16.4996C10.2559 15.8781 10.7296 15.3474 11.3599 15.288L19.7785 14.4947C20.4893 14.424 21.1161 14.9964 21.1116 15.7103Z" fill="#F9C744"/>
<path d="M18.9135 16.2923V17.0238L17.0771 17.1972V16.2923C17.1267 15.0742 18.8643 15.0753 18.9135 16.2923Z" fill="#EA792E"/>
<path d="M15.4165 17.3538L13.6484 17.52C13.7207 17.0849 14.0989 16.7524 14.5541 16.7524C14.8079 16.7524 15.0375 16.8553 15.2029 17.0214C15.2961 17.1145 15.3691 17.2278 15.4165 17.3538Z" fill="#EA792E"/>
</svg>
