<svg width="40" height="40" viewBox="0 0 40 40" fill="none" xmlns="http://www.w3.org/2000/svg">
<path d="M20 40C31.0457 40 40 31.0457 40 20C40 8.9543 31.0457 0 20 0C8.9543 0 0 8.9543 0 20C0 31.0457 8.9543 40 20 40Z" fill="#53B976"/>
<path d="M34.2155 28.2585C33.9538 28.6874 33.6382 29.0906 33.2702 29.4585C31.9835 30.7445 30.4687 31.7484 28.8194 32.4312C27.8585 32.8289 26.853 33.1179 25.821 33.289C25.0819 33.4125 24.3296 33.4757 23.5702 33.4757H17.428C15.0069 33.4757 13.0444 31.5132 13.0444 29.0929V25.6054L13.8663 25.0265L18.7866 21.5601L22.0796 19.2406L29.2577 14.1843H29.2585L34.0491 21.2437C35.5015 23.3835 35.5187 26.1304 34.2155 28.2585Z" fill="#B26E2B"/>
<path d="M30.0457 17.0726V19.9273C30.0457 22.9383 27.702 25.4023 24.7379 25.593C24.6152 25.6016 24.4918 25.6055 24.3668 25.6055H16.3691C15.4652 25.6055 14.6176 25.3961 13.866 25.0266C11.9691 24.0937 10.6895 22.1383 10.6895 19.9383C10.6895 19.6375 10.7129 19.332 10.7629 19.0234C11.3574 15.3344 14.3371 12.4922 18.0504 12.0726L19.3699 11.9234L21.8715 11.6406L23.7285 11.4305C26.0434 11.1687 28.1605 12.3312 29.2574 14.1844H29.2582C29.7574 15.0273 30.0457 16.0133 30.0457 17.0726Z" fill="#B26E2B"/>
<path d="M34.2153 28.2586C33.5044 28.7219 32.7536 29.1172 31.9731 29.4406C31.963 29.4445 31.9536 29.4484 31.9442 29.4523C30.1794 30.1781 28.1442 29.7148 26.8481 28.3141C26.0692 27.4719 25.3622 26.5617 24.738 25.593C24.1317 24.6523 23.6036 23.657 23.1614 22.6148C22.7044 21.5359 22.3395 20.4078 22.0794 19.2406C22.0286 19.0187 21.9825 18.7945 21.9403 18.5695C21.7185 17.3844 21.6021 16.1617 21.6021 14.9117C21.6021 13.7976 21.6942 12.7047 21.8716 11.6406L23.7286 11.4305C26.0435 11.1687 28.1606 12.3312 29.2575 14.1844H29.2583L34.0489 21.2437C35.5013 23.3836 35.5185 26.1305 34.2153 28.2586Z" fill="#C68132"/>
<path d="M32.5814 25.9461C31.3675 26.7379 29.7415 26.3958 28.9496 25.1818L25.4803 19.8633C24.6884 18.6494 25.0306 17.0234 26.2445 16.2315C27.4584 15.4397 29.0845 15.7818 29.8763 16.9958L33.3456 22.3143C34.1375 23.5283 33.7953 25.1543 32.5814 25.9461Z" fill="#F39E22"/>
<path d="M17.5496 23.9938H10.8936V19.8979L22.4193 16.9575V19.124C22.4193 21.8135 20.2391 23.9938 17.5496 23.9938Z" fill="#EE6781"/>
<path d="M21.815 24.7998C23.5547 24.7998 24.965 23.3895 24.965 21.6498C24.965 19.9101 23.5547 18.4998 21.815 18.4998C20.0753 18.4998 18.665 19.9101 18.665 21.6498C18.665 23.3895 20.0753 24.7998 21.815 24.7998Z" fill="#F4829B"/>
<path d="M24.1144 21.6503C24.1144 21.9951 24.0391 22.3215 23.9016 22.614C23.5382 23.4019 22.7415 23.9486 21.8161 23.9486C20.5457 23.9486 19.5166 22.9195 19.5166 21.6503C19.5166 20.7248 20.0634 19.9271 20.8513 19.5636C21.1449 19.4261 21.4712 19.3508 21.8161 19.3508C23.0853 19.3508 24.1144 20.3811 24.1144 21.6503Z" fill="#DD5E26"/>
<path d="M24.1141 21.6503C24.1141 21.9951 24.0388 22.3215 23.9013 22.614C23.6088 22.7515 23.2825 22.8268 22.9376 22.8268C21.6684 22.8268 20.6382 21.7976 20.6382 20.5284C20.6382 20.1836 20.7135 19.8572 20.851 19.5636C21.1446 19.4261 21.4709 19.3508 21.8158 19.3508C23.085 19.3508 24.1141 20.3811 24.1141 21.6503Z" fill="#EA792E"/>
<path d="M23.274 21.6502C23.274 21.8685 23.226 22.0758 23.1387 22.2614C23.0372 22.4797 22.8844 22.6695 22.6946 22.8136C22.4512 22.998 22.1467 23.1083 21.8161 23.1083C21.0096 23.1083 20.3569 22.4556 20.3569 21.6502C20.3569 21.3195 20.4672 21.0151 20.6516 20.7706C20.7957 20.5807 20.9855 20.4269 21.2038 20.3265C21.3904 20.2391 21.5967 20.1912 21.8161 20.1912C22.6215 20.1911 23.274 20.8448 23.274 21.6502Z" fill="#3E4E60"/>
<path d="M23.2738 21.6502C23.2738 21.8685 23.2257 22.0758 23.1385 22.2614C23.037 22.4797 22.8842 22.6695 22.6943 22.8136C21.6193 22.7001 20.7637 21.8455 20.6514 20.7706C20.7954 20.5807 20.9853 20.4269 21.2036 20.3265C21.3902 20.2391 21.5964 20.1912 21.8158 20.1912C22.6212 20.1911 23.2738 20.8448 23.2738 21.6502Z" fill="#2E3140"/>
<path d="M20.7451 22.103C21.2178 22.103 21.601 21.7198 21.601 21.2471C21.601 20.7743 21.2178 20.3911 20.7451 20.3911C20.2724 20.3911 19.8892 20.7743 19.8892 21.2471C19.8892 21.7198 20.2724 22.103 20.7451 22.103Z" fill="white"/>
<path d="M24.3661 27.5609V27.7867C24.3661 28.5461 24.1521 29.2555 23.7818 29.8578C23.0849 30.9906 21.8349 31.7453 20.4075 31.7453C19.8528 31.7453 19.3099 31.6289 18.813 31.4094C18.3153 31.1907 17.863 30.8696 17.488 30.4602L13.0435 25.6055H22.4114C23.4911 25.6055 24.3661 26.4813 24.3661 27.5609Z" fill="#DD5273"/>
<path d="M24.3659 27.5609V27.7867C24.3659 28.5461 24.1519 29.2555 23.7815 29.8578C23.3651 30.007 22.9159 30.0883 22.4479 30.0883C21.8925 30.0883 21.3503 29.9719 20.8526 29.7523C20.3558 29.5336 19.9034 29.2125 19.5284 28.8023L16.6011 25.6055H22.4112C23.4909 25.6055 24.3659 26.4812 24.3659 27.5609Z" fill="#EE6781"/>
<path d="M21.9622 29.1235C22.7701 29.1235 23.425 28.4686 23.425 27.6607C23.425 26.8529 22.7701 26.198 21.9622 26.198C21.1544 26.198 20.4995 26.8529 20.4995 27.6607C20.4995 28.4686 21.1544 29.1235 21.9622 29.1235Z" fill="#F4829B"/>
<path d="M5.79297 23.9937H12.2484C13.2693 23.9937 15.0192 24.445 15.6759 25.2267L15.9944 25.6058H10.1648C8.56219 25.6058 7.01203 25.0341 5.79297 23.9937Z" fill="#F9C744"/>
<path d="M17.468 21.9468C17.468 22.5124 17.2391 23.0233 16.8688 23.3944C16.4985 23.7647 15.986 23.9937 15.4211 23.9937H4.06568C3.39302 23.9937 3.02583 23.2077 3.45787 22.6913C3.51255 22.6257 3.5688 22.5608 3.62583 22.4976C3.64458 22.4765 3.66333 22.4562 3.68287 22.4351C4.37974 21.671 5.21568 21.0616 6.13521 20.6319C7.15552 20.1554 8.27974 19.8999 9.43286 19.8999H15.4211C15.4383 19.8999 15.4555 19.8999 15.4727 19.9007C16.5797 19.928 17.468 20.8335 17.468 21.9468Z" fill="#FAD98F"/>
<path d="M14.369 19.8999C14.3448 20.5991 14.0526 21.2288 13.5909 21.6905C13.1089 22.1726 12.4433 22.4702 11.7073 22.4702H4.11123C3.96514 22.4702 3.82217 22.4585 3.68311 22.4351C4.37998 21.671 5.21592 21.0616 6.13545 20.6319C7.15576 20.1554 8.27998 19.8999 9.43311 19.8999H14.369Z" fill="#FAEFDC"/>
<path d="M12.4076 21.7486H8.37639C8.02482 21.7486 7.73975 21.4636 7.73975 21.112C7.73975 20.7604 8.02475 20.4753 8.37639 20.4753H12.4076C12.7591 20.4753 13.0442 20.7603 13.0442 21.112C13.0441 21.4635 12.7591 21.7486 12.4076 21.7486Z" fill="white"/>
<path d="M13.1137 22.4702H10.8135C10.4586 22.4702 10.1709 22.1826 10.1709 21.8276C10.1709 21.4727 10.4586 21.1851 10.8135 21.1851H13.1137C13.4686 21.1851 13.7563 21.4727 13.7563 21.8276C13.7563 22.1826 13.4686 22.4702 13.1137 22.4702Z" fill="#3E4E60"/>
<path d="M22.2791 4.96167H16.563C14.7415 4.96167 13.265 6.43823 13.265 8.25972V12.045C13.265 10.345 11.8869 8.96691 10.1869 8.96691C8.48701 8.96691 7.10889 10.345 7.10889 12.045V16.3446C7.10889 18.308 8.70053 19.8996 10.664 19.8996C12.3905 19.8996 14.1097 19.6741 15.7779 19.2287L22.939 17.3168C24.4948 16.9014 25.5771 15.4923 25.5771 13.8821V8.25972C25.5772 6.43823 24.1006 4.96167 22.2791 4.96167Z" fill="#DD5273"/>
<path d="M9.87107 18.4998C8.84717 18.4998 8.01709 17.6697 8.01709 16.6458V11.716C8.01709 10.6921 8.84717 9.86206 9.87107 9.86206C10.895 9.86206 11.7251 10.6921 11.7251 11.716V16.6458C11.7251 17.6697 10.8951 18.4998 9.87107 18.4998Z" fill="#EE6781"/>
<path d="M9.87107 15.0139C8.84717 15.0139 8.01709 14.1838 8.01709 13.1599V11.716C8.01709 10.6921 8.84717 9.86206 9.87107 9.86206C10.895 9.86206 11.7251 10.6921 11.7251 11.716V13.1599C11.7251 14.1838 10.8951 15.0139 9.87107 15.0139Z" fill="#F4829B"/>
<path d="M15.7171 16.6317C15.039 16.6317 14.4893 16.082 14.4893 15.4038V8.34166C14.4893 7.66354 15.039 7.11377 15.7171 7.11377C16.3953 7.11377 16.945 7.66354 16.945 8.34166V15.4038C16.945 16.082 16.3953 16.6317 15.7171 16.6317Z" fill="#EE6781"/>
<path d="M19.3451 14.2831C18.6669 14.2831 18.1172 13.7333 18.1172 13.0552V8.34166C18.1172 7.66354 18.6669 7.11377 19.3451 7.11377C20.0232 7.11377 20.573 7.66354 20.573 8.34166V13.0552C20.573 13.7333 20.0232 14.2831 19.3451 14.2831Z" fill="#EE6781"/>
<path d="M22.972 12.72C22.2939 12.72 21.7441 12.1703 21.7441 11.4921V8.34166C21.7441 7.66354 22.2939 7.11377 22.972 7.11377C23.6502 7.11377 24.1999 7.66354 24.1999 8.34166V11.4921C24.1998 12.1703 23.6502 12.72 22.972 12.72Z" fill="#EE6781"/>
<path d="M15.7171 11.6069C15.039 11.6069 14.4893 11.0572 14.4893 10.379V8.34264C14.4893 7.66451 15.039 7.11475 15.7171 7.11475C16.3953 7.11475 16.945 7.66451 16.945 8.34264V10.379C16.945 11.0572 16.3953 11.6069 15.7171 11.6069Z" fill="#F4829B"/>
<path d="M19.3451 10.4975C18.6669 10.4975 18.1172 9.94775 18.1172 9.26963V8.34166C18.1172 7.66354 18.6669 7.11377 19.3451 7.11377C20.0232 7.11377 20.573 7.66354 20.573 8.34166V9.26963C20.573 9.94783 20.0232 10.4975 19.3451 10.4975Z" fill="#F4829B"/>
<path d="M22.972 9.75979C22.2939 9.75979 21.7441 9.21002 21.7441 8.53189V8.34166C21.7441 7.66354 22.2939 7.11377 22.972 7.11377C23.6502 7.11377 24.1999 7.66354 24.1999 8.34166V8.53189C24.1998 9.2101 23.6502 9.75979 22.972 9.75979Z" fill="#F4829B"/>
</svg>
