<svg width="40" height="40" viewBox="0 0 40 40" fill="none" xmlns="http://www.w3.org/2000/svg">
<path d="M20 40C31.0457 40 40 31.0457 40 20C40 8.9543 31.0457 0 20 0C8.9543 0 0 8.9543 0 20C0 31.0457 8.9543 40 20 40Z" fill="#EE6781"/>
<path d="M22.4833 24.2046C22.4833 24.3562 22.4528 24.4999 22.3989 24.6319C22.3622 24.7202 22.3138 24.8022 22.2575 24.878C22.0536 25.1476 21.7302 25.3218 21.3661 25.3218H18.6333C18.3247 25.3218 18.045 25.1968 17.8435 24.9944C17.6411 24.7921 17.5161 24.5132 17.5161 24.2046C17.5161 23.628 17.9536 23.153 18.5153 23.0937C18.5536 23.0897 18.5935 23.0874 18.6333 23.0874H21.3661C21.6747 23.0874 21.9544 23.2124 22.1559 23.4147C22.3583 23.6171 22.4833 23.8968 22.4833 24.2046Z" fill="#C44A1A"/>
<path d="M22.4833 24.2046C22.4833 24.3562 22.4528 24.4999 22.3989 24.6319H19.7231C19.4146 24.6319 19.1349 24.5069 18.9333 24.3046C18.731 24.1022 18.606 23.8233 18.606 23.5147C18.606 23.3632 18.6364 23.2194 18.6911 23.0874H21.3661C21.6747 23.0874 21.9544 23.2124 22.156 23.4147C22.3583 23.6171 22.4833 23.8968 22.4833 24.2046Z" fill="#DD5E26"/>
<path d="M21.5405 24.2047H19.7173C19.4927 24.2047 19.3105 24.0226 19.3105 23.7979C19.3105 23.5732 19.4927 23.3911 19.7173 23.3911H21.5405C21.7651 23.3911 21.9473 23.5732 21.9473 23.7979C21.9473 24.0226 21.7651 24.2047 21.5405 24.2047Z" fill="#EA792E"/>
<path d="M22.1525 26.2911C22.1525 26.4225 22.1261 26.5471 22.0793 26.6616C22.0475 26.7381 22.0055 26.8092 21.9568 26.8749C21.78 27.1085 21.4996 27.2596 21.184 27.2596H18.8151C18.5476 27.2596 18.3052 27.1512 18.1304 26.9758C17.955 26.8004 17.8467 26.5586 17.8467 26.2911C17.8467 25.7913 18.2259 25.3796 18.7129 25.3281C18.7461 25.3247 18.7806 25.3228 18.8151 25.3228H21.184C21.4515 25.3228 21.6939 25.4311 21.8687 25.6065C22.0441 25.7818 22.1525 26.0243 22.1525 26.2911Z" fill="#C44A1A"/>
<path d="M22.1525 26.2902C22.1525 26.4216 22.1261 26.5462 22.0794 26.6607H19.7599C19.4924 26.6607 19.25 26.5523 19.0753 26.3769C18.8999 26.2015 18.7915 25.9597 18.7915 25.6922C18.7915 25.5608 18.8179 25.4362 18.8653 25.3218H21.1842C21.4517 25.3218 21.6941 25.4301 21.8689 25.6055C22.0442 25.7809 22.1525 26.0234 22.1525 26.2902Z" fill="#DD5E26"/>
<path d="M21.3344 26.2903H19.754C19.5593 26.2903 19.4014 26.1324 19.4014 25.9376C19.4014 25.7429 19.5593 25.585 19.754 25.585H21.3344C21.5292 25.585 21.6871 25.7429 21.6871 25.9376C21.6871 26.1324 21.5292 26.2903 21.3344 26.2903Z" fill="#EA792E"/>
<path d="M21.9369 28.1301C21.9369 28.2483 21.9132 28.3605 21.8711 28.4635C21.8424 28.5323 21.8047 28.5963 21.7608 28.6554C21.6017 28.8657 21.3494 29.0016 21.0654 29.0016H18.9336C18.6929 29.0016 18.4747 28.9041 18.3174 28.7462C18.1596 28.5883 18.062 28.3708 18.062 28.13C18.062 27.6803 18.4033 27.3097 18.8415 27.2634C18.8713 27.2603 18.9024 27.2585 18.9335 27.2585H21.0653C21.306 27.2585 21.5242 27.356 21.6815 27.5139C21.8394 27.6718 21.9369 27.89 21.9369 28.1301Z" fill="#C44A1A"/>
<path d="M21.9369 28.1301C21.9369 28.2483 21.9131 28.3605 21.871 28.4635H19.7837C19.543 28.4635 19.3248 28.366 19.1675 28.2081C19.0097 28.0502 18.9121 27.8327 18.9121 27.5919C18.9121 27.4736 18.9359 27.3615 18.9785 27.2585H21.0652C21.3059 27.2585 21.5241 27.356 21.6814 27.5139C21.8394 27.6718 21.9369 27.89 21.9369 28.1301Z" fill="#DD5E26"/>
<path d="M21.2014 28.13H19.7793C19.604 28.13 19.4619 27.9879 19.4619 27.8127C19.4619 27.6375 19.604 27.4954 19.7793 27.4954H21.2014C21.3767 27.4954 21.5188 27.6375 21.5188 27.8127C21.5188 27.988 21.3767 28.13 21.2014 28.13Z" fill="#EA792E"/>
<path d="M21.6975 29.7654C21.6975 29.869 21.6767 29.9673 21.6399 30.0575C21.6148 30.1178 21.5817 30.1739 21.5432 30.2257C21.4039 30.4099 21.1828 30.5291 20.934 30.5291H19.0659C18.855 30.5291 18.6638 30.4436 18.526 30.3053C18.3877 30.1669 18.3022 29.9763 18.3022 29.7654C18.3022 29.3712 18.6013 29.0466 18.9853 29.006C19.0115 29.0034 19.0387 29.0017 19.0659 29.0017H20.934C21.1449 29.0017 21.3361 29.0872 21.4739 29.2255C21.6122 29.3638 21.6975 29.555 21.6975 29.7654Z" fill="#C44A1A"/>
<path d="M21.6973 29.7654C21.6973 29.869 21.6764 29.9673 21.6396 30.0575H19.8105C19.5996 30.0575 19.4084 29.972 19.2706 29.8337C19.1323 29.6954 19.0469 29.5048 19.0469 29.2938C19.0469 29.1902 19.0677 29.0919 19.1051 29.0017H20.9336C21.1445 29.0017 21.3357 29.0872 21.4735 29.2255C21.6119 29.3638 21.6973 29.555 21.6973 29.7654Z" fill="#DD5E26"/>
<path d="M21.0525 29.7655H19.8064C19.6528 29.7655 19.5283 29.6409 19.5283 29.4874C19.5283 29.3338 19.6528 29.2092 19.8064 29.2092H21.0525C21.2061 29.2092 21.3307 29.3338 21.3307 29.4874C21.3307 29.641 21.2061 29.7655 21.0525 29.7655Z" fill="#EA792E"/>
<path d="M21.5336 31.2202C21.5336 31.3139 21.5148 31.4027 21.4815 31.4842C21.4588 31.5388 21.4289 31.5895 21.3941 31.6363C21.2682 31.8028 21.0683 31.9104 20.8434 31.9104H19.1551C18.9645 31.9104 18.7916 31.8332 18.6671 31.7082C18.5421 31.5832 18.4648 31.4108 18.4648 31.2202C18.4648 30.864 18.7352 30.5705 19.0822 30.5339C19.1059 30.5314 19.1305 30.53 19.1551 30.53H20.8434C21.0341 30.53 21.2069 30.6073 21.3314 30.7323C21.4564 30.8572 21.5336 31.03 21.5336 31.2202Z" fill="#C44A1A"/>
<path d="M21.5337 31.2193C21.5337 31.313 21.5148 31.4018 21.4815 31.4834H19.8284C19.6378 31.4834 19.465 31.4061 19.3404 31.2811C19.2154 31.1561 19.1382 30.9837 19.1382 30.7931C19.1382 30.6994 19.157 30.6107 19.1908 30.5291H20.8434C21.034 30.5291 21.2069 30.6063 21.3314 30.7313C21.4565 30.8563 21.5337 31.0291 21.5337 31.2193Z" fill="#DD5E26"/>
<path d="M20.9504 31.2192H19.8241C19.6853 31.2192 19.5728 31.1067 19.5728 30.9679C19.5728 30.8291 19.6853 30.7166 19.8241 30.7166H20.9504C21.0892 30.7166 21.2017 30.8291 21.2017 30.9679C21.2017 31.1067 21.0892 31.2192 20.9504 31.2192Z" fill="#EA792E"/>
<path d="M17.8813 36.806L20.7754 33.1418C20.9964 32.8623 21.0467 32.4971 20.9334 32.1795C20.8854 32.0419 20.8058 31.9138 20.697 31.8049C20.3357 31.4436 19.7607 31.4099 19.3601 31.7265L15.6959 34.6206C15.223 34.9941 15.1816 35.6973 15.6081 36.1238L16.3782 36.8938C16.8046 37.3203 17.5079 37.2789 17.8813 36.806Z" fill="#C44A1A"/>
<path d="M17.8809 36.8061L20.775 33.1418C20.9961 32.8623 21.0463 32.4972 20.933 32.1795C20.6153 32.0662 20.2507 32.1171 19.9707 32.3375L16.3064 35.2316C15.8335 35.605 15.7927 36.3089 16.2192 36.7353L16.3777 36.8938C16.8043 37.3203 17.5075 37.2789 17.8809 36.8061Z" fill="#DD5E26"/>
<path d="M16.6821 36.427C16.881 36.6259 17.2089 36.6067 17.3833 36.3859L19.5144 34.0209C19.6098 33.9002 19.5998 33.727 19.4908 33.6182C19.382 33.5094 19.2089 33.4992 19.0881 33.5946L16.7231 35.7258C16.5024 35.9001 16.4832 36.2281 16.6821 36.427Z" fill="#EA792E"/>
<path d="M25.2959 35.3359C25.2912 35.3422 25.285 35.3484 25.2795 35.3539L24.4975 36.1359C23.335 37.2984 21.7584 37.9516 20.1147 37.9516H17.9725C17.2623 37.9516 16.6865 37.3758 16.6865 36.6656C16.6865 36.064 17.1029 35.5492 17.6795 35.414C17.717 35.4055 17.7553 35.3984 17.7943 35.393L18.9576 35.2305L24.8092 34.4117C24.9311 34.3945 25.042 34.4156 25.1357 34.4625C25.4412 34.6164 25.5647 35.0461 25.2959 35.3359Z" fill="#C44A1A"/>
<path d="M25.2963 35.3359C24.3463 36.075 23.1729 36.4828 21.9564 36.4828H20.0775C19.4549 36.4828 18.9502 35.9781 18.9502 35.3555C18.9502 35.3133 18.9525 35.2719 18.958 35.2305L24.8096 34.4117C24.9315 34.3945 25.0424 34.4156 25.1361 34.4625C25.4416 34.6164 25.565 35.0461 25.2963 35.3359Z" fill="#DD5E26"/>
<path d="M21.0323 36.0758L23.3016 35.7583C23.4927 35.7316 23.6348 35.5682 23.6348 35.3752C23.6348 35.1402 23.4271 34.9595 23.1944 34.9921L20.9251 35.3095C20.734 35.3362 20.5918 35.4997 20.5918 35.6926C20.5918 35.9276 20.7996 36.1083 21.0323 36.0758Z" fill="#EA792E"/>
<path d="M25.4356 34.546C25.4356 34.6312 25.4184 34.7148 25.3848 34.7921C25.3168 34.9554 25.1801 35.0898 24.9965 35.1491C24.9317 35.1702 24.866 35.1804 24.8012 35.1804C24.5176 35.1804 24.2574 34.9882 24.1856 34.6968C24.0027 33.9507 24.1442 33.1624 24.5738 32.5265L24.9559 31.9616C25.0184 31.8687 25.1317 31.8718 25.1996 31.9288C25.2418 31.964 25.2668 32.021 25.252 32.0882L25.1629 32.4976C25.0426 33.0515 25.0981 33.628 25.3207 34.1491L25.384 34.2968C25.4192 34.3781 25.4356 34.4632 25.4356 34.546Z" fill="#2E3140"/>
<path d="M25.4356 34.5459C25.4356 34.631 25.4184 34.7146 25.3848 34.792C25.0622 34.8467 24.7434 34.6451 24.6637 34.3178V34.317C24.4809 33.5717 24.6215 32.7834 25.052 32.1475L25.1997 31.9287C25.2418 31.9639 25.2668 32.0209 25.252 32.0881L25.1629 32.4975C25.0426 33.0514 25.0981 33.6279 25.3207 34.149L25.384 34.2967C25.4192 34.3779 25.4356 34.4631 25.4356 34.5459Z" fill="#334353"/>
<path d="M24.8654 33.6501C25.015 33.6466 25.1321 33.517 25.1161 33.3683C25.0849 33.0792 25.1 32.7853 25.1625 32.4975L25.2515 32.0881C25.2664 32.0209 25.2414 31.9639 25.1992 31.9287L25.0515 32.1475C24.803 32.5146 24.6511 32.9325 24.6022 33.3636C24.5847 33.5189 24.7094 33.6537 24.8654 33.6501Z" fill="#3F5D77"/>
<path d="M26.0944 23.6437C25.8066 23.9311 25.3408 23.9314 25.0533 23.6437L22.709 21.2994L23.7501 20.2583L26.0944 22.6026C26.3857 22.8921 26.3766 23.3639 26.0944 23.6437Z" fill="#2E3140"/>
<path d="M26.2597 23.3896C25.9908 23.4934 25.6845 23.4349 25.4727 23.2241L23.1284 20.8798L23.7499 20.2583L26.0942 22.6026C26.3072 22.8156 26.3621 23.1264 26.2597 23.3896Z" fill="#334353"/>
<path d="M25.0785 22.8295L23.7845 21.5355C23.5033 21.2367 23.9243 20.8145 24.2239 21.0961L25.5179 22.3901C25.7992 22.6889 25.3782 23.1111 25.0785 22.8295Z" fill="#3E4E60"/>
<path d="M26.131 24.3606V26.7659C26.131 26.9694 26.0071 27.1442 25.8313 27.2191C25.518 27.3584 25.1399 27.1116 25.1476 26.7659V24.3606C25.1476 24.225 25.2027 24.1022 25.2919 24.0134C25.5869 23.7074 26.1355 23.9234 26.131 24.3606Z" fill="#3E4E60"/>
<path d="M26.1313 24.3607V26.766C26.1313 26.9694 26.0074 27.1443 25.8315 27.2192C25.6556 27.1443 25.5317 26.9694 25.5317 26.766V24.3607C25.5321 24.1588 25.6528 23.9854 25.8315 23.908C26.0074 23.983 26.1313 24.1573 26.1313 24.3607Z" fill="#3F5D77"/>
<path d="M25.727 26.5766C25.6192 26.5766 25.5317 26.4892 25.5317 26.3814V24.7128C25.5317 24.605 25.6192 24.5176 25.727 24.5176C25.8348 24.5176 25.9222 24.605 25.9222 24.7128V26.3814C25.9222 26.4892 25.8348 26.5766 25.727 26.5766Z" fill="#3F6C8E"/>
<path d="M28.5772 29.8733C28.633 29.8175 28.633 29.7269 28.5772 29.6711L27.9913 29.0852L27.7891 29.2874L28.375 29.8733C28.4309 29.9291 28.5214 29.9291 28.5772 29.8733Z" fill="#3E4E60"/>
<path d="M28.2066 30.2442C28.2624 30.1883 28.2624 30.0978 28.2066 30.042L27.6206 29.4561L27.4185 29.6582L28.0044 30.2442C28.0603 30.3 28.1508 30.3 28.2066 30.2442Z" fill="#3E4E60"/>
<path d="M28.0113 29.3035C27.9431 29.3724 27.7134 29.6019 27.6411 29.6741C27.5448 29.7704 27.3888 29.7704 27.2925 29.6741L27.1094 29.4911C26.6544 29.0025 27.3306 28.32 27.8242 28.7764L28.0072 28.9594C28.1021 29.0542 28.1036 29.2072 28.0113 29.3035Z" fill="#C44A1A"/>
<path d="M27.2924 28.5932C27.1905 28.6956 27.0294 28.8558 26.9263 28.9592C26.83 29.0556 26.674 29.0556 26.5776 28.9592L26.3945 28.7762C25.9396 28.2877 26.6157 27.6052 27.1093 28.062L27.2924 28.245C27.3887 28.3409 27.3887 28.4969 27.2924 28.5932Z" fill="#C44A1A"/>
<path d="M26.5779 27.8786C26.476 27.9816 26.3153 28.1413 26.2119 28.2452C26.1156 28.341 25.9596 28.341 25.8637 28.2452L25.6802 28.0621C25.2253 27.5735 25.9011 26.8904 26.3949 27.3474L26.578 27.5305C26.6742 27.6267 26.6742 27.7826 26.5779 27.8786Z" fill="#C44A1A"/>
<path d="M27.9088 29.4072C27.8125 29.5027 27.656 29.5027 27.5606 29.4072L27.377 29.2237C27.227 29.0737 27.1906 28.8527 27.2696 28.6685C27.4539 28.5875 27.681 28.6311 27.8244 28.7763L28.0075 28.9594C28.1018 29.0543 28.1039 29.2066 28.0118 29.3033L28.0086 29.3065L27.9088 29.4072Z" fill="#DD5E26"/>
<path d="M27.2931 28.5934L27.194 28.6925C27.0981 28.7884 26.942 28.7888 26.8458 28.6925L26.6626 28.5094C26.5126 28.3594 26.4766 28.1381 26.5548 27.9538C26.7391 27.8741 26.9667 27.9163 27.11 28.062L27.2931 28.2451C27.3896 28.3414 27.3887 28.498 27.2931 28.5934Z" fill="#DD5E26"/>
<path d="M26.4801 27.9776C26.3836 28.0729 26.2282 28.0749 26.1311 27.9776L25.948 27.7945C25.7984 27.6449 25.7624 27.4235 25.8402 27.2389C26.0246 27.1597 26.2521 27.2017 26.3953 27.3471L26.5785 27.5302C26.6746 27.6262 26.6744 27.7828 26.5785 27.8784L26.4801 27.9776Z" fill="#DD5E26"/>
<path d="M26.6007 27.7776C26.485 27.8933 26.2968 27.8933 26.1807 27.7773C26.0189 27.6242 26.0982 27.3333 26.3126 27.2812C26.3757 27.3164 26.5229 27.4796 26.5776 27.5303C26.6432 27.5988 26.6857 27.7116 26.6007 27.7776Z" fill="#EA792E"/>
<path d="M27.3155 28.492C27.1998 28.6077 27.0115 28.6077 26.8958 28.492C26.7337 28.3385 26.8129 28.0478 27.0274 27.9956C27.0905 28.0308 27.238 28.1943 27.2927 28.2451C27.359 28.3144 27.4004 28.4258 27.3155 28.492Z" fill="#EA792E"/>
<path d="M28.03 29.2065C27.9143 29.3222 27.7264 29.3225 27.6104 29.2065C27.4486 29.0534 27.5279 28.7625 27.7423 28.7104C27.8054 28.7456 27.9526 28.9088 28.0073 28.9595C28.0732 29.0285 28.1148 29.1402 28.03 29.2065Z" fill="#EA792E"/>
<path d="M13.9046 23.6437C14.1923 23.9311 14.6582 23.9314 14.9457 23.6437L17.29 21.2994L16.2489 20.2583L13.9046 22.6026C13.6132 22.8921 13.6223 23.3639 13.9046 23.6437Z" fill="#2E3140"/>
<path d="M13.7394 23.3896C14.0083 23.4934 14.3146 23.4349 14.5264 23.2241L16.8707 20.8798L16.2492 20.2583L13.9049 22.6026C13.6919 22.8156 13.637 23.1264 13.7394 23.3896Z" fill="#334353"/>
<path d="M14.9207 22.8295L16.2147 21.5355C16.4959 21.2367 16.0749 20.8145 15.7753 21.0961L14.4813 22.3901C14.2001 22.6889 14.621 23.1111 14.9207 22.8295Z" fill="#3E4E60"/>
<path d="M13.8682 24.3606V26.7659C13.8682 26.9694 13.9921 27.1442 14.168 27.2191C14.4812 27.3584 14.8593 27.1116 14.8516 26.7659V24.3606C14.8516 24.225 14.7965 24.1022 14.7073 24.0134C14.4123 23.7074 13.8637 23.9234 13.8682 24.3606Z" fill="#3E4E60"/>
<path d="M13.8687 24.3607V26.766C13.8687 26.9694 13.9926 27.1443 14.1684 27.2192C14.3443 27.1443 14.4682 26.9694 14.4682 26.766V24.3607C14.4679 24.1588 14.3471 23.9854 14.1684 23.908C13.9926 23.983 13.8687 24.1573 13.8687 24.3607Z" fill="#3F5D77"/>
<path d="M14.2719 26.5766C14.3797 26.5766 14.4671 26.4892 14.4671 26.3814V24.7128C14.4671 24.605 14.3797 24.5176 14.2719 24.5176C14.1641 24.5176 14.0767 24.605 14.0767 24.7128V26.3814C14.0767 26.4892 14.1641 26.5766 14.2719 26.5766Z" fill="#3F6C8E"/>
<path d="M11.4228 29.8733C11.3669 29.8175 11.3669 29.7269 11.4228 29.6711L12.0087 29.0852L12.2109 29.2874L11.6249 29.8733C11.5691 29.9291 11.4785 29.9291 11.4228 29.8733Z" fill="#3E4E60"/>
<path d="M11.7934 30.2442C11.7375 30.1883 11.7375 30.0978 11.7934 30.042L12.3793 29.4561L12.5815 29.6582L11.9955 30.2442C11.9397 30.3 11.8491 30.3 11.7934 30.2442Z" fill="#3E4E60"/>
<path d="M11.9881 29.3033C12.0563 29.3722 12.286 29.6018 12.3582 29.674C12.4546 29.7703 12.6106 29.7703 12.7069 29.674L12.8899 29.4909C13.3449 29.0022 12.6688 28.3197 12.1752 28.7761L11.9921 28.9592C11.8973 29.054 11.8958 29.207 11.9881 29.3033Z" fill="#C44A1A"/>
<path d="M12.707 28.5932C12.8089 28.6956 12.97 28.8558 13.073 28.9592C13.1694 29.0556 13.3254 29.0556 13.4218 28.9592L13.6048 28.7762C14.0597 28.2877 13.3837 27.6052 12.8901 28.062L12.707 28.245C12.6107 28.3409 12.6107 28.4969 12.707 28.5932Z" fill="#C44A1A"/>
<path d="M13.4214 27.8786C13.5233 27.9816 13.684 28.1413 13.7874 28.2452C13.8837 28.341 14.0397 28.341 14.1356 28.2452L14.3191 28.0621C14.774 27.5735 14.0982 26.8904 13.6043 27.3474L13.4213 27.5305C13.325 27.6267 13.325 27.7826 13.4214 27.8786Z" fill="#C44A1A"/>
<path d="M12.0917 29.4072C12.1879 29.5027 12.3444 29.5027 12.4399 29.4072L12.6234 29.2237C12.7734 29.0737 12.8098 28.8527 12.7308 28.6685C12.5465 28.5875 12.3195 28.6311 12.1761 28.7763L11.9929 28.9594C11.8986 29.0543 11.8966 29.2066 11.9886 29.3033L11.9918 29.3065L12.0917 29.4072Z" fill="#DD5E26"/>
<path d="M12.7073 28.5934L12.8064 28.6925C12.9023 28.7884 13.0584 28.7888 13.1546 28.6925L13.3377 28.5094C13.4877 28.3594 13.5238 28.1381 13.4455 27.9538C13.2613 27.8741 13.0337 27.9163 12.8904 28.062L12.7073 28.2451C12.6108 28.3414 12.6117 28.498 12.7073 28.5934Z" fill="#DD5E26"/>
<path d="M13.521 27.9776C13.6175 28.0729 13.7729 28.0749 13.8699 27.9776L14.0531 27.7945C14.2027 27.6449 14.2387 27.4235 14.1609 27.2389C13.9764 27.1597 13.7489 27.2017 13.6057 27.3471L13.4226 27.5302C13.3265 27.6262 13.3267 27.7828 13.4226 27.8784L13.521 27.9776Z" fill="#DD5E26"/>
<path d="M13.3986 27.7776C13.5143 27.8933 13.7025 27.8933 13.8186 27.7773C13.9804 27.6242 13.901 27.3333 13.6866 27.2812C13.6236 27.3164 13.4763 27.4796 13.4216 27.5303C13.3561 27.5988 13.3136 27.7116 13.3986 27.7776Z" fill="#EA792E"/>
<path d="M12.684 28.492C12.7997 28.6077 12.9879 28.6077 13.1036 28.492C13.2658 28.3385 13.1866 28.0478 12.972 27.9956C12.9089 28.0308 12.7615 28.1943 12.7067 28.2451C12.6405 28.3144 12.5991 28.4258 12.684 28.492Z" fill="#EA792E"/>
<path d="M11.9695 29.2065C12.0852 29.3222 12.273 29.3225 12.3891 29.2065C12.5509 29.0534 12.4716 28.7625 12.2572 28.7104C12.1941 28.7456 12.0469 28.9088 11.9922 28.9595C11.9263 29.0285 11.8847 29.1402 11.9695 29.2065Z" fill="#EA792E"/>
<path d="M27.8728 19.0511C27.8725 19.4578 27.5434 19.7874 27.1366 19.7873H23.8213V18.3149H27.1366C27.5473 18.3137 27.8744 18.6537 27.8728 19.0511Z" fill="#2E3140"/>
<path d="M27.81 18.7544C27.6933 19.0179 27.4354 19.1931 27.1366 19.1938H23.8213V18.3149H27.1366C27.4379 18.3149 27.6964 18.4959 27.81 18.7544Z" fill="#334353"/>
<path d="M26.5784 19.1939H24.7484C24.3382 19.1815 24.3374 18.5853 24.7484 18.5725H26.5784C26.7499 18.5725 26.8891 18.7116 26.8891 18.8832C26.8891 19.0548 26.7499 19.1939 26.5784 19.1939Z" fill="#3E4E60"/>
<path d="M27.8721 20.2786V22.684C27.8467 23.3377 26.912 23.3339 26.8887 22.684V20.2786C26.8887 20.143 26.9438 20.0202 27.033 19.9315C27.328 19.6253 27.8766 19.8414 27.8721 20.2786Z" fill="#3E4E60"/>
<path d="M27.872 20.2787V22.684C27.872 22.8874 27.7481 23.0623 27.5722 23.1372C27.3964 23.0623 27.2725 22.8874 27.2725 22.684V20.2787C27.2728 20.0768 27.3936 19.9033 27.5722 19.8259C27.7481 19.9009 27.872 20.0752 27.872 20.2787Z" fill="#3F5D77"/>
<path d="M27.4677 22.4946C27.3599 22.4946 27.2725 22.4072 27.2725 22.2994V20.6308C27.2725 20.523 27.3599 20.4355 27.4677 20.4355C27.5755 20.4355 27.6629 20.523 27.6629 20.6308V22.2994C27.6629 22.4072 27.5755 22.4946 27.4677 22.4946Z" fill="#3F6C8E"/>
<path d="M30.3179 25.7913C30.3738 25.7354 30.3738 25.6449 30.3179 25.5891L29.732 25.0032L29.5298 25.2054L30.1157 25.7913C30.1716 25.8472 30.2621 25.8472 30.3179 25.7913Z" fill="#3E4E60"/>
<path d="M29.9473 26.1621C30.0032 26.1063 30.0032 26.0157 29.9473 25.96L29.3614 25.374L29.1592 25.5762L29.7451 26.1621C29.801 26.218 29.8915 26.218 29.9473 26.1621Z" fill="#3E4E60"/>
<path d="M29.7531 25.2214C29.6849 25.2903 29.4552 25.5198 29.3829 25.592C29.2866 25.6883 29.1306 25.6883 29.0342 25.592L28.8512 25.409C28.3956 24.9219 29.0738 24.2371 29.5659 24.6942L29.749 24.8772C29.8438 24.9721 29.8453 25.125 29.7531 25.2214Z" fill="#C44A1A"/>
<path d="M29.0341 24.511C28.9322 24.6135 28.7711 24.7736 28.6681 24.877C28.5718 24.9734 28.4158 24.9734 28.3194 24.877L28.1363 24.694C27.6808 24.207 28.359 23.5224 28.8511 23.9798L29.0341 24.1628C29.1304 24.2587 29.1304 24.4147 29.0341 24.511Z" fill="#C44A1A"/>
<path d="M28.3192 23.7964C28.2173 23.8994 28.0566 24.0591 27.9532 24.163C27.8569 24.2588 27.7009 24.2588 27.605 24.163L27.4215 23.9799C26.9659 23.4929 27.6439 22.8076 28.1363 23.2652L28.3193 23.4482C28.4156 23.5445 28.4156 23.7005 28.3192 23.7964Z" fill="#C44A1A"/>
<path d="M29.6505 25.3251C29.5542 25.4207 29.3977 25.4207 29.3023 25.3251L29.1187 25.1416C28.9687 24.9916 28.9323 24.7707 29.0113 24.5865C29.1956 24.5055 29.4227 24.5491 29.5661 24.6943L29.7492 24.8774C29.8435 24.9723 29.8455 25.1246 29.7535 25.2213L29.7503 25.2245L29.6505 25.3251Z" fill="#DD5E26"/>
<path d="M29.0338 24.5111L28.9347 24.6102C28.8388 24.7061 28.6827 24.7065 28.5865 24.6102L28.4034 24.4271C28.2534 24.2771 28.2173 24.0558 28.2955 23.8716C28.4798 23.7918 28.7074 23.8341 28.8507 23.9797L29.0338 24.1628C29.1303 24.2591 29.1294 24.4157 29.0338 24.5111Z" fill="#DD5E26"/>
<path d="M28.2208 23.8953C28.1243 23.9906 27.9689 23.9926 27.8719 23.8953L27.6887 23.7122C27.5391 23.5626 27.5031 23.3413 27.5809 23.1567C27.7654 23.0774 27.9929 23.1195 28.1361 23.2648L28.3192 23.4479C28.4153 23.5439 28.4151 23.7005 28.3192 23.7961L28.2208 23.8953Z" fill="#DD5E26"/>
<path d="M28.3424 23.6953C28.2267 23.811 28.0385 23.811 27.9224 23.695C27.7606 23.5419 27.8399 23.251 28.0543 23.199C28.1174 23.2341 28.2646 23.3973 28.3193 23.448C28.3849 23.5165 28.4274 23.6293 28.3424 23.6953Z" fill="#EA792E"/>
<path d="M29.0571 24.4097C28.9414 24.5254 28.7532 24.5254 28.6375 24.4097C28.4754 24.2562 28.5546 23.9655 28.7691 23.9133C28.8322 23.9485 28.9796 24.112 29.0344 24.1628C29.1007 24.232 29.1421 24.3435 29.0571 24.4097Z" fill="#EA792E"/>
<path d="M29.7717 25.1242C29.656 25.2399 29.4681 25.2403 29.3521 25.1242C29.1903 24.9711 29.2696 24.6802 29.484 24.6282C29.5471 24.6633 29.6943 24.8265 29.749 24.8772C29.8149 24.9462 29.8565 25.0579 29.7717 25.1242Z" fill="#EA792E"/>
<path d="M12.1284 19.0511C12.1287 19.4578 12.4579 19.7874 12.8646 19.7873H16.1799V18.3149H12.8646C12.4539 18.3137 12.1268 18.6537 12.1284 19.0511Z" fill="#2E3140"/>
<path d="M12.1914 18.7544C12.3081 19.0179 12.566 19.1931 12.8648 19.1938H16.1802V18.3149H12.8648C12.5636 18.3149 12.3051 18.4959 12.1914 18.7544Z" fill="#334353"/>
<path d="M13.4225 19.1939H15.2525C15.6627 19.1815 15.6635 18.5853 15.2525 18.5725H13.4225C13.251 18.5725 13.1118 18.7116 13.1118 18.8832C13.1118 19.0548 13.251 19.1939 13.4225 19.1939Z" fill="#3E4E60"/>
<path d="M12.128 20.2786V22.684C12.1533 23.3377 13.088 23.3339 13.1114 22.684V20.2786C13.1114 20.143 13.0563 20.0202 12.9671 19.9315C12.6721 19.6253 12.1235 19.8414 12.128 20.2786Z" fill="#3E4E60"/>
<path d="M12.1284 20.2787V22.684C12.1284 22.8874 12.2523 23.0623 12.4282 23.1372C12.604 23.0623 12.728 22.8874 12.728 22.684V20.2787C12.7276 20.0768 12.6069 19.9033 12.4282 19.8259C12.2523 19.9009 12.1284 20.0752 12.1284 20.2787Z" fill="#3F5D77"/>
<path d="M12.5317 22.4946C12.6395 22.4946 12.7269 22.4072 12.7269 22.2994V20.6308C12.7269 20.523 12.6395 20.4355 12.5317 20.4355C12.4238 20.4355 12.3364 20.523 12.3364 20.6308V22.2994C12.3364 22.4072 12.4238 22.4946 12.5317 22.4946Z" fill="#3F6C8E"/>
<path d="M9.68252 25.7913C9.62666 25.7354 9.62666 25.6449 9.68252 25.5891L10.2685 25.0032L10.4706 25.2054L9.88471 25.7913C9.82885 25.8472 9.7383 25.8472 9.68252 25.7913Z" fill="#2E3140"/>
<path d="M10.0531 26.1621C9.99727 26.1063 9.99727 26.0157 10.0531 25.96L10.6391 25.374L10.8412 25.5762L10.2553 26.1621C10.1995 26.218 10.1089 26.218 10.0531 26.1621Z" fill="#2E3140"/>
<path d="M10.2478 25.2214C10.316 25.2903 10.5457 25.5198 10.618 25.592C10.7143 25.6883 10.8703 25.6883 10.9667 25.592L11.1497 25.409C11.6053 24.9219 10.9271 24.2371 10.4349 24.6942L10.2519 24.8772C10.1571 24.9721 10.1556 25.125 10.2478 25.2214Z" fill="#C44A1A"/>
<path d="M10.9668 24.511C11.0687 24.6135 11.2297 24.7736 11.3328 24.877C11.4291 24.9734 11.5851 24.9734 11.6815 24.877L11.8646 24.694C12.3201 24.207 11.6419 23.5224 11.1498 23.9798L10.9668 24.1628C10.8704 24.2587 10.8704 24.4147 10.9668 24.511Z" fill="#C44A1A"/>
<path d="M11.6812 23.7964C11.7832 23.8994 11.9439 24.0591 12.0472 24.163C12.1435 24.2588 12.2996 24.2588 12.3954 24.163L12.5789 23.9799C13.0345 23.4929 12.3565 22.8076 11.8642 23.2652L11.6811 23.4482C11.5848 23.5445 11.5848 23.7005 11.6812 23.7964Z" fill="#C44A1A"/>
<path d="M10.351 25.3251C10.4472 25.4207 10.6037 25.4207 10.6992 25.3251L10.8827 25.1416C11.0327 24.9916 11.0691 24.7707 10.9901 24.5865C10.8058 24.5055 10.5788 24.5491 10.4353 24.6943L10.2522 24.8774C10.1579 24.9723 10.1559 25.1246 10.2479 25.2213L10.2511 25.2245L10.351 25.3251Z" fill="#DD5E26"/>
<path d="M10.967 24.5111L11.0662 24.6102C11.162 24.7061 11.3181 24.7065 11.4144 24.6102L11.5975 24.4271C11.7475 24.2771 11.7835 24.0558 11.7053 23.8716C11.521 23.7918 11.2934 23.8341 11.1502 23.9797L10.967 24.1628C10.8705 24.2591 10.8715 24.4157 10.967 24.5111Z" fill="#DD5E26"/>
<path d="M11.7807 23.8953C11.8773 23.9906 12.0327 23.9926 12.1297 23.8953L12.3128 23.7122C12.4624 23.5626 12.4985 23.3413 12.4206 23.1567C12.2362 23.0774 12.0087 23.1195 11.8655 23.2648L11.6824 23.4479C11.5863 23.5439 11.5864 23.7005 11.6824 23.7961L11.7807 23.8953Z" fill="#DD5E26"/>
<path d="M11.6579 23.6953C11.7736 23.811 11.9618 23.811 12.0779 23.695C12.2397 23.5419 12.1603 23.251 11.9459 23.199C11.8829 23.2341 11.7356 23.3973 11.6809 23.448C11.6154 23.5165 11.5728 23.6293 11.6579 23.6953Z" fill="#EA792E"/>
<path d="M10.9438 24.4097C11.0595 24.5254 11.2477 24.5254 11.3634 24.4097C11.5256 24.2562 11.4463 23.9655 11.2318 23.9133C11.1687 23.9485 11.0213 24.112 10.9665 24.1628C10.9002 24.232 10.8588 24.3435 10.9438 24.4097Z" fill="#EA792E"/>
<path d="M10.2293 25.1242C10.345 25.2399 10.5328 25.2403 10.6489 25.1242C10.8107 24.9711 10.7313 24.6802 10.5169 24.6282C10.4538 24.6633 10.3066 24.8265 10.2519 24.8772C10.1861 24.9462 10.1444 25.0579 10.2293 25.1242Z" fill="#EA792E"/>
<path d="M12.2061 16.5304C12.2063 16.9371 12.5355 17.2667 12.9422 17.2665H16.2575V15.7942H12.9422C12.5315 15.7929 12.2044 16.1329 12.2061 16.5304Z" fill="#2E3140"/>
<path d="M12.269 16.2336C12.3858 16.4972 12.6437 16.6724 12.9425 16.6731H16.2578V15.7942H12.9425C12.6412 15.7942 12.3827 15.9752 12.269 16.2336Z" fill="#334353"/>
<path d="M13.5002 16.6732H15.3302C15.7403 16.6607 15.7412 16.0646 15.3302 16.0518H13.5002C13.3286 16.0518 13.1895 16.1908 13.1895 16.3625C13.1895 16.5341 13.3285 16.6732 13.5002 16.6732Z" fill="#3E4E60"/>
<path d="M12.5398 15.1791L10.839 13.4783C10.3587 13.034 9.70054 13.6976 10.1436 14.1737L11.8444 15.8745C11.9402 15.9703 12.0661 16.0183 12.1919 16.0179C12.6169 16.0259 12.8521 15.4852 12.5398 15.1791Z" fill="#3E4E60"/>
<path d="M12.5403 15.1791L10.8395 13.4783C10.6956 13.3344 10.4844 13.2984 10.307 13.3698C10.2356 13.5471 10.2717 13.7584 10.4156 13.9022L12.1163 15.603C12.2592 15.7455 12.4674 15.7827 12.6485 15.7111C12.7197 15.5338 12.6841 15.3229 12.5403 15.1791Z" fill="#3F5D77"/>
<path d="M10.6866 13.898C10.6103 13.9743 10.6103 14.0979 10.6866 14.1742L11.8664 15.354C11.9427 15.4303 12.0663 15.4303 12.1426 15.354C12.2188 15.2778 12.2188 15.1541 12.1426 15.0778L10.9628 13.898C10.8865 13.8218 10.7628 13.8218 10.6866 13.898Z" fill="#3F6C8E"/>
<path d="M6.41602 12.8371C6.41602 12.7581 6.48 12.6941 6.55898 12.6941H7.38766V12.98H6.55898C6.48 12.98 6.41602 12.916 6.41602 12.8371Z" fill="#2E3140"/>
<path d="M6.41602 13.3615C6.41602 13.2825 6.48 13.2185 6.55898 13.2185H7.38766V13.5044H6.55898C6.48 13.5044 6.41602 13.4405 6.41602 13.3615Z" fill="#2E3140"/>
<path d="M7.21866 12.8341C7.21819 12.9311 7.21827 13.2558 7.21827 13.358C7.21827 13.4942 7.32858 13.6045 7.46483 13.6045H7.72366C8.3903 13.5823 8.39491 12.6184 7.72366 12.5938H7.46483C7.33077 12.5937 7.22155 12.7007 7.21866 12.8341Z" fill="#C44A1A"/>
<path d="M8.22913 12.8402C8.22873 12.9847 8.22944 13.2118 8.22913 13.3579C8.22913 13.4941 8.33944 13.6045 8.47569 13.6045H8.73452C9.40093 13.5823 9.40554 12.6184 8.73413 12.594H8.4753C8.33944 12.5937 8.22913 12.704 8.22913 12.8402Z" fill="#C44A1A"/>
<path d="M9.24014 12.8402C9.23943 12.985 9.24006 13.2117 9.23975 13.3582C9.24014 13.4942 9.35045 13.6044 9.486 13.6045L9.74521 13.6048C10.4116 13.5825 10.4169 12.6185 9.74521 12.594H9.48639C9.35006 12.594 9.23975 12.7043 9.24014 12.8402Z" fill="#C44A1A"/>
<path d="M7.21826 12.9802C7.21881 13.1158 7.32943 13.2264 7.46451 13.2264H7.72396C7.93607 13.2264 8.11803 13.0959 8.19248 12.9099C8.11943 12.7223 7.92811 12.5925 7.72396 12.5938H7.46498C7.33123 12.5941 7.22201 12.7004 7.21873 12.8339V12.8385L7.21826 12.9802Z" fill="#DD5E26"/>
<path d="M8.22949 12.8402V12.9804C8.22949 13.116 8.33965 13.2267 8.47574 13.2267H8.73473C8.94684 13.2267 9.12879 13.0956 9.20379 12.9101C9.12988 12.7234 8.93902 12.5924 8.73473 12.594H8.47574C8.33941 12.5938 8.22941 12.7052 8.22949 12.8402Z" fill="#DD5E26"/>
<path d="M9.23926 12.9796C9.2402 13.1152 9.34863 13.2265 9.48598 13.2264H9.74496C9.95652 13.2264 10.1386 13.0954 10.214 12.9099C10.1396 12.7234 9.94902 12.5923 9.74496 12.5938H9.48598C9.3502 12.5937 9.23957 12.7045 9.23973 12.84L9.23926 12.9796Z" fill="#DD5E26"/>
<path d="M9.29606 12.7523C9.29606 12.916 9.4291 13.0491 9.59324 13.0491C9.8159 13.0552 9.96551 12.7934 9.85067 12.605C9.78121 12.5852 9.56168 12.5966 9.48715 12.5938C9.39238 12.5959 9.28254 12.6455 9.29606 12.7523Z" fill="#EA792E"/>
<path d="M8.28577 12.7523C8.28577 12.916 8.41881 13.0491 8.58249 13.0491C8.80569 13.0552 8.95522 12.7936 8.84045 12.605C8.771 12.5852 8.55108 12.5966 8.47647 12.5938C8.38069 12.5959 8.27257 12.6455 8.28577 12.7523Z" fill="#EA792E"/>
<path d="M7.27502 12.7523C7.27502 12.916 7.4076 13.0491 7.57174 13.0491C7.7944 13.0552 7.94401 12.7934 7.82916 12.605C7.75971 12.5852 7.54018 12.5966 7.46565 12.5938C7.37026 12.5959 7.26182 12.6455 7.27502 12.7523Z" fill="#EA792E"/>
<path d="M27.7932 16.5304C27.7929 16.9371 27.4638 17.2667 27.057 17.2665H23.7417V15.7942H27.057C27.4677 15.7929 27.7948 16.1329 27.7932 16.5304Z" fill="#2E3140"/>
<path d="M27.7304 16.2336C27.6137 16.4972 27.3558 16.6724 27.057 16.6731H23.7417V15.7942H27.057C27.3583 15.7942 27.6168 15.9752 27.7304 16.2336Z" fill="#334353"/>
<path d="M26.4988 16.6732H24.6688C24.2586 16.6607 24.2578 16.0646 24.6688 16.0518H26.4988C26.6703 16.0518 26.8095 16.1908 26.8095 16.3625C26.8095 16.5341 26.6704 16.6732 26.4988 16.6732Z" fill="#3E4E60"/>
<path d="M27.4593 15.1791L29.1601 13.4783C29.6403 13.034 30.2985 13.6976 29.8555 14.1737L28.1547 15.8745C28.0588 15.9703 27.933 16.0183 27.8072 16.0179C27.3821 16.0259 27.147 15.4852 27.4593 15.1791Z" fill="#3E4E60"/>
<path d="M27.4592 15.1791L29.16 13.4783C29.3038 13.3344 29.5151 13.2984 29.6924 13.3698C29.7638 13.5471 29.7277 13.7584 29.5839 13.9022L27.8831 15.603C27.7402 15.7455 27.5321 15.7827 27.351 15.7111C27.2798 15.5338 27.3154 15.3229 27.4592 15.1791Z" fill="#3F5D77"/>
<path d="M29.312 13.898C29.3883 13.9743 29.3883 14.0979 29.312 14.1742L28.1322 15.354C28.0559 15.4303 27.9323 15.4303 27.856 15.354C27.7798 15.2778 27.7798 15.1541 27.856 15.0778L29.0359 13.898C29.1121 13.8218 29.2358 13.8218 29.312 13.898Z" fill="#3F6C8E"/>
<path d="M33.5835 12.8371C33.5835 12.7581 33.5195 12.6941 33.4405 12.6941H32.6118V12.98H33.4405C33.5195 12.98 33.5835 12.916 33.5835 12.8371Z" fill="#3E4E60"/>
<path d="M33.5835 13.3615C33.5835 13.2825 33.5195 13.2185 33.4405 13.2185H32.6118V13.5044H33.4405C33.5195 13.5044 33.5835 13.4405 33.5835 13.3615Z" fill="#3E4E60"/>
<path d="M32.7806 12.8341C32.7811 12.9311 32.781 13.2558 32.781 13.358C32.781 13.4942 32.6707 13.6045 32.5345 13.6045H32.2756C31.609 13.5823 31.6044 12.6184 32.2756 12.5938H32.5345C32.6685 12.5937 32.7777 12.7007 32.7806 12.8341Z" fill="#C44A1A"/>
<path d="M31.7696 12.8402C31.77 12.9847 31.7693 13.2118 31.7696 13.3579C31.7696 13.4941 31.6593 13.6045 31.523 13.6045H31.2642C30.5978 13.5823 30.5932 12.6184 31.2646 12.594H31.5234C31.6593 12.5937 31.7696 12.704 31.7696 12.8402Z" fill="#C44A1A"/>
<path d="M30.7593 12.8402C30.76 12.985 30.7594 13.2117 30.7597 13.3582C30.7593 13.4942 30.649 13.6044 30.5135 13.6045L30.2542 13.6048C29.5878 13.5825 29.5825 12.6185 30.2542 12.594H30.5131C30.6494 12.594 30.7597 12.7043 30.7593 12.8402Z" fill="#C44A1A"/>
<path d="M32.7814 12.9802C32.7809 13.1158 32.6703 13.2264 32.5352 13.2264H32.2756C32.0635 13.2264 31.8816 13.0959 31.8071 12.9099C31.8802 12.7223 32.0715 12.5925 32.2756 12.5938H32.5346C32.6684 12.5941 32.7776 12.7004 32.7809 12.8339V12.8385L32.7814 12.9802Z" fill="#DD5E26"/>
<path d="M31.7697 12.8402V12.9804C31.7697 13.116 31.6596 13.2267 31.5235 13.2267H31.2645C31.0524 13.2267 30.8704 13.0956 30.7954 12.9101C30.8693 12.7234 31.0602 12.5924 31.2645 12.594H31.5235C31.6598 12.5938 31.7698 12.7052 31.7697 12.8402Z" fill="#DD5E26"/>
<path d="M30.7599 12.9796C30.759 13.1152 30.6505 13.2265 30.5132 13.2264H30.2542C30.0427 13.2264 29.8606 13.0954 29.7852 12.9099C29.8595 12.7234 30.0502 12.5923 30.2542 12.5938H30.5132C30.649 12.5937 30.7596 12.7045 30.7595 12.84L30.7599 12.9796Z" fill="#DD5E26"/>
<path d="M30.7046 12.7523C30.7046 12.916 30.5716 13.0491 30.4074 13.0491C30.1848 13.0552 30.0351 12.7934 30.15 12.605C30.2194 12.5852 30.439 12.5966 30.5135 12.5938C30.6083 12.5959 30.7181 12.6455 30.7046 12.7523Z" fill="#EA792E"/>
<path d="M31.7149 12.7523C31.7149 12.916 31.5818 13.0491 31.4182 13.0491C31.195 13.0552 31.0454 12.7936 31.1602 12.605C31.2297 12.5852 31.4496 12.5966 31.5242 12.5938C31.62 12.5959 31.7281 12.6455 31.7149 12.7523Z" fill="#EA792E"/>
<path d="M32.7256 12.7523C32.7256 12.916 32.593 13.0491 32.4289 13.0491C32.2062 13.0552 32.0566 12.7934 32.1715 12.605C32.2409 12.5852 32.4605 12.5966 32.535 12.5938C32.6304 12.5959 32.7388 12.6455 32.7256 12.7523Z" fill="#EA792E"/>
<path d="M26.1147 13.6969C26.1147 13.9743 26.0022 14.2243 25.821 14.4055C25.6397 14.5868 25.3882 14.6993 25.1116 14.6993H22.7866V12.6946H25.1116C25.5569 12.6946 25.9351 12.9852 26.0655 13.3868C26.0976 13.4844 26.1147 13.5883 26.1147 13.6969Z" fill="#2E3140"/>
<path d="M26.0655 13.3868C26.0163 13.5391 25.9312 13.675 25.821 13.7852C25.6397 13.9665 25.3882 14.079 25.1116 14.079H22.7866V12.6946H25.1116C25.5569 12.6945 25.9351 12.9852 26.0655 13.3868Z" fill="#334353"/>
<path d="M24.7372 14.0791H23.7049C23.4981 14.0791 23.3306 13.9114 23.3306 13.7047C23.3306 13.4979 23.4982 13.3303 23.7049 13.3303H24.7372C24.944 13.3303 25.1116 13.498 25.1116 13.7047C25.1117 13.9114 24.944 14.0791 24.7372 14.0791Z" fill="#3E4E60"/>
<path d="M26.8321 11.0178V12.885C26.8321 13.2811 26.511 13.6021 26.1149 13.6021C26.0165 13.6021 25.9228 13.5826 25.8376 13.5467C25.579 13.4381 25.397 13.1826 25.397 12.885V11.0178C25.397 10.7201 25.579 10.4646 25.8376 10.3553C25.9228 10.3193 26.0165 10.2998 26.1149 10.2998C26.3126 10.2998 26.4923 10.3803 26.622 10.51C26.7517 10.6404 26.8321 10.8193 26.8321 11.0178Z" fill="#3E4E60"/>
<path d="M26.2767 11.0177V12.8849C26.2767 13.1826 26.0954 13.438 25.8376 13.5466C25.579 13.438 25.397 13.1826 25.397 12.8849V11.0177C25.397 10.7201 25.579 10.4646 25.8376 10.3552C25.9235 10.3919 26.0017 10.4451 26.0665 10.5099C26.1962 10.6404 26.2767 10.8193 26.2767 11.0177Z" fill="#3F5D77"/>
<path d="M25.9988 11.0178C26.1522 11.0178 26.2765 11.1421 26.2765 11.2955V12.6074C26.2765 12.7607 26.1522 12.885 25.9988 12.885C25.8455 12.885 25.7212 12.7607 25.7212 12.6074V11.2955C25.7212 11.1421 25.8455 11.0178 25.9988 11.0178Z" fill="#3F6C8E"/>
<path d="M28.3574 9.38196L27.0371 10.7023C26.757 10.9824 26.3028 10.9824 26.0228 10.7023C25.9532 10.6327 25.9007 10.5526 25.8659 10.4669C25.7598 10.2073 25.8118 9.8979 26.0222 9.68743L27.3425 8.36711C27.553 8.15664 27.8624 8.10469 28.1225 8.21024C28.2082 8.245 28.2883 8.2975 28.3579 8.36711C28.4977 8.50688 28.5678 8.69086 28.5678 8.8743C28.5673 9.05821 28.4977 9.24164 28.3574 9.38196Z" fill="#C44A1A"/>
<path d="M27.9646 8.98914L26.6443 10.3095C26.4338 10.5199 26.125 10.5724 25.8659 10.4669C25.7598 10.2073 25.8118 9.89789 26.0222 9.68742L27.3425 8.36711C27.553 8.15664 27.8624 8.10469 28.1225 8.21024C28.1574 8.29696 28.175 8.38977 28.175 8.48149C28.1745 8.66539 28.1049 8.84883 27.9646 8.98914Z" fill="#DD5E26"/>
<path d="M27.7679 8.7927C27.8763 8.90113 27.8763 9.07691 27.7679 9.18535L26.8402 10.113C26.7318 10.2214 26.556 10.2214 26.4475 10.113C26.3391 10.0046 26.3391 9.82879 26.4475 9.72035L27.3752 8.7927C27.4837 8.68434 27.6595 8.68434 27.7679 8.7927Z" fill="#EA792E"/>
<path d="M27.2089 8.07875L26.4306 7.30047C25.7679 6.63773 25.3955 5.73883 25.3955 4.80148V3.31055L28.6863 6.60133L27.2089 8.07875Z" fill="#DD5E26"/>
<path d="M27.2224 5.45707C26.539 6.14043 26.4723 7.24762 27.1098 7.97395C27.8179 8.78074 29.052 8.80371 29.79 8.04293C30.4775 7.33434 30.4393 6.15519 29.7411 5.45707L27.6965 3.41246C26.9891 2.70504 26.0296 2.30762 25.0291 2.30762C24.794 2.30762 24.6762 2.59191 24.8425 2.75816L27.2223 5.13801C27.3104 5.22613 27.3104 5.36894 27.2224 5.45707Z" fill="#C44A1A"/>
<path d="M26.9608 3.22252L29.0687 5.33041C29.2039 5.46564 29.2039 5.68486 29.0687 5.82009C28.9335 5.95533 28.7143 5.95533 28.579 5.82009L26.4711 3.71221C26.3358 3.57697 26.3358 3.35775 26.4711 3.22252C26.6064 3.08729 26.8256 3.08729 26.9608 3.22252Z" fill="#DD5E26"/>
<path d="M27.3396 3.60186L28.2535 4.51576C28.3887 4.65099 28.3887 4.87021 28.2535 5.00545C28.1182 5.14068 27.899 5.14068 27.7638 5.00545L26.85 4.09154C26.7147 3.95631 26.7147 3.73709 26.85 3.60186C26.9851 3.4667 27.2043 3.4667 27.3396 3.60186Z" fill="#EA792E"/>
<path d="M26.4837 4.94107L26.5624 5.72505C26.5814 5.91529 26.4427 6.08505 26.2525 6.10412C26.0622 6.12318 25.8925 5.98443 25.8734 5.79419L25.7947 5.01021C25.7757 4.81997 25.9144 4.65021 26.1046 4.63115C26.2949 4.61208 26.4646 4.75083 26.4837 4.94107Z" fill="#EA792E"/>
<path d="M29.375 7.76589C28.86 8.28097 28.0219 8.28097 27.5069 7.76589C27.4001 7.65909 27.4001 7.48597 27.5069 7.37917C27.6137 7.27237 27.7868 7.27237 27.8936 7.37917C28.1954 7.68104 28.6865 7.68104 28.9883 7.37917C29.0951 7.27237 29.2682 7.27237 29.375 7.37917C29.4818 7.48597 29.4818 7.65917 29.375 7.76589Z" fill="#DD5E26"/>
<path d="M13.8838 13.6969C13.8838 13.9743 13.9963 14.2243 14.1775 14.4055C14.3588 14.5868 14.6104 14.6993 14.8869 14.6993H17.2119V12.6946H14.8869C14.4416 12.6946 14.0635 12.9852 13.933 13.3868C13.901 13.4844 13.8838 13.5883 13.8838 13.6969Z" fill="#2E3140"/>
<path d="M13.9331 13.3868C13.9823 13.5391 14.0675 13.675 14.1776 13.7852C14.3589 13.9665 14.6104 14.079 14.887 14.079H17.212V12.6946H14.887C14.4417 12.6945 14.0636 12.9852 13.9331 13.3868Z" fill="#334353"/>
<path d="M15.2616 14.0791H16.2938C16.5006 14.0791 16.6682 13.9114 16.6682 13.7047C16.6682 13.4979 16.5006 13.3303 16.2938 13.3303H15.2616C15.0548 13.3303 14.8872 13.498 14.8872 13.7047C14.8871 13.9114 15.0548 14.0791 15.2616 14.0791Z" fill="#3E4E60"/>
<path d="M13.167 11.0178V12.885C13.167 13.2811 13.4881 13.6021 13.8842 13.6021C13.9826 13.6021 14.0764 13.5826 14.1615 13.5467C14.4201 13.4381 14.6021 13.1826 14.6021 12.885V11.0178C14.6021 10.7201 14.4201 10.4646 14.1615 10.3553C14.0764 10.3193 13.9826 10.2998 13.8842 10.2998C13.6865 10.2998 13.5068 10.3803 13.3771 10.51C13.2475 10.6404 13.167 10.8193 13.167 11.0178Z" fill="#3E4E60"/>
<path d="M13.7222 11.0177V12.8849C13.7222 13.1826 13.9034 13.438 14.1612 13.5466C14.4198 13.438 14.6019 13.1826 14.6019 12.8849V11.0177C14.6019 10.7201 14.4198 10.4646 14.1612 10.3552C14.0753 10.3919 13.9972 10.4451 13.9323 10.5099C13.8026 10.6404 13.7222 10.8193 13.7222 11.0177Z" fill="#3F5D77"/>
<path d="M13.9998 11.0178C13.8465 11.0178 13.7222 11.1421 13.7222 11.2955V12.6074C13.7222 12.7607 13.8465 12.885 13.9998 12.885C14.1532 12.885 14.2775 12.7607 14.2775 12.6074V11.2955C14.2775 11.1421 14.1532 11.0178 13.9998 11.0178Z" fill="#3F6C8E"/>
<path d="M11.6416 9.38196L12.9619 10.7023C13.242 10.9824 13.6962 10.9824 13.9762 10.7023C14.0458 10.6327 14.0983 10.5526 14.1331 10.4669C14.2392 10.2073 14.1872 9.8979 13.9768 9.68743L12.6565 8.36711C12.446 8.15664 12.1366 8.10469 11.8765 8.21024C11.7908 8.245 11.7107 8.2975 11.6411 8.36711C11.5013 8.50688 11.4312 8.69086 11.4312 8.8743C11.4317 9.05821 11.5013 9.24164 11.6416 9.38196Z" fill="#C44A1A"/>
<path d="M12.0342 8.98914L13.3545 10.3095C13.565 10.5199 13.8738 10.5724 14.1329 10.4669C14.239 10.2073 14.187 9.89789 13.9765 9.68742L12.6562 8.36711C12.4458 8.15664 12.1364 8.10469 11.8762 8.21024C11.8414 8.29696 11.8237 8.38977 11.8237 8.48149C11.8243 8.66539 11.8939 8.84883 12.0342 8.98914Z" fill="#DD5E26"/>
<path d="M12.2303 8.7927C12.1218 8.90113 12.1218 9.07691 12.2303 9.18535L13.1579 10.113C13.2663 10.2214 13.4421 10.2214 13.5506 10.113C13.659 10.0046 13.659 9.82879 13.5506 9.72035L12.6229 8.7927C12.5144 8.68434 12.3386 8.68434 12.2303 8.7927Z" fill="#EA792E"/>
<path d="M12.7899 8.07875L13.5682 7.30047C14.2309 6.63773 14.6033 5.73883 14.6033 4.80148V3.31055L11.3125 6.60133L12.7899 8.07875Z" fill="#DD5E26"/>
<path d="M12.7767 5.45707C13.4601 6.14043 13.5268 7.24762 12.8893 7.97395C12.1812 8.78074 10.9471 8.80371 10.2091 8.04293C9.52155 7.33434 9.55983 6.15519 10.258 5.45707L12.3026 3.41246C13.01 2.70504 13.9695 2.30762 14.97 2.30762C15.2051 2.30762 15.3229 2.59191 15.1566 2.75816L12.7768 5.13801C12.6887 5.22613 12.6887 5.36894 12.7767 5.45707Z" fill="#C44A1A"/>
<path d="M13.0384 3.22252L10.9305 5.33041C10.7953 5.46564 10.7953 5.68486 10.9305 5.82009C11.0658 5.95533 11.285 5.95533 11.4202 5.82009L13.5281 3.71221C13.6633 3.57697 13.6633 3.35775 13.5281 3.22252C13.3929 3.08729 13.1737 3.08729 13.0384 3.22252Z" fill="#DD5E26"/>
<path d="M12.6594 3.60186L11.7455 4.51576C11.6102 4.65099 11.6102 4.87021 11.7455 5.00545C11.8807 5.14068 12.0999 5.14068 12.2352 5.00545L13.1491 4.09154C13.2843 3.95631 13.2843 3.73709 13.1491 3.60186C13.0138 3.4667 12.7946 3.4667 12.6594 3.60186Z" fill="#EA792E"/>
<path d="M13.5155 4.94107L13.4368 5.72505C13.4177 5.91529 13.5565 6.08505 13.7467 6.10412C13.937 6.12318 14.1067 5.98443 14.1258 5.79419L14.2045 5.01021C14.2235 4.81997 14.0848 4.65021 13.8945 4.63115C13.7043 4.61208 13.5346 4.75083 13.5155 4.94107Z" fill="#EA792E"/>
<path d="M10.624 7.76589C11.1391 8.28097 11.9771 8.28097 12.4922 7.76589C12.599 7.65909 12.599 7.48597 12.4922 7.37917C12.3854 7.27237 12.2122 7.27237 12.1054 7.37917C11.8036 7.68104 11.3126 7.68104 11.0108 7.37917C10.904 7.27237 10.7308 7.27237 10.624 7.37917C10.5172 7.48597 10.5172 7.65917 10.624 7.76589Z" fill="#DD5E26"/>
<path d="M21.0012 23.0878H18.9985C17.2497 23.0878 15.8626 21.6132 15.9697 19.8674L16.5146 10.9709H23.485L24.0299 19.8674C24.137 21.6132 22.75 23.0878 21.0012 23.0878Z" fill="#746087"/>
<path d="M21.0013 23.0878H20V10.9709H23.4852L24.0302 19.8674C24.1372 21.6132 22.7502 23.0878 21.0013 23.0878Z" fill="#9175A7"/>
<path d="M22.0193 14.4495H19.999V13.134H22.0193C22.3825 13.134 22.677 13.4285 22.677 13.7918C22.677 14.155 22.3825 14.4495 22.0193 14.4495Z" fill="#A583BB"/>
<path d="M22.5169 16.9869H19.999V15.6714H22.5169C22.8802 15.6714 23.1746 15.9658 23.1746 16.3291C23.1746 16.6924 22.8801 16.9869 22.5169 16.9869Z" fill="#A583BB"/>
<path d="M22.5169 19.524H19.999V18.2085H22.5169C22.8802 18.2085 23.1746 18.5029 23.1746 18.8662C23.1746 19.2295 22.8801 19.524 22.5169 19.524Z" fill="#A583BB"/>
<path d="M21.5215 22.0613H19.999V20.7458H21.5215C21.8848 20.7458 22.1793 21.0403 22.1793 21.4036C22.1793 21.7668 21.8848 22.0613 21.5215 22.0613Z" fill="#A583BB"/>
<path d="M17.979 14.4495H19.9992V13.134H17.979C17.6157 13.134 17.3213 13.4285 17.3213 13.7918C17.3213 14.155 17.6158 14.4495 17.979 14.4495Z" fill="#9175A7"/>
<path d="M17.4815 16.9869H19.9993V15.6714H17.4815C17.1182 15.6714 16.8237 15.9658 16.8237 16.3291C16.8237 16.6924 17.1183 16.9869 17.4815 16.9869Z" fill="#9175A7"/>
<path d="M17.4815 19.524H19.9993V18.2085H17.4815C17.1182 18.2085 16.8237 18.5029 16.8237 18.8662C16.8237 19.2295 17.1183 19.524 17.4815 19.524Z" fill="#9175A7"/>
<path d="M18.4766 22.0613H19.9991V20.7458H18.4766C18.1133 20.7458 17.8188 21.0403 17.8188 21.4036C17.8188 21.7668 18.1133 22.0613 18.4766 22.0613Z" fill="#9175A7"/>
<path d="M21.6353 6.68125V8.01094H20.6001V6.68125C20.6001 6.45 20.7524 6.25391 20.9618 6.18828C21.011 6.17266 21.0634 6.16406 21.1181 6.16406C21.404 6.16406 21.6353 6.39531 21.6353 6.68125Z" fill="#9175A7"/>
<path d="M21.6354 6.68125V7.51719H21.3885C21.1525 7.51719 20.9619 7.32656 20.9619 7.09063V6.18828C21.0111 6.17266 21.0635 6.16406 21.1182 6.16406C21.4041 6.16406 21.6354 6.39531 21.6354 6.68125Z" fill="#A583BB"/>
<path d="M19.3984 6.68125V8.01094H18.3633V6.68125C18.3633 6.45 18.5148 6.25391 18.7242 6.18828C18.7734 6.17266 18.8258 6.16406 18.8805 6.16406C19.1664 6.16406 19.3984 6.39531 19.3984 6.68125Z" fill="#746087"/>
<path d="M19.3983 6.68125V7.51719H19.1507C18.9155 7.51719 18.7241 7.32656 18.7241 7.09063V6.18828C18.7733 6.17266 18.8257 6.16406 18.8804 6.16406C19.1663 6.16406 19.3983 6.39531 19.3983 6.68125Z" fill="#9175A7"/>
<path d="M23.4845 10.0552V10.9709C23.4845 11.6552 22.9296 12.2106 22.2449 12.2106H17.7538C17.0691 12.2106 16.5142 11.6552 16.5142 10.9709V10.0552C16.5142 8.81849 17.517 7.81567 18.7537 7.81567H21.245C22.4817 7.81567 23.4845 8.81849 23.4845 10.0552Z" fill="#9175A7"/>
<path d="M23.4843 10.0552V10.9709C23.4843 11.6552 22.9293 12.2106 22.2446 12.2106H19.999V7.81567H21.2447C22.4814 7.81567 23.4843 8.81849 23.4843 10.0552Z" fill="#A583BB"/>
<path d="M21.4705 8.45403C21.6935 8.58278 21.7711 8.86637 21.6455 9.09035C21.6447 9.09238 21.6436 9.09426 21.6425 9.09621L21.479 9.37942C21.1457 9.90879 20.3732 9.45863 20.6645 8.9091L20.828 8.6259C20.9581 8.40106 21.2455 8.3241 21.4705 8.45403Z" fill="#2E3140"/>
<path d="M21.4703 8.45403C21.6933 8.58278 21.7708 8.86637 21.6453 9.09036C21.3511 9.25497 20.916 9.20293 20.6401 8.95746C20.649 8.92989 20.8104 8.65809 20.8278 8.6259C20.9579 8.40106 21.2453 8.3241 21.4703 8.45403Z" fill="#3E4E60"/>
<path d="M21.0623 8.64488L20.9639 8.81528C20.9216 8.88864 20.9467 8.98246 21.0201 9.02489C21.0935 9.06723 21.1873 9.04207 21.2297 8.96871L21.3281 8.79832C21.4247 8.62051 21.1679 8.47215 21.0623 8.64488Z" fill="white"/>
<path d="M18.528 8.45403C18.305 8.58278 18.2274 8.86637 18.353 9.09035C18.3538 9.09238 18.3549 9.09426 18.356 9.09621L18.5195 9.37942C18.8528 9.90879 19.6253 9.45863 19.334 8.9091L19.1705 8.6259C19.0404 8.40106 18.753 8.3241 18.528 8.45403Z" fill="#2E3140"/>
<path d="M18.528 8.45403C18.305 8.58278 18.2274 8.86637 18.353 9.09036C18.6471 9.25497 19.0823 9.20293 19.3582 8.95746C19.3493 8.92989 19.1879 8.65809 19.1705 8.6259C19.0404 8.40106 18.753 8.3241 18.528 8.45403Z" fill="#3E4E60"/>
<path d="M18.9361 8.64488L19.0344 8.81528C19.0768 8.88864 19.0516 8.98246 18.9782 9.02489C18.9049 9.06723 18.8111 9.04207 18.7686 8.96871L18.6703 8.79832C18.5736 8.62051 18.8304 8.47215 18.9361 8.64488Z" fill="white"/>
</svg>
