<svg width="40" height="40" viewBox="0 0 40 40" fill="none" xmlns="http://www.w3.org/2000/svg">
<path d="M40 20C40 31.0458 31.0458 40 20 40C8.95416 40 0 31.0458 0 20C0 8.95416 8.95416 0 20 0C31.0458 0 40 8.95416 40 20Z" fill="#27BA9E"/>
<path d="M12.6058 19.4946C12.6058 20.7224 11.7092 21.7401 10.5349 21.929C10.4064 21.9501 10.2745 21.9608 10.1396 21.9608C8.77765 21.9608 7.67383 20.8569 7.67383 19.4946C7.67383 18.1326 8.77765 17.0288 10.1396 17.0288C10.2745 17.0288 10.4064 17.0395 10.5349 17.0605C11.7092 17.2495 12.6058 18.2672 12.6058 19.4946Z" fill="#F6BA97"/>
<path d="M12.6061 19.4946C12.6061 20.7224 11.7095 21.7401 10.5352 21.929C10.3218 21.1536 10.208 20.3372 10.208 19.4946C10.208 18.6523 10.3218 17.836 10.5352 17.0605C11.7095 17.2495 12.6061 18.2672 12.6061 19.4946Z" fill="#EAA27F"/>
<path d="M11.0213 19.4946C11.0213 19.9817 10.6267 20.3763 10.1396 20.3763C9.65289 20.3763 9.2583 19.9817 9.2583 19.4946C9.2583 19.0079 9.65289 18.6133 10.1396 18.6133C10.6267 18.6133 11.0213 19.0079 11.0213 19.4946Z" fill="#EAA27F"/>
<path d="M27.3936 19.4946C27.3936 20.7224 28.2902 21.7401 29.4645 21.929C29.593 21.9501 29.7248 21.9608 29.8597 21.9608C31.222 21.9608 32.3255 20.8569 32.3255 19.4946C32.3255 18.1326 31.222 17.0288 29.8597 17.0288C29.7248 17.0288 29.593 17.0395 29.4645 17.0605C28.2902 17.2495 27.3936 18.2672 27.3936 19.4946Z" fill="#F6BA97"/>
<path d="M27.3936 19.4946C27.3936 20.7224 28.2902 21.7401 29.4645 21.929C29.6778 21.1536 29.7919 20.3372 29.7919 19.4946C29.7919 18.6523 29.6781 17.836 29.4645 17.0605C28.2902 17.2495 27.3936 18.2672 27.3936 19.4946Z" fill="#EAA27F"/>
<path d="M30.7412 19.4946C30.7412 19.9817 30.3466 20.3763 29.8599 20.3763C29.3731 20.3763 28.9785 19.9817 28.9785 19.4946C28.9785 19.0079 29.3731 18.6133 29.8599 18.6133C30.3466 18.6133 30.7412 19.0079 30.7412 19.4946Z" fill="#EAA27F"/>
<path d="M34.2592 27.6953C34.2592 30.2807 32.1635 32.376 29.5784 32.376H10.4225C9.13007 32.376 7.95941 31.8521 7.11224 31.0055C6.26569 30.1583 5.7417 28.9883 5.7417 27.6953C8.32684 27.6953 10.4225 25.5999 10.4225 23.0154V14.0359C10.4225 11.3909 11.4943 8.99652 13.2283 7.26282C14.9513 5.53857 17.3277 4.46924 19.9537 4.45795C19.9693 4.45703 19.9849 4.45703 20.0004 4.45703C25.29 4.45703 29.5784 8.74597 29.5784 14.0359V23.0154C29.5784 24.3075 30.1024 25.4775 30.9489 26.3247C31.7964 27.1713 32.967 27.6953 34.2592 27.6953Z" fill="#F73B6C"/>
<path d="M19.1023 29.0613L11.2568 32.3761H10.4225C9.13007 32.3761 7.95941 31.8521 7.11224 31.0056C6.26569 30.1584 5.7417 28.9883 5.7417 27.6953C8.32684 27.6953 10.4225 25.6 10.4225 23.0154V14.0359C10.4225 11.391 11.4943 8.99658 13.2283 7.26288C14.9513 5.53864 17.3277 4.4693 19.9537 4.45801C17.0265 4.56329 13.7333 14.5428 17.6527 15.5927C21.5922 16.6473 19.1023 29.0613 19.1023 29.0613Z" fill="#DD104F"/>
<path d="M29.8531 35.1234V37.4082C28.6785 38.0735 27.4303 38.6252 26.1226 39.0439C25.9871 39.0882 25.8516 39.1297 25.7143 39.1706C25.2059 39.3226 24.6883 39.4547 24.1634 39.5649C23.9333 39.6137 23.7023 39.6589 23.4694 39.6989C22.3421 39.8972 21.183 40.0001 20.0002 40.0001C18.8173 40.0001 17.658 39.8972 16.5306 39.6995C16.2981 39.6595 16.0671 39.6146 15.837 39.5658C15.2269 39.4367 14.6288 39.2798 14.041 39.097C14.0084 39.0864 13.9757 39.0766 13.9431 39.0662C13.9211 39.0595 13.8997 39.0522 13.8777 39.0449C12.5707 38.6262 11.3219 38.0744 10.147 37.4082V35.1234C10.147 32.3664 11.6475 29.9601 13.8777 28.6774C14.4826 28.3289 15.1406 28.0637 15.837 27.8971C16.205 27.8083 16.5837 27.7469 16.9716 27.7158C17.1724 27.6996 17.3748 27.6914 17.5798 27.6914H22.4196C22.9918 27.6914 23.5488 27.7552 24.0834 27.8776C24.1103 27.884 24.1371 27.8898 24.1634 27.8962C24.8598 28.0637 25.5178 28.3289 26.1226 28.6774C28.3519 29.9607 29.8531 32.3673 29.8531 35.1234Z" fill="#EAA27F"/>
<path d="M29.8532 35.1234V37.4082C26.9452 39.058 23.5828 40.0001 20 40.0001C17.8882 40.0001 15.8539 39.6726 13.9429 39.0662V35.1234C13.9429 31.0187 17.2711 27.6914 21.3763 27.6914H22.4197C26.5256 27.6914 29.8532 31.0187 29.8532 35.1234Z" fill="#F6BA97"/>
<path d="M23.2112 27.8596V28.0448C23.2112 29.4611 22.3027 30.6937 20.9492 31.1118C20.6431 31.2073 20.323 31.2556 19.9998 31.2556C18.2292 31.2556 16.7891 29.8154 16.7891 28.0448V27.7134C16.9703 27.6987 17.1531 27.6914 17.3384 27.6914H21.7091C22.2258 27.6914 22.7287 27.7494 23.2112 27.8596Z" fill="#FFE05C"/>
<path d="M22.6518 24.8281V28.0825C22.6518 29.2739 21.8663 30.281 20.7841 30.6155C20.5366 30.6921 20.2726 30.7339 19.9995 30.7339C18.5353 30.7339 17.3481 29.5468 17.3481 28.0825V24.8281H22.6518Z" fill="#EAA27F"/>
<path d="M22.6519 27.8762V28.0825C22.6519 29.2739 21.8663 30.281 20.7842 30.6155C19.8079 30.3152 19.074 29.4665 18.9385 28.4277C19.1155 28.4387 19.2937 28.4442 19.4725 28.4442C19.9742 28.4442 20.4662 28.4042 20.9453 28.3254C21.5355 28.2308 22.1059 28.0789 22.6519 27.8762Z" fill="#F6BA97"/>
<path d="M28.028 19.2572C28.1327 23.092 25.4731 26.4944 21.7027 27.2006C21.6261 27.215 21.5491 27.2284 21.4719 27.2406C21.4573 27.243 21.4417 27.2455 21.4271 27.2482C20.9626 27.3224 20.4856 27.359 19.9992 27.359C19.4541 27.359 18.9201 27.3114 18.401 27.2205C14.5326 26.5405 11.8205 23.046 11.9761 19.1211C12.0603 16.9943 12.7573 15.3165 14.3403 15.4504C17.551 15.7224 20.0001 13.5999 20.0001 12.417C20.0001 13.5999 22.4488 15.7224 25.6596 15.4504C27.2764 15.3134 27.9685 17.0663 28.028 19.2572Z" fill="#EAA27F"/>
<path d="M28.0288 19.2578C28.1331 23.0923 25.4735 26.4941 21.7034 27.2006C21.6268 27.215 21.5496 27.2284 21.4724 27.2406C21.4577 27.243 21.4421 27.2455 21.4275 27.2482C17.0388 26.5625 13.6821 22.7649 13.6821 18.1845V15.5093C13.882 15.4514 14.1017 15.43 14.3407 15.4504C17.5515 15.7224 20.0005 13.5999 20.0005 12.417C20.0005 13.5999 22.4495 15.7224 25.66 15.4504C27.2771 15.3134 27.9693 17.0667 28.0288 19.2578Z" fill="#F6BA97"/>
<path d="M26.2448 20.5933C26.2448 21.2247 25.733 21.7362 25.1019 21.7362C24.4708 21.7362 23.959 21.2247 23.959 20.5933C23.959 19.9622 24.4708 19.4504 25.1019 19.4504C25.733 19.4504 26.2448 19.9622 26.2448 20.5933Z" fill="#EAA27F"/>
<path d="M16.0406 20.5933C16.0406 21.2247 15.5289 21.7362 14.8978 21.7362C14.2667 21.7362 13.7549 21.2247 13.7549 20.5933C13.7549 19.9622 14.2667 19.4504 14.8978 19.4504C15.5289 19.4504 16.0406 19.9622 16.0406 20.5933Z" fill="#EAA27F"/>
<path d="M24.9272 17.4098C24.9272 16.5681 24.2448 15.8857 23.4034 15.8857C22.5618 15.8857 21.8794 16.5681 21.8794 17.4098" fill="#EAA27F"/>
<path d="M18.121 17.4098C18.121 16.5681 17.4387 15.8857 16.5973 15.8857C15.7556 15.8857 15.0732 16.5681 15.0732 17.4098" fill="#EAA27F"/>
<path d="M17.6378 18.0582C17.6378 18.6332 17.1718 19.0992 16.5971 19.0992C16.0222 19.0992 15.5562 18.6332 15.5562 18.0582C15.5562 17.4836 16.0222 17.0176 16.5971 17.0176C17.1718 17.0176 17.6378 17.4836 17.6378 18.0582Z" fill="#2F373B"/>
<path d="M24.4439 18.0582C24.4439 18.6332 23.9779 19.0992 23.4033 19.0992C22.8283 19.0992 22.3623 18.6332 22.3623 18.0582C22.3623 17.4836 22.8283 17.0176 23.4033 17.0176C23.9779 17.0176 24.4439 17.4836 24.4439 18.0582Z" fill="#2F373B"/>
<path d="M21.0408 20.6786H18.9592C18.7111 20.6786 18.5103 20.4778 18.5103 20.2297C18.5103 19.9819 18.7111 19.7808 18.9592 19.7808H21.0408C21.2889 19.7808 21.4897 19.9819 21.4897 20.2297C21.4897 20.4778 21.2889 20.6786 21.0408 20.6786Z" fill="#EAA27F"/>
<path d="M19.9999 23.5194C19.2314 23.5194 18.4633 23.3271 17.7629 22.942C17.5655 22.8333 17.4932 22.5852 17.6018 22.3878C17.7105 22.1903 17.9586 22.1183 18.156 22.2266C19.3105 22.8614 20.689 22.8614 21.8434 22.2266C22.0409 22.118 22.289 22.19 22.3976 22.3878C22.5063 22.5852 22.4343 22.8333 22.2365 22.942C21.5364 23.3271 20.768 23.5194 19.9999 23.5194Z" fill="#EAA27F"/>
<path d="M17.4257 17.8749C17.4257 18.1212 17.2258 18.3207 16.9796 18.3207C16.7333 18.3207 16.5337 18.1212 16.5337 17.8749C16.5337 17.6283 16.7333 17.4287 16.9796 17.4287C17.2258 17.4287 17.4257 17.6283 17.4257 17.8749Z" fill="white"/>
<path d="M17.001 16.5933H25.1162V20.2505H17.001V16.5933Z" fill="#EAA27F"/>
<path d="M24.2828 17.8749C24.2828 18.1212 24.0833 18.3207 23.837 18.3207C23.5907 18.3207 23.3911 18.1212 23.3911 17.8749C23.3911 17.6283 23.5907 17.4287 23.837 17.4287C24.0833 17.4287 24.2828 17.6283 24.2828 17.8749Z" fill="white"/>
<path d="M31.517 21.7743C31.517 22.1616 31.203 22.4753 30.8157 22.4753C30.4285 22.4753 30.1147 22.1616 30.1147 21.7743C30.1147 21.387 30.4285 21.073 30.8157 21.073C31.203 21.073 31.517 21.387 31.517 21.7743Z" fill="#FFE05C"/>
<path d="M9.88568 21.7743C9.88568 22.1616 9.57166 22.4753 9.18439 22.4753C8.79712 22.4753 8.4834 22.1616 8.4834 21.7743C8.4834 21.387 8.79712 21.073 9.18439 21.073C9.57166 21.073 9.88568 21.387 9.88568 21.7743Z" fill="#FFE05C"/>
<path d="M28.758 16.2589C28.7577 16.0404 28.7571 15.7871 28.7565 15.5738C28.7562 15.4252 28.6686 15.2897 28.5316 15.232C27.6044 14.842 25.796 14.5481 24.6381 14.5481C23.3668 14.5481 22.4308 14.8276 21.7771 15.4029C21.6004 15.5585 21.4481 15.7331 21.3196 15.926C21.2449 16.0386 21.0941 16.0715 20.9772 16.0038C20.7377 15.8652 20.4661 15.792 20.1896 15.792H19.8121C19.5356 15.792 19.264 15.8652 19.0247 16.0038C18.9078 16.0715 18.7568 16.0386 18.682 15.926C18.5538 15.7331 18.4012 15.5585 18.2245 15.4029C17.5709 14.8276 16.6349 14.5481 15.3635 14.5481C14.2057 14.5481 12.3972 14.842 11.4701 15.232C11.3331 15.2897 11.2455 15.4252 11.2452 15.5741C11.2449 15.7874 11.244 16.0404 11.2437 16.2589C11.2437 16.3428 11.269 16.4231 11.3114 16.4954C11.5543 16.9102 11.4606 17.5254 11.4606 18.1446C11.4606 19.1221 11.886 20.0385 12.6588 20.7252C13.3961 21.3804 14.3568 21.7414 15.3635 21.7414C16.3798 21.7414 17.3487 21.3029 18.0921 20.507C18.7906 19.759 19.191 18.7827 19.191 17.8284C19.191 17.7619 19.1898 17.6963 19.1871 17.6313C19.1682 17.1741 19.5289 16.7872 19.9866 16.785H20.0007H20.015C20.4725 16.7872 20.8332 17.1741 20.8143 17.6313C20.8115 17.696 20.8103 17.7619 20.8103 17.8284C20.8103 18.7827 21.211 19.759 21.9095 20.507C22.6526 21.3029 23.6219 21.7414 24.6381 21.7414C25.6449 21.7414 26.6053 21.3804 27.3426 20.7252C28.1153 20.0385 28.541 19.1221 28.541 18.1446C28.541 17.5254 28.447 16.9095 28.6902 16.4951C28.7327 16.4228 28.758 16.3425 28.758 16.2589Z" fill="#FFE05C"/>
<path d="M18.2679 17.8284C18.2679 19.0891 17.3191 20.3773 16.0425 20.7258C15.8243 20.7862 15.5976 20.8179 15.3632 20.8179C13.7592 20.8179 12.3838 19.6213 12.3838 18.1446C12.3838 16.6678 13.2328 15.4709 15.3632 15.4709C15.6693 15.4709 15.9476 15.489 16.1991 15.525C17.7003 15.7365 18.2679 16.5641 18.2679 17.8284Z" fill="#151A1C"/>
<path d="M27.6181 18.1446C27.6181 19.3796 26.6565 20.4188 25.4028 20.7258C25.1569 20.7862 24.9005 20.8179 24.6378 20.8179C23.0338 20.8179 21.7334 19.3046 21.7334 17.8284C21.7334 16.3517 22.5079 15.4709 24.6378 15.4709C24.9857 15.4709 25.2991 15.5027 25.5807 15.5625C27.023 15.8695 27.6181 16.9086 27.6181 18.1446Z" fill="#151A1C"/>
<path d="M27.6181 18.1446C27.6181 19.3796 26.6565 20.4188 25.4028 20.7258C26.7047 18.657 26.3007 16.8473 25.5807 15.5625C27.023 15.8695 27.6181 16.9086 27.6181 18.1446Z" fill="#2F373B"/>
<path d="M18.2683 17.8284C18.2683 19.0891 17.3195 20.3772 16.043 20.7257C17.358 18.6368 16.9326 16.8121 16.1995 15.5249C17.7007 15.7364 18.2683 16.564 18.2683 17.8284Z" fill="#2F373B"/>
<path d="M26.1837 37.3282V39.0244C24.2369 39.658 22.1584 40.0001 20.0002 40.0001C17.8884 40.0001 15.8541 39.6726 13.9431 39.0662C13.9006 39.0531 13.8588 39.0391 13.8164 39.0253V37.3282C13.8164 35.5021 15.2965 34.022 17.1227 34.022C18.3568 34.022 19.4319 34.6989 20.0002 35.7014C20.5684 34.6989 21.6432 34.022 22.8777 34.022C24.7039 34.022 26.1837 35.5021 26.1837 37.3282Z" fill="#2F373B"/>
</svg>
