<svg width="40" height="40" viewBox="0 0 40 40" fill="none" xmlns="http://www.w3.org/2000/svg">
<path d="M40 20C40 31.0458 31.0458 40 20 40C8.95416 40 0 31.0458 0 20C0 8.95416 8.95416 0 20 0C31.0458 0 40 8.95416 40 20Z" fill="#1DA2DD"/>
<path d="M19.9999 30.0629H9.63281L10.5346 17.0605" fill="#DD104F"/>
<path d="M29.4858 17.0605L30.3876 30.0629H20.0205H20.5482" fill="#DD104F"/>
<path d="M29.8531 35.1234V37.4082C28.6785 38.0735 27.4303 38.6252 26.1226 39.0439C25.9871 39.0882 25.8516 39.1297 25.7143 39.1706C25.2059 39.3226 24.6883 39.4547 24.1634 39.5649C23.9333 39.6137 23.7023 39.6589 23.4694 39.6989C22.3421 39.8972 21.183 40.0001 20.0002 40.0001C18.8173 40.0001 17.658 39.8972 16.5306 39.6995C16.2981 39.6595 16.0671 39.6146 15.837 39.5658C15.2269 39.4367 14.6288 39.2798 14.041 39.097C14.0084 39.0864 13.9757 39.0766 13.9431 39.0662C13.9211 39.0595 13.8997 39.0522 13.8777 39.0449C12.5707 38.6262 11.3219 38.0744 10.147 37.4082V35.1234C10.147 33.4766 10.6826 31.955 11.5886 30.7233C12.2002 29.8923 12.9796 29.1935 13.8777 28.6774C14.4826 28.3289 15.1406 28.0637 15.837 27.8971C16.205 27.8083 16.5837 27.7469 16.9716 27.7158C17.1724 27.6996 17.3748 27.6914 17.5798 27.6914H22.4196C22.9918 27.6914 23.5488 27.7552 24.0834 27.8776C24.1103 27.884 24.1371 27.8898 24.1634 27.8962C24.8598 28.0637 25.5178 28.3289 26.1226 28.6774C27.0204 29.1944 27.7993 29.8929 28.4099 30.7224C29.3178 31.955 29.8531 33.4766 29.8531 35.1234Z" fill="#EAA27F"/>
<path d="M29.8532 35.1234V37.4082C27.0856 38.9789 23.9062 39.9079 20.5167 39.9937C20.3445 39.9976 20.173 40.0001 20 40.0001C19.827 40.0001 19.6548 39.9976 19.4833 39.9927C17.5558 39.9445 15.697 39.6229 13.9429 39.0662V35.1234C13.9429 31.0187 17.2711 27.6914 21.3763 27.6914H22.4197C26.5256 27.6914 29.8532 31.0187 29.8532 35.1234Z" fill="#F6BA97"/>
<path d="M22.6513 24.8281V28.0825C22.6513 29.2739 21.8658 30.281 20.7836 30.6155C20.5361 30.6924 20.2722 30.7339 19.999 30.7339C18.5348 30.7339 17.3477 29.5471 17.3477 28.0825V24.8281H22.6513Z" fill="#EAA27F"/>
<path d="M22.6514 27.8765V28.0825C22.6514 29.2739 21.8658 30.2809 20.7837 30.6154C19.8077 30.3154 19.0735 29.4664 18.938 28.4279C19.115 28.4386 19.2932 28.4441 19.472 28.4441C19.9738 28.4441 20.4657 28.4044 20.9448 28.3257C21.535 28.2308 22.1054 28.0788 22.6514 27.8765Z" fill="#F6BA97"/>
<path d="M12.6058 19.4949C12.6058 20.7224 11.7092 21.7404 10.5349 21.9293C10.4067 21.9501 10.2745 21.9608 10.14 21.9608C8.77765 21.9608 7.67383 20.8572 7.67383 19.4949C7.67383 18.1326 8.77765 17.0288 10.14 17.0288C10.2745 17.0288 10.4067 17.0398 10.5349 17.0605C11.7092 17.2495 12.6058 18.2672 12.6058 19.4949Z" fill="#F6BA97"/>
<path d="M12.6056 19.4949C12.6056 20.7224 11.709 21.7404 10.5347 21.9293C10.3214 21.1536 10.2075 20.3372 10.2075 19.4949C10.2075 18.6523 10.3214 17.836 10.5347 17.0605C11.709 17.2495 12.6056 18.2672 12.6056 19.4949Z" fill="#EAA27F"/>
<path d="M11.021 19.4949C11.021 19.9816 10.6264 20.3762 10.1396 20.3762C9.65289 20.3762 9.2583 19.9816 9.2583 19.4949C9.2583 19.0081 9.65289 18.6135 10.1396 18.6135C10.6264 18.6135 11.021 19.0081 11.021 19.4949Z" fill="#EAA27F"/>
<path d="M27.3936 19.4949C27.3936 20.7224 28.2905 21.7404 29.4648 21.9293C29.593 21.9501 29.7251 21.9608 29.8597 21.9608C31.222 21.9608 32.3258 20.8572 32.3258 19.4949C32.3258 18.1326 31.222 17.0288 29.8597 17.0288C29.7251 17.0288 29.593 17.0398 29.4648 17.0605C28.2905 17.2495 27.3936 18.2672 27.3936 19.4949Z" fill="#F6BA97"/>
<path d="M27.3936 19.4949C27.3936 20.7224 28.2905 21.7404 29.4648 21.9293C29.6778 21.1536 29.7919 20.3372 29.7919 19.4949C29.7919 18.6523 29.6781 17.836 29.4648 17.0605C28.2905 17.2495 27.3936 18.2672 27.3936 19.4949Z" fill="#EAA27F"/>
<path d="M30.7412 19.4949C30.7412 19.9816 30.3466 20.3762 29.8599 20.3762C29.3731 20.3762 28.9785 19.9816 28.9785 19.4949C28.9785 19.0081 29.3731 18.6135 29.8599 18.6135C30.3466 18.6135 30.7412 19.0081 30.7412 19.4949Z" fill="#EAA27F"/>
<path d="M29.1749 14.6906V18.1845C29.1749 22.7502 25.8394 26.5381 21.472 27.2409C21.4573 27.2433 21.4418 27.2458 21.4271 27.2482C20.9626 27.3224 20.486 27.3593 19.9992 27.3593C14.9324 27.3593 10.8247 23.2513 10.8247 18.1845V14.6906C10.8247 13.6237 11.0066 12.5983 11.3429 11.6458C12.5978 8.07495 16.0002 5.51514 19.9992 5.51514H20.0001C20.486 5.51514 20.9633 5.55267 21.4286 5.62622C25.8174 6.31195 29.1749 10.1093 29.1749 14.6906Z" fill="#EAA27F"/>
<path d="M29.1748 14.6906V18.1845C29.1748 22.7502 25.8392 26.5381 21.4719 27.2409C21.4572 27.2433 21.4417 27.2458 21.427 27.2482C17.0383 26.5625 13.6816 22.7649 13.6816 18.1845V14.6906C13.6816 10.1093 17.0392 6.31195 21.4285 5.62622C25.8173 6.31195 29.1748 10.1093 29.1748 14.6906Z" fill="#F6BA97"/>
<path d="M26.2443 20.5936C26.2443 21.2247 25.7325 21.7365 25.1014 21.7365C24.4703 21.7365 23.9585 21.2247 23.9585 20.5936C23.9585 19.9622 24.4703 19.4507 25.1014 19.4507C25.7325 19.4507 26.2443 19.9622 26.2443 20.5936Z" fill="#EAA27F"/>
<path d="M16.0402 20.5936C16.0402 21.2247 15.5287 21.7365 14.8973 21.7365C14.2662 21.7365 13.7544 21.2247 13.7544 20.5936C13.7544 19.9622 14.2662 19.4507 14.8973 19.4507C15.5287 19.4507 16.0402 19.9622 16.0402 20.5936Z" fill="#EAA27F"/>
<path d="M24.9267 17.4097C24.9267 16.5681 24.2446 15.886 23.403 15.886C22.5613 15.886 21.8789 16.5681 21.8789 17.4097" fill="#EAA27F"/>
<path d="M18.1205 17.4097C18.1205 16.5681 17.4385 15.886 16.5968 15.886C15.7551 15.886 15.0728 16.5681 15.0728 17.4097" fill="#EAA27F"/>
<path d="M17.6378 18.0585C17.6378 18.6332 17.1718 19.0992 16.5971 19.0992C16.0222 19.0992 15.5562 18.6332 15.5562 18.0585C15.5562 17.4836 16.0222 17.0176 16.5971 17.0176C17.1718 17.0176 17.6378 17.4836 17.6378 18.0585Z" fill="#2F373B"/>
<path d="M24.4442 18.0585C24.4442 18.6332 23.9782 19.0992 23.4033 19.0992C22.8283 19.0992 22.3623 18.6332 22.3623 18.0585C22.3623 17.4836 22.8283 17.0176 23.4033 17.0176C23.9782 17.0176 24.4442 17.4836 24.4442 18.0585Z" fill="#2F373B"/>
<path d="M21.0408 20.6789H18.9592C18.7114 20.6789 18.5103 20.4778 18.5103 20.23C18.5103 19.9819 18.7114 19.7808 18.9592 19.7808H21.0408C21.2889 19.7808 21.4897 19.9819 21.4897 20.23C21.4897 20.4778 21.2889 20.6789 21.0408 20.6789Z" fill="#EAA27F"/>
<path d="M20.0002 23.5197C19.2318 23.5197 18.4637 23.3272 17.7633 22.942C17.5658 22.8337 17.4938 22.5856 17.6022 22.3878C17.7108 22.1904 17.9592 22.1183 18.1567 22.2267C19.3111 22.8615 20.6893 22.8615 21.8438 22.2267C22.0412 22.1183 22.2894 22.1904 22.398 22.3878C22.5066 22.5856 22.4346 22.8337 22.2372 22.942C21.5368 23.3272 20.7684 23.5197 20.0002 23.5197Z" fill="#EAA27F"/>
<path d="M17.4257 17.8749C17.4257 18.1212 17.2261 18.3207 16.9796 18.3207C16.7333 18.3207 16.5337 18.1212 16.5337 17.8749C16.5337 17.6286 16.7333 17.4287 16.9796 17.4287C17.2261 17.4287 17.4257 17.6286 17.4257 17.8749Z" fill="white"/>
<path d="M24.2827 17.8749C24.2827 18.1212 24.0828 18.3207 23.8365 18.3207C23.5902 18.3207 23.3906 18.1212 23.3906 17.8749C23.3906 17.6286 23.5902 17.4287 23.8365 17.4287C24.0828 17.4287 24.2827 17.6286 24.2827 17.8749Z" fill="white"/>
<path d="M29.4862 10.8569V15.6137H10.5122V12.8833L10.5931 9.86267L11.9188 7.7771L16.082 4.67499L18.2658 4.34204L20.8983 3.94043L26.2861 5.89966L29.4862 10.8569Z" fill="#F73B6C"/>
<path d="M15.8461 15.6137H11.9188V17.7362H10.5122V12.8833L10.5931 9.86267L11.9188 7.7771L16.082 4.67499L18.2658 4.34204C16.3905 6.26923 15.5742 11.2897 15.8461 15.6137Z" fill="#DD104F"/>
<path d="M29.5781 11.604C29.5781 12.0392 29.547 12.4677 29.486 12.8864C28.8384 8.42285 24.8384 4.98688 19.9993 4.98688C19.4753 4.98688 18.9617 5.02594 18.4621 5.10529C17.2368 5.29388 16.09 5.70526 15.0679 6.29395C12.6451 7.69043 10.9194 10.0858 10.512 12.8833C10.4515 12.4652 10.4204 12.0383 10.4204 11.604C10.4204 8.26447 12.2835 5.34119 15.0679 3.73718C16.0909 3.14758 17.2377 2.73621 18.4621 2.54761C18.9617 2.46857 19.4753 2.4292 19.9993 2.4292C25.2898 2.4292 29.5781 6.53717 29.5781 11.604Z" fill="#FFE05C"/>
<path d="M29.8531 35.1234V37.4082C28.6785 38.0735 27.4303 38.6252 26.1226 39.0439C25.9871 39.0882 25.8516 39.1297 25.7143 39.1706C25.2059 39.3226 24.6883 39.4547 24.1634 39.5649C23.9333 39.6137 23.7023 39.6589 23.4694 39.6989C22.3421 39.8972 21.183 40.0001 20.0002 40.0001C18.8173 40.0001 17.658 39.8972 16.5306 39.6995C16.2981 39.6595 16.0671 39.6146 15.837 39.5658C15.2269 39.4367 14.6288 39.2798 14.041 39.097C14.0084 39.0864 13.9757 39.0766 13.9431 39.0662C13.9211 39.0595 13.8997 39.0522 13.8777 39.0449C12.5707 38.6262 11.3219 38.0744 10.147 37.4082V35.1234C10.147 33.4766 10.6826 31.955 11.5886 30.7233C12.3445 31.4448 13.3007 32.0652 14.4017 32.5477C16.0125 33.2523 17.9348 33.6622 19.9993 33.6622C20.5617 33.6622 21.1135 33.6326 21.65 33.5731C22.9659 33.4302 24.1976 33.1199 25.2947 32.6752C26.5233 32.1772 27.5847 31.5101 28.4099 30.7224C29.3178 31.955 29.8531 33.4766 29.8531 35.1234Z" fill="#E89F18"/>
<path d="M28.0796 15.6138H29.4861V17.7363H28.0796V15.6138Z" fill="#F73B6C"/>
<path d="M26.7228 15.6136C26.7228 15.6136 26.8574 12.022 25.7145 10.1443L25.5513 16.3485" fill="#F6BA97"/>
<path d="M29.8534 35.1234V37.4082C28.6788 38.0735 27.4306 38.6252 26.1229 39.0439C25.9874 39.0882 25.8519 39.1297 25.7146 39.1706C25.2062 39.3226 24.6886 39.4547 24.1637 39.5649C23.9336 39.6137 23.7026 39.6589 23.4697 39.6989C22.3424 39.8972 21.1833 40.0001 20.0005 40.0001C18.8176 40.0001 17.6583 39.8972 16.5309 39.6995C16.2984 39.6595 16.0674 39.6146 15.8373 39.5658C15.2272 39.4367 14.6291 39.2798 14.0413 39.097C14.0087 39.0864 13.976 39.0766 13.9434 39.0662V35.1234C13.9434 34.2179 14.1048 33.3503 14.402 32.5477C16.0128 33.2523 17.9351 33.6622 19.9996 33.6622C20.562 33.6622 21.1138 33.6326 21.6503 33.5731C22.9662 33.4302 24.1979 33.1199 25.295 32.6752C26.5236 32.1772 27.585 31.5101 28.4102 30.7224C29.3181 31.955 29.8534 33.4766 29.8534 35.1234Z" fill="#FFE05C"/>
<path d="M13.8427 35.1233V39.0341C12.5478 38.6154 11.3112 38.0685 10.147 37.4081V35.1233H13.8427Z" fill="#EAA27F"/>
<path d="M29.8531 35.1233V37.4081C28.6891 38.0685 27.4523 38.6154 26.1577 39.0341V35.1233H29.8531Z" fill="#F6BA97"/>
</svg>
