<svg width="40" height="40" viewBox="0 0 40 40" fill="none" xmlns="http://www.w3.org/2000/svg">
<path d="M40 20C40 31.0458 31.0458 40 20 40C8.95416 40 0 31.0458 0 20C0 8.95416 8.95416 0 20 0C31.0458 0 40 8.95416 40 20Z" fill="#FFE05C"/>
<path d="M23.4419 17.4644V26.6883C23.4419 27.139 23.8072 27.5046 24.2579 27.5046C24.709 27.5046 25.0743 27.139 25.0743 26.6883V17.4644H23.4419Z" fill="#2F373B"/>
<path d="M14.9248 17.4644V26.6883C14.9248 27.139 15.2904 27.5046 15.7411 27.5046C16.1919 27.5046 16.5575 27.139 16.5575 26.6883V17.4644H14.9248Z" fill="#2F373B"/>
<path d="M29.8526 35.1234V37.4082C26.9449 39.058 23.5822 40.0001 19.9994 40.0001C17.8876 40.0001 15.8533 39.6726 13.9423 39.0662C12.6117 38.6442 11.3406 38.0857 10.1465 37.4082V35.1234C10.1465 35.0962 10.1465 35.0693 10.1471 35.0425C10.1514 34.6155 10.192 34.1974 10.2664 33.791C10.8582 30.5167 13.5953 27.9886 16.9708 27.7158C17.1716 27.6996 17.3743 27.6914 17.579 27.6914H22.4191C22.9913 27.6914 23.548 27.7552 24.0826 27.8776C27.3871 28.6335 29.8526 31.5909 29.8526 35.1234Z" fill="#BF7C5E"/>
<path d="M14.3404 33.791V35.0425H10.147C10.1512 34.6156 10.1918 34.1975 10.2663 33.791H14.3404Z" fill="#512375"/>
<path d="M10.1465 35.9133H14.3405V37.1649H10.1465V35.9133Z" fill="#512375"/>
<path d="M29.8534 35.1234V37.4082C29.4045 37.6627 28.944 37.9005 28.4746 38.1208C27.9695 38.3576 27.4526 38.574 26.9252 38.7681C26.0045 39.1086 25.0511 39.3827 24.0721 39.5844C22.918 39.8237 21.7269 39.9631 20.5089 39.9933C20.3401 39.9976 20.1702 40.0001 20.0005 40.0001C17.8887 40.0001 15.8544 39.6726 13.9434 39.0662V35.1234C13.9434 34.5966 13.998 34.0824 14.1024 33.5868C14.3148 32.5745 14.7335 31.6392 15.3124 30.8243C16.6591 28.9283 18.8738 27.6914 21.3768 27.6914H22.4199C25.1668 27.6914 27.5661 29.1804 28.8518 31.3959C29.1295 31.8726 29.3547 32.3829 29.5214 32.92C29.7374 33.6164 29.8534 34.3558 29.8534 35.1234Z" fill="#D39272"/>
<path d="M29.5214 32.92H25.443C25.2324 32.92 25.0423 32.8352 24.9034 32.6973C24.7664 32.5593 24.6807 32.3683 24.6807 32.1583C24.6807 31.7372 25.0219 31.396 25.443 31.396H28.8518C29.1295 31.8727 29.3547 32.3829 29.5214 32.92Z" fill="#512375"/>
<path d="M23.6323 30.2512L24.2885 31.5812L25.7563 31.7945L24.6943 32.8297L24.9449 34.2914L23.6323 33.6011L22.3195 34.2914L22.5703 32.8297L21.5083 31.7945L22.9759 31.5812L23.6323 30.2512Z" fill="#512375"/>
<path d="M16.3672 30.2512L17.0233 31.5812L18.4912 31.7945L17.4292 32.8297L17.6797 34.2914L16.3672 33.6011L15.0543 34.2914L15.3052 32.8297L14.2432 31.7945L15.7108 31.5812L16.3672 30.2512Z" fill="#512375"/>
<path d="M28.5937 37.1982C28.5455 37.4644 28.4753 37.8507 28.4744 38.1208C27.9693 38.3576 27.4523 38.574 26.925 38.7681C26.7593 38.1592 26.8826 37.4833 26.9872 36.9062C27.0803 36.3969 27.1954 35.7633 27.0181 35.5509C26.961 35.4825 26.6989 35.2604 25.7144 35.2604V33.6277C26.9421 33.6277 27.7789 33.9142 28.2711 34.5045C28.9382 35.3037 28.7472 36.3541 28.5937 37.1982Z" fill="#512375"/>
<path d="M26.0576 28.4301V39.0643C25.9441 39.1012 25.83 39.1363 25.7146 39.1705C25.2062 39.3224 24.6886 39.4546 24.1637 39.5648C23.9336 39.6136 23.7026 39.6588 23.4697 39.6987C22.3424 39.8971 21.1833 39.9999 20.0005 39.9999C18.8176 39.9999 17.6583 39.8971 16.5309 39.6993C16.4632 39.688 16.3948 39.6758 16.3271 39.6627C16.1907 39.6383 16.0543 39.6111 15.9188 39.5828C15.8919 39.577 15.8641 39.5712 15.8373 39.5657C15.194 39.4293 14.5629 39.2626 13.9434 39.0661V28.4301L15.8373 27.6138V32.5567C15.8373 33.1222 16.0182 33.6465 16.3271 34.0734C16.798 34.7265 17.5652 35.151 18.4316 35.151H21.5694C23.0022 35.151 24.1637 33.9892 24.1637 32.5567V27.6138L26.0576 28.4301Z" fill="#F2EFEA"/>
<path d="M22.6513 24.8281V28.0825C22.6513 29.2739 21.8658 30.281 20.7836 30.6155C20.5361 30.6924 20.2722 30.7339 19.999 30.7339C18.5345 30.7339 17.3477 29.5471 17.3477 28.0825V24.8281H22.6513Z" fill="#BF7C5E"/>
<path d="M22.6514 27.8765V28.0825C22.6514 29.2739 21.8658 30.2809 20.7837 30.6154C19.8074 30.3154 19.0735 29.4664 18.938 28.4279C19.115 28.4386 19.2932 28.4441 19.472 28.4441C19.9738 28.4441 20.4657 28.4044 20.9445 28.3257C21.535 28.2308 22.1054 28.0788 22.6514 27.8765Z" fill="#D39272"/>
<path d="M12.7257 19.4949C12.7257 20.7224 11.8288 21.7404 10.6545 21.9293C10.5263 21.9501 10.3942 21.9608 10.2596 21.9608C8.89728 21.9608 7.79346 20.8572 7.79346 19.4949C7.79346 18.1326 8.89728 17.0288 10.2596 17.0288C10.3942 17.0288 10.5263 17.0398 10.6545 17.0605C11.8288 17.2495 12.7257 18.2672 12.7257 19.4949Z" fill="#D39272"/>
<path d="M12.7255 19.4949C12.7255 20.7224 11.8286 21.7404 10.6543 21.9293C10.441 21.1536 10.3271 20.3372 10.3271 19.4949C10.3271 18.6523 10.441 17.836 10.6543 17.0605C11.8286 17.2495 12.7255 18.2672 12.7255 19.4949Z" fill="#BF7C5E"/>
<path d="M11.1406 19.4949C11.1406 19.9816 10.746 20.3762 10.2593 20.3762C9.77252 20.3762 9.37793 19.9816 9.37793 19.4949C9.37793 19.0081 9.77252 18.6135 10.2593 18.6135C10.746 18.6135 11.1406 19.0081 11.1406 19.4949Z" fill="#BF7C5E"/>
<path d="M27.2734 19.4949C27.2734 20.7224 28.17 21.7404 29.3444 21.9293C29.4728 21.9501 29.6047 21.9608 29.7396 21.9608C31.1019 21.9608 32.2054 20.8572 32.2054 19.4949C32.2054 18.1326 31.1019 17.0288 29.7396 17.0288C29.6047 17.0288 29.4728 17.0398 29.3444 17.0605C28.17 17.2495 27.2734 18.2672 27.2734 19.4949Z" fill="#D39272"/>
<path d="M27.2734 19.4949C27.2734 20.7224 28.17 21.7404 29.3444 21.9293C29.5577 21.1536 29.6718 20.3372 29.6718 19.4949C29.6718 18.6523 29.558 17.836 29.3444 17.0605C28.17 17.2495 27.2734 18.2672 27.2734 19.4949Z" fill="#BF7C5E"/>
<path d="M29.1749 14.6906V18.1845C29.1749 22.7502 25.8394 26.5381 21.472 27.2409C21.4573 27.2433 21.4418 27.2458 21.4271 27.2482C20.9626 27.3224 20.486 27.3593 19.9992 27.3593C14.9324 27.3593 10.8247 23.2513 10.8247 18.1845V14.6906C10.8247 13.6237 11.0066 12.5983 11.3429 11.6458C12.5978 8.07495 16.0002 5.51514 19.9992 5.51514H20.0001C20.486 5.51514 20.9633 5.55267 21.4286 5.62622C25.8174 6.31195 29.1749 10.1093 29.1749 14.6906Z" fill="#BF7C5E"/>
<path d="M30.6211 19.4949C30.6211 19.9816 30.2265 20.3762 29.7397 20.3762C29.253 20.3762 28.8584 19.9816 28.8584 19.4949C28.8584 19.0081 29.253 18.6135 29.7397 18.6135C30.2265 18.6135 30.6211 19.0081 30.6211 19.4949Z" fill="#BF7C5E"/>
<path d="M24.8492 16.9745V25.9738C23.8385 26.604 22.6956 27.0432 21.4722 27.2406C21.4575 27.2431 21.442 27.2455 21.4273 27.2482C17.6053 26.6504 14.566 23.6939 13.8452 19.9143V16.9745C13.8452 15.3812 15.1114 14.5712 17.0444 13.5175C17.0526 13.5129 17.0612 13.5083 17.0697 13.5037C18.4894 12.7289 20.2051 12.7289 21.6248 13.5037C21.6333 13.5083 21.6415 13.5129 21.6501 13.5175C23.5822 14.5712 24.8492 15.3812 24.8492 16.9745Z" fill="#D39272"/>
<path d="M19.9989 23.1115C19.2305 23.1115 18.4623 22.9189 17.762 22.5338C17.5645 22.4254 17.4922 22.177 17.6008 21.9796C17.7095 21.7821 17.9576 21.7101 18.1553 21.8184C19.3095 22.4532 20.688 22.4532 21.8425 21.8184C22.0399 21.7098 22.288 21.7818 22.3967 21.9796C22.5053 22.177 22.4333 22.4254 22.2355 22.5338C21.5355 22.9189 20.767 23.1115 19.9989 23.1115Z" fill="#BF7C5E"/>
<path d="M21.0403 20.2709H18.9587C18.7109 20.2709 18.5098 20.0698 18.5098 19.8217C18.5098 19.5739 18.7109 19.3728 18.9587 19.3728H21.0403C21.2884 19.3728 21.4895 19.5739 21.4895 19.8217C21.4895 20.0698 21.2884 20.2709 21.0403 20.2709Z" fill="#BF7C5E"/>
<path d="M18.0455 17.65C18.0455 18.225 17.5795 18.691 17.0045 18.691C16.4299 18.691 15.9639 18.225 15.9639 17.65C15.9639 17.0754 16.4299 16.6094 17.0045 16.6094C17.5795 16.6094 18.0455 17.0754 18.0455 17.65Z" fill="#2F373B"/>
<path d="M24.0352 17.65C24.0352 18.225 23.5692 18.691 22.9943 18.691C22.4196 18.691 21.9536 18.225 21.9536 17.65C21.9536 17.0754 22.4196 16.6094 22.9943 16.6094C23.5692 16.6094 24.0352 17.0754 24.0352 17.65Z" fill="#2F373B"/>
<path d="M17.8331 17.4664C17.8331 17.7126 17.6335 17.9125 17.3873 17.9125C17.141 17.9125 16.9414 17.7126 16.9414 17.4664C16.9414 17.2201 17.141 17.0205 17.3873 17.0205C17.6335 17.0205 17.8331 17.2201 17.8331 17.4664Z" fill="white"/>
<path d="M23.8745 17.4664C23.8745 17.7126 23.6746 17.9125 23.4283 17.9125C23.182 17.9125 22.9824 17.7126 22.9824 17.4664C22.9824 17.2201 23.182 17.0205 23.4283 17.0205C23.6746 17.0205 23.8745 17.2201 23.8745 17.4664Z" fill="white"/>
<path d="M20.3854 5.70604C20.335 5.91661 20.202 6.09789 20.0207 6.20958C20.014 6.21355 20.0076 6.21782 20.0002 6.22087C19.9789 6.234 19.9578 6.24559 19.9349 6.25536C19.8443 6.29778 19.7439 6.32372 19.6377 6.32952C12.2793 6.74577 11.2655 11.266 11.2655 16.0887C11.2655 16.5395 10.8999 16.9051 10.4492 16.9051C9.99841 16.9051 9.63281 16.5395 9.63281 16.0887C9.63281 13.8902 9.815 11.0756 11.2368 8.80388C12.7389 6.4055 15.3732 5.03649 19.0728 4.73375C19.1903 4.72307 19.3087 4.71483 19.4286 4.70751C19.4671 4.70506 19.5062 4.70262 19.5455 4.70018C19.7112 4.69042 19.8672 4.73039 20.0002 4.80638C20.2303 4.93944 20.3903 5.18358 20.4067 5.46922C20.4116 5.55071 20.4034 5.63066 20.3854 5.70604Z" fill="#1DA2DD"/>
<path d="M20.7636 4.98674C20.6672 5.24217 20.539 5.48143 20.3855 5.70604C20.2714 5.87419 20.1423 6.0341 20.0004 6.18669C19.9936 6.19402 19.9863 6.20226 19.979 6.20958C19.9653 6.22514 19.9506 6.23979 19.9351 6.25536C19.1154 7.10924 17.9154 7.74431 16.7432 8.36473C14.766 9.41118 12.8983 10.3996 12.8983 12.1736V26.1324C12.8983 26.5831 12.5324 26.9487 12.082 26.9487C11.6312 26.9487 11.2656 26.5831 11.2656 26.1324V12.1736C11.2656 9.41698 13.7702 8.09129 15.9791 6.92156C17.2959 6.22423 18.5489 5.56139 19.0729 4.73375C19.1904 4.72307 19.3088 4.71483 19.4288 4.70751C19.4672 4.70506 19.5063 4.70262 19.5456 4.70018C19.7114 4.69042 19.8673 4.73039 20.0004 4.80638C20.1334 4.73039 20.2894 4.69042 20.4542 4.70018C20.4932 4.70262 20.5317 4.70506 20.571 4.70751C20.7194 4.78349 20.8051 4.87566 20.7636 4.98674Z" fill="#151A1C"/>
<path d="M10.4492 26.2259C9.99841 26.2259 9.63281 25.8606 9.63281 25.4099V16.0889C9.63281 12.4863 13.1686 10.3168 16.0098 8.57365C17.424 7.70573 19.1836 6.62602 19.1836 5.96623C19.1836 5.51549 20.8163 5.51549 20.8163 5.96623C20.8163 7.53972 19.0719 8.60997 16.8636 9.96526C14.2397 11.5754 11.2655 13.4003 11.2655 16.0889V25.4099C11.2655 25.8606 10.8999 26.2259 10.4492 26.2259Z" fill="#F73B6C"/>
<path d="M12.082 30.8639C11.6312 30.8639 11.2656 30.4983 11.2656 30.0475V16.0888C11.2656 13.4454 13.8782 11.7697 16.1835 10.2911C17.5898 9.38928 19.1837 8.36694 19.1837 7.59882C19.1837 7.14807 19.5493 6.78247 20.0001 6.78247C20.4508 6.78247 20.8164 7.14807 20.8164 7.59882C20.8164 9.25928 18.9942 10.8364 17.0649 12.0736C15.1118 13.3264 12.8983 14.338 12.8983 16.0888V30.0475C12.8983 30.4983 12.5327 30.8639 12.082 30.8639Z" fill="#151A1C"/>
<path d="M13.6816 28.1851C13.2308 28.1851 12.8652 27.8198 12.8652 27.3687V16.5933C12.8652 13.9117 15.111 12.687 16.9152 11.7028C18.3267 10.9332 19.1836 10.4168 19.1836 9.73627C19.1836 9.28522 19.5492 8.91992 19.9999 8.91992C20.4507 8.91992 20.8163 9.28522 20.8163 9.73627C20.8163 11.4352 19.2306 12.2997 17.6968 13.1362C15.7644 14.19 14.4979 15.0002 14.4979 16.5933V27.3687C14.4979 27.8198 14.1323 28.1851 13.6816 28.1851Z" fill="#1DA2DD"/>
<path d="M30.3675 16.0887C30.3675 16.5395 30.0016 16.9051 29.5512 16.9051C29.0995 16.9051 28.7348 16.5395 28.7348 16.0887C28.7348 16.0137 28.7348 15.9377 28.7339 15.8626C28.7013 11.1254 27.6051 6.73937 20.3617 6.32952C20.2555 6.32372 20.1551 6.29778 20.0645 6.25536C20.0425 6.24559 20.0212 6.234 20.0001 6.22087C19.9928 6.21782 19.9861 6.21355 19.9787 6.20958C19.7975 6.09697 19.6644 5.91661 19.6141 5.70604C19.5961 5.63005 19.5878 5.55071 19.5927 5.46922C19.6092 5.18266 19.7691 4.93944 20.0001 4.80638C20.1332 4.73039 20.2891 4.69042 20.4539 4.70018C20.493 4.70262 20.5314 4.70506 20.5708 4.70751C20.6907 4.71483 20.8091 4.72307 20.9266 4.73375C24.6263 5.03649 27.2612 6.4055 28.7632 8.80388C30.1844 11.0756 30.3675 13.8902 30.3675 16.0887Z" fill="#F73B6C"/>
<path d="M28.734 12.1736V26.1324C28.734 26.5831 28.369 26.9487 27.9177 26.9487C27.4669 26.9487 27.1013 26.5831 27.1013 26.1324V12.1736C27.1013 10.3996 25.2337 9.41118 23.2564 8.36473C22.0852 7.74431 20.8849 7.10924 20.0646 6.25536C20.0499 6.23979 20.0353 6.22514 20.0206 6.20958C20.0139 6.20226 20.0066 6.19402 20.0002 6.18669C19.858 6.0341 19.7283 5.87419 19.6142 5.70604C19.4606 5.48143 19.3325 5.24217 19.236 4.98674C19.1945 4.87566 19.2803 4.78349 19.4286 4.70751C19.4671 4.70506 19.5061 4.70262 19.5455 4.70018C19.7112 4.69042 19.8671 4.73039 20.0002 4.80638C20.1333 4.73039 20.2892 4.69042 20.454 4.70018C20.4931 4.70262 20.5315 4.70506 20.5709 4.70751C20.6908 4.71483 20.8092 4.72307 20.9267 4.73375C21.4516 5.56139 22.7037 6.22423 24.0206 6.92156C26.2304 8.09129 28.734 9.41698 28.734 12.1736Z" fill="#151A1C"/>
<path d="M29.5507 30.0477C30.0015 30.0477 30.3671 29.6821 30.3671 29.2313V16.0889C30.3671 12.4863 26.8313 10.3168 23.9901 8.57365C22.5759 7.70573 20.8163 6.62602 20.8163 5.96623C20.8163 5.51549 19.1836 5.51549 19.1836 5.96623C19.1836 7.53972 20.928 8.60997 23.1362 9.96526C25.7601 11.5754 28.7344 13.4003 28.7344 16.0889V29.2313C28.7344 29.6821 29.1 30.0477 29.5507 30.0477Z" fill="#2F373B"/>
<path d="M27.918 23.0697C28.3688 23.0697 28.7344 22.7041 28.7344 22.2534V16.0888C28.7344 13.4457 26.1218 11.77 23.8165 10.2914C22.4102 9.38928 20.8163 8.36694 20.8163 7.59882C20.8163 7.14807 20.4507 6.78247 19.9999 6.78247C19.5492 6.78247 19.1836 7.14807 19.1836 7.59882C19.1836 9.25928 21.0058 10.8364 22.9351 12.0736C24.8882 13.3264 27.1017 14.338 27.1017 16.0888V22.2534C27.1017 22.7041 27.4673 23.0697 27.918 23.0697Z" fill="#1DA2DD"/>
<path d="M26.3183 31.3683C26.769 31.3683 27.1346 31.0031 27.1346 30.552V16.5933C27.1346 13.9117 24.8892 12.687 23.0847 11.7028C21.6732 10.9332 20.8163 10.4168 20.8163 9.73627C20.8163 9.28522 20.4507 8.91992 19.9999 8.91992C19.5492 8.91992 19.1836 9.28522 19.1836 9.73627C19.1836 11.4352 20.7693 12.2997 22.3031 13.1362C24.2355 14.19 25.502 15.0002 25.502 16.5933V30.552C25.502 31.0031 25.8676 31.3683 26.3183 31.3683Z" fill="#F73B6C"/>
<path d="M23.6273 14.5708L22.7505 16.0894H24.5037L23.6273 14.5708Z" fill="#512375"/>
<path d="M22.8022 19.26H24.8158V19.9677H22.8022V19.26Z" fill="#512375"/>
<path d="M15.1836 19.26H17.1971V19.9677H15.1836V19.26Z" fill="#512375"/>
</svg>
