<svg width="40" height="40" viewBox="0 0 40 40" fill="none" xmlns="http://www.w3.org/2000/svg">
<path d="M39.9826 20.0087C39.9826 31.0494 31.0321 39.9999 19.9911 39.9999C8.9505 39.9999 0 31.0494 0 20.0087C0 8.96777 8.9505 0.0175781 19.9911 0.0175781C31.0321 0.0175781 39.9826 8.96777 39.9826 20.0087Z" fill="#FFE05C"/>
<path d="M28.2562 20.7415C29.4519 21.9368 30.7623 25.3344 27.9064 27.3741C25.0506 29.4142 28.5592 34.3099 28.5592 34.3099L21.2969 37.2475L12.0767 32.0253L13.6758 18.1938" fill="#DD104F"/>
<path d="M29.8401 35.1254V37.4093C28.6658 38.0743 27.4183 38.6257 26.1112 39.0444C25.9757 39.0884 25.8402 39.1302 25.7032 39.1708C25.1948 39.3228 24.6775 39.4549 24.1529 39.5651C23.9228 39.6139 23.6918 39.6588 23.4592 39.6987C22.3322 39.8971 21.1738 39.9999 19.9912 39.9999C18.809 39.9999 17.6502 39.8971 16.5235 39.6996C16.291 39.6597 16.0599 39.6148 15.8298 39.5657C15.2204 39.4369 14.6223 39.2803 14.0348 39.0975C14.0021 39.0869 13.9695 39.0771 13.9368 39.0664C13.9149 39.06 13.8935 39.0527 13.8715 39.045C12.5651 38.6266 11.3169 38.0749 10.1426 37.4093V35.1254C10.1426 32.3696 11.6422 29.9642 13.8715 28.6825C14.4761 28.334 15.1337 28.0688 15.8298 27.9025C16.1979 27.8134 16.5766 27.7523 16.9642 27.7212C17.1647 27.7047 17.3673 27.6968 17.5721 27.6968H22.4097C22.9819 27.6968 23.5383 27.7603 24.0729 27.8826C24.0998 27.8893 24.1266 27.8948 24.1529 27.9016C24.8487 28.0688 25.5063 28.334 26.1112 28.6825C28.3396 29.9651 29.8401 32.3705 29.8401 35.1254Z" fill="#17A388"/>
<path d="M29.8403 35.1254V37.4093C27.0742 38.9791 23.8958 39.9078 20.5081 39.9932C20.3359 39.9975 20.1644 39.9999 19.9914 39.9999C19.8187 39.9999 19.6462 39.9975 19.475 39.9926C17.5485 39.9444 15.6906 39.6227 13.937 39.0664V35.1254C13.937 31.0226 17.2637 27.6968 21.3671 27.6968H22.4099C26.5142 27.6968 29.8403 31.0226 29.8403 35.1254Z" fill="#27BA9E"/>
<path d="M22.6415 24.835V28.0878C22.6415 29.2786 21.8566 30.2854 20.7748 30.6196C20.5273 30.6965 20.2636 30.738 19.9905 30.738C18.5269 30.738 17.3403 29.5515 17.3403 28.0878V24.835H22.6415Z" fill="#EAA27F"/>
<path d="M22.6417 27.8818V28.0878C22.6417 29.2786 21.8568 30.2854 20.775 30.6196C19.7993 30.3196 19.0657 29.4712 18.9302 28.433C19.1072 28.444 19.2851 28.4492 19.4639 28.4492C19.9656 28.4492 20.457 28.4095 20.9358 28.3307C21.526 28.2361 22.0961 28.0842 22.6417 27.8818Z" fill="#F6BA97"/>
<path d="M12.6002 19.5037C12.6002 20.7308 11.7039 21.7483 10.5302 21.9369C10.4017 21.9579 10.2699 21.9686 10.1353 21.9686C8.77362 21.9686 7.67041 20.8654 7.67041 19.5037C7.67041 18.142 8.77362 17.0388 10.1353 17.0388C10.2699 17.0388 10.4017 17.0495 10.5302 17.0706C11.7039 17.2592 12.6002 18.2766 12.6002 19.5037Z" fill="#F6BA97"/>
<path d="M12.6003 19.5037C12.6003 20.7308 11.704 21.7483 10.5303 21.9369C10.317 21.1617 10.2031 20.3457 10.2031 19.5037C10.2031 18.6614 10.317 17.8457 10.5303 17.0706C11.704 17.2592 12.6003 18.2766 12.6003 19.5037Z" fill="#EAA27F"/>
<path d="M11.0165 19.5038C11.0165 19.9903 10.6219 20.3849 10.1354 20.3849C9.64899 20.3849 9.25439 19.9903 9.25439 19.5038C9.25439 19.0174 9.64899 18.6228 10.1354 18.6228C10.6219 18.6228 11.0165 19.0174 11.0165 19.5038Z" fill="#EAA27F"/>
<path d="M27.3818 19.5037C27.3818 20.7308 28.2781 21.7483 29.4518 21.9369C29.58 21.9579 29.7122 21.9686 29.8467 21.9686C31.2084 21.9686 32.3116 20.8654 32.3116 19.5037C32.3116 18.142 31.2084 17.0388 29.8467 17.0388C29.7122 17.0388 29.58 17.0495 29.4518 17.0706C28.2781 17.2592 27.3818 18.2766 27.3818 19.5037Z" fill="#F6BA97"/>
<path d="M27.3818 19.5037C27.3818 20.7308 28.2781 21.7483 29.4518 21.9369C29.6652 21.1617 29.779 20.3457 29.779 19.5037C29.779 18.6614 29.6652 17.8457 29.4518 17.0706C28.2781 17.2592 27.3818 18.2766 27.3818 19.5037Z" fill="#EAA27F"/>
<path d="M30.7279 19.5038C30.7279 19.9903 30.3333 20.3849 29.8469 20.3849C29.3601 20.3849 28.9658 19.9903 28.9658 19.5038C28.9658 19.0174 29.3601 18.6228 29.8469 18.6228C30.3333 18.6228 30.7279 19.0174 30.7279 19.5038Z" fill="#EAA27F"/>
<path d="M29.1621 14.7015V18.1939C29.1621 22.7575 25.8281 26.5438 21.4625 27.2463C21.4479 27.2488 21.4323 27.2512 21.4177 27.2537C20.9535 27.3278 20.4768 27.3647 19.9907 27.3647C14.926 27.3647 10.8198 23.2586 10.8198 18.1939V14.7015C10.8198 13.6352 11.0017 12.6101 11.338 11.658C12.5923 8.08893 15.9932 5.53003 19.9907 5.53003H19.9913C20.4768 5.53003 20.9541 5.56757 21.4192 5.64111C25.8061 6.32654 29.1621 10.1223 29.1621 14.7015Z" fill="#EAA27F"/>
<path d="M29.1622 14.7015V18.1939C29.1622 22.7575 25.8282 26.5435 21.4626 27.2463C21.448 27.2488 21.4324 27.2512 21.4178 27.2537C17.0312 26.5682 13.6758 22.7722 13.6758 18.1939V14.7015C13.6758 10.1223 17.0321 6.32654 21.4193 5.64111C25.8062 6.32654 29.1622 10.1223 29.1622 14.7015Z" fill="#F6BA97"/>
<path d="M26.2333 20.6017C26.2333 21.2328 25.7218 21.7443 25.091 21.7443C24.4602 21.7443 23.9487 21.2328 23.9487 20.6017C23.9487 19.9709 24.4602 19.4595 25.091 19.4595C25.7218 19.4595 26.2333 19.9709 26.2333 20.6017Z" fill="#EAA27F"/>
<path d="M16.0336 20.6017C16.0336 21.2328 15.5221 21.7443 14.8913 21.7443C14.2605 21.7443 13.749 21.2328 13.749 20.6017C13.749 19.9709 14.2605 19.4595 14.8913 19.4595C15.5221 19.4595 16.0336 19.9709 16.0336 20.6017Z" fill="#EAA27F"/>
<path d="M24.9159 17.4194C24.9159 16.578 24.2341 15.8962 23.3928 15.8962C22.5517 15.8962 21.8696 16.578 21.8696 17.4194" fill="#EAA27F"/>
<path d="M18.1132 17.4194C18.1132 16.578 17.4311 15.8962 16.59 15.8962C15.7487 15.8962 15.0669 16.578 15.0669 17.4194" fill="#EAA27F"/>
<path d="M17.6305 18.0679C17.6305 18.6423 17.1648 19.1083 16.5901 19.1083C16.0155 19.1083 15.5498 18.6423 15.5498 18.0679C15.5498 17.4933 16.0155 17.0276 16.5901 17.0276C17.1648 17.0276 17.6305 17.4933 17.6305 18.0679Z" fill="#2F373B"/>
<path d="M24.4332 18.0679C24.4332 18.6423 23.9675 19.1083 23.3929 19.1083C22.8182 19.1083 22.3525 18.6423 22.3525 18.0679C22.3525 17.4933 22.8182 17.0276 23.3929 17.0276C23.9675 17.0276 24.4332 17.4933 24.4332 18.0679Z" fill="#2F373B"/>
<path d="M21.0316 20.6873H18.9509C18.7031 20.6873 18.502 20.4865 18.502 20.2387C18.502 19.9906 18.7031 19.7898 18.9509 19.7898H21.0316C21.2794 19.7898 21.4805 19.9906 21.4805 20.2387C21.4805 20.4865 21.2794 20.6873 21.0316 20.6873Z" fill="#EAA27F"/>
<path d="M19.9909 23.5266C19.2231 23.5266 18.455 23.3343 17.7549 22.9495C17.5575 22.8408 17.4854 22.5927 17.5941 22.3953C17.7027 22.1978 17.9508 22.1258 18.148 22.2345C19.3021 22.8689 20.68 22.8686 21.8339 22.2345C22.031 22.1258 22.2791 22.1978 22.3878 22.3953C22.4964 22.5927 22.4244 22.8408 22.2266 22.9495C21.5269 23.3343 20.7587 23.5266 19.9909 23.5266Z" fill="#EAA27F"/>
<path d="M17.4181 17.8843C17.4181 18.1306 17.2185 18.3302 16.9722 18.3302C16.726 18.3302 16.5264 18.1306 16.5264 17.8843C16.5264 17.6381 16.726 17.4385 16.9722 17.4385C17.2185 17.4385 17.4181 17.6381 17.4181 17.8843Z" fill="white"/>
<path d="M24.2726 17.8843C24.2726 18.1306 24.073 18.3302 23.8267 18.3302C23.5804 18.3302 23.3809 18.1306 23.3809 17.8843C23.3809 17.6381 23.5804 17.4385 23.8267 17.4385C24.073 17.4385 24.2726 17.6381 24.2726 17.8843Z" fill="white"/>
<path d="M29.452 17.0704C25.5305 17.0704 24.6638 10.2146 24.6638 10.2146C24.6638 12.8257 19.1349 15.1759 16.7277 12.7686C16.7277 12.7686 19.0941 16.5223 13.8719 19.3781C13.8719 19.3781 17.1357 20.8442 15.504 24.7636C13.8719 28.6826 15.1774 33.0863 15.1774 33.0863C15.1774 33.0863 16.58 36.7338 14.4993 39.2362C11.4372 38.3631 8.67505 36.7787 6.40332 34.6717C6.90259 31.4225 11.2037 26.2367 10.1356 18.6228C8.58533 7.56998 12.9744 4.93539 18.6046 4.20114C24.2347 3.46658 25.4588 7.38321 25.4588 7.38321C30.1912 6.24094 31.1705 17.0704 29.452 17.0704Z" fill="#F73B6C"/>
<path d="M12.2401 19.5035C13.7037 29.9375 9.71387 34.1578 11.1842 37.9609C9.43066 37.0984 7.82147 35.987 6.40332 34.6717C6.90259 31.4225 11.2037 26.2366 10.1356 18.6228C8.58533 7.56994 12.9744 4.93536 18.6046 4.20111C20.0056 4.01831 21.1342 4.12359 22.039 4.38543C16.6707 5.43554 10.7924 9.18493 12.2401 19.5035Z" fill="#DD104F"/>
<path d="M31.5032 21.7822C31.5032 22.1695 31.1895 22.4832 30.8022 22.4832C30.4153 22.4832 30.1016 22.1695 30.1016 21.7822C30.1016 21.3953 30.4153 21.0815 30.8022 21.0815C31.1895 21.0815 31.5032 21.3953 31.5032 21.7822Z" fill="#1DA2DD"/>
<path d="M28.157 9.34886L19.96 11.9715L15.0046 13.556L10.0491 15.1414L8.82291 11.3096C7.48868 7.13694 9.78879 2.67283 13.9609 1.3386L16.9604 0.37913C17.2918 0.272929 17.6254 0.189615 17.9593 0.129496C21.8219 -0.578207 25.7028 1.67643 26.9308 5.51707L28.157 9.34886Z" fill="#0C85A5"/>
<path d="M26.5244 4.49213L15.462 8.03033L13.5159 8.65289C12.908 5.14734 14.7327 1.64026 17.9599 0.129334C21.4652 -0.513061 24.9844 1.28381 26.5244 4.49213Z" fill="#1DA2DD"/>
<path d="M29.6797 12.6756L14.7435 17.454C14.7411 17.455 14.7377 17.4556 14.7353 17.4565L10.9956 18.6528C10.1088 18.9366 9.1597 18.4471 8.8765 17.5609L7.69028 13.8524C7.40708 12.9661 7.89567 12.0173 8.7819 11.7332L12.5304 10.5345L16.2782 9.33607L27.4782 5.75391C28.362 5.47712 29.3034 5.96601 29.5851 6.84888L30.7713 10.5568C31.0555 11.4436 30.566 12.3927 29.6797 12.6756Z" fill="#0C85A5"/>
<path d="M29.6792 12.6756L14.743 17.454C14.7405 17.455 14.7372 17.4556 14.7347 17.4565C13.851 17.7339 12.9071 17.2459 12.6238 16.3615L11.4382 12.6536C11.1541 11.7668 11.643 10.8186 12.5299 10.5345L16.2777 9.33607L27.4777 5.75391C28.3614 5.47712 29.3029 5.96601 29.5846 6.84888L30.7708 10.5568C31.0549 11.4436 30.5654 12.3927 29.6792 12.6756Z" fill="#1DA2DD"/>
</svg>
