<svg width="40" height="40" viewBox="0 0 40 40" fill="none" xmlns="http://www.w3.org/2000/svg">
<path d="M40 20C40 31.0455 31.0455 40 20 40C8.95416 40 0 31.0455 0 20C0 8.95416 8.95416 0 20 0C31.0455 0 40 8.95416 40 20Z" fill="#1DA2DD"/>
<path d="M29.8531 35.1234V37.4082C26.9451 39.058 23.5826 40.0001 19.9999 40.0001C17.8881 40.0001 15.8538 39.6726 13.9427 39.0662C12.6122 38.6442 11.3411 38.0857 10.147 37.4082V35.1234C10.147 31.2238 13.1502 28.0247 16.9713 27.7161C17.1721 27.6996 17.3745 27.6914 17.5795 27.6914H22.4196C22.9918 27.6914 23.5485 27.7552 24.0831 27.8776C27.3876 28.6335 29.8531 31.5912 29.8531 35.1234Z" fill="#512375"/>
<path d="M29.8534 35.1229V37.4081C28.0779 38.4152 26.1336 39.1589 24.0724 39.5843C22.918 39.8235 21.7269 39.963 20.5089 39.9932C20.3401 39.9972 20.1702 39.9996 20.0005 39.9996C17.8887 39.9996 15.8544 39.6725 13.9434 39.0658V35.1229C13.9434 34.5965 13.998 34.0823 14.1027 33.5867C14.3148 32.5744 14.7335 31.639 15.3124 30.8242C15.5596 30.4757 15.8373 30.1492 16.14 29.8489L17.9116 31.2325L20.0014 29.5999L22.0909 31.2325L24.1802 29.5999L26.2697 31.2325L27.8234 30.0195C29.0822 31.35 29.8534 33.1466 29.8534 35.1229Z" fill="#673389"/>
<path d="M20.5118 29.3982V39.9933C20.3412 39.9976 20.1716 40 20.0001 40C19.8286 40 19.658 39.9976 19.4883 39.9927V29.3982H20.5118Z" fill="#512375"/>
<path d="M19.9993 30.734L16.6533 32.5934L15.6353 27.8589L17.7144 26.6343" fill="#512375"/>
<path d="M19.999 30.734L23.345 32.5934L24.363 27.8589L22.2839 26.6343" fill="#512375"/>
<path d="M22.6513 24.8281V28.0825C22.6513 29.2739 21.8658 30.281 20.7836 30.6155C20.5361 30.6921 20.2722 30.7339 19.999 30.7339C18.5348 30.7339 17.3477 29.5468 17.3477 28.0825V24.8281H22.6513Z" fill="#EAA27F"/>
<path d="M30.4481 29.9811L28.3592 28.3484L26.2693 29.9811L24.1798 28.3484L22.0906 29.9811L20.001 28.3484L17.9112 29.9811L15.8214 28.3484L13.7306 29.9811L11.6411 28.3484L11.512 28.4488L9.55029 29.9811C10.5259 21.6001 10.5259 13.2196 9.55029 4.83829C10.1396 4.7388 10.7298 4.64816 11.3194 4.56668C17.6964 3.67343 24.0721 3.76498 30.4481 4.83829C29.4737 13.2196 29.4737 21.6001 30.4481 29.9811Z" fill="#F46D11"/>
<path d="M19.5287 18.8668L18.5637 19.0585L16.1 19.5477L14.8046 19.8046L13.7285 16.0342L16.0112 15.7983L17.5997 15.635L18.861 15.5044L19.5287 18.8668Z" fill="#EAA27F"/>
<path d="M26.2706 16.0342L25.1948 19.8046L23.9 19.5477L21.4354 19.0585L20.4707 18.8668L21.1384 15.5044L22.3997 15.635L23.9891 15.7983L26.2706 16.0342Z" fill="#EAA27F"/>
<path d="M19.1066 17.6504C19.1066 18.1909 18.9009 18.6855 18.5637 19.0585L16.1 19.5477L14.8046 19.8046L13.7285 16.0342L16.0112 15.7983L17.5997 15.635C18.4697 15.8914 19.1066 16.6976 19.1066 17.6504Z" fill="#F6BA97"/>
<path d="M18.0458 17.65C18.0458 18.225 17.5798 18.691 17.0048 18.691C16.4299 18.691 15.9639 18.225 15.9639 17.65C15.9639 17.0751 16.4299 16.6094 17.0048 16.6094C17.5798 16.6094 18.0458 17.0751 18.0458 17.65Z" fill="#2F373B"/>
<path d="M25.0969 17.6504C25.0969 18.4857 24.6071 19.2089 23.9 19.5477L21.4354 19.0585L20.4707 18.8668L21.1384 15.5044L22.3997 15.635L23.9891 15.7983C24.6476 16.1532 25.0969 16.8505 25.0969 17.6504Z" fill="#F6BA97"/>
<path d="M24.0352 17.65C24.0352 18.225 23.5692 18.691 22.9943 18.691C22.4193 18.691 21.9536 18.225 21.9536 17.65C21.9536 17.0751 22.4193 16.6094 22.9943 16.6094C23.5692 16.6094 24.0352 17.0751 24.0352 17.65Z" fill="#2F373B"/>
<path d="M17.8331 17.4664C17.8331 17.7126 17.6335 17.9125 17.3873 17.9125C17.141 17.9125 16.9414 17.7126 16.9414 17.4664C16.9414 17.2201 17.141 17.0205 17.3873 17.0205C17.6335 17.0205 17.8331 17.2201 17.8331 17.4664Z" fill="white"/>
<path d="M23.8745 17.4664C23.8745 17.7126 23.6749 17.9125 23.4286 17.9125C23.182 17.9125 22.9824 17.7126 22.9824 17.4664C22.9824 17.2201 23.182 17.0205 23.4286 17.0205C23.6749 17.0205 23.8745 17.2201 23.8745 17.4664Z" fill="white"/>
<path d="M11.512 28.4488L9.55029 29.9811C10.5259 21.6 10.5259 13.2196 9.55029 4.83826C10.1396 4.73877 10.7298 4.64813 11.3194 4.56665C12.1193 9.07593 12.9976 20.3397 11.512 28.4488Z" fill="#D65A05"/>
</svg>
