<svg width="40" height="40" viewBox="0 0 40 40" fill="none" xmlns="http://www.w3.org/2000/svg">
<path d="M20 40C31.0457 40 40 31.0457 40 20C40 8.9543 31.0457 0 20 0C8.9543 0 0 8.9543 0 20C0 31.0457 8.9543 40 20 40Z" fill="#EE6781"/>
<path d="M34.7454 12.5524L31.4087 17.3188C30.6775 18.3633 29.6243 19.1391 28.4103 19.5281L26.5267 20.1313C26.5837 20.6172 26.5704 21.1344 26.4743 21.6594L26.4158 21.9789L25.9962 24.2703L25.4306 27.3586L25.2025 28.6024L24.5204 32.3289L23.8954 35.7406C23.6236 37.2258 22.379 38.2922 20.9915 38.2922H19.0087C17.6212 38.2922 16.3767 37.2258 16.1048 35.7406L15.4798 32.3289L14.797 28.6024L14.004 24.2703L13.5259 21.6594C13.4298 21.1344 13.4165 20.6172 13.4736 20.1313L11.59 19.5281C10.3759 19.1391 9.32278 18.3633 8.59153 17.3188L5.25481 12.5524C4.85169 11.9766 4.85638 11.2094 5.26575 10.6383C5.72278 10.0016 6.56341 9.77189 7.28059 10.0899L12.1048 12.225C12.4126 12.361 12.665 12.5813 12.8415 12.8516C13.0173 13.1219 13.1165 13.4422 13.1165 13.7789C13.1165 14.9453 13.6017 16.0586 14.4556 16.8531L15.0845 17.4375C15.372 17.2938 15.6884 17.2141 16.0275 17.2141H23.9728C24.3118 17.2141 24.6283 17.2938 24.9158 17.4375L25.5447 16.8531C25.972 16.4563 26.3064 15.9789 26.5345 15.4555C26.7626 14.932 26.8837 14.3625 26.8837 13.7789C26.8837 13.1063 27.2806 12.4969 27.8954 12.225L32.7197 10.0899C33.4368 9.77189 34.2775 10.0016 34.7345 10.6383C35.1439 11.2094 35.1486 11.9766 34.7454 12.5524Z" fill="#A26D5A"/>
<path d="M26.4742 21.6594L26.4156 21.979L25.4305 27.3586L24.5203 32.329L23.8953 35.7407C23.8875 35.7821 23.8797 35.8227 23.8703 35.8633C23.868 35.8758 23.8649 35.8891 23.8617 35.9016C23.8563 35.9251 23.85 35.9493 23.843 35.9727C23.8391 35.9899 23.8344 36.0071 23.8297 36.0235C23.8219 36.054 23.8133 36.0844 23.8031 36.1149C23.793 36.1477 23.7828 36.1805 23.7711 36.2125C23.768 36.2243 23.7641 36.2352 23.7594 36.2461C23.7492 36.2758 23.7383 36.3055 23.7266 36.3352C23.7242 36.3438 23.7203 36.3524 23.7164 36.361C23.7039 36.3938 23.6906 36.4258 23.6758 36.4579C23.6742 36.4633 23.6719 36.4688 23.6688 36.4735C23.6555 36.5055 23.6414 36.5368 23.6258 36.5672C23.6219 36.5774 23.6172 36.5868 23.6125 36.5954C23.6 36.6211 23.5875 36.6461 23.5734 36.6711C23.5578 36.7024 23.5414 36.7329 23.5234 36.7626C23.5227 36.7641 23.5227 36.7657 23.5219 36.7665C23.5039 36.7977 23.4859 36.8282 23.4672 36.8579C23.4164 36.9407 23.3617 37.0204 23.3039 37.0977C23.2516 37.168 23.1969 37.2352 23.1383 37.3001C23.1094 37.3321 23.0797 37.3641 23.0492 37.3954C22.9899 37.4579 22.9274 37.518 22.8617 37.5735C22.7648 37.6594 22.6625 37.7376 22.5563 37.8079C22.5203 37.8313 22.4844 37.8547 22.4484 37.8766C22.3758 37.9219 22.3008 37.9626 22.225 38.0001C22.1859 38.0188 22.1461 38.0375 22.1055 38.0555C22.068 38.0719 22.0305 38.0876 21.9922 38.1024C21.9563 38.1165 21.9195 38.1297 21.8828 38.1422C21.8719 38.1461 21.8609 38.1501 21.8492 38.154C21.825 38.1618 21.8008 38.1696 21.7766 38.1766C21.7594 38.1821 21.7422 38.1868 21.725 38.1915C21.6953 38.2001 21.6656 38.2079 21.6359 38.2149C21.6313 38.2157 21.6266 38.2172 21.6219 38.218C21.5906 38.2258 21.5586 38.2329 21.5266 38.2383C21.5133 38.2422 21.4992 38.2446 21.4859 38.2469C21.4648 38.2508 21.4438 38.2547 21.4219 38.2571C21.3984 38.2618 21.3742 38.2649 21.3508 38.268C21.3164 38.2727 21.2813 38.2766 21.2469 38.2797C21.2047 38.2844 21.1633 38.2868 21.1211 38.2891C21.0781 38.2915 21.0344 38.2922 20.9914 38.2922H20V17.2141H23.9727C25.7414 17.2141 26.8945 19.3625 26.4742 21.6594Z" fill="#C17E62"/>
<path d="M24.5206 32.3289L23.8956 35.7406C23.6237 37.2258 22.3792 38.2922 20.9917 38.2922H19.0089C17.6214 38.2922 16.3769 37.2258 16.105 35.7406L15.48 32.3289C17.6745 29.3525 22.313 29.3397 24.5206 32.3289Z" fill="#2E3140"/>
<path d="M24.5203 32.3288L23.8953 35.7405C23.8875 35.7819 23.8797 35.8226 23.8703 35.8632C23.7913 36.2133 23.6563 36.5527 23.4672 36.8577C23.0342 37.5661 22.3064 38.0972 21.4859 38.2468C21.1505 38.3245 20.3489 38.2813 20 38.2921V30.0796C21.8443 30.0848 23.4627 30.9419 24.5203 32.3288Z" fill="#3E4E60"/>
<path d="M25.9959 24.2703L25.4303 27.3585L25.2021 28.6023H24.6498C23.4529 28.6023 22.4834 27.6328 22.4834 26.4367C22.4834 25.8382 22.7256 25.2968 23.1178 24.9046C23.51 24.5125 24.0514 24.2703 24.6498 24.2703H25.9959Z" fill="white"/>
<path d="M17.5164 26.4367C17.5164 27.0343 17.2742 27.5765 16.882 27.9679C16.4898 28.3601 15.9484 28.6023 15.35 28.6023H14.7969L14.0039 24.2703H15.35C16.5469 24.2703 17.5164 25.2398 17.5164 26.4367Z" fill="#C2AACF"/>
<path d="M24.002 18.2884L25.5454 16.8529C26.3992 16.0588 26.8842 14.9452 26.8842 13.7792C26.8842 13.1066 27.2809 12.4972 27.896 12.2249L32.7205 10.0895C33.4373 9.77219 34.2786 10.0014 34.7354 10.6386C35.1447 11.2095 35.1491 11.9766 34.7462 12.5521L31.4095 17.3188C30.6784 18.3632 29.6252 19.1392 28.411 19.5281L26.3206 20.1975L24.002 18.2884Z" fill="#C17E62"/>
<path d="M33.4019 11.0415H33.3893C33.3112 11.0415 33.2354 11.0579 33.1628 11.0899L31.1729 11.9704L28.3386 13.2251C28.1276 13.3188 27.9878 13.5243 27.9784 13.7532C27.9464 14.4946 27.7933 15.2204 27.5112 15.8868C27.23 16.5532 26.8198 17.161 26.2769 17.6665C26.1198 17.8118 26.0425 18.0087 26.0425 18.2048C26.0425 18.4157 26.1323 18.6259 26.3104 18.772C26.4628 18.8978 26.669 18.9376 26.8573 18.8774L28.0636 18.4907C28.9511 18.2063 29.7331 17.6704 30.3167 16.9509V16.9501C30.3886 16.8626 30.4565 16.7728 30.5214 16.6798L33.8503 11.9251C34.1104 11.5696 33.8386 11.0415 33.4019 11.0415Z" fill="white"/>
<path d="M29.7327 16.8214C29.9991 16.8804 30.097 17.2146 29.8993 17.4026C29.3804 17.8962 28.7539 18.2696 28.0636 18.4907L26.8573 18.8775C26.669 18.9376 26.4628 18.8978 26.3105 18.772C26.1323 18.6259 26.0425 18.4157 26.0425 18.2048C26.0425 18.0087 26.1198 17.8118 26.2769 17.6665C26.8198 17.1611 27.23 16.5532 27.5112 15.8868C27.7933 15.2204 27.9464 14.4946 27.9784 13.7532C27.9878 13.5243 28.1276 13.3189 28.3386 13.2251L29.978 12.4994C30.2698 12.3703 30.5353 12.7247 30.3293 12.9684L29.3779 14.0937C29.243 14.2533 29.3564 14.4978 29.5654 14.4978H30.2856C30.573 14.4978 30.6965 14.8624 30.4683 15.0371L29.0931 16.2825C28.9454 16.4164 29.0101 16.6611 29.2048 16.7043L29.7327 16.8214Z" fill="#C2AACF"/>
<path d="M28.6546 12.4757C28.7731 12.758 29.1002 12.8881 29.3801 12.7641L31.8101 11.6886C32.1053 11.558 32.2236 11.2015 32.0653 10.9202C31.9271 10.6748 31.625 10.5745 31.3675 10.6885L28.9375 11.7641C28.665 11.8846 28.5393 12.201 28.6546 12.4757Z" fill="#D48D77"/>
<path d="M6.15043 11.9251L9.47933 16.6798C9.54417 16.7728 9.61214 16.8626 9.68402 16.9501V16.9509C10.2676 17.6704 11.0496 18.2063 11.9371 18.4907L13.1434 18.8774C13.3317 18.9376 13.5379 18.8978 13.6903 18.772C13.8684 18.6259 13.9582 18.4157 13.9582 18.2048C13.9582 18.0087 13.8809 17.8118 13.7239 17.6665C13.1809 17.161 12.7707 16.5532 12.4895 15.8868C12.2075 15.2204 12.0543 14.4946 12.0223 13.7532C12.0129 13.5243 11.8731 13.3188 11.6621 13.2251L8.82777 11.9704L6.83793 11.0899C6.76527 11.0579 6.68949 11.0415 6.61136 11.0415H6.59886C6.16215 11.0415 5.89027 11.5696 6.15043 11.9251Z" fill="#C2AACF"/>
<path d="M10.2677 16.8214C10.0013 16.8804 9.90338 17.2146 10.1011 17.4026C10.62 17.8962 11.2465 18.2696 11.9368 18.4907L13.1431 18.8775C13.3313 18.9376 13.5376 18.8978 13.6899 18.772C13.8681 18.6259 13.9579 18.4157 13.9579 18.2048C13.9579 18.0087 13.8806 17.8118 13.7235 17.6665C13.1806 17.1611 12.7704 16.5532 12.4892 15.8868C12.2071 15.2204 12.054 14.4946 12.022 13.7532C12.0126 13.5243 11.8727 13.3189 11.6618 13.2251L10.0224 12.4994C9.73056 12.3703 9.4651 12.7247 9.67111 12.9684L10.6225 14.0937C10.7574 14.2533 10.644 14.4978 10.435 14.4978H9.71478C9.42736 14.4978 9.30385 14.8624 9.53205 15.0371L10.9073 16.2825C11.055 16.4164 10.9903 16.6611 10.7956 16.7043L10.2677 16.8214Z" fill="white"/>
<path d="M11.3464 12.4757C11.2279 12.758 10.9008 12.8881 10.6209 12.7641L8.1909 11.6886C7.89575 11.558 7.77739 11.2015 7.93575 10.9202C8.07395 10.6748 8.37598 10.5745 8.63356 10.6885L11.0636 11.7641C11.336 11.8846 11.4618 12.201 11.3464 12.4757Z" fill="#C17E62"/>
<path d="M23.8048 36.1152C23.4109 37.4008 22.264 38.2924 20.9933 38.2924H20.0015V32.623H21.3573C21.312 34.4023 22.3715 35.7987 23.8048 36.1152Z" fill="white"/>
<path d="M16.1978 36.1152C16.5917 37.4008 17.7386 38.2924 19.0093 38.2924H20.0011V32.623H18.6453C18.6906 34.4023 17.6311 35.7987 16.1978 36.1152Z" fill="#C2AACF"/>
<path d="M21.9963 32.4194L21.9267 34.2866C21.9094 34.7521 21.5501 35.1232 21.1237 35.1232H18.8778C18.4515 35.1232 18.0922 34.7521 18.0748 34.2866L18.0052 32.4194C17.9579 31.1524 18.8501 30.0798 20.0008 30.0798C21.1514 30.0798 22.0436 31.1524 21.9963 32.4194Z" fill="#3E4E60"/>
<path d="M21.996 32.4194L21.9264 34.2866C21.9091 34.7521 21.5498 35.1232 21.1235 35.1232H20.0005V30.0798C21.1511 30.0798 22.0433 31.1524 21.996 32.4194Z" fill="#3F5D77"/>
<path d="M23.7943 36.7674C23.7125 36.5677 23.4845 36.4721 23.2848 36.5539C23.0061 36.668 22.6258 36.8017 22.5257 36.8113C22.219 36.838 21.6735 36.748 21.1921 36.6687C20.9084 36.6219 20.6348 36.5768 20.391 36.5499V35.8965C20.391 35.6808 20.216 35.5059 20.0003 35.5059C19.7846 35.5059 19.6097 35.6808 19.6097 35.8965V36.5499C19.3659 36.5768 19.0923 36.6218 18.8085 36.6687C18.3272 36.748 17.7817 36.8381 17.4751 36.8113C17.3847 36.8027 17.0299 36.6824 16.7159 36.5539C16.5165 36.4723 16.2882 36.5679 16.2064 36.7675C16.1248 36.9672 16.2203 37.1952 16.4199 37.277C16.5849 37.3445 17.1438 37.5666 17.4071 37.5896C17.8121 37.6248 18.3831 37.5306 18.9356 37.4395C19.3333 37.3739 19.7445 37.306 20.0003 37.306C20.256 37.306 20.6673 37.3738 21.0649 37.4395C21.5361 37.5172 22.021 37.5972 22.4045 37.5972C22.4707 37.5972 22.5339 37.5948 22.5934 37.5896C22.8567 37.5667 23.4156 37.3445 23.5807 37.277C23.7804 37.1952 23.876 36.967 23.7943 36.7674Z" fill="#151516"/>
<path d="M20.0003 35.0624V35.8964C19.9857 35.9157 19.9703 35.934 19.9538 35.9513C19.7107 36.2065 19.3167 36.2065 19.0692 35.9513L18.865 35.7412L18.3777 35.2402C18.1203 34.9749 18.1042 34.5394 18.3465 34.2672C18.4688 34.1298 18.6328 34.0608 18.7992 34.0608C18.9656 34.0608 19.1327 34.1298 19.2614 34.2672L19.9528 35.0056C19.9697 35.0241 19.9855 35.043 20.0003 35.0624Z" fill="#151516"/>
<path d="M21.6231 35.2402L20.9317 35.9513C20.6841 36.2065 20.2901 36.2065 20.0471 35.9513C20.0306 35.934 20.0151 35.9157 20.0005 35.8964V35.0624C20.0153 35.043 20.0311 35.0241 20.0479 35.0056L20.7394 34.2672C20.8681 34.1298 21.0352 34.0608 21.2017 34.0608C21.3681 34.0608 21.532 34.1298 21.6543 34.2672C21.8966 34.5393 21.8805 34.9749 21.6231 35.2402Z" fill="#2E3140"/>
<path d="M26.9942 24.6879C27.6628 25.074 27.8955 25.9243 27.5189 26.596C27.5166 26.6022 27.5134 26.6078 27.5101 26.6135L27.0198 27.4628C26.8254 27.7996 26.5125 28.0264 26.1639 28.1199C25.8148 28.2142 25.4313 28.1746 25.0937 27.9797C24.4663 27.6175 24.2222 26.8458 24.5049 26.1977C24.5258 26.1483 24.5502 26.0997 24.5773 26.0527L25.0676 25.2034C25.2625 24.8657 25.5758 24.6403 25.9244 24.5469C26.2731 24.4534 26.6565 24.4929 26.9942 24.6879Z" fill="#3E4E60"/>
<path d="M26.9947 24.6877C27.6633 25.0738 27.896 25.9241 27.5194 26.5958C26.7656 26.9957 25.7844 26.9923 24.939 26.5042C24.7819 26.4135 24.6368 26.3109 24.5054 26.1974C24.5263 26.148 24.5507 26.0994 24.5778 26.0524L25.0681 25.2031C25.263 24.8654 25.5763 24.64 25.9249 24.5466C26.2736 24.4532 26.657 24.4927 26.9947 24.6877Z" fill="#2E3140"/>
<path d="M25.7698 25.2601L25.4748 25.7712C25.3478 25.9912 25.4232 26.2726 25.6432 26.3996C25.8632 26.5266 26.1446 26.4512 26.2716 26.2312L26.5666 25.7202C26.6936 25.5002 26.6182 25.2188 26.3982 25.0918C26.1782 24.9647 25.8968 25.0401 25.7698 25.2601Z" fill="white"/>
<path d="M13.0071 24.6879C12.3384 25.074 12.1057 25.9243 12.4823 26.596C12.4846 26.6022 12.4878 26.6078 12.4911 26.6135L12.9814 27.4628C13.1758 27.7996 13.4887 28.0264 13.8373 28.1199C14.1864 28.2142 14.5699 28.1746 14.9075 27.9797C15.5349 27.6175 15.779 26.8458 15.4964 26.1977C15.4754 26.1483 15.451 26.0997 15.4239 26.0527L14.9336 25.2034C14.7387 24.8657 14.4254 24.6403 14.0768 24.5469C13.7282 24.4534 13.3447 24.4929 13.0071 24.6879Z" fill="#3E4E60"/>
<path d="M13.0071 24.6877C12.3384 25.0738 12.1057 25.9241 12.4823 26.5958C13.2361 26.9957 14.2173 26.9923 15.0628 26.5042C15.2198 26.4135 15.3649 26.3109 15.4964 26.1974C15.4754 26.148 15.451 26.0994 15.4239 26.0524L14.9336 25.2031C14.7387 24.8654 14.4254 24.64 14.0768 24.5466C13.7282 24.4532 13.3447 24.4927 13.0071 24.6877Z" fill="#2E3140"/>
<path d="M14.2316 25.2601L14.5266 25.7712C14.6536 25.9912 14.5782 26.2726 14.3582 26.3996C14.1382 26.5266 13.8568 26.4512 13.7298 26.2312L13.4348 25.7202C13.3077 25.5002 13.3831 25.2188 13.6031 25.0918C13.8232 24.9647 14.1045 25.0401 14.2316 25.2601Z" fill="white"/>
<path d="M20.0015 25.1795C22.4787 25.1795 24.7457 23.1713 24.7457 20.694C24.7457 19.2893 23.607 18.1506 22.2023 18.1506H20.0015V25.1795Z" fill="#D48D77"/>
<path d="M20.0011 25.1795C17.5238 25.1795 15.2568 23.1713 15.2568 20.694C15.2568 19.2893 16.3955 18.1506 17.8002 18.1506H20.0011V25.1795Z" fill="#C17E62"/>
<path d="M31.582 5.39373C31.582 5.57966 31.511 5.76638 31.3688 5.90857L23.707 13.5695C23.1609 14.1164 22.8539 14.857 22.8539 15.6297V18.9054C22.8539 19.3054 22.5297 19.6289 22.1305 19.6289C21.7305 19.6297 21.4058 19.3042 21.4063 18.9054V8.18045C21.4063 7.85935 21.625 7.58982 21.9211 7.5117C22.3508 7.39349 22.7956 7.73263 22.7891 8.18045V10.839C22.7891 11.1664 23.1844 11.3304 23.4164 11.0992L25.943 8.57263C26.6078 7.90701 26.9813 7.00545 26.9813 6.06482V3.60623C26.9767 2.98646 27.7484 2.67904 28.1711 3.11326C28.2977 3.23904 28.3758 3.41404 28.3758 3.60623V6.10935C28.3758 6.37888 28.7024 6.51404 28.893 6.32341L30.3383 4.8781C30.4383 4.7781 30.561 4.71248 30.6899 4.68357C31.1199 4.56693 31.5997 4.94209 31.582 5.39373Z" fill="#3E4E60"/>
<path d="M29.208 6.0083L30.3383 4.87799C30.4313 4.78494 30.5441 4.72158 30.6631 4.69002C30.6793 4.68572 30.6972 4.69158 30.7078 4.70455C30.8177 4.83838 30.8727 5.00228 30.8727 5.16549C30.8727 5.35143 30.8016 5.53814 30.6594 5.68033L22.9977 13.3421C22.4516 13.8881 22.1445 14.6296 22.1445 15.4022V18.6772C22.1445 19.0104 21.9197 19.2913 21.6131 19.3757C21.5967 19.3803 21.5786 19.3745 21.5679 19.3613C21.467 19.2368 21.4062 19.0781 21.4062 18.9053V8.18033C21.4062 7.86971 21.611 7.60729 21.8925 7.51978C21.9095 7.51447 21.9287 7.52057 21.9395 7.53478C22.0277 7.65064 22.0797 7.79494 22.0797 7.95221V10.6116C22.0797 10.6337 22.0818 10.6549 22.0852 10.6753C22.082 10.7013 22.0797 10.7275 22.0797 10.7544V11.3151C22.0797 11.3193 22.0798 11.3235 22.0798 11.3277C22.0882 11.7785 22.6509 11.9797 22.9468 11.6393L23.4155 11.1002C23.4161 11.0995 23.4171 11.0984 23.4177 11.0978L25.943 8.57244C26.6079 7.90682 26.9813 7.00525 26.9813 6.06463V3.60611C26.9813 3.29142 27.1894 3.0265 27.4757 2.93908C27.4926 2.93392 27.5116 2.93994 27.5224 2.954C27.6129 3.0715 27.6665 3.2183 27.6665 3.37877V5.88111C27.6665 5.88291 27.6669 5.88463 27.6669 5.88643C27.6669 5.88908 27.6665 5.89166 27.6665 5.89439C27.6665 5.9158 27.6673 5.93705 27.6691 5.95799C27.7124 6.4926 28.3667 6.73479 28.7727 6.38424L29.208 6.0083Z" fill="#3F5D77"/>
<path d="M8.41844 5.39373C8.41844 5.57966 8.48954 5.76638 8.63172 5.90857L16.2934 13.5695C16.8395 14.1164 17.1466 14.857 17.1466 15.6297V18.9054C17.1466 19.3054 17.4708 19.6289 17.87 19.6289C18.2699 19.6297 18.5947 19.3042 18.5942 18.9054V8.18045C18.5942 7.85935 18.3755 7.58982 18.0794 7.5117C17.6497 7.39349 17.2049 7.73263 17.2114 8.18045V10.839C17.2114 11.1664 16.8161 11.3304 16.5841 11.0992L14.0575 8.57263C13.3927 7.90701 13.0192 7.00545 13.0192 6.06482V3.60623C13.0238 2.98646 12.2521 2.67904 11.8294 3.11326C11.7028 3.23904 11.6247 3.41404 11.6247 3.60623V6.10935C11.6247 6.37888 11.2981 6.51404 11.1075 6.32341L9.66219 4.8781C9.56219 4.7781 9.43954 4.71248 9.31063 4.68357C8.88063 4.56693 8.40079 4.94209 8.41844 5.39373Z" fill="#2E3140"/>
<path d="M10.7926 6.0083L9.6623 4.87799C9.56926 4.78494 9.45652 4.72158 9.33746 4.69002C9.32129 4.68572 9.3034 4.69158 9.29277 4.70455C9.18285 4.83838 9.12793 5.00228 9.12793 5.16549C9.12793 5.35143 9.19902 5.53814 9.34121 5.68033L17.0029 13.3421C17.549 13.8881 17.8561 14.6296 17.8561 15.4022V18.6772C17.8561 19.0104 18.0809 19.2913 18.3875 19.3757C18.4039 19.3803 18.422 19.3745 18.4327 19.3613C18.5336 19.2368 18.5943 19.0781 18.5943 18.9053V8.18033C18.5943 7.86971 18.3896 7.60729 18.1081 7.51978C18.0911 7.51447 18.0718 7.52057 18.0611 7.53478C17.9729 7.65064 17.9209 7.79494 17.9209 7.95221V10.6116C17.916 10.6609 17.9179 10.7052 17.9209 10.7544V11.3151C17.9209 11.3193 17.9208 11.3235 17.9207 11.3277C17.9124 11.7785 17.3496 11.9797 17.0538 11.6393C17.0515 11.6369 16.5851 11.0999 16.5829 11.0978L14.0575 8.57244C13.3927 7.90682 13.0193 7.00525 13.0193 6.06463V3.60611C13.0193 3.29142 12.8112 3.0265 12.5249 2.93908C12.508 2.93392 12.4889 2.93994 12.4782 2.954C12.3877 3.0715 12.3341 3.2183 12.3341 3.37877V5.88111C12.334 5.90682 12.3339 5.93268 12.3315 5.95799C12.2882 6.4926 11.6339 6.73479 11.2279 6.38424L10.7926 6.0083Z" fill="#3E4E60"/>
</svg>
