<svg width="40" height="40" viewBox="0 0 40 40" fill="none" xmlns="http://www.w3.org/2000/svg">
<path d="M20 40C31.0457 40 40 31.0457 40 20C40 8.9543 31.0457 0 20 0C8.9543 0 0 8.9543 0 20C0 31.0457 8.9543 40 20 40Z" fill="#EA792E"/>
<path d="M23.4474 36.3546H16.5536C15.0435 36.3546 13.8513 35.071 13.9622 33.5655L14.538 25.7593H25.463L26.0388 33.5655C26.1498 35.071 24.9576 36.3546 23.4474 36.3546Z" fill="#2E3140"/>
<path d="M23.4474 36.3546H20.0005V25.7593H25.463L26.0388 33.5655C26.1497 35.071 24.9575 36.3546 23.4474 36.3546Z" fill="#334353"/>
<path d="M30.9225 15.3912V21.299C30.9225 23.7623 28.9256 25.7591 26.4631 25.7591H13.5365C11.074 25.7591 9.07715 23.7623 9.07715 21.299V15.3912C9.07715 13.749 9.96465 12.3146 11.2857 11.5404C13.3521 10.3294 15.2014 8.78101 16.667 6.88804L16.8279 6.68023C17.6311 5.64351 18.8154 5.12476 19.9998 5.12476C21.1842 5.12476 22.3686 5.64351 23.1717 6.68023L23.3326 6.88804C24.7982 8.78101 26.6475 10.3294 28.7139 11.5404C30.035 12.3146 30.9225 13.749 30.9225 15.3912Z" fill="#334353"/>
<path d="M30.9227 15.3912V21.299C30.9227 23.7623 28.9258 25.7591 26.4633 25.7591H20V5.12476C21.1844 5.12476 22.3688 5.64351 23.1719 6.68023L23.3328 6.88804C24.7984 8.78101 26.6477 10.3294 28.7141 11.5404C30.0352 12.3146 30.9227 13.749 30.9227 15.3912Z" fill="#3E4E60"/>
<path d="M29.6191 20.2985C28.6643 21.2533 27.1134 21.2533 26.1585 20.2985C25.2024 19.3424 25.2037 17.7927 26.1585 16.8378C26.4174 16.5789 26.7196 16.3899 27.0423 16.2719C27.9105 15.9528 28.9219 16.1406 29.6191 16.8378C30.3151 17.5338 30.5041 18.5464 30.1851 19.4146C30.0671 19.7374 29.878 20.0395 29.6191 20.2985Z" fill="#334353"/>
<path d="M30.1797 19.4155C30.7349 18.8603 30.4815 17.7068 29.6138 16.8391C28.7462 15.9714 27.5927 15.7181 27.0375 16.2733C26.4823 16.8285 26.7356 17.982 27.6033 18.8496C28.471 19.7173 29.6245 19.9707 30.1797 19.4155Z" fill="#3F5D77"/>
<path d="M29.5976 18.5682C29.5976 19.3038 29.1311 19.9322 28.4783 20.173C28.2939 20.2388 28.0963 20.2764 27.8894 20.2764C26.945 20.2764 26.1812 19.5107 26.1812 18.5681C26.1812 17.6237 26.945 16.8599 27.8894 16.8599C28.0964 16.8599 28.294 16.8975 28.4783 16.9633C29.1311 17.2042 29.5976 17.8307 29.5976 18.5682Z" fill="#DD5E26"/>
<path d="M29.0114 18.5681C29.0114 19.0514 28.7048 19.4642 28.2759 19.6224C28.1547 19.6657 28.025 19.6904 27.889 19.6904C27.2685 19.6904 26.7666 19.1873 26.7666 18.568C26.7666 17.9474 27.2685 17.4456 27.889 17.4456C28.025 17.4456 28.1548 17.4702 28.2759 17.5135C28.7048 17.6719 29.0114 18.0835 29.0114 18.5681Z" fill="#2E3140"/>
<path d="M29.0116 18.0296C29.0116 18.2811 28.8522 18.4959 28.629 18.5782C28.5659 18.6007 28.4984 18.6136 28.4277 18.6136C28.1048 18.6136 27.8438 18.3519 27.8438 18.0297C27.8438 17.7069 28.1048 17.4458 28.4277 17.4458C28.4984 17.4458 28.5659 17.4587 28.629 17.4812C28.8521 17.5634 29.0116 17.7775 29.0116 18.0296Z" fill="white"/>
<path d="M10.3813 20.2985C11.3361 21.2533 12.887 21.2533 13.8419 20.2985C14.798 19.3424 14.7967 17.7927 13.8419 16.8378C13.583 16.5789 13.2808 16.3899 12.9581 16.2719C12.0899 15.9528 11.0785 16.1406 10.3813 16.8378C9.68534 17.5338 9.49627 18.5464 9.81534 19.4146C9.93331 19.7374 10.1224 20.0396 10.3813 20.2985Z" fill="#2E3140"/>
<path d="M12.3887 18.8479C13.2564 17.9802 13.5098 16.8267 12.9546 16.2715C12.3994 15.7164 11.2459 15.9697 10.3782 16.8374C9.51053 17.705 9.2572 18.8585 9.8124 19.4137C10.3676 19.9689 11.5211 19.7156 12.3887 18.8479Z" fill="#3E4E60"/>
<path d="M13.8203 18.5682C13.8203 19.3038 13.3537 19.9322 12.7009 20.173C12.5165 20.2388 12.319 20.2764 12.1121 20.2764C11.1676 20.2764 10.4038 19.5107 10.4038 18.5681C10.4038 17.6237 11.1676 16.8599 12.1121 16.8599C12.319 16.8599 12.5166 16.8975 12.7009 16.9633C13.3537 17.2042 13.8203 17.8307 13.8203 18.5682Z" fill="#DD5E26"/>
<path d="M13.234 18.568C13.234 19.0514 12.9275 19.4642 12.4986 19.6224C12.3774 19.6657 12.2476 19.6904 12.1117 19.6904C11.4911 19.6904 10.9893 19.1873 10.9893 18.568C10.9893 17.9474 11.4911 17.4456 12.1117 17.4456C12.2476 17.4456 12.3775 17.4702 12.4986 17.5135C12.9275 17.6719 13.234 18.0835 13.234 18.568Z" fill="#2E3140"/>
<path d="M13.2343 18.0296C13.2343 18.2811 13.0748 18.4959 12.8516 18.5782C12.7886 18.6007 12.7211 18.6136 12.6503 18.6136C12.3275 18.6136 12.0664 18.3519 12.0664 18.0297C12.0664 17.7069 12.3275 17.4458 12.6503 17.4458C12.721 17.4458 12.7886 17.4587 12.8516 17.4812C13.0748 17.5634 13.2343 17.7775 13.2343 18.0296Z" fill="white"/>
<path d="M27.827 10.4365L24.4707 11.5705C22.7853 12.1399 21.8807 13.9677 22.4501 15.6531L22.5321 15.8957C23.1015 17.581 24.9293 18.4856 26.6147 17.9162L29.971 16.7822C31.6564 16.2128 32.561 14.385 31.9916 12.6996L31.9096 12.457C31.3402 10.7717 29.5123 9.86702 27.827 10.4365Z" fill="#3F5D77"/>
<path d="M12.1733 10.4365L15.5296 11.5705C17.215 12.1399 18.1196 13.9677 17.5502 15.6531L17.4682 15.8957C16.8988 17.581 15.071 18.4856 13.3856 17.9162L10.0292 16.7822C8.34394 16.2128 7.43933 14.385 8.0087 12.6996L8.09066 12.457C8.66011 10.7717 10.488 9.86702 12.1733 10.4365Z" fill="#3E4E60"/>
<path d="M30.9225 21.2739C30.9225 21.3981 30.8865 21.5168 30.8232 21.6176C30.7592 21.7184 30.667 21.8012 30.5553 21.8536L29.7607 22.2293C29.049 22.5661 28.4936 23.1645 28.2123 23.9004L27.8342 24.8879C27.4373 25.9247 26.6959 26.7926 25.735 27.3473L20.6381 30.2887C20.4357 30.3817 20.2178 30.4278 19.9998 30.4278C19.7818 30.4278 19.5639 30.3817 19.3615 30.2887L14.2646 27.3473C13.3037 26.7926 12.5623 25.9247 12.1654 24.8879L11.7873 23.9004C11.5061 23.1645 10.9506 22.5661 10.2389 22.2293L9.44434 21.8536C9.22012 21.7481 9.07715 21.5223 9.07715 21.2739C9.07715 20.9137 9.37012 20.6325 9.71699 20.6325C9.75215 20.6325 9.7873 20.6348 9.82324 20.6411L13.8107 21.3012C14.4287 21.4036 15.0178 21.6348 15.5404 21.9793L15.8482 22.1817C15.8928 22.2106 15.9373 22.2395 15.9826 22.2668C15.935 22.0754 15.91 21.8747 15.91 21.6692V20.8254C15.91 19.4559 17.0201 18.345 18.3904 18.345H21.6092C22.9795 18.345 24.0896 19.4559 24.0896 20.8254V21.6692C24.0896 21.8747 24.0646 22.0754 24.017 22.2668C24.0623 22.2395 24.1068 22.2106 24.1514 22.1817L24.4592 21.9793C24.9818 21.6348 25.5709 21.4036 26.1889 21.3012L30.1764 20.6411C30.567 20.5762 30.9225 20.8778 30.9225 21.2739Z" fill="#3E4E60"/>
<path d="M30.9227 21.2739C30.9227 21.3981 30.8867 21.5168 30.8234 21.6176C30.7594 21.7184 30.6672 21.8012 30.5555 21.8536L29.7609 22.2293C29.0492 22.5661 28.4938 23.1645 28.2125 23.9004L27.8344 24.8879C27.4375 25.9247 26.6961 26.7926 25.7352 27.3473L20.6383 30.2887C20.4359 30.3817 20.218 30.4278 20 30.4278V18.345H21.6094C22.9797 18.345 24.0898 19.4559 24.0898 20.8254V21.6692C24.0898 21.8747 24.0648 22.0754 24.0172 22.2668C24.0625 22.2395 24.107 22.2106 24.1516 22.1817L24.4594 21.9793C24.982 21.6348 25.5711 21.4036 26.1891 21.3012L30.1766 20.6411C30.5672 20.5762 30.9227 20.8778 30.9227 21.2739Z" fill="#3F5D77"/>
<path d="M21.86 24.6435L22.2452 23.989C22.4328 23.6701 22.8649 23.6015 23.142 23.8467L23.679 24.3218C23.9174 24.5326 23.9449 24.8949 23.741 25.1393L23.5913 25.3187C23.4795 25.4527 23.314 25.5301 23.1396 25.5301H22.3671C21.912 25.5301 21.6292 25.0356 21.86 24.6435Z" fill="#334353"/>
<path d="M18.1401 24.6435L17.7549 23.989C17.5673 23.6701 17.1352 23.6015 16.8581 23.8467L16.3211 24.3218C16.0827 24.5326 16.0552 24.8949 16.2591 25.1393L16.4088 25.3187C16.5206 25.4527 16.6861 25.5301 16.8605 25.5301H17.633C18.0881 25.5301 18.3709 25.0356 18.1401 24.6435Z" fill="#2E3140"/>
<path d="M25.0181 23.455V22.637C25.0181 22.441 25.151 22.27 25.341 22.2217L28.2763 21.4758C28.5471 21.407 28.8103 21.6117 28.8103 21.8911C28.8103 22.0494 28.723 22.1949 28.5832 22.2693L25.648 23.8331C25.3626 23.9853 25.0181 23.7784 25.0181 23.455Z" fill="#3F6C8E"/>
<path d="M14.9812 23.455V22.637C14.9812 22.441 14.8482 22.27 14.6582 22.2217L11.7229 21.4758C11.4521 21.407 11.189 21.6117 11.189 21.8911C11.189 22.0494 11.2762 22.1949 11.416 22.2693L14.3512 23.8331C14.6366 23.9853 14.9812 23.7784 14.9812 23.455Z" fill="#3F5D77"/>
<path d="M20 20.1829C20.5062 20.1829 20.9166 20.5933 20.9166 21.0995V25.0708C20.9166 25.6743 21.4059 26.1636 22.0094 26.1636H24.5245C24.7973 26.1636 25.0184 26.3847 25.0184 26.6575C25.0184 26.8337 24.9252 26.9963 24.7727 27.0847C23.8752 27.6048 20.7863 29.3612 20 29.3612V20.1829Z" fill="#3F6C8E"/>
<path d="M19.9994 20.1829C19.4931 20.1829 19.0828 20.5933 19.0828 21.0995V25.0708C19.0828 25.6743 18.5935 26.1636 17.99 26.1636H15.4749C15.2021 26.1636 14.981 26.3847 14.981 26.6575C14.981 26.8337 15.0742 26.9963 15.2267 27.0847C16.1242 27.6048 19.2131 29.3612 19.9994 29.3612V20.1829Z" fill="#3F5D77"/>
<path d="M21.6492 7.28553C21.643 7.28553 21.6368 7.28546 21.6305 7.28522C21.3071 7.27514 21.0531 7.00467 21.0633 6.68124L21.1701 3.27272C21.1802 2.94928 21.448 2.69389 21.7741 2.70546C22.0975 2.71553 22.3515 2.986 22.3413 3.30944L22.2345 6.71796C22.2246 7.03514 21.9644 7.28553 21.6492 7.28553Z" fill="#3F5D77"/>
<path d="M23.2081 8.85395C23.1408 8.85395 23.0723 8.84231 23.0054 8.81762C22.7018 8.70567 22.5465 8.36872 22.6584 8.06512L23.8371 4.86942C23.9492 4.56582 24.2861 4.41043 24.5897 4.52246C24.8933 4.6345 25.0486 4.97137 24.9366 5.27496L23.7579 8.47067C23.6706 8.70731 23.4465 8.85395 23.2081 8.85395Z" fill="#3F5D77"/>
<path d="M24.8414 10.3231C24.7114 10.3231 24.5805 10.2801 24.4719 10.1916C24.2209 9.98726 24.1831 9.6182 24.3875 9.36726L26.2897 7.03117C26.4938 6.78031 26.8629 6.74242 27.114 6.94672C27.3649 7.15101 27.4027 7.52008 27.1983 7.77101L25.2961 10.1071C25.1804 10.2494 25.0116 10.3231 24.8414 10.3231Z" fill="#3F5D77"/>
<path d="M18.3501 7.28553C18.3563 7.28553 18.3625 7.28546 18.3688 7.28522C18.6922 7.27514 18.9462 7.00467 18.9361 6.68124L18.8293 3.27272C18.8192 2.94928 18.5514 2.69389 18.2253 2.70546C17.9018 2.71553 17.6479 2.986 17.658 3.30944L17.7648 6.71796C17.7747 7.03514 18.035 7.28553 18.3501 7.28553Z" fill="#3E4E60"/>
<path d="M16.7907 8.85395C16.8581 8.85395 16.9265 8.84231 16.9935 8.81762C17.2971 8.70567 17.4524 8.36872 17.3404 8.06512L16.1618 4.86942C16.0496 4.56582 15.7128 4.41043 15.4092 4.52246C15.1056 4.6345 14.9503 4.97137 15.0622 5.27496L16.2409 8.47067C16.3282 8.70731 16.5523 8.85395 16.7907 8.85395Z" fill="#3E4E60"/>
<path d="M15.1575 10.3231C15.2875 10.3231 15.4184 10.2801 15.527 10.1916C15.778 9.98726 15.8158 9.6182 15.6114 9.36726L13.7092 7.03117C13.5051 6.78031 13.136 6.74242 12.8849 6.94672C12.634 7.15101 12.5962 7.52008 12.8006 7.77101L14.7028 10.1071C14.8185 10.2494 14.9873 10.3231 15.1575 10.3231Z" fill="#3E4E60"/>
</svg>
