<svg width="40" height="40" viewBox="0 0 40 40" fill="none" xmlns="http://www.w3.org/2000/svg">
<path d="M20 40C31.0457 40 40 31.0457 40 20C40 8.9543 31.0457 0 20 0C8.9543 0 0 8.9543 0 20C0 31.0457 8.9543 40 20 40Z" fill="#EE6781"/>
<path d="M37.7959 12.9912L37.7951 13.4568L37.7943 13.6295L37.7732 22.2052L37.7725 22.3779L37.7717 22.8474C37.7709 23.1013 37.4357 23.1912 37.3084 22.9716L35.4897 19.6224C35.2045 19.0974 35.0561 18.5092 35.0576 17.9123C35.0584 17.6138 35.0967 17.3177 35.1709 17.031C35.2451 16.7435 35.3545 16.4662 35.4983 16.2045L37.3334 12.8646C37.4615 12.6459 37.7967 12.7373 37.7959 12.9912Z" fill="#9175A7"/>
<path d="M37.795 13.4568L37.7943 13.6294L37.7732 22.2052L37.7724 22.3779L36.2763 19.6224C35.9911 19.0974 35.8427 18.5091 35.8443 17.9123C35.845 17.6138 35.8833 17.3177 35.9568 17.031C36.031 16.7435 36.1403 16.4662 36.2841 16.2044L37.795 13.4568Z" fill="#746087"/>
<path d="M36.6024 17.7131V17.7209C36.6024 18.0006 36.4617 18.2623 36.2258 18.4139C34.3571 19.624 25.9813 24.8193 19.4586 25.1764C19.2602 25.1881 19.0633 25.1943 18.8688 25.1959C16.768 25.2147 14.5281 24.867 12.3953 24.3584H12.3946C11.1703 24.0943 8.08752 24.0115 6.67658 23.9873C6.20705 23.9795 5.75783 23.7959 5.41643 23.4732L5.34455 23.4053C5.12112 23.1943 5.20002 22.8209 5.49065 22.7186L5.97971 22.5459C6.07893 22.5115 6.08049 22.3717 5.98283 22.3342C4.85705 21.8998 3.92346 21.4998 3.27033 21.2084C2.61018 20.9139 2.06643 20.4107 1.72033 19.7764L1.45549 19.2912C1.21096 18.8412 1.41487 18.2818 1.88987 18.0889C6.98127 16.0123 13.6274 16.0209 20.8883 15.9584C22.0086 15.9482 23.1367 15.9639 24.2453 15.9959C29.386 16.1482 34.1227 16.6826 35.8774 16.8998C36.2891 16.9506 36.5992 17.299 36.6024 17.7131Z" fill="#9175A7"/>
<path d="M24.5227 17.874C24.5227 20.7928 22.5602 23.4084 19.4586 25.1764C19.2602 25.1881 19.0633 25.1943 18.8688 25.1959C16.768 25.2147 14.5281 24.867 12.3953 24.3584H12.3946C11.8742 24.2459 11.0172 24.1662 10.0961 24.11C8.8508 24.0342 7.48752 24.0014 6.67658 23.9873C6.20705 23.9795 5.75783 23.7959 5.41643 23.4732L5.34455 23.4053C5.12112 23.1943 5.20002 22.8209 5.49065 22.7186L5.97971 22.5459C6.07893 22.5115 6.08049 22.3717 5.98283 22.3342C4.85705 21.8998 3.92346 21.4998 3.27033 21.2084C2.61018 20.9139 2.06643 20.4107 1.72033 19.7764L1.45549 19.2912C1.21096 18.8412 1.41487 18.2818 1.88987 18.0889C2.62815 17.7881 3.39846 17.5303 4.19924 17.3107C8.92111 16.0131 14.6797 16.0115 20.8883 15.9584C22.0086 15.9482 23.1367 15.9639 24.2453 15.9959C24.4274 16.6037 24.5227 17.2311 24.5227 17.874Z" fill="#A583BB"/>
<path d="M10.0961 24.11C8.8508 24.0342 7.48752 24.0014 6.67658 23.9874C6.20705 23.9795 5.75783 23.7959 5.41643 23.4733L5.34455 23.4053C5.12112 23.1944 5.20002 22.8209 5.49065 22.7186L5.97971 22.5459C6.07893 22.5116 6.08049 22.3717 5.98283 22.3342C4.85705 21.8999 3.92346 21.4999 3.27033 21.2084C2.61018 20.9139 2.06643 20.4108 1.72033 19.7764L1.45549 19.2913C1.21096 18.8413 1.41487 18.2819 1.88987 18.0889C2.62815 17.7881 3.39846 17.5303 4.19924 17.3108C6.28987 20.328 8.49143 22.6225 10.0961 24.11Z" fill="#9175A7"/>
<path d="M36.6018 17.7131V17.7209C36.6018 18.0006 36.4611 18.2624 36.2252 18.4139C34.8893 19.2788 30.2268 22.1811 25.2939 23.8959C23.3275 24.5803 21.3174 25.0749 19.458 25.1772C19.2596 25.1881 19.0627 25.1944 18.8682 25.1959C17.8861 25.2045 16.8736 25.1334 15.8557 25.003C14.6963 24.8545 13.5299 24.6295 12.3939 24.3584C12.3939 24.3584 12.3939 24.3584 12.3939 24.3577C11.1697 24.0944 8.08691 24.0116 6.6752 23.9874C6.20566 23.9788 5.75723 23.7959 5.41582 23.4733L5.34395 23.4053C5.24316 23.31 5.20332 23.1803 5.21816 23.0584C5.2291 22.9733 5.26426 22.892 5.32363 22.8272C5.36738 22.7803 5.42207 22.742 5.49004 22.7186L5.97988 22.5459C6.07207 22.5131 6.0791 22.3889 5.99941 22.3428C5.99863 22.3428 5.99707 22.342 5.99629 22.342C5.99238 22.3389 5.9877 22.3366 5.98223 22.3342C5.91816 22.31 5.85566 22.2858 5.79238 22.2608C5.79238 22.2608 5.79238 22.2608 5.7916 22.2608C4.75098 21.8545 3.88535 21.4834 3.26973 21.2084C2.60957 20.9139 2.06582 20.4108 1.71973 19.7764C4.96973 20.0983 6.50488 20.567 7.22988 20.9413C7.67363 21.1709 8.20801 21.1147 8.59238 20.7952C9.0627 20.4038 9.72754 20.0358 10.4689 20.1811C10.6307 20.2124 10.7963 20.2686 10.9643 20.3545C12.0018 20.8866 13.6908 21.8264 14.8088 22.4553C15.3885 22.7819 16.1049 22.6991 16.6119 22.2678C17.3447 21.6444 18.8158 20.8952 21.651 20.8952H28.1439C28.1572 20.8952 28.1713 20.8952 28.1846 20.8936C28.5189 20.8772 28.8088 20.653 28.9096 20.3311C29.1322 19.6209 29.7471 18.4913 31.4127 18.4913C33.8432 18.4913 36.6018 17.7131 36.6018 17.7131Z" fill="#F4E6F4"/>
<path d="M23.7908 20.8951C22.9541 22.5732 21.4377 24.0475 19.458 25.1771C19.2596 25.1881 19.0627 25.1943 18.8682 25.1959C17.8861 25.2045 16.8736 25.1334 15.8557 25.0029C14.6963 24.8545 13.5299 24.6295 12.3939 24.3584C12.3939 24.3584 12.3939 24.3584 12.3939 24.3576C11.8736 24.2459 11.0166 24.1662 10.0955 24.11C8.85019 24.0342 7.48691 24.0014 6.6752 23.9873C6.20566 23.9787 5.75723 23.7959 5.41582 23.4732L5.34395 23.4053C5.24316 23.31 5.20332 23.1803 5.21816 23.0584C5.2291 22.9732 5.26426 22.892 5.32363 22.8271C5.36738 22.7803 5.42207 22.742 5.49004 22.7186L5.97988 22.5459C6.07207 22.5131 6.0791 22.3889 5.99941 22.3428C5.99863 22.3428 5.99707 22.342 5.99629 22.342C5.99238 22.3389 5.9877 22.3365 5.98223 22.3342C5.91816 22.31 5.85566 22.2857 5.79238 22.2607C5.79238 22.2607 5.79238 22.2607 5.7916 22.2607C4.75098 21.8545 3.88535 21.4834 3.26973 21.2084C2.60957 20.9139 2.06582 20.4107 1.71973 19.7764C4.53535 20.0553 6.06348 20.4443 6.89316 20.7865C7.02129 20.8396 7.13301 20.8912 7.22988 20.9412C7.67363 21.1709 8.20801 21.1146 8.59238 20.7951C9.0627 20.4037 9.72754 20.0357 10.4689 20.1811C10.6307 20.2123 10.7963 20.2686 10.9643 20.3545C12.0018 20.8865 13.6908 21.8264 14.8088 22.4553C15.3885 22.7818 16.1049 22.699 16.6119 22.2678C17.3447 21.6443 18.8158 20.8951 21.651 20.8951H23.7908Z" fill="white"/>
<path d="M10.0955 24.11C8.85019 24.0342 7.48691 24.0014 6.67519 23.9873C6.20566 23.9787 5.75723 23.7959 5.41582 23.4732L5.34395 23.4053C5.24316 23.31 5.20332 23.1803 5.21816 23.0584C5.2291 22.9732 5.26426 22.892 5.32363 22.8271C5.36738 22.7803 5.42207 22.742 5.49004 22.7186L5.97988 22.5459C6.07207 22.5131 6.0791 22.3889 5.99941 22.3428C5.99863 22.3428 5.99707 22.342 5.99629 22.342C5.99238 22.3389 5.9877 22.3365 5.98223 22.3342C5.91816 22.31 5.85566 22.2857 5.79238 22.2607C5.79238 22.2607 5.79238 22.2607 5.7916 22.2607C4.75098 21.8545 3.88535 21.4834 3.26973 21.2084C2.60957 20.9139 2.06582 20.4107 1.71973 19.7764C4.53535 20.0553 6.06348 20.4443 6.89316 20.7865C8.06738 22.1475 9.1791 23.26 10.0955 24.11Z" fill="#F4E6F4"/>
<path d="M22.2472 16.9639H12.8459C12.4321 16.9639 12.0967 17.2993 12.0967 17.7131C12.0967 18.1268 12.4321 18.4623 12.8459 18.4623H22.2472C22.661 18.4623 22.9964 18.1268 22.9964 17.7131C22.9964 17.2993 22.6611 16.9639 22.2472 16.9639Z" fill="#C2AACF"/>
<path d="M19.0944 18.4623H14.2385C13.8247 18.4623 13.4893 18.1268 13.4893 17.7131C13.4893 17.2993 13.8247 16.9639 14.2385 16.9639H19.0944C19.5082 16.9639 19.8436 17.2993 19.8436 17.7131C19.8436 18.1268 19.5082 18.4623 19.0944 18.4623Z" fill="#F4E6F4"/>
<path d="M6.90461 23.4766C6.22664 23.8325 5.32422 22.8271 5.32422 22.8271C5.36773 22.78 5.42273 22.7419 5.49016 22.7188L5.98 22.5457C6.07226 22.5129 6.07937 22.3887 5.99953 22.3425C7.08476 22.733 7.58078 23.1208 6.90461 23.4766Z" fill="#746087"/>
<path d="M6.21533 19.3389C6.20752 19.3608 6.19814 19.3826 6.18798 19.4045C6.14658 19.4944 6.08877 19.578 6.01533 19.6514C5.67705 19.9897 5.12783 19.9897 4.78955 19.6514C4.45127 19.3131 4.45205 18.7647 4.78955 18.4264C4.80439 18.4123 4.81846 18.3983 4.83408 18.3858C4.91533 18.3147 5.00674 18.2616 5.10283 18.2256C5.40986 18.1131 5.76845 18.1795 6.01533 18.4264C6.26142 18.6725 6.32861 19.0311 6.21533 19.3389Z" fill="#C2AACF"/>
<path d="M6.21572 19.3389C6.20791 19.3608 6.19853 19.3827 6.18838 19.4045C6.11338 19.4202 6.03603 19.4287 5.95634 19.4287C5.3626 19.4287 4.87588 18.9694 4.83447 18.3858C4.91572 18.3147 5.00713 18.2616 5.10322 18.2256C5.41025 18.1131 5.76885 18.1795 6.01572 18.4264C6.26181 18.6725 6.329 19.0311 6.21572 19.3389Z" fill="#F4E6F4"/>
<path d="M5.94949 19.039C5.94949 19.2748 5.79996 19.4761 5.59074 19.5533C5.53168 19.5744 5.46832 19.5865 5.40199 19.5865C5.09934 19.5865 4.85449 19.3411 4.85449 19.039C4.85449 18.7363 5.09926 18.4915 5.40199 18.4915C5.46832 18.4915 5.5316 18.5035 5.59074 18.5246C5.79996 18.6019 5.94949 18.8027 5.94949 19.039Z" fill="#3F5D77"/>
<path d="M5.59068 19.5533C5.78882 19.5533 5.94943 19.323 5.94943 19.039C5.94943 18.7549 5.78882 18.5247 5.59068 18.5247C5.39255 18.5247 5.23193 18.7549 5.23193 19.039C5.23193 19.323 5.39255 19.5533 5.59068 19.5533Z" fill="#2E3140"/>
<path d="M5.40217 19.1796C5.5512 19.1796 5.67201 19.0588 5.67201 18.9097C5.67201 18.7607 5.5512 18.6399 5.40217 18.6399C5.25314 18.6399 5.13232 18.7607 5.13232 18.9097C5.13232 19.0588 5.25314 19.1796 5.40217 19.1796Z" fill="#83D5EF"/>
<path d="M23.0932 28.7156C22.6752 28.7625 22.1182 28.7961 21.3799 28.7961C17.6776 28.7961 14.1752 24.7258 15.1143 24.2398C15.4713 24.0555 15.9573 23.9547 16.5041 23.9125C17.9393 23.7984 19.7948 24.0812 20.8526 24.2773C21.1846 24.339 21.3471 24.7094 21.1807 25.0031C21.0362 25.2601 20.9174 25.6156 20.9174 26.0906C20.9174 26.8469 22.2229 27.575 23.2034 28.0156C23.3135 28.0648 23.3791 28.1508 23.4057 28.2461C23.462 28.4461 23.3448 28.6867 23.0932 28.7156Z" fill="#A583BB"/>
<path d="M23.4055 28.2461C23.1984 28.2453 22.9734 28.2406 22.7281 28.2304C19.6297 28.107 16.7836 25.1375 16.5039 23.9125C17.9391 23.7984 19.7945 24.0812 20.8523 24.2773C21.1844 24.339 21.3469 24.7094 21.1805 25.0031C21.0359 25.2601 20.9172 25.6156 20.9172 26.0906C20.9172 26.8469 22.2227 27.575 23.2031 28.0156C23.3133 28.0648 23.3789 28.1508 23.4055 28.2461Z" fill="#9175A7"/>
<path d="M32.9448 22.1233C32.2722 22.1428 31.0128 22.1303 30.2488 21.8178C30.0941 21.7545 30.0488 21.56 30.1589 21.4358C30.2894 21.2881 30.4956 21.0905 30.7956 20.8897C31.0105 20.7459 31.2745 20.5998 31.5941 20.4709C32.1433 20.2491 32.5058 20.2077 32.7386 20.2288C32.9269 20.2452 33.0245 20.4577 32.9128 20.61C32.7894 20.7788 32.6542 20.9999 32.6628 21.1467C32.6683 21.2459 32.7722 21.4038 32.9003 21.5616C32.9605 21.6366 33.0261 21.7116 33.0894 21.7803C33.2081 21.91 33.1206 22.1178 32.9448 22.1233Z" fill="#9175A7"/>
<path d="M32.9131 20.61C32.7896 20.7788 32.6545 20.9999 32.6631 21.1467C32.6686 21.2459 32.7725 21.4038 32.9006 21.5616C32.2928 21.4405 31.4115 21.2225 30.7959 20.8897C31.0107 20.7459 31.2748 20.5998 31.5943 20.4709C32.1436 20.2491 32.5061 20.2077 32.7389 20.2288C32.9271 20.2452 33.0248 20.4577 32.9131 20.61Z" fill="#746087"/>
<path d="M24.5222 16.0046L19.0112 16.003L16.7495 16.0022C16.9979 15.4929 17.294 15.0288 17.6206 14.6069C18.6401 13.2882 19.9503 12.3858 20.9901 11.8171C21.3315 11.6304 21.6448 11.4796 21.9081 11.3616C22.2604 11.2046 22.6417 11.514 22.5612 11.8913L22.5425 11.978L22.0808 14.1476C21.998 14.5358 22.1948 14.9296 22.555 15.096L24.5222 16.0046Z" fill="#9175A7"/>
<path d="M24.5222 16.0046L19.0112 16.003C19.2448 14.1569 20.6425 12.621 22.5425 11.978L22.0808 14.1476C21.998 14.5358 22.1948 14.9296 22.555 15.096L24.5222 16.0046Z" fill="#746087"/>
<path d="M20.9896 11.8171C20.1631 13.2312 19.0842 14.2765 18.3842 14.8664C18.1076 15.0992 17.692 14.9453 17.6201 14.607C18.6396 13.2882 19.9498 12.3859 20.9896 11.8171Z" fill="#A583BB"/>
</svg>
