<svg width="40" height="40" viewBox="0 0 40 40" fill="none" xmlns="http://www.w3.org/2000/svg">
<path d="M20 40C31.0457 40 40 31.0457 40 20C40 8.9543 31.0457 0 20 0C8.9543 0 0 8.9543 0 20C0 31.0457 8.9543 40 20 40Z" fill="#53B976"/>
<path d="M34.3343 20.471L34.1913 21.1741C34.0851 21.6936 33.9187 22.185 33.7015 22.6428C32.4671 25.2428 29.5812 26.7678 26.6358 26.1663L26.6108 26.1608C26.1468 26.0663 25.671 26.2124 25.3265 26.5366C24.7694 27.06 24.1116 27.4788 23.3858 27.7585C22.7171 28.0186 21.9905 28.16 21.2296 28.16H13.4249C13.3522 28.16 13.2804 28.1592 13.2085 28.1561C12.6116 28.1389 12.0335 28.0467 11.4827 27.8905C10.6655 27.6569 9.9085 27.2811 9.24053 26.7897C7.48975 25.503 6.35303 23.428 6.35303 21.0881V16.196H17.1022C17.7515 14.2124 19.3085 12.7225 21.2054 12.1046C22.2249 11.771 23.3421 11.6905 24.4679 11.9202L29.3429 12.9163C32.8077 13.6241 35.0421 17.0061 34.3343 20.471Z" fill="#C2AACF"/>
<path d="M11.4829 25.9177V27.8904C10.6657 27.6568 9.90869 27.281 9.24072 26.7896V25.9177C9.24072 25.2982 9.74306 24.7966 10.3618 24.7966C10.6712 24.7966 10.9517 24.9216 11.154 25.1248C11.3571 25.3279 11.4829 25.6076 11.4829 25.9177Z" fill="#DECEE5"/>
<path d="M15.4499 25.9177V28.1599H13.4249C13.3522 28.1599 13.2804 28.1591 13.2085 28.156V25.9177C13.2085 25.2982 13.7101 24.7966 14.3296 24.7966C14.639 24.7966 14.9194 24.9216 15.1218 25.1248C15.3241 25.3279 15.4499 25.6076 15.4499 25.9177Z" fill="#DECEE5"/>
<path d="M19.418 25.9177V28.1599H17.1758V25.9177C17.1758 25.2982 17.6781 24.7966 18.2969 24.7966C18.607 24.7966 18.8867 24.9216 19.0898 25.1248C19.293 25.3279 19.418 25.6076 19.418 25.9177Z" fill="#DECEE5"/>
<path d="M23.3857 25.9177V27.7583C22.717 28.0185 21.9904 28.1599 21.2295 28.1599H21.1436V25.9177C21.1436 25.2982 21.6451 24.7966 22.2646 24.7966C22.574 24.7966 22.8545 24.9216 23.0568 25.1248C23.26 25.3279 23.3857 25.6076 23.3857 25.9177Z" fill="#DECEE5"/>
<path d="M34.3341 20.471L34.1911 21.1741C34.0849 21.6937 33.9185 22.1851 33.7013 22.6429C32.6817 22.9765 31.5645 23.0569 30.4388 22.8272L25.5638 21.8312C25.5052 21.8194 25.4474 21.8062 25.3896 21.7929C24.7833 21.6515 24.1489 21.814 23.6935 22.239C22.5302 23.3265 20.9685 23.9921 19.2505 23.9921H6.35283C5.84736 23.9921 5.38877 23.7874 5.05674 23.4554C4.72549 23.1233 4.52002 22.6655 4.52002 22.1593C4.52002 22.0726 4.5208 21.9866 4.52314 21.9007C4.66064 15.5132 9.88252 10.3765 16.3036 10.3765H21.1067C21.4403 10.3765 21.7661 10.4116 22.0802 10.478C23.0708 10.689 23.9442 11.2147 24.5919 11.946L29.3427 12.9163C32.8075 13.6241 35.0419 17.0062 34.3341 20.471Z" fill="#DECEE5"/>
<path d="M22.08 10.478C19.5589 17.1421 12.8558 21.9062 4.98389 21.9062C4.82998 21.9062 4.67607 21.9046 4.52295 21.9007C4.66045 15.5132 9.88233 10.3765 16.3034 10.3765H21.1066C21.4401 10.3765 21.7659 10.4116 22.08 10.478Z" fill="#F4E6F4"/>
<path d="M17.7792 14.4374C18.3645 15.0227 18.5766 15.8391 18.4155 16.5919C18.3254 17.0224 18.1123 17.4302 17.7792 17.7634L15.4973 20.0453C15.0376 20.505 14.4368 20.7344 13.8343 20.7344C13.2317 20.7344 12.6309 20.505 12.1712 20.0453C11.312 19.186 11.2565 17.827 12.0056 16.9032C12.0566 16.8395 12.1121 16.7785 12.1712 16.7193L14.4532 14.4374C14.912 13.9786 15.5137 13.7483 16.1162 13.7483C16.7179 13.7492 17.3195 13.9777 17.7792 14.4374Z" fill="#746087"/>
<path d="M17.779 14.4374C18.3643 15.0227 18.5764 15.8392 18.4153 16.5919C16.3854 18.3268 13.6047 18.4916 12.0054 16.9032C12.0563 16.8395 12.1119 16.7785 12.171 16.7193L14.4529 14.4374C14.9117 13.9786 15.5134 13.7483 16.116 13.7483C16.7177 13.7492 17.3193 13.9777 17.779 14.4374Z" fill="#9175A7"/>
<path d="M17.1514 17.2296L15.4092 18.9718L14.9639 19.4171C14.6646 19.7171 14.2732 19.8664 13.8818 19.8664C13.8592 19.8664 13.8373 19.8656 13.8146 19.8648C13.4459 19.8492 13.0818 19.7 12.799 19.4171C12.2021 18.8203 12.2014 17.8507 12.799 17.2531L14.9865 15.0656C15.285 14.7671 15.6764 14.6179 16.0678 14.6179C16.4615 14.6179 16.8529 14.7671 17.1514 15.0656C17.749 15.6632 17.7482 16.6328 17.1514 17.2296Z" fill="#53B976"/>
<path d="M15.7756 17.4506C15.7756 17.9967 15.6436 18.5131 15.4092 18.9717L14.9639 19.417C14.6646 19.717 14.2732 19.8663 13.8818 19.8663C13.8592 19.8663 13.8373 19.8655 13.8146 19.8647C13.4459 19.8491 13.0818 19.6999 12.799 19.417C12.2021 18.8202 12.2014 17.8506 12.799 17.253L14.8818 15.1702C15.4381 15.778 15.7756 16.5764 15.7756 17.4506Z" fill="#3E4E60"/>
<path d="M14.8381 17.4506C14.8381 18.3913 14.4475 19.2436 13.8146 19.8647C13.4459 19.8491 13.0818 19.6999 12.799 19.417C12.2021 18.8202 12.2014 17.8506 12.799 17.253L14.3467 15.7053C14.6592 16.217 14.8381 16.8139 14.8381 17.4506Z" fill="#2E3140"/>
<path d="M15.7525 15.3401L14.4705 16.6222C14.2201 16.8726 14.2201 17.2786 14.4705 17.529C14.7209 17.7794 15.1269 17.7794 15.3773 17.529L16.6593 16.2469C16.9097 15.9965 16.9097 15.5905 16.6593 15.3401C16.4089 15.0897 16.003 15.0897 15.7525 15.3401Z" fill="#83D5EF"/>
<path d="M22.4399 19.335L19.0556 18.6639C18.6868 18.5905 18.3056 18.7014 18.0337 18.9616L16.9079 20.0358C16.2884 20.6264 16.5048 21.6616 17.3079 21.9553L18.6204 22.4358C19.7188 22.8374 20.9501 22.5952 21.8141 21.8061L22.8626 20.8491C23.3954 20.3616 23.1485 19.4756 22.4399 19.335ZM24.1188 16.085C24.0946 15.3553 23.3727 14.8561 22.6821 15.092L19.9173 16.0358C19.6477 16.128 19.4337 16.335 19.3329 16.6014C19.1079 17.1944 19.5134 17.8381 20.1454 17.8913L22.972 18.1303C23.6196 18.1842 24.1696 17.6624 24.1485 17.0124L24.1188 16.085ZM21.7173 12.0788L21.461 11.9092L21.1016 11.6725C20.5368 11.3006 19.7774 11.4608 19.411 12.028L18.7423 13.0631C18.5587 13.3467 18.5056 13.6952 18.5954 14.0202C18.7298 14.5061 19.1431 14.8288 19.6048 14.8811C19.8032 14.903 20.011 14.8749 20.2095 14.7881L21.5352 14.2077C22.4188 13.8209 22.522 12.6092 21.7173 12.0788ZM17.447 11.0569H15.2142C14.7282 11.0569 14.3868 11.5342 14.5431 11.9944L14.6548 12.3233C14.8274 12.8319 15.3048 13.1733 15.8407 13.1733H16.8259C17.3704 13.1733 17.8517 12.8225 18.0188 12.3045L18.122 11.9834C18.2696 11.5256 17.9282 11.0569 17.447 11.0569ZM13.3571 12.1811L13.104 12.0374C12.8634 11.8874 12.5556 11.8975 12.3251 12.0631L8.7876 14.6022C8.23369 14.9999 8.51494 15.8741 9.19697 15.8741L10.8884 16.0038C11.2001 16.028 11.5079 15.9186 11.7345 15.703L13.5727 13.9577C14.1149 13.4428 14.0071 12.5514 13.3571 12.1811ZM14.6384 22.0428C14.3712 21.878 14.0892 21.742 13.7954 21.635C13.5024 21.528 13.1985 21.4499 12.8876 21.4038C12.3642 21.3264 11.8954 21.092 11.5282 20.7499C11.0743 20.3288 10.7759 19.7452 10.7212 19.0928L10.6595 18.3538C10.5962 17.6038 9.96884 17.0264 9.21572 17.0264H7.65869C7.11103 17.0264 6.61025 17.3342 6.36494 17.8225C6.06885 18.4108 5.8376 19.0374 5.68057 19.692C5.52354 20.3467 5.43994 21.0311 5.43994 21.7342C5.43994 21.7905 5.44307 21.8467 5.45088 21.9006C5.53213 22.5709 6.10322 23.0897 6.79619 23.0897H14.3423C14.6931 23.0897 14.9087 22.8053 14.9087 22.5178C14.9087 22.3381 14.8251 22.1577 14.6384 22.0428Z" fill="#C68132"/>
<path d="M11.5282 20.7498C9.63526 21.4459 7.58916 21.849 5.45088 21.9006C5.44307 21.8467 5.43994 21.7904 5.43994 21.7342C5.43994 21.0311 5.52354 20.3467 5.68057 19.692C5.8376 19.0373 6.06885 18.4107 6.36494 17.8225C6.61026 17.3342 7.11104 17.0264 7.65869 17.0264H9.21573C9.96885 17.0264 10.5962 17.6037 10.6595 18.3537L10.7212 19.0928C10.7759 19.7451 11.0743 20.3287 11.5282 20.7498Z" fill="#F39E22"/>
<path d="M13.5727 13.9576L11.7344 15.7029C11.5078 15.9185 11.2 16.0279 10.8883 16.0037L9.19689 15.874C8.51486 15.874 8.23361 14.9997 8.78752 14.6021L12.325 12.063C12.5555 11.8974 12.8633 11.8872 13.1039 12.0372L13.357 12.181C14.007 12.5513 14.1149 13.4427 13.5727 13.9576Z" fill="#F39E22"/>
<path d="M18.1216 11.9834L18.0185 12.3045C17.8513 12.8225 17.37 13.1733 16.8255 13.1733H15.8403C15.3044 13.1733 14.8271 12.8319 14.6544 12.3233L14.5427 11.9944C14.3864 11.5342 14.7278 11.0569 15.2138 11.0569H17.4466C17.9278 11.0569 18.2693 11.5256 18.1216 11.9834Z" fill="#F39E22"/>
<path d="M21.4611 11.9093C20.9455 12.9616 20.3228 13.9569 19.6049 14.8812C19.1431 14.8288 18.7299 14.5062 18.5955 14.0202C18.5056 13.6952 18.5588 13.3468 18.7423 13.0632L19.4111 12.028C19.7775 11.4608 20.5369 11.3007 21.1017 11.6726L21.4611 11.9093Z" fill="#F39E22"/>
<path d="M8.60648 18.5045C8.60648 18.578 8.59633 18.6514 8.57601 18.7249C8.57523 18.7288 8.57445 18.7334 8.57289 18.7374L8.31273 19.6147C8.18383 20.0483 7.72836 20.2952 7.29477 20.1663C7.22602 20.1459 7.16273 20.1178 7.10414 20.0819C6.79242 19.8944 6.63461 19.5139 6.7432 19.1491L7.00336 18.2717C7.13148 17.8381 7.58695 17.5913 8.02055 17.7194C8.3768 17.8249 8.60648 18.1514 8.60648 18.5045Z" fill="#2E3140"/>
<path d="M8.57637 18.7249C8.57559 18.7288 8.5748 18.7335 8.57324 18.7374L8.31309 19.6147C8.18418 20.0483 7.72871 20.2952 7.29512 20.1663C7.22637 20.146 7.16309 20.1179 7.10449 20.0819C7.10527 20.078 7.10684 20.0749 7.10762 20.071L7.36855 19.1929C7.49668 18.7601 7.95215 18.5124 8.38574 18.6413C8.45449 18.6616 8.51777 18.6897 8.57637 18.7249Z" fill="#3E4E60"/>
<path d="M36.1799 24.4492C36.1127 24.5156 36.0416 24.5804 35.9666 24.6422L33.894 26.3586C32.1838 27.7734 29.5877 27.0718 28.8244 24.9875L24.6299 13.5414C24.4963 13.1758 24.4307 12.7968 24.4307 12.4203C24.4307 11.6164 24.7283 10.8258 25.2893 10.2133C26.3314 9.07575 27.9369 8.86091 29.1986 9.48356C29.7252 9.74372 30.1916 10.1492 30.533 10.6945L30.8893 11.2633L31.2471 11.8351L32.0619 13.139L33.6557 15.6859L34.5424 17.1031L36.1354 19.65L36.6424 20.4601C36.7354 20.6078 36.8143 20.7609 36.8799 20.9172C37.3877 22.1179 37.1174 23.5218 36.1799 24.4492Z" fill="#C68132"/>
<path d="M31.247 11.8352L28.0649 13.2016C27.311 13.5251 26.4384 13.1766 26.1149 12.4227C25.7915 11.6696 26.1399 10.7969 26.8931 10.4735L29.1985 9.48364C29.7251 9.7438 30.1915 10.1493 30.5329 10.6946L31.247 11.8352Z" fill="#F39E22"/>
<path d="M33.6555 15.686L29.8071 17.3384C29.054 17.6618 28.1806 17.3134 27.8571 16.5603C27.5337 15.8071 27.8821 14.9337 28.6352 14.6103L32.0618 13.1392L33.6555 15.686Z" fill="#F39E22"/>
<path d="M36.1349 19.6502L31.706 21.5517C30.9529 21.8759 30.0795 21.5267 29.756 20.7736C29.4326 20.0205 29.781 19.147 30.5349 18.8236L34.542 17.1033L36.1349 19.6502Z" fill="#F39E22"/>
<path d="M36.1797 24.4493L33.4687 25.6133C32.7156 25.9368 31.8422 25.5883 31.5187 24.8344C31.1953 24.0813 31.5437 23.2086 32.2969 22.8844L36.8797 20.9172C37.3875 22.118 37.1172 23.5219 36.1797 24.4493Z" fill="#F39E22"/>
</svg>
