<svg width="40" height="40" viewBox="0 0 40 40" fill="none" xmlns="http://www.w3.org/2000/svg">
<path d="M20 40C31.0457 40 40 31.0457 40 20C40 8.9543 31.0457 0 20 0C8.9543 0 0 8.9543 0 20C0 31.0457 8.9543 40 20 40Z" fill="#53B976"/>
<path d="M31.486 17.174L31.4878 17.1747C31.4878 17.1747 32.5321 13.9651 32.5321 10.8326C32.5321 9.10193 31.7667 7.59006 31.0815 6.58358C30.5921 5.86459 29.5606 5.7899 28.9724 6.43068L22.4168 13.5726H17.5826L11.0271 6.43068C10.4389 5.7899 9.40736 5.86459 8.91791 6.58358C8.23275 7.59006 7.46729 9.10193 7.46729 10.8326C7.46729 13.9652 8.51166 17.1747 8.51166 17.1747L8.51346 17.174C8.32291 17.536 8.16236 17.9183 8.03799 18.3195C7.64971 19.5711 7.46768 20.825 7.46768 22.0508C7.46768 28.7195 12.8724 34.5523 19.9997 34.5523C23.5638 34.5523 26.6966 33.0937 28.9388 30.8023C32.0052 27.6679 33.4052 22.9742 31.9614 18.3195C31.837 17.9183 31.6765 17.536 31.486 17.174Z" fill="#EA792E"/>
<path d="M17.5826 13.5726L11.0271 6.43068C10.4389 5.7899 9.40736 5.86459 8.91791 6.58358C8.23275 7.59006 7.46729 9.10193 7.46729 10.8326C7.46729 13.9652 8.51166 17.1747 8.51166 17.1747L8.51346 17.174C8.32291 17.536 8.16236 17.9183 8.03799 18.3195C7.64971 19.5711 7.46768 20.825 7.46768 22.0508C7.46768 28.7195 12.8724 34.5523 19.9997 34.5523V13.5726H17.5826Z" fill="#DD5E26"/>
<path d="M8.68262 12.3569C8.68262 13.4655 8.85527 14.5866 9.03887 15.4687C9.22793 16.3749 10.1865 16.8929 11.0467 16.5507L11.7748 16.2616L14.3584 15.2358C15.3279 14.8507 15.6107 13.614 14.9053 12.8452L12.5264 10.2538L12.5248 10.2523L11.3873 9.01241C10.942 8.52804 10.1592 8.5796 9.78887 9.12335C9.26699 9.88741 8.68262 11.039 8.68262 12.3569Z" fill="#BF5E39"/>
<path d="M10.4474 15.2648L11.7748 16.2616L14.3584 15.2359C15.3279 14.8507 15.6107 13.614 14.9053 12.8452L12.5263 10.2538L12.5248 10.2523L11.2451 9.9796C10.9685 9.92023 10.7615 10.2288 10.9201 10.4624L11.9099 11.5343C12.206 11.8546 11.9326 12.3687 11.5021 12.3023L10.5638 12.1577C10.2701 12.1577 10.1373 12.5249 10.3638 12.7132L11.9162 13.8476C12.2709 14.1062 12.0959 14.6671 11.6576 14.6796L10.5623 14.7093C10.3045 14.771 10.2349 15.1054 10.4474 15.2648Z" fill="#EA792E"/>
<path d="M31.317 12.3569C31.317 13.4655 31.1443 14.5866 30.9607 15.4687C30.7717 16.3749 29.8131 16.8929 28.9529 16.5507L28.2248 16.2616L25.6412 15.2358C24.6717 14.8507 24.3889 13.614 25.0943 12.8452L27.4732 10.2538L27.4748 10.2523L28.6123 9.01241C29.0576 8.52804 29.8404 8.5796 30.2107 9.12335C30.7326 9.88741 31.317 11.039 31.317 12.3569Z" fill="#DD5E26"/>
<path d="M29.5521 15.2648L28.2248 16.2616L25.6412 15.2359C24.6717 14.8507 24.3889 13.614 25.0943 12.8452L27.4732 10.2538L27.4748 10.2523L28.7545 9.9796C29.031 9.92023 29.2381 10.2288 29.0795 10.4624L28.0896 11.5343C27.7935 11.8546 28.067 12.3687 28.4974 12.3023L29.4357 12.1577C29.7295 12.1577 29.8623 12.5249 29.6357 12.7132L28.0834 13.8476C27.7287 14.1062 27.9037 14.6671 28.342 14.6796L29.4373 14.7093C29.6951 14.771 29.7646 15.1054 29.5521 15.2648Z" fill="#F39E22"/>
<path d="M29.8384 6.45961L29.5245 6.68976C29.2982 6.85562 29.2658 7.19601 29.452 7.45008L31.054 9.6357C31.2402 9.88977 31.5746 9.96125 31.8009 9.79539C32.002 9.64805 32.0532 9.3586 31.9218 9.11219L30.6337 6.6964C30.4689 6.38734 30.0907 6.27469 29.8384 6.45961Z" fill="#F39E22"/>
<path d="M10.1612 6.45961L10.4752 6.68976C10.7015 6.85562 10.7339 7.19601 10.5477 7.45008L8.94569 9.6357C8.75944 9.88977 8.42507 9.96125 8.19882 9.79539C7.99772 9.64805 7.94647 9.3586 8.07788 9.11219L9.366 6.6964C9.53077 6.38734 9.90897 6.27469 10.1612 6.45961Z" fill="#EA792E"/>
<path d="M21.2081 21.6561C20.5406 21.6561 19.9995 21.115 19.9995 20.4475V15.8746C19.9995 15.2071 20.5406 14.666 21.2081 14.666C21.8756 14.666 22.4167 15.2071 22.4167 15.8746V20.4475C22.4166 21.115 21.8755 21.6561 21.2081 21.6561Z" fill="#F39E22"/>
<path d="M18.7916 21.6561C18.1241 21.6561 17.583 21.115 17.583 20.4475V15.8746C17.583 15.2071 18.1241 14.666 18.7916 14.666C19.4591 14.666 20.0002 15.2071 20.0002 15.8746V20.4475C20.0002 21.115 19.4591 21.6561 18.7916 21.6561Z" fill="#EA792E"/>
<path d="M25.8799 18.2214H25.0737C24.4025 18.2214 23.8584 18.7656 23.8584 19.4367V20.5174C23.8584 21.1886 24.4025 21.7327 25.0737 21.7327H25.8799C26.5511 21.7327 27.0952 21.1886 27.0952 20.5174V19.4367C27.0952 18.7656 26.5511 18.2214 25.8799 18.2214Z" fill="#DD5E26"/>
<path d="M14.9263 18.2214H14.1201C13.4489 18.2214 12.9048 18.7656 12.9048 19.4367V20.5174C12.9048 21.1886 13.4489 21.7327 14.1201 21.7327H14.9263C15.5974 21.7327 16.1416 21.1886 16.1416 20.5174V19.4367C16.1416 18.7656 15.5974 18.2214 14.9263 18.2214Z" fill="#BF5E39"/>
<path d="M28.3248 24.0624C28.3248 22.9808 26.307 22.104 25.2255 22.104C24.1439 22.104 23.2671 22.9808 23.2671 24.0624C23.2671 25.1439 24.1439 26.0207 25.2255 26.0207C26.307 26.0207 28.3248 25.1439 28.3248 24.0624Z" fill="#FBCB74"/>
<path d="M26.2132 23.1967V24.928C26.2132 25.1311 26.1304 25.3155 25.9976 25.4491C25.5462 25.9092 24.7348 25.581 24.7398 24.928V23.1967C24.7755 22.2237 26.1738 22.2161 26.2132 23.1967Z" fill="#3F5D77"/>
<path d="M26.2133 23.1966V24.9279C26.2129 25.1352 26.1277 25.3239 25.9883 25.4576C25.6555 25.3865 25.4062 25.0912 25.4062 24.7373V23.006C25.4062 22.7982 25.493 22.6099 25.632 22.4763C25.9641 22.5474 26.2133 22.8427 26.2133 23.1966Z" fill="#2E3140"/>
<path d="M27.1924 23.5701C27.1924 23.1845 26.8797 22.8718 26.4941 22.8718C25.5683 22.9076 25.5685 24.2328 26.4941 24.2685C26.8797 24.2685 27.1924 23.9558 27.1924 23.5701Z" fill="white"/>
<path d="M11.6743 24.0624C11.6743 22.9808 13.6921 22.104 14.7737 22.104C15.8553 22.104 16.732 22.9808 16.732 24.0624C16.732 25.1439 15.8553 26.0207 14.7737 26.0207C13.6922 26.0207 11.6743 25.1439 11.6743 24.0624Z" fill="#FBCB74"/>
<path d="M15.2596 23.1967V24.928C15.2596 25.1311 15.1768 25.3155 15.044 25.4491C14.5926 25.9092 13.7812 25.581 13.7862 24.928V23.1967C13.8219 22.2237 15.2203 22.2161 15.2596 23.1967Z" fill="#3F5D77"/>
<path d="M15.2597 23.1966V24.9279C15.2593 25.1352 15.174 25.3239 15.0347 25.4576C14.7019 25.3865 14.4526 25.0912 14.4526 24.7373V23.006C14.4526 22.7982 14.5394 22.6099 14.6784 22.4763C15.0104 22.5474 15.2597 22.8427 15.2597 23.1966Z" fill="#2E3140"/>
<path d="M14.7705 23.5701C14.7705 23.1845 15.0832 22.8718 15.4688 22.8718C16.3946 22.9076 16.3944 24.2328 15.4688 24.2685C15.0832 24.2685 14.7705 23.9558 14.7705 23.5701Z" fill="white"/>
<path d="M25.4722 29.8679C25.4722 30.7664 25.2558 31.614 24.8722 32.3617C23.9651 34.1304 22.1237 35.3406 19.9995 35.3406C16.9769 35.3406 14.5269 32.8906 14.5269 29.8679C14.5269 28.0562 15.4065 26.4507 16.7628 25.4554C17.669 24.789 18.7886 24.3953 19.9995 24.3953C23.0222 24.3953 25.4722 26.8453 25.4722 29.8679Z" fill="#EA792E"/>
<path d="M25.472 29.8679C25.472 30.7664 25.2556 31.614 24.872 32.3617C23.9657 33.0281 22.8462 33.4218 21.6353 33.4218C18.6126 33.4218 16.1626 30.9718 16.1626 27.9492C16.1626 27.0507 16.379 26.2031 16.7626 25.4554C17.6689 24.789 18.7884 24.3953 19.9993 24.3953C23.022 24.3953 25.472 26.8453 25.472 29.8679Z" fill="#F39E22"/>
<path d="M20.9753 28.8834C20.4366 28.8834 20 28.4467 20 27.9081V25.6928C20 25.1542 20.4366 24.7175 20.9753 24.7175C21.514 24.7175 21.9506 25.1542 21.9506 25.6928V27.9081C21.9506 28.4467 21.514 28.8834 20.9753 28.8834Z" fill="#F9C744"/>
<path d="M19.9997 34.8366C21.3964 34.8366 22.5287 34.1459 22.5287 33.2938C22.5287 32.4417 21.3964 31.751 19.9997 31.751C18.603 31.751 17.4707 32.4417 17.4707 33.2938C17.4707 34.1459 18.603 34.8366 19.9997 34.8366Z" fill="#F39E22"/>
<path d="M23.2589 31.8637C24.0051 31.8637 24.6101 31.2588 24.6101 30.5125C24.6101 29.7663 24.0051 29.1614 23.2589 29.1614C22.5127 29.1614 21.9077 29.7663 21.9077 30.5125C21.9077 31.2588 22.5127 31.8637 23.2589 31.8637Z" fill="#F9C744"/>
<path d="M16.7403 31.8637C17.4866 31.8637 18.0915 31.2588 18.0915 30.5125C18.0915 29.7663 17.4866 29.1614 16.7403 29.1614C15.9941 29.1614 15.3892 29.7663 15.3892 30.5125C15.3892 31.2588 15.9941 31.8637 16.7403 31.8637Z" fill="#F9C744"/>
<path d="M25.8725 29.4773C25.6568 29.4773 25.4819 29.6523 25.4819 29.868C25.4819 30.9606 25.2216 31.7624 24.7082 32.2511C24.1381 32.7937 23.4453 32.7663 23.4185 32.765L23.394 32.7642C22.6917 32.7642 22.365 32.4709 21.9513 32.0995C21.5627 31.7508 21.1287 31.3628 20.3773 31.2612V30.8103C20.4821 30.7687 20.5805 30.7104 20.6677 30.6351C20.8925 30.4408 21.0215 30.1591 21.0215 29.862V29.8443C21.0215 29.7782 21.0752 29.7244 21.1412 29.7244H21.3197C21.5354 29.7244 21.7103 29.5495 21.7103 29.3338V28.5173C21.7103 28.3016 21.5354 28.1267 21.3197 28.1267H18.6802C18.4645 28.1267 18.2896 28.3016 18.2896 28.5173V29.3338C18.2896 29.5495 18.4645 29.7244 18.6802 29.7244H18.8587C18.9247 29.7244 18.9784 29.7782 18.9784 29.8443C18.9784 30.2662 19.231 30.6394 19.596 30.7995V31.2612C18.8445 31.3628 18.4105 31.7508 18.022 32.0995C17.6083 32.4708 17.2815 32.7642 16.5793 32.7642L16.5623 32.7646C16.533 32.7655 15.8491 32.7841 15.2849 32.2401C14.7758 31.7492 14.5176 30.9511 14.5176 29.868C14.5176 29.6523 14.3427 29.4773 14.127 29.4773C13.9113 29.4773 13.7363 29.6523 13.7363 29.868C13.7363 31.1803 14.0794 32.1719 14.7559 32.8153C15.5281 33.5495 16.4602 33.5492 16.5859 33.5455C17.5829 33.5435 18.0934 33.0853 18.5438 32.681C18.9576 32.3097 19.2844 32.0163 19.9866 32.0163C20.6887 32.0163 21.0155 32.3096 21.4293 32.681C21.8794 33.0851 22.3895 33.5428 23.385 33.5455C23.397 33.546 23.4151 33.5465 23.4387 33.5465C23.6845 33.5465 24.5255 33.4944 25.2337 32.8294C25.9168 32.188 26.263 31.1917 26.263 29.868C26.2631 29.6523 26.0883 29.4773 25.8725 29.4773Z" fill="#BF5E39"/>
<path d="M19.369 29.5317C19.369 29.8468 19.5926 30.1276 19.9044 30.1733C20.2952 30.2305 20.6307 29.9292 20.6307 29.5494V29.5317C20.6307 29.2498 20.8592 29.0212 21.1412 29.0212H21.3196C21.6681 29.0212 21.9505 28.7388 21.9505 28.3904C21.9505 28.0419 21.6681 27.7595 21.3196 27.7595H18.6802C18.3317 27.7595 18.0493 28.0419 18.0493 28.3904C18.0493 28.7388 18.3317 29.0212 18.6802 29.0212H18.8586C19.1405 29.0212 19.369 29.2497 19.369 29.5317Z" fill="#ED72AB"/>
<path d="M21.02 28.6236H19.5326C19.294 28.6236 19.1006 28.4301 19.1006 28.1916C19.1006 27.953 19.294 27.7595 19.5326 27.7595H21.02C21.2585 27.7595 21.452 27.953 21.452 28.1916C21.452 28.4301 21.2585 28.6236 21.02 28.6236Z" fill="#F0A6B3"/>
<path d="M30.6067 32.6828C30.5895 32.6469 30.1809 31.7961 29.0325 31.2477C28.4794 30.9836 27.8614 30.8336 27.1802 30.7977C26.0177 30.7367 24.6716 31.0078 23.1567 31.6094C23.0169 31.6656 22.9481 31.8242 23.0036 31.9649C23.0598 32.1047 23.2184 32.1735 23.3591 32.118C24.8372 31.5305 26.1653 31.2758 27.2809 31.3586C27.8278 31.3992 28.3239 31.5211 28.7614 31.7242C29.7505 32.1836 30.1091 32.9086 30.1114 32.9149C30.1583 33.0141 30.2567 33.0727 30.3591 33.0727C30.3981 33.0727 30.438 33.0641 30.4755 33.0469C30.6122 32.9821 30.6708 32.8196 30.6067 32.6828ZM33.7075 29.8399C33.6692 29.8094 32.7497 29.075 30.9739 28.7656C30.0489 28.6047 28.777 28.5461 27.1919 28.8555C26.0098 29.0852 24.6536 29.5196 23.1372 30.2672C23.002 30.3344 22.9458 30.4977 23.013 30.6336C23.0606 30.7297 23.1575 30.786 23.2583 30.786C23.2989 30.786 23.3403 30.7766 23.3786 30.7578C24.7802 30.0672 26.0341 29.6539 27.1317 29.425C28.6966 29.0977 29.9434 29.1453 30.8419 29.2977C32.4911 29.5774 33.3544 30.2586 33.363 30.2649C33.4802 30.3602 33.652 30.3422 33.7474 30.225C33.8427 30.1078 33.8247 29.9352 33.7075 29.8399ZM36.895 26.7539C36.8388 26.7297 35.4872 26.1719 33.1036 26.161C31.7739 26.157 29.9513 26.3289 27.7575 26.986C26.3559 27.4063 24.802 28.0242 23.1286 28.9203C22.9958 28.9914 22.9458 29.1571 23.0169 29.2906C23.0661 29.3828 23.1606 29.4352 23.2583 29.4352C23.302 29.4352 23.3458 29.4242 23.3872 29.4024C24.8598 28.6141 26.2356 28.0453 27.4919 27.6406C29.7786 26.9039 31.67 26.7078 33.0341 26.7078H33.0661C35.352 26.7125 36.67 27.2524 36.6825 27.2578C36.8216 27.3164 36.9825 27.2508 37.0411 27.1117C37.0997 26.9727 37.0341 26.8125 36.895 26.7539Z" fill="#EBD9EA"/>
<path d="M30.6067 32.6828C30.6708 32.8195 30.6122 32.982 30.4755 33.0468C30.438 33.064 30.3981 33.0726 30.3591 33.0726C30.2567 33.0726 30.1583 33.014 30.1114 32.9148C30.1091 32.9085 29.7505 32.1835 28.7614 31.7242C28.3239 31.521 27.8278 31.3992 27.281 31.3585C27.2395 31.1742 27.2052 30.9875 27.1802 30.7976C27.8614 30.8335 28.4794 30.9835 29.0325 31.2476C30.181 31.796 30.5896 32.6468 30.6067 32.6828Z" fill="white"/>
<path d="M33.7475 30.2251C33.6521 30.3422 33.4803 30.3602 33.3631 30.2649C33.3545 30.2587 32.4912 29.5774 30.842 29.2977C29.9436 29.1454 28.6967 29.0977 27.1318 29.4251C27.1436 29.2329 27.1639 29.043 27.192 28.8555C28.7771 28.5461 30.049 28.6047 30.974 28.7657C32.7498 29.0751 33.6693 29.8094 33.7076 29.8399C33.8248 29.9352 33.8428 30.1079 33.7475 30.2251Z" fill="white"/>
<path d="M37.0409 27.1117C36.9823 27.2508 36.8214 27.3164 36.6823 27.2578C36.6698 27.2524 35.3519 26.7125 33.0659 26.7078H33.0339C31.6698 26.7078 29.7784 26.9039 27.4917 27.6406C27.5683 27.4164 27.6573 27.1985 27.7573 26.986C29.9511 26.3289 31.7737 26.157 33.1034 26.161C35.487 26.1719 36.8386 26.7297 36.8948 26.7539C37.0339 26.8125 37.0995 26.9727 37.0409 27.1117Z" fill="white"/>
<path d="M9.52311 33.0469C9.56061 33.0641 9.60045 33.0727 9.63951 33.0727C9.74186 33.0727 9.8403 33.0141 9.88717 32.9149C9.88952 32.9086 10.2481 32.1836 11.2372 31.7242C11.6747 31.5211 12.1708 31.3992 12.7176 31.3586C13.8333 31.2758 15.1614 31.5305 16.6395 32.118C16.7801 32.1735 16.9387 32.1047 16.995 31.9649C17.0505 31.8242 16.9817 31.6656 16.8419 31.6094C15.327 31.0078 13.9809 30.7367 12.8184 30.7977C12.1372 30.8336 11.5192 30.9836 10.9661 31.2477C9.81764 31.7961 9.40905 32.6469 9.39186 32.6828C9.3278 32.8196 9.38639 32.9821 9.52311 33.0469ZM6.25123 30.225C6.34655 30.3422 6.51842 30.3602 6.63561 30.2649C6.6442 30.2586 7.50748 29.5774 9.1567 29.2977C10.0551 29.1453 11.302 29.0977 12.8669 29.425C13.9645 29.6539 15.2184 30.0672 16.62 30.7578C16.6583 30.7766 16.6997 30.786 16.7403 30.786C16.8411 30.786 16.938 30.7297 16.9856 30.6336C17.0528 30.4977 16.9965 30.3344 16.8614 30.2672C15.345 29.5196 13.9887 29.0852 12.8067 28.8555C11.2215 28.5461 9.94967 28.6047 9.02467 28.7656C7.24889 29.075 6.32936 29.8094 6.29108 29.8399C6.17389 29.9352 6.15592 30.1078 6.25123 30.225ZM2.95748 27.1117C3.01608 27.2508 3.17701 27.3164 3.31608 27.2578C3.32858 27.2524 4.64655 26.7125 6.93248 26.7078H6.96451C8.32858 26.7078 10.22 26.9039 12.5067 27.6406C13.763 28.0453 15.1387 28.6141 16.6114 29.4024C16.6528 29.4242 16.6965 29.4352 16.7403 29.4352C16.838 29.4352 16.9325 29.3828 16.9817 29.2906C17.0528 29.1571 17.0028 28.9914 16.87 28.9203C15.1965 28.0242 13.6426 27.4063 12.2411 26.986C10.0473 26.3289 8.22467 26.157 6.89498 26.161C4.51139 26.1719 3.15983 26.7297 3.10358 26.7539C2.96452 26.8125 2.89889 26.9727 2.95748 27.1117Z" fill="#EBD9EA"/>
<path d="M9.39167 32.6828C9.32761 32.8195 9.3862 32.982 9.52292 33.0468C9.56042 33.064 9.60027 33.0726 9.63933 33.0726C9.74167 33.0726 9.84011 33.014 9.88699 32.9148C9.88933 32.9085 10.2479 32.1835 11.237 31.7242C11.6745 31.521 12.1706 31.3992 12.7175 31.3585C12.7589 31.1742 12.7932 30.9875 12.8182 30.7976C12.137 30.8335 11.519 30.9835 10.9659 31.2476C9.81745 31.796 9.40886 32.6468 9.39167 32.6828Z" fill="white"/>
<path d="M6.25167 30.2251C6.34698 30.3422 6.51885 30.3602 6.63604 30.2649C6.64463 30.2587 7.50792 29.5774 9.15713 29.2977C10.0556 29.1454 11.3024 29.0977 12.8673 29.4251C12.8556 29.2329 12.8353 29.043 12.8071 28.8555C11.222 28.5461 9.9501 28.6047 9.0251 28.7657C7.24932 29.0751 6.32979 29.8094 6.29151 29.8399C6.17432 29.9352 6.15635 30.1079 6.25167 30.2251Z" fill="white"/>
<path d="M2.95748 27.1117C3.01608 27.2508 3.17701 27.3164 3.31608 27.2578C3.32858 27.2524 4.64655 26.7125 6.93248 26.7078H6.96451C8.32858 26.7078 10.22 26.9039 12.5067 27.6406C12.4301 27.4164 12.3411 27.1985 12.2411 26.986C10.0473 26.3289 8.22467 26.157 6.89498 26.161C4.51139 26.1719 3.15983 26.7297 3.10358 26.7539C2.96452 26.8125 2.89889 26.9727 2.95748 27.1117Z" fill="white"/>
</svg>
