<svg width="40" height="40" viewBox="0 0 40 40" fill="none" xmlns="http://www.w3.org/2000/svg">
<path d="M20 40C31.0457 40 40 31.0457 40 20C40 8.9543 31.0457 0 20 0C8.9543 0 0 8.9543 0 20C0 31.0457 8.9543 40 20 40Z" fill="#6C53A2"/>
<path d="M30.8752 22.9358V25.3774C30.8752 30.3494 26.845 34.3806 21.8729 34.3806H18.1282C13.1563 34.3806 9.12598 30.3495 9.12598 25.3774V22.9358H30.8752Z" fill="#EA792E"/>
<path d="M30.8751 22.9358V25.3774C30.8751 27.9817 29.7698 30.3273 28.0019 31.9713C26.3948 33.4657 24.2406 34.3806 21.8729 34.3806H21.7019C18.6447 32.4381 16.6772 29.4031 16.6772 25.992C16.6772 24.9302 16.8685 23.9034 17.2234 22.9359H30.8751V22.9358Z" fill="#F39E22"/>
<path d="M30.8746 22.9358V25.3774C30.8746 27.9817 29.7693 30.3273 28.0014 31.9713C25.2918 31.6534 23.1865 29.2728 23.1865 26.382C23.1865 25.0836 23.6117 23.8877 24.3261 22.9359H30.8746V22.9358Z" fill="#F9C744"/>
<path d="M31.7684 19.2668V20.3565C31.7684 22.6622 29.8988 24.5318 27.593 24.5318H12.4073C10.1015 24.5318 8.23193 22.6622 8.23193 20.3565V19.2668C8.23193 18.0867 8.731 16.962 9.60521 16.1709L14.1863 12.0242C14.9543 11.3293 15.9533 10.9448 16.9883 10.9448H23.012C24.0471 10.9448 25.0461 11.3293 25.814 12.0242L30.3951 16.1709C31.2694 16.962 31.7684 18.0867 31.7684 19.2668Z" fill="#53B976"/>
<path d="M31.7688 19.2668V20.3565C31.7688 22.6622 29.8992 24.5318 27.5934 24.5318H20.0005V10.9448H23.0124C24.0474 10.9448 25.0464 11.3293 25.8144 12.0242L30.3955 16.1709C31.2697 16.962 31.7688 18.0867 31.7688 19.2668Z" fill="#78C795"/>
<path d="M25.814 12.0245L28.1851 9.65342C28.5788 9.25975 29.1127 9.03857 29.6694 9.03857C30.8287 9.03857 31.7686 9.97842 31.7686 11.1377V19.2665H29.0408C27.2587 19.2665 25.814 17.8219 25.814 16.0397V12.0245H25.814Z" fill="#9ACDAE"/>
<path d="M26.7506 12.8139C26.4217 12.485 26.4217 11.9517 26.7506 11.6228L28.0461 10.3272C28.375 9.99834 28.9083 9.99834 29.2372 10.3272C29.5661 10.6562 29.5661 11.1894 29.2372 11.5183L27.9417 12.8139C27.6128 13.1428 27.0795 13.1428 26.7506 12.8139Z" fill="white"/>
<path d="M34.7292 13.5194V16.3057C34.7292 17.1236 34.3975 17.8639 33.8614 18.3999C33.7653 18.496 33.6627 18.5857 33.5537 18.6679C33.0574 19.0432 32.4382 19.2667 31.7682 19.2667C30.1333 19.2667 28.8081 17.9415 28.8081 16.3057V13.5194C28.8081 13.0703 28.908 12.6442 29.0872 12.2635C29.5594 11.2561 30.5825 10.5593 31.7682 10.5593C33.403 10.5593 34.7292 11.8846 34.7292 13.5194Z" fill="#F39E22"/>
<path d="M34.7289 13.5194V16.3057C34.7289 17.1236 34.3972 17.8639 33.8611 18.3999C33.765 18.496 33.6625 18.5857 33.5534 18.6679C31.1977 17.3722 29.5 15.0276 29.0869 12.2635C29.5592 11.2561 30.5822 10.5593 31.7679 10.5593C33.4028 10.5593 34.7289 11.8846 34.7289 13.5194Z" fill="#F9C744"/>
<path d="M31.769 11.3738C30.5069 11.3738 29.4839 12.3968 29.4839 13.6589V16.1672C29.4839 17.4292 30.5069 18.4523 31.769 18.4523C33.031 18.4523 34.054 17.4292 34.054 16.1672V13.6589C34.054 12.3968 33.031 11.3738 31.769 11.3738Z" fill="#F4E6F4"/>
<path d="M34.0535 13.6775V16.1478H31.2911C30.7699 16.1478 30.3467 15.7255 30.3467 15.2042V14.622C30.3467 14.1008 30.77 13.6776 31.2911 13.6776H34.0535V13.6775Z" fill="#3F5D77"/>
<path d="M34.054 13.6775V16.1478H31.8776C31.8064 15.7467 31.7686 15.3345 31.7686 14.9131C31.7686 14.4917 31.8064 14.0786 31.8776 13.6775H34.054Z" fill="#334353"/>
<path d="M33.3457 14.6408C33.9783 14.6408 34.4911 14.1279 34.4911 13.4953C34.4911 12.8627 33.9783 12.3499 33.3457 12.3499C32.713 12.3499 32.2002 12.8627 32.2002 13.4953C32.2002 14.1279 32.713 14.6408 33.3457 14.6408Z" fill="white"/>
<path d="M14.1855 12.0245L11.8144 9.65342C11.4207 9.25975 10.8868 9.03857 10.3301 9.03857C9.1708 9.03857 8.23096 9.97842 8.23096 11.1377V19.2665H10.9587C12.7409 19.2665 14.1856 17.8219 14.1856 16.0397V12.0245H14.1855Z" fill="#78C795"/>
<path d="M13.2494 12.8139C13.5783 12.485 13.5783 11.9517 13.2494 11.6228L11.9539 10.3272C11.625 9.99834 11.0917 9.99834 10.7628 10.3272C10.4339 10.6562 10.4339 11.1894 10.7628 11.5183L12.0583 12.8139C12.3872 13.1428 12.9205 13.1428 13.2494 12.8139Z" fill="white"/>
<path d="M5.27051 13.5194V16.3057C5.27051 17.1236 5.6023 17.8639 6.13832 18.3999C6.23441 18.496 6.33699 18.5857 6.44605 18.6679C6.9423 19.0432 7.56152 19.2667 8.23152 19.2667C9.86636 19.2667 11.1916 17.9415 11.1916 16.3057V13.5194C11.1916 13.0703 11.0918 12.6442 10.9125 12.2635C10.4403 11.2561 9.41722 10.5593 8.23152 10.5593C6.59668 10.5593 5.27051 11.8846 5.27051 13.5194Z" fill="#EA792E"/>
<path d="M5.27051 13.5194V16.3057C5.27051 17.1236 5.60231 17.8639 6.13832 18.3999C6.23442 18.496 6.33699 18.5857 6.44606 18.6679C8.80176 17.3722 10.4994 15.0276 10.9125 12.2635C10.4403 11.2561 9.41723 10.5593 8.23153 10.5593C6.59668 10.5593 5.27051 11.8846 5.27051 13.5194Z" fill="#F39E22"/>
<path d="M8.23088 11.3738C9.49291 11.3738 10.516 12.3968 10.516 13.6589V16.1672C10.516 17.4292 9.49291 18.4523 8.23088 18.4523C6.96885 18.4523 5.9458 17.4292 5.9458 16.1672V13.6589C5.9458 12.3968 6.96885 11.3738 8.23088 11.3738Z" fill="#F4E6F4"/>
<path d="M5.9458 13.6775V16.1478H8.70814C9.22939 16.1478 9.6526 15.7255 9.6526 15.2042V14.622C9.6526 14.1008 9.22932 13.6776 8.70814 13.6776H5.9458V13.6775Z" fill="#3F5D77"/>
<path d="M5.9458 13.6775V16.1478H8.12221C8.19338 15.7467 8.23127 15.3345 8.23127 14.9131C8.23127 14.4917 8.19338 14.0786 8.12221 13.6775H5.9458Z" fill="#334353"/>
<path d="M6.65426 14.6408C7.28688 14.6408 7.79973 14.1279 7.79973 13.4953C7.79973 12.8627 7.28688 12.3499 6.65426 12.3499C6.02163 12.3499 5.50879 12.8627 5.50879 13.4953C5.50879 14.1279 6.02163 14.6408 6.65426 14.6408Z" fill="white"/>
<path d="M31.575 23.1583C30.6629 24.4522 29.175 25.2247 27.5937 25.2247H12.408C10.8268 25.2247 9.33887 24.4522 8.42668 23.1583C8.20582 22.846 8.28067 22.4135 8.59395 22.1926C8.90629 21.9717 9.33879 22.0465 9.55973 22.3598C10.2122 23.2858 11.2768 23.8385 12.408 23.8385H27.5938C28.725 23.8385 29.7896 23.2858 30.4421 22.3598C30.6629 22.0465 31.0954 21.9717 31.4079 22.1926C31.7211 22.4135 31.7959 22.846 31.575 23.1583Z" fill="#50755C"/>
<path d="M31.5747 23.1583C30.6626 24.4522 29.1746 25.2247 27.5934 25.2247H20.0005V23.8385H27.5934C28.7245 23.8385 29.7891 23.2858 30.4416 22.3598C30.6625 22.0465 31.095 21.9717 31.4074 22.1926C31.7207 22.4135 31.7956 22.846 31.5747 23.1583Z" fill="#528F66"/>
<path d="M20.0005 17.7383H23.7331C24.0995 17.7383 24.3964 18.0352 24.3964 18.4016C24.3964 18.7679 24.0995 19.0648 23.7331 19.0648H23.0045C22.0504 19.0648 22.0753 22.1004 20.0005 22.1004V17.7383Z" fill="#9ACDAE"/>
<path d="M19.9999 17.7383H16.2673C15.901 17.7383 15.604 18.0352 15.604 18.4016C15.604 18.7679 15.901 19.0648 16.2673 19.0648H16.996C17.95 19.0648 17.9251 22.1004 19.9999 22.1004V17.7383Z" fill="#78C795"/>
<path d="M23.3227 18.4018C23.3227 18.5848 23.2488 18.7502 23.1287 18.8704C23.0085 18.9905 22.8422 19.0645 22.6592 19.0645H17.3398C16.9729 19.0645 16.6763 18.7678 16.6763 18.4018C16.6763 18.2179 16.7502 18.0525 16.8703 17.9323C16.9905 17.8122 17.1568 17.7383 17.3398 17.7383H22.6592C23.026 17.7383 23.3227 18.0349 23.3227 18.4018Z" fill="#9ACDAE"/>
<path d="M23.3238 18.4018C23.3238 18.5848 23.2499 18.7502 23.1297 18.8704C23.0096 18.9905 22.8432 19.0645 22.6603 19.0645H20.0005V17.7383H22.6603C23.0271 17.7383 23.3238 18.0349 23.3238 18.4018Z" fill="white"/>
</svg>
