<svg width="40" height="40" viewBox="0 0 40 40" fill="none" xmlns="http://www.w3.org/2000/svg">
<path d="M20 40C31.0457 40 40 31.0457 40 20C40 8.9543 31.0457 0 20 0C8.9543 0 0 8.9543 0 20C0 31.0457 8.9543 40 20 40Z" fill="#53B976"/>
<path d="M25.087 22.5602C25.087 23.0279 24.7076 23.4074 24.2392 23.4074H21.089C20.6208 23.4074 20.2412 23.028 20.2412 22.5602C20.2375 22.1 20.6219 21.7092 21.089 21.7124H24.2392C24.7114 21.7109 25.09 22.102 25.087 22.5602Z" fill="#2E3140"/>
<path d="M25.0159 22.2193C24.8846 22.5178 24.5861 22.7262 24.2392 22.7262H21.0891C20.7423 22.7262 20.4438 22.5178 20.3125 22.2193C20.447 21.9152 20.7451 21.7132 21.0891 21.7124H24.2392C24.586 21.7125 24.8845 21.9208 25.0159 22.2193Z" fill="#334353"/>
<path d="M23.5757 22.0627H21.7522C21.3858 22.0627 21.0889 22.3598 21.0889 22.7261H24.239C24.239 22.3597 23.942 22.0627 23.5757 22.0627Z" fill="#3F5D77"/>
<path d="M28.0986 26.2535C27.9009 26.4511 27.5802 26.4511 27.3823 26.2532L24.9507 23.8216C24.7528 23.6237 24.7528 23.303 24.9505 23.1053C25.1434 22.9092 25.4709 22.9066 25.667 23.1053L28.0987 25.537C28.2987 25.7358 28.2935 26.061 28.0986 26.2535Z" fill="#2E3140"/>
<path d="M28.2128 26.0793C28.0311 26.1499 27.817 26.1119 27.6704 25.9653L25.2388 23.5337C25.0922 23.3871 25.0541 23.1729 25.1248 22.9914C25.3101 22.9197 25.5215 22.9603 25.6671 23.1053L28.0988 25.537C28.2454 25.6835 28.2835 25.8977 28.2128 26.0793Z" fill="#334353"/>
<path d="M27.6704 25.4046L25.7994 23.5336C25.6446 23.3788 25.3935 23.3788 25.2388 23.5336L27.6704 25.9652C27.8252 25.8104 27.8252 25.5594 27.6704 25.4046Z" fill="#3F5D77"/>
<path d="M29.7403 32.3904C29.8344 32.2963 29.8344 32.1437 29.7403 32.0497L28.9234 31.2328C28.6934 31.014 28.3636 31.343 28.5827 31.5735L29.3996 32.3904C29.4937 32.4845 29.6462 32.4845 29.7403 32.3904Z" fill="#2E3140"/>
<path d="M29.2012 32.9297C29.2953 32.8356 29.2953 32.6831 29.2012 32.589L28.3844 31.7721C28.1544 31.5533 27.8245 31.8823 28.0437 32.1128L28.8605 32.9297C28.9547 33.0238 29.1072 33.0238 29.2012 32.9297Z" fill="#2E3140"/>
<path d="M28.2475 31.8807C27.968 31.8807 27.7412 31.6539 27.7412 31.3741V26.8724C27.7412 26.5925 27.968 26.3657 28.2475 26.3657C28.5225 26.3636 28.7561 26.5932 28.7541 26.8724V31.3741C28.755 31.6563 28.5214 31.8825 28.2475 31.8807Z" fill="#2E3140"/>
<path d="M28.4513 31.8382C28.273 31.7598 28.1484 31.5813 28.1484 31.3741V26.8723C28.1484 26.6651 28.273 26.4867 28.4513 26.4082C28.633 26.4886 28.7538 26.6667 28.7542 26.8723V31.3741C28.7542 31.5813 28.6297 31.7597 28.4513 31.8382Z" fill="#334353"/>
<path d="M28.5448 30.9775V27.2687C28.5448 27.0497 28.3673 26.8723 28.1484 26.8723V31.374C28.3673 31.374 28.5448 31.1965 28.5448 30.9775Z" fill="#3F5D77"/>
<path d="M14.9126 22.5602C14.9126 23.0279 15.2921 23.4074 15.7604 23.4074H18.9106C19.3789 23.4074 19.7584 23.028 19.7584 22.5602C19.7621 22.1 19.3778 21.7092 18.9106 21.7124H15.7604C15.2882 21.7109 14.9096 22.102 14.9126 22.5602Z" fill="#2E3140"/>
<path d="M14.9839 22.2193C15.1151 22.5178 15.4137 22.7262 15.7605 22.7262H18.9107C19.2575 22.7262 19.556 22.5178 19.6872 22.2193C19.5528 21.9152 19.2547 21.7132 18.9107 21.7124H15.7605C15.4137 21.7125 15.1152 21.9208 14.9839 22.2193Z" fill="#334353"/>
<path d="M16.4236 22.0627H18.2471C18.6135 22.0627 18.9104 22.3598 18.9104 22.7261H15.7603C15.7603 22.3597 16.0573 22.0627 16.4236 22.0627Z" fill="#3F5D77"/>
<path d="M11.9001 26.2535C12.0978 26.4511 12.4185 26.4511 12.6164 26.2532L15.048 23.8216C15.2459 23.6237 15.2459 23.303 15.0483 23.1053C14.8553 22.9092 14.5278 22.9066 14.3317 23.1053L11.9 25.537C11.7 25.7358 11.7052 26.061 11.9001 26.2535Z" fill="#2E3140"/>
<path d="M11.7864 26.0793C11.9681 26.1499 12.1822 26.1119 12.3288 25.9653L14.7604 23.5337C14.907 23.3871 14.9451 23.1729 14.8744 22.9914C14.6891 22.9197 14.4777 22.9603 14.332 23.1053L11.9004 25.537C11.7538 25.6835 11.7157 25.8977 11.7864 26.0793Z" fill="#334353"/>
<path d="M12.329 25.4046L14.2 23.5336C14.3549 23.3788 14.6059 23.3788 14.7607 23.5336L12.329 25.9652C12.1742 25.8104 12.1742 25.5594 12.329 25.4046Z" fill="#3F5D77"/>
<path d="M10.2585 32.3904C10.1645 32.2963 10.1645 32.1437 10.2585 32.0497L11.0754 31.2328C11.3054 31.014 11.6353 31.343 11.4161 31.5735L10.5992 32.3904C10.5052 32.4845 10.3526 32.4845 10.2585 32.3904Z" fill="#2E3140"/>
<path d="M10.7976 32.9297C10.7035 32.8356 10.7035 32.6831 10.7976 32.589L11.6145 31.7721C11.8445 31.5533 12.1743 31.8823 11.9552 32.1128L11.1383 32.9297C11.0442 33.0238 10.8917 33.0238 10.7976 32.9297Z" fill="#2E3140"/>
<path d="M11.7518 31.8807C12.0312 31.8807 12.258 31.6539 12.258 31.3741V26.8724C12.258 26.5925 12.0312 26.3657 11.7518 26.3657C11.4767 26.3636 11.2432 26.5932 11.2451 26.8724V31.3741C11.2442 31.6563 11.4779 31.8825 11.7518 31.8807Z" fill="#2E3140"/>
<path d="M11.548 31.8382C11.7264 31.7598 11.8509 31.5813 11.8509 31.3741V26.8723C11.8509 26.6651 11.7264 26.4867 11.548 26.4082C11.3663 26.4886 11.2455 26.6667 11.2451 26.8723V31.3741C11.2451 31.5813 11.3696 31.7597 11.548 31.8382Z" fill="#334353"/>
<path d="M11.4551 30.9775V27.2687C11.4551 27.0497 11.6326 26.8723 11.8515 26.8723V31.374C11.6326 31.374 11.4551 31.1965 11.4551 30.9775Z" fill="#3F5D77"/>
<path d="M26.8282 19.9919C26.8282 20.4595 26.4488 20.8391 25.9804 20.8391H22.8303C22.362 20.8391 21.9824 20.4596 21.9824 19.9919C21.9787 19.5316 22.3631 19.1409 22.8303 19.1441H25.9804C26.4526 19.1425 26.8312 19.5335 26.8282 19.9919Z" fill="#2E3140"/>
<path d="M26.7571 19.6509C26.6258 19.9494 26.3273 20.1578 25.9804 20.1578H22.8303C22.4835 20.1578 22.185 19.9494 22.0537 19.6509C22.1882 19.3469 22.4863 19.1448 22.8303 19.144H25.9804C26.3272 19.144 26.6257 19.3524 26.7571 19.6509Z" fill="#334353"/>
<path d="M25.3169 19.4944H23.4934C23.127 19.4944 22.8301 19.7914 22.8301 20.1577H25.9802C25.9802 19.7914 25.6832 19.4944 25.3169 19.4944Z" fill="#3F5D77"/>
<path d="M31.3111 19.9918C31.3111 20.2712 31.0843 20.498 30.8044 20.498H27.3655C27.0857 20.498 26.8589 20.2712 26.8589 19.9918C26.8567 19.7167 27.0864 19.4832 27.3655 19.4851H30.8044C31.0865 19.4842 31.3128 19.7179 31.3111 19.9918Z" fill="#2E3140"/>
<path d="M31.2686 19.788C31.1901 19.9664 31.0117 20.0909 30.8044 20.0909H27.3655C27.1582 20.0909 26.9799 19.9664 26.9014 19.788C26.9817 19.6063 27.1599 19.4855 27.3655 19.4851H30.8044C31.0118 19.4851 31.1901 19.6096 31.2686 19.788Z" fill="#334353"/>
<path d="M30.4077 19.6946H27.7616C27.5427 19.6946 27.3652 19.8721 27.3652 20.091H30.8041C30.8041 19.8721 30.6266 19.6946 30.4077 19.6946Z" fill="#3F5D77"/>
<path d="M36.3896 23.676C36.3896 23.5429 36.2817 23.4351 36.1487 23.4351H34.9934C34.8603 23.4351 34.7524 23.5429 34.7524 23.676C34.7524 23.809 34.8603 23.9169 34.9934 23.9169H36.1487C36.2818 23.9169 36.3896 23.809 36.3896 23.676Z" fill="#2E3140"/>
<path d="M36.3896 24.4387C36.3896 24.3056 36.2817 24.1978 36.1487 24.1978H34.9934C34.8603 24.1978 34.7524 24.3056 34.7524 24.4387C34.7524 24.5717 34.8603 24.6796 34.9934 24.6796H36.1487C36.2818 24.6796 36.3896 24.5717 36.3896 24.4387Z" fill="#2E3140"/>
<path d="M34.9732 24.3717C34.7755 24.5694 34.4548 24.5694 34.2569 24.3715L31.0737 21.1883C30.8758 20.9904 30.8758 20.6697 31.0735 20.472C31.2665 20.2759 31.594 20.2733 31.7901 20.472L34.9733 23.6553C35.1734 23.8541 35.1682 24.1793 34.9732 24.3717Z" fill="#2E3140"/>
<path d="M35.0879 24.1976C34.9062 24.2682 34.6921 24.2302 34.5455 24.0836L31.3623 20.9004C31.2158 20.7538 31.1776 20.5396 31.2483 20.3581C31.4336 20.2864 31.6451 20.327 31.7907 20.472L34.9739 23.6552C35.1204 23.8018 35.1585 24.0159 35.0879 24.1976Z" fill="#334353"/>
<path d="M34.5449 23.5228L31.9224 20.9003C31.7676 20.7455 31.5166 20.7455 31.3618 20.9003L34.545 24.0835C34.6998 23.9287 34.6998 23.6776 34.5449 23.5228Z" fill="#3F5D77"/>
<path d="M13.1709 19.9919C13.1709 20.4595 13.5504 20.8391 14.0187 20.8391H17.1689C17.6372 20.8391 18.0167 20.4596 18.0167 19.9919C18.0205 19.5316 17.6361 19.1409 17.1689 19.1441H14.0187C13.5465 19.1425 13.1679 19.5335 13.1709 19.9919Z" fill="#2E3140"/>
<path d="M13.2422 19.6509C13.3734 19.9494 13.672 20.1578 14.0188 20.1578H17.169C17.5158 20.1578 17.8143 19.9494 17.9455 19.6509C17.8111 19.3469 17.513 19.1448 17.169 19.144H14.0188C13.672 19.144 13.3735 19.3524 13.2422 19.6509Z" fill="#334353"/>
<path d="M14.6819 19.4944H16.5054C16.8718 19.4944 17.1687 19.7914 17.1687 20.1577H14.0186C14.0186 19.7914 14.3156 19.4944 14.6819 19.4944Z" fill="#3F5D77"/>
<path d="M8.68849 19.9918C8.68849 20.2712 8.91528 20.498 9.19513 20.498H12.634C12.9139 20.498 13.1407 20.2712 13.1407 19.9918C13.1429 19.7167 12.9132 19.4832 12.634 19.4851H9.19513C8.91302 19.4842 8.68677 19.7179 8.68849 19.9918Z" fill="#2E3140"/>
<path d="M8.73145 19.788C8.80988 19.9664 8.98832 20.0909 9.19559 20.0909H12.6345C12.8418 20.0909 13.0201 19.9664 13.0986 19.788C13.0183 19.6063 12.8401 19.4855 12.6345 19.4851H9.19559C8.98824 19.4851 8.80988 19.6096 8.73145 19.788Z" fill="#334353"/>
<path d="M9.59131 19.6946H12.2373C12.4563 19.6946 12.6337 19.8721 12.6337 20.091H9.19482C9.1949 19.8721 9.37232 19.6946 9.59131 19.6946Z" fill="#3F5D77"/>
<path d="M3.60938 23.676C3.60938 23.5429 3.71727 23.4351 3.85031 23.4351H5.00563C5.13868 23.4351 5.24657 23.5429 5.24657 23.676C5.24657 23.809 5.13868 23.9169 5.00563 23.9169H3.85023C3.71719 23.9169 3.60938 23.809 3.60938 23.676Z" fill="#2E3140"/>
<path d="M3.60938 24.4387C3.60938 24.3056 3.71727 24.1978 3.85031 24.1978H5.00563C5.13868 24.1978 5.24657 24.3056 5.24657 24.4387C5.24657 24.5717 5.13868 24.6796 5.00563 24.6796H3.85023C3.71719 24.6796 3.60938 24.5717 3.60938 24.4387Z" fill="#2E3140"/>
<path d="M5.02616 24.3717C5.22381 24.5694 5.54452 24.5694 5.74241 24.3715L8.92561 21.1883C9.1235 20.9904 9.1235 20.6697 8.92584 20.472C8.73287 20.2759 8.40538 20.2733 8.20928 20.472L5.02608 23.6553C4.82592 23.8541 4.83116 24.1793 5.02616 24.3717Z" fill="#2E3140"/>
<path d="M4.91185 24.1976C5.09349 24.2682 5.30764 24.2302 5.4542 24.0836L8.6374 20.9004C8.78396 20.7538 8.82209 20.5396 8.75138 20.3581C8.56607 20.2864 8.35467 20.327 8.20904 20.472L5.02584 23.6552C4.87935 23.8018 4.84123 24.0159 4.91185 24.1976Z" fill="#334353"/>
<path d="M5.45452 23.5228L8.07702 20.9003C8.23186 20.7455 8.48288 20.7455 8.63765 20.9003L5.45444 24.0835C5.29968 23.9287 5.29968 23.6776 5.45452 23.5228Z" fill="#3F5D77"/>
<path d="M25.5087 14.9631C25.8394 15.2938 25.8394 15.8304 25.5082 16.1616L23.2808 18.3891C22.9496 18.7203 22.4129 18.7203 22.0822 18.3895C21.7541 18.0667 21.7497 17.5186 22.0822 17.1906L24.3097 14.9631C24.6425 14.6281 25.1867 14.6368 25.5087 14.9631Z" fill="#2E3140"/>
<path d="M25.2171 14.7723C25.3353 15.0762 25.2716 15.4345 25.0263 15.6798L22.7988 17.9073C22.5536 18.1526 22.1952 18.2163 21.8913 18.0981C21.7714 17.788 21.8394 17.4344 22.082 17.1905L24.3095 14.963C24.5549 14.7177 24.9132 14.654 25.2171 14.7723Z" fill="#334353"/>
<path d="M24.0887 15.6799L22.7993 16.9693C22.5402 17.2283 22.5402 17.6483 22.7993 17.9074L25.0268 15.6799C24.7678 15.4208 24.3477 15.4208 24.0887 15.6799Z" fill="#3F5D77"/>
<path d="M28.6878 11.784C28.8855 11.9816 28.8855 12.3023 28.6876 12.5002L26.2559 14.9319C26.058 15.1297 25.7373 15.1297 25.5397 14.9321C25.3436 14.7391 25.3409 14.4116 25.5397 14.2155L27.9713 11.7839C28.1701 11.5837 28.4954 11.589 28.6878 11.784Z" fill="#2E3140"/>
<path d="M28.5132 11.6699C28.5838 11.8516 28.5457 12.0657 28.3992 12.2123L25.9675 14.6439C25.821 14.7905 25.6068 14.8286 25.4252 14.7579C25.3535 14.5726 25.3941 14.3612 25.5392 14.2156L27.9708 11.7839C28.1174 11.6373 28.3315 11.5993 28.5132 11.6699Z" fill="#334353"/>
<path d="M27.8387 12.2123L25.9677 14.0833C25.8129 14.2382 25.8129 14.4892 25.9677 14.644L28.3993 12.2123C28.2446 12.0575 27.9935 12.0575 27.8387 12.2123Z" fill="#3F5D77"/>
<path d="M34.0122 15.7771C34.0122 15.644 33.9043 15.5361 33.7713 15.5361H32.6159C32.4829 15.5361 32.375 15.644 32.375 15.7771C32.375 15.9101 32.4829 16.018 32.6159 16.018H33.7713C33.9043 16.0179 34.0122 15.9101 34.0122 15.7771Z" fill="#2E3140"/>
<path d="M34.0122 16.5395C34.0122 16.4065 33.9043 16.2986 33.7713 16.2986H32.6159C32.4829 16.2986 32.375 16.4065 32.375 16.5395C32.375 16.6726 32.4829 16.7805 32.6159 16.7805H33.7713C33.9043 16.7804 34.0122 16.6726 34.0122 16.5395Z" fill="#2E3140"/>
<path d="M32.5958 16.4728C32.3981 16.6705 32.0774 16.6705 31.8795 16.4726L28.6963 13.2894C28.4984 13.0915 28.4984 12.7708 28.6961 12.5731C28.889 12.3771 29.2165 12.3743 29.4126 12.5731L32.5958 15.7564C32.7959 15.9552 32.7907 16.2804 32.5958 16.4728Z" fill="#2E3140"/>
<path d="M32.7099 16.2987C32.5283 16.3693 32.3141 16.3312 32.1676 16.1847L28.9844 13.0015C28.8378 12.8549 28.7997 12.6407 28.8704 12.4591C29.0557 12.3875 29.2671 12.428 29.4127 12.5731L32.5959 15.7563C32.7425 15.9029 32.7806 16.1171 32.7099 16.2987Z" fill="#334353"/>
<path d="M32.1675 15.6241L29.545 13.0016C29.3902 12.8468 29.1391 12.8468 28.9844 13.0016L32.1676 16.1848C32.3224 16.0299 32.3224 15.7789 32.1675 15.6241Z" fill="#3F5D77"/>
<path d="M14.4911 14.9631C14.1604 15.2938 14.1604 15.8304 14.4916 16.1616L16.7191 18.3891C17.0503 18.7203 17.5869 18.7203 17.9176 18.3895C18.2457 18.0667 18.2502 17.5186 17.9176 17.1906L15.6901 14.9631C15.3573 14.6281 14.8132 14.6368 14.4911 14.9631Z" fill="#2E3140"/>
<path d="M14.7822 14.7723C14.664 15.0762 14.7278 15.4345 14.973 15.6798L17.2005 17.9073C17.4457 18.1526 17.8042 18.2163 18.108 18.0981C18.2279 17.788 18.16 17.4344 17.9173 17.1905L15.6898 14.963C15.4445 14.7177 15.0861 14.654 14.7822 14.7723Z" fill="#334353"/>
<path d="M15.9118 15.6799L17.2011 16.9693C17.4602 17.2283 17.4602 17.6483 17.2011 17.9074L14.9736 15.6799C15.2326 15.4208 15.6527 15.4208 15.9118 15.6799Z" fill="#3F5D77"/>
<path d="M11.3118 11.784C11.1141 11.9816 11.1141 12.3023 11.312 12.5002L13.7437 14.9319C13.9416 15.1297 14.2623 15.1297 14.4599 14.9321C14.656 14.7391 14.6587 14.4116 14.4599 14.2155L12.0283 11.7839C11.8294 11.5837 11.5042 11.589 11.3118 11.784Z" fill="#2E3140"/>
<path d="M11.4856 11.6699C11.415 11.8516 11.453 12.0657 11.5996 12.2123L14.0312 14.6439C14.1778 14.7905 14.392 14.8286 14.5736 14.7579C14.6452 14.5726 14.6047 14.3612 14.4596 14.2156L12.0279 11.7839C11.8814 11.6373 11.6672 11.5993 11.4856 11.6699Z" fill="#334353"/>
<path d="M12.1607 12.2123L14.0317 14.0833C14.1866 14.2382 14.1866 14.4892 14.0317 14.644L11.6001 12.2123C11.7549 12.0575 12.0059 12.0575 12.1607 12.2123Z" fill="#3F5D77"/>
<path d="M5.9873 15.7771C5.9873 15.644 6.0952 15.5361 6.22824 15.5361H7.38355C7.5166 15.5361 7.62449 15.644 7.62449 15.7771C7.62449 15.9101 7.5166 16.018 7.38355 16.018H6.22824C6.0952 16.0179 5.9873 15.9101 5.9873 15.7771Z" fill="#2E3140"/>
<path d="M5.9873 16.5395C5.9873 16.4065 6.0952 16.2986 6.22824 16.2986H7.38355C7.5166 16.2986 7.62449 16.4065 7.62449 16.5395C7.62449 16.6726 7.5166 16.7805 7.38355 16.7805H6.22824C6.0952 16.7804 5.9873 16.6726 5.9873 16.5395Z" fill="#2E3140"/>
<path d="M7.40354 16.4728C7.6012 16.6705 7.9219 16.6705 8.11979 16.4726L11.303 13.2894C11.5009 13.0915 11.5009 12.7708 11.3032 12.5731C11.1103 12.3771 10.7828 12.3743 10.5867 12.5731L7.40346 15.7564C7.20339 15.9552 7.20862 16.2804 7.40354 16.4728Z" fill="#2E3140"/>
<path d="M7.28984 16.2987C7.47148 16.3693 7.68562 16.3312 7.83218 16.1847L11.0154 13.0015C11.1619 12.8549 11.2001 12.6407 11.1294 12.4591C10.9441 12.3875 10.7326 12.428 10.587 12.5731L7.40382 15.7563C7.25726 15.9029 7.21913 16.1171 7.28984 16.2987Z" fill="#334353"/>
<path d="M7.83196 15.6241L10.4545 13.0016C10.6093 12.8468 10.8603 12.8468 11.0151 13.0016L7.83188 16.1848C7.67712 16.0299 7.67712 15.7789 7.83196 15.6241Z" fill="#3F5D77"/>
<path d="M18.7148 14.1638H21.2856V15.9384H18.7148V14.1638Z" fill="#2E3140"/>
<path d="M20 14.1638H21.2854V15.9384H20V14.1638Z" fill="#334353"/>
<path d="M18.7148 21.4727H21.2856V25.5369H18.7148V21.4727Z" fill="#2E3140"/>
<path d="M20 21.4727H21.2854V25.5369H20V21.4727Z" fill="#334353"/>
<path d="M24.4222 27.3751V31.7718C24.4222 32.9928 23.9277 34.0986 23.1272 34.8991C20.398 37.6596 15.5661 35.7045 15.5777 31.7717V27.3751C15.5777 25.8182 16.8392 24.5566 18.3961 24.5566H21.6038C23.1606 24.5566 24.4222 25.8182 24.4222 27.3751Z" fill="#334353"/>
<path d="M24.4218 27.3751V31.7718C24.4223 34.2142 22.4419 36.194 19.9995 36.1941V24.5566H21.6033C23.1602 24.5566 24.4218 25.8182 24.4218 27.3751Z" fill="#3E4E60"/>
<path d="M20 33.0124V25.4854H21.291C22.4334 25.4854 23.3596 26.4115 23.3596 27.5539V29.6528C23.3596 31.5083 21.8555 33.0124 20 33.0124Z" fill="#3F5D77"/>
<path d="M19.9998 33.0124V25.4854H18.7087C17.5663 25.4854 16.6401 26.4115 16.6401 27.5539V29.6528C16.6401 31.5083 18.1443 33.0124 19.9998 33.0124Z" fill="#3E4E60"/>
<path d="M21.3206 28.7487H19.9995V26.5249H21.3206C22.7957 26.5836 22.7949 28.6904 21.3206 28.7487Z" fill="#3F6C8E"/>
<path d="M18.6788 26.5249H19.9999V28.7487H18.6788C17.2037 28.69 17.2045 26.5832 18.6788 26.5249Z" fill="#3F5D77"/>
<path d="M23.0671 18.6869C23.0671 19.5344 22.7235 21.722 22.1685 22.2769C21.6135 22.8326 20.8464 23.1756 19.9996 23.1756C19.1528 23.1756 18.3858 22.8326 17.8308 22.2769C17.2758 21.7219 16.9321 19.5343 16.9321 18.6869C16.9321 16.9927 18.3054 15.6194 19.9996 15.6194C21.6932 15.6192 23.0669 16.9927 23.0671 18.6869Z" fill="#334353"/>
<path d="M23.0675 18.6869C23.0675 19.5344 22.7238 21.722 22.1688 22.2769C21.6138 22.8326 20.8468 23.1756 20 23.1756V15.6194C21.6936 15.6192 23.0673 16.9927 23.0675 18.6869Z" fill="#3E4E60"/>
<path d="M19.999 21.0997C23.0567 20.978 23.0545 16.6111 19.999 16.4905V21.0997Z" fill="#3F5D77"/>
<path d="M19.9995 16.4905C16.9418 16.6122 16.944 20.9791 19.9995 21.0997V16.4905Z" fill="#3E4E60"/>
<path d="M20.9083 19.3331H20V17.8042H20.9083C21.9224 17.8445 21.922 19.2931 20.9083 19.3331Z" fill="#3F6C8E"/>
<path d="M19.0915 17.8052H19.9998V19.3341H19.0915C18.0773 19.2937 18.0778 17.8452 19.0915 17.8052Z" fill="#3F5D77"/>
<path d="M23.7198 10.229V12.175C23.7198 13.2736 22.8296 14.1639 21.731 14.1639H18.2685C17.1699 14.1639 16.2798 13.2737 16.2798 12.175V10.229C16.2798 8.29286 17.8488 6.72317 19.7849 6.72317C21.8888 6.54895 23.712 8.08598 23.7198 10.229Z" fill="#334353"/>
<path d="M23.7195 10.2288V12.1749C23.7195 13.2735 22.8293 14.1638 21.7308 14.1638H19.9995V6.72305C22.0076 6.61399 23.7264 8.20899 23.7195 10.2288Z" fill="#3E4E60"/>
<path d="M21.0125 9.93614H20.0814C20.0365 9.93614 20 9.89966 20 9.85474V7.73497C20 7.69005 20.0365 7.65356 20.0814 7.65356H21.0125C22.5263 7.71364 22.526 9.87622 21.0125 9.93614Z" fill="#3F5D77"/>
<path d="M18.9873 7.65356H19.9184C19.9633 7.65356 19.9998 7.69005 19.9998 7.73497V9.85474C19.9998 9.89966 19.9633 9.93614 19.9184 9.93614H18.9873C17.4735 9.87606 17.4738 7.71349 18.9873 7.65356Z" fill="#3E4E60"/>
<path d="M20.9786 9.17039H20.0473C20.0212 9.17039 20 9.14922 20 9.12305V7.89109C20 7.865 20.0212 7.84375 20.0473 7.84375H20.9786C21.8573 7.87625 21.8573 9.13797 20.9786 9.17039Z" fill="#3F6C8E"/>
<path d="M19.0214 7.84473H19.9526C19.9787 7.84473 20 7.8659 20 7.89207V9.12402C20 9.15012 19.9788 9.17137 19.9526 9.17137H19.0214C18.1426 9.13887 18.1426 7.87715 19.0214 7.84473Z" fill="#3F5D77"/>
<path d="M25.077 7.8826C25.2747 8.08026 25.2747 8.40096 25.0768 8.59885L22.6451 11.0305C22.4472 11.2284 22.1265 11.2284 21.9288 11.0307C21.7327 10.8378 21.7301 10.5103 21.9288 10.3142L24.3605 7.88253C24.5594 7.68237 24.8846 7.6876 25.077 7.8826Z" fill="#2E3140"/>
<path d="M24.9023 7.76859C24.9729 7.95024 24.9349 8.16437 24.7883 8.31094L22.3567 10.7426C22.2101 10.8891 21.9959 10.9273 21.8143 10.8566C21.7427 10.6712 21.7833 10.4598 21.9283 10.3142L24.36 7.88258C24.5065 7.73602 24.7208 7.69789 24.9023 7.76859Z" fill="#334353"/>
<path d="M24.2284 8.31096L22.3573 10.182C22.2025 10.3368 22.2025 10.5878 22.3573 10.7426L24.789 8.31096C24.6342 8.15611 24.3832 8.15611 24.2284 8.31096Z" fill="#3F5D77"/>
<path d="M24.7186 3.24391C24.998 3.24391 25.2248 3.4707 25.2248 3.75055V7.18945C25.2248 7.4693 24.998 7.69609 24.7186 7.69609C24.4435 7.69828 24.21 7.46859 24.2119 7.18945V3.75055C24.211 3.46844 24.4447 3.24219 24.7186 3.24391Z" fill="#2E3140"/>
<path d="M24.5148 3.28638C24.6932 3.36481 24.8177 3.54325 24.8177 3.75052V7.18942C24.8177 7.39669 24.6932 7.57505 24.5148 7.65356C24.3331 7.57325 24.2123 7.39505 24.2119 7.18942V3.75052C24.2119 3.54325 24.3364 3.36481 24.5148 3.28638Z" fill="#334353"/>
<path d="M24.4219 4.14714V6.79315C24.4219 7.01214 24.5994 7.18956 24.8183 7.18956V3.75073C24.5994 3.75073 24.4219 3.92823 24.4219 4.14714Z" fill="#3F5D77"/>
<path d="M14.9231 7.8826C14.7255 8.08026 14.7255 8.40096 14.9234 8.59885L17.355 11.0305C17.5529 11.2284 17.8736 11.2284 18.0712 11.0307C18.2673 10.8378 18.27 10.5103 18.0712 10.3142L15.6396 7.88253C15.4408 7.68237 15.1155 7.6876 14.9231 7.8826Z" fill="#2E3140"/>
<path d="M15.0974 7.76859C15.0268 7.95024 15.0648 8.16437 15.2114 8.31094L17.643 10.7426C17.7896 10.8891 18.0038 10.9273 18.1854 10.8566C18.257 10.6712 18.2165 10.4598 18.0714 10.3142L15.6398 7.88258C15.4932 7.73602 15.279 7.69789 15.0974 7.76859Z" fill="#334353"/>
<path d="M15.7721 8.31096L17.6431 10.182C17.7979 10.3368 17.7979 10.5878 17.6431 10.7426L15.2114 8.31096C15.3662 8.15611 15.6172 8.15611 15.7721 8.31096Z" fill="#3F5D77"/>
<path d="M15.2821 3.24391C15.0027 3.24391 14.7759 3.4707 14.7759 3.75055V7.18945C14.7759 7.4693 15.0027 7.69609 15.2821 7.69609C15.5572 7.69828 15.7907 7.46859 15.7888 7.18945V3.75055C15.7897 3.46844 15.556 3.24219 15.2821 3.24391Z" fill="#2E3140"/>
<path d="M15.485 3.28638C15.3067 3.36481 15.1821 3.54325 15.1821 3.75052V7.18942C15.1821 7.39669 15.3067 7.57505 15.485 7.65356C15.6667 7.57325 15.7875 7.39505 15.7879 7.18942V3.75052C15.7879 3.54325 15.6634 3.36481 15.485 3.28638Z" fill="#334353"/>
<path d="M15.5785 4.14714V6.79315C15.5785 7.01214 15.401 7.18956 15.1821 7.18956V3.75073C15.401 3.75073 15.5785 3.92823 15.5785 4.14714Z" fill="#3F5D77"/>
<path d="M24.2119 11.7875V12.1945C24.2143 12.5833 23.8903 12.9015 23.5078 12.8991C23.1187 12.8991 22.8037 12.5836 22.8037 12.1945V11.7875C22.8364 10.8577 24.1756 10.8517 24.2119 11.7875Z" fill="#334353"/>
<path d="M24.2126 11.7875V12.1946C24.2117 12.477 24.0484 12.7225 23.8006 12.8353C23.5577 12.7248 23.3887 12.4794 23.3887 12.1946V11.7875C23.3887 11.5027 23.5577 11.2578 23.8006 11.1472C24.0436 11.2578 24.2126 11.5027 24.2126 11.7875Z" fill="#3E4E60"/>
<path d="M15.7881 12.1951V11.7881C15.7857 11.3994 16.1097 11.0812 16.4922 11.0835C16.8813 11.0835 17.1963 11.3991 17.1963 11.7881V12.1951C17.1637 13.1249 15.8244 13.1309 15.7881 12.1951Z" fill="#2E3140"/>
<path d="M15.7881 12.195V11.788C15.7889 11.5056 15.9522 11.26 16.2 11.1472C16.443 11.2578 16.612 11.5032 16.612 11.788V12.195C16.612 12.4799 16.443 12.7248 16.2 12.8353C15.9571 12.7248 15.7881 12.4799 15.7881 12.195Z" fill="#334353"/>
<path d="M18.873 6.24064L19.4009 6.74416L17.9274 7.25603C17.2306 6.56025 17.2423 5.43236 17.9274 4.75064L18.9256 3.75236C19.1113 3.56736 19.4287 3.6983 19.4287 3.96088C19.4288 4.46455 19.2285 4.94596 18.873 5.30213C18.6167 5.55471 18.6128 5.984 18.873 6.24064Z" fill="#2E3140"/>
<path d="M19.4286 3.9608C19.4286 4.21268 19.3788 4.45893 19.2841 4.68658C19.1895 4.91424 19.0508 5.12416 18.8729 5.30205C18.8039 5.37103 18.7533 5.45221 18.7206 5.5383C18.3502 5.78541 17.8507 5.83346 17.4448 5.64861C17.511 5.31916 17.6718 5.00604 17.9272 4.75064L18.9255 3.75237C19.1112 3.56737 19.4286 3.6983 19.4286 3.9608Z" fill="#334353"/>
<path d="M21.1285 6.24064L20.6005 6.74424L22.0741 7.25603C22.7708 6.56025 22.7592 5.43236 22.0741 4.75064L21.0758 3.75236C20.8901 3.56736 20.5728 3.6983 20.5728 3.96088C20.5726 4.46455 20.7729 4.94596 21.1285 5.30213C21.3847 5.55471 21.3887 5.984 21.1285 6.24064Z" fill="#334353"/>
<path d="M20.5728 3.9608C20.5728 4.21268 20.6225 4.45893 20.7172 4.68658C20.8118 4.91424 20.9506 5.12416 21.1285 5.30205C21.1974 5.37103 21.248 5.45221 21.2807 5.5383C21.6511 5.78541 22.1506 5.83346 22.5565 5.64861C22.4903 5.31916 22.3295 5.00604 22.0741 4.75064L21.0758 3.75237C20.8901 3.56737 20.5728 3.6983 20.5728 3.9608Z" fill="#3E4E60"/>
</svg>
