<svg width="40" height="40" viewBox="0 0 40 40" fill="none" xmlns="http://www.w3.org/2000/svg">
<path d="M20 40C31.0457 40 40 31.0457 40 20C40 8.9543 31.0457 0 20 0C8.9543 0 0 8.9543 0 20C0 31.0457 8.9543 40 20 40Z" fill="#53B976"/>
<path d="M32.5944 16.8109C32.4147 16.6913 32.2139 16.6304 32.0131 16.6226C31.9844 16.3443 31.901 16.0525 31.774 15.8007C32.0084 15.5929 32.1569 15.2905 32.1569 14.9523C32.135 13.6945 30.4405 13.3976 29.9748 14.5296C29.7775 14.495 28.7473 14.5163 28.5287 14.5109C28.1803 13.5484 26.7655 13.5484 26.417 14.5109H25.1225C25.0992 13.7918 24.3404 13.2738 23.6584 13.4968L23.2647 12.2835C24.1915 11.6113 23.6534 10.1904 22.5975 10.2312C22.5469 10.0851 22.2111 9.01445 22.1553 8.89992C22.5983 8.55461 22.7694 7.88742 22.4139 7.36867C21.8256 6.54211 20.7756 6.82492 20.4412 7.51945C20.1508 7.46336 19.8288 7.465 19.5389 7.52336C19.1764 6.78273 18.0037 6.57805 17.5037 7.51008C17.2405 8.0132 17.424 8.60539 17.8342 8.92336C17.7937 9.00461 17.4345 10.1391 17.3944 10.2546C16.336 10.2148 15.802 11.6352 16.728 12.307L16.335 13.514C15.6553 13.2784 14.8823 13.8083 14.8592 14.5109H13.5584C13.21 13.5484 11.7951 13.5484 11.4467 14.5109C11.2044 14.5172 10.2232 14.4926 10.0014 14.5327C9.83343 14.1179 9.42718 13.8249 8.95218 13.8249C7.90975 13.8174 7.41757 15.1544 8.21702 15.8202C8.09014 16.0743 8.00991 16.3681 7.98343 16.6468C7.64124 16.6656 7.30764 16.8296 7.10764 17.1437C6.39077 18.2523 7.80897 19.4765 8.78811 18.6296C8.86772 18.706 9.75733 19.3401 9.86624 19.4226C9.37936 20.5412 10.7528 21.551 11.6639 20.7288L12.6694 21.4593C12.1523 22.0174 12.3843 23.0303 13.1616 23.2804L12.7686 24.4921C11.711 24.452 11.1747 25.8722 12.1014 26.5445C12.0212 26.8155 11.7295 27.6146 11.699 27.8835C11.235 27.8781 10.767 28.1429 10.5991 28.7367C10.3395 29.767 11.5418 30.5595 12.3819 29.9148C12.5717 30.0984 12.7897 30.2476 13.0248 30.3585C12.7834 31.0367 13.2467 31.8765 14.092 31.8788C14.8784 31.8966 15.4669 31.0252 15.1311 30.296C15.326 30.2024 16.0353 29.6588 16.2248 29.5281C17.1392 30.355 18.5089 29.3351 18.0217 28.2226L19.0319 27.4882C19.453 28.2224 20.5507 28.2245 20.9748 27.4937L21.9975 28.2367C21.5105 29.3495 22.88 30.3687 23.7944 29.5421C24.0008 29.6849 24.6746 30.2046 24.8889 30.3077C24.5647 31.032 25.128 31.9015 25.9311 31.8882C26.7184 31.9005 27.2725 31.067 26.9928 30.3499C27.2272 30.2367 27.4436 30.0851 27.6319 29.8999C28.4107 30.4967 29.5537 29.8127 29.424 28.8546C29.3256 28.182 28.81 27.8593 28.2975 27.8617C28.2667 27.6118 27.9658 26.7752 27.8905 26.5218C28.7976 25.8691 28.314 24.4405 27.224 24.4695L27.2069 24.4163L26.8319 23.2616C27.614 23.0227 27.8576 22.0065 27.3475 21.4468L28.3553 20.7148C29.2676 21.5367 30.6396 20.5272 30.153 19.4085C30.2839 19.3091 31.1273 18.7119 31.2287 18.614C32.4642 19.5996 33.8823 17.7577 32.5944 16.8109ZM31.1522 16.9656C30.8889 17.2359 30.7998 17.5781 30.8444 17.8991C30.7055 18.0764 29.7839 18.6989 29.5936 18.8491C28.788 18.4706 27.873 19.1602 27.9983 20.0085L26.5545 21.0577C25.358 20.9654 24.8587 22.6199 25.9912 23.2046C26.1104 23.5706 26.3758 24.3866 26.492 24.7452C25.7602 25.3481 26.1188 26.6379 27.1358 26.7273C27.2137 27.0047 27.5419 27.8606 27.5451 28.1374C27.2785 28.3512 27.0977 28.8227 27.1905 29.2273C26.9889 29.4679 26.717 29.6484 26.4155 29.739C26.124 29.6015 25.778 29.5796 25.4717 29.7148C25.166 29.6302 24.4233 29.0156 24.1522 28.8359C24.278 27.982 23.3544 27.2992 22.5553 27.6765L21.1084 26.6249C20.8128 25.5068 19.2094 25.5002 18.9037 26.6156L17.4631 27.6624C16.6643 27.2855 15.7403 27.9699 15.867 28.8226C15.5967 29.0015 14.8428 29.6217 14.5412 29.7101C14.2381 29.5804 13.8819 29.5765 13.5748 29.7359C13.2772 29.6452 13.0092 29.4663 12.8092 29.2281C12.8921 28.7933 12.718 28.3849 12.4522 28.1648C12.4499 27.8759 12.7756 27.0371 12.8561 26.7499C13.8739 26.6602 14.2324 25.3699 13.4998 24.7687L13.9975 23.2366C15.1422 22.6693 14.6694 21.0124 13.4764 21.0796L12.0209 20.0226C12.1459 19.1745 11.2296 18.4847 10.4256 18.8632C10.2437 18.7199 9.30514 18.0809 9.17171 17.9171C9.23639 17.5542 9.06343 17.1187 8.7553 16.8851C8.75296 16.6077 8.82327 16.3327 8.95686 16.0906C9.4428 16.0913 9.87405 15.7679 10.0256 15.3179C10.221 15.2702 11.2176 15.2997 11.435 15.2921C11.7907 16.2942 13.2146 16.2942 13.5701 15.2921H15.0998C15.9951 16.371 17.601 15.274 16.9834 14.0468L17.4819 12.5124C18.5005 12.4226 18.8577 11.1327 18.1264 10.5304C18.1755 10.3942 18.5296 9.24828 18.5889 9.14992C19.048 9.12547 19.4994 8.77781 19.6084 8.30851C19.8625 8.24367 20.1302 8.24359 20.385 8.30617C20.5027 8.76734 20.9378 9.10359 21.4006 9.12805C21.4715 9.24547 21.8111 10.3554 21.8662 10.5077C21.133 11.1101 21.4931 12.4 22.51 12.4898L23.0061 14.0163C22.3549 15.2441 23.9813 16.3491 24.8686 15.2921H26.4053C26.761 16.2942 28.1849 16.2942 28.5405 15.2921C28.7469 15.299 29.7684 15.273 29.9514 15.3132C30.1055 15.7564 30.5344 16.1016 31.0397 16.0843C31.1748 16.3273 31.2459 16.6031 31.2444 16.8812C31.2123 16.9077 31.1811 16.9351 31.1522 16.9656Z" fill="#FBCB74"/>
<path d="M31.9659 18.8874C31.6714 18.8882 31.4198 18.782 31.2284 18.614C31.1312 18.7087 30.2787 19.3127 30.1526 19.4085C30.6393 20.5282 29.2665 21.5363 28.355 20.7148L27.3472 21.4468C27.8577 22.007 27.6132 23.023 26.8315 23.2616L27.2065 24.4163C19.6233 22.2145 13.3766 18.9734 10.3472 14.5109H11.4464C11.7948 13.5484 13.2097 13.5484 13.5581 14.5109H14.8589C14.8821 13.8079 15.6552 13.2784 16.3347 13.514L16.7276 12.307C15.8009 11.6344 16.3369 10.2145 17.394 10.2546C17.4359 10.1338 17.7919 9.00906 17.8339 8.92336C17.4237 8.60539 17.2401 8.0132 17.5034 7.51008C18.0034 6.57805 19.1761 6.78273 19.5386 7.52336C19.8285 7.465 20.1505 7.46336 20.4409 7.51945C20.7753 6.82492 21.8253 6.54211 22.4136 7.36867C22.769 7.88742 22.5979 8.55461 22.155 8.89992C22.209 9.00937 22.5485 10.0909 22.5972 10.2312C23.6543 10.1907 24.1905 11.6122 23.2644 12.2835L23.6581 13.4968C24.3404 13.2737 25.0989 13.7921 25.1222 14.5109H26.4167C26.7651 13.5484 28.18 13.5484 28.5284 14.5109C28.7534 14.5164 29.7713 14.4948 29.9745 14.5296C30.4401 13.3976 32.1347 13.6945 32.1565 14.9523C32.1565 15.2905 32.0081 15.5929 31.7737 15.8007C31.9008 16.0525 31.984 16.3443 32.0128 16.6226C33.476 16.7137 33.429 18.8513 31.9659 18.8874Z" fill="#FBD9A3"/>
<path d="M30.5985 18.1194L26.4539 21.1304C25.9055 21.5288 25.6766 22.2343 25.886 22.878L27.4688 27.7507C27.7078 28.4859 27.3946 29.1577 26.868 29.521C26.3641 29.8695 25.6625 29.9335 25.0633 29.4984L20.9188 26.4874C20.3711 26.089 19.6289 26.089 19.0813 26.4874L14.9368 29.4984C14.3375 29.9335 13.636 29.8695 13.1321 29.521C12.6055 29.1577 12.2922 28.4859 12.5313 27.7507L14.1141 22.878C14.3235 22.2343 14.0946 21.5288 13.5461 21.1304L9.4016 18.1194C8.75464 17.6459 8.62355 16.8944 8.87191 16.2663H8.87269C9.09222 15.7202 9.60863 15.2921 10.3203 15.2921H15.4438C16.1211 15.2921 16.7211 14.8554 16.9305 14.2116L18.5133 9.33976C18.7477 8.6171 19.3782 8.25694 20.0063 8.25929C20.6305 8.26163 21.2539 8.62179 21.4868 9.33976L23.0696 14.2116C23.2789 14.8554 23.8789 15.2921 24.5563 15.2921H29.6797C31.1944 15.2924 31.8228 17.2301 30.5985 18.1194Z" fill="#F39E22"/>
<path d="M31.1691 16.3835V16.3874L21.7988 18.8413C20.8926 19.0788 20.0059 18.3952 20.0059 17.4577V8.25928C20.6301 8.26162 21.2535 8.62178 21.4863 9.33975L23.0691 14.2116C23.2785 14.8554 23.8785 15.2921 24.5559 15.2921H29.6793C30.441 15.2921 30.9793 15.7827 31.1691 16.3835Z" fill="#F9C744"/>
<path d="M30.5987 18.1195L26.4542 21.1304C25.9058 21.5289 25.6769 22.2343 25.8862 22.8781L27.469 27.7507C27.7081 28.4859 27.3948 29.1578 26.8683 29.521H26.8667L21.0378 20.9007C20.5331 20.1539 20.9144 19.132 21.7855 18.8984L31.1698 16.3835C31.3581 16.9765 31.2073 17.6773 30.5987 18.1195Z" fill="#EA792E"/>
<path d="M18.9601 20.9007L13.132 29.521C12.6054 29.1578 12.2922 28.4859 12.5312 27.7507L14.114 22.8781C14.3234 22.2343 14.0945 21.5289 13.5461 21.1304L9.40153 18.1195C8.79294 17.6773 8.64216 16.9765 8.83044 16.3835L18.2133 18.8984C19.0843 19.132 19.4656 20.1539 18.9601 20.9007Z" fill="#EA792E"/>
</svg>
