<svg width="40" height="40" viewBox="0 0 40 40" fill="none" xmlns="http://www.w3.org/2000/svg">
<path d="M40 20C40 31.0458 31.0458 40 20 40C8.95416 40 0 31.0458 0 20C0 8.95416 8.95416 0 20 0C31.0458 0 40 8.95416 40 20Z" fill="#673389"/>
<path d="M32.4196 17.1768C34.731 14.8657 34.731 11.1185 32.4196 8.80705C30.1085 6.49596 26.3612 6.49596 24.0498 8.80705" fill="#D65A05"/>
<path d="M7.08511 17.1768C4.77371 14.8657 4.77371 11.1185 7.08511 8.80705C9.39621 6.49596 13.1435 6.49596 15.4549 8.80705" fill="#D65A05"/>
<path d="M29.8536 35.1234V37.4082C28.679 38.0735 27.4308 38.6252 26.1231 39.0439C25.9876 39.0882 25.8521 39.1297 25.7148 39.1706C25.2064 39.3226 24.6888 39.4547 24.1639 39.5649C23.9338 39.6137 23.7028 39.6589 23.4699 39.6989C22.3426 39.8972 21.1835 40.0001 20.0007 40.0001C18.8178 40.0001 17.6584 39.8972 16.5311 39.6995C16.2986 39.6595 16.0676 39.6146 15.8375 39.5658C15.2274 39.4367 14.6293 39.2798 14.0415 39.097C14.0089 39.0864 13.9762 39.0766 13.9435 39.0662C13.9216 39.0595 13.9002 39.0522 13.8782 39.0449C12.5712 38.6262 11.3224 38.0744 10.1475 37.4082V35.1234C10.1475 32.3664 11.648 29.9601 13.8782 28.6774C14.4831 28.3289 15.1411 28.0637 15.8375 27.8971C16.2055 27.8083 16.5842 27.7469 16.9721 27.7158C17.1729 27.6996 17.3752 27.6914 17.5803 27.6914H22.4201C22.9923 27.6914 23.5493 27.7552 24.0839 27.8776C24.1108 27.884 24.1376 27.8898 24.1639 27.8962C24.8603 28.0637 25.5182 28.3289 26.1231 28.6774C28.3524 29.9607 29.8536 32.3673 29.8536 35.1234Z" fill="#EAA27F"/>
<path d="M29.8534 35.1234V37.4082C27.0861 38.9786 23.9064 39.9076 20.5172 39.9933C20.345 39.9976 20.1735 40.0001 20.0005 40.0001C19.8275 40.0001 19.655 39.9976 19.4838 39.9927C17.5563 39.9445 15.6975 39.6229 13.9434 39.0662V35.1234C13.9434 31.0187 17.2713 27.6914 21.3768 27.6914H22.4199C26.5261 27.6914 29.8534 31.0187 29.8534 35.1234Z" fill="#F6BA97"/>
<path d="M22.6513 24.8281V28.0825C22.6513 29.2739 21.8658 30.281 20.7836 30.6155C20.5361 30.6921 20.2722 30.7339 19.999 30.7339C18.5348 30.7339 17.3477 29.5468 17.3477 28.0825V24.8281H22.6513Z" fill="#EAA27F"/>
<path d="M22.6519 27.8762V28.0825C22.6519 29.2739 21.8663 30.281 20.7842 30.6155C19.8079 30.3152 19.074 29.4665 18.9385 28.4277C19.1155 28.4387 19.2937 28.4442 19.4725 28.4442C19.9742 28.4442 20.4662 28.4042 20.9453 28.3254C21.5355 28.2308 22.1059 28.0789 22.6519 27.8762Z" fill="#F6BA97"/>
<path d="M12.6058 19.4946C12.6058 20.7224 11.7092 21.7401 10.5349 21.929C10.4064 21.9501 10.2745 21.9608 10.1396 21.9608C8.77765 21.9608 7.67383 20.8569 7.67383 19.4946C7.67383 18.1326 8.77765 17.0288 10.1396 17.0288C10.2745 17.0288 10.4064 17.0395 10.5349 17.0605C11.7092 17.2495 12.6058 18.2672 12.6058 19.4946Z" fill="#F6BA97"/>
<path d="M12.6061 19.4946C12.6061 20.7224 11.7095 21.7401 10.5352 21.929C10.3218 21.1536 10.208 20.3372 10.208 19.4946C10.208 18.6523 10.3218 17.836 10.5352 17.0605C11.7095 17.2495 12.6061 18.2672 12.6061 19.4946Z" fill="#EAA27F"/>
<path d="M11.0218 19.4946C11.0218 19.9817 10.6272 20.3763 10.1401 20.3763C9.65338 20.3763 9.25879 19.9817 9.25879 19.4946C9.25879 19.0079 9.65338 18.6133 10.1401 18.6133C10.6272 18.6133 11.0218 19.0079 11.0218 19.4946Z" fill="#EAA27F"/>
<path d="M29.1744 14.6906V18.1845C29.1744 22.7502 25.8392 26.5378 21.4718 27.2406C21.4572 27.243 21.4416 27.2455 21.4269 27.2482C20.9625 27.3224 20.4855 27.359 19.999 27.359C14.9322 27.359 10.8242 23.2513 10.8242 18.1845V14.6906C10.8242 13.6237 11.0064 12.5983 11.3427 11.6455C12.5973 8.07495 16 5.51514 19.999 5.51514H19.9999C20.4855 5.51514 20.9631 5.55267 21.4285 5.62592C25.8169 6.31165 29.1744 10.1093 29.1744 14.6906Z" fill="#EAA27F"/>
<path d="M29.1745 14.6906V18.1846C29.1745 22.7503 25.8392 26.5378 21.4719 27.2407C21.4572 27.2431 21.4417 27.2455 21.427 27.2483C17.0383 26.5626 13.6816 22.765 13.6816 18.1846V14.6906C13.6816 10.1093 17.0392 6.31171 21.4285 5.62598C25.817 6.31171 29.1745 10.1093 29.1745 14.6906Z" fill="#F6BA97"/>
<path d="M26.2448 20.5933C26.2448 21.2247 25.733 21.7362 25.1019 21.7362C24.4708 21.7362 23.959 21.2247 23.959 20.5933C23.959 19.9622 24.4708 19.4504 25.1019 19.4504C25.733 19.4504 26.2448 19.9622 26.2448 20.5933Z" fill="#EAA27F"/>
<path d="M16.0406 20.5933C16.0406 21.2247 15.5289 21.7362 14.8978 21.7362C14.2667 21.7362 13.7549 21.2247 13.7549 20.5933C13.7549 19.9622 14.2667 19.4504 14.8978 19.4504C15.5289 19.4504 16.0406 19.9622 16.0406 20.5933Z" fill="#EAA27F"/>
<path d="M24.9272 17.4098C24.9272 16.5681 24.2448 15.8857 23.4034 15.8857C22.5618 15.8857 21.8794 16.5681 21.8794 17.4098" fill="#EAA27F"/>
<path d="M18.121 17.4098C18.121 16.5681 17.4387 15.8857 16.5973 15.8857C15.7556 15.8857 15.0732 16.5681 15.0732 17.4098" fill="#EAA27F"/>
<path d="M17.6382 18.0582C17.6382 18.6332 17.1722 19.0992 16.5976 19.0992C16.0226 19.0992 15.5566 18.6332 15.5566 18.0582C15.5566 17.4836 16.0226 17.0176 16.5976 17.0176C17.1722 17.0176 17.6382 17.4836 17.6382 18.0582Z" fill="#2F373B"/>
<path d="M24.4439 18.0582C24.4439 18.6332 23.9779 19.0992 23.4033 19.0992C22.8283 19.0992 22.3623 18.6332 22.3623 18.0582C22.3623 17.4836 22.8283 17.0176 23.4033 17.0176C23.9779 17.0176 24.4439 17.4836 24.4439 18.0582Z" fill="#2F373B"/>
<path d="M21.0413 20.6786H18.9597C18.7119 20.6786 18.5107 20.4778 18.5107 20.2297C18.5107 19.9819 18.7119 19.7808 18.9597 19.7808H21.0413C21.2894 19.7808 21.4905 19.9819 21.4905 20.2297C21.4905 20.4778 21.2894 20.6786 21.0413 20.6786Z" fill="#EAA27F"/>
<path d="M19.9994 23.5196C19.231 23.5196 18.4628 23.3273 17.7625 22.9422C17.565 22.8336 17.4927 22.5855 17.6013 22.388C17.71 22.1906 17.9581 22.1185 18.1555 22.2269C19.31 22.8616 20.6885 22.8616 21.843 22.2269C22.0404 22.1182 22.2885 22.1903 22.3972 22.388C22.5058 22.5855 22.4338 22.8336 22.236 22.9422C21.5359 23.3273 20.7675 23.5196 19.9994 23.5196Z" fill="#EAA27F"/>
<path d="M17.4262 17.8749C17.4262 18.1212 17.2266 18.3207 16.9803 18.3207C16.7338 18.3207 16.5342 18.1212 16.5342 17.8749C16.5342 17.6283 16.7338 17.4287 16.9803 17.4287C17.2266 17.4287 17.4262 17.6283 17.4262 17.8749Z" fill="white"/>
<path d="M24.2823 17.8749C24.2823 18.1212 24.0828 18.3207 23.8365 18.3207C23.5902 18.3207 23.3906 18.1212 23.3906 17.8749C23.3906 17.6283 23.5902 17.4287 23.8365 17.4287C24.0828 17.4287 24.2823 17.6283 24.2823 17.8749Z" fill="white"/>
<path d="M29.1744 11.7354V16.5392C28.2311 16.5392 27.4667 15.7744 27.4667 14.8314V12.5118L15.14 10.2211L12.532 9.73621V14.8314C12.532 15.7744 11.7672 16.5392 10.8242 16.5392V11.7354C10.8242 7.65582 14.1314 4.34863 18.211 4.34863H21.7883C21.8853 4.34863 21.9824 4.35016 22.0797 4.35504C26.0232 4.50702 29.1744 7.75256 29.1744 11.7354Z" fill="#D65A05"/>
<path d="M29.175 11.7356V16.5394C28.2318 16.5394 27.4673 15.7746 27.4673 14.8316V12.512L15.1406 10.2213C15.8199 6.95929 18.6501 4.48737 22.0803 4.35522C26.0238 4.5072 29.175 7.75275 29.175 11.7356Z" fill="#F46D11"/>
<path d="M26.0576 28.4301V39.0643C25.9441 39.1012 25.83 39.1363 25.7146 39.1705C25.2062 39.3224 24.6886 39.4546 24.1637 39.5648C23.9336 39.6136 23.7026 39.6588 23.4697 39.6987C22.3424 39.8971 21.1833 39.9999 20.0005 39.9999C18.8176 39.9999 17.6583 39.8971 16.5309 39.6993C16.4632 39.688 16.3948 39.6758 16.3271 39.6627C16.1907 39.6383 16.0543 39.6111 15.9188 39.5828C15.8919 39.577 15.8641 39.5712 15.8373 39.5657C15.194 39.4293 14.5629 39.2626 13.9434 39.0661V28.4301L15.8373 27.6138V32.5567C15.8373 33.1222 16.0182 33.6465 16.3271 34.0734C16.798 34.7265 17.5652 35.151 18.4316 35.151H21.5694C23.0022 35.151 24.1637 33.9892 24.1637 32.5567V27.6138L26.0576 28.4301Z" fill="#FFE05C"/>
<path d="M16.3271 34.0734V39.6627C16.1907 39.6383 16.0543 39.6111 15.9188 39.5828C15.8919 39.577 15.8641 39.5712 15.8373 39.5657C15.194 39.4293 14.5629 39.2626 13.9434 39.0661V28.4301L15.8373 27.6138V32.5567C15.8373 33.1222 16.0182 33.6465 16.3271 34.0734Z" fill="#E89F18"/>
<path d="M27.4671 12.5119V9.87975C27.4671 9.52727 27.0072 9.39238 26.8171 9.68932L25.2695 12.1036" fill="#FFE05C"/>
<path d="M25.2695 12.1034V9.4713C25.2695 9.11882 24.8096 8.98394 24.6195 9.28087L23.0723 11.6951" fill="#FFE05C"/>
</svg>
