<svg width="40" height="40" viewBox="0 0 40 40" fill="none" xmlns="http://www.w3.org/2000/svg">
<path d="M20 40C31.0457 40 40 31.0457 40 20C40 8.9543 31.0457 0 20 0C8.9543 0 0 8.9543 0 20C0 31.0457 8.9543 40 20 40Z" fill="#6C53A2"/>
<path d="M3.93896 13.0984V17.4656C3.93896 19.6148 5.68193 21.357 7.83116 21.357H9.73428C11.8835 21.357 13.6257 19.6148 13.6257 17.4656V13.0984C13.6257 10.9492 11.8835 9.20703 9.73428 9.20703H7.83116C5.68193 9.20703 3.93896 10.9492 3.93896 13.0984Z" fill="#9175A7"/>
<path d="M7.83105 19.4392V21.3571H9.73418C11.8834 21.3571 13.6256 19.6149 13.6256 17.4657V15.3813H11.8881C9.64746 15.3813 7.83105 17.1978 7.83105 19.4392Z" fill="#746087"/>
<path d="M10.5914 10.9763H6.97318C5.96295 10.9763 5.14404 11.7952 5.14404 12.8055C5.14404 13.8157 5.96295 14.6346 6.97318 14.6346H10.5913C11.6015 14.6346 12.4204 13.8157 12.4204 12.8055C12.4205 11.7953 11.6015 10.9763 10.5914 10.9763Z" fill="#A583BB"/>
<path d="M36.0612 13.0984V17.4656C36.0612 19.6148 34.3183 21.357 32.169 21.357H30.2659C28.1167 21.357 26.3745 19.6148 26.3745 17.4656V13.0984C26.3745 10.9492 28.1167 9.20703 30.2659 9.20703H32.169C34.3183 9.20703 36.0612 10.9492 36.0612 13.0984Z" fill="#A583BB"/>
<path d="M32.169 19.4392V21.3571H30.2659C28.1167 21.3571 26.3745 19.6149 26.3745 17.4657V15.3813H28.112C30.3526 15.3813 32.169 17.1978 32.169 19.4392Z" fill="#9175A7"/>
<path d="M33.0274 10.9763H29.4092C28.399 10.9763 27.5801 11.7952 27.5801 12.8055C27.5801 13.8157 28.399 14.6346 29.4092 14.6346H33.0273C34.0376 14.6346 34.8565 13.8157 34.8565 12.8055C34.8565 11.7953 34.0376 10.9763 33.0274 10.9763Z" fill="#C2AACF"/>
<path d="M28.9877 19.679V26.0547C28.9877 29.829 25.9283 32.8883 22.1541 32.8883H17.8463C14.0721 32.8883 11.0127 29.829 11.0127 26.0547V19.679C11.0127 17.0469 13.1463 14.9133 15.7783 14.9133H24.2221C26.8541 14.9133 28.9877 17.0469 28.9877 19.679Z" fill="#9175A7"/>
<path d="M28.9875 19.679V26.0547C28.9875 29.829 25.9281 32.8883 22.1539 32.8883H20V14.9133H24.2219C26.8539 14.9133 28.9875 17.0469 28.9875 19.679Z" fill="#A583BB"/>
<path d="M25.5805 20.9682H20V15.6768H22.6631C24.9299 15.6768 26.7675 17.5143 26.7675 19.7811C26.7675 20.4368 26.2361 20.9682 25.5805 20.9682Z" fill="#C2AACF"/>
<path d="M14.4194 20.9682H19.9999V15.6768H17.3368C15.07 15.6768 13.2324 17.5143 13.2324 19.7811C13.2324 20.4368 13.7638 20.9682 14.4194 20.9682Z" fill="#A583BB"/>
<path d="M25.3893 24.4656C24.7531 25.1019 23.7197 25.1019 23.0834 24.4656C22.4464 23.8286 22.4472 22.796 23.0834 22.1598C23.2559 21.9873 23.4573 21.8613 23.6723 21.7827C24.2509 21.5701 24.9248 21.6953 25.3893 22.1598C25.8531 22.6235 25.979 23.2983 25.7664 23.8767C25.6878 24.0917 25.5618 24.2931 25.3893 24.4656Z" fill="#C2AACF"/>
<path d="M25.7611 23.8768C26.131 23.5068 25.9622 22.7382 25.3841 22.1601C24.8059 21.5819 24.0373 21.4131 23.6674 21.7831C23.2975 22.153 23.4663 22.9216 24.0444 23.4997C24.6226 24.0779 25.3912 24.2467 25.7611 23.8768Z" fill="#EBD9EA"/>
<path d="M25.2666 23.3127C25.2666 23.7564 24.9852 24.1354 24.5914 24.2806C24.4803 24.3203 24.3611 24.343 24.2363 24.343C23.6667 24.343 23.2061 23.8812 23.2061 23.3127C23.2061 22.7431 23.6668 22.2825 24.2363 22.2825C24.3611 22.2825 24.4803 22.3051 24.5914 22.3449C24.9852 22.4901 25.2666 22.8679 25.2666 23.3127Z" fill="#3F5D77"/>
<path d="M24.5917 24.2808C24.9645 24.2808 25.2668 23.8474 25.2668 23.3129C25.2668 22.7783 24.9645 22.345 24.5917 22.345C24.2188 22.345 23.9165 22.7783 23.9165 23.3129C23.9165 23.8474 24.2188 24.2808 24.5917 24.2808Z" fill="#2E3140"/>
<path d="M24.2358 23.5774C24.5163 23.5774 24.7437 23.35 24.7437 23.0696C24.7437 22.7891 24.5163 22.5618 24.2358 22.5618C23.9554 22.5618 23.728 22.7891 23.728 23.0696C23.728 23.35 23.9554 23.5774 24.2358 23.5774Z" fill="#83D5EF"/>
<path d="M16.8556 24.4656C16.2194 25.1019 15.186 25.1019 14.5497 24.4656C13.9127 23.8286 13.9135 22.796 14.5497 22.1598C14.7222 21.9873 14.9237 21.8613 15.1386 21.7827C15.7172 21.5701 16.3911 21.6953 16.8556 22.1598C17.3193 22.6235 17.4453 23.2983 17.2327 23.8767C17.154 24.0917 17.0281 24.2931 16.8556 24.4656Z" fill="#A583BB"/>
<path d="M17.2279 23.8758C17.5978 23.5059 17.429 22.7373 16.8509 22.1591C16.2727 21.5809 15.5041 21.4121 15.1342 21.7821C14.7642 22.152 14.933 22.9206 15.5112 23.4988C16.0894 24.0769 16.858 24.2457 17.2279 23.8758Z" fill="#DECEE5"/>
<path d="M16.7328 23.3127C16.7328 23.7564 16.4514 24.1354 16.0578 24.2806C15.9466 24.3203 15.8274 24.343 15.7026 24.343C15.133 24.343 14.6724 23.8812 14.6724 23.3127C14.6724 22.7431 15.1331 22.2825 15.7026 22.2825C15.8274 22.2825 15.9466 22.3051 16.0578 22.3449C16.4515 22.4901 16.7328 22.8679 16.7328 23.3127Z" fill="#3F5D77"/>
<path d="M16.058 24.2805C16.4308 24.2805 16.7331 23.8472 16.7331 23.3126C16.7331 22.7781 16.4308 22.3447 16.058 22.3447C15.6851 22.3447 15.3828 22.7781 15.3828 23.3126C15.3828 23.8472 15.6851 24.2805 16.058 24.2805Z" fill="#2E3140"/>
<path d="M15.7017 23.5774C15.9821 23.5774 16.2095 23.35 16.2095 23.0696C16.2095 22.7891 15.9821 22.5618 15.7017 22.5618C15.4212 22.5618 15.1938 22.7891 15.1938 23.0696C15.1938 23.35 15.4212 23.5774 15.7017 23.5774Z" fill="#83D5EF"/>
<path d="M22.1545 30.1187V31.3164C22.1545 32.1844 21.4506 32.8883 20.5826 32.8883H19.4186C18.5506 32.8883 17.8467 32.1844 17.8467 31.3164V30.1187C17.8467 29.2508 18.5506 28.5469 19.4186 28.5469H20.5826C21.4506 28.5469 22.1545 29.2508 22.1545 30.1187Z" fill="#A583BB"/>
<path d="M22.1544 30.1187V31.3164C22.1544 32.1844 21.4505 32.8883 20.5825 32.8883H20.0005V28.5469H20.5825C21.4505 28.5469 22.1544 29.2508 22.1544 30.1187Z" fill="#C2AACF"/>
<path d="M20.0002 30.8474C19.1743 30.8474 18.3934 30.5562 17.7043 30.2994C17.2127 30.1162 16.7482 29.943 16.348 29.9041C16.1332 29.8833 15.9761 29.6923 15.997 29.4776C16.0178 29.2628 16.2091 29.1059 16.4235 29.1265C16.9255 29.1753 17.4364 29.3658 17.9773 29.5674C18.635 29.8126 19.3153 30.0662 20.0003 30.0662C20.6855 30.0662 21.3659 29.8126 22.0239 29.5673C22.5649 29.3657 23.0757 29.1753 23.5777 29.1265C23.7928 29.105 23.9834 29.2628 24.0042 29.4775C24.0251 29.6923 23.868 29.8832 23.6532 29.9041C23.2529 29.943 22.7885 30.1161 22.2967 30.2994C21.6074 30.5562 20.8263 30.8474 20.0002 30.8474Z" fill="#746087"/>
<path d="M20.0005 21.396H20.6114C21.8232 21.396 22.8091 22.3819 22.8091 23.5937C22.8091 23.982 22.4943 24.2968 22.106 24.2968C21.7176 24.2968 21.4028 23.982 21.4028 23.5937C21.4028 23.1573 21.0478 22.8022 20.6114 22.8022H20.0005V21.396Z" fill="#C2AACF"/>
<path d="M20.0005 21.396H19.3896C18.1778 21.396 17.1919 22.3819 17.1919 23.5937C17.1919 23.982 17.5067 24.2968 17.895 24.2968C18.2834 24.2968 18.5981 23.982 18.5981 23.5937C18.5981 23.1573 18.9531 22.8022 19.3896 22.8022H20.0005V21.396Z" fill="#A583BB"/>
<path d="M24.7094 25.397H22.1055V27.7099H24.7094C25.3481 27.7099 25.8659 27.1921 25.8659 26.5535C25.8659 25.9147 25.3481 25.397 24.7094 25.397Z" fill="#C2AACF"/>
<path d="M15.2908 27.7099H17.8947V25.397H15.2908C14.652 25.397 14.1343 25.9148 14.1343 26.5535C14.1343 27.1921 14.652 27.7099 15.2908 27.7099Z" fill="#A583BB"/>
<path d="M22.1059 23.5937V27.7101C22.1059 28.5358 21.4372 29.2046 20.6114 29.2046H19.3895C18.5638 29.2046 17.895 28.5358 17.895 27.7101V23.5937C17.895 22.7679 18.5638 22.0991 19.3895 22.0991H20.6114C21.4372 22.0991 22.1059 22.7679 22.1059 23.5937Z" fill="#334353"/>
<path d="M22.106 23.5937V27.7101C22.106 28.5358 21.4372 29.2046 20.6114 29.2046H20.0005V22.0991H20.6114C21.4372 22.0991 22.106 22.7679 22.106 23.5937Z" fill="#3E4E60"/>
<path d="M22.1059 27.1467V27.71C22.1059 28.5357 21.4372 29.2045 20.6114 29.2045H19.3895C18.5638 29.2045 17.895 28.5357 17.895 27.71V27.1467C17.895 26.3209 18.5638 25.6514 19.3895 25.6514H20.6114C21.4372 25.6514 22.1059 26.3209 22.1059 27.1467Z" fill="#2E3140"/>
<path d="M22.106 27.1467V27.71C22.106 28.5357 21.4372 29.2045 20.6114 29.2045H20.0005V25.6514H20.6114C21.4372 25.6514 22.106 26.3209 22.106 27.1467Z" fill="#334353"/>
<path d="M20.4181 28.3684C20.2691 28.1628 20.315 27.8754 20.5206 27.7264L20.9342 27.4266C21.1399 27.2776 21.4273 27.3235 21.5763 27.5291C21.7252 27.7347 21.6793 28.0222 21.4738 28.1711L21.0601 28.4709C20.8545 28.6199 20.567 28.574 20.4181 28.3684Z" fill="#EA7589"/>
<path d="M19.5836 28.3684C19.7326 28.1628 19.6866 27.8754 19.4811 27.7264L19.0674 27.4266C18.8618 27.2776 18.5744 27.3235 18.4254 27.5291C18.2764 27.7347 18.3223 28.0222 18.5279 28.1711L18.9415 28.4709C19.1471 28.6199 19.4346 28.574 19.5836 28.3684Z" fill="#DD5273"/>
</svg>
