<svg width="40" height="40" viewBox="0 0 40 40" fill="none" xmlns="http://www.w3.org/2000/svg">
<path d="M40 20C40 31.0455 31.0455 40 20 40C8.95416 40 0 31.0455 0 20C0 8.95416 8.95416 0 20 0C31.0455 0 40 8.95416 40 20Z" fill="#FFE05C"/>
<path d="M29.8526 35.1234V37.4082C26.9449 39.058 23.5825 40.0001 19.9997 40.0001C17.8879 40.0001 15.8536 39.6726 13.9426 39.0662C12.612 38.6442 11.3409 38.0857 10.1465 37.4082V35.1234C10.1465 31.2238 13.1497 28.0247 16.9711 27.7161C17.1719 27.6996 17.3743 27.6914 17.5793 27.6914H22.4191C22.9913 27.6914 23.5483 27.7552 24.0829 27.8776C27.3874 28.6335 29.8526 31.5912 29.8526 35.1234Z" fill="#17A388"/>
<path d="M29.8529 35.1234V37.4082C28.0774 38.4156 26.1331 39.1593 24.0717 39.5844C22.9175 39.8237 21.7264 39.9631 20.5084 39.9933C20.3397 39.9976 20.1697 40.0001 20 40.0001C17.8882 40.0001 15.8539 39.6726 13.9429 39.0662V35.1234C13.9429 34.5966 13.9975 34.0824 14.1019 33.5868C14.3143 32.5748 14.733 31.6392 15.3119 30.8243C16.6586 28.9283 18.8733 27.6914 21.3763 27.6914H22.4194C26.5256 27.6914 29.8529 31.0187 29.8529 35.1234Z" fill="#27BA9E"/>
<path d="M24.2722 27.9233V28.5935C24.2722 30.9525 22.3593 32.8654 20.0003 32.8654H19.9994C18.1415 32.8654 16.5594 31.6782 15.9726 30.0211C15.8142 29.5746 15.7275 29.0946 15.7275 28.5935V27.924C16.1301 27.8202 16.5454 27.75 16.9717 27.7158C17.1725 27.6996 17.3749 27.6914 17.5797 27.6914H22.4197C22.9919 27.6914 23.5489 27.7549 24.0836 27.8776C24.1464 27.8922 24.2099 27.9069 24.2722 27.9233Z" fill="#D39272"/>
<path d="M21.3766 27.6914C19.2474 27.6914 17.3276 28.5868 15.9726 30.0211C15.8142 29.5746 15.7275 29.0946 15.7275 28.5935V27.924C16.1301 27.8202 16.5454 27.75 16.9717 27.7158C17.1725 27.6996 17.3749 27.6914 17.5797 27.6914H21.3766Z" fill="#BF7C5E"/>
<path d="M22.6513 24.8281V28.0825C22.6513 29.2739 21.8658 30.281 20.7836 30.6155C20.5358 30.6921 20.2719 30.7339 19.999 30.7339C18.5345 30.7339 17.3477 29.5468 17.3477 28.0825V24.8281H22.6513Z" fill="#BF7C5E"/>
<path d="M22.6514 27.8762V28.0825C22.6514 29.2739 21.8658 30.281 20.7837 30.6155C19.8074 30.3152 19.0735 29.4665 18.938 28.4277C19.115 28.4387 19.2932 28.4442 19.472 28.4442C19.9738 28.4442 20.4654 28.4042 20.9445 28.3257C21.535 28.2308 22.1054 28.0789 22.6514 27.8762Z" fill="#D39272"/>
<path d="M12.7254 19.4949C12.7254 20.7224 11.8288 21.7404 10.6545 21.9293C10.5263 21.9501 10.3942 21.9611 10.2596 21.9611C8.89728 21.9611 7.79346 20.8572 7.79346 19.4949C7.79346 18.1326 8.89728 17.0288 10.2596 17.0288C10.3942 17.0288 10.5263 17.0398 10.6545 17.0605C11.8288 17.2495 12.7254 18.2672 12.7254 19.4949Z" fill="#D39272"/>
<path d="M12.7252 19.4949C12.7252 20.7224 11.8286 21.7404 10.6543 21.9293C10.441 21.1536 10.3271 20.3372 10.3271 19.4949C10.3271 18.6523 10.441 17.836 10.6543 17.0605C11.8286 17.2495 12.7252 18.2672 12.7252 19.4949Z" fill="#BF7C5E"/>
<path d="M11.1406 19.4949C11.1406 19.9816 10.746 20.3762 10.2593 20.3762C9.77252 20.3762 9.37793 19.9816 9.37793 19.4949C9.37793 19.0081 9.77252 18.6135 10.2593 18.6135C10.746 18.6135 11.1406 19.0081 11.1406 19.4949Z" fill="#BF7C5E"/>
<path d="M27.2734 19.4949C27.2734 20.7224 28.17 21.7404 29.3444 21.9293C29.4728 21.9501 29.6047 21.9611 29.7393 21.9611C31.1016 21.9611 32.2054 20.8572 32.2054 19.4949C32.2054 18.1326 31.1016 17.0288 29.7393 17.0288C29.6047 17.0288 29.4728 17.0398 29.3444 17.0605C28.17 17.2495 27.2734 18.2672 27.2734 19.4949Z" fill="#D39272"/>
<path d="M27.2734 19.4949C27.2734 20.7224 28.17 21.7404 29.3444 21.9293C29.5577 21.1536 29.6715 20.3372 29.6715 19.4949C29.6715 18.6523 29.5577 17.836 29.3444 17.0605C28.17 17.2495 27.2734 18.2672 27.2734 19.4949Z" fill="#BF7C5E"/>
<path d="M29.1746 14.6906V18.1845C29.1746 22.7502 25.8394 26.5378 21.472 27.2409C21.4573 27.2433 21.4418 27.2458 21.4271 27.2482C20.9626 27.3224 20.4857 27.359 19.9992 27.359C14.9324 27.359 10.8247 23.2513 10.8247 18.1845V14.6906C10.8247 13.6237 11.0066 12.5983 11.3429 11.6458C12.5978 8.07495 16.0002 5.51514 19.9992 5.51514H20.0001C20.4857 5.51514 20.9633 5.55267 21.4286 5.62622C25.8171 6.31195 29.1746 10.1093 29.1746 14.6906Z" fill="#BF7C5E"/>
<path d="M30.6214 19.4949C30.6214 19.9816 30.2268 20.3762 29.7397 20.3762C29.253 20.3762 28.8584 19.9816 28.8584 19.4949C28.8584 19.0081 29.253 18.6135 29.7397 18.6135C30.2268 18.6135 30.6214 19.0081 30.6214 19.4949Z" fill="#BF7C5E"/>
<path d="M29.1745 14.6906V18.1845C29.1745 22.7502 25.8392 26.5378 21.4719 27.2409C21.4572 27.2433 21.4417 27.2458 21.427 27.2482C17.0383 26.5625 13.6816 22.7649 13.6816 18.1845V14.6906C13.6816 10.1093 17.0392 6.31195 21.4285 5.62622C25.817 6.31195 29.1745 10.1093 29.1745 14.6906Z" fill="#D39272"/>
<path d="M19.9989 22.7035C19.2305 22.7035 18.4623 22.5109 17.762 22.1261C17.5645 22.0174 17.4922 21.7693 17.6008 21.5716C17.7095 21.3741 17.9576 21.3021 18.155 21.4107C19.3095 22.0452 20.688 22.0452 21.8425 21.4107C22.0399 21.3021 22.288 21.3741 22.3967 21.5716C22.5053 21.7693 22.4333 22.0174 22.2355 22.1261C21.5352 22.5109 20.767 22.7035 19.9989 22.7035Z" fill="#BF7C5E"/>
<path d="M21.0403 20.2706H18.9587C18.7106 20.2706 18.5098 20.0698 18.5098 19.8217C18.5098 19.5739 18.7106 19.3728 18.9587 19.3728H21.0403C21.2884 19.3728 21.4892 19.5739 21.4892 19.8217C21.4892 20.0698 21.2884 20.2706 21.0403 20.2706Z" fill="#BF7C5E"/>
<path d="M18.0458 17.65C18.0458 18.225 17.5798 18.691 17.0048 18.691C16.4299 18.691 15.9639 18.225 15.9639 17.65C15.9639 17.0751 16.4299 16.6094 17.0048 16.6094C17.5798 16.6094 18.0458 17.0751 18.0458 17.65Z" fill="#2F373B"/>
<path d="M24.0352 17.65C24.0352 18.225 23.5692 18.691 22.9946 18.691C22.4196 18.691 21.9536 18.225 21.9536 17.65C21.9536 17.0751 22.4196 16.6094 22.9946 16.6094C23.5692 16.6094 24.0352 17.0751 24.0352 17.65Z" fill="#2F373B"/>
<path d="M17.8334 17.4664C17.8334 17.7126 17.6339 17.9125 17.3876 17.9125C17.1413 17.9125 16.9414 17.7126 16.9414 17.4664C16.9414 17.2201 17.1413 17.0205 17.3876 17.0205C17.6339 17.0205 17.8334 17.2201 17.8334 17.4664Z" fill="white"/>
<path d="M23.8745 17.4664C23.8745 17.7126 23.6746 17.9125 23.4283 17.9125C23.182 17.9125 22.9824 17.7126 22.9824 17.4664C22.9824 17.2201 23.182 17.0205 23.4283 17.0205C23.6746 17.0205 23.8745 17.2201 23.8745 17.4664Z" fill="white"/>
<path d="M13.8427 35.123V39.0342C12.5478 38.6155 11.3112 38.0686 10.147 37.4082V35.123H13.8427Z" fill="#BF7C5E"/>
<path d="M29.8531 35.123V37.4082C28.6891 38.0686 27.4523 38.6155 26.1577 39.0342V35.123H29.8531Z" fill="#D39272"/>
<path d="M29.1749 9.80811V14.7788H10.8247V9.80811C10.8247 6.76398 13.3592 4.29541 16.486 4.29541H23.5136C26.6407 4.29541 29.1749 6.76398 29.1749 9.80811Z" fill="#DD104F"/>
<path d="M29.1748 9.80811V14.7788H15.1001V9.80811C15.1001 6.76398 17.6343 4.29541 20.7614 4.29541H23.5135C26.6406 4.29541 29.1748 6.76398 29.1748 9.80811Z" fill="#F73B6C"/>
<path d="M24.3931 9.41797H21.9597C20.8772 9.41797 19.9995 10.2957 19.9995 11.3781V13.1457H26.3533V11.3781C26.3533 10.2957 25.4759 9.41797 24.3931 9.41797Z" fill="#151A1C"/>
<path d="M4.87823 12.4585H11.0657V14.7784H4.87823C4.23767 14.7784 3.71826 14.259 3.71826 13.6185C3.71826 12.9779 4.23767 12.4585 4.87823 12.4585Z" fill="#DD104F"/>
</svg>
