<svg width="40" height="40" viewBox="0 0 40 40" fill="none" xmlns="http://www.w3.org/2000/svg">
<path d="M20 40C31.0457 40 40 31.0457 40 20C40 8.9543 31.0457 0 20 0C8.9543 0 0 8.9543 0 20C0 31.0457 8.9543 40 20 40Z" fill="#22BCE0"/>
<path d="M39.9997 20C39.9997 28.4016 34.8192 35.593 27.4778 38.5547C14.6216 35.0719 5.16455 23.3234 5.16455 9.36484C5.16455 8.37578 5.21221 7.39688 5.30518 6.43203C8.95986 2.47656 14.1903 0 19.9997 0C31.045 0 39.9997 8.95469 39.9997 20Z" fill="#4FCAE8"/>
<path d="M11.6676 18.9772L10.2309 21.062L9.21934 20.954L6.76575 20.6924C6.07513 20.6186 5.44388 20.3349 4.94263 19.9029C4.39044 19.4291 3.99419 18.7757 3.84435 18.0251L3.27091 15.1509C3.16669 14.6299 3.7295 14.2321 4.18591 14.5052L4.73958 14.836L7.15973 16.2827L11.6676 18.9772Z" fill="#F9C744"/>
<path d="M4.94263 19.9019C4.39044 19.4281 3.99419 18.7747 3.84435 18.0241L3.27091 15.1499C3.16669 14.6289 3.7295 14.2312 4.18591 14.5042L4.73958 14.8351L5.33966 17.4118C5.54271 18.2827 5.38451 19.1725 4.94263 19.9019Z" fill="#FBD9A3"/>
<path d="M11.6676 18.9763L10.2309 21.0611L9.21936 20.9531C8.42381 20.4808 7.83889 19.686 7.64951 18.7361L7.15967 16.2817L11.6676 18.9763Z" fill="#F39E22"/>
<path d="M10.8157 19.7543C10.7755 19.7543 10.7346 19.7452 10.6963 19.7258L6.41805 17.5721C6.28673 17.506 6.23384 17.346 6.30001 17.2147C6.36602 17.0834 6.52594 17.0304 6.65743 17.0967L10.9356 19.2503C11.067 19.3164 11.1199 19.4764 11.0537 19.6078C11.007 19.7006 10.9131 19.7543 10.8157 19.7543Z" fill="#FBD9A3"/>
<path d="M10.5239 20.6973C10.4943 20.6973 10.4643 20.6924 10.435 20.6819L6.44886 19.2693C6.31026 19.2202 6.23776 19.068 6.28683 18.9294C6.33589 18.7908 6.48823 18.7181 6.62667 18.7674L10.6128 20.1801C10.7514 20.2291 10.8239 20.3813 10.7748 20.5199C10.7361 20.6291 10.6334 20.6973 10.5239 20.6973Z" fill="#FBD9A3"/>
<path d="M11.6671 23.6702L10.2304 21.5854L9.21886 21.6934L6.76526 21.9551C6.07464 22.0288 5.44339 22.3126 4.94214 22.7445C4.38995 23.2183 3.9937 23.8717 3.84386 24.6223L3.27042 27.4965C3.1662 28.0175 3.72902 28.4153 4.18542 28.1422L4.73909 27.8114L7.15925 26.3647L11.6671 23.6702Z" fill="#F9C744"/>
<path d="M4.94214 22.7446C4.38995 23.2185 3.9937 23.8718 3.84386 24.6224L3.27042 27.4967C3.1662 28.0177 3.72901 28.4154 4.18542 28.1424L4.73909 27.8115L5.33917 25.2347C5.54222 24.3639 5.38401 23.474 4.94214 22.7446Z" fill="#FBD9A3"/>
<path d="M11.6671 23.6702L10.2304 21.5854L9.21887 21.6934C8.42332 22.1658 7.8384 22.9605 7.64902 23.9104L7.15918 26.3648L11.6671 23.6702Z" fill="#F39E22"/>
<path d="M10.8152 22.8923C10.775 22.8923 10.7341 22.9015 10.6958 22.9208L6.41757 25.0745C6.28624 25.1406 6.23335 25.3006 6.29952 25.4319C6.36553 25.5633 6.52546 25.6162 6.65694 25.55L10.9351 23.3963C11.0665 23.3302 11.1194 23.1702 11.0532 23.0389C11.0064 22.946 10.9126 22.8923 10.8152 22.8923Z" fill="#FBD9A3"/>
<path d="M10.5234 21.9492C10.4938 21.9492 10.4638 21.9541 10.4345 21.9646L6.44837 23.3773C6.30978 23.4263 6.23728 23.5785 6.28634 23.7171C6.3354 23.8558 6.48774 23.9284 6.62618 23.8791L10.6123 22.4665C10.7509 22.4174 10.8234 22.2652 10.7743 22.1266C10.7356 22.0174 10.6329 21.9492 10.5234 21.9492Z" fill="#FBD9A3"/>
<path d="M25.1812 17.2039L15.182 19.402L14.3918 16.7126C14.2937 16.3802 14.2815 16.0402 14.3446 15.7185C14.4663 15.0934 14.8701 14.5359 15.4733 14.2362L20.9373 11.5217C21.4651 11.2593 22.0416 11.2411 22.5497 11.4145C23.1695 11.6252 23.6875 12.1226 23.8905 12.8124L25.1812 17.2039Z" fill="#F9C744"/>
<path d="M22.5497 11.414C22.428 12.0399 22.0242 12.5974 21.4211 12.8963L15.9564 15.6108C15.4286 15.8732 14.852 15.8914 14.3447 15.7181C14.4664 15.0929 14.8703 14.5354 15.4734 14.2357L20.9374 11.5213C21.4651 11.2588 22.0416 11.2406 22.5497 11.414Z" fill="#FBD9A3"/>
<path d="M16.2067 16.7299L21.6708 14.0157C22.8422 13.4338 24.2549 14.0511 24.6237 15.306L25.9148 19.698L15.9153 21.8959L15.1247 19.2063C14.8371 18.2276 15.2932 17.1837 16.2067 16.7299Z" fill="#F39E22"/>
<path d="M16.1957 20.041C16.0806 20.041 15.9745 19.9657 15.9404 19.8497L15.067 16.8775C15.0255 16.7364 15.1063 16.5885 15.2473 16.547C15.3886 16.5056 15.5363 16.5862 15.5778 16.7273L16.4512 19.6996C16.4926 19.8406 16.4119 19.9886 16.2709 20.03C16.2459 20.0375 16.2205 20.041 16.1957 20.041Z" fill="#FBD9A3"/>
<path d="M17.2908 19.4668C17.1757 19.4668 17.0696 19.3915 17.0355 19.2755L16.1622 16.3033C16.1208 16.1623 16.2015 16.0143 16.3426 15.9728C16.4837 15.9313 16.6315 16.012 16.673 16.1531L17.5464 19.1254C17.5879 19.2664 17.507 19.4144 17.366 19.4558C17.3408 19.4633 17.3156 19.4668 17.2908 19.4668Z" fill="#FBD9A3"/>
<path d="M18.3865 18.9467C18.2714 18.9467 18.1653 18.8715 18.1312 18.7555L17.2579 15.7832C17.2165 15.6421 17.2973 15.4942 17.4383 15.4527C17.579 15.4114 17.7272 15.4919 17.7688 15.633L18.6421 18.6053C18.6835 18.7464 18.6027 18.8943 18.4617 18.9358C18.4366 18.9432 18.4113 18.9467 18.3865 18.9467Z" fill="#FBD9A3"/>
<path d="M19.4817 18.3659C19.3666 18.3659 19.2606 18.2906 19.2264 18.1746L18.3531 15.2024C18.3117 15.0613 18.3925 14.9134 18.5335 14.8719C18.6744 14.8306 18.8225 14.9111 18.864 15.0522L19.7373 18.0245C19.7788 18.1655 19.6979 18.3134 19.5569 18.3549C19.5319 18.3624 19.5066 18.3659 19.4817 18.3659Z" fill="#FBD9A3"/>
<path d="M20.5774 17.8606C20.4623 17.8606 20.3562 17.7853 20.3221 17.6693L19.4488 14.697C19.4074 14.5559 19.4882 14.4081 19.6292 14.3666C19.77 14.3252 19.9182 14.4058 19.9597 14.5469L20.833 17.5192C20.8744 17.6602 20.7937 17.8081 20.6527 17.8496C20.6276 17.857 20.6023 17.8606 20.5774 17.8606Z" fill="#FBD9A3"/>
<path d="M21.9096 18.1117C21.7945 18.1117 21.6884 18.0365 21.6543 17.9205L20.5431 14.1389C20.5016 13.9979 20.5825 13.8499 20.7235 13.8084C20.8644 13.7671 21.0125 13.8477 21.054 13.9888L22.1651 17.7703C22.2066 17.9113 22.1258 18.0593 21.9847 18.1008C21.9597 18.1082 21.9345 18.1117 21.9096 18.1117Z" fill="#FBD9A3"/>
<path d="M23.1172 17.9808C23.0022 17.9808 22.8961 17.9055 22.8619 17.7895L21.6393 13.6284C21.5979 13.4874 21.6786 13.3394 21.8197 13.2979C21.9604 13.2566 22.1086 13.3372 22.1501 13.4783L23.3728 17.6394C23.4143 17.7804 23.3334 17.9283 23.1924 17.9698C23.1673 17.9772 23.1421 17.9808 23.1172 17.9808Z" fill="#FBD9A3"/>
<path d="M24.4154 18.1118C24.3004 18.1118 24.1943 18.0366 24.1601 17.9206L22.7345 13.0688C22.693 12.9278 22.7738 12.7799 22.9149 12.7384C23.0558 12.697 23.2039 12.7776 23.2454 12.9187L24.671 17.7704C24.7124 17.9114 24.6317 18.0594 24.4906 18.1009C24.4656 18.1083 24.4404 18.1118 24.4154 18.1118Z" fill="#FBD9A3"/>
<path d="M19.5747 26.4199L14.5036 23.6782L13.6584 25.0113C13.5538 25.176 13.4944 25.3581 13.4786 25.542C13.4474 25.8992 13.5795 26.2637 13.8595 26.5195L16.3956 28.8368C16.6406 29.0608 16.9498 29.1601 17.2517 29.1451C17.6199 29.1273 17.9775 28.9385 18.1945 28.5966L19.5747 26.4199Z" fill="#F9C744"/>
<path d="M17.2517 29.1452C17.283 28.7876 17.1509 28.4231 16.8709 28.1676L14.3343 25.8502C14.0893 25.6262 13.7801 25.5269 13.4786 25.542C13.4474 25.8993 13.5795 26.2637 13.8595 26.5195L16.3956 28.8368C16.6406 29.0608 16.9499 29.1602 17.2517 29.1452Z" fill="#FBD9A3"/>
<path d="M14.6438 25.2832L17.18 27.6005C17.7237 28.0973 18.5842 27.9824 18.9786 27.3605L20.3591 25.1836L15.2879 22.4419L14.4425 23.7749C14.1349 24.2599 14.2197 24.8958 14.6438 25.2832Z" fill="#F39E22"/>
<path d="M14.4852 25.5687C14.4365 25.5687 14.3872 25.5553 14.3429 25.5273C14.2187 25.4485 14.1819 25.2841 14.2607 25.1599L15.8161 22.7067C15.8947 22.5825 16.0592 22.5457 16.1834 22.6245C16.3076 22.7032 16.3444 22.8677 16.2657 22.9918L14.7103 25.445C14.6596 25.5249 14.5733 25.5687 14.4852 25.5687Z" fill="#FBD9A3"/>
<path d="M15.5013 26.501C15.4526 26.501 15.4033 26.4876 15.3591 26.4596C15.2348 26.3808 15.198 26.2164 15.2768 26.0923L16.7488 23.7705C16.8275 23.6463 16.9919 23.6094 17.1162 23.6882C17.2404 23.767 17.2772 23.9314 17.1984 24.0555L15.7264 26.3773C15.6757 26.4573 15.5895 26.501 15.5013 26.501Z" fill="#FBD9A3"/>
<path d="M16.5179 27.4288C16.4692 27.4288 16.4199 27.4154 16.3757 27.3874C16.2514 27.3086 16.2146 27.1442 16.2934 27.0201L17.7341 24.7477C17.8129 24.6234 17.9775 24.5868 18.1014 24.6655C18.2257 24.7442 18.2625 24.9087 18.1837 25.0328L16.743 27.3051C16.6923 27.3851 16.6061 27.4288 16.5179 27.4288Z" fill="#FBD9A3"/>
<path d="M17.538 28.3474C17.4892 28.3474 17.4399 28.334 17.3957 28.306C17.2715 28.2272 17.2347 28.0628 17.3134 27.9386L18.6211 25.8761C18.6999 25.7518 18.8644 25.7152 18.9884 25.7939C19.1126 25.8726 19.1494 26.0371 19.0707 26.1612L17.763 28.2237C17.7123 28.3036 17.6261 28.3474 17.538 28.3474Z" fill="#FBD9A3"/>
<path d="M25.7802 26.7751L24.7862 27.7699C24.7269 27.83 24.6759 27.8962 24.6356 27.9684L24.6348 27.9692C24.5549 28.1092 24.5116 28.2681 24.5116 28.4324V30.467C24.5116 30.5095 24.5085 30.5506 24.5032 30.5917C24.4423 31.0496 24.0491 31.404 23.5745 31.404H22.0503C21.5323 31.404 21.1133 30.9841 21.1133 30.467V27.5129C21.1133 26.9957 21.5323 26.5759 22.0503 26.5759H22.9409C23.1273 26.5759 23.3083 26.5203 23.4604 26.4192C23.5113 26.3857 23.5593 26.3461 23.6034 26.302L24.4552 25.4502C24.8211 25.0843 25.4143 25.0843 25.7802 25.4502C26.1461 25.816 26.1461 26.4093 25.7802 26.7751Z" fill="#F9C744"/>
<path d="M25.7797 26.7751L24.7857 27.7699C24.7264 27.83 24.6754 27.8962 24.635 27.9685L24.6343 27.9692C24.5544 28.1092 24.5111 28.2682 24.5111 28.4325V29.6821H23.7086C23.1899 29.6821 22.7686 29.2614 22.7686 28.742V26.5759H22.9404C23.1268 26.5759 23.3078 26.5203 23.4599 26.4192C23.5108 26.3857 23.5588 26.3461 23.6029 26.3021L24.4547 25.4502C24.8206 25.0843 25.4138 25.0843 25.7797 25.4502C26.1456 25.816 26.1456 26.4093 25.7797 26.7751Z" fill="#F39E22"/>
<path d="M21.8258 29.682C21.7576 29.682 21.6895 29.656 21.6376 29.604C21.5336 29.5 21.5336 29.3315 21.6376 29.2275L24.9142 25.951C25.018 25.8471 25.1866 25.8471 25.2906 25.951C25.3946 26.055 25.3946 26.2235 25.2906 26.3275L22.014 29.604C21.9621 29.656 21.8939 29.682 21.8258 29.682Z" fill="#FBD9A3"/>
<path d="M23.4601 26.4192L22.2188 27.6604C22.1663 27.7129 22.0987 27.7388 22.0302 27.7388C21.9626 27.7388 21.894 27.7129 21.8423 27.6604C21.7381 27.557 21.7381 27.3882 21.8423 27.284L22.5505 26.5758H22.9406C23.1269 26.5759 23.308 26.5204 23.4601 26.4192Z" fill="#FBD9A3"/>
<path d="M24.6348 27.9692C24.555 28.1092 24.5116 28.2681 24.5116 28.4324V28.8454L22.8232 30.5331C22.7715 30.5849 22.703 30.6115 22.6353 30.6115C22.5669 30.6115 22.4991 30.5849 22.4467 30.5331C22.3433 30.4289 22.3433 30.2609 22.4467 30.1567L24.6348 27.9692Z" fill="#FBD9A3"/>
<path d="M24.5111 29.8303V30.4669C24.5111 30.5095 24.508 30.5506 24.5027 30.5917L24.1422 30.9522C24.0904 31.0047 24.022 31.0306 23.9536 31.0306C23.8859 31.0306 23.8174 31.0047 23.7657 30.9522C23.6614 30.8488 23.6614 30.6799 23.7657 30.5757L24.5111 29.8303Z" fill="#FBD9A3"/>
<path d="M26.2786 26.1294C26.2786 25.5111 25.7774 24.5107 25.1591 24.5107C24.5408 24.5107 24.0396 25.5111 24.0396 26.1294C24.0396 26.7477 24.5408 27.2489 25.1591 27.2489C25.7774 27.2489 26.2786 26.7478 26.2786 26.1294Z" fill="#F9C744"/>
<path d="M26.0546 25.8799C26.0546 25.5462 25.5939 24.9812 25.2603 24.9812C24.9266 24.9812 24.8462 25.5462 24.8462 25.8799C24.8462 26.2135 25.1167 26.484 25.4503 26.484C25.7841 26.484 26.0546 26.2135 26.0546 25.8799Z" fill="#FBD9A3"/>
<path d="M25.1822 17.2039H18.9357C17.8722 17.2039 16.9032 17.6071 16.1725 18.2688C15.3621 19.0028 14.2795 19.3596 13.1977 19.2007L11.6679 18.9762C10.9107 18.865 10.2314 19.452 10.2314 20.2172V22.4294C10.2314 23.1946 10.9108 23.7816 11.6679 23.6704L13.1977 23.4459C14.2795 23.2871 15.3621 23.6439 16.1725 24.3778C16.9032 25.0396 17.8723 25.4428 18.9357 25.4428H25.1822C27.4573 25.4428 32.8239 24.7744 32.8239 22.4993C32.7759 22.1604 32.6125 21.8453 32.3521 21.6232C32.007 21.3289 31.7453 20.9449 31.5829 20.5138C30.8072 18.4539 27.2045 17.2039 25.1822 17.2039Z" fill="#EA792E"/>
<path d="M27.3223 22.511C27.3223 21.5978 27.4984 20.5284 27.8037 19.5213C27.9763 18.952 27.2651 18.5317 26.8566 18.9641C25.9655 19.9071 25.3765 21.4083 25.3765 22.552C25.3765 23.6566 25.9259 24.1703 26.7664 24.4024C27.1801 24.5167 27.5673 24.1345 27.4582 23.7195C27.3698 23.3835 27.3223 22.9846 27.3223 22.511Z" fill="#F39E22"/>
<path d="M26.8603 22.2776C26.8603 21.7394 26.9641 21.109 27.144 20.5154C27.2457 20.1799 26.8266 19.9322 26.5858 20.1871C26.0606 20.7429 25.7134 21.6277 25.7134 22.3018C25.7134 22.9528 26.0372 23.2556 26.5326 23.3924C26.7764 23.4597 27.0046 23.2345 26.9403 22.9899C26.8882 22.7918 26.8603 22.5567 26.8603 22.2776Z" fill="#F9C744"/>
<path d="M26.3033 22.7051C26.6275 22.7051 26.8904 22.4422 26.8904 22.118C26.8904 21.7938 26.6275 21.531 26.3033 21.531C25.9791 21.531 25.7163 21.7938 25.7163 22.118C25.7163 22.4422 25.9791 22.7051 26.3033 22.7051Z" fill="#FBD9A3"/>
<path d="M11.5437 21.061H14.911C15.2428 21.061 15.5118 20.792 15.5118 20.4602C15.5118 20.1622 15.2934 19.9093 14.9987 19.8658L11.6313 19.3693C11.2685 19.3158 10.9429 19.597 10.9429 19.9637V20.4602C10.9429 20.792 11.2119 21.061 11.5437 21.061Z" fill="#F39E22"/>
<path d="M11.6993 21.2459C11.6804 21.2459 11.6613 21.2452 11.6421 21.2441C11.1548 21.2163 10.7441 20.8385 10.6795 20.3548C10.5947 19.7202 11.0863 19.178 11.7043 19.178H11.7087C11.8534 19.1786 11.9203 19.3599 11.8149 19.4591C11.6148 19.6476 11.4898 19.9153 11.4898 20.2123C11.4898 20.5089 11.6145 20.776 11.8143 20.9643C11.9229 21.0666 11.8484 21.2466 11.6993 21.2459Z" fill="#FBD9A3"/>
<path d="M13.3162 21.2459C13.2989 21.2458 13.2816 21.2453 13.2642 21.2443C12.8205 21.219 12.4464 20.8749 12.3876 20.4344C12.3104 19.8565 12.7581 19.3628 13.3208 19.3628H13.3248C13.4566 19.3633 13.5175 19.5284 13.4216 19.6188C13.2393 19.7904 13.1255 20.0343 13.1255 20.3047C13.1255 20.5748 13.239 20.818 13.421 20.9895C13.5198 21.0826 13.452 21.2465 13.3162 21.2459Z" fill="#F9C744"/>
<path d="M14.7314 21.246C14.7165 21.2459 14.7015 21.2454 14.6864 21.2446C14.3025 21.2226 13.9788 20.925 13.9279 20.5439C13.8611 20.0439 14.2485 19.6167 14.7353 19.6167H14.7388C14.8528 19.6172 14.9055 19.76 14.8225 19.8382C14.6648 19.9867 14.5664 20.1977 14.5664 20.4316C14.5664 20.6654 14.6646 20.8758 14.8221 21.0241C14.9076 21.1047 14.8489 21.2465 14.7314 21.246Z" fill="#F9C744"/>
<path d="M11.6993 21.4009C11.6804 21.401 11.6613 21.4016 11.6421 21.4027C11.1548 21.4305 10.7441 21.8083 10.6795 22.2921C10.5947 22.9267 11.0863 23.4688 11.7043 23.4688H11.7087C11.8534 23.4682 11.9203 23.287 11.8149 23.1878C11.6148 22.9992 11.4898 22.7315 11.4898 22.4346C11.4898 22.1379 11.6145 21.8708 11.8143 21.6825C11.9229 21.5802 11.8484 21.4002 11.6993 21.4009Z" fill="#F39E22"/>
<path d="M13.3162 21.4009C13.2989 21.401 13.2816 21.4015 13.2642 21.4025C12.8205 21.4278 12.4464 21.7719 12.3876 22.2124C12.3104 22.7903 12.7581 23.284 13.3208 23.284H13.3248C13.4566 23.2835 13.5175 23.1184 13.4216 23.028C13.2393 22.8563 13.1255 22.6125 13.1255 22.3421C13.1255 22.072 13.239 21.8288 13.421 21.6573C13.5198 21.5642 13.452 21.4003 13.3162 21.4009Z" fill="#F39E22"/>
<path d="M14.7314 21.4009C14.7165 21.401 14.7015 21.4014 14.6864 21.4023C14.3025 21.4242 13.9788 21.7219 13.9279 22.103C13.8611 22.603 14.2485 23.0302 14.7353 23.0302H14.7388C14.8528 23.0297 14.9055 22.8869 14.8225 22.8087C14.6648 22.6602 14.5664 22.4492 14.5664 22.2153C14.5664 21.9815 14.6646 21.771 14.8221 21.6228C14.9076 21.5421 14.8489 21.4003 14.7314 21.4009Z" fill="#F39E22"/>
<path d="M23.6592 20.6203H24.2292C24.9604 20.6203 25.5813 20.0219 25.5677 19.2908C25.5544 18.5819 24.9755 18.0112 24.2634 18.0112H19.3685C19.3539 18.0112 19.3397 18.0129 19.3253 18.0134C18.5362 17.9782 17.7745 18.4343 17.458 19.2072L16.5874 21.3329C16.1846 22.3167 16.6555 23.4408 17.6393 23.8437L18.7249 24.2883C19.7087 24.6912 20.8328 24.2202 21.2357 23.2364L21.7267 21.9509C22.0328 21.1496 22.8015 20.6203 23.6592 20.6203Z" fill="#F39E22"/>
<path d="M23.8923 20.082H19.3214C18.7502 20.082 18.2871 19.619 18.2871 19.0477C18.2871 18.4765 18.7502 18.0134 19.3214 18.0134H23.8923C24.4635 18.0134 24.9266 18.4765 24.9266 19.0477C24.9266 19.619 24.4635 20.082 23.8923 20.082Z" fill="#F9C744"/>
<path d="M19.3165 20.0816C19.2976 20.0816 19.2785 20.0809 19.2593 20.0798C18.772 20.052 18.3613 19.6742 18.2966 19.1905C18.2119 18.5559 18.7035 18.0137 19.3215 18.0137H19.3259C19.4706 18.0143 19.5375 18.1955 19.4321 18.2948C19.232 18.4833 19.107 18.751 19.107 19.048C19.107 19.3446 19.2316 19.6117 19.4315 19.8C19.54 19.9023 19.4656 20.0823 19.3165 20.0816Z" fill="#FBD9A3"/>
<path d="M21.4478 20.0816C21.4289 20.0816 21.4099 20.0809 21.3906 20.0798C20.9034 20.052 20.4926 19.6742 20.428 19.1905C20.3432 18.5559 20.8349 18.0137 21.4528 18.0137H21.4572C21.602 18.0143 21.6688 18.1955 21.5635 18.2948C21.3633 18.4833 21.2383 18.751 21.2383 19.048C21.2383 19.3446 21.363 19.6117 21.5628 19.8C21.6714 19.9023 21.597 20.0823 21.4478 20.0816Z" fill="#FBD9A3"/>
<path d="M18.3048 23.0436C18.2859 23.0435 18.2668 23.0429 18.2476 23.0418C17.7603 23.0139 17.3495 22.6361 17.2849 22.1524C17.2002 21.5178 17.6918 20.9756 18.3098 20.9756H18.3141C18.4589 20.9762 18.5258 21.1575 18.4204 21.2567C18.2202 21.4452 18.0952 21.7129 18.0952 22.0099C18.0952 22.3065 18.2199 22.5736 18.4198 22.7619C18.5283 22.8643 18.4538 23.0443 18.3048 23.0436Z" fill="#F9C744"/>
<path d="M20.4361 23.0436C20.4172 23.0435 20.3982 23.0429 20.3789 23.0418C19.8917 23.0139 19.4809 22.6361 19.4163 22.1524C19.3315 21.5178 19.8232 20.9756 20.4411 20.9756H20.4455C20.5903 20.9762 20.6571 21.1575 20.5517 21.2567C20.3516 21.4452 20.2266 21.7129 20.2266 22.0099C20.2266 22.3065 20.3513 22.5736 20.5511 22.7619C20.6597 22.8643 20.5853 23.0443 20.4361 23.0436Z" fill="#F9C744"/>
<path d="M23.5797 20.0816C23.5608 20.0816 23.5417 20.0809 23.5225 20.0798C23.0352 20.052 22.6244 19.6742 22.5598 19.1905C22.4751 18.5559 22.9667 18.0137 23.5847 18.0137H23.589C23.7338 18.0143 23.8007 18.1955 23.6953 18.2948C23.4951 18.4833 23.3701 18.751 23.3701 19.048C23.3701 19.3446 23.4948 19.6117 23.6947 19.8C23.8033 19.9023 23.7288 20.0823 23.5797 20.0816Z" fill="#FBD9A3"/>
<path d="M23.5841 21.4319C22.912 21.4319 22.3672 21.9767 22.3672 22.6488V23.4367C22.3672 24.1088 22.912 24.6536 23.5841 24.6536C24.2563 24.6536 24.8011 24.1088 24.8011 23.4367V22.6488C24.8011 21.9767 24.2563 21.4319 23.5841 21.4319Z" fill="#F39E22"/>
<path d="M30.8833 24.0378C30.9962 24.0378 31.1056 23.9976 31.1937 23.9239L32.3389 22.9648C32.578 22.7646 32.5876 22.3881 32.3589 22.1749L31.9726 21.8147C31.7406 21.5984 31.3773 21.656 31.2172 21.9343L30.4583 23.2535C30.2598 23.5985 30.4978 24.0378 30.8833 24.0378Z" fill="#F39E22"/>
<path d="M31.5546 23.1951C31.873 23.1951 32.1312 22.937 32.1312 22.6186C32.1312 22.3001 31.873 22.042 31.5546 22.042C31.2362 22.042 30.978 22.3001 30.978 22.6186C30.978 22.937 31.2362 23.1951 31.5546 23.1951Z" fill="#F9C744"/>
<path d="M31.0705 21.2232C31.0705 22.123 30.3398 22.8537 29.44 22.8537C28.5391 22.8537 27.8096 22.123 27.8096 21.2232C27.8096 20.9793 27.8629 20.7479 27.9593 20.5402C28.218 19.9808 28.7831 19.5928 29.44 19.5928C30.0959 19.5928 30.6621 19.9808 30.9207 20.5402C31.0171 20.7479 31.0705 20.9793 31.0705 21.2232Z" fill="#F39E22"/>
<path d="M29.4402 21.4876C30.2579 21.4876 30.9209 21.0634 30.9209 20.5402C30.9209 20.0169 30.2579 19.5928 29.4402 19.5928C28.6224 19.5928 27.9595 20.0169 27.9595 20.5402C27.9595 21.0634 28.6224 21.4876 29.4402 21.4876Z" fill="#FBD9A3"/>
<path d="M30.4707 21.2234C30.4707 21.667 30.1893 22.046 29.7955 22.1912C29.6844 22.2309 29.5652 22.2537 29.4404 22.2537C28.8708 22.2537 28.4102 21.7919 28.4102 21.2234C28.4102 20.6537 28.8709 20.1931 29.4404 20.1931C29.5652 20.1931 29.6844 20.2158 29.7955 20.2555C30.1893 20.4008 30.4707 20.7786 30.4707 21.2234Z" fill="#3F5D77"/>
<path d="M29.7948 22.1912C30.1677 22.1912 30.4699 21.7578 30.4699 21.2233C30.4699 20.6887 30.1677 20.2554 29.7948 20.2554C29.4219 20.2554 29.1196 20.6887 29.1196 21.2233C29.1196 21.7578 29.4219 22.1912 29.7948 22.1912Z" fill="#2E3140"/>
<path d="M29.4395 21.488C29.7199 21.488 29.9473 21.2607 29.9473 20.9802C29.9473 20.6998 29.7199 20.4724 29.4395 20.4724C29.159 20.4724 28.9316 20.6998 28.9316 20.9802C28.9316 21.2607 29.159 21.488 29.4395 21.488Z" fill="#83D5EF"/>
<path d="M35.1865 23.1219C35.8637 23.1219 36.4126 22.5729 36.4126 21.8958C36.4126 21.2186 35.8637 20.6697 35.1865 20.6697C34.5094 20.6697 33.9604 21.2186 33.9604 21.8958C33.9604 22.5729 34.5094 23.1219 35.1865 23.1219Z" fill="#83D5EF"/>
<path d="M35.3793 22.2534C35.7594 22.2534 36.0676 21.9452 36.0676 21.5651C36.0676 21.1849 35.7594 20.8767 35.3793 20.8767C34.9991 20.8767 34.6909 21.1849 34.6909 21.5651C34.6909 21.9452 34.9991 22.2534 35.3793 22.2534Z" fill="#CDE6F6"/>
<path d="M33.165 18.0859C34.1952 18.0859 35.0303 17.2508 35.0303 16.2207C35.0303 15.1906 34.1952 14.3555 33.165 14.3555C32.1349 14.3555 31.2998 15.1906 31.2998 16.2207C31.2998 17.2508 32.1349 18.0859 33.165 18.0859Z" fill="#83D5EF"/>
<path d="M33.4583 16.7648C34.0367 16.7648 34.5055 16.2959 34.5055 15.7176C34.5055 15.1392 34.0367 14.6704 33.4583 14.6704C32.88 14.6704 32.4111 15.1392 32.4111 15.7176C32.4111 16.2959 32.88 16.7648 33.4583 16.7648Z" fill="#CDE6F6"/>
<path d="M37.7907 10.8531C37.4517 11.8047 36.5431 12.4852 35.4759 12.4852C34.1188 12.4852 33.0181 11.3852 33.0181 10.0281C33.0181 8.67031 34.1188 7.57031 35.4759 7.57031C35.5438 7.57031 35.6103 7.57266 35.6767 7.57812C35.7845 7.71406 35.8907 7.85234 35.9954 7.99141C36.422 8.55859 36.8188 9.14922 37.1837 9.76094C37.3978 10.118 37.6001 10.482 37.7907 10.8531Z" fill="#83D5EF"/>
<path d="M37.1835 9.76089C37.0132 10.3296 36.4858 10.7445 35.8616 10.7445C35.0999 10.7445 34.4819 10.1265 34.4819 9.3648C34.4819 8.60308 35.0999 7.98511 35.8616 7.98511C35.9069 7.98511 35.9515 7.98745 35.9952 7.99136C36.4218 8.55855 36.8187 9.14917 37.1835 9.76089Z" fill="#CDE6F6"/>
<path d="M27.64 9.36479C28.9972 9.36479 30.0975 8.26457 30.0975 6.90737C30.0975 5.55018 28.9972 4.44995 27.64 4.44995C26.2828 4.44995 25.1826 5.55018 25.1826 6.90737C25.1826 8.26457 26.2828 9.36479 27.64 9.36479Z" fill="#83D5EF"/>
<path d="M28.0256 7.62396C28.7875 7.62396 29.4052 7.00629 29.4052 6.24436C29.4052 5.48242 28.7875 4.86475 28.0256 4.86475C27.2637 4.86475 26.646 5.48242 26.646 6.24436C26.646 7.00629 27.2637 7.62396 28.0256 7.62396Z" fill="#CDE6F6"/>
<path d="M24.9895 0.627246C24.1466 0.41084 23.2817 0.247559 22.3997 0.142871C21.9395 0.0874023 21.4747 0.0475586 21.0052 0.0249023C20.9536 0.222559 20.9263 0.430371 20.9263 0.644433C20.9263 2.00225 22.0271 3.10225 23.3841 3.10225C24.6669 3.10225 25.7208 2.11865 25.8317 0.863965C25.5536 0.778809 25.2724 0.699902 24.9895 0.627246Z" fill="#83D5EF"/>
<path d="M24.9893 0.627197C24.758 1.06392 24.2986 1.36157 23.7697 1.36157C23.0627 1.36157 22.4791 0.82876 22.3994 0.142822C23.2814 0.24751 24.1463 0.410791 24.9893 0.627197Z" fill="#CDE6F6"/>
</svg>
