<svg width="40" height="40" viewBox="0 0 40 40" fill="none" xmlns="http://www.w3.org/2000/svg">
<path d="M40 20C40 31.0458 31.0458 40 20 40C8.95416 40 0 31.0458 0 20C0 8.95416 8.95416 0 20 0C31.0458 0 40 8.95416 40 20Z" fill="#673389"/>
<path d="M29.8534 35.1234V37.4082C26.9454 39.058 23.5829 40.0001 20.0002 40.0001C17.8884 40.0001 15.8541 39.6726 13.9431 39.0662C12.6125 38.6442 11.3414 38.0857 10.147 37.4082V35.1234C10.147 31.2238 13.1505 28.0247 16.9716 27.7161C17.1724 27.6996 17.3748 27.6914 17.5798 27.6914H22.4199C22.9921 27.6914 23.5488 27.7552 24.0834 27.8776C27.3879 28.6335 29.8534 31.5909 29.8534 35.1234Z" fill="#17A388"/>
<path d="M29.8534 35.1234V37.4082C28.0779 38.4156 26.1336 39.1593 24.0721 39.5844C22.918 39.8237 21.7269 39.9631 20.5089 39.9933C20.3401 39.9976 20.1702 40.0001 20.0005 40.0001C17.8887 40.0001 15.8544 39.6726 13.9434 39.0662V35.1234C13.9434 34.5966 13.998 34.0824 14.1024 33.5868C14.3148 32.5745 14.7335 31.6392 15.3124 30.8243C16.6591 28.9283 18.8738 27.6914 21.3768 27.6914H22.4199C26.5261 27.6914 29.8534 31.0187 29.8534 35.1234Z" fill="#27BA9E"/>
<path d="M19.9993 30.734L16.6533 32.5934L15.6353 27.8589L17.7144 26.6343" fill="#17A388"/>
<path d="M19.9995 30.734L23.3455 32.5934L24.3635 27.8589L22.2844 26.6343" fill="#17A388"/>
<path d="M22.6518 24.8281V28.0825C22.6518 29.2739 21.8663 30.281 20.7841 30.6155C20.5366 30.6921 20.2726 30.7339 19.9995 30.7339C18.5353 30.7339 17.3481 29.5468 17.3481 28.0825V24.8281H22.6518Z" fill="#EAA27F"/>
<path d="M22.6519 27.8762V28.0825C22.6519 29.2739 21.8663 30.281 20.7842 30.6155C19.8079 30.3152 19.074 29.4665 18.9385 28.4277C19.1155 28.4387 19.2937 28.4442 19.4725 28.4442C19.9742 28.4442 20.4662 28.4042 20.9453 28.3254C21.5355 28.2308 22.1059 28.0789 22.6519 27.8762Z" fill="#F6BA97"/>
<path d="M12.7254 19.4949C12.7254 20.7224 11.8288 21.7404 10.6545 21.9293C10.5263 21.9501 10.3942 21.9608 10.2596 21.9608C8.89728 21.9608 7.79346 20.8572 7.79346 19.4949C7.79346 18.1326 8.89728 17.0288 10.2596 17.0288C10.3942 17.0288 10.5263 17.0398 10.6545 17.0605C11.8288 17.2495 12.7254 18.2672 12.7254 19.4949Z" fill="#F6BA97"/>
<path d="M12.7257 19.4949C12.7257 20.7224 11.8291 21.7404 10.6548 21.9293C10.4415 21.1536 10.3276 20.3372 10.3276 19.4949C10.3276 18.6523 10.4415 17.836 10.6548 17.0605C11.8291 17.2495 12.7257 18.2672 12.7257 19.4949Z" fill="#EAA27F"/>
<path d="M11.1409 19.4949C11.1409 19.9816 10.7463 20.3762 10.2596 20.3762C9.77283 20.3762 9.37793 19.9816 9.37793 19.4949C9.37793 19.0081 9.77283 18.6135 10.2596 18.6135C10.7463 18.6135 11.1409 19.0081 11.1409 19.4949Z" fill="#EAA27F"/>
<path d="M27.2739 19.4949C27.2739 20.7224 28.1705 21.7404 29.3448 21.9293C29.4733 21.9501 29.6052 21.9608 29.7397 21.9608C31.1021 21.9608 32.2059 20.8572 32.2059 19.4949C32.2059 18.1326 31.1021 17.0288 29.7397 17.0288C29.6052 17.0288 29.4733 17.0398 29.3448 17.0605C28.1705 17.2495 27.2739 18.2672 27.2739 19.4949Z" fill="#F6BA97"/>
<path d="M27.2739 19.4949C27.2739 20.7224 28.1705 21.7404 29.3448 21.9293C29.5582 21.1536 29.672 20.3372 29.672 19.4949C29.672 18.6523 29.5582 17.836 29.3448 17.0605C28.1705 17.2495 27.2739 18.2672 27.2739 19.4949Z" fill="#EAA27F"/>
<path d="M29.1749 14.6906V18.1845C29.1749 22.7502 25.8397 26.5378 21.4723 27.2406C21.4576 27.243 21.4421 27.2455 21.4274 27.2482C20.963 27.3224 20.486 27.359 19.9995 27.359C14.9327 27.359 10.8247 23.2513 10.8247 18.1845V14.6906C10.8247 13.6237 11.0069 12.5983 11.3432 11.6455C12.5978 8.07495 16.0005 5.51514 19.9995 5.51514H20.0004C20.486 5.51514 20.9636 5.55267 21.429 5.62592C25.8174 6.31165 29.1749 10.1093 29.1749 14.6906Z" fill="#EAA27F"/>
<path d="M30.6214 19.4949C30.6214 19.9816 30.2268 20.3762 29.7397 20.3762C29.253 20.3762 28.8584 19.9816 28.8584 19.4949C28.8584 19.0081 29.253 18.6135 29.7397 18.6135C30.2268 18.6135 30.6214 19.0081 30.6214 19.4949Z" fill="#EAA27F"/>
<path d="M29.175 14.6906V18.1846C29.175 22.7503 25.8397 26.5378 21.4724 27.2407C21.4577 27.2431 21.4421 27.2455 21.4275 27.2483C17.0388 26.5626 13.6821 22.765 13.6821 18.1846V14.6906C13.6821 10.1093 17.0397 6.31171 21.429 5.62598C24.1866 6.05719 26.5377 7.71674 27.9033 10.0278C28.7114 11.3944 29.175 12.9886 29.175 14.6906Z" fill="#F6BA97"/>
<path d="M18.0455 17.6501C18.0455 18.225 17.5798 18.6907 17.0048 18.6907C16.4299 18.6907 15.9639 18.225 15.9639 17.6501C15.9639 17.0751 16.4299 16.6091 17.0048 16.6091C17.5798 16.6091 18.0455 17.0751 18.0455 17.6501Z" fill="#2F373B"/>
<path d="M24.0355 17.6501C24.0355 18.225 23.5695 18.6907 22.9946 18.6907C22.4196 18.6907 21.9536 18.225 21.9536 17.6501C21.9536 17.0751 22.4196 16.6091 22.9946 16.6091C23.5695 16.6091 24.0355 17.0751 24.0355 17.6501Z" fill="#2F373B"/>
<path d="M17.8334 17.4664C17.8334 17.7126 17.6339 17.9122 17.3876 17.9122C17.1413 17.9122 16.9414 17.7126 16.9414 17.4664C16.9414 17.2201 17.1413 17.0205 17.3876 17.0205C17.6339 17.0205 17.8334 17.2201 17.8334 17.4664Z" fill="white"/>
<path d="M23.8745 17.4664C23.8745 17.7126 23.6746 17.9122 23.4283 17.9122C23.182 17.9122 22.9824 17.7126 22.9824 17.4664C22.9824 17.2201 23.182 17.0205 23.4283 17.0205C23.6746 17.0205 23.8745 17.2201 23.8745 17.4664Z" fill="white"/>
<path d="M21.0408 19.8627H18.9592C18.7111 19.8627 18.5103 19.6616 18.5103 19.4135C18.5103 19.1657 18.7111 18.9646 18.9592 18.9646H21.0408C21.2889 18.9646 21.4897 19.1657 21.4897 19.4135C21.4897 19.6616 21.2889 19.8627 21.0408 19.8627Z" fill="#EAA27F"/>
<path d="M19.9996 22.7033C19.2315 22.7033 18.4631 22.5107 17.763 22.1256C17.5653 22.0172 17.4932 21.7688 17.6019 21.5714C17.7105 21.3739 17.9586 21.3019 18.1561 21.4102C19.3105 22.045 20.689 22.045 21.8435 21.4102C22.0406 21.3016 22.2891 21.3736 22.3977 21.5714C22.5063 21.7688 22.434 22.0172 22.2366 22.1256C21.5365 22.5107 20.7681 22.7033 19.9996 22.7033Z" fill="#EAA27F"/>
<path d="M14.1792 22.7122H17.7717C19.0025 22.7122 20.0001 21.7143 20.0001 20.4835V20.0483H16.4076C15.1768 20.0483 14.1792 21.046 14.1792 22.2767V22.7122Z" fill="#2F373B"/>
<path d="M25.8209 22.7122H22.2287C20.9979 22.7122 20 21.7143 20 20.4835V20.0483H23.5925C24.8233 20.0483 25.8209 21.046 25.8209 22.2767V22.7122Z" fill="#2F373B"/>
<path d="M20.8982 34.1447C20.8982 34.6406 20.4963 35.0425 20.0004 35.0425C19.5045 35.0425 19.1025 34.6406 19.1025 34.1447C19.1025 33.6488 19.5045 33.2466 20.0004 33.2466C20.4963 33.2466 20.8982 33.6488 20.8982 34.1447Z" fill="#2F373B"/>
<path d="M20.8982 37.9543C20.8982 38.4502 20.4963 38.8521 20.0004 38.8521C19.5045 38.8521 19.1025 38.4502 19.1025 37.9543C19.1025 37.4584 19.5045 37.0562 20.0004 37.0562C20.4963 37.0562 20.8982 37.4584 20.8982 37.9543Z" fill="#2F373B"/>
<path d="M29.1749 14.6906V16.9184C27.8697 16.8775 26.8208 15.2131 26.8208 13.1647C26.8208 11.854 27.2511 10.6986 27.9033 10.0278C28.7114 11.3944 29.1749 12.9886 29.1749 14.6906Z" fill="#2F373B"/>
<path d="M10.8247 14.6906V16.9184C12.1302 16.8775 13.1791 15.2131 13.1791 13.1647C13.1791 11.854 12.7488 10.6986 12.0967 10.0278C11.2886 11.3944 10.8247 12.9886 10.8247 14.6906Z" fill="#2F373B"/>
</svg>
