<svg width="40" height="40" viewBox="0 0 40 40" fill="none" xmlns="http://www.w3.org/2000/svg">
<path d="M20 40C31.0457 40 40 31.0457 40 20C40 8.9543 31.0457 0 20 0C8.9543 0 0 8.9543 0 20C0 31.0457 8.9543 40 20 40Z" fill="#53B976"/>
<path d="M23.9732 16.7459C23.9732 6.23428 23.0294 2.40748 22.285 1.02405C22.0999 0.680142 21.5759 0.874986 21.6552 1.25733C22.0726 3.27038 22.6881 8.35279 20.9136 16.7459H23.9732Z" fill="#3E4E60"/>
<path d="M23.968 15.3587H21.1914C21.2578 15.0064 21.3203 14.6611 21.3781 14.322H23.9555C23.9609 14.6595 23.9648 15.0048 23.968 15.3587Z" fill="#2E3140"/>
<path d="M23.9178 12.6109H21.6436C21.6936 12.2578 21.7381 11.9117 21.7787 11.5742H23.8834C23.8967 11.9094 23.9076 12.2547 23.9178 12.6109Z" fill="#2E3140"/>
<path d="M23.8041 9.86338H21.9541C21.9846 9.50713 22.0096 9.16182 22.0299 8.82666H23.7393C23.7627 9.15947 23.7846 9.50479 23.8041 9.86338Z" fill="#2E3140"/>
<path d="M22.1001 7.1166C22.1071 6.75645 22.1087 6.41035 22.1056 6.0791H23.4868C23.5259 6.40645 23.5634 6.75176 23.5985 7.1166H22.1001Z" fill="#2E3140"/>
<path d="M23.2431 4.36875H22.047C22.0243 3.99766 21.9954 3.65156 21.9634 3.33203H23.0438C23.1118 3.64531 23.179 3.98984 23.2431 4.36875Z" fill="#2E3140"/>
<path d="M22.5547 1.62117H21.7266C21.7024 1.48992 21.6789 1.36883 21.6555 1.25711C21.5766 0.874296 22.1 0.679765 22.2852 1.02351C22.3727 1.1868 22.4633 1.38367 22.5547 1.62117Z" fill="#2E3140"/>
<path d="M16.0278 16.7459C16.0278 6.23428 16.9716 2.40748 17.716 1.02405C17.9011 0.680142 18.4251 0.874986 18.3458 1.25733C17.9284 3.27038 17.3129 8.35279 19.0874 16.7459H16.0278Z" fill="#2E3140"/>
<path d="M16.0332 15.3587H18.8098C18.7434 15.0064 18.6809 14.6611 18.623 14.322H16.0457C16.0402 14.6595 16.0363 15.0048 16.0332 15.3587Z" fill="#151516"/>
<path d="M16.0835 12.6109H18.3577C18.3077 12.2578 18.2632 11.9117 18.2226 11.5742H16.1179C16.1046 11.9094 16.0937 12.2547 16.0835 12.6109Z" fill="#151516"/>
<path d="M16.1978 9.86338H18.0478C18.0173 9.50713 17.9923 9.16182 17.972 8.82666H16.2626C16.2392 9.15947 16.2173 9.50479 16.1978 9.86338Z" fill="#151516"/>
<path d="M17.9008 7.1166C17.8938 6.75645 17.8922 6.41035 17.8953 6.0791H16.5141C16.475 6.40645 16.4375 6.75176 16.4023 7.1166H17.9008Z" fill="#151516"/>
<path d="M16.7578 4.36875H17.9539C17.9766 3.99766 18.0055 3.65156 18.0375 3.33203H16.957C16.8891 3.64531 16.8219 3.98984 16.7578 4.36875Z" fill="#151516"/>
<path d="M17.4468 1.62117H18.2749C18.2991 1.48992 18.3226 1.36883 18.346 1.25711C18.4249 0.874296 17.9015 0.679765 17.7163 1.02351C17.6288 1.1868 17.5382 1.38367 17.4468 1.62117Z" fill="#151516"/>
<path d="M34.7351 10.1699C34.2783 9.53266 33.4371 9.30352 32.7202 9.62079L27.8957 11.7562C27.2807 12.0284 26.8839 12.6378 26.8839 13.3105C26.8839 14.4765 26.3989 15.59 25.5451 16.3842L24.9162 16.9692C24.6289 16.8251 24.3125 16.7454 23.9732 16.7454H16.0279C15.6886 16.7454 15.3722 16.8251 15.0849 16.9692L14.456 16.3842C13.6022 15.59 13.1172 14.4765 13.1172 13.3105C13.1172 12.6378 12.7206 12.0284 12.1054 11.7562L7.28096 9.62079C6.56409 9.30344 5.72284 9.53266 5.26604 10.1699C4.85675 10.7407 4.85237 11.5078 5.25526 12.0834L8.59198 16.8501C9.32307 17.8945 10.3763 18.6706 11.5904 19.0593L13.4743 19.6627C13.4174 20.1485 13.4303 20.6657 13.5265 21.1911L16.1054 35.2723C16.3774 36.7571 17.6217 37.8236 19.0089 37.8236H20.9924C22.3795 37.8236 23.6239 36.7571 23.8959 35.2723L25.4314 26.8896L26.4165 21.5099L26.4748 21.1912C26.571 20.6658 26.584 20.1487 26.527 19.6627L28.4109 19.0594C29.625 18.6706 30.6782 17.8945 31.4093 16.8502L34.746 12.0834C35.1488 11.5079 35.1444 10.7408 34.7351 10.1699Z" fill="#C68132"/>
<path d="M26.4741 21.191L26.4159 21.5098L25.4307 26.8895L23.8952 35.2722C23.8716 35.4005 23.8409 35.5252 23.8034 35.6463C23.4095 36.9318 22.2625 37.8235 20.9918 37.8235H20V16.7454H23.9727C25.7414 16.7454 26.8947 18.8937 26.4741 21.191Z" fill="#DD8C29"/>
<path d="M24.002 17.8197L25.5454 16.3841C26.3992 15.59 26.8842 14.4765 26.8842 13.3105C26.8842 12.6378 27.2809 12.0284 27.896 11.7562L32.7205 9.62079C33.4373 9.30345 34.2786 9.53266 34.7354 10.1699C35.1447 10.7407 35.1491 11.5078 34.7462 12.0834L31.4095 16.8501C30.6784 17.8945 29.6252 18.6705 28.411 19.0593L26.3206 19.7288L24.002 17.8197Z" fill="#DD8C29"/>
<path d="M33.4019 10.5728H33.3893C33.3112 10.5728 33.2354 10.5892 33.1628 10.6212L31.1729 11.5017L28.3386 12.7563C28.1276 12.8501 27.9878 13.0556 27.9784 13.2845C27.9464 14.0259 27.7933 14.7517 27.5112 15.4181C27.23 16.0845 26.8198 16.6923 26.2769 17.1978C26.1198 17.3431 26.0425 17.5399 26.0425 17.736C26.0425 17.947 26.1323 18.1571 26.3104 18.3032C26.4628 18.429 26.669 18.4688 26.8573 18.4087L28.0636 18.022C28.9511 17.7376 29.7331 17.2017 30.3167 16.4821V16.4813C30.3886 16.3938 30.4565 16.304 30.5214 16.211L33.8503 11.4563C34.1104 11.1009 33.8386 10.5728 33.4019 10.5728Z" fill="white"/>
<path d="M29.7327 16.3526C29.9991 16.4117 30.097 16.7458 29.8993 16.9339C29.3804 17.4275 28.7539 17.8008 28.0636 18.022L26.8573 18.4087C26.669 18.4689 26.4628 18.429 26.3105 18.3032C26.1323 18.1572 26.0425 17.947 26.0425 17.7361C26.0425 17.54 26.1198 17.3431 26.2769 17.1978C26.8198 16.6923 27.23 16.0845 27.5112 15.4181C27.7933 14.7517 27.9464 14.0259 27.9784 13.2845C27.9878 13.0556 28.1276 12.8501 28.3386 12.7564L29.978 12.0307C30.2698 11.9015 30.5353 12.256 30.3293 12.4996L29.3779 13.625C29.243 13.7846 29.3564 14.029 29.5654 14.029H30.2856C30.573 14.029 30.6965 14.3936 30.4683 14.5683L29.0931 15.8138C28.9454 15.9476 29.0101 16.1924 29.2048 16.2355L29.7327 16.3526Z" fill="#3E4E60"/>
<path d="M28.6546 12.007C28.7731 12.2892 29.1002 12.4193 29.3801 12.2954L31.8101 11.2198C32.1053 11.0892 32.2236 10.7327 32.0653 10.4515C31.9271 10.206 31.625 10.1057 31.3675 10.2198L28.9375 11.2953C28.665 11.4159 28.5393 11.7323 28.6546 12.007Z" fill="#F39E22"/>
<path d="M6.15092 11.4563L9.47982 16.211C9.54466 16.304 9.61263 16.3938 9.68451 16.4813V16.4821C10.2681 17.2017 11.0501 17.7376 11.9376 18.022L13.1439 18.4087C13.3322 18.4688 13.5384 18.429 13.6908 18.3032C13.8689 18.1571 13.9587 17.947 13.9587 17.736C13.9587 17.5399 13.8814 17.3431 13.7243 17.1978C13.1814 16.6923 12.7712 16.0845 12.49 15.4181C12.2079 14.7517 12.0548 14.0259 12.0228 13.2845C12.0134 13.0556 11.8736 12.8501 11.6626 12.7563L8.82826 11.5017L6.83841 10.6212C6.76576 10.5892 6.68998 10.5728 6.61185 10.5728H6.59935C6.16263 10.5728 5.89076 11.1009 6.15092 11.4563Z" fill="#C2AACF"/>
<path d="M10.2682 16.3526C10.0018 16.4117 9.90387 16.7458 10.1016 16.9339C10.6205 17.4275 11.247 17.8008 11.9373 18.022L13.1435 18.4087C13.3318 18.4689 13.5381 18.429 13.6904 18.3032C13.8685 18.1572 13.9584 17.947 13.9584 17.7361C13.9584 17.54 13.881 17.3431 13.724 17.1978C13.181 16.6923 12.7709 16.0845 12.4896 15.4181C12.2076 14.7517 12.0545 14.0259 12.0225 13.2845C12.0131 13.0556 11.8732 12.8501 11.6623 12.7564L10.0228 12.0307C9.73105 11.9015 9.46558 12.256 9.6716 12.4996L10.623 13.625C10.7579 13.7846 10.6445 14.029 10.4355 14.029H9.71527C9.42785 14.029 9.30433 14.3936 9.53254 14.5683L10.9078 15.8138C11.0555 15.9476 10.9907 16.1924 10.7961 16.2355L10.2682 16.3526Z" fill="#2E3140"/>
<path d="M11.3469 12.007C11.2284 12.2892 10.9013 12.4193 10.6214 12.2954L8.19139 11.2198C7.89624 11.0892 7.77788 10.7327 7.93624 10.4515C8.07444 10.206 8.37647 10.1057 8.63405 10.2198L11.064 11.2953C11.3365 11.4159 11.4623 11.7323 11.3469 12.007Z" fill="#DD8C29"/>
<path d="M23.8043 35.6465C23.4104 36.932 22.2635 37.8237 20.9928 37.8237H20.001V32.1543H21.3568C21.3115 33.9335 22.371 35.3299 23.8043 35.6465Z" fill="white"/>
<path d="M16.1973 35.6465C16.5912 36.932 17.7381 37.8237 19.0088 37.8237H20.0006V32.1543H18.6448C18.6901 33.9335 17.6306 35.3299 16.1973 35.6465Z" fill="#C2AACF"/>
<path d="M26.4158 21.5098L25.4307 26.8895L21.3562 32.8416L19.9033 31.6489L26.4158 21.5098Z" fill="white"/>
<path d="M13.5845 21.5098L14.5695 26.8895L18.6439 32.8416L20.0969 31.6489L13.5845 21.5098Z" fill="#C2AACF"/>
<path d="M21.9958 31.9506L21.9262 33.8178C21.9089 34.2833 21.5496 34.6544 21.1232 34.6544H18.8773C18.451 34.6544 18.0917 34.2833 18.0743 33.8178L18.0047 31.9506C17.9575 30.6837 18.8496 29.6111 20.0003 29.6111C21.1509 29.6111 22.0431 30.6837 21.9958 31.9506Z" fill="#DD8C29"/>
<path d="M21.9955 31.9506L21.9259 33.8178C21.9086 34.2833 21.5493 34.6544 21.123 34.6544H20V29.6111C21.1506 29.6111 22.0428 30.6837 21.9955 31.9506Z" fill="#F39E22"/>
<path d="M23.7938 36.2987C23.712 36.099 23.484 36.0034 23.2843 36.0852C23.0056 36.1992 22.6253 36.333 22.5252 36.3426C22.2185 36.3692 21.673 36.2793 21.1916 36.1999C20.9079 36.1531 20.6343 36.108 20.3905 36.0812V35.4277C20.3905 35.212 20.2156 35.0371 19.9998 35.0371C19.7841 35.0371 19.6092 35.212 19.6092 35.4277V36.0812C19.3654 36.108 19.0918 36.153 18.808 36.1999C18.3267 36.2793 17.7813 36.3694 17.4746 36.3426C17.3842 36.3339 17.0295 36.2137 16.7154 36.0852C16.516 36.0036 16.2877 36.0991 16.2059 36.2987C16.1243 36.4984 16.2198 36.7265 16.4195 36.8082C16.5845 36.8758 17.1434 37.0979 17.4066 37.1209C17.8116 37.1561 18.3827 37.0619 18.9352 36.9707C19.3328 36.9052 19.744 36.8373 19.9998 36.8373C20.2556 36.8373 20.6668 36.9051 21.0644 36.9707C21.5356 37.0484 22.0205 37.1284 22.404 37.1284C22.4702 37.1284 22.5334 37.126 22.5929 37.1209C22.8562 37.098 23.4151 36.8758 23.5802 36.8082C23.7799 36.7264 23.8755 36.4983 23.7938 36.2987Z" fill="#151516"/>
<path d="M19.9999 34.5937V35.4277C19.9852 35.447 19.9698 35.4652 19.9533 35.4825C19.7102 35.7377 19.3163 35.7377 19.0687 35.4825L18.8645 35.2724L18.3772 34.7714C18.1198 34.5061 18.1037 34.0706 18.346 33.7984C18.4684 33.661 18.6323 33.592 18.7987 33.592C18.9651 33.592 19.1322 33.661 19.2609 33.7984L19.9524 34.5369C19.9692 34.5553 19.985 34.5742 19.9999 34.5937Z" fill="#151516"/>
<path d="M21.6227 34.7714L20.9312 35.4825C20.6836 35.7377 20.2896 35.7377 20.0466 35.4825C20.0301 35.4652 20.0146 35.447 20 35.4277V34.5937C20.0148 34.5742 20.0306 34.5553 20.0474 34.5369L20.7389 33.7984C20.8676 33.661 21.0347 33.592 21.2012 33.592C21.3677 33.592 21.5315 33.661 21.6538 33.7984C21.8961 34.0706 21.88 34.5061 21.6227 34.7714Z" fill="#2E3140"/>
<path d="M26.9937 24.2192C27.6623 24.6053 27.895 25.4556 27.5184 26.1273C27.5161 26.1335 27.5129 26.1391 27.5096 26.1448L27.0193 26.9941C26.8249 27.3308 26.512 27.5577 26.1634 27.6511C25.8143 27.7455 25.4308 27.7059 25.0932 27.511C24.4659 27.1488 24.2217 26.3771 24.5044 25.7289C24.5253 25.6796 24.5497 25.631 24.5768 25.5839L25.0671 24.7346C25.262 24.397 25.5753 24.1715 25.9239 24.0782C26.2726 23.9846 26.656 24.0242 26.9937 24.2192Z" fill="#3E4E60"/>
<path d="M26.9942 24.2189C27.6628 24.605 27.8955 25.4553 27.5189 26.1271C26.7651 26.527 25.7839 26.5236 24.9385 26.0354C24.7814 25.9447 24.6363 25.8421 24.5049 25.7286C24.5258 25.6793 24.5502 25.6307 24.5773 25.5836L25.0676 24.7343C25.2625 24.3967 25.5758 24.1712 25.9244 24.0779C26.2731 23.9844 26.6565 24.0239 26.9942 24.2189Z" fill="#2E3140"/>
<path d="M25.7693 24.7914L25.4743 25.3024C25.3473 25.5224 25.4227 25.8038 25.6427 25.9308C25.8627 26.0579 26.1441 25.9825 26.2711 25.7625L26.5661 25.2515C26.6931 25.0315 26.6177 24.7501 26.3977 24.623C26.1777 24.4959 25.8963 24.5713 25.7693 24.7914Z" fill="white"/>
<path d="M13.0066 24.2192C12.3379 24.6053 12.1052 25.4556 12.4818 26.1273C12.4842 26.1335 12.4874 26.1391 12.4906 26.1448L12.9809 26.9941C13.1753 27.3308 13.4882 27.5577 13.8368 27.6511C14.1859 27.7455 14.5695 27.7059 14.907 27.511C15.5344 27.1488 15.7785 26.3771 15.4959 25.7289C15.4749 25.6796 15.4506 25.631 15.4234 25.5839L14.9331 24.7346C14.7382 24.397 14.4249 24.1715 14.0763 24.0782C13.7277 23.9846 13.3442 24.0242 13.0066 24.2192Z" fill="#3E4E60"/>
<path d="M13.0066 24.2189C12.3379 24.605 12.1052 25.4553 12.4818 26.1271C13.2356 26.527 14.2168 26.5236 15.0623 26.0354C15.2193 25.9447 15.3645 25.8421 15.4959 25.7286C15.4749 25.6793 15.4506 25.6307 15.4234 25.5836L14.9331 24.7343C14.7382 24.3967 14.4249 24.1712 14.0763 24.0779C13.7277 23.9844 13.3442 24.0239 13.0066 24.2189Z" fill="#2E3140"/>
<path d="M14.2311 24.7914L14.5261 25.3024C14.6531 25.5224 14.5777 25.8038 14.3577 25.9308C14.1377 26.0579 13.8563 25.9825 13.7293 25.7625L13.4343 25.2515C13.3072 25.0315 13.3826 24.7501 13.6026 24.623C13.8227 24.4959 14.104 24.5713 14.2311 24.7914Z" fill="white"/>
<path d="M20.001 24.7108C22.4782 24.7108 24.7452 22.7025 24.7452 20.2252C24.7452 18.8206 23.6065 17.6819 22.2018 17.6819H20.001V24.7108Z" fill="#F39E22"/>
<path d="M20.0006 24.7108C17.5233 24.7108 15.2563 22.7025 15.2563 20.2252C15.2563 18.8206 16.395 17.6819 17.7997 17.6819H20.0006V24.7108Z" fill="#DD8C29"/>
</svg>
