<svg width="40" height="40" viewBox="0 0 40 40" fill="none" xmlns="http://www.w3.org/2000/svg">
<path d="M40 20C40 31.0458 31.0458 40 20 40C8.95416 40 0 31.0458 0 20C0 8.95416 8.95416 0 20 0C31.0458 0 40 8.95416 40 20Z" fill="#FFE05C"/>
<path d="M12.6058 19.4949C12.6058 20.7224 11.7092 21.7404 10.5349 21.9293C10.4064 21.9501 10.2745 21.9608 10.1396 21.9608C8.77765 21.9608 7.67383 20.8572 7.67383 19.4949C7.67383 18.1326 8.77765 17.0288 10.1396 17.0288C10.2745 17.0288 10.4064 17.0398 10.5349 17.0605C11.7092 17.2495 12.6058 18.2672 12.6058 19.4949Z" fill="#F6BA97"/>
<path d="M12.6061 19.4949C12.6061 20.7224 11.7095 21.7404 10.5352 21.9293C10.3218 21.1536 10.208 20.3372 10.208 19.4949C10.208 18.6523 10.3218 17.836 10.5352 17.0605C11.7095 17.2495 12.6061 18.2672 12.6061 19.4949Z" fill="#EAA27F"/>
<path d="M11.0213 19.4949C11.0213 19.9816 10.6267 20.3762 10.1396 20.3762C9.65289 20.3762 9.2583 19.9816 9.2583 19.4949C9.2583 19.0081 9.65289 18.6135 10.1396 18.6135C10.6267 18.6135 11.0213 19.0081 11.0213 19.4949Z" fill="#EAA27F"/>
<path d="M27.3936 19.4949C27.3936 20.7224 28.2902 21.7404 29.4645 21.9293C29.593 21.9501 29.7248 21.9608 29.8597 21.9608C31.222 21.9608 32.3255 20.8572 32.3255 19.4949C32.3255 18.1326 31.222 17.0288 29.8597 17.0288C29.7248 17.0288 29.593 17.0398 29.4645 17.0605C28.2902 17.2495 27.3936 18.2672 27.3936 19.4949Z" fill="#F6BA97"/>
<path d="M27.3936 19.4949C27.3936 20.7224 28.2902 21.7404 29.4645 21.9293C29.6778 21.1536 29.7919 20.3372 29.7919 19.4949C29.7919 18.6523 29.6781 17.836 29.4645 17.0605C28.2902 17.2495 27.3936 18.2672 27.3936 19.4949Z" fill="#EAA27F"/>
<path d="M30.7412 19.4949C30.7412 19.9816 30.3466 20.3762 29.8599 20.3762C29.3731 20.3762 28.9785 19.9816 28.9785 19.4949C28.9785 19.0081 29.3731 18.6135 29.8599 18.6135C30.3466 18.6135 30.7412 19.0081 30.7412 19.4949Z" fill="#EAA27F"/>
<path d="M30.7695 20.8835C30.7518 20.8701 30.7322 20.8604 30.7124 20.8527C30.6126 20.7831 30.5076 20.7242 30.3972 20.6785C30.319 20.8237 30.226 20.9592 30.1207 21.085C30.2476 21.1243 30.3676 21.1869 30.478 21.2693C30.5272 21.3059 30.5757 21.3465 30.6236 21.3904C30.9596 21.7243 31.1625 22.2471 31.1625 22.8019C31.1625 23.7794 30.5534 24.5746 29.8048 24.5746C29.0565 24.5746 28.4474 23.7794 28.4474 22.8019C28.4474 22.1534 28.7202 21.5562 29.1594 21.2437C29.2674 21.1667 29.2924 21.0172 29.2158 20.9095C29.1392 20.8018 28.9894 20.7764 28.8817 20.8533C28.3183 21.2543 27.9683 22.0008 27.9683 22.8019C27.9683 24.0436 28.7922 25.0538 29.8048 25.0538C30.8177 25.0538 31.6417 24.0436 31.6417 22.8019C31.6417 22.0133 31.3154 21.2961 30.7695 20.8835Z" fill="white"/>
<path d="M9.2301 20.8835C9.24811 20.8701 9.26733 20.8604 9.28717 20.8527C9.38696 20.7831 9.49225 20.7242 9.60242 20.6785C9.68085 20.8237 9.77393 20.9592 9.87921 21.085C9.75195 21.1243 9.63202 21.1869 9.52155 21.2693C9.47241 21.3059 9.42389 21.3465 9.37598 21.3904C9.04028 21.7243 8.83704 22.2471 8.83704 22.8019C8.83704 23.7794 9.44617 24.5746 10.1948 24.5746C10.9434 24.5746 11.5522 23.7794 11.5522 22.8019C11.5522 22.1534 11.2794 21.5562 10.8402 21.2437C10.7325 21.1667 10.7072 21.0172 10.7841 20.9095C10.8607 20.8018 11.0102 20.7764 11.1182 20.8533C11.6816 21.2543 12.0316 22.0008 12.0316 22.8019C12.0316 24.0436 11.2076 25.0538 10.1948 25.0538C9.18188 25.0538 8.35791 24.0436 8.35791 22.8019C8.35791 22.0133 8.68384 21.2961 9.2301 20.8835Z" fill="white"/>
<path d="M11.7998 21.4355H27.9622V35.8838H11.7998V21.4355Z" fill="#151A1C"/>
<path d="M29.8531 35.1234V37.4082C28.6785 38.0735 27.4303 38.6252 26.1226 39.0439C25.9871 39.0882 25.8516 39.1297 25.7143 39.1706C25.2059 39.3226 24.6883 39.4547 24.1634 39.5649C23.9333 39.6137 23.7023 39.6589 23.4694 39.6989C22.3421 39.8972 21.183 40.0001 20.0002 40.0001C19.4344 40.0001 18.8729 39.9772 18.3184 39.9299C17.7144 39.8801 17.1184 39.8023 16.5306 39.6995C16.2981 39.6595 16.0671 39.6146 15.837 39.5658C15.2269 39.4367 14.6288 39.2798 14.041 39.097C14.0084 39.0864 13.9757 39.0766 13.9431 39.0662C13.9211 39.0595 13.8997 39.0522 13.8777 39.0449C12.5707 38.6262 11.3219 38.0744 10.147 37.4082V35.1234C10.147 32.3664 11.6475 29.9601 13.8777 28.6774C13.8988 28.6652 13.9211 28.653 13.9431 28.6408C14.5299 28.3103 15.165 28.0579 15.837 27.8971C16.205 27.8083 16.5837 27.7469 16.9716 27.7158C17.1724 27.6996 17.3748 27.6914 17.5798 27.6914H22.4196C22.9918 27.6914 23.5488 27.7552 24.0834 27.8776C24.1103 27.884 24.1371 27.8898 24.1634 27.8962C24.8598 28.0637 25.5178 28.3289 26.1226 28.6774C28.3519 29.9607 29.8531 32.3673 29.8531 35.1234Z" fill="#EAA27F"/>
<path d="M29.8534 35.1234V37.4082C27.0861 38.9786 23.9064 39.9076 20.5172 39.9933C20.345 39.9976 20.1735 40.0001 20.0005 40.0001C19.8275 40.0001 19.655 39.9976 19.4838 39.9927C17.5563 39.9445 15.6975 39.6229 13.9434 39.0662V35.1234C13.9434 31.0187 17.2713 27.6914 21.3768 27.6914H22.4199C26.5261 27.6914 29.8534 31.0187 29.8534 35.1234Z" fill="#F6BA97"/>
<path d="M22.6518 24.8281V28.0825C22.6518 29.2739 21.8663 30.281 20.7841 30.6155C20.5366 30.6921 20.2726 30.7339 19.9995 30.7339C18.5353 30.7339 17.3481 29.5468 17.3481 28.0825V24.8281H22.6518Z" fill="#EAA27F"/>
<path d="M22.6519 27.8762V28.0825C22.6519 29.2739 21.8663 30.281 20.7842 30.6155C19.8079 30.3152 19.074 29.4665 18.9385 28.4277C19.1155 28.4387 19.2937 28.4442 19.4725 28.4442C19.9742 28.4442 20.4662 28.4042 20.9453 28.3254C21.5355 28.2308 22.1059 28.0789 22.6519 27.8762Z" fill="#F6BA97"/>
<path d="M29.1749 14.6906V18.1845C29.1749 22.7502 25.8397 26.5378 21.4723 27.2406C21.4576 27.243 21.4421 27.2455 21.4274 27.2482C20.963 27.3224 20.486 27.359 19.9995 27.359C14.9327 27.359 10.8247 23.2513 10.8247 18.1845V14.6906C10.8247 13.6237 11.0069 12.5983 11.3432 11.6455C12.5978 8.07495 16.0005 5.51514 19.9995 5.51514H20.0004C20.486 5.51514 20.9636 5.55267 21.429 5.62592C25.8174 6.31165 29.1749 10.1093 29.1749 14.6906Z" fill="#EAA27F"/>
<path d="M29.175 14.6906V18.1846C29.175 22.7503 25.8397 26.5378 21.4724 27.2407C21.4577 27.2431 21.4421 27.2455 21.4275 27.2483C17.0388 26.5626 13.6821 22.765 13.6821 18.1846V14.6906C13.6821 10.1093 17.0397 6.31171 21.429 5.62598C25.8174 6.31171 29.175 10.1093 29.175 14.6906Z" fill="#F6BA97"/>
<path d="M26.2448 20.5933C26.2448 21.2247 25.733 21.7362 25.1019 21.7362C24.4708 21.7362 23.959 21.2247 23.959 20.5933C23.959 19.9622 24.4708 19.4504 25.1019 19.4504C25.733 19.4504 26.2448 19.9622 26.2448 20.5933Z" fill="#EAA27F"/>
<path d="M16.0406 20.5933C16.0406 21.2247 15.5289 21.7362 14.8978 21.7362C14.2667 21.7362 13.7549 21.2247 13.7549 20.5933C13.7549 19.9622 14.2667 19.4504 14.8978 19.4504C15.5289 19.4504 16.0406 19.9622 16.0406 20.5933Z" fill="#EAA27F"/>
<path d="M24.9272 17.4098C24.9272 16.5681 24.2448 15.8857 23.4034 15.8857C22.5618 15.8857 21.8794 16.5681 21.8794 17.4098" fill="#EAA27F"/>
<path d="M18.121 17.4098C18.121 16.5681 17.4387 15.8857 16.5973 15.8857C15.7556 15.8857 15.0732 16.5681 15.0732 17.4098" fill="#EAA27F"/>
<path d="M17.6378 18.0582C17.6378 18.6332 17.1718 19.0992 16.5971 19.0992C16.0222 19.0992 15.5562 18.6332 15.5562 18.0582C15.5562 17.4836 16.0222 17.0176 16.5971 17.0176C17.1718 17.0176 17.6378 17.4836 17.6378 18.0582Z" fill="#2F373B"/>
<path d="M24.4439 18.0582C24.4439 18.6332 23.9779 19.0992 23.4033 19.0992C22.8283 19.0992 22.3623 18.6332 22.3623 18.0582C22.3623 17.4836 22.8283 17.0176 23.4033 17.0176C23.9779 17.0176 24.4439 17.4836 24.4439 18.0582Z" fill="#2F373B"/>
<path d="M21.0408 20.6786H18.9592C18.7114 20.6786 18.5103 20.4778 18.5103 20.2297C18.5103 19.9819 18.7114 19.7808 18.9592 19.7808H21.0408C21.2889 19.7808 21.49 19.9819 21.49 20.2297C21.49 20.4778 21.2889 20.6786 21.0408 20.6786Z" fill="#EAA27F"/>
<path d="M19.9999 23.5196C19.2314 23.5196 18.4633 23.3273 17.7629 22.9422C17.5655 22.8336 17.4932 22.5855 17.6018 22.388C17.7105 22.1906 17.9586 22.1185 18.156 22.2269C19.3105 22.8616 20.689 22.8616 21.8434 22.2269C22.0409 22.1182 22.289 22.1903 22.3976 22.388C22.5063 22.5855 22.4343 22.8336 22.2365 22.9422C21.5364 23.3273 20.768 23.5196 19.9999 23.5196Z" fill="#EAA27F"/>
<path d="M17.4257 17.8749C17.4257 18.1212 17.2261 18.3207 16.9799 18.3207C16.7333 18.3207 16.5337 18.1212 16.5337 17.8749C16.5337 17.6283 16.7333 17.4287 16.9799 17.4287C17.2261 17.4287 17.4257 17.6283 17.4257 17.8749Z" fill="white"/>
<path d="M24.2828 17.8749C24.2828 18.1212 24.0833 18.3207 23.837 18.3207C23.5907 18.3207 23.3911 18.1212 23.3911 17.8749C23.3911 17.6283 23.5907 17.4287 23.837 17.4287C24.0833 17.4287 24.2828 17.6283 24.2828 17.8749Z" fill="white"/>
<path d="M27.0058 7.07416C25.121 5.18512 22.6067 4.14355 19.9251 4.14111C17.2411 4.14355 14.72 5.18512 12.8261 7.07507C10.9282 8.96716 9.8833 11.4888 9.8833 14.1738V27.7605C9.8833 28.6367 10.2687 29.4603 10.9413 30.0219L12.3113 31.1647V15.6954H27.5038V31.1647L28.8735 30.0219C29.5464 29.4603 29.9315 28.6367 29.9315 27.7605V14.1738C29.9315 11.4855 28.8924 8.96411 27.0058 7.07416Z" fill="#2F373B"/>
<path d="M22.3723 4.44141C20.627 4.87567 19.027 5.77441 17.7242 7.07477C15.8263 8.96716 14.7814 11.4888 14.7814 14.1738V15.6954H12.3113V31.1647L10.9413 30.0219C10.2687 29.4603 9.8833 28.6367 9.8833 27.7605V14.1738C9.8833 11.4888 10.9282 8.96716 12.8261 7.07477C14.72 5.18512 17.2411 4.14355 19.9251 4.14111C20.7619 4.14172 21.5822 4.24396 22.3723 4.44141Z" fill="#151A1C"/>
<path d="M18.3187 39.9297C17.7147 39.88 17.1187 39.8022 16.5309 39.6993C16.2984 39.6594 16.0674 39.6145 15.8373 39.5657C15.2272 39.4366 14.6291 39.2797 14.0413 39.0969C14.0087 39.0862 13.976 39.0765 13.9434 39.0661V28.6407C14.5302 28.3102 15.1653 28.0578 15.8373 27.897C15.8373 31.2325 17.9677 33.8448 18.3187 39.9297Z" fill="#F46D11"/>
<path d="M21.6816 39.9297C22.2859 39.88 22.8816 39.8022 23.4694 39.6993C23.7022 39.6594 23.9332 39.6145 24.1633 39.5657C24.7731 39.4366 25.3715 39.2797 25.9593 39.0969C25.9919 39.0862 26.0246 39.0765 26.0573 39.0661V28.6407C25.4704 28.3102 24.835 28.0578 24.1633 27.897C24.1633 31.2325 22.0326 33.8448 21.6816 39.9297Z" fill="#F46D11"/>
</svg>
