<svg width="40" height="40" viewBox="0 0 40 40" fill="none" xmlns="http://www.w3.org/2000/svg">
<path d="M20 40C31.0457 40 40 31.0457 40 20C40 8.9543 31.0457 0 20 0C8.9543 0 0 8.9543 0 20C0 31.0457 8.9543 40 20 40Z" fill="#6C53A2"/>
<path d="M35.875 22.6219L28.7203 34.5039C27.7578 36.1023 26.0281 37.0805 24.161 37.0805H15.8438C13.975 37.0805 12.243 36.1 11.2805 34.4977L4.12189 22.5719C3.34845 21.2844 3.15549 19.7312 3.58986 18.2937L6.72736 7.90469C7.40549 5.65781 9.47502 4.12109 11.8219 4.12109H28.175C30.5235 4.12109 32.5938 5.66016 33.2711 7.90859L36.4125 18.3414C36.8453 19.7805 36.65 21.3344 35.875 22.6219Z" fill="#BF5E39"/>
<path d="M35.875 22.6219L28.7203 34.5039C27.7578 36.1023 26.0281 37.0805 24.1609 37.0805H20V4.12109H28.175C30.5234 4.12109 32.5938 5.66016 33.2711 7.90859L36.4125 18.3414C36.8453 19.7805 36.65 21.3344 35.875 22.6219Z" fill="#DD5E26"/>
<path d="M32.2844 10.3595L30.9468 8.35995C30.05 7.02034 28.1528 6.83417 27.0129 7.97409L24.2268 10.7601C23.8114 10.6219 17.3365 10.7135 16.7308 10.6888C16.4057 10.6888 16.0862 10.7132 15.774 10.7601L12.988 7.97409C11.8481 6.83417 9.9509 7.02034 9.05403 8.35995L7.71653 10.3595C7.03739 11.3738 7.16981 12.7268 8.03309 13.59L10.4287 15.9856C10.2615 16.5574 10.3555 22.881 10.3342 23.6246C10.3342 27.1576 13.1979 30.0212 16.7308 30.0212H23.27C26.803 30.0212 29.6667 27.1575 29.6667 23.6246C29.6422 22.8536 29.75 16.5919 29.5722 15.9856L31.9678 13.5899C32.8311 12.7268 32.9636 11.3738 32.2844 10.3595Z" fill="#F9C744"/>
<path d="M31.9674 13.5902L29.5719 15.9858C29.7482 16.5555 29.6383 22.8823 29.6662 23.6245C29.6662 27.1573 26.8026 30.021 23.2696 30.021H20V10.6885C20.7245 10.7091 23.562 10.6288 24.2264 10.7602L27.0126 7.97406C28.1522 6.83375 30.0496 7.02024 30.9463 8.35953L32.2841 10.3594C32.9629 11.3739 32.8305 12.7271 31.9674 13.5902Z" fill="#FBCB74"/>
<path d="M25.8335 23.9918V26.7763C25.8335 27.3124 26.397 27.6619 26.8773 27.4234L27.8914 26.92C28.1077 26.8126 28.2561 26.6042 28.2868 26.3647L28.6469 23.5553C28.7164 23.0129 28.1814 22.5928 27.6709 22.7891L26.2968 23.3174C26.0176 23.4247 25.8335 23.6928 25.8335 23.9918Z" fill="#FBD9A3"/>
<path d="M14.1681 23.9918V26.7763C14.1681 27.3124 13.6046 27.6619 13.1243 27.4234L12.1102 26.92C11.8939 26.8126 11.7455 26.6042 11.7148 26.3647L11.3548 23.5553C11.2852 23.0129 11.8202 22.5928 12.3307 22.7891L13.7048 23.3174C13.984 23.4247 14.1681 23.6928 14.1681 23.9918Z" fill="#FBCB74"/>
<path d="M24.5641 24.8807V29.96C24.5641 31.6277 23.2117 32.9801 21.544 32.9801H18.4586C16.7909 32.9801 15.4385 31.6276 15.4385 29.9592V24.8807C15.4385 23.8946 15.911 23.0191 16.6418 22.4676C17.1355 22.0961 17.4361 21.5225 17.4361 20.9045V19.7203C17.4361 19.0115 18.0104 18.4365 18.7191 18.4365H21.2836C21.9924 18.4365 22.5666 19.0114 22.5666 19.7203V20.9045C22.5666 21.5225 22.8672 22.0961 23.361 22.4676C24.0916 23.0191 24.5641 23.8946 24.5641 24.8807Z" fill="#FBCB74"/>
<path d="M24.5638 24.8807V29.96C24.5638 31.6277 23.2114 32.9801 21.5436 32.9801H20.001V18.4365H21.2832C21.992 18.4365 22.5662 19.0114 22.5662 19.7203V20.9045C22.5662 21.5225 22.8668 22.0961 23.3606 22.4676C24.0913 23.0191 24.5638 23.8946 24.5638 24.8807Z" fill="#FBD9A3"/>
<path d="M24.6763 29.7295C24.5498 29.6673 24.3962 29.7197 24.3338 29.8463C24.3272 29.8598 23.6548 31.197 22.5241 31.197C21.6326 31.1763 20.6339 31.2975 20.3442 30.5737C20.9443 30.4304 21.3943 29.8515 21.3855 29.2336C21.3709 28.9711 21.58 28.7454 21.844 28.7463H22.1322C22.3342 28.7463 22.4979 28.5826 22.4979 28.3806C22.4979 28.1786 22.3341 28.0149 22.1322 28.0149H21.844C21.1879 28.0149 20.654 28.5487 20.654 29.205C20.669 29.4939 20.4729 29.7753 20.1955 29.8569C20.1039 29.7369 19.8975 29.737 19.8059 29.857C19.5392 29.7726 19.3478 29.5086 19.3478 29.205C19.3478 28.5488 18.8139 28.0149 18.1577 28.0149H17.8696C17.6676 28.0149 17.5039 28.1786 17.5039 28.3806C17.5039 28.5826 17.6676 28.7463 17.8696 28.7463H18.1577C18.4106 28.7463 18.6163 28.952 18.6163 29.2049C18.6163 29.8551 19.0549 30.4202 19.6568 30.5748C19.3676 31.2968 18.3683 31.1763 17.4773 31.197C16.3465 31.197 15.6743 29.8598 15.6676 29.8462C15.6054 29.7195 15.4522 29.6669 15.3253 29.729C15.1983 29.7911 15.1456 29.9445 15.2077 30.0715C15.2512 30.1965 16.1536 31.8288 17.6326 31.7091C18.5637 31.7065 19.5272 31.7315 20.0006 31.0199C20.4933 31.7713 21.5757 31.7044 22.524 31.709C23.9762 31.709 24.7608 30.1383 24.7935 30.0715C24.8556 29.9447 24.8031 29.7918 24.6763 29.7295Z" fill="#F39E22"/>
<path d="M29.5599 30.1219C28.2434 27.87 25.1474 28.0546 22.5847 29.1169C22.4538 29.1696 22.3894 29.318 22.4413 29.4497C22.494 29.5807 22.6425 29.645 22.7742 29.5931C24.1581 29.043 25.4016 28.8046 26.4461 28.8821C27.7392 28.9452 28.7665 29.6881 29.0962 30.3393C29.2477 30.6419 29.6959 30.4309 29.5599 30.1219Z" fill="#F4E6F4"/>
<path d="M29.5598 30.1219C29.695 30.43 29.2494 30.6427 29.096 30.3391C28.7648 29.6861 27.7379 28.9453 26.4459 28.8821C26.4072 28.7094 26.375 28.5347 26.3516 28.3569C27.8971 28.4027 29.1586 29.2919 29.5598 30.1219Z" fill="white"/>
<path d="M30.7671 26.9842C28.9291 25.1334 25.9778 26.0869 23.7624 27.7566C23.6488 27.8403 23.6236 28.0002 23.7068 28.1146C23.7906 28.2282 23.9504 28.2534 24.0649 28.1702C25.2672 27.2913 26.4114 26.7493 27.4421 26.563C28.7099 26.3005 29.8904 26.7627 30.3725 27.3106C30.5949 27.5659 30.9761 27.2494 30.7671 26.9842Z" fill="#F4E6F4"/>
<path d="M30.767 26.9842C30.9751 27.2487 30.5968 27.5661 30.3724 27.3106C29.8883 26.7611 28.7088 26.301 27.442 26.563C27.3613 26.4056 27.2864 26.2443 27.2192 26.0782C28.7271 25.7358 30.171 26.281 30.767 26.9842Z" fill="white"/>
<path d="M10.5652 30.4628C10.6906 30.5219 10.8452 30.469 10.906 30.3392C11.2412 29.6814 12.2663 28.946 13.5561 28.8822C14.6006 28.8046 15.8441 29.043 17.2281 29.5931C17.3597 29.6451 17.5082 29.5807 17.5609 29.4497C17.6128 29.3181 17.5485 29.1696 17.4175 29.1169C15.3776 28.3479 13.6705 28.0055 11.9162 28.7782C10.841 29.2917 10.4584 30.0883 10.4423 30.1219C10.3823 30.25 10.4371 30.4021 10.5652 30.4628Z" fill="#F4E6F4"/>
<path d="M10.4422 30.1219C10.307 30.43 10.7526 30.6427 10.906 30.3391C11.2372 29.6861 12.2641 28.9453 13.556 28.8821C13.5948 28.7094 13.627 28.5347 13.6504 28.3569C12.1049 28.4027 10.8434 29.2919 10.4422 30.1219Z" fill="white"/>
<path d="M9.26834 27.3449C9.37506 27.4335 9.53787 27.421 9.62927 27.3105C10.1145 26.7591 11.2988 26.3012 12.5597 26.5629C13.5904 26.7492 14.7346 27.2912 15.9368 28.1701C16.0513 28.2533 16.2112 28.2282 16.295 28.1146C16.3782 28.0001 16.353 27.8402 16.2394 27.7564C14.4568 26.5014 12.8897 25.7427 10.9979 26.0519C9.82834 26.28 9.25865 26.9556 9.23459 26.9841C9.14451 27.0931 9.15959 27.2541 9.26834 27.3449Z" fill="#F4E6F4"/>
<path d="M9.23472 26.9842C9.02668 27.2487 9.40496 27.5661 9.62933 27.3106C10.1135 26.7611 11.293 26.301 12.5597 26.563C12.6404 26.4056 12.7154 26.2443 12.7825 26.0782C11.2746 25.7358 9.83082 26.281 9.23472 26.9842Z" fill="white"/>
<path d="M18.9819 28.9855C19.0318 30.386 20.9928 30.3654 21.0195 28.9855C21.0195 28.5303 21.3886 28.1612 21.8438 28.1612H22.132C22.6946 28.1612 23.1508 27.705 23.1508 27.1424C23.1508 26.5797 22.6947 26.1235 22.132 26.1235H17.8694C17.3068 26.1235 16.8506 26.5796 16.8506 27.1424C16.8506 27.705 17.3067 28.1612 17.8694 28.1612H18.1576C18.6129 28.1612 18.9819 28.5303 18.9819 28.9855Z" fill="#EA792E"/>
<path d="M21.6484 27.5191H19.2465C18.322 27.4837 18.321 26.1594 19.2465 26.1235H21.6484C22.573 26.159 22.5739 27.4832 21.6484 27.5191Z" fill="#F39E22"/>
<path d="M22.1325 23.7777V26.1235H20.001V21.6462C21.1779 21.6462 22.1325 22.6008 22.1325 23.7777Z" fill="#FBCB74"/>
<path d="M17.8701 23.7777V26.1235H20.0016V21.6462C18.8247 21.6462 17.8701 22.6008 17.8701 23.7777Z" fill="#F9C744"/>
<path d="M27.1326 20.1557C26.9797 19.2892 25.2394 18.8719 24.3729 19.0246C23.5064 19.1775 22.9279 20.0037 23.0806 20.8702C23.2333 21.7367 24.0597 22.3152 24.9262 22.1625C25.7926 22.0096 27.2853 21.0221 27.1326 20.1557Z" fill="#DD5E26"/>
<path d="M25.3188 19.7605L25.5633 21.1475C25.592 21.3102 25.5516 21.4696 25.4641 21.5955C25.1675 22.0279 24.4712 21.8796 24.3828 21.3557L24.1383 19.9687C24.0295 19.1841 25.1488 18.9805 25.3188 19.7605Z" fill="#3E4E60"/>
<path d="M25.3189 19.7605L25.5634 21.1475C25.5923 21.3137 25.5508 21.4769 25.458 21.6037C25.1813 21.5938 24.9399 21.3923 24.8899 21.1088L24.6454 19.7219C24.616 19.5554 24.6589 19.3923 24.7514 19.2656C25.0276 19.2756 25.2689 19.477 25.3189 19.7605Z" fill="#2E3140"/>
<path d="M26.1561 19.9212C26.1017 19.6122 25.807 19.4059 25.4981 19.4604C24.7614 19.6199 24.9488 20.6815 25.6954 20.5793C26.0043 20.5248 26.2106 20.2302 26.1561 19.9212Z" fill="white"/>
<path d="M12.9469 20.1557C13.0997 19.2892 14.8401 18.8719 15.7066 19.0246C16.5731 19.1775 17.1516 20.0037 16.9989 20.8702C16.846 21.7367 16.0198 22.3152 15.1533 22.1625C14.2868 22.0096 12.7942 21.0221 12.9469 20.1557Z" fill="#DD5E26"/>
<path d="M15.941 19.9687L15.6965 21.3557C15.6678 21.5184 15.5754 21.6544 15.4501 21.7427C15.0235 22.0475 14.4199 21.67 14.5161 21.1475L14.7606 19.7606C14.9266 18.9861 16.048 19.1775 15.941 19.9687Z" fill="#3E4E60"/>
<path d="M15.9412 19.9687L15.6967 21.3557C15.6671 21.5217 15.5722 21.6608 15.4416 21.7482C15.1851 21.6442 15.0271 21.3724 15.0771 21.0889L15.3216 19.702C15.351 19.5355 15.447 19.3969 15.5773 19.3096C15.8333 19.4134 15.9912 19.6852 15.9412 19.9687Z" fill="#2E3140"/>
<path d="M15.4965 20.1988C15.551 19.8898 15.8456 19.6835 16.1546 19.738C16.8913 19.8974 16.7038 20.9591 15.9573 20.8569C15.6484 20.8024 15.4421 20.5078 15.4965 20.1988Z" fill="white"/>
<path d="M24.0426 15.0325H23.2878C22.6594 15.0325 22.1499 15.5419 22.1499 16.1704V17.1822C22.1499 17.8106 22.6594 18.32 23.2878 18.32H24.0426C24.671 18.32 25.1804 17.8106 25.1804 17.1822V16.1703C25.1804 15.5419 24.671 15.0325 24.0426 15.0325Z" fill="#F9C744"/>
<path d="M16.713 15.0325H15.9582C15.3298 15.0325 14.8203 15.5419 14.8203 16.1704V17.1822C14.8203 17.8106 15.3298 18.32 15.9582 18.32H16.713C17.3414 18.32 17.8509 17.8106 17.8509 17.1822V16.1703C17.8509 15.5419 17.3414 15.0325 16.713 15.0325Z" fill="#F39E22"/>
<path d="M21.6034 12.6688V15.502C21.6034 16.387 20.886 17.1044 20.001 17.1044V11.0664C20.8858 11.0664 21.6034 11.7841 21.6034 12.6688Z" fill="#FBD9A3"/>
<path d="M18.3984 12.6688V15.502C18.3984 16.387 19.1159 17.1044 20.0009 17.1044V11.0664C19.1161 11.0664 18.3984 11.7841 18.3984 12.6688Z" fill="#FBCB74"/>
<path d="M27.6312 14.7598L25.5119 12.6405C25.1913 12.3199 25.1913 11.8003 25.5119 11.4796L26.8449 10.1466C27.5524 9.43917 28.7299 9.55471 29.2863 10.3862L30.1166 11.6269C30.5379 12.2565 30.4555 13.0962 29.9198 13.6319L28.792 14.7597C28.4715 15.0803 27.9517 15.0803 27.6312 14.7598Z" fill="#F9C744"/>
<path d="M12.3687 14.7598L14.488 12.6405C14.8086 12.3199 14.8086 11.8003 14.488 11.4796L13.155 10.1466C12.4476 9.43917 11.27 9.55471 10.7136 10.3862L9.88334 11.6269C9.46201 12.2565 9.54443 13.0962 10.0801 13.6319L11.2079 14.7597C11.5284 15.0803 12.0482 15.0803 12.3687 14.7598Z" fill="#F39E22"/>
<path d="M13.0249 6.30969C12.4444 5.72922 12.1183 4.94195 12.1183 4.12109H19.9996V11.2807V13.8912C19.9996 14.4316 19.6698 14.9174 19.1674 15.1169L10.5678 18.53C10.4917 18.5602 10.4133 18.5829 10.3334 18.5985V23.6459H8.60971C7.51463 23.6459 6.50307 23.0608 5.95697 22.1116L5.41994 21.1783C5.15283 20.714 5.01221 20.1877 5.01221 19.652V17.2934H5.01283C5.01408 17.1727 5.03158 17.0495 5.06846 16.9265C5.06846 16.407 5.48963 15.9857 6.00924 15.9857C8.45908 16.0036 10.1908 16.1591 12.1092 14.3045L14.1135 12.3002C15.4672 10.9465 15.4671 8.75187 14.1135 7.3982L13.0249 6.30969Z" fill="#DD5E26"/>
<path d="M26.9748 6.30969C27.5552 5.72922 27.8813 4.94195 27.8813 4.12109H20V11.2807V13.8912C20 14.4316 20.3298 14.9174 20.8322 15.1169L29.4319 18.53C29.5079 18.5602 29.5863 18.5829 29.6663 18.5984V23.6458H31.39C32.4851 23.6458 33.4966 23.0607 34.0427 22.1116L34.5798 21.1782C34.8469 20.7139 34.9875 20.1876 34.9875 19.652V17.2933H34.9869C34.9856 17.1726 34.9681 17.0495 34.9312 16.9264C34.9312 16.4069 34.5101 15.9856 33.9905 15.9856C31.5427 16.0041 29.8057 16.1577 27.8905 14.3045L25.8862 12.3002C24.5326 10.9466 24.5326 8.75187 25.8862 7.3982L26.9748 6.30969Z" fill="#EA792E"/>
<path d="M19.9995 36.5043H25.274C26.0901 36.5043 26.7517 35.8427 26.7517 35.0266C26.7517 34.2105 26.0901 33.5488 25.274 33.5488H19.9995V36.5043Z" fill="#EA792E"/>
<path d="M19.9998 33.5498H14.7253C13.9092 33.5498 13.2476 34.2114 13.2476 35.0275C13.2476 35.8436 13.9091 36.5053 14.7253 36.5053H19.9998V33.5498Z" fill="#DD5E26"/>
</svg>
