<svg width="40" height="40" viewBox="0 0 40 40" fill="none" xmlns="http://www.w3.org/2000/svg">
<path d="M20 40C31.0457 40 40 31.0457 40 20C40 8.9543 31.0457 0 20 0C8.9543 0 0 8.9543 0 20C0 31.0457 8.9543 40 20 40Z" fill="#6C53A2"/>
<path d="M33.9633 9.80901L32.4429 7.53612C31.4235 6.01338 29.267 5.80174 27.9712 7.09752L24.8044 10.2643C24.4497 10.2111 24.0865 10.1833 23.7169 10.1833H16.2838C15.9142 10.1833 15.5511 10.2111 15.1962 10.2643L12.0294 7.09752C10.7337 5.80174 8.57717 6.01338 7.55771 7.53612L6.03732 9.80901C5.26537 10.9619 5.41592 12.4999 6.39717 13.4811L9.12021 16.2042C9.04982 16.6104 9.01279 17.028 9.01279 17.4543V24.8874C9.01279 28.9032 12.2679 32.1583 16.2837 32.1583H23.7168C27.7326 32.1583 30.9877 28.9032 30.9877 24.8874V17.4543C30.9877 17.028 30.9507 16.6104 30.8803 16.2042L33.6034 13.4811C34.5848 12.4999 34.7353 10.9619 33.9633 9.80901Z" fill="#EA792E"/>
<path d="M33.6032 13.4814L30.8802 16.2043C30.9501 16.6101 30.9875 17.0283 30.9875 17.454V24.8871C30.9875 28.9029 27.7324 32.158 23.7166 32.158H20V10.183H23.7166C24.0866 10.183 24.4491 10.2113 24.8041 10.2645L27.971 7.09753C29.2664 5.80128 31.4232 6.01331 32.4425 7.53573L33.9632 9.80894C34.7349 10.9621 34.5843 12.5003 33.6032 13.4814Z" fill="#F39E22"/>
<path d="M26.6309 25.3047V28.4698C26.6309 29.0793 27.2714 29.4764 27.8173 29.2054L28.97 28.6331C29.2159 28.5111 29.3845 28.2742 29.4194 28.002L29.8287 24.8086C29.9077 24.1919 29.2996 23.7145 28.7193 23.9377L27.1573 24.5382C26.8402 24.6601 26.6309 24.9648 26.6309 25.3047Z" fill="#F9C744"/>
<path d="M13.3708 25.3047V28.4698C13.3708 29.0793 12.7303 29.4764 12.1843 29.2054L11.0317 28.6331C10.7858 28.5111 10.6171 28.2742 10.5823 28.002L10.173 24.8086C10.0939 24.1919 10.702 23.7145 11.2824 23.9377L12.8443 24.5382C13.1615 24.6601 13.3708 24.9648 13.3708 25.3047Z" fill="#F39E22"/>
<path d="M28.6069 26.2299L27.5321 26.72C27.013 26.9567 26.4005 26.7278 26.1637 26.2087L25.9894 25.8263C25.7526 25.3073 25.9816 24.6947 26.5006 24.458L27.5754 23.9679C28.0944 23.7312 28.707 23.9601 28.9437 24.4791L29.1181 24.8616C29.3547 25.3806 29.1258 25.9932 28.6069 26.2299Z" fill="#3E4E60"/>
<path d="M30.9884 20.7563V23.486L30.8778 23.5367C30.3582 23.7728 29.7454 23.5442 29.5092 23.0253L29.3346 22.6428C29.0977 22.1231 29.3271 21.5113 29.846 21.2743L30.9202 20.7846C30.9427 20.7746 30.9651 20.7646 30.9884 20.7563Z" fill="#3E4E60"/>
<path d="M29.8154 18.3618L28.7406 18.8518C28.2215 19.0886 27.609 18.8596 27.3722 18.3406L27.1979 17.9582C26.9611 17.4391 27.1901 16.8265 27.7091 16.5898L28.7839 16.0997C29.3029 15.863 29.9155 16.0919 30.1522 16.611L30.3266 16.9934C30.5633 17.5125 30.3344 18.125 29.8154 18.3618Z" fill="#3E4E60"/>
<path d="M25.2104 13.9853L24.1356 14.4754C23.6166 14.7121 23.004 14.4832 22.7673 13.9641L22.5929 13.5817C22.3562 13.0626 22.5851 12.4501 23.1041 12.2133L24.1789 11.7233C24.698 11.4865 25.3105 11.7154 25.5473 12.2345L25.7216 12.6169C25.9583 13.1359 25.7294 13.7486 25.2104 13.9853Z" fill="#3E4E60"/>
<path d="M11.3946 26.2299L12.4694 26.72C12.9885 26.9567 13.601 26.7278 13.8378 26.2087L14.0121 25.8263C14.2488 25.3073 14.0199 24.6947 13.5009 24.458L12.4261 23.9679C11.907 23.7312 11.2945 23.9601 11.0578 24.4791L10.8834 24.8616C10.6467 25.3806 10.8756 25.9932 11.3946 26.2299Z" fill="#2E3140"/>
<path d="M9.01318 20.7563V23.486L9.12373 23.5367C9.64342 23.7728 10.2562 23.5442 10.4923 23.0253L10.6669 22.6428C10.9039 22.1231 10.6744 21.5113 10.1556 21.2743L9.08139 20.7846C9.05889 20.7746 9.03646 20.7646 9.01318 20.7563Z" fill="#2E3140"/>
<path d="M10.1862 18.3618L11.2609 18.8518C11.78 19.0886 12.3926 18.8596 12.6293 18.3406L12.8037 17.9582C13.0404 17.4391 12.8115 16.8265 12.2924 16.5898L11.2176 16.0997C10.6986 15.863 10.086 16.0919 9.84929 16.611L9.67491 16.9934C9.43819 17.5125 9.6671 18.125 10.1862 18.3618Z" fill="#2E3140"/>
<path d="M14.7911 13.9853L15.8659 14.4754C16.3849 14.7121 16.9975 14.4832 17.2342 13.9641L17.4086 13.5817C17.6453 13.0626 17.4164 12.4501 16.8974 12.2133L15.8226 11.7233C15.3035 11.4865 14.691 11.7154 14.4542 12.2345L14.2799 12.6169C14.0432 13.1359 14.272 13.7486 14.7911 13.9853Z" fill="#2E3140"/>
<path d="M25.1871 26.315V32.0885C25.1871 33.9842 23.6497 35.5215 21.754 35.5215H18.247C16.3513 35.5215 14.814 33.9842 14.814 32.0877V26.315C14.814 25.1942 15.3511 24.199 16.1817 23.5721C16.7429 23.1498 17.0847 22.4979 17.0847 21.7953V20.4492C17.0847 19.6435 17.7373 18.99 18.543 18.99H21.4581C22.2637 18.99 22.9165 19.6435 22.9165 20.4492V21.7953C22.9165 22.4979 23.2582 23.1498 23.8194 23.5721C24.65 24.199 25.1871 25.1942 25.1871 26.315Z" fill="#F39E22"/>
<path d="M25.1875 26.315V32.0885C25.1875 33.9842 23.6502 35.5215 21.7545 35.5215H20.001V18.99H21.4585C22.2641 18.99 22.9168 19.6435 22.9168 20.4492V21.7953C22.9168 22.4979 23.2586 23.1498 23.8198 23.5721C24.6504 24.199 25.1875 25.1942 25.1875 26.315Z" fill="#F9C744"/>
<path d="M25.3157 31.8267C25.1718 31.756 24.9974 31.8155 24.9264 31.9594C24.9188 31.9747 24.1546 33.4947 22.8693 33.4947C21.8559 33.4712 20.7207 33.6089 20.3914 32.7862C21.0735 32.6233 21.585 31.9653 21.575 31.2629C21.5585 30.9646 21.7962 30.7081 22.0963 30.7091H22.4238C22.6534 30.7091 22.8395 30.5229 22.8395 30.2934C22.8395 30.0639 22.6534 29.8777 22.4238 29.8777H22.0963C21.3504 29.8777 20.7435 30.4845 20.7435 31.2304C20.7606 31.5588 20.5377 31.8787 20.2223 31.9715C20.1183 31.8351 19.8836 31.8352 19.7796 31.9716C19.4765 31.8757 19.2589 31.5756 19.2589 31.2305C19.2589 30.4846 18.652 29.8778 17.9062 29.8778H17.5786C17.349 29.8778 17.1629 30.0639 17.1629 30.2935C17.1629 30.523 17.349 30.7092 17.5786 30.7092H17.9062C18.1936 30.7092 18.4274 30.943 18.4274 31.2304C18.4274 31.9695 18.926 32.6118 19.6102 32.7875C19.2814 33.6082 18.1455 33.4712 17.1328 33.4948C15.8475 33.4948 15.0833 31.9748 15.0757 31.9594C15.0051 31.8154 14.8309 31.7556 14.6867 31.8262C14.5423 31.8968 14.4825 32.0711 14.553 32.2154C14.6025 32.3576 15.6282 34.213 17.3093 34.077C18.3677 34.074 19.4629 34.1024 20.001 33.2936C20.5611 34.1476 21.7914 34.0717 22.8692 34.0768C24.52 34.0768 25.4118 32.2914 25.449 32.2155C25.5195 32.0713 25.4598 31.8975 25.3157 31.8267Z" fill="#DD5E26"/>
<path d="M30.8665 32.2727C30.8482 32.2345 30.4134 31.3291 29.1911 30.7454C28.6024 30.4644 27.9448 30.3048 27.2198 30.2665C25.9826 30.2017 24.55 30.4902 22.9378 31.1304C22.789 31.1902 22.7158 31.3591 22.7749 31.5087C22.8347 31.6575 23.0035 31.7307 23.1531 31.6716C24.7262 31.0464 26.1397 30.7753 27.327 30.8635C27.909 30.9067 28.437 31.0365 28.9025 31.2527C29.9551 31.7416 30.3367 32.5131 30.3392 32.5198C30.3892 32.6254 30.4939 32.6877 30.6028 32.6877C30.6444 32.6877 30.6868 32.6786 30.7267 32.6603C30.8723 32.5912 30.9347 32.4183 30.8665 32.2727Z" fill="#EBD9EA"/>
<path d="M30.8665 32.2727C30.9347 32.4182 30.8722 32.5911 30.7268 32.6601C30.6868 32.6784 30.6444 32.6875 30.6029 32.6875C30.494 32.6875 30.3892 32.6252 30.3393 32.5196C30.3368 32.5129 29.9551 31.7414 28.9025 31.2525C28.4369 31.0363 27.9089 30.9066 27.327 30.8633C27.2829 30.6671 27.2464 30.4684 27.2197 30.2664C27.9447 30.3046 28.6024 30.4642 29.1911 30.7453C30.4133 31.329 30.8482 32.2345 30.8665 32.2727Z" fill="white"/>
<path d="M32.2389 28.7063C32.2116 28.6738 31.564 27.9059 30.2347 27.6467C29.5944 27.522 28.9177 27.532 28.2062 27.6763C26.9922 27.9231 25.6774 28.5609 24.2767 29.5841C24.1475 29.6794 24.1189 29.8611 24.2136 29.9912C24.3088 30.1203 24.4905 30.1489 24.6206 30.0543C25.9872 29.0553 27.2879 28.4392 28.4594 28.2274C29.0337 28.1237 29.5774 28.1171 30.0822 28.2099C31.2237 28.4199 31.7862 29.0714 31.7904 29.0772C31.8651 29.167 31.9821 29.2011 32.0876 29.1738C32.1278 29.1634 32.1665 29.144 32.2006 29.1163C32.3242 29.0131 32.3413 28.8301 32.2389 28.7063Z" fill="#EBD9EA"/>
<path d="M32.2382 28.7063C32.3406 28.8301 32.3235 29.0131 32.1999 29.1163C32.1659 29.144 32.1271 29.1635 32.0869 29.1739C31.9814 29.2012 31.8644 29.167 31.7897 29.0773C31.7856 29.0715 31.2231 28.4199 30.0816 28.21C29.5767 28.1172 29.0331 28.1238 28.4588 28.2275C28.367 28.0485 28.2819 27.8653 28.2056 27.6763C28.9171 27.532 29.5938 27.522 30.234 27.6467C31.5634 27.906 32.2109 28.6738 32.2382 28.7063Z" fill="white"/>
<path d="M9.27427 32.6603C9.31419 32.6786 9.35662 32.6877 9.39818 32.6877C9.50708 32.6877 9.61185 32.6254 9.66177 32.5198C9.66427 32.5131 10.0459 31.7416 11.0985 31.2527C11.5641 31.0365 12.0921 30.9068 12.674 30.8635C13.8613 30.7754 15.2748 31.0464 16.8479 31.6716C16.9976 31.7307 17.1663 31.6575 17.2261 31.5087C17.2852 31.359 17.212 31.1902 17.0632 31.1304C15.451 30.4902 14.0184 30.2017 12.7812 30.2665C12.0562 30.3048 11.3986 30.4644 10.8099 30.7454C9.58771 31.3291 9.15287 32.2345 9.13451 32.2727C9.06638 32.4184 9.1288 32.5913 9.27427 32.6603Z" fill="#EBD9EA"/>
<path d="M9.13504 32.2729C9.06684 32.4184 9.12926 32.5914 9.27473 32.6604C9.31465 32.6786 9.35707 32.6878 9.39864 32.6878C9.50754 32.6878 9.61231 32.6254 9.66223 32.5198C9.66473 32.5132 10.0464 31.7416 11.099 31.2527C11.5646 31.0365 12.0925 30.9068 12.6745 30.8636C12.7186 30.6673 12.7551 30.4686 12.7818 30.2666C12.0568 30.3049 11.3991 30.4645 10.8104 30.7455C9.58817 31.3293 9.15332 32.2347 9.13504 32.2729Z" fill="white"/>
<path d="M7.80097 29.1172C7.83503 29.1449 7.87378 29.1644 7.91401 29.1748C8.01948 29.2021 8.13651 29.1679 8.2112 29.0782C8.21526 29.0724 8.77784 28.4208 9.91933 28.2109C10.4243 28.1181 10.9678 28.1247 11.5421 28.2284C12.7137 28.4402 14.0144 29.0563 15.381 30.0553C15.5111 30.1499 15.6928 30.1213 15.788 29.9921C15.8826 29.862 15.854 29.6803 15.7249 29.5851C14.3242 28.5618 13.0094 27.924 11.7953 27.6773C11.0838 27.5329 10.4071 27.5229 9.76691 27.6477C8.43753 27.907 7.78995 28.6748 7.76269 28.7072C7.66026 28.831 7.67737 29.014 7.80097 29.1172Z" fill="#EBD9EA"/>
<path d="M7.76269 28.7063C7.66026 28.8301 7.67737 29.0131 7.80097 29.1163C7.83503 29.144 7.87378 29.1635 7.91401 29.1739C8.01948 29.2012 8.13651 29.167 8.2112 29.0773C8.21526 29.0715 8.77784 28.4199 9.91932 28.21C10.4242 28.1172 10.9678 28.1238 11.5421 28.2275C11.6339 28.0485 11.719 27.8653 11.7953 27.6763C11.0838 27.532 10.4071 27.522 9.7669 27.6467C8.43753 27.906 7.78995 28.6738 7.76269 28.7063Z" fill="white"/>
<path d="M18.8431 30.9818C18.8431 31.5602 19.2536 32.0756 19.8259 32.1595C20.5432 32.2647 21.1592 31.7115 21.1592 31.0144V30.9818C21.1592 30.4643 21.5787 30.0449 22.0961 30.0449H22.4237C23.0633 30.0449 23.5817 29.5263 23.5817 28.8868C23.5817 28.2472 23.0632 27.7288 22.4237 27.7288H17.5785C16.9388 27.7288 16.4204 28.2473 16.4204 28.8868C16.4204 29.5264 16.9389 30.0449 17.5785 30.0449H17.906C18.4236 30.0449 18.8431 30.4643 18.8431 30.9818Z" fill="#C0405C"/>
<path d="M21.8739 29.314H19.1437C18.7057 29.314 18.3506 28.959 18.3506 28.5209C18.3506 28.0829 18.7057 27.7278 19.1437 27.7278H21.8739C22.312 27.7278 22.6671 28.0829 22.6671 28.5209C22.6671 28.959 22.3119 29.314 21.8739 29.314Z" fill="#E9465E"/>
<path d="M22.4233 25.0613V27.7277H20.0005V22.6384C21.3383 22.6384 22.4233 23.7235 22.4233 25.0613Z" fill="#F39E22"/>
<path d="M17.5776 25.0613V27.7277H20.0004V22.6384C18.6627 22.6384 17.5776 23.7235 17.5776 25.0613Z" fill="#EA792E"/>
<path d="M28.8192 20.8699C28.6194 19.7363 26.3424 19.1903 25.2089 19.3902C24.0754 19.59 23.3184 20.671 23.5184 21.8045C23.7182 22.9381 24.7992 23.695 25.9327 23.4951C27.0663 23.2952 29.0191 22.0034 28.8192 20.8699Z" fill="#53B976"/>
<path d="M26.4461 20.3528L26.766 22.1673C26.8035 22.3801 26.7509 22.5887 26.6363 22.7533C26.2483 23.319 25.3373 23.125 25.2217 22.4395L24.9018 20.6251C24.7595 19.5987 26.2237 19.3323 26.4461 20.3528Z" fill="#3E4E60"/>
<path d="M26.4462 20.3528L26.7661 22.1673C26.804 22.3846 26.7496 22.5981 26.6283 22.764C26.2663 22.751 25.9505 22.4875 25.8851 22.1166L25.5652 20.3022C25.5268 20.0844 25.5829 19.871 25.704 19.7053C26.065 19.7184 26.3808 19.9819 26.4462 20.3528Z" fill="#2E3140"/>
<path d="M27.5415 20.5632C27.4703 20.159 27.0848 19.8891 26.6806 19.9604C25.7168 20.169 25.962 21.5579 26.9387 21.4241C27.3428 21.3528 27.6128 20.9674 27.5415 20.5632Z" fill="white"/>
<path d="M11.1812 20.8699C11.3811 19.7363 13.658 19.1903 14.7915 19.3902C15.925 19.59 16.682 20.671 16.4821 21.8045C16.2822 22.9381 15.2012 23.695 14.0677 23.4951C12.9342 23.2952 10.9814 22.0034 11.1812 20.8699Z" fill="#53B976"/>
<path d="M15.0982 20.6251L14.7783 22.4395C14.7408 22.6524 14.6199 22.8304 14.456 22.9458C13.8979 23.3447 13.1082 22.8508 13.2341 22.1672L13.554 20.3528C13.7712 19.3397 15.2382 19.5901 15.0982 20.6251Z" fill="#3E4E60"/>
<path d="M15.0981 20.625L14.7782 22.4395C14.7394 22.6567 14.6153 22.8387 14.4445 22.9531C14.1088 22.8171 13.9022 22.4615 13.9676 22.0906L14.2875 20.2761C14.326 20.0583 14.4516 19.877 14.6221 19.7627C14.9569 19.8986 15.1636 20.2542 15.0981 20.625Z" fill="#2E3140"/>
<path d="M14.5168 20.926C14.588 20.5218 14.9735 20.2519 15.3777 20.3232C16.3415 20.5318 16.0963 21.9207 15.1196 21.7869C14.7154 21.7157 14.4455 21.3302 14.5168 20.926Z" fill="white"/>
<path d="M24.5942 15.1208H23.7362C23.0219 15.1208 22.4429 15.6999 22.4429 16.4142V17.5644C22.4429 18.2787 23.0219 18.8577 23.7362 18.8577H24.5942C25.3085 18.8577 25.8876 18.2787 25.8876 17.5644V16.4142C25.8876 15.6999 25.3085 15.1208 24.5942 15.1208Z" fill="#EA792E"/>
<path d="M16.2631 15.1208H15.4052C14.6909 15.1208 14.1118 15.6999 14.1118 16.4142V17.5644C14.1118 18.2787 14.6909 18.8577 15.4052 18.8577H16.2631C16.9774 18.8577 17.5565 18.2787 17.5565 17.5644V16.4142C17.5566 15.6999 16.9775 15.1208 16.2631 15.1208Z" fill="#DD5E26"/>
<path d="M21.8214 12.434V15.6544C21.8214 16.6604 21.0059 17.4758 20 17.4758V10.6125C21.0057 10.6125 21.8214 11.4283 21.8214 12.434Z" fill="#F9C744"/>
<path d="M18.1792 12.434V15.6544C18.1792 16.6604 18.9947 17.4758 20.0006 17.4758V10.6125C18.9949 10.6125 18.1792 11.4283 18.1792 12.434Z" fill="#F39E22"/>
<path d="M33.6036 13.4812L32.516 14.5689C31.7799 14.0974 31.0632 13.5241 30.3942 12.855C28.8292 11.29 27.7903 9.46799 27.3423 7.72659L27.9713 7.09752C29.2671 5.80174 31.4236 6.01338 32.4431 7.53612L33.9635 9.80901C34.7353 10.962 34.5849 12.4999 33.6036 13.4812Z" fill="#3E4E60"/>
<path d="M28.6749 14.8108L26.266 12.4018C25.9016 12.0375 25.9016 11.4467 26.266 11.0824L27.7813 9.56707C28.5854 8.76293 29.9239 8.89433 30.5564 9.83949L31.5001 11.2498C31.979 11.9655 31.8853 12.9199 31.2764 13.5289L29.9944 14.8109C29.6301 15.1752 29.0393 15.1752 28.6749 14.8108Z" fill="#EA792E"/>
<path d="M6.39762 13.4812L7.48528 14.5689C8.22137 14.0974 8.93802 13.5241 9.60708 12.855C11.1721 11.29 12.211 9.46799 12.659 7.72659L12.0299 7.09752C10.7341 5.80174 8.57762 6.01338 7.55817 7.53612L6.03778 9.80901C5.2659 10.962 5.41637 12.4999 6.39762 13.4812Z" fill="#2E3140"/>
<path d="M11.3268 14.8108L13.7357 12.4018C14.1001 12.0375 14.1001 11.4467 13.7357 11.0824L12.2204 9.56707C11.4163 8.76293 10.0778 8.89433 9.44528 9.83949L8.50153 11.2498C8.02262 11.9655 8.11629 12.9199 8.7252 13.5289L10.0072 14.8109C10.3716 15.1752 10.9624 15.1752 11.3268 14.8108Z" fill="#DD5E26"/>
</svg>
