<svg width="40" height="40" viewBox="0 0 40 40" fill="none" xmlns="http://www.w3.org/2000/svg">
<path d="M40 20C40 31.0458 31.0458 40 20 40C8.95416 40 0 31.0458 0 20C0 8.95416 8.95416 0 20 0C31.0458 0 40 8.95416 40 20Z" fill="#27BA9E"/>
<path d="M29.8531 35.1234V37.4082C27.6482 38.6588 25.1821 39.5029 22.5569 39.8374C21.7192 39.9445 20.8663 40.0001 20.0002 40.0001C18.9601 40.0001 17.9406 39.9207 16.9448 39.7681C15.916 39.6107 14.9135 39.3738 13.9431 39.0662C12.6125 38.6442 11.3414 38.0857 10.147 37.4082V35.1234C10.147 31.6514 12.5283 28.7339 15.7479 27.9191C16.1437 27.8181 16.5529 27.7494 16.9716 27.7158C17.1724 27.6996 17.3748 27.6914 17.5798 27.6914H22.4196C22.9863 27.6914 23.5381 27.7543 24.0679 27.8742C24.0728 27.8751 24.0786 27.8766 24.0834 27.8776C27.3879 28.6335 29.8531 31.5909 29.8531 35.1234Z" fill="#DD104F"/>
<path d="M29.8534 35.1234V37.4082C28.0779 38.4156 26.1336 39.1593 24.0721 39.5844C23.9498 39.6097 23.8265 39.6342 23.7032 39.657C23.1261 39.7657 22.5402 39.849 21.9466 39.9052C21.4724 39.9518 20.9923 39.9811 20.5089 39.9933C20.3401 39.9976 20.1702 40.0001 20.0005 40.0001C19.3431 40.0001 18.6943 39.968 18.0535 39.907C17.4599 39.849 16.874 39.7657 16.2969 39.657C15.4943 39.5069 14.709 39.3085 13.9434 39.0662V35.1234C13.9434 34.5966 13.998 34.0824 14.1024 33.5868C14.3065 32.6139 14.7017 31.7118 15.2462 30.9199C15.2675 30.8872 15.2901 30.8564 15.3124 30.8243C15.7244 30.2442 16.2175 29.7257 16.776 29.2866C18.0413 28.2874 19.6395 27.6914 21.3768 27.6914H22.4199C22.7547 27.6914 23.0846 27.7134 23.4078 27.7567C23.9897 27.8333 24.5516 27.9789 25.0829 28.1837C27.8731 29.253 29.8534 31.9568 29.8534 35.1234Z" fill="#F73B6C"/>
<path d="M24.0681 27.8742L23.6255 31.3804L22.5571 39.8374C21.7194 39.9445 20.8665 40.0001 20.0004 40.0001C18.9603 40.0001 17.9407 39.9207 16.9449 39.7681L16.8558 38.787L15.9186 28.4302L15.748 27.9191C16.1439 27.8181 16.5531 27.7494 16.9718 27.7158C17.1726 27.6996 17.3749 27.6914 17.58 27.6914H22.4198C22.9865 27.6914 23.5383 27.7543 24.0681 27.8742Z" fill="#C1DCE5"/>
<path d="M23.6257 31.3802L22.5573 39.8372C21.7195 39.9443 20.8666 39.9999 20.0005 39.9999C18.9604 39.9999 17.9409 39.9205 16.9451 39.7679L16.856 38.7868C17.025 38.7581 17.202 38.7346 17.3882 38.7157C23.0208 38.1444 22.8365 32.509 23.1139 30.1982L23.6257 31.3802Z" fill="#9FC2CC"/>
<path d="M23.8961 29.1714C23.5385 31.0479 21.8862 32.47 19.9084 32.47C17.9302 32.47 16.278 31.0479 15.9203 29.1714H15.0918C15.4583 31.4996 17.478 33.2864 19.9084 33.2864C22.3385 33.2864 24.3582 31.4996 24.7247 29.1714H23.8961Z" fill="#F46D11"/>
<path d="M22.6518 24.8281V28.0825C22.6518 29.2739 21.8663 30.281 20.7841 30.6155C20.5363 30.6921 20.2723 30.7339 19.9995 30.7339C18.535 30.7339 17.3481 29.5468 17.3481 28.0825V24.8281H22.6518Z" fill="#EAA27F"/>
<path d="M22.6517 27.8762V28.0825C22.6517 29.2739 21.8661 30.281 20.784 30.6155C19.8077 30.3152 19.0738 29.4665 18.938 28.4277C19.1153 28.4387 19.2935 28.4442 19.4724 28.4442C19.9741 28.4442 20.4657 28.4042 20.9448 28.3254C21.5353 28.2308 22.1057 28.0789 22.6517 27.8762Z" fill="#F6BA97"/>
<path d="M18.0532 39.9069C17.4596 39.8489 16.8737 39.7656 16.2966 39.6569L15.2458 30.9197L14.8467 27.6016L16.5486 27.3965L16.7757 29.2864L18.0532 39.9069Z" fill="#DD104F"/>
<path d="M25.1528 27.6016L25.0826 28.1835L23.7029 39.6569C23.1258 39.7656 22.5399 39.8489 21.9463 39.905L23.4075 27.7566L23.4508 27.3965L25.1528 27.6016Z" fill="#DD104F"/>
<path d="M12.7257 19.4949C12.7257 20.7224 11.8288 21.7404 10.6545 21.9293C10.5263 21.9501 10.3942 21.9608 10.2596 21.9608C8.89728 21.9608 7.79346 20.8572 7.79346 19.4949C7.79346 18.1326 8.89728 17.0288 10.2596 17.0288C10.3942 17.0288 10.5263 17.0398 10.6545 17.0605C11.8288 17.2495 12.7257 18.2672 12.7257 19.4949Z" fill="#F6BA97"/>
<path d="M12.7255 19.4949C12.7255 20.7224 11.8286 21.7404 10.6543 21.9293C10.441 21.1536 10.3271 20.3372 10.3271 19.4949C10.3271 18.6523 10.441 17.836 10.6543 17.0605C11.8286 17.2495 12.7255 18.2672 12.7255 19.4949Z" fill="#EAA27F"/>
<path d="M11.1406 19.4949C11.1406 19.9816 10.746 20.3762 10.2593 20.3762C9.77252 20.3762 9.37793 19.9816 9.37793 19.4949C9.37793 19.0081 9.77252 18.6135 10.2593 18.6135C10.746 18.6135 11.1406 19.0081 11.1406 19.4949Z" fill="#EAA27F"/>
<path d="M27.2734 19.4949C27.2734 20.7224 28.17 21.7404 29.3444 21.9293C29.4728 21.9501 29.6047 21.9608 29.7396 21.9608C31.1019 21.9608 32.2054 20.8572 32.2054 19.4949C32.2054 18.1326 31.1019 17.0288 29.7396 17.0288C29.6047 17.0288 29.4728 17.0398 29.3444 17.0605C28.17 17.2495 27.2734 18.2672 27.2734 19.4949Z" fill="#F6BA97"/>
<path d="M27.2734 19.4949C27.2734 20.7224 28.17 21.7404 29.3444 21.9293C29.5577 21.1536 29.6718 20.3372 29.6718 19.4949C29.6718 18.6523 29.558 17.836 29.3444 17.0605C28.17 17.2495 27.2734 18.2672 27.2734 19.4949Z" fill="#EAA27F"/>
<path d="M29.1749 14.6906V18.1845C29.1749 22.7502 25.8394 26.5381 21.472 27.2409C21.4573 27.2433 21.4418 27.2458 21.4271 27.2482C20.9626 27.3224 20.486 27.3593 19.9992 27.3593C14.9324 27.3593 10.8247 23.2513 10.8247 18.1845V14.6906C10.8247 13.6237 11.0066 12.5983 11.3429 11.6458C12.5978 8.07495 16.0002 5.51514 19.9992 5.51514H20.0001C20.486 5.51514 20.9633 5.55267 21.4286 5.62622C25.8174 6.31195 29.1749 10.1093 29.1749 14.6906Z" fill="#EAA27F"/>
<path d="M30.6211 19.4949C30.6211 19.9816 30.2265 20.3762 29.7397 20.3762C29.253 20.3762 28.8584 19.9816 28.8584 19.4949C28.8584 19.0081 29.253 18.6135 29.7397 18.6135C30.2265 18.6135 30.6211 19.0081 30.6211 19.4949Z" fill="#EAA27F"/>
<path d="M29.1748 14.6906V18.1845C29.1748 22.7502 25.8392 26.5381 21.4719 27.2409C21.4572 27.2433 21.4417 27.2458 21.427 27.2482C17.0383 26.5625 13.6816 22.7649 13.6816 18.1845V14.6906C13.6816 10.1093 17.0392 6.31195 21.4285 5.62622C25.8173 6.31195 29.1748 10.1093 29.1748 14.6906Z" fill="#F6BA97"/>
<path d="M19.9989 23.1117C19.2305 23.1117 18.4623 22.9191 17.762 22.534C17.5645 22.4257 17.4922 22.1773 17.6008 21.9798C17.7095 21.7824 17.9576 21.7103 18.1553 21.8187C19.3095 22.4534 20.688 22.4534 21.8425 21.8187C22.0399 21.71 22.288 21.7821 22.3967 21.9798C22.5053 22.1773 22.4333 22.4257 22.2355 22.534C21.5355 22.9191 20.767 23.1117 19.9989 23.1117Z" fill="#EAA27F"/>
<path d="M21.0403 20.6791H18.9587C18.7109 20.6791 18.5098 20.478 18.5098 20.2302C18.5098 19.9821 18.7109 19.7812 18.9587 19.7812H21.0403C21.2884 19.7812 21.4895 19.9821 21.4895 20.2302C21.4895 20.478 21.2884 20.6791 21.0403 20.6791Z" fill="#EAA27F"/>
<path d="M10.8247 14.6906C19.1099 14.2761 22.9872 10.4413 22.9872 10.4413C22.9872 10.4413 24.8323 14.6906 29.1749 14.6906V12.637C29.1749 7.56989 25.067 3.46191 19.9998 3.46191C14.9324 3.46191 10.8247 7.56989 10.8247 12.637V14.6906Z" fill="#2F373B"/>
<path d="M21.7747 3.63434C19.9528 3.99109 18.3241 4.88739 17.0622 6.14929C15.4017 7.80975 14.3748 10.1035 14.3748 12.6373V14.2758C13.2963 14.4781 12.1144 14.6262 10.8247 14.6906V12.6373C10.8247 10.1035 11.8516 7.80975 13.5121 6.14929C15.1722 4.48883 17.4653 3.46191 19.9992 3.46191C20.6065 3.46191 21.201 3.52081 21.7747 3.63434Z" fill="#151A1C"/>
<path d="M17.9014 16.4846H23.483V19.8217H17.9014V16.4846Z" fill="#EAA27F"/>
<path d="M20.5474 17.0011C20.1641 16.7902 19.7061 16.7902 19.3224 17.0011L18.8271 16.0996C19.5208 15.7181 20.3494 15.7181 21.043 16.0996L20.5474 17.0011Z" fill="#F46D11"/>
<path d="M14.3234 22.6862C13.7485 22.6862 12.8705 22.4622 12.1307 21.8336C11.5274 21.3209 10.8081 20.3565 10.8081 18.6765C10.8081 17.2895 11.3739 16.1854 12.4445 15.4838C13.4885 14.7993 14.6988 14.697 15.3275 14.697C15.4556 14.697 15.5865 14.6946 15.7254 14.6918C15.8688 14.6888 16.0175 14.686 16.1682 14.686C17.2128 14.686 18.3905 14.8478 19.2038 16.0477C19.7745 16.8894 19.7232 18.0424 19.0594 19.2942C18.5998 20.1609 17.8934 20.9843 17.0703 21.612C15.9061 22.4998 14.9341 22.6862 14.3234 22.6862Z" fill="#F46D11"/>
<path d="M17.1478 20.6491C16.2988 21.4404 15.2634 22.0004 14.3237 22.0004C13.4335 22.0004 11.4941 21.2701 11.4941 18.6768C11.4941 16.0831 13.7531 15.3827 15.3275 15.3827C15.7028 15.3827 16.098 15.3616 16.4893 15.3775C17.2873 15.4099 18.0698 15.5966 18.6365 16.4322C19.3832 17.5339 18.5037 19.3863 17.1478 20.6491Z" fill="#151A1C"/>
<path d="M25.6759 22.686C25.0655 22.686 24.0932 22.4996 22.9293 21.6118C22.1059 20.9841 21.3994 20.1607 20.9398 19.294C20.2761 18.0419 20.2248 16.8892 20.7955 16.0475C21.6091 14.8476 22.7868 14.6855 23.8314 14.6855C23.9818 14.6855 24.1305 14.6886 24.2742 14.6913C24.4127 14.6944 24.5437 14.6968 24.6718 14.6968C25.3005 14.6968 26.5111 14.7991 27.5548 15.4833C28.6254 16.1849 29.1912 17.2893 29.1912 18.6763C29.1912 20.3563 28.4719 21.3204 27.8686 21.8334C27.1291 22.462 26.2511 22.686 25.6759 22.686Z" fill="#F46D11"/>
<path d="M28.5054 18.6766C28.5054 20.9339 27.0363 21.7793 26.0683 21.9606C25.924 21.9877 25.7915 22.0002 25.6758 22.0002C23.2341 22.0002 20.1485 18.2234 21.3631 16.432C22.2072 15.1869 23.5311 15.3828 24.6715 15.3828C24.9678 15.3828 25.2886 15.4072 25.6139 15.4649C27.0165 15.713 28.5054 16.5706 28.5054 18.6766Z" fill="#151A1C"/>
<path d="M28.5053 18.6768C28.5053 20.9341 27.0362 21.7795 26.0682 21.9608C27.4158 19.7656 26.6901 16.6586 25.6138 15.4651C27.0164 15.7132 28.5053 16.5707 28.5053 18.6768Z" fill="#2F373B"/>
<path d="M17.1478 20.6492C17.7972 18.7581 17.2931 16.5336 16.4893 15.3779C17.2873 15.41 18.0698 15.597 18.6365 16.4323C19.3832 17.534 18.5037 19.3864 17.1478 20.6492Z" fill="#2F373B"/>
</svg>
