<svg width="40" height="40" viewBox="0 0 40 40" fill="none" xmlns="http://www.w3.org/2000/svg">
<path d="M20 40C31.0457 40 40 31.0457 40 20C40 8.9543 31.0457 0 20 0C8.9543 0 0 8.9543 0 20C0 31.0457 8.9543 40 20 40Z" fill="#EA792E"/>
<path d="M29.1644 5.03761V14.8643C29.1644 15.423 28.9893 15.9678 28.6636 16.4218L26.5949 19.3056C26.6833 19.3647 21.345 15.8165 21.2051 15.7235L22.4254 11.2939C22.5879 10.704 22.8848 10.1603 23.2934 9.7048L27.9082 4.55401C28.343 4.06628 29.1683 4.38518 29.1644 5.03761Z" fill="#DECEE5"/>
<path d="M26.7137 13.5821C27.0629 14.6438 27.1035 15.7766 26.8395 16.8531C26.7342 17.3498 26.2588 18.4742 26.0809 18.9641L21.2051 15.7235L22.4254 11.2938C22.5879 10.7039 22.8848 10.1602 23.2934 9.70471L25.5551 7.18049L27.9082 4.55393C28.2506 4.1594 28.9277 4.2819 29.1121 4.76877L27.0059 9.14533C26.3395 10.5305 26.2348 12.1211 26.7137 13.5821Z" fill="#F4E6F4"/>
<path d="M26.7136 13.5821C27.0629 14.6438 27.1035 15.7766 26.8394 16.8532C24.7771 14.2969 24.21 10.259 25.5551 7.18052C25.555 7.18052 27.9082 4.55396 27.9082 4.55396C28.2509 4.15935 28.9275 4.28193 29.1121 4.7688L27.0058 9.14536C26.3394 10.5305 26.2347 12.1211 26.7136 13.5821Z" fill="white"/>
<path d="M10.835 5.03758V14.8642C10.835 15.423 11.0101 15.9677 11.3358 16.4218L13.4045 19.3056C13.3161 19.3648 18.6544 15.8166 18.7943 15.7236L17.574 11.2939C17.4115 10.7041 17.1147 10.1603 16.7061 9.70485L12.0912 4.55407C11.6565 4.06625 10.8311 4.38516 10.835 5.03758Z" fill="#C2AACF"/>
<path d="M13.2861 13.5821C12.9369 14.6438 12.8963 15.7766 13.1604 16.8531C13.2656 17.3498 13.741 18.4742 13.9189 18.9641L18.7947 15.7235L17.5744 11.2938C17.4119 10.7039 17.115 10.1602 16.7064 9.70471L14.4447 7.18049L12.0916 4.55393C11.7492 4.1594 11.0721 4.2819 10.8877 4.76877L12.9939 9.14533C13.6603 10.5305 13.765 12.1211 13.2861 13.5821Z" fill="#EBD9EA"/>
<path d="M13.2861 13.5821C12.9369 14.6438 12.8963 15.7766 13.1603 16.8532C15.2227 14.2969 15.7898 10.259 14.4446 7.18052C14.4447 7.18052 12.0916 4.55396 12.0916 4.55396C11.7489 4.15935 11.0722 4.28193 10.8877 4.7688L12.9939 9.14536C13.6603 10.5305 13.765 12.1211 13.2861 13.5821Z" fill="#F9F2F9"/>
<path d="M28.6242 24.7174V26.5361C28.6371 31.4165 24.4246 35.1291 19.6046 34.7649C15.0594 34.765 11.375 31.0806 11.375 26.5361V24.7174C11.3621 19.837 15.5747 16.1244 20.3953 16.4885C24.9399 16.4884 28.6242 20.1728 28.6242 24.7174Z" fill="#C2AACF"/>
<path d="M28.6242 24.7173V26.536C28.637 31.2312 24.6776 34.9715 20 34.7649V16.4884C24.6777 16.2819 28.637 20.0221 28.6242 24.7173Z" fill="#DECEE5"/>
<path d="M22.0824 35.2143H17.9184C15.2145 35.2143 13.1527 32.9776 13.5809 30.5096C13.7165 29.727 13.9924 28.1354 14.1285 27.3494C14.3449 26.1041 14.3449 24.8338 14.1285 23.5885L13.7199 21.2283C13.2184 18.3408 15.6316 15.7236 18.7957 15.7236H21.2051C24.3691 15.7236 26.7824 18.3408 26.2808 21.2283L25.8723 23.5885C25.6558 24.8338 25.6558 26.1041 25.8723 27.3494L26.1605 29.0135L26.4199 30.5096C26.848 32.9776 24.7863 35.2143 22.0824 35.2143Z" fill="#DECEE5"/>
<path d="M22.0825 35.2143H20.0005V15.7236H21.2052C24.3692 15.7236 26.7825 18.3408 26.281 21.2283L25.8724 23.5885C25.656 24.8338 25.656 26.1041 25.8724 27.3494C26.0077 28.1331 26.2849 29.7286 26.42 30.5096C26.8481 32.9776 24.7864 35.2143 22.0825 35.2143Z" fill="#EBD9EA"/>
<path d="M25.8265 23.2314C26.5868 23.3655 27.0963 24.085 26.9722 24.8449C26.9722 24.8516 26.9711 24.858 26.9699 24.8644L26.7996 25.8302C26.6645 26.5963 25.9333 27.1105 25.1664 26.9747C24.3954 26.8424 23.8856 26.0932 24.0221 25.3404L24.1924 24.3746C24.3283 23.6077 25.0594 23.0962 25.8265 23.2314Z" fill="#3E4E60"/>
<path d="M25.8268 23.2314C26.5872 23.3655 27.0966 24.085 26.9726 24.8449C26.3126 25.6104 25.033 25.91 24.004 25.5014C24.0004 25.4161 24.1767 24.4821 24.1927 24.3746C24.3286 23.6077 25.0597 23.0962 25.8268 23.2314Z" fill="#2E3140"/>
<path d="M24.8717 24.1883L24.7693 24.7694C24.7251 25.0196 24.8922 25.2582 25.1424 25.3024C25.3926 25.3465 25.6312 25.1794 25.6754 24.9293L25.7778 24.3482C25.8649 23.7461 24.9957 23.5927 24.8717 24.1883Z" fill="white"/>
<path d="M14.1737 23.2314C13.4133 23.3655 12.9038 24.085 13.0279 24.8449C13.028 24.8516 13.029 24.858 13.0302 24.8644L13.2005 25.8302C13.3356 26.5963 14.0669 27.1105 14.8337 26.9747C15.6048 26.8424 16.1145 26.0932 15.978 25.3404L15.8077 24.3746C15.6718 23.6077 14.9408 23.0962 14.1737 23.2314Z" fill="#3E4E60"/>
<path d="M14.1737 23.2314C13.4133 23.3655 12.9038 24.085 13.0279 24.8449C13.6879 25.6104 14.9674 25.91 15.9965 25.5014C16 25.4161 15.8237 24.4821 15.8077 24.3746C15.6718 23.6077 14.9408 23.0962 14.1737 23.2314Z" fill="#2E3140"/>
<path d="M15.128 24.1883L15.2305 24.7694C15.2746 25.0196 15.1075 25.2582 14.8573 25.3024C14.6071 25.3465 14.3685 25.1794 14.3244 24.9293L14.2219 24.3482C14.1348 23.7461 15.0041 23.5927 15.128 24.1883Z" fill="white"/>
<path d="M20 17.1426C23.5127 17.1426 24.5282 18.1581 24.5282 19.5403C24.5282 20.9226 23.6806 23.4049 20 23.4049V17.1426Z" fill="#F4E6F4"/>
<path d="M19.9999 17.1426C16.4872 17.1426 15.4717 18.1581 15.4717 19.5403C15.4717 20.9226 16.3193 23.4049 19.9999 23.4049V17.1426Z" fill="#EBD9EA"/>
<path d="M26.4762 31.1611C26.4762 33.3572 24.5457 35.2142 22.0824 35.2142H17.9184C15.2145 35.2142 13.1527 32.9775 13.5809 30.5095C13.7309 29.6447 14.4807 29.0135 15.359 29.0134H24.6418C25.8403 29.0301 26.5281 30.0241 26.4762 31.1611Z" fill="#EBD9EA"/>
<path d="M26.4763 31.1611C26.4763 33.3572 24.5458 35.2142 22.0825 35.2142H20.0005V29.0134H24.6419C25.8426 29.0307 26.5274 30.0244 26.4763 31.1611Z" fill="#F4E6F4"/>
<path d="M26.3859 32.3075C26.1893 32.2202 25.9586 32.3089 25.8705 32.5053C25.8651 32.5175 25.3131 33.7229 24.2988 33.7229C22.282 33.7229 20.8493 32.9475 20.3904 32.6621V31.2275C20.3904 31.0118 20.2156 30.8369 19.9998 30.8369C19.784 30.8369 19.6092 31.0118 19.6092 31.2275V32.6622C19.1502 32.9476 17.7174 33.723 15.7008 33.723C14.6864 33.723 14.1345 32.5175 14.1296 32.5064C14.0425 32.3091 13.8121 32.2195 13.6146 32.3065C13.4171 32.3936 13.3276 32.6241 13.4146 32.8215C13.4449 32.8902 14.1741 34.5043 15.7008 34.5043C17.8907 34.5043 19.4364 33.6905 19.9998 33.3407C20.5632 33.6905 22.1088 34.5043 24.2988 34.5043C25.8255 34.5043 26.5546 32.8903 26.5849 32.8215C26.6717 32.6246 26.5827 32.395 26.3859 32.3075Z" fill="#C2AACF"/>
<path d="M21.5616 28.8005V30.1025C21.5616 30.3201 21.4984 30.5341 21.3807 30.7179L21.0874 31.1737C20.9367 31.4089 20.6772 31.5509 20.3985 31.5509H19.6016C19.3229 31.5509 19.0634 31.409 18.9127 31.1737L18.6193 30.7179C18.5017 30.5341 18.4385 30.3202 18.4385 30.1025V28.8005C18.4385 28.3476 18.8054 27.9807 19.2582 27.9807H20.7419C21.1947 27.9807 21.5616 28.3476 21.5616 28.8005Z" fill="#F9F2F9"/>
<path d="M21.5616 28.8005V30.1025C21.5616 30.3201 21.4984 30.5341 21.3807 30.7179L21.0873 31.1737C20.9366 31.4089 20.6771 31.5509 20.3984 31.5509H20V27.9807H20.7418C21.1947 27.9807 21.5616 28.3476 21.5616 28.8005Z" fill="white"/>
<path d="M29.5589 32.3097C28.2424 30.0578 25.1464 30.2424 22.5837 31.3047C22.4528 31.3573 22.3884 31.5057 22.4404 31.6375C22.493 31.7684 22.6415 31.8328 22.7732 31.7808C24.1571 31.2307 25.4006 30.9923 26.4451 31.0699C27.7383 31.1329 28.7655 31.8758 29.0952 32.527C29.2467 32.8297 29.6949 32.6186 29.5589 32.3097Z" fill="#F9F2F9"/>
<path d="M29.5588 32.3096C29.694 32.6177 29.2484 32.8305 29.095 32.5269C28.7638 31.8738 27.7369 31.133 26.445 31.0698C26.4062 30.8972 26.374 30.7224 26.3506 30.5447C27.8961 30.5905 29.1576 31.4797 29.5588 32.3096Z" fill="white"/>
<path d="M30.7662 29.172C28.9281 27.3211 25.9768 28.2746 23.7614 29.9443C23.6478 30.0281 23.6226 30.1879 23.7058 30.3024C23.7896 30.416 23.9494 30.4411 24.064 30.3579C25.2662 29.4791 26.4105 28.9371 27.4412 28.7507C28.7089 28.4882 29.8894 28.9504 30.3715 29.4983C30.594 29.7536 30.9751 29.4371 30.7662 29.172Z" fill="#F9F2F9"/>
<path d="M30.7661 29.1719C30.9741 29.4364 30.5958 29.7539 30.3715 29.4983C29.8873 28.9489 28.7078 28.4887 27.4411 28.7507C27.3604 28.5933 27.2854 28.4321 27.2183 28.2659C28.7261 27.9236 30.17 28.4688 30.7661 29.1719Z" fill="white"/>
<path d="M10.5642 32.6505C10.6897 32.7096 10.8442 32.6568 10.9051 32.5269C11.2402 31.8691 12.2653 31.1337 13.5551 31.0699C14.5997 30.9923 15.8431 31.2308 17.2271 31.7809C17.3587 31.8328 17.5072 31.7684 17.5599 31.6375C17.6118 31.5059 17.5475 31.3573 17.4165 31.3047C15.3766 30.5356 13.6695 30.1932 11.9152 30.9659C10.84 31.4794 10.4574 32.276 10.4413 32.3097C10.3813 32.4377 10.4361 32.5898 10.5642 32.6505Z" fill="#F9F2F9"/>
<path d="M10.4412 32.3096C10.306 32.6177 10.7516 32.8305 10.905 32.5269C11.2362 31.8738 12.2631 31.133 13.5551 31.0698C13.5938 30.8972 13.626 30.7224 13.6494 30.5447C12.1039 30.5905 10.8424 31.4797 10.4412 32.3096Z" fill="white"/>
<path d="M9.26736 29.5326C9.37408 29.6212 9.53689 29.6087 9.6283 29.4982C10.1135 28.9468 11.2978 28.4889 12.5587 28.7507C13.5894 28.9369 14.7336 29.479 15.9359 30.3579C16.0503 30.4411 16.2102 30.4159 16.294 30.3023C16.3772 30.1879 16.352 30.0279 16.2384 29.9442C14.4559 28.6892 12.8887 27.9304 10.9969 28.2396C9.82736 28.4678 9.25767 29.1433 9.23361 29.1718C9.14353 29.2808 9.15861 29.4418 9.26736 29.5326Z" fill="#F9F2F9"/>
<path d="M9.23375 29.1719C9.0257 29.4364 9.40398 29.7539 9.62836 29.4983C10.1125 28.9489 11.292 28.4887 12.5588 28.7507C12.6395 28.5933 12.7144 28.4321 12.7816 28.2659C11.2737 27.9236 9.82984 28.4688 9.23375 29.1719Z" fill="white"/>
</svg>
