<svg width="40" height="40" viewBox="0 0 40 40" fill="none" xmlns="http://www.w3.org/2000/svg">
<path d="M20 40C31.0457 40 40 31.0457 40 20C40 8.9543 31.0457 0 20 0C8.9543 0 0 8.9543 0 20C0 31.0457 8.9543 40 20 40Z" fill="#6C53A2"/>
<path d="M28.3219 23.3359L27.8485 23.5087L23.0367 25.2652L22.3247 25.5245C25.2719 26.7135 26.5416 26.6725 27.609 26.3052C30.4139 25.3392 28.3219 23.3359 28.3219 23.3359Z" fill="#DD5E26"/>
<path d="M29.0694 24.9231C29.1285 24.107 28.3229 23.3359 28.3229 23.3359L27.8495 23.5087C28.0775 23.8204 28.348 24.3273 28.165 24.8138C28.0399 25.149 27.7002 25.4742 26.9857 25.7194C26.4285 25.9116 25.8066 25.9985 24.828 25.8013C24.3344 25.7024 23.7504 25.5314 23.0377 25.2652L22.3257 25.5245C23.1402 25.8534 23.8269 26.0879 24.4162 26.2474C25.9594 26.6657 26.8374 26.5713 27.61 26.3052C28.6741 25.9387 29.0337 25.4227 29.0694 24.9231Z" fill="#2E3140"/>
<path d="M29.0688 24.923C28.7813 24.8658 28.4812 24.8284 28.1713 24.814L28.1643 24.8137C28.0392 25.1489 27.6995 25.4741 26.985 25.7193C26.4278 25.9115 25.8059 25.9984 24.8273 25.8011C24.6676 25.9384 24.5301 26.0884 24.4155 26.2473C25.9587 26.6656 26.8367 26.5712 27.6093 26.3051C28.6735 25.9386 29.033 25.4226 29.0688 24.923Z" fill="#3F5D77"/>
<path d="M29.0751 16.9048L28.6103 16.7102L23.8853 14.7321L23.186 14.4399C26.1853 13.3891 27.4517 13.4891 28.5009 13.9055C31.2579 15.0008 29.0751 16.9048 29.0751 16.9048Z" fill="#DD5E26"/>
<path d="M29.8946 15.3546C29.9157 16.1726 29.0751 16.9054 29.0751 16.9054L28.6102 16.7109C28.8524 16.4101 29.1462 15.9164 28.986 15.4218C28.8767 15.0812 28.5524 14.7406 27.8501 14.4625C27.3024 14.2445 26.6853 14.1289 25.6985 14.2804C25.2009 14.3562 24.6095 14.5 23.8853 14.7328L23.186 14.4406C24.0149 14.15 24.7118 13.9476 25.3079 13.8156C26.8688 13.4695 27.7415 13.6046 28.5009 13.9062C29.547 14.3218 29.8821 14.8539 29.8946 15.3546Z" fill="#2E3140"/>
<path d="M29.8943 15.3539C29.6045 15.3977 29.3029 15.4211 28.9928 15.4211H28.9857C28.8764 15.0805 28.5521 14.7399 27.8498 14.4617C27.3021 14.2438 26.685 14.1281 25.6982 14.2797C25.5451 14.1352 25.4146 13.9789 25.3076 13.8148C26.8686 13.4688 27.7412 13.6039 28.5006 13.9055C29.5467 14.3211 29.8818 14.8531 29.8943 15.3539Z" fill="#3F5D77"/>
<path d="M38.0583 20.2241C38.0583 21.2741 37.695 22.2249 37.0974 22.9718C36.0606 24.2655 34.3802 24.814 32.7911 24.4843C32.545 24.4335 32.3013 24.3609 32.0622 24.2671L30.7083 23.7359L29.0747 23.0952L28.4731 23.4116C27.4052 23.9726 26.3067 24.4655 25.1825 24.8882C25.1825 24.8882 25.1825 24.889 25.1817 24.889C25.1817 24.889 25.1817 24.8898 25.181 24.8898C24.1419 25.2812 23.0817 25.6132 22.006 25.8835C20.4013 26.2882 18.7614 26.5562 17.1028 26.6835L14.6833 26.8695C13.5661 26.9554 12.4481 26.707 11.4724 26.1554L9.98408 25.314L6.08096 23.1085C5.21299 22.6179 4.67627 21.6976 4.67627 20.7007V19.2991C4.67627 18.3023 5.21299 17.382 6.08096 16.8913L6.77471 16.4991L9.46689 14.978L11.4724 13.8445C11.5872 13.7796 11.7044 13.7187 11.8231 13.6624H11.8239C12.7122 13.239 13.6981 13.0546 14.6833 13.1304L17.1028 13.3163C19.17 13.4749 21.2083 13.853 23.1856 14.4398C24.0778 14.7038 24.9567 15.0109 25.8208 15.3601C26.7231 15.7241 27.6083 16.1343 28.4731 16.5882L29.0747 16.9046L30.7083 16.464C30.7083 16.4632 30.7083 16.4632 30.7083 16.4632L32.5614 15.9632C32.6716 15.9335 32.7825 15.907 32.8942 15.8859H32.895C32.9333 15.8788 32.9716 15.8718 33.0106 15.8663C33.2302 15.8335 33.4474 15.8179 33.6622 15.8179C35.4106 15.8179 36.9724 16.8655 37.6708 18.4124C37.9192 18.9616 38.0583 19.5734 38.0583 20.2241Z" fill="#DD5E26"/>
<path d="M37.6705 18.4124C37.3064 18.6296 36.9291 18.839 36.54 19.0382C34.5471 20.064 32.233 20.8577 29.7064 21.3538C29.2354 21.4476 28.7564 21.5296 28.2705 21.6007C26.9127 21.8015 25.5025 21.9171 24.0549 21.9398C23.883 21.9421 23.7104 21.9437 23.5369 21.9437C22.0393 21.9437 20.5791 21.8437 19.1736 21.653C18.0807 21.5054 17.0205 21.303 16.0002 21.0515C14.8955 20.7788 13.8385 20.4484 12.8385 20.0655C10.4424 19.1476 8.37598 17.9304 6.77441 16.4991L9.4666 14.978L11.4721 13.8445C11.5869 13.7796 11.7041 13.7187 11.8229 13.6624H11.8236C12.7119 13.239 13.6979 13.0546 14.683 13.1304L17.1025 13.3163C19.1697 13.4749 21.208 13.853 23.1854 14.4398C24.0775 14.7038 24.9564 15.0109 25.8205 15.3601C26.7229 15.7241 27.608 16.1343 28.4729 16.5882L29.0744 16.9046L30.708 16.464C30.708 16.4632 30.708 16.4632 30.708 16.4632L32.5611 15.9632C32.6721 15.9335 32.783 15.907 32.8947 15.8859C32.933 15.8788 32.9713 15.8718 33.0104 15.8663C33.2299 15.8335 33.4471 15.8179 33.6619 15.8179C35.4104 15.8179 36.9721 16.8655 37.6705 18.4124Z" fill="#EA792E"/>
<path d="M16.0816 20.2241C16.0816 23.8139 11.4723 26.1553 11.4723 26.1553L9.98398 25.3139L10.0934 25.1967C14.5426 20.7475 13.073 18.5834 9.4668 14.978L11.4723 13.8444C11.5871 13.7795 11.7043 13.7186 11.823 13.6624H11.8238C11.8238 13.6624 16.0816 16.6342 16.0816 20.2241Z" fill="#F4E6F4"/>
<path d="M16.0816 20.2241C16.0816 20.5077 16.0527 20.7834 16.0004 21.0514C14.8957 20.7788 13.8387 20.4483 12.8387 20.0655C12.6973 18.4038 11.384 16.8944 9.4668 14.978L11.4723 13.8444C11.5871 13.7795 11.7043 13.7186 11.823 13.6624H11.8238C11.8238 13.6624 16.0816 16.6342 16.0816 20.2241Z" fill="white"/>
<path d="M23.9471 20.5756C23.9471 23.2702 25.183 24.8881 25.183 24.8881C25.183 24.8881 25.183 24.8889 25.1822 24.8889C25.1822 24.8889 25.1822 24.8897 25.1814 24.8897C24.1424 25.2811 23.0822 25.6131 22.0064 25.8834C22.0064 22.0295 18.4111 22.8764 18.4111 19.5811C18.4111 16.2858 20.9385 19.3264 23.1861 14.4397C24.0783 14.7038 24.9572 15.0108 25.8213 15.36C25.8213 15.36 23.9471 17.8819 23.9471 20.5756Z" fill="#F4E6F4"/>
<path d="M23.9471 20.5756C23.9471 21.067 23.9885 21.5233 24.0557 21.9397C23.8838 21.942 23.7111 21.9436 23.5377 21.9436C22.04 21.9436 20.5799 21.8436 19.1744 21.653C18.7283 21.1733 18.4111 20.56 18.4111 19.5811C18.4111 16.2858 20.9385 19.3264 23.1861 14.4397C24.0783 14.7038 24.9572 15.0108 25.8213 15.36C25.8213 15.36 23.9471 17.8819 23.9471 20.5756Z" fill="white"/>
<path d="M29.5709 20.1615C29.5709 22.0896 30.7084 23.7357 30.7084 23.7357L29.0748 23.0951C29.0748 23.0951 28.0576 22.317 28.0576 19.81C28.0576 17.3029 29.0748 16.9045 29.0748 16.9045L30.7084 16.4639C30.6779 16.5107 29.5709 18.2592 29.5709 20.1615Z" fill="#F4E6F4"/>
<path d="M29.5709 20.1615C29.5709 20.5764 29.6232 20.9779 29.7068 21.3537C29.2357 21.4475 28.7568 21.5295 28.2709 21.6006C28.1459 21.1381 28.0576 20.549 28.0576 19.81C28.0576 17.3029 29.0748 16.9045 29.0748 16.9045L30.7084 16.4639C30.6779 16.5107 29.5709 18.2592 29.5709 20.1615Z" fill="white"/>
<path d="M38.0582 20.2241C38.0582 21.2741 37.6949 22.2249 37.0973 22.9718C36.0605 24.2655 34.3801 24.814 32.791 24.4843C35.2449 23.3866 36.7684 21.8554 36.7684 20.1616C36.7684 18.4921 35.2879 16.9796 32.8949 15.8858C32.9332 15.8788 32.9715 15.8718 33.0105 15.8663C33.2301 15.8335 33.4473 15.8179 33.6621 15.8179C35.4105 15.8179 36.9723 16.8655 37.6707 18.4124C37.9191 18.9616 38.0582 19.5733 38.0582 20.2241Z" fill="#2E3140"/>
<path d="M37.6708 18.4124C37.3067 18.6296 36.9294 18.839 36.5403 19.0382C36.0395 17.8187 34.738 16.728 32.895 15.8858C32.9333 15.8788 32.9716 15.8718 33.0106 15.8663C33.2302 15.8335 33.4474 15.8179 33.6622 15.8179C35.4106 15.8179 36.9724 16.8655 37.6708 18.4124Z" fill="#3F5D77"/>
<path d="M8.77721 22.6047C7.65627 22.6047 7.03104 22.1616 6.4794 21.7707C5.96494 21.4062 5.52072 21.0913 4.67627 21.0913C4.46057 21.0913 4.28564 20.9165 4.28564 20.7007C4.28564 20.4849 4.46057 20.3101 4.67627 20.3101C5.7694 20.3101 6.38658 20.7475 6.93112 21.1333C7.45362 21.5036 7.90495 21.8234 8.77713 21.8234C9.14956 21.8234 9.89823 21.4937 10.2827 21.2858C10.4725 21.1832 10.7095 21.2537 10.8121 21.4435C10.9147 21.6332 10.8443 21.8701 10.6546 21.9728C10.5353 22.0375 9.46823 22.6047 8.77721 22.6047Z" fill="#EA792E"/>
<path d="M16.0365 14.5179L20.3816 15.254C20.78 15.3215 20.9243 15.8193 20.6237 16.0893C20.1422 16.522 19.4897 16.7113 18.8514 16.6035L17.0412 16.2977C16.4321 16.1948 15.898 15.8317 15.5784 15.3031L15.5426 15.244C15.3287 14.8903 15.629 14.4489 16.0365 14.5179Z" fill="#F39E22"/>
<path d="M9.9958 19.4173C9.9815 19.4574 9.96423 19.4976 9.94564 19.5377C9.86962 19.7026 9.76353 19.856 9.62876 19.9908C9.0079 20.6117 8.00001 20.6117 7.37915 19.9908C6.75829 19.3699 6.75978 18.3634 7.37915 17.7426C7.40642 17.7168 7.4322 17.691 7.46087 17.6681C7.61001 17.5376 7.77775 17.4401 7.95407 17.3742C8.51759 17.1677 9.17564 17.2895 9.62876 17.7426C10.0804 18.1942 10.2037 18.8524 9.9958 19.4173Z" fill="#EA792E"/>
<path d="M9.99587 19.4164C9.98157 19.4565 9.9643 19.4967 9.94571 19.5368C9.80805 19.5654 9.6661 19.5812 9.51985 19.5812C8.43016 19.5812 7.53688 18.7382 7.46094 17.6671C7.61008 17.5366 7.77781 17.4391 7.95414 17.3732C8.51766 17.1667 9.17571 17.2886 9.62883 17.7416C10.0805 18.1933 10.2038 18.8515 9.99587 19.4164Z" fill="#F39E22"/>
<path d="M9.50848 18.8658C9.50848 19.2985 9.23402 19.6681 8.85012 19.8098C8.74168 19.8485 8.62551 19.8706 8.50379 19.8706C7.94832 19.8706 7.49902 19.4202 7.49902 18.8658C7.49902 18.3104 7.94832 17.8611 8.50379 17.8611C8.62551 17.8611 8.74168 17.8832 8.85012 17.9219C9.23402 18.0637 9.50848 18.4321 9.50848 18.8658Z" fill="#3F5D77"/>
<path d="M8.85025 19.8099C9.21386 19.8099 9.50861 19.3873 9.50861 18.866C9.50861 18.3447 9.21386 17.9221 8.85025 17.9221C8.48665 17.9221 8.19189 18.3447 8.19189 18.866C8.19189 19.3873 8.48665 19.8099 8.85025 19.8099Z" fill="#2E3140"/>
<path d="M8.50402 19.124C8.77753 19.124 8.99926 18.9023 8.99926 18.6288C8.99926 18.3553 8.77753 18.1335 8.50402 18.1335C8.23051 18.1335 8.00879 18.3553 8.00879 18.6288C8.00879 18.9023 8.23051 19.124 8.50402 19.124Z" fill="#83D5EF"/>
<path d="M19.132 24.9194C19.1117 25.0936 19.0578 25.2592 18.9742 25.4092C18.8914 25.5584 18.7789 25.692 18.6414 25.7998L16.3593 27.5944C16.1468 27.7623 15.8687 27.8225 15.6054 27.7576L15.1156 27.6381L13.7148 27.2951C13.539 27.2522 13.3812 27.1561 13.2617 27.0194L10.8679 24.2842C10.6601 24.0467 10.5953 23.717 10.6976 23.4186C10.7476 23.2717 10.8343 23.1436 10.9468 23.0444C11.0593 22.9451 11.1976 22.874 11.3492 22.842L14.5078 22.1772L15.2835 22.0139C15.4992 21.9686 15.7242 22.0061 15.914 22.1178L18.4984 23.6475C18.9421 23.91 19.1898 24.4076 19.132 24.9194Z" fill="#EA792E"/>
<path d="M11.4943 23.7239C11.3623 23.7239 11.2461 23.628 11.2247 23.4935C11.2008 23.3444 11.3025 23.2042 11.4515 23.1804L14.4647 22.6994C14.6136 22.675 14.754 22.7771 14.7778 22.9263C14.8016 23.0754 14.7 23.2156 14.5509 23.2394L11.5378 23.7204C11.5232 23.7228 11.5086 23.7239 11.4943 23.7239Z" fill="#F39E22"/>
<path d="M12.2251 24.5131C12.076 24.5131 11.954 24.3935 11.9517 24.2439C11.9494 24.0929 12.0698 23.9686 12.2208 23.9662L16.3948 23.9009C16.547 23.9015 16.6701 24.0191 16.6725 24.17C16.6748 24.321 16.5544 24.4453 16.4033 24.4478L12.2294 24.5131C12.2279 24.5131 12.2265 24.5131 12.2251 24.5131Z" fill="#F39E22"/>
<path d="M15.8886 25.8623C15.8765 25.8623 15.8642 25.8615 15.8519 25.8598L12.6775 25.4334C12.5278 25.4134 12.4228 25.2757 12.4429 25.126C12.463 24.9763 12.6008 24.8712 12.7503 24.8914L15.9247 25.3178C16.0744 25.3379 16.1794 25.4755 16.1593 25.6252C16.1409 25.7626 16.0234 25.8623 15.8886 25.8623Z" fill="#F39E22"/>
<path d="M15.0245 26.9102C15.0042 26.9102 14.9836 26.9079 14.9629 26.9031L13.3127 26.5234C13.1655 26.4895 13.0737 26.3428 13.1076 26.1956C13.1415 26.0485 13.2882 25.9566 13.4354 25.9904L15.0857 26.3702C15.2329 26.4041 15.3247 26.5508 15.2908 26.698C15.2616 26.8245 15.1491 26.9102 15.0245 26.9102Z" fill="#F39E22"/>
<path d="M19.1315 24.9194C19.1112 25.0936 19.0573 25.2592 18.9737 25.4092C18.9651 25.424 18.9565 25.4389 18.9472 25.4537C18.8683 25.585 18.7643 25.7029 18.6409 25.7998L16.3589 27.5944C16.1464 27.7623 15.8683 27.8225 15.605 27.7576L15.1151 27.6381L17.3206 25.9022C17.5276 25.7404 17.6784 25.5209 17.7573 25.2748C17.7831 25.1936 17.8018 25.1092 17.8112 25.0225C17.8167 24.9725 17.8198 24.9233 17.8198 24.874C17.8198 24.4162 17.5784 23.9873 17.1784 23.7506L14.5933 22.2209C14.5651 22.2045 14.537 22.1897 14.5073 22.1772L15.2831 22.0139C15.4987 21.9686 15.7237 22.0061 15.9136 22.1178L18.4979 23.6475C18.9417 23.91 19.1893 24.4076 19.1315 24.9194Z" fill="#2E3140"/>
<path d="M19.1315 24.9194C19.1112 25.0936 19.0573 25.2592 18.9737 25.4092C18.9651 25.424 18.9565 25.4389 18.9472 25.4537C18.5378 25.4201 18.1409 25.3592 17.7573 25.2748C17.7831 25.1936 17.8018 25.1092 17.8112 25.0225C17.8167 24.9725 17.8198 24.9233 17.8198 24.874C17.8198 24.4162 17.5784 23.9873 17.1784 23.7506L14.5933 22.2209C14.5651 22.2045 14.537 22.1897 14.5073 22.1772L15.2831 22.0139C15.4987 21.9686 15.7237 22.0061 15.9136 22.1178L18.4979 23.6475C18.9417 23.91 19.1893 24.4076 19.1315 24.9194Z" fill="#3F5D77"/>
<path d="M23.1859 14.4398L22.3289 14.3078L15.1758 13.2062L14.6836 13.1304C15.95 10.8242 16.6125 10.2125 18.7273 10.6968C20.8422 11.1812 23.1859 14.4398 23.1859 14.4398Z" fill="#EA792E"/>
<path d="M23.1859 14.4405L22.3289 14.3085C22.0203 13.9561 21.6445 13.5546 21.2289 13.171C20.4703 12.4686 19.5805 11.8217 18.7273 11.6264C17.8828 11.4335 17.2695 11.4147 16.757 11.61C16.1625 11.8358 15.7039 12.3483 15.1758 13.2069L14.6836 13.1311C15.2344 12.1272 15.6719 11.4444 16.1633 11.0342C16.8016 10.4999 17.5328 10.4241 18.7273 10.6975C19.9773 10.9835 21.307 12.2389 22.1859 13.2178C22.7937 13.8952 23.1859 14.4405 23.1859 14.4405Z" fill="#2E3140"/>
<path d="M22.1857 13.2171C21.86 13.2148 21.5404 13.1983 21.2287 13.1702C20.4701 12.4679 19.5803 11.821 18.7271 11.6257C17.8826 11.4327 17.2693 11.414 16.7568 11.6093C16.5287 11.4288 16.3303 11.2358 16.1631 11.0335C16.8014 10.4991 17.5326 10.4234 18.7271 10.6968C19.9771 10.9827 21.3068 12.2382 22.1857 13.2171Z" fill="#3F5D77"/>
<path d="M16.5628 13.5485C16.5184 13.5485 16.4734 13.5376 16.4316 13.5147C16.2992 13.4422 16.2507 13.276 16.3232 13.1436L16.9546 11.991C17.0272 11.8586 17.1934 11.81 17.3258 11.8826C17.4582 11.9551 17.5067 12.1213 17.4342 12.2537L16.8028 13.4063C16.7531 13.4971 16.6594 13.5485 16.5628 13.5485Z" fill="#F39E22"/>
<path d="M17.9412 13.9057C17.8967 13.9057 17.8516 13.8947 17.8099 13.8718C17.6775 13.7991 17.6291 13.6329 17.7017 13.5006L18.5032 12.0404C18.576 11.9079 18.7423 11.8597 18.8745 11.9322C19.0068 12.0049 19.0553 12.1711 18.9826 12.3034L18.1811 13.7636C18.1314 13.8544 18.0377 13.9057 17.9412 13.9057Z" fill="#F39E22"/>
<path d="M19.3373 14.2109C19.2971 14.2109 19.2563 14.202 19.2177 14.1832C19.082 14.117 19.0255 13.9534 19.0917 13.8176L19.5961 12.7823C19.6624 12.6466 19.8261 12.5903 19.9617 12.6563C20.0974 12.7224 20.1539 12.886 20.0878 13.0219L19.5833 14.0572C19.536 14.1544 19.4386 14.2109 19.3373 14.2109Z" fill="#F39E22"/>
<path d="M20.5443 14.5173C20.5057 14.5173 20.4665 14.5091 20.4292 14.4918C20.2923 14.4281 20.2329 14.2655 20.2966 14.1286L20.5668 13.5474C20.6305 13.4105 20.793 13.351 20.93 13.4148C21.0669 13.4784 21.1263 13.641 21.0626 13.778L20.7924 14.3591C20.7461 14.4587 20.6474 14.5173 20.5443 14.5173Z" fill="#F39E22"/>
</svg>
