<svg width="40" height="40" viewBox="0 0 40 40" fill="none" xmlns="http://www.w3.org/2000/svg">
<path d="M20 40C31.0457 40 40 31.0457 40 20C40 8.9543 31.0457 0 20 0C8.9543 0 0 8.9543 0 20C0 31.0457 8.9543 40 20 40Z" fill="#6C53A2"/>
<path d="M36.961 12.0232L30.309 5.37112C29.597 4.65917 28.4427 4.65917 27.7308 5.37112L24.3091 8.79276C23.7108 8.55909 23.0767 8.40019 22.4166 8.32979C22.1565 8.30167 21.8916 8.28761 21.6244 8.28761H18.3744C17.4287 8.28761 16.524 8.46683 15.6897 8.79276L12.2681 5.37112C11.5562 4.65917 10.4019 4.65917 9.6899 5.37112L3.03787 12.0232C2.32592 12.7351 2.32592 13.8894 3.03787 14.6014C3.74982 15.3133 4.90412 15.3133 5.61607 14.6014L6.22217 13.9953C6.93412 13.2833 8.08842 13.2833 8.80037 13.9953L10.695 15.8899C10.0098 18.9957 8.78701 24.2071 8.78701 24.2071C8.16123 27.6258 10.7862 30.775 14.2612 30.775H25.7378C29.2128 30.775 31.8378 27.6258 31.212 24.2071C31.212 24.2071 29.9892 18.9957 29.304 15.8899L31.1987 13.9953C31.9106 13.2833 33.0649 13.2833 33.7769 13.9953L34.3829 14.6014C35.0949 15.3133 36.2492 15.3133 36.9612 14.6014C37.6729 13.8894 37.673 12.7351 36.961 12.0232Z" fill="#F39E22"/>
<path d="M18.3744 8.28761C18.1072 8.28761 17.8424 8.30167 17.5822 8.3298C16.9223 8.3994 16.2862 8.55651 15.685 8.788L12.2681 5.37112C11.5562 4.65917 10.4019 4.65917 9.6899 5.37112L3.03787 12.0232C2.32592 12.7351 2.32592 13.8894 3.03787 14.6014C3.74982 15.3133 4.90412 15.3133 5.61607 14.6014L6.22217 13.9953C6.93412 13.2833 8.08842 13.2833 8.80037 13.9953L10.6801 15.875L8.78693 24.2071C8.16115 27.6259 10.7862 30.7751 14.2612 30.7751H19.9994V8.28761H18.3744Z" fill="#DD8C29"/>
<path d="M24.082 12.2058H23.2759C22.6047 12.2058 22.0605 12.75 22.0605 13.4211V14.5018C22.0605 15.173 22.6047 15.7171 23.2759 15.7171H24.082C24.7532 15.7171 25.2973 15.173 25.2973 14.5018V13.4211C25.2973 12.75 24.7532 12.2058 24.082 12.2058Z" fill="#DD8C29"/>
<path d="M16.7222 12.2058H15.916C15.2448 12.2058 14.7007 12.75 14.7007 13.4211V14.5018C14.7007 15.173 15.2448 15.7171 15.916 15.7171H16.7222C17.3933 15.7171 17.9375 15.173 17.9375 14.5018V13.4211C17.9375 12.75 17.3933 12.2058 16.7222 12.2058Z" fill="#B26E2B"/>
<path d="M22.4172 8.32979V10.6853C22.4172 11.3532 21.8758 11.8938 21.2086 11.8938C20.875 11.8938 20.5727 11.7587 20.3539 11.5399C20.1352 11.3212 20 11.0188 20 10.6853V8.2876H21.625C21.8922 8.2876 22.157 8.30166 22.4172 8.32979Z" fill="#F9C744"/>
<path d="M19.9992 8.2876V10.6853C19.9992 11.3532 19.4578 11.8938 18.7906 11.8938C18.457 11.8938 18.1547 11.7587 17.9359 11.5399C17.7172 11.3212 17.582 11.0188 17.582 10.6853V8.32979C17.8422 8.30166 18.107 8.2876 18.3742 8.2876H19.9992Z" fill="#F39E22"/>
<path d="M28.5364 26.1294L27.2929 26.2852C26.6076 26.3711 25.9825 25.8851 25.8967 25.1998L25.5425 22.3723C25.4567 21.687 25.9426 21.0619 26.6279 20.9761L27.4442 20.8738C28.0579 20.7969 28.6356 21.1802 28.8032 21.7755L29.5846 24.5495C29.7921 25.286 29.2955 26.0343 28.5364 26.1294Z" fill="#F9C744"/>
<path d="M11.4627 26.1294L12.7063 26.2852C13.3916 26.3711 14.0167 25.8851 14.1025 25.1998L14.4567 22.3723C14.5425 21.687 14.0566 21.0619 13.3713 20.9761L12.555 20.8738C11.9413 20.7969 11.3636 21.1802 11.1959 21.7755L10.4145 24.5495C10.2071 25.286 10.7037 26.0343 11.4627 26.1294Z" fill="#F39E22"/>
<path d="M27.6822 17.8445C27.5879 16.767 26.287 16.0007 25.2096 16.095C24.1322 16.1893 23.3352 17.1391 23.4294 18.2166C23.5237 19.294 24.4135 19.4042 25.4909 19.3099C26.5684 19.2157 27.7765 18.9219 27.6822 17.8445Z" fill="#BF5E39"/>
<path d="M26.4209 17.3443L26.4753 17.9662C26.5 18.2487 26.408 18.514 26.2396 18.7145C26.1502 18.8212 26.0395 18.9093 25.9124 18.9722C25.8004 19.0283 25.6758 19.065 25.5435 19.0766C24.9793 19.126 24.4816 18.7092 24.4324 18.1449L24.378 17.523C24.3287 16.9596 24.7463 16.4619 25.3105 16.4126C25.4428 16.401 25.5719 16.4156 25.6919 16.4513C26.084 16.5676 26.3832 16.9131 26.4209 17.3443Z" fill="#334353"/>
<path d="M26.4215 17.3441L26.4759 17.966C26.5005 18.2485 26.4085 18.5138 26.2402 18.7144C26.1507 18.821 26.04 18.9091 25.9129 18.972C25.5208 18.8558 25.2216 18.511 25.1838 18.0791L25.1295 17.4572C25.0917 17.026 25.3264 16.6337 25.6923 16.4512C26.0845 16.5674 26.3837 16.913 26.4215 17.3441Z" fill="#2E3140"/>
<path d="M26.8357 17.3545C26.8101 17.062 26.5523 16.8456 26.2598 16.8712C25.5599 16.9597 25.6481 17.9648 26.3524 17.9304C26.6449 17.9049 26.8613 17.647 26.8357 17.3545Z" fill="white"/>
<path d="M12.3162 17.8445C12.4105 16.767 13.7114 16.0007 14.7888 16.095C15.8662 16.1893 16.6633 17.1391 16.569 18.2166C16.4747 19.294 15.5849 19.4042 14.5075 19.3099C13.4301 19.2157 12.2219 18.9219 12.3162 17.8445Z" fill="#BF5E39"/>
<path d="M13.5774 17.3443L13.523 17.9662C13.4983 18.2487 13.5904 18.514 13.7587 18.7145C13.8482 18.8212 13.9589 18.9093 14.086 18.9722C14.1979 19.0283 14.3225 19.065 14.4548 19.0766C15.019 19.126 15.5167 18.7092 15.566 18.1449L15.6204 17.523C15.6696 16.9596 15.2521 16.4619 14.6879 16.4126C14.5555 16.401 14.4264 16.4156 14.3064 16.4513C13.9143 16.5676 13.6151 16.9131 13.5774 17.3443Z" fill="#334353"/>
<path d="M15.6208 17.5229L15.5664 18.1447C15.5418 18.4272 15.405 18.6725 15.2044 18.8408C15.0978 18.9303 14.9735 18.9979 14.8374 19.0377C14.4714 18.8551 14.2367 18.4636 14.2745 18.0317L14.3289 17.4098C14.3666 16.9786 14.6658 16.6331 15.0579 16.5168C15.4239 16.6994 15.6585 17.0917 15.6208 17.5229Z" fill="#2E3140"/>
<path d="M16.0271 17.6049C16.0527 17.3124 15.8363 17.0546 15.5438 17.0289C14.8393 16.9946 14.7515 17.9997 15.4511 18.0882C15.7436 18.1137 16.0015 17.8974 16.0271 17.6049Z" fill="white"/>
<path d="M24.3963 31.4103C23.6744 32.5775 22.3822 33.3689 20.8854 33.3689H19.1135C16.6229 33.3689 14.7002 31.1791 15.0221 28.7095L16.5604 19.2541C16.6736 18.3853 17.4143 17.7361 18.29 17.7361H21.7088C22.5846 17.7361 23.3252 18.3853 23.4385 19.2541L24.9768 28.7095C25.1049 29.6947 24.876 30.6353 24.3963 31.4103Z" fill="#F39E22"/>
<path d="M24.3967 31.4103H19.5077C17.9288 31.4103 16.71 30.022 16.9139 28.4564L18.6171 17.7361H21.7092C22.585 17.7361 23.3256 18.3853 23.4389 19.2541L24.9772 28.7095C25.1053 29.6947 24.8764 30.6353 24.3967 31.4103Z" fill="#F9C744"/>
<path d="M21.1829 24.8206H18.8156C17.7502 24.8206 16.9527 25.798 17.1667 26.8417L17.4406 28.1777C17.6012 28.9607 18.2902 29.5228 19.0895 29.5228H20.9091C21.7084 29.5228 22.3974 28.9607 22.5579 28.1777L22.8318 26.8417C23.0457 25.798 22.2484 24.8206 21.1829 24.8206Z" fill="#2E3140"/>
<path d="M21.2488 25.2947H18.7492C18.0382 25.2947 17.4619 25.871 17.4619 26.5819V26.7343C17.4619 27.4452 18.0382 28.0216 18.7492 28.0216H21.2488C21.9597 28.0216 22.5361 27.4452 22.5361 26.7343V26.5819C22.5361 25.871 21.9597 25.2947 21.2488 25.2947Z" fill="#334353"/>
<path d="M21.6443 25.917H18.3551C18.0713 25.917 17.8413 26.147 17.8413 26.4307C17.8413 26.7145 18.0713 26.9445 18.3551 26.9445H21.6443C21.928 26.9445 22.158 26.7145 22.158 26.4307C22.1579 26.147 21.9279 25.917 21.6443 25.917Z" fill="#3F5D77"/>
<path d="M20.9578 25.917H20.0963C19.8125 25.917 19.5825 26.147 19.5825 26.4307C19.5825 26.7145 19.8125 26.9445 20.0963 26.9445H20.9578C21.2416 26.9445 21.4716 26.7145 21.4716 26.4307C21.4716 26.147 21.2416 25.917 20.9578 25.917Z" fill="white"/>
<path d="M21.9215 22.9176H20.9594C20.4293 22.9176 19.9995 22.4878 19.9995 21.9576V19.7702C19.9995 19.2401 20.4293 18.8103 20.9594 18.8103H21.5909C22.0657 18.8103 22.4691 19.1573 22.5401 19.6268L22.8706 21.8142C22.9583 22.3949 22.5087 22.9176 21.9215 22.9176Z" fill="#FAD98F"/>
<path d="M21.4896 38.7236H18.5099C17.2951 38.7236 16.3912 37.6002 16.6513 36.4127L17.2459 33.7041L17.7068 31.6025L19.9998 30.9775L22.2927 31.6025L22.7544 33.7049L23.3482 36.4127C23.6084 37.6002 22.7044 38.7236 21.4896 38.7236Z" fill="#ED72AB"/>
<path d="M22.7542 33.7049L22.2925 31.6025L19.9995 30.9775L17.7065 31.6025L17.2456 33.7041C17.8477 33.0525 18.6779 32.6161 19.6089 32.5198V37.8855C19.6089 38.1012 19.7838 38.2761 19.9995 38.2761C20.2152 38.2761 20.3901 38.1012 20.3901 37.8855V32.5199C21.3211 32.6163 22.1514 33.0533 22.7542 33.7049Z" fill="#E063A2"/>
<path d="M20.3901 34.4751V36.9765C20.3901 37.4502 20.7741 37.8342 21.2479 37.8342H21.7968C22.3446 37.8342 22.752 37.3277 22.6346 36.7927L22.0857 34.2913C22.0207 33.9949 21.8038 33.7549 21.5155 33.6602C20.9608 33.478 20.3901 33.8913 20.3901 34.4751Z" fill="#F0A6B3"/>
<path d="M19.609 34.4751V36.9765C19.609 37.4502 19.225 37.8342 18.7512 37.8342H18.2023C17.6545 37.8342 17.2471 37.3277 17.3645 36.7927L17.9134 34.2913C17.9784 33.9949 18.1952 33.7549 18.4836 33.6602C19.0383 33.478 19.609 33.8913 19.609 34.4751Z" fill="#F0A6B3"/>
<path d="M21.7776 37.3836C21.4565 37.4366 21.1532 37.2194 21.1001 36.8982L20.8351 35.2946C20.7821 34.9735 20.9993 34.6701 21.3205 34.6171C21.6416 34.5641 21.945 34.7813 21.998 35.1025L22.263 36.7061C22.316 37.0272 22.0988 37.3305 21.7776 37.3836Z" fill="white"/>
<path d="M22.5367 32.0625C22.1631 32.0625 21.6886 31.9011 21.1863 31.7302C20.7593 31.585 20.2773 31.421 20.0097 31.4273C19.7989 31.4326 19.4075 31.5855 19.0623 31.7204C18.6119 31.8963 18.1865 32.0625 17.8413 32.0625C17.2291 32.0625 15.4682 31.2869 15.1215 31.1315C14.9246 31.0432 14.8367 30.8121 14.9249 30.6152C15.0132 30.4183 15.2443 30.3303 15.4411 30.4186C16.3872 30.8426 17.5436 31.2812 17.8414 31.2812C18.0394 31.2812 18.4318 31.128 18.7781 30.9927C19.2224 30.8191 19.642 30.6552 19.9896 30.6462C20.3949 30.6351 20.9014 30.8081 21.4379 30.9906C21.8384 31.1269 22.2925 31.2812 22.5368 31.2812C22.7642 31.2776 23.7543 30.8376 24.5364 30.4289C24.7276 30.329 24.9636 30.4029 25.0635 30.5941C25.1634 30.7853 25.0895 31.0213 24.8982 31.1212C24.4757 31.342 23.0571 32.0625 22.5367 32.0625Z" fill="#B26E2B"/>
<path d="M34.3029 13.1779L29.5988 8.47394C29.0725 7.94761 29.0725 7.09417 29.5988 6.56784C30.1252 6.04151 30.9786 6.04151 31.5049 6.56784L36.2089 11.2718C36.7353 11.7982 36.7353 12.6516 36.2089 13.1779C35.6827 13.7042 34.8293 13.7042 34.3029 13.1779Z" fill="#F9C744"/>
<path d="M30.9641 11.1834L28.6734 8.89265C28.2869 8.50616 27.6602 8.50616 27.2737 8.89265L26.0379 10.1284C25.6514 10.5149 25.6514 11.1416 26.0379 11.5281L28.3286 13.8188C28.7151 14.2053 29.3418 14.2053 29.7283 13.8188L30.9641 12.583C31.3506 12.1966 31.3506 11.5698 30.9641 11.1834Z" fill="#DD8C29"/>
<path d="M5.69488 13.1779L10.3989 8.47394C10.9252 7.94761 10.9252 7.09417 10.3989 6.56784C9.87254 6.04151 9.0191 6.04151 8.49277 6.56784L3.78879 11.2718C3.26246 11.7982 3.26246 12.6516 3.78879 13.1779C4.31512 13.7042 5.16848 13.7042 5.69488 13.1779Z" fill="#F39E22"/>
<path d="M9.03352 11.1834L11.3242 8.89265C11.7107 8.50616 12.3374 8.50616 12.7239 8.89265L13.9597 10.1284C14.3462 10.5149 14.3462 11.1416 13.9597 11.5281L11.669 13.8188C11.2825 14.2053 10.6558 14.2053 10.2693 13.8188L9.03352 12.583C8.64703 12.1966 8.64703 11.5698 9.03352 11.1834Z" fill="#B26E2B"/>
<path d="M23.0723 29.6849C22.9216 29.6849 22.7993 29.563 22.7988 29.4123C22.7984 29.2613 22.9204 29.1385 23.0714 29.138L25.7056 29.1299H25.7064C25.857 29.1299 25.9794 29.2518 25.9798 29.4025C25.9803 29.5535 25.8583 29.6763 25.7073 29.6768L23.0731 29.6849C23.0728 29.6849 23.0725 29.6849 23.0723 29.6849Z" fill="#FAD98F"/>
<path d="M17.0843 29.6849C17.235 29.6849 17.3573 29.563 17.3578 29.4123C17.3582 29.2613 17.2362 29.1385 17.0852 29.138L14.4511 29.1299C14.4508 29.1299 14.4505 29.1299 14.4502 29.1299C14.2996 29.1299 14.1772 29.2518 14.1768 29.4025C14.1763 29.5535 14.2983 29.6763 14.4493 29.6768L17.0835 29.6849H17.0843Z" fill="#F9C744"/>
<path d="M24.2331 28.2459C24.0847 28.2721 23.9431 28.1732 23.9164 28.025C23.8898 27.8763 23.9886 27.7342 24.1373 27.7075L26.73 27.2421C26.7303 27.2421 26.7306 27.2421 26.7309 27.242C26.8792 27.2158 27.0209 27.3147 27.0475 27.4629C27.0742 27.6116 26.9753 27.7537 26.8267 27.7804L24.2339 28.2457C24.2336 28.2458 24.2333 28.2458 24.2331 28.2459Z" fill="#FAD98F"/>
<path d="M15.9223 28.2459C16.0707 28.2721 16.2123 28.1732 16.2389 28.025C16.2656 27.8763 16.1668 27.7342 16.0181 27.7075L13.4254 27.2421C13.4251 27.2421 13.4248 27.2421 13.4245 27.242C13.2761 27.2158 13.1345 27.3147 13.1079 27.4629C13.0812 27.6116 13.18 27.7537 13.3287 27.7804L15.9214 28.2457C15.9218 28.2458 15.9221 28.2458 15.9223 28.2459Z" fill="#F9C744"/>
</svg>
