<svg width="40" height="40" viewBox="0 0 40 40" fill="none" xmlns="http://www.w3.org/2000/svg">
<path d="M20 40C31.0457 40 40 31.0457 40 20C40 8.9543 31.0457 0 20 0C8.9543 0 0 8.9543 0 20C0 31.0457 8.9543 40 20 40Z" fill="#EA792E"/>
<path d="M18.3394 30.4469C18.3316 31.933 20.6861 32.0332 20.6831 34.2399C20.689 36.4391 18.3291 36.5513 18.3394 38.032C18.3163 38.8008 17.1956 38.8136 17.1675 38.032C17.1671 35.8211 19.5171 35.7305 19.5112 34.2399C19.5233 32.7602 17.1609 32.645 17.1675 30.4469C17.1686 28.2366 19.5304 28.1273 19.5112 26.6539C19.5216 25.1709 17.1673 25.0714 17.1675 22.8617C17.1924 21.3787 18.166 20.8836 18.9511 20.1766C19.3128 19.8484 19.5112 19.5531 19.5112 19.0695C19.5373 18.299 20.6525 18.2881 20.6831 19.0695C20.6891 20.1865 20.0355 20.8384 19.2941 21.4211C18.6839 21.9141 18.3394 22.2242 18.3394 22.8617C18.3394 23.4992 18.6847 23.8094 19.2941 24.3024C19.9242 24.7996 20.7265 25.4929 20.6816 26.7242C20.6534 27.9063 19.9011 28.5149 19.2941 29.0063C18.7412 29.4475 18.3226 29.8178 18.3394 30.4469Z" fill="#DD5273"/>
<path d="M21.7971 23.0961C21.7886 24.5818 24.1462 24.6877 24.1408 26.8891C24.1708 27.9632 23.4465 28.7168 22.751 29.2414C22.3315 29.5813 22.0369 29.8344 21.8948 30.1672C21.8307 30.3172 21.7971 30.4836 21.7971 30.682C21.7971 31.0055 21.5346 31.268 21.2112 31.268C20.8869 31.268 20.6252 31.0055 20.6252 30.682C20.599 29.6148 21.2958 28.875 22.0143 28.3297C22.6082 27.8388 22.9595 27.5648 22.969 26.8891C22.969 26.2516 22.6237 25.9414 22.0143 25.4484C21.3955 24.9477 20.6252 24.3242 20.6252 23.0961C20.6252 22.2016 21.0346 21.6273 21.4963 21.1883C22.1104 20.607 23.0227 20.1305 22.969 19.3039V14.9102C22.969 14.5867 23.2307 14.3242 23.5549 14.3242C23.8783 14.3242 24.1408 14.5867 24.1408 14.9102V19.3039C24.1299 20.6092 23.3172 21.1892 22.6369 21.7484C22.0987 22.1898 21.7971 22.5 21.7971 23.0961Z" fill="#DD5273"/>
<path d="M14.8804 23.0961C14.8684 24.5805 17.2215 24.6732 17.2241 26.8891C17.24 27.9822 16.571 28.6714 15.8351 29.2414C15.2257 29.7344 14.8804 30.0445 14.8804 30.682C14.8804 31.0055 14.6187 31.268 14.2944 31.268C13.971 31.268 13.7085 31.0055 13.7085 30.682C13.7085 29.4539 14.4788 28.8313 15.0983 28.3297C15.5893 27.9305 16.0684 27.5595 16.0522 26.8891C16.0637 25.3645 13.554 25.285 13.7164 22.8922C13.85 20.8866 16.0679 20.7334 16.0523 19.3039V14.293C16.0523 13.9688 16.3148 13.707 16.6383 13.707C16.9625 13.707 17.2242 13.9688 17.2242 14.293V19.3039C17.2272 21.5063 14.8679 21.6178 14.8804 23.0961Z" fill="#DD5273"/>
<path d="M17.1996 19.6718C16.9666 21.518 14.8633 21.7107 14.8809 23.096C14.8809 23.5546 15.059 23.8437 15.3863 24.1531C14.748 23.7343 14.1863 23.3085 13.7168 22.8921C13.8504 20.9432 15.9244 20.7512 16.0473 19.4382C16.4145 19.4976 16.7996 19.5757 17.1996 19.6718Z" fill="#C0405C"/>
<path d="M20.6831 26.6539C20.6831 26.6773 20.6831 26.7007 20.6816 26.7242C20.28 26.5851 19.8714 26.432 19.4581 26.2632C19.3401 25.8664 19.0276 25.5945 18.5565 25.2132C17.9378 24.7125 17.1675 24.0898 17.1675 22.8617C17.1923 21.378 18.1661 20.8839 18.9511 20.1765C19.3433 20.3078 19.7433 20.4531 20.148 20.6125C19.5612 21.4021 18.2898 21.8602 18.3394 22.8617C18.3312 24.346 20.6879 24.4518 20.6831 26.6539Z" fill="#C0405C"/>
<path d="M24.1416 26.889C24.1416 27.1429 24.1088 27.3718 24.0502 27.5781C23.6814 27.525 23.2932 27.4523 22.8893 27.3609C23.1576 26.5323 22.775 26.0296 22.015 25.4484C21.3963 24.9476 20.626 24.3242 20.626 23.096C20.626 22.2015 21.0354 21.6273 21.4971 21.1882C21.89 21.3695 22.2713 21.5562 22.6377 21.7484C22.0994 22.1898 21.7979 22.5 21.7979 23.096C21.7979 23.7335 22.1424 24.0437 22.7518 24.5375C23.3713 25.0382 24.1416 25.6609 24.1416 26.889Z" fill="#C0405C"/>
<path d="M15.5366 27.9563C15.9476 28.0633 16.364 28.179 16.7858 28.304C16.5132 28.693 16.1538 28.9836 15.8351 29.2415C15.2257 29.7344 14.8804 30.0446 14.8804 30.6821C14.8804 31.0055 14.6187 31.268 14.2944 31.268C13.971 31.268 13.7085 31.0055 13.7085 30.6821C13.7333 29.1722 14.7417 28.6873 15.5366 27.9563Z" fill="#C0405C"/>
<path d="M20.6831 34.2398C20.6831 35.4672 19.9128 36.0906 19.294 36.5914C18.6847 37.0844 18.3394 37.3945 18.3394 38.032C18.3138 38.8059 17.1943 38.8091 17.1675 38.032C17.1644 35.8262 19.5186 35.7269 19.5112 34.2398C19.5112 33.6016 19.1667 33.2922 18.5565 32.7984C17.9378 32.2977 17.1675 31.6742 17.1675 30.4469C17.1675 29.6297 17.5089 29.0805 17.9198 28.6562C18.3394 28.793 18.7628 28.9383 19.1894 29.0922C18.6448 29.5367 18.3394 29.8469 18.3394 30.4469C18.3394 31.0844 18.6847 31.3945 19.294 31.8875C19.9128 32.3883 20.6831 33.0117 20.6831 34.2398Z" fill="#C0405C"/>
<path d="M21.895 30.1672C21.831 30.3172 21.7974 30.4836 21.7974 30.6821C21.7974 31.0055 21.5349 31.268 21.2114 31.268C20.8872 31.268 20.6255 31.0055 20.6255 30.6821C20.6255 30.3079 20.6974 29.9899 20.8145 29.7141C21.1802 29.8618 21.5403 30.0133 21.895 30.1672Z" fill="#C0405C"/>
<path d="M24.7165 13.3228V14.3532C24.7165 16.9579 22.6048 19.0696 20.0001 19.0696C18.6978 19.0696 17.5188 18.5415 16.6649 17.6884C15.8118 16.8345 15.2837 15.6556 15.2837 14.3532V13.3228H24.7165Z" fill="#F39E22"/>
<path d="M24.7164 13.3228V14.3532C24.7164 16.9579 22.6047 19.0696 20 19.0696V13.3228H24.7164Z" fill="#F9C744"/>
<path d="M20.5602 13.3228V17.1876C20.5602 17.497 20.3095 17.7478 20.0001 17.7478C19.6907 17.7478 19.4399 17.497 19.4399 17.1876V13.3228H20.5602Z" fill="#DD5E26"/>
<path d="M22.6831 16.4977C22.3738 16.4977 22.123 16.2469 22.123 15.9376V13.323H23.2432V15.9376C23.2431 16.2469 22.9924 16.4977 22.6831 16.4977Z" fill="#EA792E"/>
<path d="M17.3174 16.4977C17.0081 16.4977 16.7573 16.2469 16.7573 15.9376V13.323H17.8775V15.9376C17.8775 16.2469 17.6268 16.4977 17.3174 16.4977Z" fill="#DD5E26"/>
<path d="M20.5602 13.3228V17.1876C20.5602 17.497 20.3094 17.7478 20 17.7478V13.3228H20.5602Z" fill="#EA792E"/>
<path d="M28.5993 9.47505V10.8516C28.5993 10.9313 28.5954 11.0102 28.5884 11.0883C28.5071 11.9407 27.9938 12.6665 27.2696 13.0438C26.9282 13.2219 26.5399 13.3227 26.1282 13.3227H13.872C13.4603 13.3227 13.072 13.2219 12.7306 13.0438C12.0063 12.6665 11.4931 11.9399 11.4118 11.0883C11.4048 11.0102 11.4009 10.9313 11.4009 10.8516V9.47505C11.4009 8.33052 11.6681 7.24849 12.1431 6.28833C12.4728 5.62349 12.9009 5.01646 13.4103 4.48677C14.3251 3.53442 15.4993 2.83364 16.8196 2.49927C17.3892 2.35317 17.9853 2.27661 18.5993 2.27661H21.4009C24.8118 2.27661 27.6681 4.64849 28.411 7.83286C28.5345 8.36021 28.5993 8.9102 28.5993 9.47505Z" fill="#F9C744"/>
<path d="M17.3173 12.5415C17.3173 12.8063 17.3009 13.0672 17.2696 13.3227H13.872C13.4603 13.3227 13.072 13.2219 12.7306 13.0438C12.0063 12.6665 11.4931 11.9399 11.4118 11.0883C11.4048 11.0102 11.4009 10.9313 11.4009 10.8516V9.47505C11.4009 8.33052 11.6681 7.24849 12.1431 6.28833C15.0899 6.84536 17.3173 9.43286 17.3173 12.5415Z" fill="#FBCB74"/>
<path d="M28.5992 9.47505V10.8516C28.5992 10.9313 28.5953 11.0102 28.5883 11.0883C28.4688 12.3422 27.4133 13.3227 26.1281 13.3227H20V2.27661H21.4008C24.8117 2.27661 27.668 4.64849 28.4109 7.83286C28.5344 8.36021 28.5992 8.9102 28.5992 9.47505Z" fill="#FBCB74"/>
<path d="M28.4108 7.83286C27.1865 8.83599 25.6209 9.43833 23.9147 9.43833C20.0482 9.43833 16.9029 6.34614 16.8193 2.49927C17.3889 2.35317 17.985 2.27661 18.599 2.27661H21.4006C24.8115 2.27661 27.6678 4.64849 28.4108 7.83286Z" fill="#FBCB74"/>
<path d="M28.4109 7.83286C27.1867 8.83599 25.6211 9.43833 23.9148 9.43833C22.468 9.43833 21.1219 9.00552 20 8.26177V2.27661H21.4008C22.2734 2.27661 23.1102 2.43208 23.8836 2.71646C24.7859 3.04771 25.6031 3.55474 26.2945 4.19614C27.3281 5.15474 28.0789 6.41255 28.4109 7.83286Z" fill="#FBD9A3"/>
<path d="M26.4087 4.89546C26.4087 6.11265 25.422 7.09858 24.2056 7.09858C22.9892 7.09858 22.0024 6.11265 22.0024 4.89546C22.0024 3.78843 22.8196 2.87202 23.8837 2.71655C24.786 3.0478 25.6032 3.55483 26.2946 4.19624C26.3688 4.41577 26.4087 4.65093 26.4087 4.89546Z" fill="#FAEFDC"/>
<path d="M21.9058 11.0884H21.4509C20.9594 11.0884 20.561 11.4867 20.561 11.9782V13.323H22.7956V11.9782C22.7956 11.4867 22.3973 11.0884 21.9058 11.0884Z" fill="#DD5273"/>
<path d="M28.5893 11.0884C28.508 11.9407 27.9947 12.6665 27.2705 13.0438V11.9782C27.2705 11.4868 27.6689 11.0884 28.1604 11.0884H28.5893Z" fill="#DD5273"/>
<path d="M25.2603 11.0884H24.8054C24.3139 11.0884 23.9155 11.4867 23.9155 11.9782V13.323H26.1501V11.9782C26.1501 11.4867 25.7518 11.0884 25.2603 11.0884Z" fill="#DD5273"/>
<path d="M18.5503 11.0884H18.0954C17.6039 11.0884 17.2056 11.4867 17.2056 11.9782V13.323H19.4402V11.9782C19.4402 11.4867 19.0418 11.0884 18.5503 11.0884Z" fill="#C0405C"/>
<path d="M12.7309 11.9782V13.0438C12.0066 12.6665 11.4934 11.9399 11.4121 11.0884H11.841C12.3324 11.0884 12.7309 11.4868 12.7309 11.9782Z" fill="#C0405C"/>
<path d="M15.1958 11.0884H14.7409C14.2494 11.0884 13.8511 11.4867 13.8511 11.9782V13.323H16.0857V11.9782C16.0857 11.4867 15.6873 11.0884 15.1958 11.0884Z" fill="#C0405C"/>
</svg>
