<svg width="40" height="40" viewBox="0 0 40 40" fill="none" xmlns="http://www.w3.org/2000/svg">
<path d="M20 40C31.0457 40 40 31.0457 40 20C40 8.9543 31.0457 0 20 0C8.9543 0 0 8.9543 0 20C0 31.0457 8.9543 40 20 40Z" fill="#53B976"/>
<path d="M20.9637 35.2306H19.0358C12.2243 35.2306 6.83797 29.4626 7.30289 22.6677L7.9757 12.835C8.26313 8.6446 11.7455 5.39233 15.9462 5.39233H24.0534C28.2539 5.39233 31.7363 8.64468 32.0238 12.835L32.6966 22.6677C33.1614 29.4626 27.7751 35.2306 20.9637 35.2306Z" fill="#DEB36F"/>
<path d="M20.9641 35.2304H20V5.39209H24.0539C26.0188 5.39209 27.8266 6.10381 29.2234 7.29053C30.8133 8.64053 31.8711 10.6046 32.0242 12.8351L32.6969 22.6679C33.1617 29.4624 27.7758 35.2304 20.9641 35.2304Z" fill="#FBCB74"/>
<path d="M29.2234 7.29053L24.4016 9.28193L20 10.7116V5.39209H24.0539C26.0188 5.39209 27.8266 6.10381 29.2234 7.29053Z" fill="#F39E22"/>
<path d="M10.7764 7.29053L15.5982 9.28193L19.9998 10.7116V5.39209H15.9459C13.9811 5.39209 12.1732 6.10381 10.7764 7.29053Z" fill="#EA792E"/>
<path d="M29.8416 22.5173L27.4243 25.8573C26.1626 27.6012 24.1409 28.6338 21.989 28.6338H20V10.1072C21.4104 10.1072 23.0366 9.71436 24.4019 9.2817C26.1157 8.73749 27.9578 9.61616 28.6295 11.284L30.6131 16.2114C31.4572 18.3065 31.1652 20.6875 29.8416 22.5173Z" fill="#F9C744"/>
<path d="M20 10.1068C18.5898 10.1068 16.9635 9.71442 15.5981 9.28137C13.8845 8.73785 12.0423 9.61645 11.3708 11.2841L9.38673 16.2114C8.54314 18.3063 8.8347 20.6876 10.1587 22.5171L12.5761 25.8576C13.8378 27.6011 15.8593 28.6335 18.0114 28.6335H20V10.1068Z" fill="#F39E22"/>
<path d="M24.7559 33.2449H20.1564C20.0695 33.2449 19.999 33.1744 19.999 33.0875V29.5724C19.999 29.4855 20.0695 29.415 20.1564 29.415H24.7559C25.8135 29.415 26.6708 30.2724 26.6708 31.33C26.6709 32.3875 25.8136 33.2449 24.7559 33.2449Z" fill="#FBD9A3"/>
<path d="M15.2426 29.415H19.8421C19.929 29.415 19.9994 29.4855 19.9994 29.5724V33.0875C19.9994 33.1744 19.929 33.2449 19.8421 33.2449H15.2426C14.185 33.2449 13.3276 32.3875 13.3276 31.33C13.3276 30.2724 14.1849 29.415 15.2426 29.415Z" fill="#FBCB74"/>
<path d="M28.6898 22.0914L26.5578 25.0367L26.5555 25.0406C25.4414 26.5805 23.6562 27.4922 21.7562 27.4922H20V11.1336C21.2453 11.1336 22.6812 10.7867 23.8867 10.4047C25.4 9.92423 27.0266 10.7 27.6195 12.1727L29.3711 16.5235C30.1164 18.3735 29.8586 20.4758 28.6898 22.0914Z" fill="#F4E6F4"/>
<path d="M19.9998 11.1336V27.4922H18.2435C16.3435 27.4922 14.5584 26.5805 13.4443 25.0406L11.3099 22.0914C10.1412 20.4758 9.88336 18.3735 10.6287 16.5235L12.3802 12.1727C12.9732 10.7 14.5998 9.92423 16.113 10.4047C17.3185 10.7867 18.7545 11.1336 19.9998 11.1336Z" fill="#DECEE5"/>
<path d="M19.9998 22.2891V27.4923H18.2436C16.3436 27.4923 14.5584 26.5805 13.4443 25.0407L14.8862 23.5992C15.7254 22.7603 16.8632 22.2891 18.0498 22.2891H19.9998V22.2891Z" fill="#F4E6F4"/>
<path d="M26.5573 25.0367L26.555 25.0406C25.4409 26.5805 23.6558 27.4922 21.7558 27.4922H19.9995V22.2891H21.9562C23.1429 22.2891 24.2811 22.7605 25.1202 23.5996L26.5573 25.0367Z" fill="white"/>
<path d="M24.9115 14.9469C23.7833 14.9469 22.949 15.9977 23.2051 17.0967L23.581 18.7102C23.9183 20.1582 22.8191 21.543 21.3322 21.543H19.9995V11.1336C21.2448 11.1336 22.6808 10.7867 23.8862 10.4047C25.3995 9.92423 27.0261 10.7 27.619 12.1727L26.5215 14.0285C26.1849 14.5977 25.5728 14.9469 24.9115 14.9469Z" fill="white"/>
<path d="M15.0879 14.9469C16.2162 14.9469 17.0504 15.9977 16.7944 17.0967L16.4184 18.7102C16.0811 20.1582 17.1803 21.543 18.6672 21.543H19.9999V11.1336C18.7546 11.1336 17.3187 10.7867 16.1132 10.4047C14.5999 9.92423 12.9733 10.7 12.3804 12.1727L13.4779 14.0285C13.8145 14.5977 14.4266 14.9469 15.0879 14.9469Z" fill="#F4E6F4"/>
<path d="M26.126 15.3326C26.5121 16.0013 26.2884 16.854 25.6264 17.2475C25.6213 17.2517 25.6156 17.2549 25.61 17.2582L24.7607 17.7485C24.424 17.9428 24.0396 17.983 23.691 17.8896C23.3415 17.7967 23.0291 17.5707 22.8342 17.2331C22.472 16.6057 22.6465 15.8153 23.2153 15.3953C23.2581 15.3631 23.3035 15.3332 23.3506 15.306L24.1999 14.8157C24.5375 14.6207 24.9215 14.5821 25.2701 14.6755C25.6188 14.769 25.9311 14.995 26.126 15.3326Z" fill="#3E4E60"/>
<path d="M26.126 15.3325C26.5121 16.0012 26.2884 16.8539 25.6264 17.2474C24.7736 17.2168 23.9256 16.7233 23.4374 15.8778C23.3467 15.7207 23.2724 15.5592 23.2153 15.3953C23.2581 15.3631 23.3035 15.3332 23.3506 15.306L24.1999 14.8157C24.5375 14.6207 24.9215 14.5821 25.2701 14.6755C25.6188 14.7689 25.9311 14.9949 26.126 15.3325Z" fill="#2E3140"/>
<path d="M24.7792 15.216L24.2682 15.511C24.0482 15.638 23.9728 15.9194 24.0998 16.1394C24.2268 16.3594 24.5082 16.4348 24.7282 16.3078L25.2392 16.0128C25.4592 15.8858 25.5346 15.6044 25.4076 15.3844C25.2805 15.1644 24.9992 15.089 24.7792 15.216Z" fill="white"/>
<path d="M13.8728 15.3326C13.4867 16.0013 13.7104 16.854 14.3724 17.2475C14.3775 17.2517 14.3831 17.2549 14.3888 17.2582L15.2381 17.7485C15.5748 17.9428 15.9592 17.983 16.3078 17.8896C16.6573 17.7967 16.9696 17.5707 17.1646 17.2331C17.5268 16.6057 17.3523 15.8153 16.7835 15.3953C16.7407 15.3631 16.6953 15.3332 16.6482 15.306L15.7989 14.8157C15.4613 14.6207 15.0773 14.5821 14.7287 14.6755C14.38 14.769 14.0678 14.995 13.8728 15.3326Z" fill="#3E4E60"/>
<path d="M13.8728 15.3335C13.4867 16.0022 13.7104 16.8549 14.3724 17.2484C15.2252 17.2178 16.0732 16.7243 16.5614 15.8787C16.6521 15.7217 16.7264 15.5602 16.7835 15.3963C16.7407 15.3641 16.6953 15.3341 16.6482 15.3069L15.7989 14.8166C15.4613 14.6217 15.0773 14.583 14.7287 14.6765C14.38 14.7699 14.0678 14.9958 13.8728 15.3335Z" fill="#2E3140"/>
<path d="M15.2199 15.216L15.7309 15.511C15.9509 15.638 16.0263 15.9194 15.8993 16.1394C15.7723 16.3594 15.4909 16.4348 15.2709 16.3078L14.7599 16.0128C14.5399 15.8858 14.4645 15.6044 14.5915 15.3844C14.7185 15.1644 14.9999 15.089 15.2199 15.216Z" fill="white"/>
<path d="M19.9995 20.3115V26.0764C20.4236 26.0764 20.7932 25.7876 20.8956 25.3761L21.6497 22.3478C21.9073 21.3131 21.1246 20.3115 20.0583 20.3115H19.9995Z" fill="#F0A6B3"/>
<path d="M19.9994 20.3115V26.0764C19.5753 26.0764 19.2057 25.7876 19.1033 25.3761L18.3492 22.3478C18.0916 21.3131 18.8743 20.3115 19.9406 20.3115H19.9994Z" fill="#F4829B"/>
</svg>
