<svg width="40" height="40" viewBox="0 0 40 40" fill="none" xmlns="http://www.w3.org/2000/svg">
<path d="M40 20C40 31.0458 31.0458 40 20 40C8.95416 40 0 31.0458 0 20C0 8.95416 8.95416 0 20 0C31.0458 0 40 8.95416 40 20Z" fill="#1DA2DD"/>
<path d="M12.5486 19.4739C12.5486 20.7016 11.652 21.7194 10.4777 21.9083C10.3495 21.929 10.2174 21.94 10.0828 21.94C8.72052 21.94 7.6167 20.8362 7.6167 19.4739C7.6167 18.1116 8.72052 17.0081 10.0828 17.0081C10.2174 17.0081 10.3495 17.0187 10.4777 17.0395C11.652 17.2287 12.5486 18.2465 12.5486 19.4739Z" fill="#D39272"/>
<path d="M10.9644 19.4739C10.9644 19.9606 10.5698 20.3552 10.083 20.3552C9.59625 20.3552 9.20166 19.9606 9.20166 19.4739C9.20166 18.9871 9.59625 18.5925 10.083 18.5925C10.5698 18.5925 10.9644 18.9871 10.9644 19.4739Z" fill="#BF7C5E"/>
<path d="M32.3821 19.4739C32.3821 20.7016 31.4855 21.7194 30.3112 21.9083C30.183 21.929 30.0509 21.94 29.9163 21.94C28.554 21.94 27.4502 20.8362 27.4502 19.4739C27.4502 18.1116 28.554 17.0081 29.9163 17.0081C30.0509 17.0081 30.183 17.0187 30.3112 17.0395C31.4855 17.2287 32.3821 18.2465 32.3821 19.4739Z" fill="#D39272"/>
<path d="M30.7974 19.4739C30.7974 19.9606 30.4028 20.3552 29.916 20.3552C29.4293 20.3552 29.0347 19.9606 29.0347 19.4739C29.0347 18.9871 29.4293 18.5925 29.916 18.5925C30.4028 18.5925 30.7974 18.9871 30.7974 19.4739Z" fill="#BF7C5E"/>
<path d="M29.9907 14.6905V37.3287C28.9934 37.9061 27.9418 38.3984 26.8447 38.7975H13.1548C12.0577 38.3984 11.0054 37.9052 10.0078 37.3287V14.6905C10.0078 13.5516 10.1982 12.4359 10.573 11.3738C11.9762 7.38184 15.7637 4.69873 19.999 4.69873C20.5239 4.69873 21.0472 4.73932 21.5557 4.81958C23.8829 5.18365 26.0176 6.3714 27.5655 8.164C29.1295 9.97614 29.9907 12.2936 29.9907 14.6905Z" fill="#2F373B"/>
<path d="M11.9575 21.4526H27.7943V32.8812H11.9575V21.4526Z" fill="#151A1C"/>
<path d="M14.8977 19.4503C16.2454 24.1982 16.7898 32.3885 17.0077 38.7975H13.1555C12.0583 38.3984 11.0061 37.9052 10.0088 37.3287V14.6905C10.0088 13.5516 10.1989 12.4359 10.5737 11.3738C11.9769 7.38184 15.7647 4.69873 19.9996 4.69873C16.4529 4.69873 12.4471 10.8187 14.8977 19.4503Z" fill="#151A1C"/>
<path d="M29.8531 35.1234V37.4082C28.6891 38.0686 27.4523 38.6155 26.1577 39.0336C24.218 39.6613 22.1486 40.0001 20.0002 40.0001C17.8884 40.0001 15.8541 39.6726 13.9431 39.0662C13.9095 39.0555 13.8759 39.0449 13.8427 39.0336C12.5487 38.6155 11.3112 38.0686 10.147 37.4082V35.1234C10.147 32.3813 11.632 29.986 13.8427 28.6979C14.2263 28.4742 14.6328 28.2831 15.0573 28.1306C15.2761 28.0515 15.4998 27.9819 15.7274 27.924C15.7845 27.9093 15.8425 27.8956 15.9005 27.8815C16.2484 27.8007 16.6057 27.7454 16.9716 27.7158C17.1724 27.6996 17.3748 27.6914 17.5798 27.6914H22.4196C22.9918 27.6914 23.5488 27.7552 24.0834 27.8776C24.0892 27.8791 24.0941 27.88 24.0996 27.8815C24.157 27.8947 24.2156 27.9087 24.272 27.9233C24.4997 27.9819 24.7243 28.0515 24.9431 28.1306C25.3676 28.2831 25.7732 28.4742 26.1577 28.6979C28.3675 29.986 29.8531 32.382 29.8531 35.1234Z" fill="#17A388"/>
<path d="M29.8532 35.1234V37.4082C26.9452 39.058 23.5828 40.0001 20 40.0001C17.8882 40.0001 15.8539 39.6726 13.9429 39.0662V35.1234C13.9429 31.0187 17.2711 27.6914 21.3763 27.6914H22.4197C26.5256 27.6914 29.8532 31.0187 29.8532 35.1234Z" fill="#27BA9E"/>
<path d="M13.8427 28.6978V39.0334C12.5487 38.6154 11.3112 38.0685 10.147 37.4081V35.1232C10.147 32.3812 11.632 29.9859 13.8427 28.6978Z" fill="#BF7C5E"/>
<path d="M29.8531 35.1232V37.4081C28.6891 38.0685 27.4523 38.6154 26.1577 39.0334V28.6978C28.3675 29.9859 29.8531 32.3818 29.8531 35.1232Z" fill="#D39272"/>
<path d="M22.6518 24.8281V28.0825C22.6518 29.2739 21.8663 30.281 20.7841 30.6155C20.5366 30.6921 20.2726 30.7339 19.9995 30.7339C18.5353 30.7339 17.3481 29.5468 17.3481 28.0825V24.8281H22.6518Z" fill="#BF7C5E"/>
<path d="M22.6519 27.8765V28.0825C22.6519 29.2739 21.8663 30.2809 20.7842 30.6154C19.8079 30.3154 19.074 29.4664 18.9385 28.4279C19.1155 28.4386 19.2937 28.4441 19.4725 28.4441C19.9742 28.4441 20.4662 28.4044 20.9453 28.3257C21.5355 28.2308 22.1059 28.0788 22.6519 27.8765Z" fill="#D39272"/>
<path d="M29.1744 14.6906V18.1846C29.1744 22.7503 25.8392 26.5379 21.4718 27.2407C21.4568 27.2431 21.4416 27.2456 21.4269 27.2483C20.9622 27.3225 20.4855 27.3591 19.999 27.3591C14.9322 27.3591 10.8242 23.2514 10.8242 18.1846V14.6906C10.8242 13.6237 11.8939 15.8588 11.8939 15.8588H27.2946C27.2946 15.8588 29.1744 12.5983 29.1744 14.6906Z" fill="#BF7C5E"/>
<path d="M29.1745 14.6905V18.1845C29.1745 22.7502 25.8392 26.5377 21.4719 27.2405C21.4569 27.243 21.4417 27.2454 21.427 27.2482C17.0383 26.5624 13.6816 22.7648 13.6816 18.1845V16.267C13.6816 16.2481 27.2946 16.267 27.2946 16.267C27.2946 16.267 29.1745 12.5982 29.1745 14.6905Z" fill="#D39272"/>
<path d="M10.3462 13.2687L10.4496 12.9958C10.4152 12.9647 10.3801 12.9348 10.3462 12.9031V13.2687Z" fill="#2F373B"/>
<path d="M29.175 12.4573L26.4067 15.8588L27.6763 29.8682L29.991 27.9016L29.175 12.4573Z" fill="#2F373B"/>
<path d="M10.8239 12.4573L13.5924 15.8588L12.3229 29.8682L10.0078 27.9016L10.8239 12.4573Z" fill="#151A1C"/>
<path d="M24.9267 17.4098C24.9267 16.5681 24.2443 15.8857 23.4026 15.8857C22.5613 15.8857 21.8789 16.5681 21.8789 17.4098" fill="#BF7C5E"/>
<path d="M18.1205 17.4098C18.1205 16.5681 17.4382 15.8857 16.5965 15.8857C15.7551 15.8857 15.0728 16.5681 15.0728 17.4098" fill="#BF7C5E"/>
<path d="M17.6378 18.0582C17.6378 18.6332 17.1718 19.0992 16.5968 19.0992C16.0222 19.0992 15.5562 18.6332 15.5562 18.0582C15.5562 17.4836 16.0222 17.0176 16.5968 17.0176C17.1718 17.0176 17.6378 17.4836 17.6378 18.0582Z" fill="#2F373B"/>
<path d="M24.4439 18.0582C24.4439 18.6332 23.9779 19.0992 23.403 19.0992C22.8283 19.0992 22.3623 18.6332 22.3623 18.0582C22.3623 17.4836 22.8283 17.0176 23.403 17.0176C23.9779 17.0176 24.4439 17.4836 24.4439 18.0582Z" fill="#2F373B"/>
<path d="M21.0408 20.6786H18.9592C18.7111 20.6786 18.5103 20.4778 18.5103 20.2297C18.5103 19.9819 18.7111 19.7808 18.9592 19.7808H21.0408C21.2889 19.7808 21.4897 19.9819 21.4897 20.2297C21.4897 20.4778 21.2889 20.6786 21.0408 20.6786Z" fill="#BF7C5E"/>
<path d="M19.9994 23.5197C19.231 23.5197 18.4628 23.3272 17.7625 22.942C17.565 22.8337 17.4927 22.5856 17.6013 22.3878C17.71 22.1904 17.9581 22.1183 18.1555 22.2267C19.31 22.8615 20.6885 22.8615 21.843 22.2267C22.0404 22.1183 22.2885 22.1904 22.3972 22.3878C22.5058 22.5856 22.4338 22.8337 22.236 22.942C21.5359 23.3272 20.7675 23.5197 19.9994 23.5197Z" fill="#BF7C5E"/>
<path d="M17.4257 17.8749C17.4257 18.1212 17.2258 18.3207 16.9796 18.3207C16.7333 18.3207 16.5337 18.1212 16.5337 17.8749C16.5337 17.6283 16.7333 17.4287 16.9796 17.4287C17.2258 17.4287 17.4257 17.6283 17.4257 17.8749Z" fill="white"/>
<path d="M24.2823 17.8749C24.2823 18.1212 24.0828 18.3207 23.8365 18.3207C23.5902 18.3207 23.3906 18.1212 23.3906 17.8749C23.3906 17.6283 23.5902 17.4287 23.8365 17.4287C24.0828 17.4287 24.2823 17.6283 24.2823 17.8749Z" fill="white"/>
<path d="M26.2443 20.5933C26.2443 21.2247 25.7325 21.7362 25.1014 21.7362C24.4703 21.7362 23.9585 21.2247 23.9585 20.5933C23.9585 19.9622 24.4703 19.4504 25.1014 19.4504C25.7325 19.4504 26.2443 19.9622 26.2443 20.5933Z" fill="#BF7C5E"/>
<path d="M16.0402 20.5933C16.0402 21.2247 15.5284 21.7362 14.8973 21.7362C14.2662 21.7362 13.7544 21.2247 13.7544 20.5933C13.7544 19.9622 14.2662 19.4504 14.8973 19.4504C15.5284 19.4504 16.0402 19.9622 16.0402 20.5933Z" fill="#BF7C5E"/>
<path d="M26.4064 15.8588L26.1635 11.8589L25.3877 15.8588" fill="#BF7C5E"/>
<path d="M31.517 21.7742C31.517 22.1615 31.203 22.4755 30.8157 22.4755C30.4285 22.4755 30.1147 22.1615 30.1147 21.7742C30.1147 21.387 30.4285 21.0732 30.8157 21.0732C31.203 21.0732 31.517 21.387 31.517 21.7742Z" fill="#2F373B"/>
<path d="M9.88568 21.7742C9.88568 22.1615 9.57166 22.4755 9.18439 22.4755C8.79712 22.4755 8.4834 22.1615 8.4834 21.7742C8.4834 21.387 8.79712 21.0732 9.18439 21.0732C9.57166 21.0732 9.88568 21.387 9.88568 21.7742Z" fill="#2F373B"/>
<path d="M24.9435 28.1304C24.7247 28.0513 24.5001 27.9818 24.2724 27.9232C24.2159 27.9085 24.1573 27.8945 24.1 27.8813C24.1247 28.0611 24.1369 28.2439 24.1369 28.4301V30.4976C24.1369 32.7785 22.2814 34.634 20.0005 34.634C17.7197 34.634 15.8642 32.7785 15.8642 30.4976V28.4301C15.8642 28.2439 15.8764 28.0611 15.9008 27.8813C15.8428 27.8954 15.7849 27.9091 15.7278 27.9238C15.5001 27.9818 15.2764 28.0513 15.0576 28.1304C15.0512 28.2299 15.0479 28.3297 15.0479 28.4301V30.4976C15.0479 33.2292 17.2698 35.4503 20.0005 35.4503C22.731 35.4503 24.9532 33.2292 24.9532 30.4976V28.4301C24.9532 28.3297 24.9499 28.2299 24.9435 28.1304Z" fill="#FFE05C"/>
</svg>
