<svg width="40" height="40" viewBox="0 0 40 40" fill="none" xmlns="http://www.w3.org/2000/svg">
<path d="M20 40C31.0457 40 40 31.0457 40 20C40 8.9543 31.0457 0 20 0C8.9543 0 0 8.9543 0 20C0 31.0457 8.9543 40 20 40Z" fill="#53B976"/>
<path d="M35.885 26.9815V29.1393C35.885 29.4784 35.8357 29.8065 35.7436 30.1159C35.3235 31.5257 34.017 32.5542 32.4701 32.5542H10.5154C8.96855 32.5542 7.6623 31.526 7.24199 30.1159C7.1498 29.8065 7.10059 29.4784 7.10059 29.1393V26.9815C7.10059 26.4182 7.23652 25.887 7.47793 25.419C8.05512 24.2947 9.2341 23.5617 10.5154 23.5667H32.4701C32.9006 23.5667 33.3123 23.6464 33.6912 23.7925C34.999 24.2886 35.8922 25.5696 35.885 26.9815Z" fill="#DD8C29"/>
<path d="M35.5077 25.419C34.464 28.726 31.371 31.1245 27.7187 31.1245H15.2671C11.6454 31.1207 8.54584 28.7743 7.47803 25.419C8.04521 24.319 9.19287 23.5667 10.5155 23.5667H32.4702C33.7929 23.5667 34.9405 24.319 35.5077 25.419Z" fill="#F39E22"/>
<path d="M33.389 26.1831C33.389 26.8252 32.8686 27.3456 32.2265 27.3456H10.7593C9.80708 27.3519 9.25349 26.2328 9.83193 25.4815C10.0444 25.201 10.3804 25.0198 10.7593 25.0198H32.2265C32.8677 25.0198 33.389 25.5413 33.389 26.1831Z" fill="#F9C744"/>
<path d="M21.4927 29.0576C20.527 29.0576 19.7441 29.8404 19.7441 30.8061V32.5546H23.2411V30.8061C23.2412 29.8404 22.4584 29.0576 21.4927 29.0576Z" fill="#DEB36F"/>
<path d="M10.5976 30.8059V32.5543C9.02609 32.5915 7.66719 31.5533 7.24219 30.1161C8.00312 28.3957 10.5693 28.8983 10.5976 30.8059Z" fill="#DEB36F"/>
<path d="M13.0639 29.0576C12.0982 29.0576 11.3154 29.8404 11.3154 30.8061V32.5546H14.8124V30.8061C14.8125 29.8404 14.0296 29.0576 13.0639 29.0576Z" fill="#DEB36F"/>
<path d="M17.2783 29.0576C16.3126 29.0576 15.5298 29.8404 15.5298 30.8061V32.5546H19.0267V30.8061C19.0268 29.8404 18.244 29.0576 17.2783 29.0576Z" fill="#DEB36F"/>
<path d="M25.708 29.0576C24.7423 29.0576 23.9595 29.8404 23.9595 30.8061V32.5546H27.4564V30.8061C27.4565 29.8404 26.6736 29.0576 25.708 29.0576Z" fill="#DEB36F"/>
<path d="M29.9223 29.0576C28.9566 29.0576 28.1738 29.8404 28.1738 30.8061V32.5546H31.6708V30.8061C31.6709 29.8404 30.888 29.0576 29.9223 29.0576Z" fill="#DEB36F"/>
<path d="M35.7437 30.116C35.3189 31.5528 33.9597 32.5914 32.3882 32.5543V30.8058C32.4168 28.8974 34.9836 28.3965 35.7437 30.116Z" fill="#DEB36F"/>
<path d="M23.241 30.8058V31.1246H19.7441V30.8058C19.7441 29.8402 20.527 29.0574 21.4926 29.0574C22.4582 29.0574 23.241 29.8402 23.241 30.8058Z" fill="#FBD9A3"/>
<path d="M14.8114 30.8059V31.1114C13.595 31.045 12.4505 30.7121 11.4341 30.17C12.1505 28.3958 14.7802 28.8664 14.8114 30.8059Z" fill="#FBD9A3"/>
<path d="M19.0262 30.8058V31.1246H15.5293V30.8058C15.5293 29.8402 16.3121 29.0574 17.2777 29.0574C18.2434 29.0574 19.0262 29.8402 19.0262 30.8058Z" fill="#FBD9A3"/>
<path d="M27.4559 30.8058V31.1246H23.959V30.8058C23.959 29.8402 24.7418 29.0574 25.7074 29.0574C26.673 29.0574 27.4559 29.8402 27.4559 30.8058Z" fill="#FBD9A3"/>
<path d="M31.5517 30.1706C30.5345 30.7121 29.3899 31.0449 28.1743 31.1121V30.8058C28.2061 28.8647 30.8361 28.3967 31.5517 30.1706Z" fill="#FBD9A3"/>
<path d="M14.8114 30.8059V31.1114C13.595 31.045 12.4505 30.7121 11.4341 30.17C12.1505 28.3958 14.7802 28.8664 14.8114 30.8059Z" fill="#FBD9A3"/>
<path d="M19.0262 30.8058V31.1246H15.5293V30.8058C15.5293 29.8402 16.3121 29.0574 17.2777 29.0574C18.2434 29.0574 19.0262 29.8402 19.0262 30.8058Z" fill="#FBD9A3"/>
<path d="M23.241 30.8058V31.1246H19.7441V30.8058C19.7441 29.8402 20.527 29.0574 21.4926 29.0574C22.4582 29.0574 23.241 29.8402 23.241 30.8058Z" fill="#FBD9A3"/>
<path d="M27.4559 30.8058V31.1246H23.959V30.8058C23.959 29.8402 24.7418 29.0574 25.7074 29.0574C26.673 29.0574 27.4559 29.8402 27.4559 30.8058Z" fill="#FBD9A3"/>
<path d="M31.5517 30.1706C30.5345 30.7121 29.3899 31.0449 28.1743 31.1121V30.8058C28.2061 28.8647 30.8361 28.3967 31.5517 30.1706Z" fill="#FBD9A3"/>
<path d="M12.3603 23.5667C12.4003 24.8707 10.5422 24.8717 10.583 23.5667C10.0326 23.5572 9.49809 23.6787 9.03223 23.905C9.45871 27.0267 13.92 26.7318 13.9228 23.5667H12.3603Z" fill="#B26E2B"/>
<path d="M18.5573 23.5667V26.0784C18.5573 26.5682 18.1589 26.9667 17.669 26.9667C17.1792 26.9667 16.7808 26.5682 16.7808 26.0784V23.5667H15.2183V26.0784C15.2183 27.4299 16.3175 28.5292 17.669 28.5292C19.0206 28.5292 20.1198 27.4299 20.1198 26.0784V23.5667H18.5573Z" fill="#B26E2B"/>
<path d="M25.1589 23.5667V25.4635C25.1589 25.9534 24.7604 26.3518 24.2706 26.3518C23.7808 26.3518 23.3823 25.9534 23.3823 25.4635V23.5667H21.8198V25.4635C21.8198 26.8151 22.919 27.9143 24.2706 27.9143C25.6222 27.9143 26.7214 26.8151 26.7214 25.4635V23.5667H25.1589Z" fill="#B26E2B"/>
<path d="M32.4705 23.5667H32.133C32.1745 24.8713 30.3146 24.8705 30.3564 23.5667H28.7939C28.808 26.8027 33.3911 27.0022 33.6916 23.7924C33.3127 23.6463 32.901 23.5667 32.4705 23.5667Z" fill="#B26E2B"/>
<path d="M10.7594 25.0198C10.3805 25.0198 10.0445 25.201 9.83203 25.4815C10.9081 26.4862 12.7237 26.2438 13.5102 25.0198H10.7594Z" fill="#C68132"/>
<path d="M18.5568 25.0198V26.0784C18.5568 26.5682 18.1584 26.9667 17.6686 26.9667C17.1787 26.9667 16.7803 26.5682 16.7803 26.0784V25.0198H15.2178V26.0784C15.2178 26.5416 15.3475 26.976 15.5717 27.3456H19.7654C19.9896 26.976 20.1193 26.5416 20.1193 26.0784V25.0198H18.5568Z" fill="#C68132"/>
<path d="M25.1584 25.0198V25.4635C25.1584 25.9534 24.76 26.3518 24.2701 26.3518C23.7803 26.3518 23.3818 25.9534 23.3818 25.4635V25.0198H21.8193V25.4635C21.8193 26.219 22.1631 26.8956 22.7021 27.3456H25.8381C26.3771 26.8956 26.7209 26.219 26.7209 25.4635V25.0198H25.1584Z" fill="#C68132"/>
<path d="M32.2264 25.0198H29.2061C30.0467 26.3181 31.9758 26.4892 33.0264 25.3401C32.8186 25.1417 32.5365 25.0198 32.2264 25.0198Z" fill="#C68132"/>
<path d="M10.6435 19.3655C10.6651 19.8982 10.5711 21.2432 10.75 21.7283C11.0668 22.7911 12.0516 23.5664 13.2177 23.5664H29.768C30.9341 23.5664 31.9188 22.7913 32.2357 21.7283C32.3052 21.4951 32.3422 21.2478 32.3422 20.9921V19.3655C32.3422 18.9409 32.2397 18.5404 32.0578 18.1876C31.6227 17.34 30.7339 16.7875 29.768 16.7913H13.2177C12.8932 16.7913 12.5829 16.8514 12.2972 16.9615C11.3113 17.3354 10.638 18.301 10.6435 19.3655Z" fill="#DD8C29"/>
<path d="M10.9282 18.1876C11.715 20.6806 14.0467 22.4886 16.7999 22.4886H26.1864C28.9166 22.4858 31.2531 20.717 32.0581 18.1876C31.6306 17.3584 30.7654 16.7913 29.7684 16.7913H13.218C12.221 16.7912 11.3558 17.3584 10.9282 18.1876Z" fill="#F39E22"/>
<path d="M12.5249 18.7634C12.5249 19.2476 12.9172 19.6398 13.4012 19.6398H29.584C30.0681 19.6395 30.4601 19.2475 30.4604 18.7634C30.4611 18.2834 30.0708 17.8864 29.584 17.8865H13.4012C12.9178 17.8866 12.5248 18.2797 12.5249 18.7634Z" fill="#F9C744"/>
<path d="M21.4924 20.9307C22.2204 20.9307 22.8105 21.5208 22.8105 22.2487V23.5668H20.1743V22.2487C20.1744 21.5208 20.7645 20.9307 21.4924 20.9307Z" fill="#DEB36F"/>
<path d="M29.7061 22.2485V23.5666C30.8907 23.5946 31.9152 22.8119 32.2355 21.7285C31.662 20.4316 29.7275 20.8105 29.7061 22.2485Z" fill="#DEB36F"/>
<path d="M27.8469 20.9307C28.5748 20.9307 29.1649 21.5208 29.1649 22.2487V23.5668H26.5288V22.2487C26.5288 21.5208 27.1189 20.9307 27.8469 20.9307Z" fill="#DEB36F"/>
<path d="M24.6697 20.9307C25.3977 20.9307 25.9877 21.5208 25.9877 22.2487V23.5668H23.3516V22.2487C23.3516 21.5208 23.9417 20.9307 24.6697 20.9307Z" fill="#DEB36F"/>
<path d="M18.3152 20.9307C19.0432 20.9307 19.6332 21.5208 19.6332 22.2487V23.5668H16.9971V22.2487C16.9971 21.5208 17.5872 20.9307 18.3152 20.9307Z" fill="#DEB36F"/>
<path d="M15.1379 20.9307C15.8659 20.9307 16.456 21.5208 16.456 22.2487V23.5668H13.8198V22.2487C13.8199 21.5208 14.41 20.9307 15.1379 20.9307Z" fill="#DEB36F"/>
<path d="M10.7495 21.7287C11.0697 22.8119 12.0944 23.5948 13.279 23.5667V22.2487C13.2575 20.81 11.3226 20.4324 10.7495 21.7287Z" fill="#DEB36F"/>
<path d="M20.1748 22.2485V22.4888H22.8109V22.2485C22.8109 21.5206 22.2208 20.9304 21.4929 20.9304C20.7649 20.9304 20.1748 21.5206 20.1748 22.2485Z" fill="#FBD9A3"/>
<path d="M26.5283 22.2484V22.4787C27.4453 22.4286 28.3081 22.1778 29.0743 21.769C28.5343 20.4315 26.5519 20.7863 26.5283 22.2484Z" fill="#FBD9A3"/>
<path d="M23.3511 22.2485V22.4888H25.9872V22.2485C25.9872 21.5206 25.3971 20.9304 24.6691 20.9304C23.9412 20.9304 23.3511 21.5206 23.3511 22.2485Z" fill="#FBD9A3"/>
<path d="M16.9971 22.2485V22.4888H19.6332V22.2485C19.6332 21.5206 19.0431 20.9304 18.3151 20.9304C17.5871 20.9304 16.9971 21.5206 16.9971 22.2485Z" fill="#FBD9A3"/>
<path d="M13.9097 21.7697C14.6765 22.1779 15.5393 22.4287 16.4556 22.4794V22.2486C16.4317 20.7853 14.4491 20.4325 13.9097 21.7697Z" fill="#FBD9A3"/>
<path d="M26.5283 22.2484V22.4787C27.4453 22.4286 28.3081 22.1778 29.0743 21.769C28.5343 20.4315 26.5519 20.7863 26.5283 22.2484Z" fill="#FBD9A3"/>
<path d="M23.3511 22.2485V22.4888H25.9872V22.2485C25.9872 21.5206 25.3971 20.9304 24.6691 20.9304C23.9412 20.9304 23.3511 21.5206 23.3511 22.2485Z" fill="#FBD9A3"/>
<path d="M20.1748 22.2485V22.4888H22.8109V22.2485C22.8109 21.5206 22.2208 20.9304 21.4929 20.9304C20.7649 20.9304 20.1748 21.5206 20.1748 22.2485Z" fill="#FBD9A3"/>
<path d="M16.9971 22.2485V22.4888H19.6332V22.2485C19.6332 21.5206 19.0431 20.9304 18.3151 20.9304C17.5871 20.9304 16.9971 21.5206 16.9971 22.2485Z" fill="#FBD9A3"/>
<path d="M13.9097 21.7697C14.6765 22.1779 15.5393 22.4287 16.4556 22.4794V22.2486C16.4317 20.7853 14.4491 20.4325 13.9097 21.7697Z" fill="#FBD9A3"/>
<path d="M27.1997 16.7912C27.2024 19.1786 30.566 19.398 30.8864 17.0462C30.5353 16.8756 30.1323 16.784 29.7174 16.7912C29.7515 17.7739 28.3435 17.7719 28.3775 16.7912H27.1997Z" fill="#B26E2B"/>
<path d="M22.5283 16.7913V18.6847C22.5283 19.7035 23.357 20.5322 24.3758 20.5322C25.3946 20.5322 26.2233 19.7035 26.2233 18.6847V16.7913H25.0454V18.6847C25.0454 19.054 24.745 19.3543 24.3758 19.3543C24.0065 19.3543 23.7062 19.0539 23.7062 18.6847V16.7913H22.5283Z" fill="#B26E2B"/>
<path d="M17.5518 16.7913V18.2212C17.5518 19.24 18.3804 20.0687 19.3993 20.0687C20.4181 20.0687 21.2467 19.2401 21.2467 18.2212V16.7913H20.0689V18.2212C20.0689 18.5905 19.7685 18.8908 19.3993 18.8908C19.03 18.8908 18.7296 18.5904 18.7296 18.2212V16.7913H17.5518Z" fill="#B26E2B"/>
<path d="M12.2974 16.9615C12.5249 19.3827 15.9794 19.2292 15.9894 16.7913H14.8115C14.8444 17.7741 13.4392 17.7735 13.4723 16.7913C13.076 16.7781 12.6535 16.8154 12.2974 16.9615Z" fill="#B26E2B"/>
<path d="M27.5103 17.8867C28.1035 18.8098 29.4721 18.9919 30.283 18.2348C30.1228 18.0234 29.8696 17.8867 29.5839 17.8867H27.5103Z" fill="#C68132"/>
<path d="M22.5283 17.8867V18.6848C22.5283 19.034 22.6261 19.3615 22.7951 19.64H25.9565C26.1256 19.3614 26.2233 19.034 26.2233 18.6848V17.8867H25.0454V18.6848C25.0454 19.0541 24.745 19.3544 24.3758 19.3544C24.0065 19.3544 23.7062 19.054 23.7062 18.6848V17.8867H22.5283Z" fill="#C68132"/>
<path d="M17.5518 17.8867V18.2212C17.5518 18.7908 17.8109 19.3008 18.2172 19.64H20.5812C20.9876 19.3008 21.2467 18.7908 21.2467 18.2212V17.8867H20.0688V18.2212C20.0688 18.5905 19.7684 18.8909 19.3992 18.8909C19.0299 18.8909 18.7296 18.5905 18.7296 18.2212V17.8867H17.5518Z" fill="#C68132"/>
<path d="M12.7983 18.1282C13.5907 18.9948 15.0449 18.8651 15.6783 17.8867H13.4015C13.1676 17.8868 12.955 17.9787 12.7983 18.1282Z" fill="#C68132"/>
<path d="M29.7163 16.7915H25.0444C25.0444 14.3665 24.6499 12.2665 20.9429 12.2665C21.1284 11.2885 21.5769 8.92502 21.7577 7.9751C26.9165 8.01549 29.8287 11.7239 29.7163 16.7915Z" fill="#F39E22"/>
<path d="M27.8016 16.7915H25.0444C25.0444 14.3665 24.6499 12.2665 20.9429 12.2665L21.4702 9.48755C25.4998 9.99044 27.4334 12.7428 27.8016 16.7915Z" fill="#DD8C29"/>
<path d="M25.6159 8.86426L25.2745 9.67676C25.1315 10.0174 24.7386 10.1775 24.3979 10.0346C24.0573 9.8916 23.8971 9.49863 24.0401 9.15801L24.3714 8.36895C23.962 8.24473 23.569 8.15801 23.2081 8.09863L22.9542 8.70176C22.2889 10.2542 23.9567 11.8246 25.4643 11.0782C25.8542 10.8893 26.18 10.5634 26.3604 10.1329L26.6339 9.48293C26.3018 9.24004 25.9596 9.03535 25.6159 8.86426Z" fill="#B26E2B"/>
<path d="M29.3537 13.6728L28.5904 13.9501C28.2428 14.0767 27.8584 13.897 27.7319 13.5501C27.6053 13.2032 27.785 12.8181 28.1326 12.6915L28.9248 12.404C28.7615 12.0204 28.5764 11.6704 28.374 11.3501L27.7295 11.5845C27.2975 11.7415 26.9584 12.0454 26.7498 12.4188C25.9137 13.8916 27.4017 15.6474 28.9928 15.0571L29.5858 14.8415C29.5264 14.4282 29.449 14.0384 29.3537 13.6728Z" fill="#B26E2B"/>
<path d="M21.7945 10.6619C21.6239 11.9639 20.4649 12.9643 19.1609 12.9525H10.9469C9.50466 12.9525 8.32966 11.8041 8.28904 10.3705C8.2563 9.40121 8.78419 8.46246 9.62498 7.98769C9.85935 7.85253 10.1172 7.75253 10.3929 7.69394L12.6633 7.20956L18.6062 5.94238C20.2609 5.58925 21.8195 6.85097 21.8195 8.54238C21.8164 8.82128 21.8383 10.4213 21.7945 10.6619Z" fill="#DD8C29"/>
<path d="M21.8196 8.54237V10.2939C21.8251 11.0463 21.4852 11.783 20.9438 12.2666C20.6462 12.5353 20.2868 12.7385 19.8899 12.851L11.8258 11.5096C10.1923 11.2517 9.1446 9.55956 9.62507 7.98769C9.85944 7.85253 10.1173 7.75253 10.393 7.69394L17.4704 6.18456L18.6063 5.94238C20.261 5.58925 21.8196 6.85097 21.8196 8.54237Z" fill="#F39E22"/>
<path d="M20.9438 12.2665C20.4562 12.706 19.8225 12.9534 19.1609 12.9524H10.9469C9.50469 12.9524 8.32969 11.804 8.28906 10.3704C9.81211 10.1618 15.2751 9.41673 16.8836 9.19696C18.5555 8.96251 20.1578 9.97634 20.6898 11.5345L20.9438 12.2665Z" fill="#DEB36F"/>
<path d="M20.9433 12.2665C20.4879 12.6791 19.8601 12.8461 19.2541 12.7452L11.8254 11.5095C10.9723 11.3673 10.2746 10.8493 9.87695 10.1532C10.0149 10.1313 16.5609 9.24329 16.8831 9.19696C18.5551 8.96251 20.1573 9.97634 20.6894 11.5345L20.9433 12.2665Z" fill="#FBD9A3"/>
<path d="M21.8199 8.54238V9.16426C19.8387 9.16269 18.1465 7.92754 17.4707 6.18457L18.6066 5.94238C20.2613 5.58925 21.8199 6.85097 21.8199 8.54238Z" fill="#F9C744"/>
<path d="M12.6634 7.20947C12.0725 8.33392 10.2946 8.9908 8.8501 8.66103C9.2283 8.16939 9.77893 7.82424 10.3931 7.69385L12.6634 7.20947Z" fill="#F9C744"/>
<path d="M9.64904 10.3969C9.44772 10.1956 9.44772 9.8691 9.64904 9.66778L10.2758 9.04098C10.7724 8.57403 11.4721 9.27332 11.005 9.77012L10.3782 10.3969C10.1769 10.5982 9.85037 10.5982 9.64904 10.3969Z" fill="#3E4E60"/>
<path d="M12.3339 9.81736C14.2759 9.55299 16.6907 9.22471 16.8833 9.19705C17.3104 9.13713 17.7327 9.15916 18.134 9.25041C18.3502 8.05073 17.2568 6.96456 16.0546 7.19784C15.7694 7.26588 13.5592 7.60932 13.3476 7.73948C12.5664 8.07416 12.1057 8.96401 12.3339 9.81736Z" fill="#DD8C29"/>
<path d="M16.9341 8.85055C17.0396 9.4136 16.6652 9.97024 16.0888 10.0748L14.7239 10.3241C14.1519 10.4284 13.6043 10.0498 13.5003 9.4779C13.3922 8.90446 13.7872 8.35149 14.3458 8.25446L15.7107 8.00509C16.2822 7.90071 16.8303 8.27954 16.9341 8.85055Z" fill="#53B976"/>
<path d="M16.934 8.85056C16.9685 9.03962 16.9503 9.22642 16.8904 9.39462C16.7744 9.46884 15.4547 9.67571 15.2945 9.71399C14.509 9.86954 13.8353 9.06782 14.1146 8.32446C14.2315 8.24962 15.5498 8.04384 15.7106 8.00509C16.282 7.90071 16.8302 8.27954 16.934 8.85056Z" fill="#78C795"/>
<path d="M15.6887 8.57387L15.867 9.54989C15.9026 9.74512 15.7724 9.94231 15.5711 9.97802L15.173 10.0507C14.9731 10.0872 14.7813 9.95473 14.7449 9.75489L14.5666 8.77887C14.5301 8.57903 14.6628 8.38801 14.8626 8.35153L15.2607 8.2788C15.4606 8.24223 15.6522 8.37403 15.6887 8.57387Z" fill="#3E4E60"/>
<path d="M15.6891 8.57368L15.8674 9.5497C15.871 9.5697 15.873 9.58915 15.8725 9.60829L15.5167 9.67329C15.3176 9.70962 15.1258 9.57712 15.0895 9.37806L14.9111 8.40126C14.9075 8.38204 14.9056 8.36259 14.9053 8.34353L15.2611 8.27853C15.461 8.24204 15.6526 8.37384 15.6891 8.57368Z" fill="#2E3140"/>
<path d="M16.0932 8.51569L15.29 8.66241C14.8686 8.7528 14.9808 9.36843 15.4072 9.30406L16.2104 9.15734C16.6319 9.06687 16.5197 8.45132 16.0932 8.51569Z" fill="white"/>
<path d="M14.0538 12.2652C13.2069 12.2652 12.6609 12.1427 12.0829 12.013C11.3053 11.8387 10.4241 11.641 8.51399 11.641C8.1572 11.6317 8.1486 11.1063 8.51399 11.0941C10.4847 11.0941 11.3974 11.2988 12.2026 11.4795C12.774 11.6076 13.2674 11.7183 14.0538 11.7183C14.4594 11.7183 15.1988 11.2677 15.9138 10.8319C17.5956 9.7707 19.7718 8.57164 20.6616 10.8172C20.717 10.9577 20.648 11.1165 20.5075 11.1718C20.3671 11.2273 20.2082 11.1583 20.1528 11.0177C19.9653 10.542 19.7107 10.2559 19.3746 10.143C17.9871 9.64359 15.449 12.2079 14.0538 12.2652Z" fill="#B26E2B"/>
<path d="M8.62696 11.615C8.08782 11.8704 7.65719 12.0782 7.18399 12.3368C6.11219 13.344 6.55039 16.1484 6.84578 17.115C6.93922 17.4605 6.43367 17.6137 6.32149 17.2689C6.04508 16.4061 5.71891 14.1614 6.19258 12.9642C5.29727 13.6423 4.8543 14.4212 4.71367 15.7361C4.67852 16.0626 4.66211 16.4228 4.66211 16.822C4.66211 16.9736 4.53945 17.0954 4.38867 17.0954C4.23711 17.0954 4.11523 16.9736 4.11523 16.822C4.11523 16.3618 4.13711 15.9486 4.1832 15.5736C4.42461 13.5954 5.33086 12.6962 7.18633 11.7173C7.55117 11.5243 7.95352 11.3282 8.39414 11.1204C8.53008 11.0556 8.69336 11.1142 8.75821 11.2509C8.82227 11.3876 8.76368 11.5501 8.62696 11.615Z" fill="#EE6781"/>
<path d="M7.51982 12.1579C6.44123 12.5839 6.42943 14.471 6.54014 15.4673C6.37451 15.5563 6.19717 15.629 6.01123 15.6821C5.90842 14.8186 5.90021 13.8031 6.19248 12.9642C5.24076 13.6652 4.82811 14.5697 4.71357 15.736C4.52842 15.7001 4.35107 15.6446 4.18311 15.5735C4.38092 13.6391 5.43451 12.6101 7.18623 11.7173C7.31357 11.8517 7.42607 11.9993 7.51982 12.1579Z" fill="#F4829B"/>
<path d="M6.98799 12.5783C6.67861 13.0275 6.54346 13.6197 6.50518 14.2268C6.34189 14.3369 6.15439 14.4244 5.94814 14.4854C5.95908 13.9674 6.02705 13.44 6.19268 12.9643C5.60283 13.4111 5.20908 13.9018 4.96924 14.5604C4.78096 14.5369 4.60205 14.4908 4.43799 14.426C4.79424 13.3986 5.46455 12.7283 6.52783 12.0869C6.72314 12.2229 6.88096 12.39 6.98799 12.5783Z" fill="#FF9FB4"/>
</svg>
