<svg width="40" height="40" viewBox="0 0 40 40" fill="none" xmlns="http://www.w3.org/2000/svg">
<path d="M20 40C31.0457 40 40 31.0457 40 20C40 8.9543 31.0457 0 20 0C8.9543 0 0 8.9543 0 20C0 31.0457 8.9543 40 20 40Z" fill="#EA792E"/>
<path d="M33.5447 15.8815V22.6663H8.83842C7.83295 22.6663 6.92232 22.2584 6.2635 21.5996C6.1117 21.4478 5.97373 21.2831 5.85045 21.1072C5.50381 20.6105 5.27787 20.0224 5.2149 19.3869C5.20287 19.2679 5.19678 19.1471 5.19678 19.0247C5.19678 17.3156 6.38506 15.8402 8.04764 15.4703C8.06834 15.4651 8.0899 15.4607 8.11146 15.4564L23.0676 12.4116L28.0544 11.3967C29.372 11.1285 30.6508 11.4518 31.6416 12.1659C32.4298 12.7342 33.036 13.5481 33.3361 14.5071C33.4715 14.939 33.5447 15.4003 33.5447 15.8815Z" fill="#50755C"/>
<path d="M33.5444 22.6658V24.5551C33.5444 26.1289 32.7373 27.4862 31.5377 28.2769C30.6358 28.8719 29.5121 29.1444 28.3445 28.9462L27.6737 28.8323L26.6742 28.6625L22.8102 28.0054L21.8116 27.8364L17.9466 27.1793L16.948 27.0094L13.084 26.3532L12.0845 26.1833L11.7612 26.1281C10.5358 25.9194 9.54844 25.0916 9.10008 23.9982C8.93109 23.5851 8.83789 23.135 8.83789 22.6659H33.5444V22.6658Z" fill="#DAAB42"/>
<path d="M8.18904 16.3432C8.18904 17.9014 6.89295 19.188 5.2149 19.3864C5.20287 19.2674 5.19678 19.1466 5.19678 19.0242C5.19678 17.315 6.38506 15.8396 8.04764 15.4697C8.1399 15.7465 8.18904 16.0396 8.18904 16.3432Z" fill="#53B976"/>
<path d="M23.7595 16.1809C23.9271 16.8613 23.723 17.5457 23.2766 18.0205C23.0227 18.2929 22.6897 18.495 22.3024 18.5905L19.6495 19.244C19.1151 19.3756 18.5794 19.2787 18.1429 19.0147C17.7063 18.7507 17.3716 18.3213 17.2399 17.787C16.9938 16.7881 17.5489 15.7792 18.4964 15.438C18.5612 15.4142 18.6282 15.3943 18.6969 15.3774L21.3498 14.7238C21.8832 14.5924 22.4199 14.6892 22.8565 14.9531C23.292 15.2174 23.6278 15.6466 23.7595 16.1809Z" fill="#528F66"/>
<path d="M23.7592 16.1808C23.9268 16.8613 23.7227 17.5456 23.2763 18.0204C21.0457 18.3881 18.9589 17.2893 18.4961 15.438C18.5609 15.4142 18.6279 15.3943 18.6966 15.3774L21.3495 14.7238C21.8829 14.5924 22.4196 14.6892 22.8562 14.9531C23.2917 15.2174 23.6275 15.6465 23.7592 16.1808Z" fill="#53B976"/>
<path d="M23.0301 16.3608C23.2014 17.056 22.7761 17.7579 22.0819 17.9289L19.5391 18.5553C19.191 18.6411 18.842 18.5778 18.5585 18.4064C18.2749 18.2349 18.0568 17.9553 17.971 17.6071C17.8 16.913 18.224 16.2103 18.9192 16.039L21.462 15.4126C21.8091 15.3271 22.158 15.3904 22.4416 15.5619C22.7265 15.7341 22.9447 16.0137 23.0301 16.3608Z" fill="#F9C744"/>
<path d="M21.4881 17.3781C21.4881 17.717 21.2941 18.0292 20.9879 18.1775C20.9319 18.2051 20.8733 18.2266 20.8103 18.2422C20.3326 18.3603 19.8497 18.0679 19.7315 17.5902L19.5384 16.8038C19.4203 16.3261 19.7126 15.8432 20.1903 15.7259C20.4015 15.6742 20.6128 15.7018 20.7939 15.7906C21.0233 15.9019 21.2026 16.1114 21.2682 16.3779L21.4622 17.1643C21.4794 17.2358 21.4881 17.3074 21.4881 17.3781Z" fill="#2E3140"/>
<path d="M7.14564 18.7861C6.83361 18.4741 6.83361 17.9682 7.14564 17.6563L7.47463 17.3273C7.78666 17.0153 8.29252 17.0153 8.60447 17.3273C8.91651 17.6393 8.91651 18.1452 8.60447 18.4571L8.27549 18.7861C7.96354 19.0981 7.45768 19.0981 7.14564 18.7861Z" fill="#2E3140"/>
<path d="M21.4884 17.378C21.4884 17.7169 21.2945 18.0291 20.9883 18.1774C20.758 18.067 20.5778 17.8575 20.5123 17.5901L20.3191 16.8037C20.2165 16.3881 20.4244 15.969 20.7943 15.7905C21.0237 15.9018 21.203 16.1113 21.2686 16.3778L21.4626 17.1642C21.4798 17.2358 21.4884 17.3073 21.4884 17.378Z" fill="#3F5D77"/>
<path d="M21.8952 15.9468L20.4049 16.314C20.1138 16.3857 19.9359 16.6798 20.0076 16.9709C20.0793 17.262 20.3734 17.4399 20.6645 17.3682L22.1549 17.001C22.446 16.9293 22.6238 16.6352 22.5522 16.3441C22.4805 16.0529 22.1863 15.8751 21.8952 15.9468Z" fill="#CDE6F6"/>
<path d="M33.5445 15.881V22.6658H29.4649C27.2117 22.6658 25.3853 20.8394 25.3853 18.5862C25.3853 17.9136 25.5482 17.2789 25.8371 16.7202C26.0311 16.3425 26.2821 15.9992 26.5804 15.7017C27.3185 14.9628 28.3387 14.5066 29.4649 14.5066H33.3358C33.4712 14.9385 33.5445 15.3999 33.5445 15.881Z" fill="#528F66"/>
<path d="M33.5443 15.881V18.931H29.4646C27.8849 18.931 26.5146 18.0333 25.8369 16.7199C26.0309 16.3422 26.2818 15.999 26.5802 15.7015C27.3183 14.9625 28.3385 14.5063 29.4646 14.5063H33.3356C33.471 14.9385 33.5443 15.3998 33.5443 15.881Z" fill="#53B976"/>
<path d="M22.3183 19.6243C23.3854 19.6243 24.2504 20.4893 24.2504 21.5563V22.6655H20.3862V21.5563C20.3863 20.4893 21.2513 19.6243 22.3183 19.6243Z" fill="#528F66"/>
<path d="M17.455 19.6243C18.522 19.6243 19.387 20.4893 19.387 21.5563V22.6655H15.5229V21.5563C15.5229 20.4893 16.3879 19.6243 17.455 19.6243Z" fill="#528F66"/>
<path d="M12.5913 19.6243C13.6583 19.6243 14.5233 20.4893 14.5233 21.5563V22.6655H10.6592V21.5563C10.6593 20.4893 11.5243 19.6243 12.5913 19.6243Z" fill="#528F66"/>
<path d="M9.66072 21.5577V22.6667H8.83807C7.8326 22.6667 6.92197 22.2588 6.26314 21.5999C6.11135 21.4482 5.97338 21.2834 5.8501 21.1076C6.05189 20.2574 6.81674 19.6252 7.72822 19.6252C8.7958 19.6252 9.66072 20.4901 9.66072 21.5577Z" fill="#528F66"/>
<path d="M9.02734 15.2694L9.24469 16.4167C9.48461 17.6831 10.682 18.5338 11.9568 18.3437L12.6416 18.2416C15.0576 17.8812 16.9588 15.992 17.3346 13.5784L9.02734 15.2694Z" fill="#528F66"/>
<path d="M10.1772 15.0354L10.3668 16.0129C10.4612 16.4998 10.9348 16.8159 11.4207 16.7163L13.6937 16.2503C14.568 16.0711 15.311 15.4991 15.7079 14.6996L16.1441 13.8208L10.1772 15.0354Z" fill="#53B976"/>
<path d="M31.6414 12.1654C31.3612 12.5034 30.968 12.7482 30.5101 12.8362L25.3181 13.8347C24.31 14.0287 23.3244 13.4053 23.0674 12.4111L28.0542 11.3961C29.3718 11.128 30.6506 11.4514 31.6414 12.1654Z" fill="#53B976"/>
<path d="M31.5384 25.6182V28.2767C30.6364 28.8717 29.5128 29.1442 28.3452 28.9459L27.6743 28.8321V25.6182C27.6743 24.5515 28.5392 23.6858 29.6067 23.6858C30.1396 23.6858 30.6225 23.9022 30.9727 24.2524C31.322 24.6016 31.5384 25.0845 31.5384 25.6182Z" fill="#F9C744"/>
<path d="M26.6751 25.6182V28.6622L22.811 28.0051V25.6182C22.811 24.5515 23.6768 23.6858 24.7435 23.6858C25.2764 23.6858 25.7592 23.9022 26.1094 24.2524C26.4586 24.6016 26.6751 25.0845 26.6751 25.6182Z" fill="#F9C744"/>
<path d="M21.8122 25.6182V27.8361L17.9473 27.179V25.6182C17.9473 24.5515 18.813 23.6858 19.8797 23.6858C20.4126 23.6858 20.8964 23.9022 21.2456 24.2524C21.5958 24.6016 21.8122 25.0845 21.8122 25.6182Z" fill="#F9C744"/>
<path d="M16.949 25.6182V27.0092L13.085 26.3529V25.6182C13.085 24.5515 13.9499 23.6858 15.0165 23.6858C15.5494 23.6858 16.0332 23.9022 16.3825 24.2524C16.7326 24.6016 16.949 25.0845 16.949 25.6182Z" fill="#F9C744"/>
<path d="M12.0855 25.6183V26.1831L11.7622 26.1279C10.5368 25.9192 9.54943 25.0914 9.10107 23.998C9.40373 23.8005 9.76506 23.6858 10.1531 23.6858C10.6869 23.6858 11.1697 23.9022 11.5199 24.2524C11.869 24.6016 12.0855 25.0845 12.0855 25.6183Z" fill="#F9C744"/>
</svg>
