<svg width="40" height="40" viewBox="0 0 40 40" fill="none" xmlns="http://www.w3.org/2000/svg">
<path d="M40 20C40 31.0458 31.0455 40 20 40C8.95416 40 0 31.0458 0 20C0 8.95447 8.95416 0 20 0C31.0455 0 40 8.95447 40 20Z" fill="#673389"/>
<path d="M33.0314 13.0316C33.0314 18.9954 29.025 24.0237 23.5569 25.5713C22.4262 25.8917 21.2333 26.0626 20.0004 26.0626C12.8031 26.0626 6.96875 20.2283 6.96875 13.0316C6.96844 5.83435 12.8028 0 20.0004 0C21.2333 0 22.4259 0.170898 23.5569 0.491333C29.0247 2.03918 33.0314 7.06726 33.0314 13.0316Z" fill="#151A1C"/>
<path d="M33.0311 13.0315C33.0311 18.9952 29.0248 24.0236 23.5566 25.5712C18.0882 24.0242 14.0815 18.9952 14.0815 13.0315C14.0815 7.06714 18.0882 2.03906 23.5566 0.491211C29.0245 2.03906 33.0311 7.06714 33.0311 13.0315Z" fill="#2F373B"/>
<path d="M29.8531 35.1234V37.4082C27.1227 38.9576 23.9913 39.8826 20.6533 39.9894C20.436 39.9967 20.219 40.0001 20.0002 40.0001C19.7814 40.0001 19.5635 39.9967 19.3471 39.9894C17.4688 39.929 15.6566 39.6097 13.9431 39.0662C12.6125 38.6442 11.3414 38.0857 10.147 37.4082V35.1234C10.147 31.2238 13.1505 28.0244 16.9716 27.7158C17.1724 27.6996 17.3748 27.6914 17.5798 27.6914H22.4196C22.9921 27.6914 23.5488 27.7552 24.0834 27.8776C27.3879 28.6335 29.8531 31.5909 29.8531 35.1234Z" fill="#DD104F"/>
<path d="M29.8534 35.1234V37.4082C27.4492 38.7723 24.735 39.6522 21.8419 39.9152C21.2355 39.9714 20.6209 40.0001 20.0005 40.0001C19.3792 40.0001 18.7645 39.9714 18.1578 39.9158C16.7025 39.7828 15.2919 39.4941 13.9434 39.0662V35.1234C13.9434 31.0187 17.2713 27.6914 21.3768 27.6914H22.4199C26.5261 27.6914 29.8534 31.0187 29.8534 35.1234Z" fill="#F73B6C"/>
<path d="M20.6533 29.6106V39.9893C20.436 39.9966 20.2191 40 20.0002 40C19.7814 40 19.5635 39.9966 19.3472 39.9893V29.6106H20.6533Z" fill="#DD104F"/>
<path d="M19.9993 30.734L16.653 32.5934L15.6353 27.8589L17.7144 26.6343" fill="#F2EFEA"/>
<path d="M19.9995 30.734L23.3455 32.5934L24.3635 27.8589L22.2844 26.6343" fill="#F2EFEA"/>
<path d="M12.7254 19.4949C12.7254 20.7227 11.8288 21.7404 10.6545 21.9293C10.5263 21.9501 10.3942 21.9611 10.2596 21.9611C8.89728 21.9611 7.79346 20.8572 7.79346 19.4949C7.79346 18.1326 8.89728 17.0288 10.2596 17.0288C10.3942 17.0288 10.5263 17.0398 10.6545 17.0605C11.8288 17.2495 12.7254 18.2675 12.7254 19.4949Z" fill="#D39272"/>
<path d="M12.7252 19.4949C12.7252 20.7227 11.8286 21.7404 10.6543 21.9293C10.441 21.1539 10.3271 20.3375 10.3271 19.4949C10.3271 18.6523 10.441 17.8363 10.6543 17.0605C11.8286 17.2495 12.7252 18.2675 12.7252 19.4949Z" fill="#BF7C5E"/>
<path d="M11.1406 19.4949C11.1406 19.9816 10.746 20.3762 10.2593 20.3762C9.77252 20.3762 9.37793 19.9816 9.37793 19.4949C9.37793 19.0081 9.77252 18.6135 10.2593 18.6135C10.746 18.6135 11.1406 19.0081 11.1406 19.4949Z" fill="#BF7C5E"/>
<path d="M27.2734 19.4949C27.2734 20.7227 28.17 21.7404 29.3444 21.9293C29.4728 21.9501 29.6047 21.9611 29.7396 21.9611C31.1019 21.9611 32.2054 20.8572 32.2054 19.4949C32.2054 18.1326 31.1019 17.0288 29.7396 17.0288C29.6047 17.0288 29.4728 17.0398 29.3444 17.0605C28.17 17.2495 27.2734 18.2675 27.2734 19.4949Z" fill="#D39272"/>
<path d="M27.2734 19.4949C27.2734 20.7227 28.17 21.7404 29.3444 21.9293C29.5577 21.1539 29.6718 20.3375 29.6718 19.4949C29.6718 18.6523 29.558 17.8363 29.3444 17.0605C28.17 17.2495 27.2734 18.2675 27.2734 19.4949Z" fill="#BF7C5E"/>
<path d="M30.6211 19.4949C30.6211 19.9816 30.2265 20.3762 29.7397 20.3762C29.253 20.3762 28.8584 19.9816 28.8584 19.4949C28.8584 19.0081 29.253 18.6135 29.7397 18.6135C30.2265 18.6135 30.6211 19.0081 30.6211 19.4949Z" fill="#BF7C5E"/>
<path d="M22.6513 24.8286V28.0827C22.6513 29.2741 21.8658 30.2812 20.7836 30.6157C20.5361 30.6926 20.2722 30.7341 19.999 30.7341C18.5348 30.7341 17.3477 29.5472 17.3477 28.0827V24.8286H22.6513Z" fill="#BF7C5E"/>
<path d="M22.6514 27.8765V28.0825C22.6514 29.2739 21.8658 30.2809 20.7837 30.6154C19.8074 30.3154 19.0735 29.4664 18.938 28.4279C19.115 28.4386 19.2932 28.4441 19.472 28.4441C19.9738 28.4441 20.4657 28.4044 20.9448 28.3257C21.535 28.2308 22.1054 28.0788 22.6514 27.8765Z" fill="#D39272"/>
<path d="M29.1754 18.1845C29.1754 22.7502 25.8398 26.5378 21.4724 27.2409C20.9933 27.3199 20.5016 27.359 19.9996 27.359C14.9319 27.359 10.8242 23.2513 10.8242 18.1845C10.8242 16.4636 11.2975 14.8529 12.123 13.4766H27.8765C28.7017 14.8529 29.1754 16.4636 29.1754 18.1845Z" fill="#BF7C5E"/>
<path d="M29.1749 18.1845C29.1749 22.7502 25.8394 26.5378 21.472 27.2409C17.1046 26.5378 13.769 22.7502 13.769 18.1845C13.769 16.4636 14.2427 14.8529 15.0679 13.4766H27.8761C28.5527 14.6057 28.9937 15.8923 29.1298 17.2693C29.1594 17.5705 29.1749 17.876 29.1749 18.1845Z" fill="#D39272"/>
<path d="M9.59961 10.2932H12.1347V17.0947H9.59961V10.2932Z" fill="#151A1C"/>
<path d="M27.8193 10.2932H30.3544V17.0947H27.8193V10.2932Z" fill="#2F373B"/>
<path d="M26.2448 20.5936C26.2448 21.2247 25.733 21.7361 25.1019 21.7361C24.4708 21.7361 23.959 21.2247 23.959 20.5936C23.959 19.9622 24.4708 19.4507 25.1019 19.4507C25.733 19.4507 26.2448 19.9622 26.2448 20.5936Z" fill="#BF7C5E"/>
<path d="M16.0406 20.5936C16.0406 21.2247 15.5292 21.7361 14.8978 21.7361C14.2667 21.7361 13.7549 21.2247 13.7549 20.5936C13.7549 19.9622 14.2667 19.4507 14.8978 19.4507C15.5292 19.4507 16.0406 19.9622 16.0406 20.5936Z" fill="#BF7C5E"/>
<path d="M24.9272 17.4098C24.9272 16.5681 24.2451 15.8857 23.4034 15.8857C22.5618 15.8857 21.8794 16.5681 21.8794 17.4098" fill="#BF7C5E"/>
<path d="M18.121 17.4098C18.121 16.5681 17.4387 15.8857 16.597 15.8857C15.7556 15.8857 15.0732 16.5681 15.0732 17.4098" fill="#BF7C5E"/>
<path d="M17.6378 18.0585C17.6378 18.6332 17.1718 19.0992 16.5971 19.0992C16.0222 19.0992 15.5562 18.6332 15.5562 18.0585C15.5562 17.4836 16.0222 17.0176 16.5971 17.0176C17.1718 17.0176 17.6378 17.4836 17.6378 18.0585Z" fill="#2F373B"/>
<path d="M24.4439 18.0585C24.4439 18.6332 23.9779 19.0992 23.4033 19.0992C22.8283 19.0992 22.3623 18.6332 22.3623 18.0585C22.3623 17.4836 22.8283 17.0176 23.4033 17.0176C23.9779 17.0176 24.4439 17.4836 24.4439 18.0585Z" fill="#2F373B"/>
<path d="M21.0408 20.6789H18.9592C18.7111 20.6789 18.5103 20.4778 18.5103 20.2297C18.5103 19.9819 18.7111 19.7808 18.9592 19.7808H21.0408C21.2889 19.7808 21.4897 19.9819 21.4897 20.2297C21.4897 20.4778 21.2889 20.6789 21.0408 20.6789Z" fill="#BF7C5E"/>
<path d="M19.9999 23.5195C19.2315 23.5195 18.4634 23.3269 17.763 22.9418C17.5653 22.8335 17.4932 22.5851 17.6019 22.3876C17.7105 22.1902 17.9586 22.1182 18.1561 22.2265C19.3106 22.8613 20.689 22.8613 21.8435 22.2265C22.041 22.1182 22.2891 22.1899 22.3977 22.3876C22.5064 22.5851 22.4343 22.8335 22.2366 22.9418C21.5365 23.3269 20.7681 23.5195 19.9999 23.5195Z" fill="#BF7C5E"/>
<path d="M17.4257 17.8749C17.4257 18.1212 17.2258 18.3207 16.9796 18.3207C16.7333 18.3207 16.5337 18.1212 16.5337 17.8749C16.5337 17.6286 16.7333 17.4287 16.9796 17.4287C17.2258 17.4287 17.4257 17.6286 17.4257 17.8749Z" fill="white"/>
<path d="M24.2828 17.8749C24.2828 18.1212 24.0833 18.3207 23.837 18.3207C23.5907 18.3207 23.3911 18.1212 23.3911 17.8749C23.3911 17.6286 23.5907 17.4287 23.837 17.4287C24.0833 17.4287 24.2828 17.6286 24.2828 17.8749Z" fill="white"/>
<path d="M29.5783 11.6039C29.5783 12.0391 29.5472 12.4676 29.4861 12.8863C28.8386 8.42279 24.8386 4.98682 19.9995 4.98682C19.4755 4.98682 18.9619 5.02618 18.4623 5.10522C17.237 5.29382 16.0901 5.7052 15.0681 6.29388C12.6453 7.69067 10.9196 10.0857 10.5121 12.8832C10.4517 12.4651 10.4209 12.0382 10.4209 11.6039C10.4209 8.2644 12.2837 5.34113 15.0681 3.73712C16.0911 3.14783 17.2379 2.73615 18.4623 2.54755C18.9619 2.46851 19.4755 2.42944 19.9995 2.42944C25.2903 2.42944 29.5783 6.53711 29.5783 11.6039Z" fill="#FFE05C"/>
<path d="M15.0681 3.7373V6.29407C12.6453 7.69086 10.9196 10.0859 10.5121 12.8834C10.4517 12.4653 10.4209 12.0384 10.4209 11.6041C10.4209 8.26459 12.2837 5.34131 15.0681 3.7373Z" fill="#E89F18"/>
</svg>
