<svg width="40" height="40" viewBox="0 0 40 40" fill="none" xmlns="http://www.w3.org/2000/svg">
<path d="M20.0001 39.8571C30.9668 39.8571 39.8571 30.9668 39.8571 20.0001C39.8571 9.03336 30.9668 0.143066 20.0001 0.143066C9.03336 0.143066 0.143066 9.03336 0.143066 20.0001C0.143066 30.9668 9.03336 39.8571 20.0001 39.8571Z" fill="#EE6781"/>
<path d="M22.4701 27.5134H17.5286L16.042 33.2373C15.6149 34.6575 16.6782 36.0876 18.1611 36.0876H21.8375C23.3204 36.0876 24.3837 34.6575 23.9566 33.2373L22.4701 27.5134Z" fill="#F9C744"/>
<path d="M19.5475 32.7836V34.169C19.5475 34.6543 19.039 34.972 18.6028 34.7593L17.4382 34.1913C17.1607 34.0559 17.015 33.7454 17.0881 33.4454L17.3954 32.1856C17.4961 31.7725 17.9568 31.5626 18.3346 31.7576L19.1918 32.2C19.4103 32.3126 19.5475 32.5379 19.5475 32.7836Z" fill="#FAD98F"/>
<path d="M20.4521 32.7836V34.169C20.4521 34.6543 20.9606 34.972 21.3968 34.7593L22.5614 34.1913C22.8389 34.0559 22.9847 33.7454 22.9115 33.4454L22.6043 32.1856C22.5035 31.7725 22.0429 31.5626 21.665 31.7576L20.8078 32.2C20.5893 32.3126 20.4521 32.5379 20.4521 32.7836Z" fill="#FAD98F"/>
<path d="M19.9993 31.6024C21.286 31.6024 22.4103 30.9589 22.7337 30.0374L23.4992 27.8565C23.8769 26.9271 22.9365 25.9912 21.625 25.9912H18.3735C17.0619 25.9912 16.1215 26.9271 16.4993 27.8565L17.2647 30.0374C17.5882 30.959 18.7125 31.6024 19.9993 31.6024Z" fill="#528F66"/>
<path d="M30.6771 16.3547C30.3077 17.9815 28.6153 23.873 28.5611 24.0578C28.3422 25.1807 27.3591 25.9913 26.2146 25.9913C24.9031 25.9928 23.8246 24.9275 23.8247 23.6014C23.9171 22.8065 24.4118 16.9975 24.4431 15.8984C24.4956 14.5795 25.5128 13.5085 26.8329 13.5085H28.3311C29.8343 13.5085 31.0203 14.8917 30.6771 16.3547Z" fill="#F9C744"/>
<path d="M29.9641 19.0771C29.3297 21.3934 28.5611 24.0578 28.5611 24.0578C28.3422 25.1807 27.3591 25.9913 26.2146 25.9913C25.6506 25.9913 25.1319 25.7959 24.7231 25.4688L26.4563 21.2889L29.9641 19.0771Z" fill="#3F5D77"/>
<path d="M25.2516 16.2821C24.9545 16.2865 24.8253 15.8851 25.0773 15.7173L27.6358 13.977C27.9778 13.7565 28.3155 14.2499 27.9836 14.4882L25.4252 16.2286C25.372 16.2648 25.3114 16.2821 25.2516 16.2821Z" fill="#3F5D77"/>
<path d="M25.465 17.7439C25.1682 17.7482 25.0385 17.347 25.2907 17.1791L29.2641 14.4763C29.6054 14.2559 29.9442 14.7488 29.6119 14.9875L25.6385 17.6903C25.5853 17.7266 25.5248 17.7439 25.465 17.7439Z" fill="#3F5D77"/>
<path d="M25.569 19.3161C25.2723 19.3203 25.1425 18.9192 25.3948 18.7513L29.6986 15.8236C30.0398 15.6034 30.3787 16.096 30.0464 16.3349L25.7426 19.2625C25.6893 19.2988 25.6288 19.3161 25.569 19.3161Z" fill="#3F5D77"/>
<path d="M25.0206 21.3276C24.7239 21.3318 24.5941 20.9307 24.8464 20.7628L29.1502 17.8351C29.4914 17.6149 29.8304 18.1074 29.4981 18.3463L25.1942 21.274C25.1409 21.3103 25.0805 21.3276 25.0206 21.3276Z" fill="#3F5D77"/>
<path d="M9.32279 16.3547C9.69217 17.9815 11.3846 23.873 11.4387 24.0578C11.6576 25.1807 12.6408 25.9913 13.7853 25.9913C15.0968 25.9928 16.1753 24.9275 16.1751 23.6014C16.0827 22.8065 15.588 16.9975 15.5568 15.8984C15.5042 14.5795 14.4871 13.5085 13.1669 13.5085H11.6687C10.1655 13.5085 8.97959 14.8917 9.32279 16.3547Z" fill="#F9C744"/>
<path d="M10.0361 19.0771C10.6705 21.3934 11.4391 24.0578 11.4391 24.0578C11.658 25.1807 12.6411 25.9913 13.7857 25.9913C14.3496 25.9913 14.8683 25.7959 15.2771 25.4688L13.5439 21.2889L10.0361 19.0771Z" fill="#3F5D77"/>
<path d="M14.7486 16.282C14.6888 16.282 14.6283 16.2647 14.575 16.2284L12.0167 14.4881C11.686 14.2513 12.0206 13.7557 12.3645 13.9769L14.9228 15.7172C15.1741 15.8843 15.0465 16.2866 14.7486 16.282Z" fill="#3F5D77"/>
<path d="M14.5346 17.7438C14.4748 17.7438 14.4143 17.7265 14.361 17.6902L10.3877 14.9874C10.0574 14.7511 10.3912 14.2548 10.7355 14.4762L14.7088 17.179C14.9599 17.3459 14.8327 17.7486 14.5346 17.7438Z" fill="#3F5D77"/>
<path d="M14.431 19.3161C14.3712 19.3161 14.3107 19.2987 14.2574 19.2625L9.95358 16.3348C9.62343 16.0987 9.95694 15.6022 10.3014 15.8236L14.6052 18.7512C14.8562 18.918 14.729 19.3209 14.431 19.3161Z" fill="#3F5D77"/>
<path d="M14.9793 21.3276C14.9195 21.3276 14.859 21.3102 14.8057 21.274L10.5019 18.3463C10.1718 18.1101 10.5053 17.6137 10.8497 17.8351L15.1536 20.7627C15.4045 20.9295 15.2775 21.3323 14.9793 21.3276Z" fill="#3F5D77"/>
<path d="M27.072 17.4488C26.8071 19.1019 26.1935 22.9354 25.9355 24.5471C25.6109 26.5702 23.8653 28.0592 21.8162 28.0592H18.1848C16.1356 28.0592 14.3896 26.5703 14.0655 24.5471L13.6692 22.0726L12.9284 17.4488C12.5228 14.9142 14.4804 12.6172 17.0477 12.6172H22.9533C25.5199 12.6171 27.4782 14.9142 27.072 17.4488Z" fill="#53B976"/>
<path d="M27.072 17.4479L26.3541 21.9307C22.6835 23.5036 17.4017 23.5601 13.6692 22.0716L12.9284 17.4478C12.5228 14.9132 14.4804 12.6162 17.0477 12.6162H22.9533C25.5199 12.6162 27.4782 14.9133 27.072 17.4479Z" fill="#78C795"/>
<path d="M22.8348 14.0288H17.1655C13.7147 14.1677 13.7128 19.0928 17.1655 19.2325H22.8348C26.2857 19.0936 26.2875 14.1684 22.8348 14.0288Z" fill="#9ACDAE"/>
<path d="M20.7987 15.3656H19.2007C16.7691 15.3656 14.8403 13.6661 14.9868 11.6532L15.339 6.80347C15.3919 6.07737 15.7087 5.4137 16.2098 4.87581C16.9838 4.04433 18.1975 3.51245 19.5529 3.51245H20.4466C22.537 3.52823 24.4588 4.75886 24.6606 6.80339L25.0127 11.6531C25.159 13.6661 23.2303 15.3656 20.7987 15.3656Z" fill="#F9C744"/>
<path d="M21.5718 9.26492C21.5718 9.63821 21.349 10.2822 21.0904 10.9051C20.73 11.772 20.2996 12.5981 20.2996 12.5981C20.1949 12.8731 19.8056 12.8731 19.701 12.5981C19.701 12.5981 19.2706 11.7719 18.9102 10.9051C18.6516 10.2822 18.4287 9.63821 18.4287 9.26492C18.4287 8.27344 18.5994 8.27344 19.1113 8.27344H20.8893C21.4011 8.27336 21.5718 8.27336 21.5718 9.26492Z" fill="#B26E2B"/>
<path d="M21.0903 10.905C20.7299 11.7719 20.2995 12.5979 20.2995 12.5979C20.1948 12.8729 19.8055 12.8729 19.7009 12.5979C19.7009 12.5979 19.2705 11.7718 18.9102 10.905C19.2702 10.0381 19.7009 9.21162 19.7009 9.21162C19.8056 8.93662 20.1949 8.93662 20.2995 9.21162C20.2995 9.21162 20.7302 10.0382 21.0903 10.905Z" fill="#DD8C29"/>
<path d="M20.0001 11.4797C19.8261 11.4797 19.6851 11.3387 19.6851 11.1647V9.75323C19.6851 9.57925 19.8261 9.43823 20.0001 9.43823C20.174 9.43823 20.3151 9.57925 20.3151 9.75323V11.1647C20.3151 11.3387 20.174 11.4797 20.0001 11.4797Z" fill="#F9C744"/>
<path d="M20.0001 10.3585C19.8261 10.3585 19.6851 10.2175 19.6851 10.0435V9.75319C19.6979 9.33687 20.3023 9.33679 20.3151 9.75319V10.0435C20.3151 10.2175 20.174 10.3585 20.0001 10.3585Z" fill="#FAEFDC"/>
<path d="M20.1518 7.24683C20.1508 7.32347 20.1559 7.82175 20.1468 7.88691C20.095 8.4191 19.6467 8.83519 19.1006 8.83519C18.52 8.83496 18.0498 8.36441 18.0498 7.78402V7.24683C18.0496 6.66214 18.5269 6.19472 19.1006 6.19605C19.6814 6.19605 20.1518 6.66644 20.1518 7.24683Z" fill="#22A8B9"/>
<path d="M21.9506 7.24683C21.9497 7.32347 21.9547 7.82175 21.9456 7.8869C21.8938 8.41909 21.4455 8.83519 20.8998 8.83519C20.3193 8.83503 19.8488 8.36456 19.8486 7.78401V7.24683C19.8483 6.66199 20.3261 6.19464 20.8998 6.19605C21.4802 6.19605 21.9506 6.66644 21.9506 7.24683Z" fill="#22A8B9"/>
<path d="M19.8481 7.784C19.8481 7.86368 19.857 7.94118 19.8742 8.01548C19.2158 8.22618 18.5047 7.70454 18.5166 7.01001C18.5183 6.9365 18.512 6.4329 18.5216 6.36993C18.9934 6.03618 19.7229 6.20931 20 6.70243C19.9036 6.86103 19.8482 7.04743 19.8482 7.24673V7.784H19.8481Z" fill="#22BCE0"/>
<path d="M21.9501 7.24678C21.9484 7.32404 21.9548 7.82131 21.9451 7.88686C21.2637 8.34858 20.3064 7.83998 20.315 7.00998C20.3166 6.93639 20.3103 6.43287 20.32 6.36998C20.9964 5.90685 21.9626 6.4199 21.9501 7.24678Z" fill="#22BCE0"/>
<path d="M21.6295 6.89454C21.6295 6.57001 21.3664 6.30688 21.0419 6.30688C20.264 6.33376 20.2641 7.45548 21.0419 7.4822C21.3664 7.4822 21.6295 7.21915 21.6295 6.89454Z" fill="#83D5EF"/>
<path d="M19.8307 6.89454C19.8307 6.57001 19.5676 6.30688 19.243 6.30688C18.4651 6.33376 18.4653 7.45548 19.243 7.4822C19.5676 7.4822 19.8307 7.21915 19.8307 6.89454Z" fill="#83D5EF"/>
<path d="M21.1899 6.98244C21.1802 7.36564 20.6185 7.36557 20.6089 6.98244C20.6186 6.59924 21.1802 6.59932 21.1899 6.98244Z" fill="#3F5D77"/>
<path d="M19.3911 6.98244C19.3814 7.36564 18.8197 7.36557 18.8101 6.98244C18.8197 6.59924 19.3814 6.59932 19.3911 6.98244Z" fill="#3F5D77"/>
<path d="M23.9177 7.06884C23.9159 7.13439 23.9254 7.96486 23.9088 8.00322C23.8567 8.32173 23.5807 8.5597 23.2531 8.5597C22.8859 8.5597 22.5884 8.2622 22.5884 7.89501V7.06884C22.6228 6.18564 23.8863 6.19165 23.9177 7.06884Z" fill="#334353"/>
<path d="M23.9172 7.06889C23.9139 7.13506 23.9258 7.96451 23.9082 8.00326C23.4847 8.20123 22.9636 7.86639 22.9746 7.39537C22.9771 7.33162 22.9668 6.49842 22.9832 6.46139C23.4063 6.26334 23.9282 6.59811 23.9172 7.06889Z" fill="#2D2C33"/>
<path d="M23.682 6.86011C23.8121 6.86011 23.9176 6.96558 23.9176 7.09573V7.27995C23.9097 7.59066 23.4542 7.59073 23.4463 7.27995V7.09581C23.4464 6.96565 23.5518 6.86011 23.682 6.86011Z" fill="white"/>
<path d="M16.0816 7.06884C16.0835 7.13439 16.074 7.96486 16.0905 8.00322C16.1427 8.32173 16.4187 8.5597 16.7463 8.5597C17.1135 8.5597 17.411 8.2622 17.411 7.89501V7.06884C17.3766 6.18564 16.113 6.19165 16.0816 7.06884Z" fill="#334353"/>
<path d="M16.0825 7.06889C16.0858 7.13506 16.0738 7.96451 16.0914 8.00326C16.5149 8.20123 17.036 7.86639 17.0251 7.39537C17.0226 7.33162 17.0329 6.49842 17.0165 6.46139C16.5934 6.26334 16.0716 6.59811 16.0825 7.06889Z" fill="#2D2C33"/>
<path d="M16.3172 6.86011C16.187 6.86011 16.0815 6.96558 16.0815 7.09573V7.27995C16.0894 7.59066 16.545 7.59073 16.5529 7.27995V7.09581C16.5528 6.96565 16.4473 6.86011 16.3172 6.86011Z" fill="white"/>
<path d="M21.0122 13.3382C21.0122 13.189 21.046 13.0416 21.111 12.9072L21.8103 11.463C22.1075 10.849 22.9225 10.7132 23.4028 11.1977L23.8417 11.6404C24.19 11.9917 24.2252 12.5464 23.924 12.9388L23.5903 13.3736C23.2636 13.7993 22.8151 14.1153 22.3043 14.2797C21.6657 14.4853 21.0122 14.009 21.0122 13.3382Z" fill="#FAD98F"/>
<path d="M18.9868 13.3382C18.9868 13.189 18.953 13.0416 18.888 12.9072L18.1888 11.463C17.8915 10.849 17.0765 10.7132 16.5962 11.1977L16.1573 11.6404C15.809 11.9917 15.7738 12.5464 16.075 12.9388L16.4087 13.3736C16.7354 13.7993 17.1839 14.1153 17.6947 14.2797C18.3333 14.4853 18.9868 14.009 18.9868 13.3382Z" fill="#FAD98F"/>
<path d="M22.8034 10.2222H22.3391C22.0903 10.2222 21.8887 10.4238 21.8887 10.6726V11.1369C21.8887 11.3857 22.0903 11.5873 22.3391 11.5873H22.8034C23.0522 11.5873 23.2538 11.3857 23.2538 11.1369V10.6726C23.2537 10.4238 23.0521 10.2222 22.8034 10.2222Z" fill="#3F5D77"/>
<path d="M23.5135 11.8767H23.1638C22.9765 11.8767 22.8247 12.0286 22.8247 12.2159V12.5655C22.8247 12.7529 22.9766 12.9047 23.1638 12.9047H23.5135C23.7008 12.9047 23.8527 12.7528 23.8527 12.5655V12.2159C23.8527 12.0286 23.7008 11.8767 23.5135 11.8767Z" fill="#3F5D77"/>
<path d="M22.6037 13.1182H22.3384C22.1963 13.1182 22.0811 13.2334 22.0811 13.3755V13.6408C22.0811 13.7829 22.1963 13.8982 22.3384 13.8982H22.6037C22.7458 13.8982 22.8611 13.7829 22.8611 13.6408V13.3755C22.8611 13.2334 22.7458 13.1182 22.6037 13.1182Z" fill="#3F5D77"/>
<path d="M21.4819 13.729H21.2781C21.169 13.729 21.0806 13.8174 21.0806 13.9266V14.1303C21.0806 14.2395 21.169 14.3279 21.2781 14.3279H21.4819C21.591 14.3279 21.6795 14.2395 21.6795 14.1303V13.9266C21.6794 13.8174 21.591 13.729 21.4819 13.729Z" fill="#3F5D77"/>
<path d="M17.197 10.2222H17.6613C17.9101 10.2222 18.1117 10.4238 18.1117 10.6726V11.1369C18.1117 11.3857 17.9101 11.5873 17.6613 11.5873H17.197C16.9482 11.5873 16.7466 11.3857 16.7466 11.1369V10.6726C16.7466 10.4238 16.9482 10.2222 17.197 10.2222Z" fill="#3F5D77"/>
<path d="M16.4866 11.8767H16.8363C17.0236 11.8767 17.1754 12.0286 17.1754 12.2159V12.5655C17.1754 12.7529 17.0236 12.9047 16.8363 12.9047H16.4866C16.2993 12.9047 16.1475 12.7528 16.1475 12.5655V12.2159C16.1475 12.0286 16.2993 11.8767 16.4866 11.8767Z" fill="#3F5D77"/>
<path d="M17.396 13.1182H17.6613C17.8034 13.1182 17.9187 13.2334 17.9187 13.3755V13.6408C17.9187 13.7829 17.8034 13.8982 17.6613 13.8982H17.396C17.2539 13.8982 17.1387 13.7829 17.1387 13.6408V13.3755C17.1387 13.2334 17.2539 13.1182 17.396 13.1182Z" fill="#3F5D77"/>
<path d="M18.5179 13.729H18.7216C18.8308 13.729 18.9192 13.8174 18.9192 13.9266V14.1303C18.9192 14.2395 18.8308 14.3279 18.7216 14.3279H18.5179C18.4088 14.3279 18.3203 14.2395 18.3203 14.1303V13.9266C18.3203 13.8174 18.4088 13.729 18.5179 13.729Z" fill="#3F5D77"/>
<path d="M23.7899 4.87483C21.571 6.06483 18.4289 6.06483 16.21 4.87483C16.9839 4.04335 18.1976 3.51147 19.5531 3.51147H20.4467C21.8022 3.51155 23.0159 4.04335 23.7899 4.87483Z" fill="#FAD98F"/>
<path d="M33.435 28.9951H6.5642C6.06787 28.9951 5.66553 28.5928 5.66553 28.0964C5.66553 27.6001 6.06787 27.1978 6.5642 27.1978H33.435C34.6193 27.2421 34.6347 28.9437 33.435 28.9951Z" fill="#B26E2B"/>
<path d="M13.3004 28.2961H7.61446C6.88907 28.2717 6.88618 27.2232 7.61446 27.1978H13.3004C14.0258 27.2221 14.0287 28.2706 13.3004 28.2961Z" fill="#DD8C29"/>
<path d="M32.3844 28.2961H26.6984C25.9731 28.2717 25.9702 27.2232 26.6984 27.1978H32.3844C33.1098 27.2221 33.1126 28.2706 32.3844 28.2961Z" fill="#DD8C29"/>
<path d="M17.1496 26.7487V29.0321C17.1496 29.3204 17.033 29.5808 16.8441 29.7689C16.2021 30.4203 15.0618 29.959 15.0649 29.0321V26.7487C15.0649 26.3416 15.2982 25.9894 15.6385 25.8178C16.3089 25.4639 17.164 25.9854 17.1496 26.7487Z" fill="#DD8C29"/>
<path d="M19.2346 26.7487V29.0321C19.2346 29.3204 19.118 29.5808 18.9291 29.7689C18.2871 30.4203 17.1468 29.959 17.1499 29.0321V26.7487C17.1499 26.3416 17.3832 25.9894 17.7234 25.8178C18.3939 25.4639 19.249 25.9854 19.2346 26.7487Z" fill="#DD8C29"/>
<path d="M17.1493 26.7486V27.8955C17.1493 28.1145 17.0605 28.3133 16.9167 28.4569C16.4309 28.9533 15.5568 28.5989 15.562 27.8955V26.1577C15.562 26.0358 15.5891 25.9206 15.638 25.8176C16.3087 25.4635 17.1637 25.9857 17.1493 26.7486Z" fill="#F9C744"/>
<path d="M19.2343 26.7486V27.8955C19.2343 28.1145 19.1454 28.3133 19.0017 28.4569C18.516 28.9537 17.6415 28.5981 17.647 27.8955V26.1577C17.647 26.0358 17.6741 25.9206 17.723 25.8176C18.3936 25.4635 19.2486 25.9857 19.2343 26.7486Z" fill="#F9C744"/>
<path d="M22.8484 26.7487V29.0321C22.8484 29.3204 22.7317 29.5808 22.5428 29.7689C21.9009 30.4203 20.7606 29.959 20.7637 29.0321V26.7487C20.7637 26.3416 20.997 25.9894 21.3372 25.8178C22.0077 25.4639 22.8627 25.9854 22.8484 26.7487Z" fill="#DD8C29"/>
<path d="M24.9333 26.7487V29.0321C24.9333 29.3204 24.8167 29.5808 24.6278 29.7689C23.9858 30.4203 22.8455 29.959 22.8486 29.0321V26.7487C22.8486 26.3416 23.0819 25.9894 23.4222 25.8178C24.0926 25.4639 24.9477 25.9854 24.9333 26.7487Z" fill="#DD8C29"/>
<path d="M22.848 26.7486V27.8955C22.848 28.1145 22.7592 28.3133 22.6154 28.4569C22.1296 28.9533 21.2555 28.5989 21.2608 27.8955V26.1577C21.2608 26.0358 21.2879 25.9206 21.3368 25.8176C22.0073 25.4635 22.8624 25.9857 22.848 26.7486Z" fill="#F9C744"/>
<path d="M24.933 26.7486V27.8955C24.933 28.1145 24.8442 28.3133 24.7004 28.4569C24.2147 28.9537 23.3402 28.5981 23.3457 27.8955V26.1577C23.3457 26.0358 23.3728 25.9206 23.4217 25.8176C24.0923 25.4635 24.9474 25.9857 24.933 26.7486Z" fill="#F9C744"/>
</svg>
