<svg width="40" height="40" viewBox="0 0 40 40" fill="none" xmlns="http://www.w3.org/2000/svg">
<path d="M20 40C31.0457 40 40 31.0457 40 20C40 8.9543 31.0457 0 20 0C8.9543 0 0 8.9543 0 20C0 31.0457 8.9543 40 20 40Z" fill="#53B976"/>
<path d="M30.1535 13.4226V18.1569C30.1535 18.7335 30.0645 19.3022 29.891 19.8444C29.7066 20.428 29.4246 20.9812 29.0543 21.4788L24.9363 27.2476C24.4895 27.8733 23.9355 28.3999 23.3082 28.8069C23.1363 28.9202 22.9582 29.0233 22.7762 29.1171C21.9293 29.553 20.9793 29.7897 19.9996 29.7897C18.809 29.7897 17.6621 29.4397 16.691 28.8069C16.0637 28.3999 15.5098 27.8733 15.0629 27.2476L10.9449 21.4788C10.5746 20.9812 10.2926 20.428 10.1082 19.8444C9.93477 19.3022 9.8457 18.7335 9.8457 18.1569V13.4226C9.8457 11.214 11.1512 9.21475 13.1723 8.32647L17.0863 6.60615C18.0145 6.19834 19.0074 5.99365 19.9996 5.99365C20.9918 5.99365 21.9848 6.19834 22.9129 6.60615L26.827 8.32647C28.848 9.21475 30.1535 11.214 30.1535 13.4226Z" fill="#A26D5A"/>
<path d="M30.1539 13.4226V18.1569C30.1539 19.3538 29.7687 20.5187 29.0547 21.4788L24.9367 27.2476C24.3672 28.0452 23.6234 28.6812 22.7766 29.1171C21.9297 29.553 20.9797 29.7897 20 29.7897V5.99365C20.9922 5.99365 21.9852 6.19834 22.9133 6.60615L26.8273 8.32647C28.8484 9.21475 30.1539 11.214 30.1539 13.4226Z" fill="#C17E62"/>
<path d="M29.8906 19.8444C29.7063 20.428 29.4242 20.9812 29.0539 21.4788L24.9359 27.2476C24.4891 27.8733 23.9352 28.3999 23.3078 28.8069C22.2148 27.3085 22.3438 25.1968 23.6961 23.8437L26.6156 20.9241C27.5078 20.0319 28.7313 19.6726 29.8906 19.8444Z" fill="#F3C3B1"/>
<path d="M16.6907 28.8069C16.0634 28.3999 15.5095 27.8733 15.0626 27.2475L10.9446 21.4788C10.5743 20.9811 10.2923 20.428 10.1079 19.8444C10.2954 19.817 10.4853 19.803 10.6743 19.803C11.6548 19.803 12.6353 20.1764 13.3829 20.9241L16.3024 23.8436C17.6548 25.1967 17.7837 27.3084 16.6907 28.8069Z" fill="#EEA47D"/>
<path d="M21.7093 20.5482C21.0175 19.8564 21.0175 18.7348 21.7093 18.043L23.0594 16.6929C23.7512 16.0011 24.8727 16.0011 25.5645 16.6929C26.2563 17.3847 26.2563 18.5063 25.5645 19.1981L24.2144 20.5482C23.5226 21.24 22.4011 21.24 21.7093 20.5482Z" fill="#F3C3B1"/>
<path d="M18.2901 20.5482C17.5983 21.24 16.4767 21.24 15.7849 20.5482L14.4349 19.1981C13.7431 18.5063 13.7431 17.3847 14.4349 16.6929C15.1267 16.0011 16.2482 16.0011 16.94 16.6929L18.2901 18.043C18.9818 18.7348 18.9818 19.8564 18.2901 20.5482Z" fill="#EEA47D"/>
<path d="M22.4853 15.3147H20V8.83472H22.4853C24.2747 8.83472 25.7253 10.2853 25.7253 12.0747C25.7253 13.8641 24.2747 15.3147 22.4853 15.3147Z" fill="#D48D77"/>
<path d="M17.5149 8.83472H20.0002V15.3147H17.5149C15.7255 15.3147 14.2749 13.8641 14.2749 12.0747C14.2749 10.2853 15.7255 8.83472 17.5149 8.83472Z" fill="#C17E62"/>
<path d="M25.1251 25.2233V32.2499C25.1251 34.9515 22.9353 37.1413 20.2337 37.1413H19.7649C17.0634 37.1413 14.8735 34.9515 14.8735 32.2499V25.2233C14.8735 24.7312 15.0009 24.2694 15.2251 23.8679C15.4681 23.4319 15.604 22.9444 15.604 22.4452V21.5327C15.604 20.8624 16.1478 20.3194 16.8181 20.3194H16.8985C17.2337 20.3194 17.5368 20.1835 17.7564 19.964C17.9759 19.7437 18.1118 19.4405 18.1118 19.1054C18.1118 18.4351 18.6556 17.8921 19.3259 17.8921H20.6728C21.0079 17.8921 21.3118 18.028 21.5314 18.2476C21.7509 18.4671 21.8868 18.7702 21.8868 19.1054C21.8868 19.7757 22.4298 20.3194 23.1001 20.3194H23.1806C23.8509 20.3194 24.3946 20.8624 24.3946 21.5327V22.4452C24.3946 22.9444 24.5306 23.4319 24.7735 23.8679C24.9978 24.2694 25.1251 24.7312 25.1251 25.2233Z" fill="#334353"/>
<path d="M25.1248 25.2233V32.2499C25.1248 34.9515 22.935 37.1413 20.2334 37.1413H19.999V17.8921H20.6725C21.0076 17.8921 21.3115 18.028 21.5311 18.2476C21.7506 18.4671 21.8865 18.7702 21.8865 19.1054C21.8865 19.7757 22.4295 20.3194 23.0998 20.3194H23.1803C23.8506 20.3194 24.3943 20.8624 24.3943 21.5327V22.4452C24.3943 22.9444 24.5303 23.4319 24.7732 23.8679C24.9975 24.2694 25.1248 24.7312 25.1248 25.2233Z" fill="#3E4E60"/>
<path d="M24.2889 32.303C24.2889 33.4288 23.7107 34.4389 22.7982 35.1225C22.0467 35.685 21.0678 36.0256 19.999 36.0256V35.2444C20.6459 35.2444 21.2521 35.0967 21.7732 34.8397C22.81 34.328 23.5076 33.3827 23.5076 32.303C23.5076 32.0874 23.6826 31.9124 23.8982 31.9124C24.1139 31.9124 24.2889 32.0874 24.2889 32.303Z" fill="#22A8B9"/>
<path d="M19.9993 35.2444V36.0256C18.9306 36.0256 17.9517 35.685 17.2001 35.1225C16.2876 34.4389 15.7095 33.4288 15.7095 32.303C15.7095 32.0874 15.8845 31.9124 16.1001 31.9124C16.3157 31.9124 16.4907 32.0874 16.4907 32.303C16.4907 33.3827 17.1884 34.328 18.2251 34.8397C18.7462 35.0967 19.3524 35.2444 19.9993 35.2444Z" fill="#3F5D77"/>
<path d="M21.2025 32.4916C21.677 32.4916 22.0617 32.1069 22.0617 31.6324C22.0617 31.1579 21.677 30.7732 21.2025 30.7732C20.7279 30.7732 20.3433 31.1579 20.3433 31.6324C20.3433 32.1069 20.7279 32.4916 21.2025 32.4916Z" fill="#2E3140"/>
<path d="M18.7967 32.4916C19.2713 32.4916 19.6559 32.1069 19.6559 31.6324C19.6559 31.1579 19.2713 30.7732 18.7967 30.7732C18.3222 30.7732 17.9375 31.1579 17.9375 31.6324C17.9375 32.1069 18.3222 32.4916 18.7967 32.4916Z" fill="#151516"/>
<path d="M20.8225 32.8042H19.999V34.1408H21.6329C22.1116 34.1408 22.2967 33.5179 21.8957 33.2565L21.5198 33.0115C21.3124 32.8762 21.0701 32.8042 20.8225 32.8042Z" fill="#22A8B9"/>
<path d="M19.1754 32.8042H19.9988V34.1408H18.3649C17.8862 34.1408 17.7011 33.5179 18.1021 33.2565L18.478 33.0115C18.6855 32.8762 18.9277 32.8042 19.1754 32.8042Z" fill="#3F5D77"/>
<path d="M22.5274 20.8906H19.999V23.0848H22.5274C23.1333 23.0848 23.6245 22.5937 23.6245 21.9877C23.6245 21.3818 23.1333 20.8906 22.5274 20.8906Z" fill="#22A8B9"/>
<path d="M17.4706 23.0848H19.999V20.8906H17.4706C16.8647 20.8906 16.3735 21.3818 16.3735 21.9877C16.3735 22.5937 16.8647 23.0848 17.4706 23.0848Z" fill="#3F5D77"/>
<path d="M21.0658 18.3962H20V19.3212H21.0658C21.3212 19.3212 21.5282 19.1141 21.5282 18.8587C21.5282 18.6033 21.3212 18.3962 21.0658 18.3962Z" fill="#22A8B9"/>
<path d="M18.9336 19.3212H19.9994V18.3962H18.9336C18.6782 18.3962 18.4712 18.6033 18.4712 18.8587C18.4712 19.1141 18.6782 19.3212 18.9336 19.3212Z" fill="#3F5D77"/>
<path d="M22.053 20.8906H20V22.217H22.053C22.4193 22.217 22.7163 21.92 22.7163 21.5538C22.7163 21.1875 22.4193 20.8906 22.053 20.8906Z" fill="white"/>
<path d="M17.9464 22.217H19.9995V20.8906H17.9464C17.5802 20.8906 17.2832 21.1876 17.2832 21.5538C17.2832 21.9201 17.5802 22.217 17.9464 22.217Z" fill="#22A8B9"/>
<path d="M19.9989 35.2445V36.0258C18.9302 36.0258 17.9513 35.6852 17.1997 35.1227C17.5278 35.0078 17.87 34.9133 18.2247 34.8398C18.7458 35.0969 19.352 35.2445 19.9989 35.2445Z" fill="#22A8B9"/>
<path d="M22.7982 35.1227C22.0467 35.6852 21.0678 36.0258 19.999 36.0258V35.2445C20.6459 35.2445 21.2521 35.0969 21.7732 34.8398C22.1279 34.9133 22.4701 35.0078 22.7982 35.1227Z" fill="white"/>
<path d="M27.1877 16.135C27.1877 16.4139 27.0807 16.6928 26.8682 16.9053L25.8338 17.9405C25.7666 18.0077 25.6932 18.0639 25.615 18.1092C25.1971 18.3546 24.651 18.2983 24.2932 17.9405C24.0807 17.728 23.9736 17.4483 23.9736 17.1702C23.9736 16.8913 24.0807 16.6124 24.2932 16.3999L25.3275 15.3647C25.6861 15.0069 26.2322 14.9507 26.6494 15.1952C26.7275 15.2413 26.801 15.2975 26.8682 15.3647C27.0807 15.578 27.1877 15.8561 27.1877 16.135Z" fill="#2E3140"/>
<path d="M27.1874 16.1352C27.1874 16.4141 27.0804 16.693 26.8679 16.9055L25.8335 17.9406C25.7663 18.0078 25.6929 18.0641 25.6147 18.1094C25.5366 18.0641 25.4624 18.0078 25.3952 17.9406C25.1819 17.7281 25.0757 17.4484 25.0757 17.1703C25.0757 16.8914 25.1819 16.6125 25.3952 16.4L26.4296 15.3648C26.4968 15.2977 26.571 15.2414 26.6491 15.1953C26.7272 15.2414 26.8007 15.2977 26.8679 15.3648C27.0804 15.5781 27.1874 15.8562 27.1874 16.1352Z" fill="#3E4E60"/>
<path d="M26.1611 16.7898C26.5441 16.7898 26.8545 16.4794 26.8545 16.0964C26.8545 15.7135 26.5441 15.4031 26.1611 15.4031C25.7782 15.4031 25.4678 15.7135 25.4678 16.0964C25.4678 16.4794 25.7782 16.7898 26.1611 16.7898Z" fill="white"/>
<path d="M12.7871 16.135C12.7871 16.4139 12.8941 16.6928 13.1066 16.9053L14.141 17.9405C14.2082 18.0077 14.2816 18.0639 14.3598 18.1092C14.7777 18.3546 15.3238 18.2983 15.6816 17.9405C15.8941 17.728 16.0012 17.4483 16.0012 17.1702C16.0012 16.8913 15.8941 16.6124 15.6816 16.3999L14.6473 15.3647C14.2887 15.0069 13.7426 14.9507 13.3254 15.1952C13.2473 15.2413 13.1738 15.2975 13.1066 15.3647C12.8941 15.578 12.7871 15.8561 12.7871 16.135Z" fill="#2E3140"/>
<path d="M12.7871 16.1352C12.7871 16.4141 12.8941 16.693 13.1066 16.9055L14.141 17.9406C14.2082 18.0078 14.2816 18.0641 14.3598 18.1094C14.4379 18.0641 14.5121 18.0078 14.5793 17.9406C14.7926 17.7281 14.8988 17.4484 14.8988 17.1703C14.8988 16.8914 14.7926 16.6125 14.5793 16.4L13.5449 15.3648C13.4777 15.2977 13.4035 15.2414 13.3254 15.1953C13.2473 15.2414 13.1738 15.2977 13.1066 15.3648C12.8941 15.5781 12.7871 15.8562 12.7871 16.1352Z" fill="#3E4E60"/>
<path d="M13.8145 16.7898C14.1974 16.7898 14.5078 16.4794 14.5078 16.0964C14.5078 15.7135 14.1974 15.4031 13.8145 15.4031C13.4315 15.4031 13.1211 15.7135 13.1211 16.0964C13.1211 16.4794 13.4315 16.7898 13.8145 16.7898Z" fill="white"/>
</svg>
