<svg width="40" height="40" viewBox="0 0 40 40" fill="none" xmlns="http://www.w3.org/2000/svg">
<path d="M20 40C31.0457 40 40 31.0457 40 20C40 8.9543 31.0457 0 20 0C8.9543 0 0 8.9543 0 20C0 31.0457 8.9543 40 20 40Z" fill="#22BCE0"/>
<path d="M36.2877 9.85363L36.4246 10.5072C36.8609 12.5904 35.5256 14.633 33.4424 15.0692L27.3551 16.3439C26.2612 16.573 25.1892 15.8722 24.9602 14.7789C24.8603 14.3022 24.9375 13.8244 25.1514 13.4192C25.3658 13.0138 25.7177 12.6807 26.1667 12.4944L30.312 10.7798L34.6473 8.98668C35.3452 8.69808 36.1331 9.11488 36.2877 9.85363Z" fill="#F39E22"/>
<path d="M36.2877 9.85363L36.4246 10.5072C36.8609 12.5903 35.5255 14.633 33.4424 15.0692L33.259 15.1076C31.8254 14.2721 30.7372 12.8557 30.3703 11.1036C30.3477 10.9957 30.3278 10.8878 30.312 10.7798L34.6473 8.98668C35.3451 8.69808 36.133 9.11488 36.2877 9.85363Z" fill="#DD5E26"/>
<path d="M35.1653 12.641H34.8082C34.5134 12.641 34.26 12.432 34.2039 12.1425L33.8991 10.5709C33.8318 10.2242 34.0696 9.89206 34.4194 9.84386L35.0812 9.75269C35.4511 9.70175 35.7809 9.98917 35.7809 10.3625V12.0254C35.7809 12.3653 35.5053 12.641 35.1653 12.641Z" fill="#EA792E"/>
<path d="M32.767 14.1429L27.735 15.7017L27.5163 15.7692C27.4724 15.7832 27.4285 15.7943 27.3843 15.8036C26.6695 15.9533 25.9448 15.5362 25.7245 14.8246C25.4909 14.0691 25.9136 13.2671 26.669 13.0328L31.752 11.4585L31.919 11.4066C31.9629 11.3926 32.0067 11.3814 32.051 11.3721C32.7657 11.2224 33.4904 11.6389 33.7108 12.3511C33.9451 13.1067 33.5224 13.9086 32.767 14.1429Z" fill="#FBCB74"/>
<path d="M32.7669 14.1428L27.7349 15.7016C28.2719 13.9123 29.7428 12.3321 31.7519 11.4585L31.9188 11.4066C31.9627 11.3926 32.0066 11.3814 32.0508 11.3721C32.7656 11.2224 33.4902 11.6389 33.7106 12.3511C33.9449 13.1066 33.5223 13.9085 32.7669 14.1428Z" fill="#FBD9A3"/>
<path d="M3.71312 9.85408L3.57624 10.5077C3.13999 12.5908 4.47531 14.6335 6.55843 15.0696L12.6458 16.3444C13.7397 16.5735 14.8117 15.8727 15.0407 14.7794C15.1405 14.3027 15.0634 13.8249 14.8495 13.4196C14.6351 13.0142 14.2832 12.6812 13.8341 12.4949L9.68882 10.7803L5.35359 8.9872C4.6557 8.69853 3.86781 9.11533 3.71312 9.85408Z" fill="#EA792E"/>
<path d="M3.71312 9.85408L3.57624 10.5077C3.13999 12.5908 4.47531 14.6334 6.55843 15.0696L6.74187 15.1081C8.17546 14.2725 9.26367 12.8561 9.63054 11.1041C9.65312 10.9961 9.67304 10.8883 9.68882 10.7802L5.35359 8.9872C4.6557 8.69853 3.86781 9.11533 3.71312 9.85408Z" fill="#BF5E39"/>
<path d="M4.83535 12.641H5.19238C5.48723 12.641 5.74067 12.432 5.79676 12.1425L6.10153 10.5709C6.16879 10.2242 5.93106 9.89206 5.58121 9.84386L4.91942 9.75269C4.54949 9.70175 4.21973 9.98917 4.21973 10.3625V12.0254C4.21973 12.3653 4.49535 12.641 4.83535 12.641Z" fill="#DD5E26"/>
<path d="M7.23349 14.1429L12.2655 15.7017L12.4843 15.7692C12.5282 15.7832 12.572 15.7943 12.6162 15.8036C13.331 15.9533 14.0558 15.5362 14.2761 14.8246C14.5097 14.0691 14.0869 13.2671 13.3315 13.0328L8.24849 11.4585L8.08154 11.4066C8.03763 11.3926 7.9938 11.3814 7.94958 11.3721C7.23482 11.2224 6.51013 11.6389 6.28974 12.3511C6.05544 13.1067 6.4781 13.9086 7.23349 14.1429Z" fill="#F9C744"/>
<path d="M7.23349 14.1428L12.2655 15.7016C11.7285 13.9123 10.2576 12.3321 8.24849 11.4585L8.08154 11.4066C8.03763 11.3926 7.9938 11.3814 7.94958 11.3721C7.23482 11.2224 6.51013 11.6389 6.28974 12.3511C6.05544 13.1066 6.4781 13.9085 7.23349 14.1428Z" fill="#FBCB74"/>
<path d="M27.956 18.6913L26.8568 26.3472C26.6118 28.0525 25.7591 29.5386 24.5374 30.5983C23.3148 31.6573 21.7233 32.2907 20.0002 32.2907C17.2126 32.2907 14.7668 30.6322 13.6764 28.1919C13.4193 27.6165 13.2371 26.9975 13.1436 26.3472L13.113 26.1337L12.9591 25.0643L12.6642 23.006L12.0445 18.6912C11.7439 16.5951 12.1864 14.4595 13.2953 12.6551L15.0255 9.84178C15.3874 9.25271 16.0297 8.89404 16.7203 8.89404H23.2802C23.9708 8.89404 24.6132 9.25264 24.975 9.84178L26.7052 12.6551C27.8141 14.4596 28.2565 16.5952 27.956 18.6913Z" fill="#F39E22"/>
<path d="M27.9561 18.6912L27.3364 23.006L27.0415 25.0643L26.8876 26.1337L26.857 26.3472C26.7635 26.9976 26.5814 27.6165 26.3242 28.1919C25.9076 29.1244 25.2927 29.9431 24.5376 30.5983C23.8872 31.1616 23.1321 31.6049 22.3085 31.8966C21.584 32.1521 20.8063 32.2907 20.0005 32.2907V8.89404H23.2805C23.9711 8.89404 24.6135 9.25264 24.9753 9.84178L26.7055 12.6551C27.2769 13.5844 27.671 14.6022 27.8781 15.6571C28.0729 16.6491 28.102 17.6751 27.9561 18.6912Z" fill="#F9C744"/>
<path d="M23.4712 1.21582C24.4416 1.21582 25.1675 2.1066 24.9716 3.05699L24.583 4.94176C24.5507 5.09824 24.5431 5.25887 24.5605 5.41777L25.1652 10.9425C25.2645 11.8491 24.5545 12.6411 23.6425 12.6411H23.3001C22.3881 12.6411 21.6781 11.8491 21.7773 10.9425L22.382 5.41777C22.3994 5.25894 22.3919 5.09832 22.3596 4.94176L21.971 3.05699C21.7751 2.1066 22.5009 1.21582 23.4712 1.21582Z" fill="#DD5E26"/>
<path d="M24.464 2.90436C24.464 2.35607 24.0195 1.91162 23.4713 1.91162C22.923 1.91162 22.4785 2.35607 22.4785 2.90436C22.4785 3.45264 22.923 4.74795 23.4713 4.74795C24.0195 4.74803 24.464 3.45264 24.464 2.90436Z" fill="#EA792E"/>
<path d="M23.4712 6.30249C23.2298 6.30249 23.0292 6.48819 23.0105 6.72874L22.705 10.6585C22.6703 11.105 23.0233 11.4865 23.4711 11.4865C23.919 11.4865 24.2719 11.105 24.2372 10.6585L23.9317 6.72874C23.9132 6.48819 23.7125 6.30249 23.4712 6.30249Z" fill="#EA792E"/>
<path d="M16.5294 1.21582C17.4998 1.21582 18.2257 2.1066 18.0297 3.05699L17.6411 4.94176C17.6088 5.09824 17.6012 5.25887 17.6186 5.41777L18.2233 10.9425C18.3225 11.8491 17.6125 12.6411 16.7006 12.6411H16.3582C15.4462 12.6411 14.7362 11.8491 14.8354 10.9425L15.4401 5.41777C15.4575 5.25894 15.45 5.09832 15.4177 4.94176L15.0291 3.05699C14.8332 2.1066 15.559 1.21582 16.5294 1.21582Z" fill="#BF5E39"/>
<path d="M17.5221 2.90436C17.5221 2.35607 17.0776 1.91162 16.5294 1.91162C15.9811 1.91162 15.5366 2.35607 15.5366 2.90436C15.5366 3.45264 15.9811 4.74795 16.5294 4.74795C17.0776 4.74803 17.5221 3.45264 17.5221 2.90436Z" fill="#DD5E26"/>
<path d="M16.5293 6.30249C16.2879 6.30249 16.0873 6.48819 16.0686 6.72874L15.7631 10.6585C15.7284 11.105 16.0814 11.4865 16.5292 11.4865C16.9771 11.4865 17.3301 11.105 17.2953 10.6585L16.9898 6.72874C16.9712 6.48819 16.7705 6.30249 16.5293 6.30249Z" fill="#DD5E26"/>
<path d="M27.9562 18.6914L27.3365 23.0061L27.0416 25.0644L26.8877 26.1339L26.857 26.3474C26.7635 26.9978 26.5814 27.6167 26.3243 28.1921C25.9077 29.1245 25.2927 29.9432 24.5377 30.5985C23.8873 31.1618 23.1322 31.605 22.3086 31.8968V21.5024C22.3086 16.4986 27.8781 15.6572 27.8781 15.6572C28.073 16.6493 28.102 17.6752 27.9562 18.6914Z" fill="#FBD9A3"/>
<path d="M27.336 23.0061L27.0411 25.0644H24.9997C24.7483 25.0644 24.5444 24.8597 24.5444 24.6083V23.4615C24.5444 23.2101 24.7483 23.0062 24.9997 23.0062H27.336V23.0061Z" fill="#DD5E26"/>
<path d="M26.8871 26.1338L26.8564 26.3473C26.7629 26.9977 26.5808 27.6166 26.3237 28.192H24.2663C24.0149 28.192 23.811 27.9881 23.811 27.7367V26.5899C23.811 26.3385 24.0149 26.1338 24.2663 26.1338H26.8871Z" fill="#DD5E26"/>
<path d="M12.0446 18.6914L12.6642 23.0061L12.9592 25.0644L13.1131 26.1339L13.1437 26.3474C13.2372 26.9978 13.4193 27.6167 13.6764 28.1921C14.0931 29.1245 14.708 29.9432 15.4631 30.5985C16.1135 31.1618 16.8685 31.605 17.6921 31.8968V21.5024C17.6921 16.4986 12.1226 15.6572 12.1226 15.6572C11.9277 16.6493 11.8987 17.6752 12.0446 18.6914Z" fill="#FBCB74"/>
<path d="M15.4561 23.4615V24.6083C15.4561 24.8597 15.2522 25.0644 15.0008 25.0644H12.9595L12.6646 23.0061H15.0008C15.2523 23.0062 15.4561 23.2101 15.4561 23.4615Z" fill="#BF5E39"/>
<path d="M16.1894 26.5901V27.7369C16.1894 27.9884 15.9855 28.1922 15.7341 28.1922H13.6766C13.4195 27.6168 13.2374 26.9979 13.1439 26.3475L13.1133 26.134H15.7341C15.9855 26.134 16.1894 26.3387 16.1894 26.5901Z" fill="#BF5E39"/>
<path d="M25.1738 33.3401V34.5594C25.1738 36.6805 23.4548 38.3986 21.3345 38.3986H18.6654C16.5451 38.3986 14.8262 36.6805 14.8262 34.5594V33.3401C14.8262 32.1707 15.3492 31.1247 16.1728 30.4204C16.8675 29.828 17.3059 28.9915 17.3534 28.08L17.6944 21.4565C17.758 20.2291 18.771 19.2661 20 19.2668C20.0298 19.2668 20.058 19.2676 20.0878 19.2685C21.2902 19.3128 22.246 20.3008 22.308 21.5024L22.6466 28.08C22.6941 28.9915 23.1325 29.828 23.8272 30.4204C24.6508 31.1247 25.1738 32.1707 25.1738 33.3401Z" fill="#EA792E"/>
<path d="M25.1743 33.3401V34.5594C25.1743 36.6805 23.4553 38.3986 21.335 38.3986H20.0005V19.2668C20.0303 19.2668 20.0585 19.2676 20.0883 19.2685C21.2907 19.3128 22.2465 20.3008 22.3085 21.5024L22.6471 28.08C22.6946 28.9915 23.133 29.828 23.8277 30.4204C24.6513 31.1247 25.1743 32.1707 25.1743 33.3401Z" fill="#F39E22"/>
<path d="M22.228 35.2022C21.7604 35.2022 21.3813 34.8231 21.3813 34.3555V32.4538C21.3813 31.9862 21.7604 31.6072 22.228 31.6072H22.6117C23.1465 31.6072 23.5474 32.0969 23.4416 32.6212L23.0579 34.523C22.9782 34.918 22.631 35.2022 22.228 35.2022Z" fill="#3E4E60"/>
<path d="M17.7731 35.2022C18.2407 35.2022 18.6197 34.8231 18.6197 34.3555V32.4538C18.6197 31.9862 18.2407 31.6072 17.7731 31.6072H17.3894C16.8546 31.6072 16.4537 32.0969 16.5595 32.6212L16.9432 34.523C17.0229 34.918 17.37 35.2022 17.7731 35.2022Z" fill="#2E3140"/>
<path d="M22.9155 37.2209H17.0848C15.6173 37.2209 14.4233 36.027 14.4233 34.5595C14.4233 34.337 14.6037 34.1565 14.8263 34.1565C15.0489 34.1565 15.2293 34.3369 15.2293 34.5595C15.2293 35.5826 16.0617 36.415 17.0849 36.415H22.9155C23.9387 36.415 24.7712 35.5826 24.7712 34.5595C24.7712 34.337 24.9515 34.1565 25.1741 34.1565C25.3967 34.1565 25.5771 34.3369 25.5771 34.5595C25.5769 36.027 24.383 37.2209 22.9155 37.2209Z" fill="#BF5E39"/>
<path d="M27.9138 19.8538C28.119 20.6193 27.6706 21.4054 26.9098 21.6196C26.9037 21.6224 26.8972 21.6241 26.8908 21.6258L25.9185 21.8864C25.533 21.9897 25.1412 21.9273 24.8205 21.7421C24.4986 21.5572 24.249 21.2501 24.1454 20.8636C23.953 20.1454 24.3359 19.4081 25.0114 19.1428C25.0624 19.1222 25.1154 19.1045 25.1692 19.0901L26.1415 18.8296C26.528 18.726 26.919 18.7897 27.2398 18.975C27.5607 19.1602 27.8102 19.4672 27.9138 19.8538Z" fill="#3E4E60"/>
<path d="M27.9141 19.8538C28.1193 20.6193 27.6709 21.4054 26.9102 21.6196C26.0727 21.3627 25.3631 20.6481 25.1038 19.6801C25.0555 19.5003 25.0247 19.3205 25.0117 19.1428C25.0627 19.1222 25.1157 19.1045 25.1695 19.0901L26.1418 18.8296C26.5284 18.726 26.9193 18.7897 27.2402 18.975C27.561 19.1602 27.8106 19.4672 27.9141 19.8538Z" fill="#2E3140"/>
<path d="M26.6099 19.3805L26.0249 19.5372C25.773 19.6047 25.6235 19.8636 25.691 20.1155C25.7585 20.3673 26.0174 20.5169 26.2693 20.4494L26.8543 20.2927C27.1062 20.2252 27.2557 19.9662 27.1882 19.7144C27.1208 19.4625 26.8619 19.313 26.6099 19.3805Z" fill="white"/>
<path d="M15.8555 20.8636C15.6503 21.6291 14.8691 22.0857 14.1031 21.8908C14.0963 21.8902 14.0899 21.8884 14.0834 21.8866L13.1111 21.6261C12.7256 21.5228 12.4175 21.2729 12.2323 20.9521C12.046 20.631 11.9833 20.2403 12.0869 19.8538C12.2793 19.1355 12.9796 18.6885 13.6973 18.7966C13.7518 18.8042 13.8065 18.8155 13.8603 18.8298L14.8326 19.0904C15.2192 19.194 15.5259 19.4446 15.7111 19.7655C15.8964 20.0863 15.959 20.477 15.8555 20.8636Z" fill="#3E4E60"/>
<path d="M15.8555 20.8637C15.6503 21.6292 14.8691 22.0858 14.1031 21.8909C13.5063 21.2498 13.249 20.276 13.5084 19.308C13.5566 19.1282 13.6197 18.957 13.6974 18.7966C13.7519 18.8043 13.8066 18.8155 13.8604 18.8299L14.8327 19.0905C15.2192 19.1941 15.526 19.4447 15.7112 19.7655C15.8964 20.0864 15.959 20.4771 15.8555 20.8637Z" fill="#2E3140"/>
<path d="M14.9627 19.8013L14.3777 19.6446C14.1258 19.5771 13.8668 19.7266 13.7994 19.9785C13.7319 20.2304 13.8814 20.4893 14.1333 20.5568L14.7183 20.7135C14.9702 20.781 15.2292 20.6316 15.2966 20.3796C15.364 20.1278 15.2146 19.8688 14.9627 19.8013Z" fill="white"/>
<path d="M20 26.4365H20.3152C20.9408 26.4365 21.4856 26.8637 21.6347 27.4713L22.2425 29.9467C22.3654 30.4471 22.1083 30.9638 21.6338 31.1648C21.2452 31.3294 20.7055 31.4714 20 31.4714V26.4365Z" fill="#F9C744"/>
<path d="M20.0001 26.4365H19.6849C19.0593 26.4365 18.5145 26.8637 18.3654 27.4713L17.7576 29.9467C17.6347 30.4471 17.8918 30.9638 18.3663 31.1648C18.7549 31.3294 19.2946 31.4714 20.0001 31.4714V26.4365Z" fill="#F39E22"/>
</svg>
