<svg width="40" height="40" viewBox="0 0 40 40" fill="none" xmlns="http://www.w3.org/2000/svg">
<path d="M40 20C40 31.0458 31.0458 40 20 40C8.95416 40 0 31.0458 0 20C0 8.95416 8.95416 0 20 0C31.0458 0 40 8.95416 40 20Z" fill="#F46D11"/>
<path d="M27.5103 34.8249L29.8531 37.4082C27.8475 38.5462 25.6261 39.347 23.2656 39.7339C22.2026 39.9094 21.1119 40.0001 20.0002 40.0001C18.8884 40.0001 17.7968 39.9094 16.7348 39.7349C15.7796 39.5771 14.8476 39.3528 13.9431 39.0662C12.6125 38.6442 11.3414 38.0857 10.147 37.4082L12.3674 35.6141C12.3674 31.7951 13.0269 28.1577 16.7348 27.7396C16.8132 27.7299 16.8923 27.7225 16.9716 27.7161C17.1724 27.6996 17.3748 27.6914 17.5798 27.6914H22.4196C22.7056 27.6914 22.9879 27.707 23.2656 27.7387C23.543 27.7698 23.8155 27.8165 24.0834 27.8776C27.3879 28.6335 27.5103 31.2925 27.5103 34.8249Z" fill="#F2EFEA"/>
<path d="M16.7348 27.7395V39.7344C15.7796 39.577 14.8476 39.3527 13.9431 39.0661C12.6125 38.644 11.3414 38.0856 10.147 37.4081V35.1232C10.147 31.3043 13.0269 28.1573 16.7348 27.7395Z" fill="#512375"/>
<path d="M29.8531 35.1234V37.4083C27.8475 38.5463 25.6262 39.347 23.2656 39.734V27.7388C23.543 27.7699 23.8156 27.8163 24.0835 27.8776C27.3879 28.6335 29.8531 31.591 29.8531 35.1234Z" fill="#673389"/>
<path d="M19.9993 30.734L16.6533 32.5934L15.6353 27.8589L17.7144 26.6343" fill="#D8D4CE"/>
<path d="M19.9995 30.734L23.3455 32.5934L24.3635 27.8589L22.2844 26.6343" fill="#D8D4CE"/>
<path d="M33.4353 17.5167C33.4353 19.0948 32.1563 20.3738 30.5782 20.3738C29.0002 20.3738 27.7212 19.0948 27.7212 17.5167C27.7212 15.9387 29.0002 14.6597 30.5782 14.6597C32.1563 14.6597 33.4353 15.9387 33.4353 17.5167Z" fill="#2F373B"/>
<path d="M27.6356 19.7778C26.403 19.7778 25.3528 20.5582 24.9518 21.6519C24.636 21.5314 24.2933 21.4648 23.9347 21.4648C22.3569 21.4648 21.0776 22.7441 21.0776 24.3219C21.0776 25.9 22.3569 27.179 23.9347 27.179C25.1673 27.179 26.2177 26.3986 26.6184 25.3049C26.9346 25.4254 27.277 25.4919 27.6356 25.4919C29.2133 25.4919 30.4926 24.213 30.4926 22.6349C30.4926 21.0571 29.2136 19.7778 27.6356 19.7778Z" fill="#2F373B"/>
<path d="M12.2786 17.5167C12.2786 19.0948 10.9996 20.3738 9.42151 20.3738C7.84344 20.3738 6.56445 19.0948 6.56445 17.5167C6.56445 15.9387 7.84344 14.6597 9.42151 14.6597C10.9996 14.6597 12.2786 15.9387 12.2786 17.5167Z" fill="#151A1C"/>
<path d="M16.0649 21.4648C15.7067 21.4648 15.364 21.5314 15.0478 21.6519C14.6471 20.5582 13.597 19.7778 12.3644 19.7778C10.7866 19.7778 9.50732 21.0571 9.50732 22.6349C9.50732 24.213 10.7866 25.4922 12.3644 25.4922C12.7227 25.4922 13.0654 25.4254 13.3815 25.3052C13.7822 26.3989 14.8326 27.1793 16.0649 27.1793C17.643 27.1793 18.9223 25.9 18.9223 24.3219C18.9223 22.7441 17.643 21.4648 16.0649 21.4648Z" fill="#151A1C"/>
<path d="M22.6518 24.8281V28.0825C22.6518 29.2739 21.8663 30.281 20.7841 30.6155C20.5366 30.6921 20.2726 30.7339 19.9995 30.7339C18.5353 30.7339 17.3481 29.5468 17.3481 28.0825V24.8281H22.6518Z" fill="#BF7C5E"/>
<path d="M22.6519 27.8762V28.0825C22.6519 29.2739 21.8663 30.281 20.7842 30.6155C19.8079 30.3152 19.074 29.4665 18.9385 28.4277C19.1155 28.4387 19.2937 28.4442 19.4725 28.4442C19.9742 28.4442 20.4662 28.4042 20.9453 28.3254C21.5355 28.2308 22.1059 28.0789 22.6519 27.8762Z" fill="#D39272"/>
<path d="M12.6058 19.4949C12.6058 20.7224 11.7092 21.7404 10.5349 21.9293C10.4064 21.9501 10.2745 21.9608 10.1396 21.9608C8.77765 21.9608 7.67383 20.8572 7.67383 19.4949C7.67383 18.1326 8.77765 17.0288 10.1396 17.0288C10.2745 17.0288 10.4064 17.0398 10.5349 17.0605C11.7092 17.2495 12.6058 18.2672 12.6058 19.4949Z" fill="#D39272"/>
<path d="M12.6061 19.4949C12.6061 20.7224 11.7095 21.7404 10.5352 21.9293C10.3218 21.1536 10.208 20.3372 10.208 19.4949C10.208 18.6523 10.3218 17.836 10.5352 17.0605C11.7095 17.2495 12.6061 18.2672 12.6061 19.4949Z" fill="#BF7C5E"/>
<path d="M11.0213 19.4949C11.0213 19.9816 10.6267 20.3762 10.1396 20.3762C9.65289 20.3762 9.2583 19.9816 9.2583 19.4949C9.2583 19.0081 9.65289 18.6135 10.1396 18.6135C10.6267 18.6135 11.0213 19.0081 11.0213 19.4949Z" fill="#BF7C5E"/>
<path d="M27.3936 19.4949C27.3936 20.7224 28.2902 21.7404 29.4645 21.9293C29.593 21.9501 29.7248 21.9608 29.8597 21.9608C31.222 21.9608 32.3255 20.8572 32.3255 19.4949C32.3255 18.1326 31.222 17.0288 29.8597 17.0288C29.7248 17.0288 29.593 17.0398 29.4645 17.0605C28.2902 17.2495 27.3936 18.2672 27.3936 19.4949Z" fill="#D39272"/>
<path d="M27.3936 19.4949C27.3936 20.7224 28.2902 21.7404 29.4645 21.9293C29.6778 21.1536 29.7919 20.3372 29.7919 19.4949C29.7919 18.6523 29.6781 17.836 29.4645 17.0605C28.2902 17.2495 27.3936 18.2672 27.3936 19.4949Z" fill="#BF7C5E"/>
<path d="M30.7412 19.4949C30.7412 19.9816 30.3466 20.3762 29.8599 20.3762C29.3731 20.3762 28.9785 19.9816 28.9785 19.4949C28.9785 19.0081 29.3731 18.6135 29.8599 18.6135C30.3466 18.6135 30.7412 19.0081 30.7412 19.4949Z" fill="#BF7C5E"/>
<path d="M29.1749 14.6906V18.1845C29.1749 22.7502 25.8397 26.5378 21.4723 27.2406C21.4576 27.243 21.4421 27.2455 21.4274 27.2482C20.963 27.3224 20.486 27.359 19.9995 27.359C14.9327 27.359 10.8247 23.2513 10.8247 18.1845V14.6906C10.8247 13.6237 11.0069 12.5983 11.3432 11.6455C12.5978 8.07495 16.0005 5.51514 19.9995 5.51514H20.0004C20.486 5.51514 20.9636 5.55267 21.429 5.62592C25.8174 6.31165 29.1749 10.1093 29.1749 14.6906Z" fill="#BF7C5E"/>
<path d="M29.175 14.6906V18.1846C29.175 22.7503 25.8397 26.5378 21.4724 27.2407C21.4577 27.2431 21.4421 27.2455 21.4275 27.2483C17.0388 26.5626 13.6821 22.765 13.6821 18.1846V14.6906C13.6821 10.1093 17.0397 6.31171 21.429 5.62598C25.8174 6.31171 29.175 10.1093 29.175 14.6906Z" fill="#D39272"/>
<path d="M26.2448 20.5933C26.2448 21.2247 25.733 21.7362 25.1019 21.7362C24.4708 21.7362 23.959 21.2247 23.959 20.5933C23.959 19.9622 24.4708 19.4504 25.1019 19.4504C25.733 19.4504 26.2448 19.9622 26.2448 20.5933Z" fill="#BF7C5E"/>
<path d="M16.0406 20.5933C16.0406 21.2247 15.5289 21.7362 14.8978 21.7362C14.2667 21.7362 13.7549 21.2247 13.7549 20.5933C13.7549 19.9622 14.2667 19.4504 14.8978 19.4504C15.5289 19.4504 16.0406 19.9622 16.0406 20.5933Z" fill="#BF7C5E"/>
<path d="M24.9272 17.4098C24.9272 16.5681 24.2448 15.8857 23.4034 15.8857C22.5618 15.8857 21.8794 16.5681 21.8794 17.4098" fill="#BF7C5E"/>
<path d="M18.121 17.4098C18.121 16.5681 17.4387 15.8857 16.5973 15.8857C15.7556 15.8857 15.0732 16.5681 15.0732 17.4098" fill="#BF7C5E"/>
<path d="M17.6378 18.0582C17.6378 18.6332 17.1718 19.0992 16.5971 19.0992C16.0222 19.0992 15.5562 18.6332 15.5562 18.0582C15.5562 17.4836 16.0222 17.0176 16.5971 17.0176C17.1718 17.0176 17.6378 17.4836 17.6378 18.0582Z" fill="#2F373B"/>
<path d="M24.4439 18.0582C24.4439 18.6332 23.9779 19.0992 23.4033 19.0992C22.8283 19.0992 22.3623 18.6332 22.3623 18.0582C22.3623 17.4836 22.8283 17.0176 23.4033 17.0176C23.9779 17.0176 24.4439 17.4836 24.4439 18.0582Z" fill="#2F373B"/>
<path d="M21.0408 20.6786H18.9592C18.7114 20.6786 18.5103 20.4778 18.5103 20.2297C18.5103 19.9819 18.7114 19.7808 18.9592 19.7808H21.0408C21.2889 19.7808 21.49 19.9819 21.49 20.2297C21.49 20.4778 21.2889 20.6786 21.0408 20.6786Z" fill="#BF7C5E"/>
<path d="M19.9999 23.5196C19.2314 23.5196 18.4633 23.3273 17.7629 22.9422C17.5655 22.8336 17.4932 22.5855 17.6018 22.388C17.7105 22.1906 17.9586 22.1185 18.156 22.2269C19.3105 22.8616 20.689 22.8616 21.8434 22.2269C22.0409 22.1182 22.289 22.1903 22.3976 22.388C22.5063 22.5855 22.4343 22.8336 22.2365 22.9422C21.5364 23.3273 20.768 23.5196 19.9999 23.5196Z" fill="#BF7C5E"/>
<path d="M17.4257 17.8749C17.4257 18.1212 17.2261 18.3207 16.9799 18.3207C16.7333 18.3207 16.5337 18.1212 16.5337 17.8749C16.5337 17.6283 16.7333 17.4287 16.9799 17.4287C17.2261 17.4287 17.4257 17.6283 17.4257 17.8749Z" fill="white"/>
<path d="M24.2828 17.8749C24.2828 18.1212 24.0833 18.3207 23.837 18.3207C23.5907 18.3207 23.3911 18.1212 23.3911 17.8749C23.3911 17.6283 23.5907 17.4287 23.837 17.4287C24.0833 17.4287 24.2828 17.6283 24.2828 17.8749Z" fill="white"/>
<path d="M31.1823 8.59833C31.2534 8.34839 31.2924 8.08563 31.2924 7.81311C31.2924 6.23505 30.0134 4.95575 28.4354 4.95575C28.3856 4.95575 28.3365 4.95667 28.2883 4.95911C28.1659 3.49457 26.9391 2.34344 25.4419 2.34344C25.1587 2.34344 24.8843 2.38525 24.6255 2.46185C24.1391 1.5802 23.201 0.982666 22.1228 0.982666C21.2802 0.982666 20.5228 1.34766 20.0003 1.92719C19.4769 1.34766 18.7195 0.982666 17.8778 0.982666C16.7987 0.982666 15.8606 1.5802 15.3741 2.46185C15.1154 2.38525 14.841 2.34344 14.5578 2.34344C13.0606 2.34344 11.8338 3.49457 11.7111 4.95911C11.6632 4.95667 11.6141 4.95575 11.5643 4.95575C9.98627 4.95575 8.70728 6.23505 8.70728 7.81311C8.70728 8.08563 8.74634 8.34839 8.81744 8.59924C7.46216 9.28467 6.5332 10.6897 6.5332 12.3126C6.5332 14.0613 7.61261 15.5576 9.14154 16.1722C9.49402 17.0651 10.3644 17.6978 11.3831 17.6978C12.7145 17.6978 13.7936 16.6187 13.7936 15.2872C13.7936 15.2228 13.7906 15.1599 13.7854 15.0961C14.3512 14.4678 14.7284 13.6661 14.8279 12.7795C14.8428 12.7795 14.8581 12.7805 14.873 12.7805C14.9881 12.7805 15.1022 12.7722 15.2133 12.7567C15.4883 12.7176 15.7471 12.6324 15.9839 12.5092C16.4883 12.9559 17.1506 13.2275 17.8778 13.2275C18.7195 13.2275 19.4769 12.8629 20.0003 12.2833C20.5228 12.8629 21.2802 13.2275 22.1228 13.2275C22.8491 13.2275 23.512 12.9559 24.0158 12.5092C24.3488 12.6825 24.726 12.7805 25.1276 12.7805C25.1422 12.7805 25.1569 12.7795 25.1724 12.7795C25.2713 13.6661 25.6485 14.4678 26.2149 15.0961C26.21 15.1599 26.2067 15.2228 26.2067 15.2872C26.2067 16.6187 27.2861 17.6978 28.6172 17.6978C29.6353 17.6978 30.5057 17.0651 30.8591 16.1722C32.3871 15.5576 33.4671 14.0613 33.4671 12.3126C33.4671 10.6888 32.5375 9.28467 31.1823 8.59833Z" fill="#2F373B"/>
<path d="M17.8778 0.982666C16.7987 0.982666 15.8606 1.5802 15.3741 2.46185C15.1154 2.38525 14.841 2.34344 14.5578 2.34344C13.0606 2.34344 11.8338 3.49457 11.7111 4.95911C11.6632 4.95667 11.6141 4.95575 11.5643 4.95575C9.98627 4.95575 8.70728 6.23505 8.70728 7.81311C8.70728 8.08563 8.74634 8.34839 8.81744 8.59924C7.46216 9.28467 6.5332 10.6897 6.5332 12.3126C6.5332 14.0613 7.61261 15.5576 9.14154 16.1722C9.49402 17.0651 10.3644 17.6978 11.3831 17.6978C12.7145 17.6978 13.7936 16.6187 13.7936 15.2872C13.7936 15.2228 13.7906 15.1599 13.7854 15.0961C14.3512 14.4678 14.7284 13.6661 14.8279 12.7795C14.8428 12.7795 14.8581 12.7805 14.873 12.7805C14.9881 12.7805 15.1022 12.7722 15.2133 12.7567C14.9005 12.1729 14.7235 11.5051 14.7235 10.7965C14.7235 9.17389 15.6525 7.76886 17.0074 7.08313C16.9366 6.8335 16.8973 6.56982 16.8973 6.297C16.8973 4.71924 18.1766 3.43994 19.7546 3.43994C19.8035 3.43994 19.9512 1.92719 20.0003 1.92719C19.4769 1.34766 18.7195 0.982666 17.8778 0.982666Z" fill="#151A1C"/>
<path d="M32.4023 20.8835C32.3846 20.8701 32.3651 20.8604 32.3452 20.8527C32.2454 20.7831 32.1404 20.7242 32.0303 20.6785C31.9518 20.8237 31.8588 20.9592 31.7535 21.085C31.8804 21.1243 32.0004 21.1869 32.1108 21.2693C32.16 21.3059 32.2088 21.3465 32.2564 21.3904C32.5924 21.7243 32.7953 22.2471 32.7953 22.8019C32.7953 23.7794 32.1865 24.5746 31.4379 24.5746C30.6893 24.5746 30.0802 23.7794 30.0802 22.8019C30.0802 22.1534 30.353 21.5562 30.7925 21.2437C30.9002 21.1667 30.9252 21.0172 30.8486 20.9095C30.772 20.8018 30.6222 20.7764 30.5145 20.8533C29.9511 21.2543 29.6011 22.0008 29.6011 22.8019C29.6011 24.0436 30.425 25.0538 31.4379 25.0538C32.4505 25.0538 33.2745 24.0436 33.2745 22.8019C33.2745 22.0133 32.9485 21.2961 32.4023 20.8835Z" fill="#FFE05C"/>
<path d="M7.59729 20.8835C7.61499 20.8701 7.63452 20.8604 7.65436 20.8527C7.75415 20.7831 7.85944 20.7242 7.9696 20.6785C8.04773 20.8237 8.14081 20.9592 8.24609 21.085C8.11914 21.1243 7.99921 21.1869 7.88873 21.2693C7.8396 21.3059 7.79108 21.3465 7.74316 21.3904C7.40717 21.7243 7.20422 22.2471 7.20422 22.8019C7.20422 23.7794 7.81335 24.5746 8.56195 24.5746C9.31024 24.5746 9.91937 23.7794 9.91937 22.8019C9.91937 22.1534 9.64655 21.5562 9.2074 21.2437C9.09937 21.1667 9.07434 21.0172 9.15094 20.9095C9.22784 20.8018 9.37738 20.7764 9.48511 20.8533C10.0485 21.2543 10.3985 22.0008 10.3985 22.8019C10.3985 24.0436 9.57452 25.0538 8.56195 25.0538C7.54907 25.0538 6.7251 24.0436 6.7251 22.8019C6.7251 22.0133 7.05103 21.2961 7.59729 20.8835Z" fill="#FFE05C"/>
</svg>
