<svg width="40" height="40" viewBox="0 0 40 40" fill="none" xmlns="http://www.w3.org/2000/svg">
<path d="M40 20C40 31.0458 31.0458 40 20 40C8.95416 40 0 31.0458 0 20C0 8.95416 8.95416 0 20 0C31.0458 0 40 8.95416 40 20Z" fill="#C1DCE5"/>
<path d="M17.3561 6.3891C17.3561 8.56653 16.0247 10.4324 14.1317 11.217C13.5161 11.4724 12.8401 11.6137 12.1318 11.6137C9.24609 11.6137 6.90723 9.27484 6.90723 6.3891C6.90723 3.50366 9.24609 1.16479 12.1318 1.16479C12.8401 1.16479 13.5161 1.30609 14.1317 1.56152C16.0247 2.34613 17.3561 4.21198 17.3561 6.3891Z" fill="#0C85A5"/>
<path d="M17.3562 6.3891C17.3562 8.56653 16.0247 10.4324 14.1317 11.217C12.2387 10.4324 10.9072 8.56653 10.9072 6.3891C10.9072 4.21198 12.2387 2.34613 14.1317 1.56152C16.0247 2.34613 17.3562 4.21198 17.3562 6.3891Z" fill="#1DA2DD"/>
<path d="M33.0925 6.3891C33.0925 8.56653 31.761 10.4324 29.868 11.217C29.2524 11.4724 28.5765 11.6137 27.8682 11.6137C24.9824 11.6137 22.6436 9.27484 22.6436 6.3891C22.6436 3.50366 24.9824 1.16479 27.8682 1.16479C28.5765 1.16479 29.2524 1.30609 29.868 1.56152C31.761 2.34613 33.0925 4.21198 33.0925 6.3891Z" fill="#0C85A5"/>
<path d="M33.0925 6.3891C33.0925 8.56653 31.761 10.4324 29.868 11.217C27.975 10.4324 26.6436 8.56653 26.6436 6.3891C26.6436 4.21198 27.975 2.34613 29.868 1.56152C31.761 2.34613 33.0925 4.21198 33.0925 6.3891Z" fill="#1DA2DD"/>
<path d="M29.8531 35.1234V37.4082C28.6785 38.0735 27.4303 38.6252 26.1226 39.0439C25.9871 39.0882 25.8516 39.1297 25.7143 39.1706C25.2059 39.3226 24.6883 39.4547 24.1634 39.5649C23.9333 39.6137 23.7023 39.6589 23.4694 39.6989C22.3421 39.8972 21.183 40.0001 20.0002 40.0001C18.8173 40.0001 17.658 39.8972 16.5306 39.6995C16.2981 39.6595 16.0671 39.6146 15.837 39.5658C15.2269 39.4367 14.6288 39.2798 14.041 39.097C14.0084 39.0864 13.9757 39.0766 13.9431 39.0662C13.9211 39.0595 13.8997 39.0522 13.8777 39.0449C12.5707 38.6262 11.3219 38.0744 10.147 37.4082V35.1234C10.147 32.3664 11.6475 29.9601 13.8777 28.6774C14.4826 28.3289 15.1406 28.0637 15.837 27.8971C16.205 27.8083 16.5837 27.7469 16.9716 27.7158C17.1724 27.6996 17.3748 27.6914 17.5798 27.6914H22.4196C22.9918 27.6914 23.5488 27.7552 24.0834 27.8776C24.1103 27.884 24.1371 27.8898 24.1634 27.8962C24.8598 28.0637 25.5178 28.3289 26.1226 28.6774C28.3519 29.9607 29.8531 32.3673 29.8531 35.1234Z" fill="#E89F18"/>
<path d="M29.8534 35.1234V37.4082C27.0861 38.9786 23.9064 39.9076 20.5172 39.9933C20.345 39.9976 20.1735 40.0001 20.0005 40.0001C19.8275 40.0001 19.655 39.9976 19.4838 39.9927C17.5563 39.9445 15.6975 39.6229 13.9434 39.0662V35.1234C13.9434 31.0187 17.2713 27.6914 21.3768 27.6914H22.4199C26.5261 27.6914 29.8534 31.0187 29.8534 35.1234Z" fill="#FFE05C"/>
<path d="M23.2112 27.8596V28.0448C23.2112 29.4611 22.3027 30.6937 20.9492 31.1118C20.6431 31.2073 20.323 31.2556 19.9998 31.2556C18.2292 31.2556 16.7891 29.8154 16.7891 28.0448V27.7134C16.9703 27.6987 17.1531 27.6914 17.3384 27.6914H21.7091C22.2258 27.6914 22.7287 27.7494 23.2112 27.8596Z" fill="#F2EFEA"/>
<path d="M22.6518 24.8281V28.0825C22.6518 29.2739 21.8663 30.281 20.7841 30.6155C20.5366 30.6921 20.2726 30.7339 19.9995 30.7339C18.5353 30.7339 17.3481 29.5468 17.3481 28.0825V24.8281H22.6518Z" fill="#EAA27F"/>
<path d="M22.6519 27.8762V28.0825C22.6519 29.2739 21.8663 30.281 20.7842 30.6155C19.8079 30.3152 19.074 29.4665 18.9385 28.4277C19.1155 28.4387 19.2937 28.4442 19.4725 28.4442C19.9742 28.4442 20.4662 28.4042 20.9453 28.3254C21.5355 28.2308 22.1059 28.0789 22.6519 27.8762Z" fill="#F6BA97"/>
<path d="M12.6058 19.4949C12.6058 20.7224 11.7092 21.7404 10.5349 21.9293C10.4064 21.9501 10.2745 21.9608 10.1396 21.9608C8.77765 21.9608 7.67383 20.8572 7.67383 19.4949C7.67383 18.1326 8.77765 17.0288 10.1396 17.0288C10.2745 17.0288 10.4064 17.0398 10.5349 17.0605C11.7092 17.2495 12.6058 18.2672 12.6058 19.4949Z" fill="#F6BA97"/>
<path d="M12.6061 19.4949C12.6061 20.7224 11.7095 21.7404 10.5352 21.9293C10.3218 21.1536 10.208 20.3372 10.208 19.4949C10.208 18.6523 10.3218 17.836 10.5352 17.0605C11.7095 17.2495 12.6061 18.2672 12.6061 19.4949Z" fill="#EAA27F"/>
<path d="M11.0213 19.4949C11.0213 19.9816 10.6267 20.3762 10.1396 20.3762C9.65289 20.3762 9.2583 19.9816 9.2583 19.4949C9.2583 19.0081 9.65289 18.6135 10.1396 18.6135C10.6267 18.6135 11.0213 19.0081 11.0213 19.4949Z" fill="#EAA27F"/>
<path d="M27.3936 19.4949C27.3936 20.7224 28.2902 21.7404 29.4645 21.9293C29.593 21.9501 29.7248 21.9608 29.8597 21.9608C31.222 21.9608 32.3255 20.8572 32.3255 19.4949C32.3255 18.1326 31.222 17.0288 29.8597 17.0288C29.7248 17.0288 29.593 17.0398 29.4645 17.0605C28.2902 17.2495 27.3936 18.2672 27.3936 19.4949Z" fill="#F6BA97"/>
<path d="M27.3936 19.4949C27.3936 20.7224 28.2902 21.7404 29.4645 21.9293C29.6778 21.1536 29.7919 20.3372 29.7919 19.4949C29.7919 18.6523 29.6781 17.836 29.4645 17.0605C28.2902 17.2495 27.3936 18.2672 27.3936 19.4949Z" fill="#EAA27F"/>
<path d="M30.7412 19.4949C30.7412 19.9816 30.3466 20.3762 29.8599 20.3762C29.3731 20.3762 28.9785 19.9816 28.9785 19.4949C28.9785 19.0081 29.3731 18.6135 29.8599 18.6135C30.3466 18.6135 30.7412 19.0081 30.7412 19.4949Z" fill="#EAA27F"/>
<path d="M29.1749 14.6906V18.1845C29.1749 22.7502 25.8397 26.5378 21.4723 27.2406C21.4576 27.243 21.4421 27.2455 21.4274 27.2482C20.963 27.3224 20.486 27.359 19.9995 27.359C14.9327 27.359 10.8247 23.2513 10.8247 18.1845V14.6906C10.8247 13.6237 11.0069 12.5983 11.3432 11.6455C12.5978 8.07495 16.0005 5.51514 19.9995 5.51514H20.0004C20.486 5.51514 20.9636 5.55267 21.429 5.62592C25.8174 6.31165 29.1749 10.1093 29.1749 14.6906Z" fill="#EAA27F"/>
<path d="M29.175 14.6906V18.1846C29.175 22.7503 25.8397 26.5378 21.4724 27.2407C21.4577 27.2431 21.4421 27.2455 21.4275 27.2483C17.0388 26.5626 13.6821 22.765 13.6821 18.1846V14.6906C13.6821 10.1093 17.0397 6.31171 21.429 5.62598C25.8174 6.31171 29.175 10.1093 29.175 14.6906Z" fill="#F6BA97"/>
<path d="M26.2448 20.5933C26.2448 21.2247 25.733 21.7362 25.1019 21.7362C24.4708 21.7362 23.959 21.2247 23.959 20.5933C23.959 19.9622 24.4708 19.4504 25.1019 19.4504C25.733 19.4504 26.2448 19.9622 26.2448 20.5933Z" fill="#EAA27F"/>
<path d="M16.0406 20.5933C16.0406 21.2247 15.5289 21.7362 14.8978 21.7362C14.2667 21.7362 13.7549 21.2247 13.7549 20.5933C13.7549 19.9622 14.2667 19.4504 14.8978 19.4504C15.5289 19.4504 16.0406 19.9622 16.0406 20.5933Z" fill="#EAA27F"/>
<path d="M24.9272 17.4098C24.9272 16.5681 24.2448 15.8857 23.4034 15.8857C22.5618 15.8857 21.8794 16.5681 21.8794 17.4098" fill="#EAA27F"/>
<path d="M18.121 17.4098C18.121 16.5681 17.4387 15.8857 16.5973 15.8857C15.7556 15.8857 15.0732 16.5681 15.0732 17.4098" fill="#EAA27F"/>
<path d="M17.6378 18.0582C17.6378 18.6332 17.1718 19.0992 16.5971 19.0992C16.0222 19.0992 15.5562 18.6332 15.5562 18.0582C15.5562 17.4836 16.0222 17.0176 16.5971 17.0176C17.1718 17.0176 17.6378 17.4836 17.6378 18.0582Z" fill="#2F373B"/>
<path d="M24.4439 18.0582C24.4439 18.6332 23.9779 19.0992 23.4033 19.0992C22.8283 19.0992 22.3623 18.6332 22.3623 18.0582C22.3623 17.4836 22.8283 17.0176 23.4033 17.0176C23.9779 17.0176 24.4439 17.4836 24.4439 18.0582Z" fill="#2F373B"/>
<path d="M21.0408 20.6786H18.9592C18.7114 20.6786 18.5103 20.4778 18.5103 20.2297C18.5103 19.9819 18.7114 19.7808 18.9592 19.7808H21.0408C21.2889 19.7808 21.49 19.9819 21.49 20.2297C21.49 20.4778 21.2889 20.6786 21.0408 20.6786Z" fill="#EAA27F"/>
<path d="M19.9999 23.5196C19.2314 23.5196 18.4633 23.3273 17.7629 22.9422C17.5655 22.8336 17.4932 22.5855 17.6018 22.388C17.7105 22.1906 17.9586 22.1185 18.156 22.2269C19.3105 22.8616 20.689 22.8616 21.8434 22.2269C22.0409 22.1182 22.289 22.1903 22.3976 22.388C22.5063 22.5855 22.4343 22.8336 22.2365 22.9422C21.5364 23.3273 20.768 23.5196 19.9999 23.5196Z" fill="#EAA27F"/>
<path d="M17.4257 17.8749C17.4257 18.1212 17.2261 18.3207 16.9799 18.3207C16.7333 18.3207 16.5337 18.1212 16.5337 17.8749C16.5337 17.6283 16.7333 17.4287 16.9799 17.4287C17.2261 17.4287 17.4257 17.6283 17.4257 17.8749Z" fill="white"/>
<path d="M24.2828 17.8749C24.2828 18.1212 24.0833 18.3207 23.837 18.3207C23.5907 18.3207 23.3911 18.1212 23.3911 17.8749C23.3911 17.6283 23.5907 17.4287 23.837 17.4287C24.0833 17.4287 24.2828 17.6283 24.2828 17.8749Z" fill="white"/>
<path d="M29.4643 13.5411V17.0607C23.4194 16.548 19.9996 13.3281 19.9996 10.471C19.9996 13.3281 16.5801 16.548 10.5352 17.0607V13.5411C10.5352 8.31403 14.7725 4.07666 19.9996 4.07666C25.2266 4.07666 29.4643 8.31403 29.4643 13.5411Z" fill="#1DA2DD"/>
<path d="M21.5303 4.20087C17.0305 4.93146 13.5964 8.83527 13.5964 13.5414V16.5223C12.6683 16.7805 11.6454 16.9667 10.5352 17.0604V13.5414C10.5352 8.31342 14.7725 4.07666 19.9996 4.07666C20.5211 4.07666 21.0323 4.11908 21.5303 4.20087Z" fill="#0C85A5"/>
<path d="M31.517 21.7742C31.517 22.1615 31.203 22.4755 30.8157 22.4755C30.4285 22.4755 30.1147 22.1615 30.1147 21.7742C30.1147 21.387 30.4285 21.0732 30.8157 21.0732C31.203 21.0732 31.517 21.387 31.517 21.7742Z" fill="#F73B6C"/>
<path d="M9.88568 21.7742C9.88568 22.1615 9.57166 22.4755 9.18439 22.4755C8.79712 22.4755 8.4834 22.1615 8.4834 21.7742C8.4834 21.387 8.79712 21.0732 9.18439 21.0732C9.57166 21.0732 9.88568 21.387 9.88568 21.7742Z" fill="#F73B6C"/>
<path d="M13.8427 35.1233V39.0341C12.5478 38.6154 11.3112 38.0685 10.147 37.4081V35.1233H13.8427Z" fill="#EAA27F"/>
<path d="M29.8531 35.1233V37.4081C28.6891 38.0685 27.4523 38.6154 26.1577 39.0341V35.1233H29.8531Z" fill="#F6BA97"/>
</svg>
