<svg width="40" height="40" viewBox="0 0 40 40" fill="none" xmlns="http://www.w3.org/2000/svg">
<path d="M20 40C31.0457 40 40 31.0457 40 20C40 8.9543 31.0457 0 20 0C8.9543 0 0 8.9543 0 20C0 31.0457 8.9543 40 20 40Z" fill="#6C53A2"/>
<path d="M24.9993 24.7771V27.7911C24.9993 29.1716 24.4401 30.4214 23.5351 31.3257C22.6306 32.2308 21.3809 32.79 20.0004 32.79C17.2394 32.79 15.0015 30.552 15.0015 27.791V24.777C15.0015 22.5794 16.7833 20.7976 18.9808 20.7976H21.0199C23.2175 20.7977 24.9993 22.5795 24.9993 24.7771Z" fill="#C44A1A"/>
<path d="M24.9989 24.777V27.791C24.9989 29.1715 24.4397 30.4213 23.5347 31.3257C22.6302 32.2307 21.3805 32.7899 20 32.7899V20.7976H21.0195C23.2171 20.7976 24.9989 22.5794 24.9989 24.777Z" fill="#DD5E26"/>
<path d="M19.4915 31.6199H20.0002V24.9753H18.2279C16.9341 24.9753 15.8853 26.0242 15.8853 27.318V28.0137C15.8853 30.0053 17.4999 31.6199 19.4915 31.6199Z" fill="#DD5E26"/>
<path d="M20.5092 31.6199H20.0005V24.9753H21.7728C23.0666 24.9753 24.1154 26.0242 24.1154 27.318V28.0137C24.1154 30.0053 22.5008 31.6199 20.5092 31.6199Z" fill="#EA792E"/>
<path d="M22.388 28.5501H20V26.1497H22.388C23.0509 26.1497 23.5883 26.687 23.5883 27.3499C23.5883 28.0127 23.0509 28.5501 22.388 28.5501Z" fill="#F39E22"/>
<path d="M17.6119 26.1497H19.9999V28.5501H17.6119C16.949 28.5501 16.4116 28.0128 16.4116 27.3499C16.4116 26.687 16.949 26.1497 17.6119 26.1497Z" fill="#EA792E"/>
<path d="M17.6196 9.36698V11.7909L19.5708 11.6754V9.36698C19.5708 8.993 19.3598 8.66784 19.0506 8.50362C18.9146 8.43175 18.7601 8.39136 18.5953 8.39136C18.0564 8.39136 17.6196 8.82815 17.6196 9.36698Z" fill="#9175A7"/>
<path d="M19.5704 9.36608V10.9972C19.4473 11.0453 19.3139 11.0716 19.1734 11.0716C18.5705 11.0716 18.0811 10.5828 18.0811 9.97921V8.85546C18.0811 8.73226 18.1016 8.61366 18.1394 8.50265C18.2754 8.43077 18.43 8.39038 18.5948 8.39038C19.1336 8.39046 19.5704 8.82726 19.5704 9.36608Z" fill="#A583BB"/>
<path d="M22.3804 9.36698V11.7909L20.4292 11.6754V9.36698C20.4292 8.993 20.6402 8.66784 20.9494 8.50362C21.0854 8.43175 21.2399 8.39136 21.4047 8.39136C21.9436 8.39136 22.3804 8.82815 22.3804 9.36698Z" fill="#A583BB"/>
<path d="M22.3805 9.36608V10.9972C22.2574 11.0453 22.1239 11.0716 21.9835 11.0716C21.3806 11.0716 20.8911 10.5828 20.8911 9.97921V8.85546C20.8911 8.73226 20.9117 8.61366 20.9495 8.50265C21.0855 8.43077 21.24 8.39038 21.4049 8.39038C21.9437 8.39046 22.3805 8.82726 22.3805 9.36608Z" fill="#C2AACF"/>
<path d="M24.9993 14.9269V16.6201C24.9993 18.0005 24.4401 19.2503 23.5351 20.1553C22.6306 21.0598 21.3809 21.6195 20.0004 21.6195C17.2394 21.6195 15.0015 19.381 15.0015 16.62V14.9268C15.0015 13.101 16.4814 11.6211 18.3072 11.6211H21.6936C23.5194 11.6212 24.9993 13.1011 24.9993 14.9269Z" fill="#EA792E"/>
<path d="M24.9989 14.9268V16.62C24.9989 18.0005 24.4397 19.2502 23.5347 20.1552C22.6302 21.0597 21.3805 21.6195 20 21.6195V11.6211H21.6932C23.519 11.6211 24.9989 13.101 24.9989 14.9268Z" fill="#F39E22"/>
<path d="M23.9795 15.2728V16.6201C23.9795 17.7186 23.5341 18.7135 22.8141 19.4335C22.094 20.1535 21.0998 20.5989 20.0007 20.5989C17.8031 20.5989 16.022 18.8177 16.022 16.6201V15.2728C16.022 13.8194 17.2 12.6414 18.6534 12.6414H21.3481C22.8014 12.6414 23.9795 13.8194 23.9795 15.2728Z" fill="#334353"/>
<path d="M23.9797 15.2728V16.6201C23.9797 17.7186 23.5344 18.7135 22.8143 19.4335C22.0943 20.1535 21.1 20.5989 20.001 20.5989V12.6414H21.3483C22.8017 12.6414 23.9797 13.8194 23.9797 15.2728Z" fill="#3E4E60"/>
<path d="M21.0233 15.2654C20.7909 15.2654 20.6025 15.0771 20.6025 14.8446V14.4994C20.6025 14.267 20.7909 14.0786 21.0233 14.0786C21.2557 14.0786 21.4441 14.267 21.4441 14.4994V14.8446C21.4441 15.0771 21.2557 15.2654 21.0233 15.2654Z" fill="#334353"/>
<path d="M18.9769 15.2654C18.7445 15.2654 18.5562 15.0771 18.5562 14.8446V14.4994C18.5562 14.267 18.7445 14.0786 18.9769 14.0786C19.2094 14.0786 19.3977 14.267 19.3977 14.4994V14.8446C19.3977 15.0771 19.2094 15.2654 18.9769 15.2654Z" fill="#2E3140"/>
<path d="M20.8728 19.0835H20V16.0232H21.6511C22.2813 16.0232 22.7921 16.5341 22.7921 17.1642C22.7921 18.2242 21.9328 19.0835 20.8728 19.0835Z" fill="#3F5D77"/>
<path d="M19.1273 19.0835H20.0001V16.0232H18.349C17.7189 16.0232 17.208 16.5341 17.208 17.1642C17.208 18.2242 18.0673 19.0835 19.1273 19.0835Z" fill="#3E4E60"/>
<path d="M34.6538 16.0124C34.4977 16.1684 34.2815 16.265 34.0433 16.265H32.8767C32.4002 16.2652 32.0137 15.8788 32.0137 15.402C32.0104 14.9259 32.4083 14.5352 32.8768 14.5388H34.0434C34.8065 14.5335 35.1942 15.4798 34.6538 16.0124Z" fill="#2E3140"/>
<path d="M34.8339 15.7488C34.7277 15.7954 34.6108 15.8212 34.4874 15.8212H33.3209C32.7086 15.8322 32.276 15.1653 32.5302 14.6116C32.6361 14.5646 32.7533 14.5386 32.877 14.5389H34.0435C34.6565 14.5285 35.0884 15.1948 34.8339 15.7488Z" fill="#334353"/>
<path d="M28.0729 14.539C28.0729 14.9055 27.9243 15.2366 27.6842 15.4766C27.4447 15.7167 27.1131 15.8648 26.7471 15.8648H25.6637C24.9312 15.8648 24.3374 15.2716 24.3374 14.539C24.3374 14.3781 24.366 14.2249 24.4178 14.0821C24.4854 13.8997 24.5908 13.7366 24.7261 13.6013C24.9662 13.3612 25.2972 13.2126 25.6637 13.2126H26.7471C27.3188 13.2126 27.806 13.5745 27.9925 14.0821C28.0444 14.2248 28.0729 14.3781 28.0729 14.539Z" fill="#334353"/>
<path d="M27.9922 14.0821C27.9246 14.2645 27.8191 14.4277 27.6839 14.5629C27.4444 14.803 27.1128 14.9516 26.7468 14.9516H25.6634C25.0912 14.9516 24.604 14.5897 24.4175 14.0821C24.4851 13.8997 24.5905 13.7366 24.7258 13.6013C24.9658 13.3612 25.2969 13.2126 25.6634 13.2126H26.7468C27.3185 13.2126 27.8057 13.5744 27.9922 14.0821Z" fill="#3E4E60"/>
<path d="M31.9232 15.5512C31.6408 15.5512 31.3578 15.443 31.1424 15.2275L29.1473 13.2324C28.7159 12.8015 28.7159 12.1021 29.1473 11.6707C29.5751 11.237 30.2885 11.2436 30.709 11.6707L32.7041 13.6658C33.1355 14.0972 33.1355 14.7966 32.7041 15.2275C32.4939 15.4374 32.2143 15.5507 31.9232 15.5512Z" fill="#EA792E"/>
<path d="M32.325 15.4756C32.1867 15.4217 32.0576 15.3392 31.9459 15.2276L29.9509 13.2325C29.387 12.6886 29.5989 11.6939 30.3299 11.4229C30.4682 11.4762 30.5978 11.5587 30.7095 11.6708L32.7045 13.6659C33.2686 14.211 33.0564 15.2045 32.325 15.4756Z" fill="#F39E22"/>
<path d="M30.4718 12.1335C30.4718 12.4159 30.3636 12.6989 30.1482 12.9143L28.1531 14.9094C27.7221 15.3408 27.0228 15.3408 26.5914 14.9094C26.1577 14.4816 26.1642 13.7682 26.5914 13.3477L28.5864 11.3526C29.0178 10.9212 29.7172 10.9212 30.1482 11.3526C30.3581 11.5628 30.4714 11.8424 30.4718 12.1335Z" fill="#C44A1A"/>
<path d="M30.396 11.732C30.3421 11.8703 30.2596 11.9994 30.148 12.1111L28.1529 14.1062C27.609 14.6701 26.6143 14.4581 26.3433 13.7271C26.3966 13.5888 26.4791 13.4592 26.5912 13.3476L28.5863 11.3525C29.1314 10.7884 30.1249 11.0006 30.396 11.732Z" fill="#DD5E26"/>
<path d="M29.8306 7.87187C29.8306 8.04734 29.7634 8.22312 29.6295 8.35695L28.9739 9.01257C28.7062 9.28062 28.2717 9.28062 28.0038 9.01257C27.7343 8.74679 27.7385 8.30367 28.0038 8.04242L28.6594 7.38679C29.0852 6.95484 29.835 7.26875 29.8306 7.87187Z" fill="#2E3140"/>
<path d="M29.784 7.62244C29.7506 7.70838 29.6993 7.78854 29.6299 7.85791L28.9743 8.51354C28.6364 8.86385 28.0185 8.73213 27.8501 8.27807C27.8833 8.19213 27.9346 8.11166 28.0042 8.04229L28.6598 7.38666C28.9984 7.03627 29.6156 7.16807 29.784 7.62244Z" fill="#334353"/>
<path d="M25.3045 10.7425C25.5106 10.9485 25.6131 11.2182 25.6131 11.488C25.6134 11.7575 25.5102 12.0271 25.3045 12.2328L24.6956 12.8417C24.2839 13.2535 23.6167 13.2538 23.205 12.8421C23.1146 12.7517 23.0445 12.6495 22.9934 12.5401C22.9289 12.3996 22.8965 12.2486 22.8965 12.0966C22.8965 11.8267 22.999 11.5571 23.205 11.3511L23.8139 10.7422C24.1352 10.4209 24.6124 10.3505 25.0025 10.531C25.1119 10.5821 25.2141 10.6521 25.3045 10.7425Z" fill="#334353"/>
<path d="M25.0016 10.531C25.0661 10.6715 25.0986 10.8224 25.0986 10.9745C25.0989 11.244 24.9961 11.5139 24.7904 11.7196L24.1815 12.3285C23.8598 12.6502 23.3826 12.7206 22.9925 12.5401C22.9279 12.3996 22.8955 12.2486 22.8955 12.0966C22.8955 11.8267 22.998 11.5571 23.204 11.3511L23.8129 10.7422C24.1343 10.4209 24.6115 10.3505 25.0016 10.531Z" fill="#3E4E60"/>
<path d="M28.0366 9.14723C27.8779 9.30598 27.658 9.40418 27.4158 9.40418H25.1732C24.6885 9.40441 24.2954 9.01137 24.2954 8.52644C24.2921 8.04222 24.6968 7.64496 25.1732 7.64871H27.4158C27.9008 7.64871 28.2939 8.04176 28.2936 8.52644C28.2935 8.76254 28.2 8.9834 28.0366 9.14723Z" fill="#EA792E"/>
<path d="M28.2202 8.8792C28.1122 8.9267 27.9933 8.95287 27.8678 8.95287H25.6251C25.0025 8.96405 24.5626 8.28584 24.821 7.72271C24.9287 7.67498 25.0479 7.64849 25.1736 7.64881H27.4163C28.0397 7.6381 28.479 8.31584 28.2202 8.8792Z" fill="#F39E22"/>
<path d="M25.2998 8.04235C25.4586 8.2011 25.5568 8.42095 25.5568 8.66313V10.9058C25.557 11.3905 25.164 11.7835 24.679 11.7835C24.1948 11.7868 23.7975 11.3822 23.8013 10.9058V8.66313C23.8013 8.17813 24.1943 7.78509 24.679 7.7854C24.9151 7.78548 25.1359 7.87899 25.2998 8.04235Z" fill="#C44A1A"/>
<path d="M25.0313 7.8593C25.0788 7.96734 25.105 8.08625 25.105 8.21172V10.4544C25.1161 11.077 24.4379 11.517 23.8748 11.2585C23.8271 11.1508 23.8006 11.0316 23.8009 10.9059V8.6632C23.7902 8.03976 24.4679 7.60055 25.0313 7.8593Z" fill="#DD5E26"/>
<path d="M34.7342 21.9114C34.5317 22.037 34.2806 22.0852 34.0303 22.0264L32.8042 21.7389C32.3032 21.6218 31.9923 21.1203 32.1098 20.619C32.2237 20.1178 32.7382 19.8053 33.2297 19.9246L34.4558 20.2121C35.2593 20.3947 35.4336 21.4849 34.7342 21.9114Z" fill="#2E3140"/>
<path d="M34.9887 21.6787C34.8655 21.7015 34.7362 21.6998 34.6066 21.6694L33.3805 21.3818C32.7342 21.2425 32.4439 20.4349 32.8476 19.9155C32.9705 19.8923 33.1001 19.8939 33.23 19.9246L34.4561 20.2122C35.103 20.3523 35.3926 21.1591 34.9887 21.6787Z" fill="#334353"/>
<path d="M28.1808 18.7414C28.0904 19.1267 27.8526 19.4379 27.5411 19.6311C27.2301 19.8244 26.8451 19.8982 26.4605 19.8081L25.3218 19.5411C24.5519 19.3605 24.0739 18.5906 24.2544 17.8207C24.294 17.6516 24.3619 17.4975 24.4515 17.3603C24.5676 17.1852 24.7187 17.0397 24.894 16.9309C25.2056 16.7377 25.5901 16.6631 25.9754 16.7535L27.114 17.0205C27.7149 17.1615 28.1378 17.6619 28.2087 18.2414C28.2281 18.4042 28.2204 18.5723 28.1808 18.7414Z" fill="#334353"/>
<path d="M28.2093 18.2404C28.0933 18.4155 27.9422 18.5609 27.7668 18.6698C27.4559 18.8631 27.0707 18.9376 26.6861 18.8474L25.5474 18.5803C24.9459 18.4392 24.523 17.9388 24.4521 17.3593C24.5682 17.1842 24.7193 17.0388 24.8946 16.9299C25.2062 16.7367 25.5907 16.6621 25.976 16.7525L27.1147 17.0195C27.7156 17.1605 28.1385 17.6609 28.2093 18.2404Z" fill="#3E4E60"/>
<path d="M31.9786 20.7535C31.6817 20.6839 31.411 20.5004 31.2377 20.2208L29.6324 17.632C29.2852 17.0727 29.4576 16.3376 30.0174 15.9905C30.5739 15.6401 31.3221 15.8229 31.6588 16.3754L33.2641 18.9642C33.6112 19.524 33.4388 20.259 32.8792 20.6057C32.6064 20.7747 32.2846 20.8247 31.9786 20.7535Z" fill="#EA792E"/>
<path d="M32.4187 20.773C32.2866 20.6823 32.1713 20.5638 32.0815 20.4189L30.4762 17.8302C30.0176 17.1195 30.4856 16.1262 31.3207 16.0215C31.4529 16.1117 31.5687 16.2303 31.6584 16.3757L33.2636 18.9645C33.7222 19.6763 33.2543 20.6684 32.4187 20.773Z" fill="#F39E22"/>
<path d="M31.295 16.8033C31.2254 17.1002 31.0419 17.3709 30.7622 17.5443L28.1735 19.1495C27.6142 19.4968 26.8791 19.3243 26.532 18.7646C26.1816 18.208 26.3644 17.4598 26.9169 17.1231L29.5057 15.5179C30.0655 15.1707 30.8005 15.3431 31.1472 15.9028C31.3161 16.1754 31.3662 16.4972 31.295 16.8033Z" fill="#C44A1A"/>
<path d="M31.3141 16.3628C31.2234 16.495 31.1048 16.6103 30.96 16.7001L28.3712 18.3053C27.6605 18.7639 26.6673 18.296 26.5625 17.4609C26.6527 17.3287 26.7713 17.2128 26.9167 17.1232L29.5055 15.5179C30.2175 15.0594 31.2095 15.5273 31.3141 16.3628Z" fill="#DD5E26"/>
<path d="M30.8253 27.8914C30.5923 27.9411 30.3397 27.9016 30.124 27.7618L29.0672 27.0767C28.6353 26.7971 28.5121 26.22 28.7922 25.788C29.0688 25.3548 29.6587 25.2346 30.0809 25.513L31.1377 26.1981C31.8321 26.6414 31.6277 27.7263 30.8253 27.8914Z" fill="#2E3140"/>
<path d="M31.143 27.758C31.0194 27.738 30.8983 27.6926 30.7866 27.6202L29.7298 26.9351C29.1687 26.5855 29.1684 25.7273 29.7238 25.375C29.8474 25.3947 29.9688 25.4399 30.0806 25.5128L31.1374 26.1979C31.6989 26.5484 31.6988 27.4056 31.143 27.758Z" fill="#334353"/>
<path d="M25.7291 22.6918C25.5139 23.0239 25.1848 23.2365 24.8264 23.313C24.4684 23.3898 24.0811 23.3292 23.7496 23.1143L22.7682 22.4781C22.1046 22.0479 21.915 21.1618 22.3452 20.4982C22.4397 20.3525 22.5555 20.2304 22.6864 20.1315C22.8548 20.006 23.0461 19.9201 23.248 19.877C23.6066 19.8005 23.9937 19.8603 24.3257 20.0755L25.3071 20.7117C25.825 21.0474 26.0538 21.6614 25.9247 22.2307C25.8877 22.3905 25.8236 22.5461 25.7291 22.6918Z" fill="#334353"/>
<path d="M25.9246 22.2307C25.7562 22.3562 25.5648 22.4421 25.3629 22.4852C25.005 22.5621 24.6173 22.5019 24.2858 22.287L23.3044 21.6508C22.7859 21.3147 22.5571 20.7008 22.6862 20.1315C22.8546 20.006 23.0459 19.9201 23.2479 19.877C23.6064 19.8005 23.9935 19.8603 24.3255 20.0755L25.3069 20.7117C25.8249 21.0474 26.0537 21.6613 25.9246 22.2307Z" fill="#3E4E60"/>
<path d="M28.623 25.8701C28.3672 25.7043 28.1744 25.4401 28.1057 25.1183L27.47 22.1393C27.3322 21.4956 27.7429 20.8621 28.3871 20.7246C29.0293 20.5829 29.6717 21.0078 29.8018 21.6417L30.4376 24.6207C30.5751 25.2649 30.1644 25.8984 29.5205 26.0354C29.2068 26.1022 28.887 26.0406 28.623 25.8701Z" fill="#EA792E"/>
<path d="M29.0313 26.0373C28.9377 25.9073 28.8691 25.7567 28.8336 25.59L28.1978 22.611C28.0064 21.7871 28.7826 21.0105 29.6039 21.1942C29.6978 21.3238 29.7668 21.4746 29.802 21.6417L30.4378 24.6207C30.6288 25.4457 29.853 26.2212 29.0313 26.0373Z" fill="#F39E22"/>
<path d="M29.315 21.9215C29.1491 22.1773 28.8849 22.3701 28.5632 22.4387L25.5842 23.0745C24.9404 23.2122 24.3069 22.8016 24.1694 22.1574C24.0278 21.5151 24.4526 20.8728 25.0865 20.7426L28.0655 20.1068C28.7097 19.9693 29.3432 20.38 29.4803 21.024C29.5471 21.3376 29.4854 21.6575 29.315 21.9215Z" fill="#C44A1A"/>
<path d="M29.4821 21.5134C29.3521 21.607 29.2015 21.6755 29.0348 21.7111L26.0558 22.3469C25.2319 22.5383 24.4553 21.7621 24.639 20.9408C24.7687 20.8469 24.9194 20.7779 25.0865 20.7427L28.0655 20.1069C28.8906 19.9159 29.6661 20.6916 29.4821 21.5134Z" fill="#DD5E26"/>
<path d="M5.34509 16.0124C5.50119 16.1684 5.71736 16.265 5.95556 16.265H7.12212C7.59868 16.2652 7.98517 15.8788 7.98517 15.402C7.98845 14.9259 7.59056 14.5352 7.12204 14.5388H5.95548C5.19236 14.5335 4.80462 15.4798 5.34509 16.0124Z" fill="#2E3140"/>
<path d="M5.16517 15.7488C5.27142 15.7954 5.3883 15.8212 5.51166 15.8212H6.67822C7.29049 15.8322 7.72307 15.1653 7.46892 14.6116C7.36299 14.5646 7.2458 14.5386 7.12213 14.5389H5.95557C5.3426 14.5285 4.91072 15.1948 5.16517 15.7488Z" fill="#334353"/>
<path d="M11.9258 14.539C11.9258 14.9055 12.0744 15.2366 12.3145 15.4766C12.554 15.7167 12.8855 15.8648 13.2516 15.8648H14.3349C15.0674 15.8648 15.6612 15.2716 15.6612 14.539C15.6612 14.3781 15.6327 14.2249 15.5809 14.0821C15.5133 13.8997 15.4078 13.7366 15.2726 13.6013C15.0325 13.3612 14.7015 13.2126 14.3349 13.2126H13.2516C12.6798 13.2126 12.1927 13.5745 12.0062 14.0821C11.9543 14.2248 11.9258 14.3781 11.9258 14.539Z" fill="#334353"/>
<path d="M12.0059 14.0821C12.0734 14.2645 12.1789 14.4277 12.3141 14.5629C12.5537 14.803 12.8852 14.9516 13.2513 14.9516H14.3346C14.9069 14.9516 15.3941 14.5897 15.5805 14.0821C15.513 13.8997 15.4075 13.7366 15.2723 13.6013C15.0322 13.3612 14.7012 13.2126 14.3346 13.2126H13.2513C12.6795 13.2126 12.1923 13.5744 12.0059 14.0821Z" fill="#3E4E60"/>
<path d="M8.07561 15.5512C8.35803 15.5512 8.641 15.443 8.85647 15.2275L10.8515 13.2324C11.283 12.8015 11.283 12.1021 10.8515 11.6707C10.4237 11.237 9.71037 11.2436 9.28983 11.6707L7.29475 13.6658C6.86334 14.0972 6.86334 14.7966 7.29475 15.2275C7.5049 15.4374 7.78451 15.5507 8.07561 15.5512Z" fill="#EA792E"/>
<path d="M7.67466 15.4756C7.81294 15.4217 7.94208 15.3392 8.05372 15.2276L10.0488 13.2325C10.6127 12.6886 10.4008 11.6939 9.66974 11.4229C9.53145 11.4762 9.40184 11.5587 9.2902 11.6708L7.29512 13.6659C6.73106 14.211 6.94325 15.2045 7.67466 15.4756Z" fill="#F39E22"/>
<path d="M9.52734 12.1335C9.52734 12.4159 9.63555 12.6989 9.85102 12.9143L11.8461 14.9094C12.277 15.3408 12.9764 15.3408 13.4078 14.9094C13.8415 14.4816 13.8349 13.7682 13.4078 13.3477L11.4127 11.3526C10.9813 10.9212 10.282 10.9212 9.85102 11.3526C9.64109 11.5628 9.52781 11.8424 9.52734 12.1335Z" fill="#C44A1A"/>
<path d="M9.60352 11.732C9.65742 11.8703 9.73992 11.9994 9.85148 12.1111L11.8466 14.1062C12.3905 14.6701 13.3852 14.4581 13.6562 13.7271C13.6029 13.5888 13.5204 13.4592 13.4083 13.3476L11.4132 11.3525C10.8681 10.7884 9.87461 11.0006 9.60352 11.732Z" fill="#DD5E26"/>
<path d="M10.1685 7.87187C10.1685 8.04734 10.2357 8.22312 10.3696 8.35695L11.0252 9.01257C11.2929 9.28062 11.7274 9.28062 11.9954 9.01257C12.2648 8.74679 12.2607 8.30367 11.9954 8.04242L11.3397 7.38679C10.9139 6.95484 10.1641 7.26875 10.1685 7.87187Z" fill="#2E3140"/>
<path d="M10.2153 7.62244C10.2488 7.70838 10.3 7.78854 10.3694 7.85791L11.025 8.51354C11.3629 8.86385 11.9809 8.73213 12.1492 8.27807C12.1161 8.19213 12.0648 8.11166 11.9952 8.04229L11.3396 7.38666C11.001 7.03627 10.3838 7.16807 10.2153 7.62244Z" fill="#334353"/>
<path d="M14.6957 10.7425C14.4897 10.9485 14.3872 11.2182 14.3872 11.488C14.3869 11.7575 14.4901 12.0271 14.6957 12.2328L15.3046 12.8417C15.7164 13.2535 16.3835 13.2538 16.7953 12.8421C16.8857 12.7517 16.9557 12.6495 17.0068 12.5401C17.0714 12.3996 17.1038 12.2486 17.1038 12.0966C17.1038 11.8267 17.0013 11.5571 16.7953 11.3511L16.1864 10.7422C15.865 10.4209 15.3878 10.3505 14.9978 10.531C14.8884 10.5821 14.7862 10.6521 14.6957 10.7425Z" fill="#334353"/>
<path d="M14.9973 10.531C14.9328 10.6715 14.9004 10.8224 14.9004 10.9745C14.9001 11.244 15.0029 11.5139 15.2086 11.7196L15.8175 12.3285C16.1391 12.6502 16.6163 12.7206 17.0065 12.5401C17.071 12.3996 17.1034 12.2486 17.1034 12.0966C17.1034 11.8267 17.0009 11.5571 16.7949 11.3511L16.186 10.7422C15.8646 10.4209 15.3874 10.3505 14.9973 10.531Z" fill="#3E4E60"/>
<path d="M11.963 9.14723C12.1218 9.30598 12.3416 9.40418 12.5838 9.40418H14.8264C15.3111 9.40441 15.7042 9.01137 15.7042 8.52644C15.7075 8.04222 15.3028 7.64496 14.8264 7.64871H12.5838C12.0988 7.64871 11.7057 8.04176 11.7061 8.52644C11.7061 8.76254 11.7996 8.9834 11.963 9.14723Z" fill="#EA792E"/>
<path d="M11.7797 8.8792C11.8878 8.9267 12.0067 8.95287 12.1321 8.95287H14.3748C14.9974 8.96405 15.4374 8.28584 15.1789 7.72271C15.0712 7.67498 14.952 7.64849 14.8263 7.64881H12.5836C11.9602 7.6381 11.521 8.31584 11.7797 8.8792Z" fill="#F39E22"/>
<path d="M14.6993 8.04235C14.5406 8.2011 14.4424 8.42095 14.4424 8.66313V10.9058C14.4421 11.3905 14.8352 11.7835 15.3201 11.7835C15.8043 11.7868 16.2016 11.3822 16.1979 10.9058V8.66313C16.1979 8.17813 15.8048 7.78509 15.3201 7.7854C15.084 7.78548 14.8632 7.87899 14.6993 8.04235Z" fill="#C44A1A"/>
<path d="M14.9674 7.8593C14.9199 7.96734 14.8937 8.08625 14.8937 8.21172V10.4544C14.8825 11.077 15.5607 11.517 16.1239 11.2585C16.1716 11.1508 16.1981 11.0316 16.1978 10.9059V8.6632C16.2085 8.03976 15.5308 7.60055 14.9674 7.8593Z" fill="#DD5E26"/>
<path d="M5.26469 21.9114C5.46719 22.037 5.7182 22.0852 5.96859 22.0264L7.19469 21.7389C7.6957 21.6218 8.00664 21.1203 7.88914 20.619C7.77524 20.1178 7.2607 19.8053 6.76922 19.9246L5.54312 20.2121C4.73961 20.3947 4.56531 21.4849 5.26469 21.9114Z" fill="#2E3140"/>
<path d="M5.01052 21.6787C5.13364 21.7015 5.26294 21.6998 5.39263 21.6694L6.61872 21.3818C7.26497 21.2425 7.55528 20.4349 7.15161 19.9155C7.02872 19.8923 6.89911 19.8939 6.76919 19.9246L5.54309 20.2122C4.89614 20.3523 4.60653 21.1591 5.01052 21.6787Z" fill="#334353"/>
<path d="M11.8189 18.7414C11.9093 19.1267 12.147 19.4379 12.4586 19.6311C12.7695 19.8244 13.1545 19.8982 13.5392 19.8081L14.6779 19.5411C15.4478 19.3605 15.9258 18.5906 15.7452 17.8207C15.7056 17.6516 15.6378 17.4975 15.5481 17.3603C15.4321 17.1852 15.281 17.0397 15.1056 16.9309C14.794 16.7377 14.4095 16.6631 14.0243 16.7535L12.8856 17.0205C12.2847 17.1615 11.8619 17.6619 11.791 18.2414C11.7715 18.4042 11.7793 18.5723 11.8189 18.7414Z" fill="#334353"/>
<path d="M11.791 18.2404C11.907 18.4155 12.0581 18.5609 12.2335 18.6698C12.5445 18.8631 12.9296 18.9376 13.3143 18.8474L14.453 18.5803C15.0545 18.4392 15.4773 17.9388 15.5482 17.3593C15.4322 17.1842 15.2811 17.0388 15.1057 16.9299C14.7941 16.7367 14.4096 16.6621 14.0244 16.7525L12.8857 17.0195C12.2848 17.1605 11.8619 17.6609 11.791 18.2404Z" fill="#3E4E60"/>
<path d="M8.02134 20.7535C8.31822 20.6839 8.58892 20.5004 8.76228 20.2208L10.3675 17.632C10.7148 17.0727 10.5424 16.3376 9.98259 15.9905C9.42603 15.6401 8.67783 15.8229 8.34111 16.3754L6.73587 18.9642C6.38876 19.524 6.5611 20.259 7.12079 20.6057C7.39353 20.7747 7.71532 20.8247 8.02134 20.7535Z" fill="#EA792E"/>
<path d="M7.5809 20.773C7.71301 20.6823 7.82832 20.5638 7.91817 20.4189L9.5234 17.8302C9.982 17.1195 9.51403 16.1262 8.67895 16.0215C8.54676 16.1117 8.4309 16.2303 8.34121 16.3757L6.73598 18.9645C6.27738 19.6763 6.74535 20.6684 7.5809 20.773Z" fill="#F39E22"/>
<path d="M8.70425 16.8033C8.77385 17.1002 8.95737 17.3709 9.23698 17.5443L11.8257 19.1495C12.385 19.4968 13.1201 19.3243 13.4672 18.7646C13.8176 18.208 13.6349 17.4598 13.0823 17.1231L10.4935 15.5179C9.9337 15.1707 9.1987 15.3431 8.85206 15.9028C8.68315 16.1754 8.63307 16.4972 8.70425 16.8033Z" fill="#C44A1A"/>
<path d="M8.68457 16.3628C8.77527 16.495 8.89379 16.6103 9.03863 16.7001L11.6274 18.3053C12.3381 18.7639 13.3314 18.296 13.436 17.4609C13.3458 17.3287 13.2272 17.2128 13.0818 17.1232L10.4931 15.5179C9.78113 15.0594 8.7891 15.5273 8.68457 16.3628Z" fill="#DD5E26"/>
<path d="M9.17446 27.8914C9.4075 27.9411 9.66008 27.9016 9.87579 27.7618L10.9326 27.0767C11.3645 26.7971 11.4877 26.22 11.2076 25.788C10.9309 25.3548 10.3411 25.2346 9.91883 25.513L8.86203 26.1981C8.16766 26.6414 8.37211 27.7263 9.17446 27.8914Z" fill="#2E3140"/>
<path d="M8.85566 27.758C8.97925 27.738 9.10034 27.6926 9.21206 27.6202L10.2689 26.9351C10.83 26.5855 10.8303 25.7273 10.2748 25.375C10.1513 25.3947 10.0298 25.4399 9.918 25.5128L8.8612 26.1979C8.29972 26.5484 8.29988 27.4056 8.85566 27.758Z" fill="#334353"/>
<path d="M14.27 22.6918C14.4852 23.0239 14.8143 23.2365 15.1727 23.313C15.5307 23.3898 15.918 23.3292 16.2495 23.1143L17.2309 22.4781C17.8945 22.0479 18.0841 21.1618 17.6539 20.4982C17.5594 20.3525 17.4436 20.2304 17.3127 20.1315C17.1443 20.006 16.953 19.9201 16.7511 19.877C16.3925 19.8005 16.0054 19.8603 15.6734 20.0755L14.692 20.7117C14.1741 21.0474 13.9453 21.6614 14.0744 22.2307C14.1114 22.3905 14.1755 22.5461 14.27 22.6918Z" fill="#334353"/>
<path d="M14.0744 22.2307C14.2428 22.3562 14.4342 22.4421 14.6361 22.4852C14.994 22.5621 15.3817 22.5019 15.7132 22.287L16.6947 21.6508C17.2131 21.3147 17.4419 20.7008 17.3128 20.1315C17.1444 20.006 16.9531 19.9201 16.7511 19.877C16.3926 19.8005 16.0055 19.8603 15.6735 20.0755L14.6921 20.7117C14.1741 21.0474 13.9453 21.6613 14.0744 22.2307Z" fill="#3E4E60"/>
<path d="M11.3763 25.8701C11.6321 25.7043 11.8249 25.4401 11.8936 25.1183L12.5293 22.1393C12.6671 21.4956 12.2564 20.8621 11.6122 20.7246C10.97 20.5829 10.3276 21.0078 10.1975 21.6417L9.56168 24.6207C9.42418 25.2649 9.83488 25.8984 10.4788 26.0354C10.7925 26.1022 11.1123 26.0406 11.3763 25.8701Z" fill="#EA792E"/>
<path d="M10.9684 26.0373C11.0621 25.9073 11.1306 25.7567 11.1662 25.59L11.802 22.611C11.9934 21.7871 11.2172 21.0105 10.3959 21.1942C10.302 21.3238 10.233 21.4746 10.1977 21.6417L9.56196 24.6207C9.37102 25.4457 10.1467 26.2212 10.9684 26.0373Z" fill="#F39E22"/>
<path d="M10.6839 21.9215C10.8498 22.1773 11.114 22.3701 11.4357 22.4387L14.4147 23.0745C15.0584 23.2122 15.692 22.8016 15.8295 22.1574C15.9711 21.5151 15.5463 20.8728 14.9123 20.7426L11.9334 20.1068C11.2891 19.9693 10.6556 20.38 10.5186 21.024C10.4518 21.3376 10.5134 21.6575 10.6839 21.9215Z" fill="#C44A1A"/>
<path d="M10.5171 21.5134C10.6471 21.607 10.7976 21.6755 10.9643 21.7111L13.9433 22.3469C14.7672 22.5383 15.5439 21.7621 15.3601 20.9408C15.2305 20.8469 15.0797 20.7779 14.9126 20.7427L11.9336 20.1069C11.1086 19.9159 10.3331 20.6916 10.5171 21.5134Z" fill="#DD5E26"/>
</svg>
