<svg width="40" height="40" viewBox="0 0 40 40" fill="none" xmlns="http://www.w3.org/2000/svg">
<path d="M40 20C40 31.0458 31.0458 40 20 40C8.95416 40 0 31.0458 0 20C0 8.95416 8.95416 0 20 0C31.0458 0 40 8.95416 40 20Z" fill="#2F373B"/>
<path d="M11.1836 15.9402H28.8163V32.3486H11.1836V15.9402Z" fill="#17A388"/>
<path d="M29.8531 35.1234V37.4082C28.6891 38.0686 27.4523 38.6155 26.1577 39.0336C24.218 39.6613 22.1486 40.0001 20.0002 40.0001C18.2125 40.0001 16.4794 39.7657 14.8302 39.325C14.5314 39.2457 14.236 39.1593 13.9431 39.0662C13.9095 39.0555 13.8759 39.0449 13.8427 39.0336C13.3748 38.8831 12.9143 38.715 12.463 38.5306C11.6637 38.2056 10.8907 37.8303 10.147 37.4082V35.1234C10.147 33.5584 10.6313 32.1061 11.4574 30.9086C12.5258 29.3577 14.1692 28.2334 16.0802 27.8425C16.3716 27.783 16.6686 27.7405 16.9716 27.7158C17.1724 27.6996 17.3748 27.6914 17.5798 27.6914H22.4196C22.9415 27.6914 23.4499 27.7445 23.9406 27.8464C23.9888 27.8562 24.0361 27.8669 24.0834 27.8776C25.9243 28.2987 27.5038 29.4025 28.543 30.9086C29.3691 32.1061 29.8531 33.5584 29.8531 35.1234Z" fill="#E89F18"/>
<path d="M29.8532 35.1234V37.4082C26.9452 39.058 23.5828 40.0001 20 40.0001C17.8882 40.0001 15.8539 39.6726 13.9429 39.0662V35.1234C13.9429 31.0187 17.2711 27.6914 21.3763 27.6914H22.4197C26.5256 27.6914 29.8532 31.0187 29.8532 35.1234Z" fill="#FFE05C"/>
<path d="M23.347 30.7158C23.347 32.4504 22.0272 33.8774 20.3365 34.0462C20.2263 34.0569 20.1137 34.0627 20.0002 34.0627C19.8876 34.0627 19.7756 34.0569 19.6654 34.0462C17.9741 33.8781 16.6533 32.4514 16.6533 30.7158C16.6533 28.8677 18.152 27.3687 20.0002 27.3687C21.8483 27.3687 23.347 28.8677 23.347 30.7158Z" fill="#F2EFEA"/>
<path d="M19.9993 30.734L16.6533 32.5934L15.6353 27.8589L17.7144 26.6343" fill="#D8D4CE"/>
<path d="M19.9995 30.734L23.3455 32.5934L24.3635 27.8589L22.2844 26.6343" fill="#D8D4CE"/>
<path d="M22.6518 24.8281V28.0825C22.6518 29.2739 21.8663 30.281 20.7841 30.6155C20.5366 30.6921 20.2726 30.7339 19.9995 30.7339C18.5353 30.7339 17.3481 29.5468 17.3481 28.0825V24.8281H22.6518Z" fill="#EAA27F"/>
<path d="M22.6519 27.8762V28.0825C22.6519 29.2739 21.8663 30.281 20.7842 30.6155C19.8079 30.3152 19.074 29.4665 18.9385 28.4277C19.1155 28.4387 19.2937 28.4442 19.4725 28.4442C19.9742 28.4442 20.4662 28.4042 20.9453 28.3254C21.5355 28.2308 22.1059 28.0789 22.6519 27.8762Z" fill="#F6BA97"/>
<path d="M12.6058 19.4949C12.6058 20.7224 11.7092 21.7404 10.5349 21.9293C10.4064 21.9501 10.2745 21.9608 10.1396 21.9608C8.77765 21.9608 7.67383 20.8572 7.67383 19.4949C7.67383 18.1326 8.77765 17.0288 10.1396 17.0288C10.2745 17.0288 10.4064 17.0398 10.5349 17.0605C11.7092 17.2495 12.6058 18.2672 12.6058 19.4949Z" fill="#F6BA97"/>
<path d="M12.6061 19.4949C12.6061 20.7224 11.7095 21.7404 10.5352 21.9293C10.3218 21.1536 10.208 20.3372 10.208 19.4949C10.208 18.6523 10.3218 17.836 10.5352 17.0605C11.7095 17.2495 12.6061 18.2672 12.6061 19.4949Z" fill="#EAA27F"/>
<path d="M11.0213 19.4949C11.0213 19.9816 10.6267 20.3762 10.1396 20.3762C9.65289 20.3762 9.2583 19.9816 9.2583 19.4949C9.2583 19.0081 9.65289 18.6135 10.1396 18.6135C10.6267 18.6135 11.0213 19.0081 11.0213 19.4949Z" fill="#EAA27F"/>
<path d="M27.3936 19.4949C27.3936 20.7224 28.2902 21.7404 29.4645 21.9293C29.593 21.9501 29.7248 21.9608 29.8597 21.9608C31.222 21.9608 32.3255 20.8572 32.3255 19.4949C32.3255 18.1326 31.222 17.0288 29.8597 17.0288C29.7248 17.0288 29.593 17.0398 29.4645 17.0605C28.2902 17.2495 27.3936 18.2672 27.3936 19.4949Z" fill="#F6BA97"/>
<path d="M27.3936 19.4949C27.3936 20.7224 28.2902 21.7404 29.4645 21.9293C29.6778 21.1536 29.7919 20.3372 29.7919 19.4949C29.7919 18.6523 29.6781 17.836 29.4645 17.0605C28.2902 17.2495 27.3936 18.2672 27.3936 19.4949Z" fill="#EAA27F"/>
<path d="M30.7412 19.4949C30.7412 19.9816 30.3466 20.3762 29.8599 20.3762C29.3731 20.3762 28.9785 19.9816 28.9785 19.4949C28.9785 19.0081 29.3731 18.6135 29.8599 18.6135C30.3466 18.6135 30.7412 19.0081 30.7412 19.4949Z" fill="#EAA27F"/>
<path d="M29.1749 14.6906V18.1845C29.1749 22.7502 25.8397 26.5378 21.4723 27.2406C21.4576 27.243 21.4421 27.2455 21.4274 27.2482C20.963 27.3224 20.486 27.359 19.9995 27.359C14.9327 27.359 10.8247 23.2513 10.8247 18.1845V14.6906C10.8247 13.6237 11.0069 12.5983 11.3432 11.6455C12.5978 8.07495 16.0005 5.51514 19.9995 5.51514H20.0004C20.486 5.51514 20.9636 5.55267 21.429 5.62592C25.8174 6.31165 29.1749 10.1093 29.1749 14.6906Z" fill="#EAA27F"/>
<path d="M29.175 14.6906V18.1846C29.175 22.7503 25.8397 26.5378 21.4724 27.2407C21.4577 27.2431 21.4421 27.2455 21.4275 27.2483C17.0388 26.5626 13.6821 22.765 13.6821 18.1846V14.6906C13.6821 10.1093 17.0397 6.31171 21.429 5.62598C25.8174 6.31171 29.175 10.1093 29.175 14.6906Z" fill="#F6BA97"/>
<path d="M26.2448 20.5933C26.2448 21.2247 25.733 21.7362 25.1019 21.7362C24.4708 21.7362 23.959 21.2247 23.959 20.5933C23.959 19.9622 24.4708 19.4504 25.1019 19.4504C25.733 19.4504 26.2448 19.9622 26.2448 20.5933Z" fill="#EAA27F"/>
<path d="M16.0406 20.5933C16.0406 21.2247 15.5289 21.7362 14.8978 21.7362C14.2667 21.7362 13.7549 21.2247 13.7549 20.5933C13.7549 19.9622 14.2667 19.4504 14.8978 19.4504C15.5289 19.4504 16.0406 19.9622 16.0406 20.5933Z" fill="#EAA27F"/>
<path d="M24.9272 17.4098C24.9272 16.5681 24.2448 15.8857 23.4034 15.8857C22.5618 15.8857 21.8794 16.5681 21.8794 17.4098" fill="#EAA27F"/>
<path d="M18.121 17.4098C18.121 16.5681 17.4387 15.8857 16.5973 15.8857C15.7556 15.8857 15.0732 16.5681 15.0732 17.4098" fill="#EAA27F"/>
<path d="M17.6378 18.0582C17.6378 18.6332 17.1718 19.0992 16.5971 19.0992C16.0222 19.0992 15.5562 18.6332 15.5562 18.0582C15.5562 17.4836 16.0222 17.0176 16.5971 17.0176C17.1718 17.0176 17.6378 17.4836 17.6378 18.0582Z" fill="#2F373B"/>
<path d="M24.4439 18.0582C24.4439 18.6332 23.9779 19.0992 23.4033 19.0992C22.8283 19.0992 22.3623 18.6332 22.3623 18.0582C22.3623 17.4836 22.8283 17.0176 23.4033 17.0176C23.9779 17.0176 24.4439 17.4836 24.4439 18.0582Z" fill="#2F373B"/>
<path d="M21.0408 20.6786H18.9592C18.7114 20.6786 18.5103 20.4778 18.5103 20.2297C18.5103 19.9819 18.7114 19.7808 18.9592 19.7808H21.0408C21.2889 19.7808 21.49 19.9819 21.49 20.2297C21.49 20.4778 21.2889 20.6786 21.0408 20.6786Z" fill="#EAA27F"/>
<path d="M19.9999 23.5194C19.2314 23.5194 18.4633 23.3271 17.7629 22.942C17.5655 22.8333 17.4932 22.5852 17.6018 22.3878C17.7105 22.1903 17.9586 22.1183 18.156 22.2266C19.3105 22.8614 20.689 22.8614 21.8434 22.2266C22.0409 22.118 22.289 22.19 22.3976 22.3878C22.5063 22.5852 22.4343 22.8333 22.2365 22.942C21.5364 23.3271 20.768 23.5194 19.9999 23.5194Z" fill="#EAA27F"/>
<path d="M17.4257 17.8749C17.4257 18.1212 17.2261 18.3207 16.9799 18.3207C16.7333 18.3207 16.5337 18.1212 16.5337 17.8749C16.5337 17.6283 16.7333 17.4287 16.9799 17.4287C17.2261 17.4287 17.4257 17.6283 17.4257 17.8749Z" fill="white"/>
<path d="M24.2828 17.8749C24.2828 18.1212 24.0833 18.3207 23.837 18.3207C23.5907 18.3207 23.3911 18.1212 23.3911 17.8749C23.3911 17.6283 23.5907 17.4287 23.837 17.4287C24.0833 17.4287 24.2828 17.6283 24.2828 17.8749Z" fill="white"/>
<path d="M29.4644 17.0603C16.7248 17.0603 15.2652 11.9404 15.2652 11.9404C15.2652 11.9404 13.396 17.0603 10.5347 17.0603C10.5347 17.0603 9.63255 13.5731 10.2856 9.24661C10.9387 4.92014 15.347 5.81796 15.347 5.81796C34.1223 0.430086 29.4644 17.0603 29.4644 17.0603Z" fill="#27BA9E"/>
<path d="M15.2652 11.9404C15.2652 11.9404 13.396 17.0603 10.5347 17.0603C10.5347 17.0603 9.63255 13.5731 10.2856 9.24661C10.9387 4.92013 15.347 5.81796 15.347 5.81796C15.347 5.81796 13.0749 9.46939 15.2652 11.9404Z" fill="#17A388"/>
<path d="M31.6081 10.4767C31.4479 10.3843 31.2676 10.3 31.0768 10.2262C31.2676 10.1523 31.4479 10.0678 31.6081 9.97534C32.5707 9.41962 32.4468 8.79156 32.0732 8.14459C31.6997 7.49731 31.2175 7.07617 30.255 7.6319C30.0951 7.72437 29.9318 7.8382 29.7722 7.96637C29.8036 7.76434 29.8207 7.56598 29.8207 7.38135C29.8207 6.2699 29.2149 6.06299 28.4679 6.06299C27.7205 6.06299 27.1147 6.2699 27.1147 7.38135C27.1147 7.56598 27.1318 7.76434 27.1633 7.96637C27.004 7.8382 26.8407 7.72437 26.6805 7.6319C25.7179 7.07617 25.2361 7.49731 24.8622 8.14459C24.4887 8.79156 24.3651 9.41962 25.3273 9.97534C25.4875 10.0678 25.6679 10.1523 25.8586 10.2262C25.6679 10.3 25.4875 10.3843 25.3273 10.4767C24.3651 11.0325 24.4887 11.6605 24.8622 12.3078C25.2361 12.9548 25.7182 13.3759 26.6805 12.8205C26.8407 12.728 27.004 12.6139 27.1633 12.4857C27.1318 12.6877 27.1147 12.8861 27.1147 13.071C27.1147 14.1825 27.7205 14.3894 28.4679 14.3894C29.2149 14.3894 29.8207 14.1822 29.8207 13.071C29.8207 12.8861 29.8036 12.6877 29.7722 12.4857C29.9318 12.6139 30.0948 12.728 30.255 12.8205C31.2175 13.3759 31.6997 12.9548 32.0732 12.3078C32.4468 11.6605 32.5707 11.0325 31.6081 10.4767Z" fill="#FFE05C"/>
<path d="M29.9593 10.2261C29.9593 11.0501 29.2913 11.7178 28.4676 11.7178C27.6436 11.7178 26.9756 11.0501 26.9756 10.2261C26.9756 9.40216 27.6436 8.73413 28.4676 8.73413C29.2913 8.73413 29.9593 9.40216 29.9593 10.2261Z" fill="#F73B6C"/>
<path d="M31.517 21.7742C31.517 22.1615 31.203 22.4755 30.8157 22.4755C30.4285 22.4755 30.1147 22.1615 30.1147 21.7742C30.1147 21.387 30.4285 21.0732 30.8157 21.0732C31.203 21.0732 31.517 21.387 31.517 21.7742Z" fill="#F73B6C"/>
<path d="M9.88568 21.7742C9.88568 22.1615 9.57166 22.4755 9.18439 22.4755C8.79712 22.4755 8.4834 22.1615 8.4834 21.7742C8.4834 21.387 8.79712 21.0732 9.18439 21.0732C9.57166 21.0732 9.88568 21.387 9.88568 21.7742Z" fill="#F73B6C"/>
</svg>
