<svg width="40" height="40" viewBox="0 0 40 40" fill="none" xmlns="http://www.w3.org/2000/svg">
<path d="M20 40C31.0457 40 40 31.0457 40 20C40 8.9543 31.0457 0 20 0C8.9543 0 0 8.9543 0 20C0 31.0457 8.9543 40 20 40Z" fill="#6C53A2"/>
<path d="M15.336 10.6228V22.9853H13.4446C11.9485 21.4884 11.0251 20.3712 10.6899 19.2267C10.0962 17.1994 11.3462 15.0845 14.5235 10.6228H15.336Z" fill="#2E3140"/>
<path d="M15.0204 10.7087C15.0204 14.6978 13.2017 18.0767 10.6899 19.2267C10.0962 17.1994 11.3462 15.0845 14.5235 10.6228H15.0196C15.0204 10.6509 15.0204 10.6798 15.0204 10.7087Z" fill="#3E4E60"/>
<path d="M24.6997 10.6228V22.9853H26.5911C28.0872 21.4884 29.0107 20.3712 29.3458 19.2267C29.9396 17.1994 28.6896 15.0845 25.5122 10.6228H24.6997Z" fill="#2E3140"/>
<path d="M25.0151 10.7087C25.0151 14.6978 26.8339 18.0767 29.3456 19.2267C29.9394 17.1994 28.6894 15.0845 25.512 10.6228H25.0159C25.0151 10.6509 25.0151 10.6798 25.0151 10.7087Z" fill="#3E4E60"/>
<path d="M26.6224 21.7526V25.0753C26.6224 26.5894 26.0031 28.059 24.8667 29.2409L21.938 32.2869H18.094L15.1654 29.2409C14.029 28.059 13.4097 26.5894 13.4097 25.0753V21.7526C13.4097 18.73 16.3402 16.2773 19.965 16.2554C19.9819 16.2546 19.9987 16.2546 20.0156 16.2546C21.8406 16.2546 23.4915 16.8698 24.6878 17.8646C25.8832 18.8602 26.6224 20.2339 26.6224 21.7526Z" fill="#A26D5A"/>
<path d="M26.6223 21.7526V25.0753C26.6223 26.5894 26.003 28.059 24.8666 29.2409L21.9379 32.2869H19.9648V16.2554C19.9817 16.2546 19.9986 16.2546 20.0155 16.2546C21.8405 16.2546 23.4913 16.8698 24.6876 17.8646C25.883 18.8602 26.6223 20.2339 26.6223 21.7526Z" fill="#C17E62"/>
<path d="M25.9014 18.0961L25.5707 18.5623C24.6601 19.8495 24.0501 21.2676 23.7747 22.7435L22.5726 29.1754C22.3937 30.1328 22.5651 31.1136 23.0655 31.9891L23.5526 32.8412C23.9143 33.4743 24.0698 34.1752 24.0042 34.8745L23.8 37.0278C23.7307 37.7677 22.9887 38.3384 22.0968 38.3384H17.9304C17.0394 38.3384 16.2974 37.7677 16.2271 37.0286L16.0191 34.8457C15.9535 34.165 16.0997 33.4813 16.4416 32.8607L16.9972 31.8519C17.4712 30.992 17.6305 30.0346 17.4553 29.099L16.2458 22.6273C15.9703 21.1546 15.3623 19.738 14.4544 18.4532L14.1284 17.9924C13.4586 17.0459 13.3237 15.9022 13.7593 14.8653L15.6593 10.3419C16.0743 9.35567 17.193 8.69458 18.4483 8.69458H21.569C22.8301 8.69458 23.9515 9.36114 24.3619 10.3529L26.2778 14.9839C26.7051 16.0168 26.5675 17.1543 25.9014 18.0961Z" fill="#C17E62"/>
<path d="M25.9015 18.096L25.5708 18.5622C24.6602 19.8494 24.0503 21.2675 23.7748 22.7434L22.5728 29.1754C22.3938 30.1327 22.5653 31.1135 23.0656 31.989L23.5528 32.8411C23.9144 33.4742 24.0699 34.1751 24.0043 34.8744L23.8001 37.0278C23.7308 37.7676 22.9888 38.3383 22.0969 38.3383H20.0161V8.69458H21.5695C22.8306 8.69458 23.952 9.36114 24.3623 10.3529L26.2782 14.9839C26.7053 16.0168 26.5676 17.1542 25.9015 18.096Z" fill="#D48D77"/>
<path d="M20.8826 21.1189H20.0171V29.5511C20.7591 29.5511 21.3841 29.0898 21.4726 28.4767L22.3382 22.4844C22.4431 21.7582 21.7617 21.1189 20.8826 21.1189Z" fill="#EEA47D"/>
<path d="M19.1508 21.1189H20.0163V29.5511C19.2743 29.5511 18.6493 29.0898 18.5608 28.4767L17.6953 22.4844C17.5903 21.7582 18.2717 21.1189 19.1508 21.1189Z" fill="#D48D77"/>
<path d="M20.0161 10.2112H20.8321C21.7413 10.2112 22.5528 10.782 22.8599 11.6378L23.8367 14.3599C24.1413 15.2088 23.6961 16.1402 22.8466 16.4428C22.107 16.7063 21.1321 16.9429 20.0162 16.9429V10.2112H20.0161Z" fill="#EEA47D"/>
<path d="M20.016 10.2112H19.2001C18.2909 10.2112 17.4795 10.782 17.1723 11.6378L16.1955 14.3599C15.8909 15.2088 16.3361 16.1402 17.1856 16.4428C17.9252 16.7063 18.9002 16.9429 20.016 16.9429V10.2112Z" fill="#D48D77"/>
<path d="M26.2584 9.76539C26.1779 9.8568 26.0912 9.93258 25.999 9.99117C24.9404 10.663 25.4686 12.992 25.485 13.0662L21.5693 8.6943C21.5693 5.63571 23.0818 5.49899 23.6482 4.00914C23.7795 3.66618 23.86 3.25055 23.86 2.70993C23.86 -0.171322 25.567 1.77555 26.5225 3.52789C27.4076 5.14977 27.2623 8.63336 26.2584 9.76539Z" fill="#D48D77"/>
<path d="M26.2581 9.7654C24.7292 8.50524 23.7097 6.40368 23.6479 4.00915C23.7792 3.66618 23.8597 3.25055 23.8597 2.70993C23.8597 -0.171322 25.5667 1.77555 26.5222 3.5279C27.4073 5.14977 27.262 8.63336 26.2581 9.7654Z" fill="#EEA47D"/>
<path d="M24.9335 9.84545C24.6284 10.0523 24.2118 9.86818 24.1543 9.50412C23.7703 7.07295 23.9438 5.93193 24.3384 4.80912C24.7637 3.59896 23.9131 1.9217 24.3384 1.7731C24.7637 1.62451 27.1628 4.63927 26.3773 7.39927C25.9575 8.87404 25.3801 9.54256 24.9335 9.84545Z" fill="#C17E62"/>
<path d="M13.7423 9.76539C13.8227 9.8568 13.9095 9.93258 14.0016 9.99117C15.0602 10.663 14.5321 12.992 14.5157 13.0662L18.4313 8.6943C18.4313 5.63571 16.9188 5.49899 16.3524 4.00914C16.2212 3.66618 16.1407 3.25055 16.1407 2.70993C16.1407 -0.171322 14.4337 1.77555 13.4782 3.52789C12.5931 5.14977 12.7384 8.63336 13.7423 9.76539Z" fill="#C17E62"/>
<path d="M13.7423 9.7654C15.2712 8.50524 16.2907 6.40368 16.3524 4.00915C16.2212 3.66618 16.1407 3.25055 16.1407 2.70993C16.1407 -0.171322 14.4337 1.77555 13.4782 3.5279C12.5931 5.14977 12.7384 8.63336 13.7423 9.7654Z" fill="#D48D77"/>
<path d="M15.0674 9.84545C15.3725 10.0523 15.7891 9.86818 15.8466 9.50412C16.2306 7.07295 16.0571 5.93193 15.6625 4.80912C15.2371 3.59896 16.0878 1.9217 15.6625 1.7731C15.2371 1.62451 12.8381 4.63927 13.6236 7.39927C14.0434 8.87404 14.6207 9.54256 15.0674 9.84545Z" fill="#A26D5A"/>
<path d="M26.0125 17.75C26.5908 18.0839 26.7919 18.8192 26.4663 19.4C26.4643 19.4054 26.4615 19.4103 26.4587 19.4151L26.0346 20.1496C25.8665 20.4408 25.5959 20.637 25.2944 20.7178C24.9925 20.7993 24.6608 20.7652 24.3689 20.5966C23.8264 20.2834 23.6153 19.6161 23.8597 19.0555C23.8778 19.0129 23.8988 18.9708 23.9223 18.9301L24.3464 18.1957C24.515 17.9037 24.7858 17.7087 25.0873 17.6279C25.3889 17.5472 25.7205 17.5814 26.0125 17.75Z" fill="#3E4E60"/>
<path d="M26.0125 17.75C26.5908 18.0839 26.792 18.8192 26.4664 19.4001C25.8145 19.7459 24.966 19.7429 24.2348 19.3208C24.0989 19.2424 23.9735 19.1536 23.8599 19.0555C23.878 19.0129 23.899 18.9708 23.9225 18.9301L24.3466 18.1957C24.5152 17.9037 24.786 17.7087 25.0875 17.6279C25.3889 17.5472 25.7206 17.5814 26.0125 17.75Z" fill="#2E3140"/>
<path d="M24.9535 18.2451L24.6984 18.687C24.5885 18.8773 24.6537 19.1206 24.844 19.2304C25.0343 19.3403 25.2776 19.2751 25.3875 19.0848L25.6426 18.6429C25.7525 18.4526 25.6873 18.2093 25.497 18.0995C25.3067 17.9896 25.0635 18.0549 24.9535 18.2451Z" fill="white"/>
<path d="M13.9167 17.75C13.3384 18.0839 13.1372 18.8192 13.4628 19.4C13.4649 19.4054 13.4677 19.4103 13.4705 19.4151L13.8945 20.1496C14.0627 20.4408 14.3332 20.637 14.6347 20.7178C14.9367 20.7993 15.2683 20.7652 15.5602 20.5966C16.1027 20.2834 16.3138 19.6161 16.0695 19.0555C16.0513 19.0129 16.0303 18.9708 16.0068 18.9301L15.5827 18.1957C15.4142 17.9037 15.1433 17.7087 14.8418 17.6279C14.5402 17.5472 14.2087 17.5814 13.9167 17.75Z" fill="#3E4E60"/>
<path d="M13.9167 17.75C13.3384 18.0839 13.1372 18.8192 13.4628 19.4001C14.1147 19.7459 14.9632 19.7429 15.6944 19.3208C15.8302 19.2424 15.9557 19.1536 16.0694 19.0555C16.0513 19.0129 16.0302 18.9708 16.0067 18.9301L15.5827 18.1957C15.4141 17.9037 15.1432 17.7087 14.8417 17.6279C14.5402 17.5472 14.2087 17.5814 13.9167 17.75Z" fill="#2E3140"/>
<path d="M14.9758 18.2451L15.231 18.687C15.3408 18.8773 15.2757 19.1206 15.0854 19.2304C14.895 19.3403 14.6518 19.2751 14.5419 19.0848L14.2868 18.6429C14.1769 18.4526 14.2421 18.2093 14.4324 18.0995C14.6227 17.9896 14.866 18.0549 14.9758 18.2451Z" fill="white"/>
<path d="M19.1392 35.9246C19.1392 36.3604 18.7392 36.7323 18.208 36.7705C17.6468 36.811 17.1521 36.4656 17.1034 35.9987L17.0228 35.2299L16.9254 34.3077C16.8757 33.8406 17.2917 33.429 17.8529 33.3878C18.4141 33.3472 18.9088 33.6926 18.9575 34.1596L19.0221 34.7731L19.1355 35.8506C19.1383 35.8755 19.1392 35.9005 19.1392 35.9246Z" fill="#2E3140"/>
<path d="M19.1389 35.9247C19.1389 36.3605 18.7388 36.7324 18.2076 36.7706C17.6464 36.8111 17.1518 36.4658 17.103 35.9988L17.0225 35.2301C17.6502 35.0055 18.321 34.8496 19.0218 34.7732L19.1351 35.8506C19.1379 35.8756 19.1389 35.9006 19.1389 35.9247Z" fill="#3E4E60"/>
<path d="M23.0776 34.3077L22.9821 35.2199L22.8996 35.9987C22.8528 36.4407 22.4068 36.7736 21.8832 36.7736C21.8541 36.7736 21.8242 36.7728 21.7942 36.7705C21.233 36.7299 20.8179 36.3175 20.8667 35.8506L20.98 34.77L21.0447 34.1596C21.0943 33.6925 21.5889 33.3472 22.1502 33.3878C22.7114 33.4291 23.1264 33.8407 23.0776 34.3077Z" fill="#2E3140"/>
<path d="M22.9821 35.2199L22.8996 35.9987C22.8528 36.4407 22.4068 36.7736 21.8832 36.7736C21.8541 36.7736 21.8242 36.7728 21.7942 36.7705C21.233 36.7299 20.8179 36.3175 20.8667 35.8506L20.98 34.77C21.6817 34.8441 22.3535 34.9977 22.9821 35.2199Z" fill="#3E4E60"/>
<path d="M23.0599 12.6345H16.9396C16.1255 12.6345 15.5997 11.772 15.974 11.0478L16.1505 10.7064L16.6482 9.74311L17.4896 8.11264C17.9747 7.17358 18.9427 6.58374 19.9997 6.58374C21.0568 6.58374 22.0247 7.17358 22.5099 8.11264L23.3443 9.72827L23.8489 10.7064L24.0255 11.0478C24.3997 11.772 23.8739 12.6345 23.0599 12.6345Z" fill="#2E3140"/>
<path d="M23.0599 12.6346H16.9396C16.1255 12.6346 15.5997 11.7721 15.974 11.0478L16.1505 10.7064L16.6482 9.74316C17.6638 9.35488 18.8068 9.1377 20.0146 9.1377C21.2075 9.1377 22.3372 9.35019 23.3443 9.72832L23.8489 10.7064L24.0255 11.0478C24.3997 11.7721 23.8739 12.6346 23.0599 12.6346Z" fill="#3E4E60"/>
</svg>
