<svg width="40" height="40" viewBox="0 0 40 40" fill="none" xmlns="http://www.w3.org/2000/svg">
<path d="M20 40C31.0457 40 40 31.0457 40 20C40 8.9543 31.0457 0 20 0C8.9543 0 0 8.9543 0 20C0 31.0457 8.9543 40 20 40Z" fill="#EE6781"/>
<path d="M29.4927 24.8556L25.8276 29.6625L25.2827 30.3766C24.819 30.9863 24.2264 31.4456 23.5708 31.7445C23.1422 31.9399 22.6856 32.067 22.2201 32.1209C21.9616 32.1506 21.7004 32.1588 21.4393 32.1444C20.9395 32.1156 20.4406 32.0031 19.9633 31.8022C19.7454 31.7121 19.532 31.6023 19.3248 31.4744L18.6125 31.0322L16.3558 29.6328L15.005 28.7953L12.7483 27.3959L11.3975 26.5575L9.14076 25.1581L7.78998 24.3206L7.48834 24.1332C6.78951 23.7001 6.33209 22.977 6.23209 22.1737C6.21764 22.0629 6.21045 21.9503 6.21045 21.8369V20.5959H23.2762L29.4927 24.8556Z" fill="#EA792E"/>
<path d="M21.4391 32.1443C20.9394 32.1155 20.4404 32.003 19.9632 31.8021C19.7452 31.712 19.5319 31.6022 19.3247 31.4743L18.6123 31.0321L16.3556 29.6327L15.0048 28.7952L12.7481 27.3958L11.3973 26.5574L9.1406 25.158L7.78982 24.3205L7.48818 24.1331C6.78936 23.7 6.33193 22.9769 6.23193 22.1736C6.7317 22.2024 7.23061 22.315 7.70787 22.5158C7.92576 22.6058 8.1392 22.7157 8.34639 22.8436L9.05873 23.2858L11.3154 24.6851L12.6662 25.5226L14.9229 26.9221L16.2737 27.7605L18.5304 29.1599L19.8812 29.9974L20.1829 30.1847C20.8817 30.6179 21.3391 31.341 21.4391 32.1443Z" fill="#F39E22"/>
<path d="M24.699 27.5338C24.0759 27.5338 23.5707 28.039 23.5707 28.6621V31.7447C24.2262 31.4457 24.8188 30.9864 25.2826 30.3768L25.8274 29.6626V28.6621C25.8274 28.039 25.3222 27.5338 24.699 27.5338ZM7.75756 22.5368C7.63506 22.0451 7.19115 21.6804 6.66162 21.6804C6.50131 21.6804 6.34912 21.7137 6.21045 21.7741V21.8371C6.21045 21.9506 6.21764 22.0632 6.23209 22.1739C6.33201 22.9772 6.78951 23.7003 7.48834 24.1335L7.78998 24.3208V22.8089C7.78998 22.7151 7.77826 22.6242 7.75756 22.5368ZM10.2691 22.3107C9.68021 22.3107 9.19568 22.7628 9.14529 23.3391C9.14256 23.3715 9.14076 23.4049 9.14076 23.4391V25.1582L11.3975 26.5576V23.4391C11.3975 22.816 10.8922 22.3107 10.2691 22.3107ZM13.8766 23.0312C13.2534 23.0312 12.7483 23.5364 12.7483 24.1596V27.3961L15.005 28.7955V24.1596C15.005 23.5364 14.4997 23.0312 13.8766 23.0312ZM17.4841 23.9318C16.8609 23.9318 16.3558 24.437 16.3558 25.0601V29.633L18.6125 31.0324V25.0601C18.6125 24.4369 18.1072 23.9318 17.4841 23.9318ZM21.0915 25.5527C20.4684 25.5527 19.9632 26.0579 19.9632 26.6811V31.8023C20.4404 32.0031 20.9394 32.1157 21.4391 32.1445C21.7003 32.1589 21.9615 32.1508 22.2199 32.1211V26.681C22.2199 26.0578 21.7147 25.5527 21.0915 25.5527Z" fill="#F39E22"/>
<path d="M7.7574 22.5368C7.7781 22.6241 7.78982 22.7151 7.78982 22.8088V24.3207L7.48818 24.1334C6.78935 23.7002 6.33193 22.9771 6.23193 22.1738C6.7317 22.2027 7.23061 22.3152 7.70787 22.516C7.72404 22.5233 7.74115 22.5295 7.7574 22.5368Z" fill="#F9C744"/>
<path d="M11.3149 24.6854L11.3969 24.7359V26.5576L9.14014 25.1582V23.4391C9.14014 23.4049 9.14193 23.3715 9.14467 23.3391L11.3149 24.6854Z" fill="#F9C744"/>
<path d="M14.9228 26.9222L15.0048 26.9726V28.7953L12.748 27.3959V25.5732L14.9228 26.9222Z" fill="#F9C744"/>
<path d="M18.5302 29.1603L18.6122 29.2107V31.0324L16.3555 29.633V27.8113L18.5302 29.1603Z" fill="#F9C744"/>
<path d="M21.4393 32.1444C20.9395 32.1155 20.4406 32.003 19.9634 31.8022V30.0488L20.1831 30.1848C20.8819 30.618 21.3393 31.3411 21.4393 32.1444Z" fill="#F9C744"/>
<path d="M34.8603 11.8934L31.2988 21.5542L30.7485 23.0464C30.4009 23.9883 29.7733 24.7277 29.0015 25.2185C27.6318 26.092 25.8091 26.1811 24.3044 25.2274L23.9856 25.0267C21.8406 23.6669 19.4425 22.7556 16.9355 22.3458L6.2111 20.596C5.51321 20.4826 4.93055 20.0035 4.68383 19.3416L4.50735 18.8688C4.35063 18.4491 4.34618 18.007 4.46953 17.6053C4.62172 17.1064 4.9711 16.6715 5.46907 16.4211L11.0406 13.625C12.8002 12.7425 14.7409 12.2832 16.7094 12.2832H21.4759C22.7627 12.2832 23.9973 11.7718 24.9077 10.8613L25.6408 10.1282C27.0384 8.73152 28.9331 7.94629 30.9088 7.94629H32.1084C32.7774 7.94629 33.379 8.16418 33.8608 8.52535C34.8504 9.26566 35.3349 10.6065 34.8603 11.8934Z" fill="#F39E22"/>
<path d="M33.8605 8.52552L30.0873 14.0367C28.9904 15.6387 27.247 16.6797 25.3163 16.885L8.31447 18.6969C7.15908 18.8194 5.9965 18.5537 5.00955 17.9414L4.46924 17.6055C4.62143 17.1066 4.9708 16.6717 5.46877 16.4213L5.47689 16.4177L11.0403 13.6252C11.7031 13.2929 12.3921 13.02 13.0989 12.8093C14.2669 12.4618 15.4826 12.2835 16.7091 12.2835H21.4756C22.7624 12.2835 23.9971 11.772 24.9074 10.8615L25.6405 10.1285C27.0381 8.73177 28.9328 7.94653 30.9085 7.94653H32.1081C32.7772 7.94646 33.3788 8.16442 33.8605 8.52552Z" fill="#F9C744"/>
<path d="M22.7963 21.1769C23.372 21.1769 23.8388 20.7102 23.8388 20.1345C23.8388 19.5587 23.372 19.092 22.7963 19.092C22.2206 19.092 21.7539 19.5587 21.7539 20.1345C21.7539 20.7102 22.2206 21.1769 22.7963 21.1769Z" fill="#F9C744"/>
<path d="M26.7584 20.6558C27.622 20.6558 28.322 19.9557 28.322 19.0922C28.322 18.2286 27.622 17.5286 26.7584 17.5286C25.8949 17.5286 25.1948 18.2286 25.1948 19.0922C25.1948 19.9557 25.8949 20.6558 26.7584 20.6558Z" fill="#F9C744"/>
<path d="M24.6993 24.3042C25.5629 24.3042 26.2629 23.6041 26.2629 22.7406C26.2629 21.877 25.5629 21.177 24.6993 21.177C23.8358 21.177 23.1357 21.877 23.1357 22.7406C23.1357 23.6041 23.8358 24.3042 24.6993 24.3042Z" fill="#F9C744"/>
<path d="M31.298 21.5542L30.7477 23.0464C30.4001 23.9884 29.7725 24.7277 29.0007 25.2185C28.048 24.9547 27.3491 24.0812 27.3491 23.0447C27.3491 21.7993 28.3595 20.7888 29.6058 20.7888C30.2804 20.7887 30.8855 21.0851 31.298 21.5542Z" fill="#F9C744"/>
<path d="M13.0996 12.8091L13.0212 13.8402C12.915 15.2396 11.9883 16.4418 10.6628 16.902L9.26605 17.3865C8.03051 17.8152 6.65902 17.5242 5.70449 16.63L5.47754 16.4175L5.97285 16.169L10.8078 13.7421L11.041 13.625C11.7038 13.2927 12.3926 13.0199 13.0996 12.8091Z" fill="#FAD98F"/>
<path d="M32.1086 7.94637L30.8812 9.46824L27.6996 13.4143C27.0107 14.2689 25.8797 14.585 24.8737 14.2644C24.6792 14.2022 24.4901 14.1167 24.3091 14.0068L21.4761 12.2832C22.7629 12.2832 23.9976 11.7718 24.9079 10.8613L25.641 10.1282C27.0386 8.73152 28.9333 7.94629 30.909 7.94629H32.1086V7.94637Z" fill="#FAD98F"/>
<path d="M29.0339 9.56821C29.7311 9.26087 30.3706 10.102 29.8923 10.6951L27.6999 13.4144C27.4302 13.7489 27.0927 14.0009 26.7215 14.1646C26.0243 14.472 25.3849 13.6309 25.8631 13.0377L28.0556 10.3184C28.3252 9.98384 28.6628 9.7318 29.0339 9.56821Z" fill="white"/>
<path d="M10.8112 13.8899C10.8112 15.5226 9.48743 16.8463 7.85477 16.8463C7.13883 16.8463 6.48414 16.5923 5.97266 16.1691L10.8076 13.7422C10.8103 13.7909 10.8112 13.8404 10.8112 13.8899Z" fill="white"/>
<path d="M18.7873 21.0301C17.3987 21.8207 15.7255 21.6541 14.5323 20.7374C14.136 20.4348 13.792 20.0485 13.53 19.5874C12.4764 17.7368 13.123 15.3829 14.9726 14.3293C16.7503 13.318 18.9917 13.8736 20.1002 15.5585C20.1452 15.6279 20.1894 15.6999 20.2308 15.7728C21.2835 17.6224 20.6379 19.9764 18.7873 21.0301Z" fill="#FAD98F"/>
<path d="M18.787 21.03C17.3985 21.8206 15.7253 21.6541 14.5321 20.7374C14.5185 20.5969 14.5122 20.4537 14.5122 20.3096C14.5122 17.6513 16.6671 15.4963 19.3264 15.4963C19.5894 15.4963 19.8478 15.517 20.0999 15.5584C20.1449 15.6278 20.1891 15.6999 20.2306 15.7727C21.2833 17.6224 20.6377 19.9763 18.787 21.03Z" fill="#F9C744"/>
<path d="M17.5638 19.7909C16.5832 20.3492 15.3944 20.2051 14.5777 19.518C14.3463 19.3244 14.1454 19.0857 13.9869 18.8084C13.2701 17.5504 13.7104 15.9483 14.9694 15.2315C16.0158 14.6363 17.3009 14.8398 18.1158 15.6503C18.2806 15.8142 18.4256 16.0024 18.5463 16.214C19.2631 17.4729 18.8228 19.0741 17.5638 19.7909Z" fill="#FAEFDC"/>
<path d="M17.5637 19.791C16.5831 20.3493 15.3944 20.2052 14.5776 19.5181C14.8892 17.636 16.2922 16.1223 18.1158 15.6504C18.2805 15.8143 18.4255 16.0025 18.5462 16.2141C19.263 17.473 18.8227 19.0742 17.5637 19.791Z" fill="#FAD98F"/>
<path d="M16.7004 18.8201C16.0781 19.174 15.3225 19.0731 14.8174 18.6229C14.6886 18.5076 14.5761 18.3707 14.486 18.2131C14.0429 17.4333 14.3149 16.4427 15.0939 15.9987C15.69 15.6601 16.4104 15.7394 16.9138 16.1446C17.0687 16.2689 17.2029 16.4237 17.3073 16.6065C17.7512 17.3855 17.4793 18.377 16.7004 18.8201Z" fill="white"/>
<path d="M16.6999 18.8202C16.0776 19.1741 15.3221 19.0732 14.8169 18.623C15.2086 17.5748 15.956 16.6995 16.9133 16.1448C17.0682 16.2691 17.2024 16.4239 17.3068 16.6067C17.7507 17.3856 17.4788 18.3771 16.6999 18.8202Z" fill="#FAEFDC"/>
<path d="M16.635 16.9901C16.803 17.2852 16.774 17.6384 16.5909 17.8991C16.5208 17.9981 16.4286 18.0837 16.3167 18.1475C15.9097 18.3791 15.3914 18.2369 15.1598 17.83C14.9277 17.4222 15.0699 16.9039 15.4768 16.6723C15.5888 16.6085 15.7094 16.5731 15.8303 16.5633C16.1481 16.5388 16.4666 16.6943 16.635 16.9901Z" fill="#3F5D77"/>
<path d="M16.6341 16.9902C16.802 17.2853 16.7731 17.6385 16.5899 17.8992C16.2722 17.9237 15.9537 17.7682 15.7857 17.4731C15.6173 17.1773 15.6463 16.8241 15.8294 16.5633C16.1471 16.5389 16.4656 16.6944 16.6341 16.9902Z" fill="#2E3140"/>
<path d="M19.6362 18.8863C19.5967 18.8863 19.5566 18.8812 19.5167 18.8702L18.132 18.4901C17.8921 18.4243 17.7511 18.1766 17.817 17.9367C17.8828 17.6969 18.131 17.5557 18.3703 17.6217L19.7551 18.0018C19.995 18.0676 20.136 18.3153 20.0701 18.5552C20.0152 18.7551 19.8339 18.8863 19.6362 18.8863Z" fill="#FAEFDC"/>
<path d="M22.7963 21.1769C23.372 21.1769 23.8388 20.7102 23.8388 20.1345C23.8388 19.5587 23.372 19.092 22.7963 19.092C22.2206 19.092 21.7539 19.5587 21.7539 20.1345C21.7539 20.7102 22.2206 21.1769 22.7963 21.1769Z" fill="#F9C744"/>
<path d="M26.7584 20.6558C27.622 20.6558 28.322 19.9557 28.322 19.0922C28.322 18.2286 27.622 17.5286 26.7584 17.5286C25.8949 17.5286 25.1948 18.2286 25.1948 19.0922C25.1948 19.9557 25.8949 20.6558 26.7584 20.6558Z" fill="#F9C744"/>
<path d="M24.6993 24.3042C25.5629 24.3042 26.2629 23.6041 26.2629 22.7406C26.2629 21.877 25.5629 21.177 24.6993 21.177C23.8358 21.177 23.1357 21.877 23.1357 22.7406C23.1357 23.6041 23.8358 24.3042 24.6993 24.3042Z" fill="#F9C744"/>
<path d="M31.298 21.5542L30.7477 23.0464C30.4001 23.9884 29.7725 24.7277 29.0007 25.2185C28.048 24.9547 27.3491 24.0812 27.3491 23.0447C27.3491 21.7993 28.3595 20.7888 29.6058 20.7888C30.2804 20.7887 30.8855 21.0851 31.298 21.5542Z" fill="#F9C744"/>
<path d="M24.3385 23.2739C24.8321 23.2739 25.2322 22.8738 25.2322 22.3802C25.2322 21.8867 24.8321 21.4866 24.3385 21.4866C23.8449 21.4866 23.4448 21.8867 23.4448 22.3802C23.4448 22.8738 23.8449 23.2739 24.3385 23.2739Z" fill="#FAD98F"/>
<path d="M28.9021 23.6358C29.522 23.6358 30.0245 23.1333 30.0245 22.5135C30.0245 21.8936 29.522 21.3911 28.9021 21.3911C28.2823 21.3911 27.7798 21.8936 27.7798 22.5135C27.7798 23.1333 28.2823 23.6358 28.9021 23.6358Z" fill="#FAD98F"/>
<path d="M26.3981 19.6255C26.8916 19.6255 27.2917 19.2254 27.2917 18.7318C27.2917 18.2382 26.8916 17.8381 26.3981 17.8381C25.9045 17.8381 25.5044 18.2382 25.5044 18.7318C25.5044 19.2254 25.9045 19.6255 26.3981 19.6255Z" fill="#FAD98F"/>
<path d="M22.5748 20.4707C22.8829 20.4707 23.1326 20.221 23.1326 19.913C23.1326 19.6049 22.8829 19.3552 22.5748 19.3552C22.2668 19.3552 22.0171 19.6049 22.0171 19.913C22.0171 20.221 22.2668 20.4707 22.5748 20.4707Z" fill="#FAD98F"/>
</svg>
