<svg width="40" height="40" viewBox="0 0 40 40" fill="none" xmlns="http://www.w3.org/2000/svg">
<path d="M40 20C40 31.0458 31.0458 40 20 40C8.95416 40 0 31.0458 0 20C0 8.95416 8.95416 0 20 0C31.0458 0 40 8.95416 40 20Z" fill="#2F373B"/>
<path d="M26.2589 23.1785H13.1431L15.7276 27.4235V32.5391H24.1636V27.2602L26.2589 23.1785Z" fill="#CEA90D"/>
<path d="M29.8531 35.1234V37.4082C28.6785 38.0735 27.4303 38.6252 26.1226 39.0439C25.9871 39.0882 25.8516 39.1297 25.7143 39.1706C25.2059 39.3226 24.6883 39.4547 24.1634 39.5649C23.9333 39.6137 23.7023 39.6589 23.4694 39.6989C22.3421 39.8972 21.183 40.0001 20.0002 40.0001C18.8173 40.0001 17.658 39.8972 16.5306 39.6995C16.2981 39.6595 16.0671 39.6146 15.837 39.5658C15.2269 39.4367 14.6288 39.2798 14.041 39.097C14.0084 39.0864 13.9757 39.0766 13.9431 39.0662C13.9211 39.0595 13.8997 39.0522 13.8777 39.0449C12.5707 38.6262 11.3219 38.0744 10.147 37.4082V35.1234C10.147 32.3664 11.6475 29.9601 13.8777 28.6774C14.4826 28.3289 15.1406 28.0637 15.837 27.8971C16.205 27.8083 16.5837 27.7469 16.9716 27.7158C17.1724 27.6996 17.3748 27.6914 17.5798 27.6914H22.4196C22.9918 27.6914 23.5488 27.7552 24.0834 27.8776C24.1103 27.884 24.1371 27.8898 24.1634 27.8962C24.8598 28.0637 25.5178 28.3289 26.1226 28.6774C28.3519 29.9607 29.8531 32.3673 29.8531 35.1234Z" fill="#DD104F"/>
<path d="M29.8534 35.1234V37.4082C28.6559 38.0872 27.3809 38.6472 26.0445 39.0693C24.1384 39.6741 22.1074 40.0001 20.0005 40.0001C17.8926 40.0001 15.8617 39.6735 13.954 39.0693C13.9507 39.0687 13.9464 39.0668 13.9434 39.0662V35.1234C13.9434 31.0187 17.2713 27.6914 21.3768 27.6914H22.4199C26.5261 27.6914 29.8534 31.0187 29.8534 35.1234Z" fill="#F73B6C"/>
<path d="M24.2722 27.9233V30.5375C24.2722 31.8232 23.23 32.8654 21.9443 32.8654H18.0554C16.7697 32.8654 15.7275 31.8232 15.7275 30.5375V27.924C16.1301 27.8205 16.5454 27.7503 16.9717 27.7158C17.1725 27.6996 17.3749 27.6914 17.58 27.6914H22.4197C22.9919 27.6914 23.5489 27.7552 24.0836 27.8776C24.1464 27.8922 24.2099 27.9069 24.2722 27.9233Z" fill="#D39272"/>
<path d="M17.58 27.6914H21.3766C19.1162 27.6914 17.0917 28.7003 15.7275 30.2921V27.924C16.1301 27.8205 16.5454 27.7503 16.9717 27.7158C17.1725 27.6996 17.3749 27.6914 17.58 27.6914Z" fill="#BF7C5E"/>
<path d="M22.6518 24.8281V28.0825C22.6518 29.2739 21.8663 30.281 20.7841 30.6155C20.5366 30.6921 20.2726 30.7339 19.9995 30.7339C18.5353 30.7339 17.3481 29.5468 17.3481 28.0825V24.8281H22.6518Z" fill="#BF7C5E"/>
<path d="M22.6519 27.8762V28.0825C22.6519 29.2739 21.8663 30.281 20.7842 30.6155C19.8079 30.3152 19.074 29.4665 18.9385 28.4277C19.1155 28.4387 19.2937 28.4442 19.4725 28.4442C19.9742 28.4442 20.4662 28.4042 20.9453 28.3254C21.5355 28.2308 22.1059 28.0789 22.6519 27.8762Z" fill="#D39272"/>
<path d="M12.6058 19.4946C12.6058 20.7224 11.7092 21.7401 10.5349 21.929C10.4064 21.9501 10.2745 21.9608 10.1396 21.9608C8.77765 21.9608 7.67383 20.8569 7.67383 19.4946C7.67383 18.1326 8.77765 17.0288 10.1396 17.0288C10.2745 17.0288 10.4064 17.0395 10.5349 17.0605C11.7092 17.2495 12.6058 18.2672 12.6058 19.4946Z" fill="#D39272"/>
<path d="M12.6061 19.4946C12.6061 20.7224 11.7095 21.7401 10.5352 21.929C10.3218 21.1536 10.208 20.3372 10.208 19.4946C10.208 18.6523 10.3218 17.836 10.5352 17.0605C11.7095 17.2495 12.6061 18.2672 12.6061 19.4946Z" fill="#BF7C5E"/>
<path d="M11.0213 19.4946C11.0213 19.9817 10.6267 20.3763 10.1396 20.3763C9.65289 20.3763 9.2583 19.9817 9.2583 19.4946C9.2583 19.0079 9.65289 18.6133 10.1396 18.6133C10.6267 18.6133 11.0213 19.0079 11.0213 19.4946Z" fill="#BF7C5E"/>
<path d="M27.3936 19.4946C27.3936 20.7224 28.2902 21.7401 29.4645 21.929C29.593 21.9501 29.7248 21.9608 29.8597 21.9608C31.222 21.9608 32.3255 20.8569 32.3255 19.4946C32.3255 18.1326 31.222 17.0288 29.8597 17.0288C29.7248 17.0288 29.593 17.0395 29.4645 17.0605C28.2902 17.2495 27.3936 18.2672 27.3936 19.4946Z" fill="#D39272"/>
<path d="M27.3936 19.4946C27.3936 20.7224 28.2902 21.7401 29.4645 21.929C29.6778 21.1536 29.7919 20.3372 29.7919 19.4946C29.7919 18.6523 29.6781 17.836 29.4645 17.0605C28.2902 17.2495 27.3936 18.2672 27.3936 19.4946Z" fill="#BF7C5E"/>
<path d="M30.7412 19.4946C30.7412 19.9817 30.3466 20.3763 29.8599 20.3763C29.3731 20.3763 28.9785 19.9817 28.9785 19.4946C28.9785 19.0079 29.3731 18.6133 29.8599 18.6133C30.3466 18.6133 30.7412 19.0079 30.7412 19.4946Z" fill="#BF7C5E"/>
<path d="M29.1749 14.6906V18.1845C29.1749 22.7502 25.8397 26.5378 21.4723 27.2406C21.4576 27.243 21.4421 27.2455 21.4274 27.2482C20.963 27.3224 20.486 27.359 19.9995 27.359C14.9327 27.359 10.8247 23.2513 10.8247 18.1845V14.6906C10.8247 13.6237 11.0069 12.5983 11.3432 11.6455C12.5978 8.07495 16.0005 5.51514 19.9995 5.51514H20.0004C20.486 5.51514 20.9636 5.55267 21.429 5.62592C25.8174 6.31165 29.1749 10.1093 29.1749 14.6906Z" fill="#BF7C5E"/>
<path d="M29.175 14.6906V18.1846C29.175 22.7503 25.8397 26.5378 21.4724 27.2407C21.4577 27.2431 21.4421 27.2455 21.4275 27.2483C17.0388 26.5626 13.6821 22.765 13.6821 18.1846V14.6906C13.6821 10.1093 17.0397 6.31171 21.429 5.62598C25.8174 6.31171 29.175 10.1093 29.175 14.6906Z" fill="#D39272"/>
<path d="M26.2448 20.5933C26.2448 21.2247 25.733 21.7362 25.1019 21.7362C24.4708 21.7362 23.959 21.2247 23.959 20.5933C23.959 19.9622 24.4708 19.4504 25.1019 19.4504C25.733 19.4504 26.2448 19.9622 26.2448 20.5933Z" fill="#BF7C5E"/>
<path d="M16.0406 20.5933C16.0406 21.2247 15.5289 21.7362 14.8978 21.7362C14.2667 21.7362 13.7549 21.2247 13.7549 20.5933C13.7549 19.9622 14.2667 19.4504 14.8978 19.4504C15.5289 19.4504 16.0406 19.9622 16.0406 20.5933Z" fill="#BF7C5E"/>
<path d="M24.9272 17.4098C24.9272 16.5681 24.2448 15.8857 23.4034 15.8857C22.5618 15.8857 21.8794 16.5681 21.8794 17.4098" fill="#BF7C5E"/>
<path d="M18.121 17.4098C18.121 16.5681 17.4387 15.8857 16.5973 15.8857C15.7556 15.8857 15.0732 16.5681 15.0732 17.4098" fill="#BF7C5E"/>
<path d="M17.6378 18.0582C17.6378 18.6332 17.1718 19.0992 16.5971 19.0992C16.0222 19.0992 15.5562 18.6332 15.5562 18.0582C15.5562 17.4836 16.0222 17.0176 16.5971 17.0176C17.1718 17.0176 17.6378 17.4836 17.6378 18.0582Z" fill="#2F373B"/>
<path d="M24.4439 18.0582C24.4439 18.6332 23.9779 19.0992 23.4033 19.0992C22.8283 19.0992 22.3623 18.6332 22.3623 18.0582C22.3623 17.4836 22.8283 17.0176 23.4033 17.0176C23.9779 17.0176 24.4439 17.4836 24.4439 18.0582Z" fill="#2F373B"/>
<path d="M21.0408 20.6786H18.9592C18.7114 20.6786 18.5103 20.4778 18.5103 20.2297C18.5103 19.9819 18.7114 19.7808 18.9592 19.7808H21.0408C21.2889 19.7808 21.49 19.9819 21.49 20.2297C21.49 20.4778 21.2889 20.6786 21.0408 20.6786Z" fill="#BF7C5E"/>
<path d="M19.9999 23.5196C19.2314 23.5196 18.4633 23.3273 17.7629 22.9422C17.5655 22.8336 17.4932 22.5855 17.6018 22.388C17.7105 22.1906 17.9586 22.1185 18.156 22.2269C19.3105 22.8616 20.689 22.8616 21.8434 22.2269C22.0409 22.1182 22.289 22.1903 22.3976 22.388C22.5063 22.5855 22.4343 22.8336 22.2365 22.9422C21.5364 23.3273 20.768 23.5196 19.9999 23.5196Z" fill="#BF7C5E"/>
<path d="M17.4257 17.8749C17.4257 18.1212 17.2261 18.3207 16.9799 18.3207C16.7333 18.3207 16.5337 18.1212 16.5337 17.8749C16.5337 17.6283 16.7333 17.4287 16.9799 17.4287C17.2261 17.4287 17.4257 17.6283 17.4257 17.8749Z" fill="white"/>
<path d="M24.2828 17.8749C24.2828 18.1212 24.0833 18.3207 23.837 18.3207C23.5907 18.3207 23.3911 18.1212 23.3911 17.8749C23.3911 17.6283 23.5907 17.4287 23.837 17.4287C24.0833 17.4287 24.2828 17.6283 24.2828 17.8749Z" fill="white"/>
<path d="M31.8136 17.1329C31.8136 18.6578 31.5246 20.116 30.9982 21.4539C29.4674 25.3476 25.928 28.2324 21.6552 28.8318C24.8681 26.7209 26.99 23.0841 26.99 18.9517C26.99 17.9272 26.8594 16.933 26.6134 15.9845C26.2625 15.7468 25.8978 15.528 25.5212 15.3281C23.8732 14.4562 21.9949 13.9615 20.0005 13.9615C18.9279 13.9615 17.8887 14.1043 16.9009 14.3723C16.6552 14.4391 16.4126 14.5132 16.1743 14.5959C15.5865 14.7958 15.021 15.0415 14.4796 15.3281C14.1033 15.528 13.7383 15.7468 13.3874 15.9845C13.1417 16.933 13.0111 17.9272 13.0111 18.9517C13.0111 23.0841 15.1327 26.7209 18.3459 28.8318C14.0731 28.2324 10.5337 25.3476 9.00293 21.4539C8.4765 20.116 8.1875 18.6578 8.1875 17.1329C8.1875 13.0008 10.3091 9.36401 13.522 7.25311C15.3826 6.03088 17.6086 5.31982 20.0005 5.31982C22.3922 5.31982 24.6185 6.03088 26.4788 7.25311C29.692 9.36401 31.8136 13.0008 31.8136 17.1329Z" fill="#FFE05C"/>
<path d="M13.3874 15.9845C13.1417 16.933 13.0111 17.9272 13.0111 18.9517C13.0111 23.0841 15.1327 26.7209 18.3459 28.8318C14.0731 28.2324 10.5337 25.3476 9.00293 21.4539C8.4765 20.116 8.1875 18.6578 8.1875 17.1329C8.1875 13.0008 10.3091 9.36401 13.522 7.25311C15.3826 6.03088 17.6086 5.31982 20.0005 5.31982C20.9661 5.31982 21.9048 5.43579 22.8039 5.6546C21.4764 5.97717 20.2374 6.52405 19.1277 7.25311C16.3009 9.11011 14.3188 12.1484 13.8836 15.6668C13.7155 15.7681 13.5497 15.8743 13.3874 15.9845Z" fill="#E89F18"/>
<path d="M25.5209 15.328C25.646 13.785 25.1162 11.4236 25.1162 11.4236C25.1162 11.4236 26.2591 13.8726 26.6131 15.9844C26.2621 15.7467 25.8975 15.5279 25.5209 15.328Z" fill="#BF7C5E"/>
<path d="M14.4794 15.328C14.1031 15.5279 13.7382 15.7467 13.3872 15.9844C13.7415 13.8726 14.8844 11.4236 14.8844 11.4236C14.8844 11.4236 14.3546 13.785 14.4794 15.328Z" fill="#BF7C5E"/>
<path d="M17.3045 11.5796C17.3045 11.5796 16.9838 13.0106 16.9005 14.3723C16.6548 14.4391 16.4122 14.5132 16.1738 14.5959C16.6456 12.991 17.3045 11.5796 17.3045 11.5796Z" fill="#BF7C5E"/>
</svg>
