<svg width="40" height="40" viewBox="0 0 40 40" fill="none" xmlns="http://www.w3.org/2000/svg">
<path d="M40 20C40 31.0458 31.0458 40 20 40C8.95416 40 0 31.0458 0 20C0 8.95416 8.95416 0 20 0C31.0458 0 40 8.95416 40 20Z" fill="#FFE05C"/>
<path d="M29.8531 35.1234V37.4082C28.6974 38.0637 27.4694 38.6082 26.1837 39.0244C24.2369 39.658 22.1584 40.0001 20.0002 40.0001C17.8884 40.0001 15.8541 39.6726 13.9431 39.0662C13.9006 39.0531 13.8588 39.0391 13.8164 39.0253C12.5316 38.6082 11.3039 38.0643 10.147 37.4082V35.1234C10.147 31.6587 12.5176 28.747 15.7274 27.924C16.1299 27.8205 16.5453 27.7503 16.9716 27.7158C17.1724 27.6996 17.3748 27.6914 17.5798 27.6914H22.4196C22.9918 27.6914 23.5488 27.7552 24.0834 27.8776C24.1463 27.8922 24.2098 27.9069 24.272 27.9233C27.481 28.747 29.8531 31.6587 29.8531 35.1234Z" fill="#EAA27F"/>
<path d="M29.8532 35.1234V37.4082C26.9452 39.058 23.5828 40.0001 20 40.0001C17.8882 40.0001 15.8539 39.6726 13.9429 39.0662V35.1234C13.9429 31.0187 17.2711 27.6914 21.3763 27.6914H22.4197C26.5256 27.6914 29.8532 31.0187 29.8532 35.1234Z" fill="#F6BA97"/>
<path d="M22.6518 24.8281V28.0825C22.6518 29.2739 21.8663 30.281 20.7841 30.6155C20.5366 30.6921 20.2726 30.7339 19.9995 30.7339C18.5353 30.7339 17.3481 29.5468 17.3481 28.0825V24.8281H22.6518Z" fill="#EAA27F"/>
<path d="M22.6519 27.8765V28.0825C22.6519 29.2739 21.8663 30.2809 20.7842 30.6154C19.8079 30.3154 19.074 29.4664 18.9385 28.4279C19.1155 28.4386 19.2937 28.4441 19.4725 28.4441C19.9742 28.4441 20.4662 28.4044 20.9453 28.3257C21.5355 28.2308 22.1059 28.0788 22.6519 27.8765Z" fill="#F6BA97"/>
<path d="M12.6058 19.4949C12.6058 20.7224 11.7092 21.7404 10.5349 21.9293C10.4064 21.9501 10.2745 21.9608 10.1396 21.9608C8.77765 21.9608 7.67383 20.8572 7.67383 19.4949C7.67383 18.1326 8.77765 17.0288 10.1396 17.0288C10.2745 17.0288 10.4064 17.0398 10.5349 17.0605C11.7092 17.2495 12.6058 18.2672 12.6058 19.4949Z" fill="#F6BA97"/>
<path d="M12.6061 19.4949C12.6061 20.7224 11.7095 21.7404 10.5352 21.9293C10.3218 21.1536 10.208 20.3372 10.208 19.4949C10.208 18.6523 10.3218 17.836 10.5352 17.0605C11.7095 17.2495 12.6061 18.2672 12.6061 19.4949Z" fill="#EAA27F"/>
<path d="M11.0213 19.4949C11.0213 19.9816 10.6267 20.3762 10.1396 20.3762C9.65289 20.3762 9.2583 19.9816 9.2583 19.4949C9.2583 19.0081 9.65289 18.6135 10.1396 18.6135C10.6267 18.6135 11.0213 19.0081 11.0213 19.4949Z" fill="#EAA27F"/>
<path d="M27.3936 19.4949C27.3936 20.7224 28.2902 21.7404 29.4645 21.9293C29.593 21.9501 29.7248 21.9608 29.8597 21.9608C31.222 21.9608 32.3255 20.8572 32.3255 19.4949C32.3255 18.1326 31.222 17.0288 29.8597 17.0288C29.7248 17.0288 29.593 17.0398 29.4645 17.0605C28.2902 17.2495 27.3936 18.2672 27.3936 19.4949Z" fill="#F6BA97"/>
<path d="M27.3936 19.4949C27.3936 20.7224 28.2902 21.7404 29.4645 21.9293C29.6778 21.1536 29.7919 20.3372 29.7919 19.4949C29.7919 18.6523 29.6781 17.836 29.4645 17.0605C28.2902 17.2495 27.3936 18.2672 27.3936 19.4949Z" fill="#EAA27F"/>
<path d="M30.7412 19.4949C30.7412 19.9816 30.3466 20.3762 29.8599 20.3762C29.3731 20.3762 28.9785 19.9816 28.9785 19.4949C28.9785 19.0081 29.3731 18.6135 29.8599 18.6135C30.3466 18.6135 30.7412 19.0081 30.7412 19.4949Z" fill="#EAA27F"/>
<path d="M31.1774 21.9141C31.1774 22.3472 30.8261 22.6981 30.3934 22.6981C29.9603 22.6981 29.6094 22.3472 29.6094 21.9141C29.6094 21.4814 29.9603 21.1301 30.3934 21.1301C30.8261 21.1301 31.1774 21.4814 31.1774 21.9141Z" fill="#F73B6C"/>
<path d="M10.3904 21.9141C10.3904 22.3472 10.0395 22.6981 9.60645 22.6981C9.17371 22.6981 8.82275 22.3472 8.82275 21.9141C8.82275 21.4814 9.17371 21.1301 9.60645 21.1301C10.0395 21.1301 10.3904 21.4814 10.3904 21.9141Z" fill="#F73B6C"/>
<path d="M29.1749 14.6906V18.1845C29.1749 22.7502 25.8397 26.5378 21.4723 27.2406C21.4576 27.243 21.4421 27.2455 21.4274 27.2482C20.963 27.3224 20.486 27.359 19.9995 27.359C14.9327 27.359 10.8247 23.2513 10.8247 18.1845V14.6906C10.8247 13.6237 11.0069 12.5983 11.3432 11.6455C11.8232 10.2808 12.6158 9.06372 13.6363 8.08228C15.2852 6.49231 17.5285 5.51514 19.9995 5.51514H20.0004C20.486 5.51514 20.9636 5.55267 21.429 5.62592C25.8174 6.31165 29.1749 10.1093 29.1749 14.6906Z" fill="#EAA27F"/>
<path d="M29.175 14.6906V18.1846C29.175 19.4932 28.9016 20.7371 28.4069 21.8638C27.1785 24.6677 24.5882 26.7396 21.4724 27.2407C21.4577 27.2431 21.4421 27.2455 21.4275 27.2483C17.0388 26.5626 13.6821 22.765 13.6821 18.1846V14.6906C13.6821 14.0195 13.7538 13.3658 13.8912 12.7363C14.6871 9.06439 17.6821 6.2113 21.429 5.62598C25.8174 6.31171 29.175 10.1093 29.175 14.6906Z" fill="#F6BA97"/>
<path d="M26.2448 20.5933C26.2448 21.2247 25.733 21.7362 25.1019 21.7362C24.4708 21.7362 23.959 21.2247 23.959 20.5933C23.959 19.9622 24.4708 19.4504 25.1019 19.4504C25.733 19.4504 26.2448 19.9622 26.2448 20.5933Z" fill="#EAA27F"/>
<path d="M16.0406 20.5933C16.0406 21.2247 15.5289 21.7362 14.8978 21.7362C14.2667 21.7362 13.7549 21.2247 13.7549 20.5933C13.7549 19.9622 14.2667 19.4504 14.8978 19.4504C15.5289 19.4504 16.0406 19.9622 16.0406 20.5933Z" fill="#EAA27F"/>
<path d="M24.9272 17.4098C24.9272 16.5681 24.2448 15.8857 23.4034 15.8857C22.5618 15.8857 21.8794 16.5681 21.8794 17.4098" fill="#EAA27F"/>
<path d="M18.121 17.4098C18.121 16.5681 17.4387 15.8857 16.5973 15.8857C15.7556 15.8857 15.0732 16.5681 15.0732 17.4098" fill="#EAA27F"/>
<path d="M17.6378 18.0582C17.6378 18.6332 17.1718 19.0992 16.5971 19.0992C16.0222 19.0992 15.5562 18.6332 15.5562 18.0582C15.5562 17.4836 16.0222 17.0176 16.5971 17.0176C17.1718 17.0176 17.6378 17.4836 17.6378 18.0582Z" fill="#2F373B"/>
<path d="M24.4439 18.0582C24.4439 18.6332 23.9779 19.0992 23.4033 19.0992C22.8283 19.0992 22.3623 18.6332 22.3623 18.0582C22.3623 17.4836 22.8283 17.0176 23.4033 17.0176C23.9779 17.0176 24.4439 17.4836 24.4439 18.0582Z" fill="#2F373B"/>
<path d="M21.0408 20.6786H18.9592C18.7114 20.6786 18.5103 20.4778 18.5103 20.2297C18.5103 19.9819 18.7114 19.7808 18.9592 19.7808H21.0408C21.2889 19.7808 21.49 19.9819 21.49 20.2297C21.49 20.4778 21.2889 20.6786 21.0408 20.6786Z" fill="#EAA27F"/>
<path d="M19.9999 23.5197C19.2314 23.5197 18.4633 23.3272 17.7629 22.942C17.5655 22.8337 17.4932 22.5856 17.6018 22.3878C17.7105 22.1904 17.9586 22.1183 18.156 22.2267C19.3105 22.8615 20.689 22.8615 21.8434 22.2267C22.0409 22.1183 22.289 22.1904 22.3976 22.3878C22.5063 22.5856 22.4343 22.8337 22.2365 22.942C21.5364 23.3272 20.768 23.5197 19.9999 23.5197Z" fill="#EAA27F"/>
<path d="M17.4257 17.8749C17.4257 18.1212 17.2261 18.3207 16.9799 18.3207C16.7333 18.3207 16.5337 18.1212 16.5337 17.8749C16.5337 17.6283 16.7333 17.4287 16.9799 17.4287C17.2261 17.4287 17.4257 17.6283 17.4257 17.8749Z" fill="white"/>
<path d="M24.2828 17.8749C24.2828 18.1212 24.0833 18.3207 23.837 18.3207C23.5907 18.3207 23.3911 18.1212 23.3911 17.8749C23.3911 17.6283 23.5907 17.4287 23.837 17.4287C24.0833 17.4287 24.2828 17.6283 24.2828 17.8749Z" fill="white"/>
<path d="M10.8247 14.6906C10.8247 13.6237 11.0069 12.5983 11.3432 11.6455C11.8232 10.2808 12.6158 9.06372 13.6363 8.08228L15.674 11.777C15.674 11.777 16.2617 14.6906 10.8247 14.6906Z" fill="#17A388"/>
<path d="M29.1746 14.6906V18.1846C29.1746 19.4932 28.9012 20.7371 28.4065 21.8638C27.0613 23.5615 25.7658 24.5609 25.7249 24.5927C27.6686 21.2137 26.894 17.2474 25.085 14.7764C25.084 14.7755 25.0834 14.7739 25.0816 14.7721C25.0108 14.6726 24.9363 14.5762 24.8604 14.4825C24.8579 14.48 24.8555 14.4767 24.853 14.4742C24.3403 13.8392 23.7568 13.3201 23.1355 12.959C23.134 12.9575 23.1324 12.9566 23.1306 12.956C22.0875 12.3511 20.9398 12.1918 19.8457 12.6752C18.1013 13.4458 18.8197 9.96558 17.1431 9.00153C17.939 5.32965 17.6817 6.2113 21.4286 5.62598C25.8171 6.31171 29.1746 10.1093 29.1746 14.6906Z" fill="#EAA27F"/>
<path d="M26.787 24.5926C28.7306 21.2137 27.9558 17.2473 26.1467 14.7763C26.1461 14.7754 26.1452 14.7739 26.1436 14.772C26.0725 14.6726 25.9984 14.5761 25.9224 14.4824C25.9199 14.48 25.9175 14.4766 25.9151 14.4742C25.4024 13.8391 24.8186 13.32 24.1975 12.959C24.1957 12.9575 24.1942 12.9566 24.1927 12.9559C23.1493 12.3511 22.0015 12.1918 20.9077 12.6752C18.5149 13.7323 14.6391 13.8178 13.524 11.124C11.2447 6.49965 15.8888 1.82619 21.4677 2.10756C24.2531 2.24825 27.2716 3.6252 29.778 6.86037C37.2569 16.5192 26.906 24.5011 26.787 24.5926Z" fill="#27BA9E"/>
<path d="M24.1926 12.9559C23.1492 12.3511 22.0015 12.1918 20.9077 12.6752C18.5149 13.7323 14.6391 13.8178 13.524 11.124C11.2447 6.49965 15.8888 1.82619 21.4677 2.10756C18.123 2.10756 15.5925 6.06294 17.1437 9.00148C18.4276 11.4343 21.3713 11.0587 24.1926 12.9559Z" fill="#17A388"/>
<path d="M26.1431 14.772C26.072 14.6725 25.9979 14.5761 25.9219 14.4824C26.0101 14.5828 26.0842 14.6799 26.1431 14.772Z" fill="#0C85A5"/>
<path d="M26.1837 37.3282V39.0244C24.2369 39.658 22.1584 40.0001 20.0002 40.0001C17.8884 40.0001 15.8541 39.6726 13.9431 39.0662C13.9006 39.0531 13.8588 39.0391 13.8164 39.0253V37.3282C13.8164 35.5021 15.2965 34.022 17.1227 34.022C18.3568 34.022 19.4319 34.6989 20.0002 35.7014C20.5684 34.6989 21.6432 34.022 22.8777 34.022C24.7039 34.022 26.1837 35.5021 26.1837 37.3282Z" fill="#2F373B"/>
</svg>
