<svg width="40" height="40" viewBox="0 0 40 40" fill="none" xmlns="http://www.w3.org/2000/svg">
<g clip-path="url(#clip0)">
<path d="M40 20C40 27.1323 36.2662 33.3936 30.6467 36.933C29.1339 37.8867 27.485 38.6432 25.7346 39.1656C23.9185 39.7086 21.9934 40 20 40C18.0695 40 16.2033 39.7266 14.4376 39.2163H14.4366C13.4073 38.9185 12.4121 38.5403 11.4587 38.089C10.7959 37.7762 10.1526 37.4261 9.53156 37.0441C3.81317 33.5248 0 27.2073 0 20C0 8.95416 8.95416 0 20 0C31.0458 0 40 8.95416 40 20Z" fill="#F73B6C"/>
<path d="M29.8534 35.1234V37.4082C28.6785 38.0735 27.4303 38.6252 26.1226 39.0443C25.9871 39.0882 25.8516 39.13 25.7146 39.1706C25.2059 39.3226 24.6883 39.4547 24.1634 39.5649C23.9333 39.614 23.7023 39.6589 23.4694 39.6989C22.3421 39.8972 21.183 40.0001 20.0002 40.0001C18.8173 40.0001 17.6583 39.8972 16.5309 39.6998C16.2981 39.6598 16.0671 39.6146 15.837 39.5658C15.2272 39.4367 14.6288 39.2802 14.041 39.0974C14.0084 39.0867 13.9757 39.0769 13.9431 39.0662C13.9211 39.0595 13.8997 39.0522 13.8777 39.0449C12.5707 38.6262 11.3219 38.0744 10.147 37.4082V35.1234C10.147 32.3667 11.6475 29.9601 13.8777 28.6777C14.4826 28.3289 15.1406 28.0637 15.837 27.8971C16.205 27.8083 16.5837 27.7469 16.9716 27.7161C17.1724 27.6996 17.3748 27.6914 17.5798 27.6914H22.4199C22.9921 27.6914 23.5488 27.7552 24.0834 27.8776C24.1103 27.8843 24.1375 27.8898 24.1634 27.8965C24.8598 28.0637 25.5178 28.3289 26.1226 28.6777C28.3519 29.961 29.8534 32.3673 29.8534 35.1234Z" fill="#0C85A5"/>
<path d="M29.8532 35.1234V37.4082C27.0856 38.9789 23.9062 39.9079 20.5167 39.9937C20.3445 39.9976 20.173 40.0001 20 40.0001C19.827 40.0001 19.6548 39.9976 19.4833 39.9927C17.5558 39.9445 15.697 39.6229 13.9429 39.0662V35.1234C13.9429 31.0187 17.2711 27.6914 21.3763 27.6914H22.4197C26.5256 27.6914 29.8532 31.0187 29.8532 35.1234Z" fill="#1DA2DD"/>
<path d="M22.6513 24.8281V28.0825C22.6513 29.2739 21.8658 30.281 20.7836 30.6155C20.5361 30.6924 20.2722 30.7339 19.999 30.7339C18.5348 30.7339 17.3477 29.5471 17.3477 28.0825V24.8281H22.6513Z" fill="#EAA27F"/>
<path d="M22.6514 27.8765V28.0825C22.6514 29.2739 21.8658 30.2809 20.7837 30.6154C19.8077 30.3154 19.0735 29.4664 18.938 28.4279C19.115 28.4386 19.2932 28.4441 19.472 28.4441C19.9738 28.4441 20.4657 28.4044 20.9448 28.3257C21.535 28.2308 22.1054 28.0788 22.6514 27.8765Z" fill="#F6BA97"/>
<path d="M12.6058 19.4949C12.6058 20.7224 11.7092 21.7404 10.5349 21.9293C10.4067 21.9501 10.2745 21.9608 10.14 21.9608C8.77765 21.9608 7.67383 20.8572 7.67383 19.4949C7.67383 18.1326 8.77765 17.0288 10.14 17.0288C10.2745 17.0288 10.4067 17.0398 10.5349 17.0605C11.7092 17.2495 12.6058 18.2672 12.6058 19.4949Z" fill="#F6BA97"/>
<path d="M12.6056 19.4949C12.6056 20.7224 11.709 21.7404 10.5347 21.9293C10.3214 21.1536 10.2075 20.3372 10.2075 19.4949C10.2075 18.6523 10.3214 17.836 10.5347 17.0605C11.709 17.2495 12.6056 18.2672 12.6056 19.4949Z" fill="#EAA27F"/>
<path d="M11.021 19.4949C11.021 19.9816 10.6264 20.3762 10.1396 20.3762C9.65289 20.3762 9.2583 19.9816 9.2583 19.4949C9.2583 19.0081 9.65289 18.6135 10.1396 18.6135C10.6264 18.6135 11.021 19.0081 11.021 19.4949Z" fill="#EAA27F"/>
<path d="M27.3936 19.4949C27.3936 20.7224 28.2905 21.7404 29.4648 21.9293C29.593 21.9501 29.7251 21.9608 29.8597 21.9608C31.222 21.9608 32.3258 20.8572 32.3258 19.4949C32.3258 18.1326 31.222 17.0288 29.8597 17.0288C29.7251 17.0288 29.593 17.0398 29.4648 17.0605C28.2905 17.2495 27.3936 18.2672 27.3936 19.4949Z" fill="#F6BA97"/>
<path d="M27.3936 19.4949C27.3936 20.7224 28.2905 21.7404 29.4648 21.9293C29.6778 21.1536 29.7919 20.3372 29.7919 19.4949C29.7919 18.6523 29.6781 17.836 29.4648 17.0605C28.2905 17.2495 27.3936 18.2672 27.3936 19.4949Z" fill="#EAA27F"/>
<path d="M30.7412 19.4949C30.7412 19.9816 30.3466 20.3762 29.8599 20.3762C29.3731 20.3762 28.9785 19.9816 28.9785 19.4949C28.9785 19.0081 29.3731 18.6135 29.8599 18.6135C30.3466 18.6135 30.7412 19.0081 30.7412 19.4949Z" fill="#EAA27F"/>
<path d="M29.1749 14.6906V18.1845C29.1749 22.7502 25.8394 26.5381 21.472 27.2409C21.4573 27.2433 21.4418 27.2458 21.4271 27.2482C20.9626 27.3224 20.486 27.3593 19.9992 27.3593C14.9324 27.3593 10.8247 23.2513 10.8247 18.1845V14.6906C10.8247 13.6237 11.0066 12.5983 11.3429 11.6458C12.5978 8.07495 16.0002 5.51514 19.9992 5.51514H20.0001C20.486 5.51514 20.9633 5.55267 21.4286 5.62622C25.8174 6.31195 29.1749 10.1093 29.1749 14.6906Z" fill="#EAA27F"/>
<path d="M29.1748 14.6906V18.1845C29.1748 22.7502 25.8392 26.5381 21.4719 27.2409C21.4572 27.2433 21.4417 27.2458 21.427 27.2482C17.0383 26.5625 13.6816 22.7649 13.6816 18.1845V14.6906C13.6816 10.1093 17.0392 6.31195 21.4285 5.62622C25.8173 6.31195 29.1748 10.1093 29.1748 14.6906Z" fill="#F6BA97"/>
<path d="M26.2443 20.5936C26.2443 21.2247 25.7325 21.7365 25.1014 21.7365C24.4703 21.7365 23.9585 21.2247 23.9585 20.5936C23.9585 19.9622 24.4703 19.4507 25.1014 19.4507C25.7325 19.4507 26.2443 19.9622 26.2443 20.5936Z" fill="#EAA27F"/>
<path d="M16.0402 20.5936C16.0402 21.2247 15.5287 21.7365 14.8973 21.7365C14.2662 21.7365 13.7544 21.2247 13.7544 20.5936C13.7544 19.9622 14.2662 19.4507 14.8973 19.4507C15.5287 19.4507 16.0402 19.9622 16.0402 20.5936Z" fill="#EAA27F"/>
<path d="M24.9267 17.4097C24.9267 16.5681 24.2446 15.886 23.403 15.886C22.5613 15.886 21.8789 16.5681 21.8789 17.4097" fill="#EAA27F"/>
<path d="M18.1205 17.4097C18.1205 16.5681 17.4385 15.886 16.5968 15.886C15.7551 15.886 15.0728 16.5681 15.0728 17.4097" fill="#EAA27F"/>
<path d="M17.6378 18.0585C17.6378 18.6332 17.1718 19.0992 16.5971 19.0992C16.0222 19.0992 15.5562 18.6332 15.5562 18.0585C15.5562 17.4836 16.0222 17.0176 16.5971 17.0176C17.1718 17.0176 17.6378 17.4836 17.6378 18.0585Z" fill="#2F373B"/>
<path d="M24.4442 18.0585C24.4442 18.6332 23.9782 19.0992 23.4033 19.0992C22.8283 19.0992 22.3623 18.6332 22.3623 18.0585C22.3623 17.4836 22.8283 17.0176 23.4033 17.0176C23.9782 17.0176 24.4442 17.4836 24.4442 18.0585Z" fill="#2F373B"/>
<path d="M21.0408 20.6789H18.9592C18.7114 20.6789 18.5103 20.4778 18.5103 20.23C18.5103 19.9819 18.7114 19.7808 18.9592 19.7808H21.0408C21.2889 19.7808 21.4897 19.9819 21.4897 20.23C21.4897 20.4778 21.2889 20.6789 21.0408 20.6789Z" fill="#EAA27F"/>
<path d="M20.0002 23.5197C19.2318 23.5197 18.4637 23.3272 17.7633 22.942C17.5658 22.8337 17.4938 22.5856 17.6022 22.3878C17.7108 22.1904 17.9592 22.1183 18.1567 22.2267C19.3111 22.8615 20.6893 22.8615 21.8438 22.2267C22.0412 22.1183 22.2894 22.1904 22.398 22.3878C22.5066 22.5856 22.4346 22.8337 22.2372 22.942C21.5368 23.3272 20.7684 23.5197 20.0002 23.5197Z" fill="#EAA27F"/>
<path d="M17.4257 17.8749C17.4257 18.1212 17.2261 18.3207 16.9796 18.3207C16.7333 18.3207 16.5337 18.1212 16.5337 17.8749C16.5337 17.6286 16.7333 17.4287 16.9796 17.4287C17.2261 17.4287 17.4257 17.6286 17.4257 17.8749Z" fill="white"/>
<path d="M24.2827 17.8749C24.2827 18.1212 24.0828 18.3207 23.8365 18.3207C23.5902 18.3207 23.3906 18.1212 23.3906 17.8749C23.3906 17.6286 23.5902 17.4287 23.8365 17.4287C24.0828 17.4287 24.2827 17.6286 24.2827 17.8749Z" fill="white"/>
<path d="M30.6468 36.933C30.0874 37.2858 29.5088 37.6123 28.9128 37.9086C27.8996 38.4146 26.8376 38.8367 25.7347 39.1656C21.5993 32.3584 27.6933 22.3569 27.6933 18.1445C27.6933 14.9747 26.1519 13.3936 25.2965 12.76C24.9675 12.5168 24.7404 12.413 24.7404 12.413L26.5504 6.95679C28.8362 7.7771 32.7684 11.7838 30.3535 19.4946C28.5536 25.2417 29.8631 33.2333 30.6468 36.933Z" fill="#FFE05C"/>
<path d="M28.9128 37.9088C27.8996 38.4147 26.8376 38.8368 25.7347 39.1658C21.5993 32.3585 27.6933 22.357 27.6933 18.1447C27.6933 14.9748 26.1519 13.3937 25.2965 12.7601L25.8229 10.6074C27.5651 11.8043 29.4688 17.0427 27.9454 19.2671C26.4223 21.4915 28.2719 20.3486 28.2719 20.3486C28.2719 20.3486 23.6116 30.9758 28.9128 37.9088Z" fill="#E89F18"/>
<path d="M14.4381 39.2163C12.6928 38.7119 11.0454 37.9764 9.53208 37.0441C10.3133 33.396 11.6674 25.2997 9.84947 19.4946C7.43492 11.7838 11.3671 7.7771 13.6529 6.95679L15.4626 12.413C15.4626 12.413 14.3441 12.9224 13.4838 14.3372C13.4823 14.3387 13.4814 14.3411 13.4804 14.343C12.9443 15.2252 12.51 16.4612 12.51 18.1445C12.51 22.3672 18.634 32.4081 14.4381 39.2163Z" fill="#E89F18"/>
<path d="M27.6113 8.43018C27.6113 10.0571 26.7418 11.528 25.342 12.5803C23.9891 13.5992 22.1395 14.2261 20.1012 14.2261C15.9532 14.2261 12.5908 11.6312 12.5908 8.43018C12.5908 6.07178 14.417 4.04175 17.0375 3.13721C17.9729 2.81403 19.0096 2.63428 20.1012 2.63428C24.2488 2.63428 27.6113 5.22949 27.6113 8.43018Z" fill="#E89F18"/>
<path d="M27.6114 8.43018C27.6114 10.0571 26.7419 11.528 25.3421 12.5803C24.4064 12.9037 23.3698 13.0832 22.2784 13.0832C18.1305 13.0832 14.7681 10.4883 14.7681 7.28729C14.7681 5.65948 15.6375 4.18854 17.0377 3.13721C17.973 2.81403 19.0097 2.63428 20.1013 2.63428C24.249 2.63428 27.6114 5.22949 27.6114 8.43018Z" fill="#FFE05C"/>
<path d="M14.4378 39.2164H14.4369C13.4075 38.9185 12.4124 38.5404 11.459 38.0891C12.4001 35.5372 14.5007 29.0449 13.081 25.2057C11.2869 20.3519 11.7333 16.8433 13.4802 14.343C12.944 15.2253 12.5097 16.4612 12.5097 18.1446C12.5097 22.3673 18.6337 32.4082 14.4378 39.2164Z" fill="#FFE05C"/>
<path d="M30.6586 20.4111C30.615 20.6784 30.4676 20.9027 30.2643 21.0489C30.0602 21.1951 29.8008 21.2637 29.5341 21.2204L27.1918 20.8392C26.6578 20.7522 26.2955 20.249 26.3825 19.715C26.4262 19.4473 26.5733 19.2233 26.7768 19.0768C26.9801 18.9303 27.2395 18.8617 27.5068 18.9053L29.849 19.2868C30.3834 19.3738 30.7456 19.8767 30.6586 20.4111Z" fill="#0C85A5"/>
<path d="M30.6584 20.411C30.6147 20.6783 30.4673 20.9026 30.2641 21.0488C30.0599 21.195 29.8005 21.2636 29.5338 21.2203L28.3601 21.0293C27.8258 20.9423 27.4635 20.4391 27.5505 19.905C27.5941 19.6374 27.7415 19.4134 27.9448 19.2669C28.148 19.1207 28.4074 19.052 28.6748 19.0954L29.8488 19.2867C30.3831 19.3737 30.7454 19.8766 30.6584 20.411Z" fill="#1DA2DD"/>
<path d="M13.1665 19.7147C13.1228 19.4474 12.9754 19.2231 12.7722 19.0769C12.568 18.9307 12.3086 18.8621 12.0419 18.9054L9.69966 19.2866C9.1656 19.3736 8.80336 19.8768 8.89033 20.4108C8.93397 20.6785 9.08107 20.9025 9.28462 21.049C9.48787 21.1955 9.74727 21.2641 10.0146 21.2205L12.3568 20.839C12.8912 20.752 13.2531 20.2491 13.1665 19.7147Z" fill="#0C85A5"/>
<path d="M13.1667 19.7147C13.1231 19.4474 12.9757 19.2231 12.7724 19.0769C12.5683 18.9307 12.3089 18.8621 12.0421 18.9054L10.8684 19.0965C10.3341 19.1834 9.97182 19.6867 10.0588 20.2207C10.1024 20.4884 10.2495 20.7124 10.4531 20.8589C10.6563 21.005 10.9157 21.0737 11.1831 21.0304L12.3571 20.839C12.8914 20.752 13.2534 20.2491 13.1667 19.7147Z" fill="#1DA2DD"/>
</g>
<defs>
<clipPath id="clip0">
<rect width="40" height="40" fill="white"/>
</clipPath>
</defs>
</svg>
