<svg width="40" height="40" viewBox="0 0 40 40" fill="none" xmlns="http://www.w3.org/2000/svg">
<path d="M20 40C31.0457 40 40 31.0457 40 20C40 8.9543 31.0457 0 20 0C8.9543 0 0 8.9543 0 20C0 31.0457 8.9543 40 20 40Z" fill="#22BCE0"/>
<path d="M33.8975 34.3819C33.0549 35.1975 32.1392 35.9376 31.1671 36.5944H24.0241C23.3588 36.5926 22.7465 36.4181 22.1944 36.0874C21.1632 35.4663 20.4733 34.3351 20.4733 33.0437V28.5585C20.452 26.3491 22.3175 24.4792 24.5319 24.4999C24.5743 24.7938 24.4235 32.3955 24.6358 32.4616H24.6366C24.8942 33.2129 25.607 33.753 26.4468 33.753H32.0429C32.7405 33.753 33.3835 33.9874 33.8975 34.3819Z" fill="#D15A96"/>
<path d="M32.99 35.2077C32.4097 35.7037 31.8004 36.1665 31.1674 36.5944H24.0244C23.3591 36.5926 22.7468 36.4181 22.1947 36.0874C21.1635 35.4663 20.4736 34.3351 20.4736 33.0437V28.5585C20.4739 28.1214 20.5428 27.6884 20.6799 27.2788C21.0718 26.0803 22.0475 25.103 23.2455 24.7085V32.9015C23.2455 33.9046 24.0588 34.7171 25.0611 34.7171H31.6494C32.1604 34.7171 32.6283 34.9015 32.99 35.2077Z" fill="#ED72AB"/>
<path d="M22.7834 29.6158V27.1959C22.7834 26.7409 22.4146 26.3721 21.9596 26.3721C21.5046 26.3721 21.1357 26.7409 21.1357 27.1959V29.6158C21.1796 30.7082 22.7391 30.7092 22.7834 29.6158Z" fill="#FF9FB4"/>
<path d="M22.2029 29.4386V27.3732C22.1865 26.8331 21.4015 26.8321 21.3848 27.3732V29.4386C21.4013 29.9788 22.1862 29.9797 22.2029 29.4386Z" fill="#ED72AB"/>
<path d="M22.7834 34.2257V31.8058C22.7834 31.3508 22.4146 30.9819 21.9596 30.9819C21.5046 30.9819 21.1357 31.3508 21.1357 31.8058V34.2257C21.1796 35.3182 22.7391 35.319 22.7834 34.2257Z" fill="#FF9FB4"/>
<path d="M22.2029 34.0485V31.9831C22.1865 31.4429 21.4015 31.442 21.3848 31.9831V34.0485C21.4013 34.5886 22.1862 34.5896 22.2029 34.0485Z" fill="#ED72AB"/>
<path d="M24.7577 35.5654H22.8355C22.4741 35.5654 22.1812 35.8584 22.1812 36.2198C22.1812 36.5812 22.4741 36.8742 22.8355 36.8742H24.7577C25.6243 36.8423 25.6251 35.5975 24.7577 35.5654Z" fill="#FF9FB4"/>
<path d="M24.6174 36.0261H22.9768C22.5478 36.0392 22.5471 36.6627 22.9768 36.676H24.6174C25.0464 36.6629 25.0471 36.0394 24.6174 36.0261Z" fill="#ED72AB"/>
<path d="M28.3598 35.5654H26.4376C26.0762 35.5654 25.7832 35.8584 25.7832 36.2198C25.7832 36.5812 26.0762 36.8742 26.4376 36.8742H28.3598C29.2263 36.8423 29.2271 35.5975 28.3598 35.5654Z" fill="#FF9FB4"/>
<path d="M28.2194 36.0261H26.5789C26.1499 36.0392 26.1491 36.6627 26.5789 36.676H28.2194C28.6485 36.6629 28.6492 36.0394 28.2194 36.0261Z" fill="#ED72AB"/>
<path d="M31.9604 35.5654H30.0378C29.1733 35.5951 29.1713 36.8435 30.0378 36.874H30.7393C31.3036 36.515 31.8484 36.1264 32.3737 35.7131C32.2612 35.6209 32.1175 35.5654 31.9604 35.5654Z" fill="#FF9FB4"/>
<path d="M31.9358 36.0483C31.6437 36.265 31.347 36.4757 31.0429 36.6764H30.1788C30.096 36.6764 30.0202 36.6452 29.9632 36.5944C29.7412 36.4065 29.8844 36.02 30.1788 36.0264H31.8194C31.8601 36.0264 31.8999 36.0343 31.9358 36.0483Z" fill="#ED72AB"/>
<path d="M19.5263 28.5585V33.0437C19.5246 34.518 18.6329 35.7791 17.3466 36.3202C16.9247 36.4968 16.4614 36.5945 15.9755 36.5945H8.83252C7.86041 35.9376 6.94471 35.1975 6.10205 34.382C6.61611 33.9874 7.25908 33.753 7.95674 33.753H13.5528C14.3927 33.753 15.1052 33.2132 15.363 32.4616H15.3638C15.572 32.4634 15.4281 24.7416 15.4677 24.4999C17.6825 24.4795 19.5474 26.3489 19.5263 28.5585Z" fill="#D15A96"/>
<path d="M19.5262 28.5585V33.0437C19.5245 34.5179 18.6328 35.7791 17.3465 36.3202C16.9246 36.4968 16.4613 36.5944 15.9754 36.5944H8.83242C8.19945 36.1665 7.59016 35.7037 7.00977 35.2077C7.37148 34.9015 7.83945 34.7171 8.35039 34.7171H14.9387C15.941 34.7171 16.7543 33.9046 16.7543 32.9015V24.7085C18.3802 25.2327 19.5477 26.848 19.5262 28.5585Z" fill="#ED72AB"/>
<path d="M17.2163 29.6158V27.1959C17.2163 26.7409 17.5851 26.3721 18.0401 26.3721C18.4951 26.3721 18.864 26.7409 18.864 27.1959V29.6158C18.8201 30.7082 17.2606 30.7092 17.2163 29.6158Z" fill="#FF9FB4"/>
<path d="M17.7969 29.4386V27.3732C17.8133 26.8331 18.5983 26.8321 18.615 27.3732V29.4386C18.5985 29.9788 17.8136 29.9797 17.7969 29.4386Z" fill="#ED72AB"/>
<path d="M17.2163 34.2257V31.8058C17.2163 31.3508 17.5851 30.9819 18.0401 30.9819C18.4951 30.9819 18.864 31.3508 18.864 31.8058V34.2257C18.8201 35.3182 17.2606 35.319 17.2163 34.2257Z" fill="#FF9FB4"/>
<path d="M17.7969 34.0485V31.9831C17.8133 31.4429 18.5983 31.442 18.615 31.9831V34.0485C18.5985 34.5886 17.8136 34.5896 17.7969 34.0485Z" fill="#ED72AB"/>
<path d="M15.242 35.5654H17.1642C17.5256 35.5654 17.8186 35.8584 17.8186 36.2198C17.8186 36.5812 17.5256 36.8742 17.1642 36.8742H15.242C14.3754 36.8423 14.3747 35.5975 15.242 35.5654Z" fill="#FF9FB4"/>
<path d="M15.3831 36.0261H17.0236C17.4527 36.0392 17.4534 36.6627 17.0236 36.676H15.3831C14.954 36.6629 14.9533 36.0394 15.3831 36.0261Z" fill="#ED72AB"/>
<path d="M11.6404 35.5654H13.5626C13.924 35.5654 14.217 35.8584 14.217 36.2198C14.217 36.5812 13.924 36.8742 13.5626 36.8742H11.6404C10.7739 36.8423 10.7731 35.5975 11.6404 35.5654Z" fill="#FF9FB4"/>
<path d="M11.7815 36.0261H13.4221C13.8511 36.0392 13.8518 36.6627 13.4221 36.676H11.7815C11.3525 36.6629 11.3518 36.0394 11.7815 36.0261Z" fill="#ED72AB"/>
<path d="M10.6153 36.2201C10.6164 36.5776 10.3223 36.8752 9.96142 36.874H9.25986C8.69556 36.515 8.1508 36.1264 7.62549 35.7131C7.73799 35.6209 7.88174 35.5654 8.03877 35.5654H9.96142C10.3224 35.5654 10.6153 35.8584 10.6153 36.2201Z" fill="#FF9FB4"/>
<path d="M10.1455 36.3514C10.1459 36.5298 9.99949 36.6767 9.82051 36.6764H8.95645C8.65231 36.4757 8.35566 36.2649 8.06348 36.0482C8.09941 36.0342 8.13926 36.0264 8.17988 36.0264H9.82051C10.0002 36.0264 10.1455 36.1717 10.1455 36.3514Z" fill="#ED72AB"/>
<path d="M19.9998 27.3733C19.8016 27.9265 19.4752 28.4409 19.0529 28.8624L16.7545 31.1608C16.4218 31.4774 15.7476 32.2224 15.3639 32.4616H15.3631C14.5372 33.0284 13.4763 33.2116 12.5115 32.9686C12.5123 32.9686 12.5123 32.9686 12.5115 32.9679C11.8873 32.8118 11.3321 32.5028 10.86 32.0335C10.6215 31.7951 9.41895 30.5925 9.20684 30.3804H9.20605L7.74199 28.9163V28.9155L7.41543 28.5897C7.41543 28.589 7.41543 28.589 7.41543 28.589L6.98652 28.1601C6.98652 28.1601 6.98652 28.1601 6.98574 28.1601L6.65996 27.8335H6.65918C6.39855 27.5976 5.53191 26.6329 5.22793 26.4913C4.75543 26.224 4.16238 26.2083 3.6748 26.4499C3.51387 26.5291 3.36207 26.6319 3.22715 26.7694L2.25605 27.7405C2.07785 27.9192 1.93059 28.1215 1.81934 28.3444C1.50441 27.6618 1.23152 26.9644 0.995117 26.2483L2.88887 24.3546C4.07949 23.164 6.00918 23.1647 7.19902 24.3546L11.1561 28.3116C11.9037 29.0593 13.1162 29.0593 13.8639 28.3116L15.385 26.7905C15.8604 26.3096 16.6446 25.5348 17.1146 25.0608C17.6841 24.4947 18.4788 23.6943 19.0529 23.1226C20.1592 24.2088 20.5367 25.9204 19.9998 27.3733Z" fill="#D15A96"/>
<path d="M19.9996 27.3734C19.8824 27.6992 19.7215 28.0133 19.5184 28.3062C19.2498 28.7347 17.9642 29.9285 17.602 30.3133H17.6012L16.7543 31.1602V31.1609C16.4178 31.4813 15.7502 32.2198 15.3637 32.4617H15.3629C14.537 33.0285 13.4761 33.2117 12.5113 32.9687C12.5121 32.9687 12.5121 32.9687 12.5113 32.968C11.8871 32.8119 11.332 32.5029 10.8598 32.0336C10.6213 31.7952 9.41875 30.5926 9.20664 30.3805H9.20586L7.7418 28.9164V28.9156L7.41523 28.5898C7.41523 28.5891 7.41523 28.5891 7.41523 28.5891L6.98633 28.1602C6.98633 28.1602 6.98633 28.1602 6.98555 28.1602L6.65977 27.8336H6.65898C6.39836 27.5977 5.53172 26.633 5.22773 26.4914C4.75523 26.2241 4.16219 26.2084 3.67461 26.45C3.51367 26.5292 3.36188 26.632 3.22695 26.7695L2.25586 27.7406C2.07766 27.9193 1.93039 28.1216 1.81914 28.3445C1.71289 28.1169 1.61398 27.8867 1.51758 27.6547C1.53164 27.6383 1.54648 27.6234 1.56211 27.6078L3.85508 25.3148C4.6668 24.5031 5.98398 24.5031 6.7957 25.3148L11.4543 29.9734C12.1629 30.682 13.3129 30.682 14.0215 29.9734C14.6995 29.2911 16.0791 27.919 16.7543 27.2406C17.6115 26.3745 18.9665 25.0349 19.8152 24.1797C20.3091 25.1639 20.3766 26.3359 19.9996 27.3734Z" fill="#ED72AB"/>
<path d="M16.6714 27.9764L18.3826 26.2652C18.7043 25.9435 19.2259 25.9435 19.5476 26.2652C19.8693 26.5869 19.8693 27.1085 19.5476 27.4302L17.8364 29.1414C17.033 29.8829 15.9296 28.7808 16.6714 27.9764Z" fill="#FF9FB4"/>
<path d="M17.207 28.2614L18.6675 26.8009C19.061 26.4306 19.6168 26.985 19.246 27.3794L17.7855 28.8399C17.392 29.2101 16.8362 28.6558 17.207 28.2614Z" fill="#ED72AB"/>
<path d="M13.4126 31.2361L15.1238 29.525C15.4455 29.2033 15.9671 29.2033 16.2888 29.525C16.6105 29.8467 16.6105 30.3683 16.2888 30.69L14.5776 32.4011C13.7742 33.1426 12.6708 32.0406 13.4126 31.2361Z" fill="#FF9FB4"/>
<path d="M13.9482 31.5209L15.4087 30.0604C15.8022 29.6901 16.358 30.2445 15.9872 30.639L14.5267 32.0994C14.1332 32.4697 13.5774 31.9154 13.9482 31.5209Z" fill="#ED72AB"/>
<path d="M11.069 30.7874L12.4281 32.1466C13.0184 32.7818 12.1387 33.6625 11.5027 33.072L10.1436 31.7128C9.55336 31.0776 10.433 30.1969 11.069 30.7874Z" fill="#FF9FB4"/>
<path d="M10.8421 31.2128L12.0022 32.3729C12.1291 32.4998 12.1291 32.7055 12.0022 32.8324C11.8753 32.9593 11.6696 32.9593 11.5427 32.8324L10.3826 31.6723C10.0875 31.3621 10.5312 30.9173 10.8421 31.2128Z" fill="#ED72AB"/>
<path d="M8.52211 28.2408L9.88124 29.5999C10.4715 30.2352 9.59179 31.1159 8.95586 30.5253L7.59672 29.1662C7.00648 28.5309 7.88609 27.6502 8.52211 28.2408Z" fill="#FF9FB4"/>
<path d="M8.29527 28.6662L9.45535 29.8262C9.58223 29.9531 9.58223 30.1589 9.45535 30.2858C9.32848 30.4126 9.1227 30.4126 8.99582 30.2858L7.83574 29.1257C7.54066 28.8155 7.98433 28.3706 8.29527 28.6662Z" fill="#ED72AB"/>
<path d="M5.97523 25.6942L7.33437 27.0533C7.9246 27.6885 7.04492 28.5692 6.40898 27.9787L5.04984 26.6196C4.45961 25.9843 5.33922 25.1036 5.97523 25.6942Z" fill="#FF9FB4"/>
<path d="M5.7484 26.1195L6.90848 27.2796C7.03535 27.4065 7.03535 27.6123 6.90848 27.7391C6.7816 27.866 6.57582 27.866 6.44895 27.7391L5.28886 26.5791C4.99379 26.2688 5.43746 25.824 5.7484 26.1195Z" fill="#ED72AB"/>
<path d="M3.01732 26.7191L3.82708 25.9094C4.1995 25.5552 4.73286 26.0878 4.37841 26.4607L3.56865 27.2705C3.19622 27.6246 2.66287 27.092 3.01732 26.7191Z" fill="#FF9FB4"/>
<path d="M3.27086 26.854L3.96196 26.1629C4.14469 25.9862 4.41274 26.2535 4.23571 26.4366L3.54461 27.1277C3.36188 27.3044 3.09383 27.0371 3.27086 26.854Z" fill="#ED72AB"/>
<path d="M2.90654 27.771C2.90654 27.871 2.86904 27.9702 2.79326 28.0467L2.03701 28.8022C1.91521 28.5535 1.79779 28.3033 1.68701 28.0499L2.2417 27.4952C2.48029 27.2475 2.91568 27.4345 2.90654 27.771Z" fill="#FF9FB4"/>
<path d="M2.70713 27.8858C2.70713 27.935 2.6876 27.9842 2.6501 28.0225L1.98213 28.6897C1.92213 28.566 1.86416 28.4423 1.80713 28.3178C1.81861 28.3057 2.34674 27.7771 2.37588 27.7483C2.4915 27.6259 2.71283 27.7193 2.70713 27.8858Z" fill="#ED72AB"/>
<path d="M39.004 26.2483C38.7675 26.9644 38.4947 27.6618 38.1797 28.3444C38.0686 28.1215 37.9211 27.9192 37.743 27.7405L36.7719 26.7694C36.4843 26.4806 36.1058 26.3125 35.7079 26.2835C35.2271 26.247 34.7461 26.4254 34.404 26.7694L33.3399 27.8335H33.3391L33.0133 28.1601C33.0125 28.1601 33.0125 28.1601 33.0125 28.1601L32.5836 28.589V28.5897L32.2571 28.9155V28.9163L30.793 30.3804H30.7922C30.5879 30.5846 29.3716 31.8011 29.1391 32.0335C28.6669 32.5028 28.1118 32.8118 27.4876 32.9679C27.4868 32.9686 27.4868 32.9686 27.4876 32.9686C26.5232 33.2121 25.4619 33.0275 24.636 32.4624V32.4616H24.6352C24.6235 32.4546 24.6126 32.4468 24.6016 32.4382C24.6016 32.4382 24.6016 32.4382 24.6008 32.4382C24.2528 32.2161 23.5522 31.455 23.2446 31.1608C22.8687 30.7561 20.7341 28.7317 20.4805 28.3061C19.3669 26.7424 19.568 24.4615 20.9462 23.1226C21.5233 23.6952 22.315 24.4947 22.8844 25.0608C23.3513 25.5322 24.1396 26.3127 24.6141 26.7905L26.1352 28.3116C26.8829 29.0593 28.0954 29.0593 28.843 28.3116L32.8 24.3546C33.9899 23.1647 35.9196 23.164 37.1102 24.3546L39.004 26.2483Z" fill="#D15A96"/>
<path d="M38.4818 27.6547C38.3854 27.8867 38.2865 28.1169 38.1803 28.3445C38.0691 28.1216 37.9217 27.9193 37.7435 27.7406L36.7724 26.7695C36.485 26.481 36.1063 26.3123 35.7084 26.2836C35.2276 26.2471 34.7466 26.4255 34.4045 26.7695L33.3404 27.8336H33.3396L33.0138 28.1602C33.0131 28.1602 33.0131 28.1602 33.0131 28.1602L32.5842 28.5891V28.5898L32.2576 28.9156V28.9164L30.7935 30.3805H30.7928C30.5884 30.5847 29.3721 31.8012 29.1396 32.0336C28.6674 32.5029 28.1123 32.8119 27.4881 32.968C27.4873 32.9687 27.4873 32.9687 27.4881 32.9687C26.524 33.2117 25.4613 33.0285 24.6365 32.4617H24.6357V32.4609C24.6248 32.4539 24.6131 32.4461 24.6021 32.4383C24.6021 32.4383 24.6021 32.4383 24.6013 32.4383C24.2424 32.2073 23.5604 31.4616 23.2451 31.1609V31.1602L22.3982 30.3133H22.3974C22.0218 29.9149 20.7597 28.7455 20.481 28.3062C19.6399 27.1098 19.5259 25.4796 20.1842 24.1797C21.033 25.0283 22.3836 26.3793 23.2451 27.2406C23.9211 27.9169 25.2986 29.294 25.9779 29.9734C26.6865 30.682 27.8365 30.682 28.5451 29.9734L33.2037 25.3148C34.0154 24.5031 35.3326 24.5031 36.1443 25.3148L38.4373 27.6078C38.4529 27.6234 38.4678 27.6383 38.4818 27.6547Z" fill="#ED72AB"/>
<path d="M23.3279 27.9764L21.6167 26.2652C21.295 25.9435 20.7735 25.9435 20.4517 26.2652C20.13 26.5869 20.13 27.1085 20.4517 27.4302L22.1629 29.1414C22.9663 29.8829 24.0697 28.7808 23.3279 27.9764Z" fill="#FF9FB4"/>
<path d="M22.7919 28.2614L21.3314 26.8009C20.9379 26.4306 20.3821 26.985 20.7529 27.3794L22.2134 28.8399C22.6069 29.2101 23.1627 28.6558 22.7919 28.2614Z" fill="#ED72AB"/>
<path d="M26.5872 31.2361L24.876 29.525C24.5543 29.2033 24.0327 29.2033 23.711 29.525C23.3893 29.8467 23.3893 30.3683 23.711 30.69L25.4222 32.4011C26.2256 33.1426 27.329 32.0406 26.5872 31.2361Z" fill="#FF9FB4"/>
<path d="M26.0512 31.5209L24.5907 30.0604C24.1972 29.6901 23.6414 30.2445 24.0122 30.639L25.4727 32.0994C25.8662 32.4697 26.422 31.9154 26.0512 31.5209Z" fill="#ED72AB"/>
<path d="M28.9309 30.7874L27.5718 32.1466C26.9816 32.7818 27.8613 33.6625 28.4972 33.072L29.8563 31.7128C30.4466 31.0776 29.567 30.1969 28.9309 30.7874Z" fill="#FF9FB4"/>
<path d="M29.1576 31.2128L27.9975 32.3729C27.8706 32.4998 27.8706 32.7055 27.9975 32.8324C28.1244 32.9593 28.3302 32.9593 28.457 32.8324L29.6171 31.6723C29.9122 31.3621 29.4685 30.9173 29.1576 31.2128Z" fill="#ED72AB"/>
<path d="M31.4768 28.2408L30.1177 29.5999C29.5275 30.2352 30.4072 31.1159 31.0431 30.5253L32.4022 29.1662C32.9925 28.5309 32.1129 27.6502 31.4768 28.2408Z" fill="#FF9FB4"/>
<path d="M31.7035 28.6662L30.5434 29.8262C30.4165 29.9531 30.4165 30.1589 30.5434 30.2858C30.6703 30.4126 30.8761 30.4126 31.0029 30.2858L32.163 29.1257C32.4581 28.8155 32.0144 28.3706 31.7035 28.6662Z" fill="#ED72AB"/>
<path d="M34.0237 25.6942L32.6646 27.0533C32.0743 27.6885 32.954 28.5692 33.59 27.9787L34.9491 26.6196C35.5393 25.9843 34.6597 25.1036 34.0237 25.6942Z" fill="#FF9FB4"/>
<path d="M34.2503 26.1195L33.0903 27.2796C32.9634 27.4065 32.9634 27.6123 33.0903 27.7391C33.2171 27.866 33.4229 27.866 33.5498 27.7391L34.7099 26.5791C35.0049 26.2688 34.5613 25.824 34.2503 26.1195Z" fill="#ED72AB"/>
<path d="M36.9819 26.7191L36.1722 25.9094C35.7997 25.5552 35.2664 26.0878 35.6208 26.4607L36.4306 27.2705C36.803 27.6246 37.3364 27.092 36.9819 26.7191Z" fill="#FF9FB4"/>
<path d="M36.7289 26.854L36.0378 26.1629C35.855 25.9862 35.587 26.2535 35.764 26.4366L36.4551 27.1277C36.6379 27.3044 36.9059 27.0371 36.7289 26.854Z" fill="#ED72AB"/>
<path d="M38.3134 28.0499C38.2027 28.3033 38.0852 28.5535 37.9634 28.8022L37.2072 28.0467C37.1314 27.9702 37.0939 27.871 37.0939 27.771C37.0848 27.4345 37.5201 27.2475 37.7587 27.4952L38.3134 28.0499Z" fill="#FF9FB4"/>
<path d="M38.1931 28.3178C38.136 28.4423 38.0781 28.566 38.0181 28.6897L37.3501 28.0225C37.3126 27.9842 37.2931 27.935 37.2931 27.8858C37.2875 27.7195 37.5086 27.6258 37.6243 27.7483C37.655 27.779 38.1796 28.3031 38.1931 28.3178Z" fill="#ED72AB"/>
<path d="M38.4449 15.8265C38.1719 15.9778 37.8273 15.9218 37.6144 15.6882L36.8965 14.8968C36.4473 14.4022 35.8098 14.1202 35.1418 14.1202H33.7684C32.8434 14.1202 32.0941 14.8702 32.0941 15.7952V23.2397C32.0941 25.2007 30.5043 26.7905 28.5426 26.7905H24.0582C21.7991 26.8011 19.9838 24.9186 19.9996 22.7319H27.3379C28.3949 22.7319 29.2527 21.8749 29.2527 20.8171V15.221C29.2527 13.5382 30.6168 12.1733 32.3004 12.1733H35.5996C36.3832 12.1733 37.116 12.5601 37.5574 13.2077L38.6777 14.8491C38.9035 15.1796 38.7949 15.6327 38.4449 15.8265Z" fill="#D15A96"/>
<path d="M38.4452 15.8265C38.1722 15.9778 37.8276 15.9218 37.6147 15.6882L36.8968 14.8968C36.4476 14.4023 35.8101 14.1203 35.1421 14.1203H33.7686C32.844 14.1203 32.0944 14.8699 32.0944 15.7945V23.2398C32.0944 25.2008 30.5047 26.7906 28.5436 26.7906H24.0585C22.2671 26.7906 20.746 25.6296 20.2085 24.0187H28.4015C29.4042 24.0187 30.2171 23.2058 30.2171 22.2031V15.6153C30.2171 14.4669 31.148 13.5359 32.2965 13.5359H35.5392C36.2669 13.5359 36.9529 13.875 37.3949 14.4529L38.4452 15.8265Z" fill="#ED72AB"/>
<path d="M25.1158 24.4805H22.6959C22.2409 24.4805 21.8721 24.8493 21.8721 25.3043C21.8721 25.7593 22.2409 26.1281 22.6959 26.1281H25.1158C26.2082 26.0842 26.2092 24.5248 25.1158 24.4805Z" fill="#FF9FB4"/>
<path d="M24.9386 25.0605H22.8732C22.3331 25.077 22.3321 25.862 22.8732 25.8787H24.9386C25.4788 25.8623 25.4797 25.0773 24.9386 25.0605Z" fill="#ED72AB"/>
<path d="M29.7252 24.4805H27.3053C26.8503 24.4805 26.4814 24.8493 26.4814 25.3043C26.4814 25.7593 26.8503 26.1281 27.3053 26.1281H29.7252C30.8176 26.0842 30.8185 24.5248 29.7252 24.4805Z" fill="#FF9FB4"/>
<path d="M29.548 25.0605H27.4826C26.9425 25.077 26.9415 25.862 27.4826 25.8787H29.548C30.0881 25.8623 30.0891 25.0773 29.548 25.0605Z" fill="#ED72AB"/>
<path d="M31.0649 22.5061V24.4283C31.0649 24.7897 31.3579 25.0827 31.7193 25.0827C32.0807 25.0827 32.3737 24.7897 32.3737 24.4283V22.5061C32.3418 21.6396 31.0971 21.6389 31.0649 22.5061Z" fill="#FF9FB4"/>
<path d="M31.5254 22.647V24.2875C31.5384 24.7166 32.162 24.7173 32.1752 24.2875V22.647C32.1622 22.218 31.5387 22.2172 31.5254 22.647Z" fill="#ED72AB"/>
<path d="M31.0649 18.9048V20.827C31.0649 21.1884 31.3579 21.4814 31.7193 21.4814C32.0807 21.4814 32.3737 21.1884 32.3737 20.827V18.9048C32.3418 18.0383 31.0971 18.0376 31.0649 18.9048Z" fill="#FF9FB4"/>
<path d="M31.5254 19.0457V20.6862C31.5384 21.1152 32.162 21.116 32.1752 20.6862V19.0457C32.1622 18.6167 31.5387 18.6159 31.5254 19.0457Z" fill="#ED72AB"/>
<path d="M31.0649 15.3033V17.2255C31.0649 17.5869 31.3579 17.8798 31.7193 17.8798C32.0807 17.8798 32.3737 17.5869 32.3737 17.2255V15.3033C32.3418 14.4367 31.0971 14.436 31.0649 15.3033Z" fill="#FF9FB4"/>
<path d="M31.5254 15.4441V17.0846C31.5384 17.5137 32.162 17.5144 32.1752 17.0846V15.4441C32.1622 15.0151 31.5387 15.0143 31.5254 15.4441Z" fill="#ED72AB"/>
<path d="M33.8822 13.936H32.737C32.5217 13.936 32.3472 14.1106 32.3472 14.3259C32.3472 14.5412 32.5217 14.7157 32.737 14.7157H33.8822C34.3972 14.6999 34.3976 13.952 33.8822 13.936Z" fill="#FF9FB4"/>
<path d="M33.7987 14.2104H32.8213C32.5663 14.2168 32.5658 14.5912 32.8213 14.5976H33.7987C34.0537 14.5912 34.0542 14.2169 33.7987 14.2104Z" fill="#ED72AB"/>
<path d="M36.1248 13.936H34.9797C34.7644 13.936 34.5898 14.1106 34.5898 14.3259C34.5898 14.5412 34.7644 14.7157 34.9797 14.7157H36.1248C36.6398 14.6999 36.6403 13.952 36.1248 13.936Z" fill="#FF9FB4"/>
<path d="M36.0413 14.2104H35.064C34.809 14.2168 34.8085 14.5912 35.064 14.5976H36.0413C36.2964 14.5912 36.2969 14.2169 36.0413 14.2104Z" fill="#ED72AB"/>
<path d="M1.55462 15.8265C1.82759 15.9778 2.1722 15.9218 2.38509 15.6882L3.10306 14.8968C3.55228 14.4022 4.18978 14.1202 4.85775 14.1202H6.23119C7.15619 14.1202 7.9054 14.8702 7.9054 15.7952V23.2397C7.9054 25.2007 9.49525 26.7905 11.457 26.7905H15.9413C18.2005 26.8011 20.0157 24.9186 19.9999 22.7319H12.6617C11.6046 22.7319 10.7468 21.8749 10.7468 20.8171V15.221C10.7468 13.5382 9.38275 12.1733 7.69915 12.1733H4.39994C3.61634 12.1733 2.88353 12.5601 2.44212 13.2077L1.32181 14.8491C1.09603 15.1796 1.20462 15.6327 1.55462 15.8265Z" fill="#D15A96"/>
<path d="M1.5542 15.8265C1.82717 15.9778 2.17178 15.9218 2.38467 15.6882L3.10264 14.8968C3.55186 14.4023 4.18936 14.1203 4.85732 14.1203H6.23076C7.15537 14.1203 7.90498 14.8699 7.90498 15.7945V23.2398C7.90498 25.2008 9.49475 26.7906 11.4558 26.7906H15.9409C17.7323 26.7906 19.2534 25.6296 19.7909 24.0187H11.5979C10.5952 24.0187 9.78232 23.2058 9.78232 22.2031V15.6153C9.78232 14.4669 8.85139 13.5359 7.70295 13.5359H4.46021C3.73256 13.5359 3.04654 13.875 2.60451 14.4529L1.5542 15.8265Z" fill="#ED72AB"/>
<path d="M14.8841 24.4805H17.304C17.759 24.4805 18.1279 24.8493 18.1279 25.3043C18.1279 25.7593 17.759 26.1281 17.304 26.1281H14.8841C13.7917 26.0842 13.7908 24.5248 14.8841 24.4805Z" fill="#FF9FB4"/>
<path d="M15.0617 25.0605H17.1271C17.6673 25.077 17.6682 25.862 17.1271 25.8787H15.0617C14.5216 25.8623 14.5206 25.0773 15.0617 25.0605Z" fill="#ED72AB"/>
<path d="M10.2738 24.4805H12.6937C13.1487 24.4805 13.5175 24.8493 13.5175 25.3043C13.5175 25.7593 13.1487 26.1281 12.6937 26.1281H10.2738C9.18135 26.0842 9.18041 24.5248 10.2738 24.4805Z" fill="#FF9FB4"/>
<path d="M10.4509 25.0605H12.5162C13.0564 25.077 13.0573 25.862 12.5162 25.8787H10.4509C9.91077 25.8623 9.90976 25.0773 10.4509 25.0605Z" fill="#ED72AB"/>
<path d="M8.93424 22.5061V24.4283C8.93424 24.7897 8.64127 25.0827 8.27986 25.0827C7.91846 25.0827 7.62549 24.7897 7.62549 24.4283V22.5061C7.65736 21.6396 8.90213 21.6389 8.93424 22.5061Z" fill="#FF9FB4"/>
<path d="M8.47309 22.647V24.2875C8.46004 24.7166 7.83652 24.7173 7.82324 24.2875V22.647C7.83629 22.218 8.45981 22.2172 8.47309 22.647Z" fill="#ED72AB"/>
<path d="M8.93424 18.9048V20.827C8.93424 21.1884 8.64127 21.4814 8.27986 21.4814C7.91846 21.4814 7.62549 21.1884 7.62549 20.827V18.9048C7.65736 18.0383 8.90213 18.0376 8.93424 18.9048Z" fill="#FF9FB4"/>
<path d="M8.47309 19.0457V20.6862C8.46004 21.1152 7.83652 21.116 7.82324 20.6862V19.0457C7.83629 18.6167 8.45981 18.6159 8.47309 19.0457Z" fill="#ED72AB"/>
<path d="M8.93424 15.3033V17.2255C8.93424 17.5869 8.64127 17.8798 8.27986 17.8798C7.91846 17.8798 7.62549 17.5869 7.62549 17.2255V15.3033C7.65736 14.4367 8.90213 14.436 8.93424 15.3033Z" fill="#FF9FB4"/>
<path d="M8.47309 15.4441V17.0846C8.46004 17.5137 7.83652 17.5144 7.82324 17.0846V15.4441C7.83629 15.0151 8.45981 15.0143 8.47309 15.4441Z" fill="#ED72AB"/>
<path d="M6.11738 13.936H7.26254C7.47785 13.936 7.65238 14.1106 7.65238 14.3259C7.65238 14.5412 7.47785 14.7157 7.26254 14.7157H6.11738C5.60238 14.6999 5.60191 13.952 6.11738 13.936Z" fill="#FF9FB4"/>
<path d="M6.20125 14.2104H7.17859C7.43359 14.2168 7.43406 14.5912 7.17859 14.5976H6.20125C5.94617 14.5912 5.9457 14.2169 6.20125 14.2104Z" fill="#ED72AB"/>
<path d="M3.87471 13.936H5.01986C5.23517 13.936 5.4097 14.1106 5.4097 14.3259C5.4097 14.5412 5.23517 14.7157 5.01986 14.7157H3.87471C3.35971 14.6999 3.35924 13.952 3.87471 13.936Z" fill="#FF9FB4"/>
<path d="M3.95857 14.2104H4.93592C5.19092 14.2168 5.19139 14.5912 4.93592 14.5976H3.95857C3.7035 14.5912 3.70303 14.2169 3.95857 14.2104Z" fill="#ED72AB"/>
<path d="M26.1526 9.46023V20.0031C26.1614 22.1872 24.6895 24.1309 22.603 24.7315C22.1674 24.8574 21.707 24.9251 21.2313 24.9251H18.7692C15.798 24.9251 13.5048 22.313 13.8888 19.3673L15.3858 7.87679C15.625 6.04405 17.3867 4.82445 19.1753 5.22718C19.2095 5.23452 19.2437 5.24327 19.2778 5.25195L23.8105 6.4307C25.1897 6.78913 26.1526 8.03483 26.1526 9.46023Z" fill="#E063A2"/>
<path d="M26.153 9.46018V20.0031C26.153 20.8956 25.9152 21.7333 25.4997 22.455C24.8718 23.5467 23.8371 24.3742 22.6034 24.7314C22.1679 24.8574 21.7075 24.9251 21.2317 24.9251C20.0963 24.9251 19.1758 24.0046 19.1758 22.8692V5.22705C19.2099 5.23439 19.2441 5.24314 19.2783 5.25182L23.8109 6.43057C25.1902 6.78908 26.153 8.03479 26.153 9.46018Z" fill="#ED72AB"/>
<path d="M23.6818 16.9943C21.8133 19.0192 24.5936 21.7985 26.6171 19.9296C27.4151 19.1402 27.4372 17.8095 26.6171 16.9943C25.8029 16.1752 24.4708 16.1959 23.6818 16.9943Z" fill="#D15A96"/>
<path d="M24.4312 16.5142C23.8205 18.167 25.4458 19.7909 27.0969 19.1799C27.7081 17.5277 26.0829 15.9037 24.4312 16.5142Z" fill="#FF9FB4"/>
<path d="M26.5984 18.462C26.6017 19.2679 25.9307 19.917 25.1494 19.911C23.2273 19.8349 23.2278 17.0879 25.1494 17.013C25.9307 17.0074 26.6017 17.6543 26.5984 18.462Z" fill="#9ACDAE"/>
<path d="M25.805 17.885H24.4953C24.229 17.885 24.0132 18.1009 24.0132 18.3671V18.5568C24.0132 18.8231 24.229 19.0389 24.4953 19.0389H25.805C26.0712 19.0389 26.2871 18.8231 26.2871 18.5568V18.3671C26.2871 18.1009 26.0712 17.885 25.805 17.885Z" fill="#2E3140"/>
<path d="M26.1015 18.0053C26.0795 18.6628 25.1301 18.6573 25.1108 18.0053C25.1298 17.353 26.0799 17.348 26.1015 18.0053Z" fill="white"/>
<path d="M13.3825 16.9943C11.514 19.0192 14.2943 21.7985 16.3178 19.9296C17.1158 19.1402 17.1379 17.8095 16.3178 16.9943C15.5036 16.1752 14.1715 16.1959 13.3825 16.9943Z" fill="#D15A96"/>
<path d="M14.1319 16.5142C13.5212 18.167 15.1465 19.7909 16.7976 19.1799C17.4088 17.5277 15.7836 15.9037 14.1319 16.5142Z" fill="#FF9FB4"/>
<path d="M16.2991 18.462C16.3024 19.2679 15.6314 19.917 14.8501 19.911C12.928 19.8349 12.9285 17.0879 14.8501 17.013C15.6314 17.0074 16.3024 17.6543 16.2991 18.462Z" fill="#9ACDAE"/>
<path d="M15.5057 17.885H14.196C13.9297 17.885 13.7139 18.1009 13.7139 18.3671V18.5568C13.7139 18.8231 13.9297 19.0389 14.196 19.0389H15.5057C15.7719 19.0389 15.9878 18.8231 15.9878 18.5568V18.3671C15.9877 18.1009 15.7719 17.885 15.5057 17.885Z" fill="#2E3140"/>
<path d="M15.8021 18.0053C15.7802 18.6628 14.8307 18.6573 14.8115 18.0053C14.8305 17.353 15.7806 17.348 15.8021 18.0053Z" fill="white"/>
<path d="M19.1758 6.69141L23.2455 7.74813C23.5784 7.83461 23.8109 8.13516 23.8109 8.47914C23.8109 8.97328 23.3442 9.33438 22.8659 9.21016L19.1758 8.25203V6.69141Z" fill="#FF9FB4"/>
</svg>
