<svg width="40" height="40" viewBox="0 0 40 40" fill="none" xmlns="http://www.w3.org/2000/svg">
<path d="M40 20C40 31.0458 31.0458 40 20 40C8.95416 40 0 31.0458 0 20C0 8.95416 8.95416 0 20 0C31.0458 0 40 8.95416 40 20Z" fill="#1DA2DD"/>
<path d="M29.8534 35.1234V37.4082C26.9454 39.058 23.5829 40.0001 20.0002 40.0001C17.8884 40.0001 15.8541 39.6726 13.9431 39.0662C12.6125 38.6442 11.3414 38.0857 10.147 37.4082V35.1234C10.147 31.2238 13.1505 28.0247 16.9716 27.7161C17.1724 27.6996 17.3748 27.6914 17.5798 27.6914H22.4199C22.9921 27.6914 23.5488 27.7552 24.0834 27.8776C27.3879 28.6335 29.8534 31.5909 29.8534 35.1234Z" fill="#512375"/>
<path d="M29.8534 35.1234V37.4082C28.0779 38.4156 26.1336 39.1593 24.0721 39.5844C22.918 39.8237 21.7269 39.9631 20.5089 39.9933C20.3401 39.9976 20.1702 40.0001 20.0005 40.0001C17.8887 40.0001 15.8544 39.6726 13.9434 39.0662V35.1234C13.9434 34.5966 13.998 34.0824 14.1024 33.5868C14.3148 32.5745 14.7335 31.6392 15.3124 30.8243C16.6591 28.9283 18.8738 27.6914 21.3768 27.6914H22.4199C26.5261 27.6914 29.8534 31.0187 29.8534 35.1234Z" fill="#673389"/>
<path d="M20.5118 29.3984V39.9935C20.3412 39.9975 20.1716 39.9999 20.0001 39.9999C19.8286 39.9999 19.658 39.9975 19.4883 39.9926V29.3984H20.5118Z" fill="#512375"/>
<path d="M23.2657 34.5527C23.2657 35.0486 22.8635 35.4505 22.3676 35.4505C21.8716 35.4505 21.4697 35.0486 21.4697 34.5527C21.4697 34.0568 21.8716 33.6545 22.3676 33.6545C22.8635 33.6545 23.2657 34.0568 23.2657 34.5527Z" fill="#512375"/>
<path d="M23.2657 37.4098C23.2657 37.9057 22.8635 38.3079 22.3676 38.3079C21.8716 38.3079 21.4697 37.9057 21.4697 37.4098C21.4697 36.9139 21.8716 36.512 22.3676 36.512C22.8635 36.512 23.2657 36.9139 23.2657 37.4098Z" fill="#512375"/>
<path d="M19.9993 30.734L16.6533 32.5934L15.6353 27.8589L17.7144 26.6343" fill="#512375"/>
<path d="M19.999 30.734L23.345 32.5934L24.363 27.8589L22.2839 26.6343" fill="#512375"/>
<path d="M22.6518 24.8281V28.0825C22.6518 29.2739 21.8663 30.281 20.7841 30.6155C20.5366 30.6921 20.2726 30.7339 19.9995 30.7339C18.5353 30.7339 17.3481 29.5468 17.3481 28.0825V24.8281H22.6518Z" fill="#EAA27F"/>
<path d="M22.6519 27.8762V28.0825C22.6519 29.2739 21.8663 30.281 20.7842 30.6155C19.8079 30.3152 19.074 29.4665 18.9385 28.4277C19.1155 28.4387 19.2937 28.4442 19.4725 28.4442C19.9742 28.4442 20.4662 28.4042 20.9453 28.3254C21.5355 28.2308 22.1059 28.0789 22.6519 27.8762Z" fill="#F6BA97"/>
<path d="M12.7254 19.4946C12.7254 20.7224 11.8288 21.7401 10.6545 21.929C10.5263 21.9501 10.3942 21.9608 10.2596 21.9608C8.89728 21.9608 7.79346 20.8569 7.79346 19.4946C7.79346 18.1326 8.89728 17.0288 10.2596 17.0288C10.3942 17.0288 10.5263 17.0395 10.6545 17.0605C11.8288 17.2495 12.7254 18.2672 12.7254 19.4946Z" fill="#F6BA97"/>
<path d="M12.7257 19.4946C12.7257 20.7224 11.8291 21.7401 10.6548 21.929C10.4415 21.1536 10.3276 20.3372 10.3276 19.4946C10.3276 18.6523 10.4415 17.836 10.6548 17.0605C11.8291 17.2495 12.7257 18.2672 12.7257 19.4946Z" fill="#EAA27F"/>
<path d="M11.1409 19.4946C11.1409 19.9817 10.7463 20.3763 10.2596 20.3763C9.77283 20.3763 9.37793 19.9817 9.37793 19.4946C9.37793 19.0079 9.77283 18.6133 10.2596 18.6133C10.7463 18.6133 11.1409 19.0079 11.1409 19.4946Z" fill="#EAA27F"/>
<path d="M27.2739 19.4946C27.2739 20.7224 28.1705 21.7401 29.3448 21.929C29.4733 21.9501 29.6052 21.9608 29.7397 21.9608C31.1021 21.9608 32.2059 20.8569 32.2059 19.4946C32.2059 18.1326 31.1021 17.0288 29.7397 17.0288C29.6052 17.0288 29.4733 17.0395 29.3448 17.0605C28.1705 17.2495 27.2739 18.2672 27.2739 19.4946Z" fill="#F6BA97"/>
<path d="M27.2739 19.4946C27.2739 20.7224 28.1705 21.7401 29.3448 21.929C29.5582 21.1536 29.672 20.3372 29.672 19.4946C29.672 18.6523 29.5582 17.836 29.3448 17.0605C28.1705 17.2495 27.2739 18.2672 27.2739 19.4946Z" fill="#EAA27F"/>
<path d="M29.1749 14.6906V18.1845C29.1749 22.7502 25.8397 26.5378 21.4723 27.2406C21.4576 27.243 21.4421 27.2455 21.4274 27.2482C20.963 27.3224 20.486 27.359 19.9995 27.359C14.9327 27.359 10.8247 23.2513 10.8247 18.1845V14.6906C10.8247 13.6237 11.0069 12.5983 11.3432 11.6455C12.5978 8.07495 16.0005 5.51514 19.9995 5.51514H20.0004C20.486 5.51514 20.9636 5.55267 21.429 5.62592C25.8174 6.31165 29.1749 10.1093 29.1749 14.6906Z" fill="#EAA27F"/>
<path d="M30.6214 19.4946C30.6214 19.9817 30.2268 20.3763 29.7397 20.3763C29.253 20.3763 28.8584 19.9817 28.8584 19.4946C28.8584 19.0079 29.253 18.6133 29.7397 18.6133C30.2268 18.6133 30.6214 19.0079 30.6214 19.4946Z" fill="#EAA27F"/>
<path d="M29.175 14.6906V18.1846C29.175 22.7503 25.8397 26.5378 21.4724 27.2407C21.4577 27.2431 21.4421 27.2455 21.4275 27.2483C17.0388 26.5626 13.6821 22.765 13.6821 18.1846V14.6906C13.6821 10.1093 17.0397 6.31171 21.429 5.62598C25.8174 6.31171 29.175 10.1093 29.175 14.6906Z" fill="#F6BA97"/>
<path d="M29.1749 15.7485V18.5208C29.1749 23.0865 25.8397 26.8743 21.4723 27.5771C21.4576 27.5796 21.4421 27.582 21.4274 27.5845C20.9529 27.6602 20.4661 27.6971 19.9687 27.6953C14.9 27.6794 10.8247 23.5052 10.8247 18.4365V16.1804L11.8647 16.2798L13.2539 20.9896C13.4559 21.675 13.9933 22.2103 14.6797 22.4102C15.7432 22.7197 16.8641 22.149 17.2392 21.1065C17.4266 20.5865 17.9197 20.2398 18.4727 20.2398H21.5263C22.0793 20.2398 22.5724 20.5865 22.7598 21.1065C23.1349 22.1487 24.2558 22.7197 25.3193 22.4102C26.0057 22.2103 26.5431 21.675 26.7451 20.9896L28.1343 16.2798L29.1749 15.7485Z" fill="#EAA27F"/>
<path d="M19.9999 23.1114C19.2315 23.1114 18.4631 22.9189 17.763 22.534C17.5653 22.4254 17.4932 22.1773 17.6019 21.9795C17.7105 21.7821 17.9586 21.71 18.1561 21.8187C19.3106 22.4531 20.689 22.4531 21.8435 21.8187C22.0406 21.71 22.2891 21.7821 22.3977 21.9795C22.5063 22.1773 22.434 22.4254 22.2366 22.534C21.5362 22.9189 20.7681 23.1114 19.9999 23.1114Z" fill="#D88D6F"/>
<path d="M21.0403 20.2706H18.9587C18.7106 20.2706 18.5098 20.0698 18.5098 19.8217C18.5098 19.5736 18.7106 19.3728 18.9587 19.3728H21.0403C21.2884 19.3728 21.4892 19.5736 21.4892 19.8217C21.4892 20.0695 21.2884 20.2706 21.0403 20.2706Z" fill="#D88D6F"/>
<path d="M18.0455 17.6501C18.0455 18.225 17.5798 18.6907 17.0048 18.6907C16.4299 18.6907 15.9639 18.225 15.9639 17.6501C15.9639 17.0751 16.4299 16.6091 17.0048 16.6091C17.5798 16.6091 18.0455 17.0751 18.0455 17.6501Z" fill="#2F373B"/>
<path d="M24.0355 17.6501C24.0355 18.225 23.5695 18.6907 22.9946 18.6907C22.4196 18.6907 21.9536 18.225 21.9536 17.6501C21.9536 17.0751 22.4196 16.6091 22.9946 16.6091C23.5695 16.6091 24.0355 17.0751 24.0355 17.6501Z" fill="#2F373B"/>
<path d="M17.8334 17.4664C17.8334 17.7126 17.6339 17.9122 17.3876 17.9122C17.1413 17.9122 16.9414 17.7126 16.9414 17.4664C16.9414 17.2201 17.1413 17.0205 17.3876 17.0205C17.6339 17.0205 17.8334 17.2201 17.8334 17.4664Z" fill="white"/>
<path d="M23.8745 17.4664C23.8745 17.7126 23.6746 17.9122 23.4283 17.9122C23.182 17.9122 22.9824 17.7126 22.9824 17.4664C22.9824 17.2201 23.182 17.0205 23.4283 17.0205C23.6746 17.0205 23.8745 17.2201 23.8745 17.4664Z" fill="white"/>
<path d="M29.1749 15.0009V18.58C28.2319 18.58 27.4672 17.8152 27.4672 16.8722V9.80798L15.1408 13.4866L12.5325 13.0016V16.8722C12.5325 17.8152 11.768 18.58 10.8247 18.58V15.0009C10.8247 10.9213 14.1322 7.61377 18.2118 7.61377H21.7891C21.8861 7.61377 21.9832 7.6156 22.0805 7.62048C26.024 7.77216 29.1749 11.018 29.1749 15.0009Z" fill="#151A1C"/>
<path d="M29.1749 9.80811V14.7788H10.8247V9.80811C10.8247 6.76398 13.3592 4.29541 16.486 4.29541H23.5136C26.6407 4.29541 29.1749 6.76398 29.1749 9.80811Z" fill="#E89F18"/>
<path d="M29.1748 9.80811V14.7788H15.1001V9.80811C15.1001 6.76398 17.6346 4.29541 20.7614 4.29541H23.5138C26.6406 4.29541 29.1748 6.76398 29.1748 9.80811Z" fill="#FFE05C"/>
<path d="M22.1636 12.4587V14.7787H4.87872C4.23785 14.7787 3.71875 14.2596 3.71875 13.6187C3.71875 13.2986 3.84845 13.0081 4.05841 12.7981C4.26807 12.5884 4.5589 12.4587 4.87872 12.4587H22.1636Z" fill="#512375"/>
<path d="M25.3064 12.4587V14.7787H15.2859C14.6451 14.7787 14.126 14.2596 14.126 13.6187C14.126 13.2986 14.2557 13.0081 14.4656 12.7981C14.6753 12.5884 14.9652 12.4587 15.2859 12.4587H25.3064Z" fill="#673389"/>
</svg>
