<svg width="40" height="40" viewBox="0 0 40 40" fill="none" xmlns="http://www.w3.org/2000/svg">
<path d="M20 40C31.0457 40 40 31.0457 40 20C40 8.9543 31.0457 0 20 0C8.9543 0 0 8.9543 0 20C0 31.0457 8.9543 40 20 40Z" fill="#EA792E"/>
<path d="M38.5857 17.2008C38.4427 17.7938 38.1396 18.3563 37.6756 18.8204L30.1224 26.3735C28.7795 27.7164 26.6021 27.7164 25.2591 26.3735L18.999 20.1133C18.7459 19.8602 18.5404 19.5782 18.3826 19.2774C17.7037 17.9797 17.9091 16.3399 18.999 15.25L26.5521 7.69692C27.8951 6.35396 30.0724 6.35396 31.4154 7.69692L37.6756 13.9571C38.5552 14.8368 38.8584 16.0743 38.5857 17.2008Z" fill="#C2AACF"/>
<path d="M38.5859 17.2009C38.443 17.7939 38.1398 18.3564 37.6758 18.8205L30.1227 26.3736C28.7797 27.7166 26.6023 27.7166 25.2594 26.3736L18.9992 20.1134C18.7461 19.8603 18.5406 19.5783 18.3828 19.2775L22.393 15.2673C26.3305 11.3298 32.7148 11.3298 36.6531 15.2673L38.5859 17.2009Z" fill="#A583BB"/>
<path d="M1.41421 17.2008C1.55718 17.7938 1.8603 18.3563 2.32436 18.8204L9.87749 26.3735C11.2205 27.7164 13.3978 27.7164 14.7408 26.3735L21.0009 20.1133C21.2541 19.8602 21.4595 19.5782 21.6173 19.2774C22.2962 17.9797 22.0908 16.3399 21.0009 15.25L13.4478 7.69692C12.1048 6.35396 9.92749 6.35396 8.58452 7.69692L2.32436 13.9571C1.44468 14.8368 1.14155 16.0743 1.41421 17.2008Z" fill="#A583BB"/>
<path d="M1.41406 17.2009C1.55703 17.7939 1.86016 18.3564 2.32422 18.8205L9.87734 26.3736C11.2203 27.7166 13.3977 27.7166 14.7406 26.3736L21.0008 20.1134C21.2539 19.8603 21.4594 19.5783 21.6172 19.2775L17.607 15.2673C13.6695 11.3298 7.28516 11.3298 3.34687 15.2673L1.41406 17.2009Z" fill="#9175A7"/>
<path d="M29.0379 10.9087C30.0277 10.9087 30.8301 10.1063 30.8301 9.11648C30.8301 8.12664 30.0277 7.32422 29.0379 7.32422C28.048 7.32422 27.2456 8.12664 27.2456 9.11648C27.2456 10.1063 28.048 10.9087 29.0379 10.9087Z" fill="#DECEE5"/>
<path d="M10.9627 10.9087C11.9525 10.9087 12.7549 10.1063 12.7549 9.11648C12.7549 8.12664 11.9525 7.32422 10.9627 7.32422C9.97283 7.32422 9.17041 8.12664 9.17041 9.11648C9.17041 10.1063 9.97283 10.9087 10.9627 10.9087Z" fill="#C2AACF"/>
<path d="M27.8667 15.7923L26.6402 24.8337C26.4425 26.2923 25.1964 27.3806 23.7246 27.3806H16.2761C14.8042 27.3806 13.5582 26.2923 13.3605 24.8337L12.1339 15.7923C11.9753 14.6267 12.23 13.5103 12.7777 12.5798C13.6433 11.1087 15.2417 10.104 17.1019 10.104H22.8988C24.7589 10.104 26.3574 11.1087 27.2222 12.579C27.7706 13.5095 28.0253 14.6259 27.8667 15.7923Z" fill="#C2AACF"/>
<path d="M27.8674 15.7923L26.6408 24.8337C26.4432 26.2923 25.1971 27.3806 23.7252 27.3806H20.001V10.104H22.8994C25.9361 10.104 28.276 12.7829 27.8674 15.7923Z" fill="#DECEE5"/>
<path d="M25.6237 20.5597C24.9874 21.1959 23.9541 21.1959 23.3178 20.5597C22.6808 19.9226 22.6816 18.8901 23.3178 18.2538C23.4903 18.0813 23.6917 17.9554 23.9067 17.8767C24.4852 17.664 25.1591 17.7893 25.6237 18.2538C26.0874 18.7176 26.2134 19.3923 26.0008 19.9708C25.9222 20.1858 25.7962 20.3872 25.6237 20.5597Z" fill="#C2AACF"/>
<path d="M25.996 19.971C26.3659 19.6011 26.1971 18.8325 25.6189 18.2543C25.0408 17.6762 24.2722 17.5074 23.9022 17.8773C23.5323 18.2472 23.7011 19.0158 24.2793 19.594C24.8574 20.1721 25.626 20.3409 25.996 19.971Z" fill="#EBD9EA"/>
<path d="M25.501 19.4067C25.501 19.8504 25.2196 20.2294 24.8258 20.3746C24.7146 20.4143 24.5955 20.437 24.4707 20.437C23.9011 20.437 23.4404 19.9752 23.4404 19.4067C23.4404 18.8371 23.9011 18.3765 24.4707 18.3765C24.5955 18.3765 24.7146 18.3991 24.8258 18.4389C25.2196 18.584 25.501 18.9619 25.501 19.4067Z" fill="#3F5D77"/>
<path d="M24.826 20.3745C25.1989 20.3745 25.5012 19.9412 25.5012 19.4066C25.5012 18.8721 25.1989 18.4387 24.826 18.4387C24.4532 18.4387 24.1509 18.8721 24.1509 19.4066C24.1509 19.9412 24.4532 20.3745 24.826 20.3745Z" fill="#2E3140"/>
<path d="M24.4702 19.6714C24.7507 19.6714 24.978 19.444 24.978 19.1636C24.978 18.8831 24.7507 18.6558 24.4702 18.6558C24.1898 18.6558 23.9624 18.8831 23.9624 19.1636C23.9624 19.444 24.1898 19.6714 24.4702 19.6714Z" fill="#83D5EF"/>
<path d="M16.6212 20.5594C15.985 21.1957 14.9516 21.1957 14.3154 20.5594C13.6783 19.9224 13.6791 18.8898 14.3154 18.2536C14.4879 18.0811 14.6893 17.9551 14.9043 17.8765C15.4828 17.6638 16.1567 17.789 16.6212 18.2536C17.085 18.7173 17.2109 19.3921 16.9983 19.9705C16.9197 20.1855 16.7937 20.3869 16.6212 20.5594Z" fill="#A583BB"/>
<path d="M16.994 19.97C17.3639 19.6001 17.1951 18.8315 16.617 18.2533C16.0388 17.6752 15.2702 17.5064 14.9003 17.8763C14.5304 18.2463 14.6992 19.0148 15.2773 19.593C15.8555 20.1712 16.6241 20.34 16.994 19.97Z" fill="#DECEE5"/>
<path d="M16.4985 19.4065C16.4985 19.8501 16.2171 20.2291 15.8234 20.3744C15.7122 20.414 15.5931 20.4368 15.4682 20.4368C14.8986 20.4368 14.438 19.975 14.438 19.4065C14.438 18.8368 14.8987 18.3762 15.4682 18.3762C15.5931 18.3762 15.7122 18.3989 15.8234 18.4386C16.2171 18.5838 16.4985 18.9617 16.4985 19.4065Z" fill="#3F5D77"/>
<path d="M15.8236 20.3745C16.1965 20.3745 16.4987 19.9412 16.4987 19.4066C16.4987 18.8721 16.1965 18.4387 15.8236 18.4387C15.4507 18.4387 15.1484 18.8721 15.1484 19.4066C15.1484 19.9412 15.4507 20.3745 15.8236 20.3745Z" fill="#2E3140"/>
<path d="M15.4673 19.6711C15.7477 19.6711 15.9751 19.4438 15.9751 19.1633C15.9751 18.8829 15.7477 18.6555 15.4673 18.6555C15.1868 18.6555 14.9595 18.8829 14.9595 19.1633C14.9595 19.4438 15.1868 19.6711 15.4673 19.6711Z" fill="#83D5EF"/>
<path d="M29.5121 30.9773V31.7875C29.5121 34.4257 27.373 36.5648 24.7348 36.5648H20.0004C18.1004 36.5648 16.5605 35.025 16.5605 33.1249V26.4796C16.5607 24.5796 18.1006 23.0398 20.0004 23.0398C21.9004 23.0398 23.4402 24.5804 23.4402 26.4796V31.3992C23.4402 32.1562 24.0535 32.7695 24.8105 32.7695H25.4004C26.1574 32.7695 26.7707 32.1562 26.7707 31.3992V30.9773C26.7707 30.5984 26.9238 30.2562 27.1723 30.0085C28.0156 29.1525 29.5167 29.7591 29.5121 30.9773Z" fill="#C2AACF"/>
<path d="M28.1407 29.607V30.925C28.1407 32.647 26.7448 34.0429 25.0228 34.0429H23.1179C21.3959 34.0429 20 32.647 20 30.925V23.0398C21.9 23.0398 23.4398 24.5804 23.4398 26.4796V31.3992C23.4398 32.156 24.0534 32.7695 24.8102 32.7695H25.4C26.1568 32.7695 26.7703 32.156 26.7703 31.3992V30.9773C26.77 30.2203 27.3848 29.6071 28.1407 29.607Z" fill="#DECEE5"/>
<path d="M21.5458 31.9107L21.2611 31.7932C20.8577 31.6265 20.4297 31.5431 20.0011 31.5431C19.5726 31.5431 19.1446 31.6265 18.7412 31.7932L18.4565 31.9107C18.1432 32.0405 17.8584 31.6741 18.0615 31.4016L18.6322 30.6374C18.974 30.1797 19.4876 29.9514 20.0012 29.9514C20.5148 29.9514 21.0284 30.1797 21.3703 30.6374L21.941 31.4016C22.144 31.6741 21.8592 32.0405 21.5458 31.9107Z" fill="#A583BB"/>
<path d="M21.5457 31.9107L21.2609 31.7932C20.8575 31.6265 20.4934 31.5431 20.0648 31.5431L20.001 29.9514C20.5146 29.9514 21.0282 30.1797 21.37 30.6374L21.9407 31.4016C22.1438 31.6741 21.859 32.0405 21.5457 31.9107Z" fill="#C2AACF"/>
<path d="M21.7972 29.5262L21.466 29.3896C20.9968 29.1957 20.4989 29.0986 20.0003 29.0986C19.5018 29.0986 19.0039 29.1956 18.5347 29.3896L18.2035 29.5262C17.839 29.6772 17.5078 29.2509 17.744 28.9339L18.4078 28.045C18.8055 27.5126 19.4029 27.2471 20.0003 27.2471C20.5978 27.2471 21.1953 27.5126 21.5928 28.045L22.2567 28.9339C22.4929 29.2509 22.1617 29.6771 21.7972 29.5262Z" fill="#A583BB"/>
<path d="M21.7969 29.5262L21.4656 29.3896C20.9964 29.1957 20.4985 29.0986 20 29.0986V27.2471C20.5974 27.2471 21.1949 27.5126 21.5925 28.045L22.2563 28.9339C22.4926 29.2509 22.1613 29.6771 21.7969 29.5262Z" fill="#C2AACF"/>
<path d="M22.1578 26.9779L21.7601 26.8138C21.1969 26.581 20.5992 26.4646 20.0008 26.4646C19.4023 26.4646 18.8047 26.581 18.2414 26.8138L17.8437 26.9779C17.4062 27.1591 17.0086 26.6474 17.2922 26.2669L18.089 25.1998C18.5664 24.5607 19.2836 24.2419 20.0008 24.2419C20.718 24.2419 21.4351 24.5607 21.9125 25.1998L22.7094 26.2669C22.993 26.6474 22.5953 27.1591 22.1578 26.9779Z" fill="#A583BB"/>
<path d="M22.158 26.9779L21.7603 26.8138C21.1971 26.581 20.5994 26.4646 20.001 26.4646V24.2419C20.7182 24.2419 21.4354 24.5607 21.9127 25.1998L22.7096 26.2669C22.9932 26.6474 22.5955 27.1591 22.158 26.9779Z" fill="#C2AACF"/>
<path d="M22.3905 23.9688L21.95 23.787C21.3259 23.529 20.6637 23.4001 20.0007 23.4001C19.3376 23.4001 18.6754 23.5291 18.0514 23.787L17.6108 23.9688C17.1261 24.1695 16.6855 23.6026 16.9997 23.1811L17.8826 21.9988C18.4115 21.2906 19.2061 20.9375 20.0007 20.9375C20.7953 20.9375 21.5899 21.2906 22.1187 21.9987L23.0016 23.181C23.3158 23.6027 22.8753 24.1696 22.3905 23.9688Z" fill="#A583BB"/>
<path d="M22.3908 23.9688L21.9503 23.787C21.3262 23.529 20.664 23.4001 20.001 23.4001V20.9375C20.7956 20.9375 21.5902 21.2906 22.119 21.9987L23.0019 23.181C23.3161 23.6027 22.8756 24.1696 22.3908 23.9688Z" fill="#C2AACF"/>
<path d="M25.7678 25.4047C25.7678 25.4414 25.7662 25.4789 25.7623 25.5164L25.3053 30.2828C25.2803 30.5445 25.149 30.7727 24.9561 30.925C24.7959 31.0531 24.5936 31.1281 24.3748 31.1281C23.8592 31.1281 23.4404 30.7094 23.4404 30.1937V25.4055C23.4404 24.7633 23.9615 24.2422 24.6037 24.2422C24.817 24.2422 25.0162 24.2992 25.1865 24.3977C25.5357 24.6008 25.7678 24.9781 25.7678 25.4047Z" fill="white"/>
<path d="M25.7681 25.4047C25.7681 25.4415 25.7665 25.479 25.7626 25.5165L25.3056 30.2829C25.2806 30.5446 25.1493 30.7727 24.9563 30.925C24.7415 30.7532 24.604 30.4899 24.604 30.1938V25.4055C24.604 24.975 24.8384 24.5985 25.1868 24.3977C25.536 24.6008 25.7681 24.9782 25.7681 25.4047Z" fill="#F4E6F4"/>
<path d="M14.2329 25.4047C14.2329 25.4414 14.2345 25.4789 14.2384 25.5164L14.6954 30.2828C14.7204 30.5445 14.8517 30.7727 15.0446 30.925C15.2048 31.0531 15.4071 31.1281 15.6259 31.1281C16.1415 31.1281 16.5603 30.7094 16.5603 30.1937V25.4055C16.5603 24.7633 16.0392 24.2422 15.397 24.2422C15.1837 24.2422 14.9845 24.2992 14.8142 24.3977C14.4649 24.6008 14.2329 24.9781 14.2329 25.4047Z" fill="#F4E6F4"/>
<path d="M14.2329 25.4047C14.2329 25.4415 14.2345 25.479 14.2384 25.5165L14.6954 30.2829C14.7204 30.5446 14.8517 30.7727 15.0446 30.925C15.2595 30.7532 15.397 30.4899 15.397 30.1938V25.4055C15.397 24.975 15.1626 24.5985 14.8142 24.3977C14.4649 24.6008 14.2329 24.9782 14.2329 25.4047Z" fill="#EBD9EA"/>
<path d="M20 10.104H22.8984C24.7586 10.104 26.357 11.1087 27.2219 12.579L27.1992 12.6546C26.5468 14.829 24.5454 16.3181 22.2752 16.3181H20V10.104Z" fill="#EBD9EA"/>
<path d="M20.0002 10.104H17.1018C15.2416 10.104 13.6432 11.1087 12.7783 12.579L12.801 12.6546C13.4534 14.829 15.4548 16.3181 17.725 16.3181H20.0002V10.104Z" fill="#DECEE5"/>
</svg>
