<svg width="40" height="40" viewBox="0 0 40 40" fill="none" xmlns="http://www.w3.org/2000/svg">
<path d="M40 20C40 31.0458 31.0455 40 20 40C8.95416 40 0 31.0458 0 20C0 8.95447 8.95416 0 20 0C31.0455 0 40 8.95447 40 20Z" fill="#F73B6C"/>
<path d="M24.3477 4.34845C24.3477 6.26434 23.1086 7.89154 21.3878 8.47107C20.952 8.61786 20.485 8.6972 20.0001 8.6972C17.5984 8.6972 15.6514 6.75018 15.6514 4.34845C15.6514 1.94702 17.5984 0 20.0001 0C20.485 0 20.952 0.0790405 21.3878 0.226135C23.1086 0.805664 24.3477 2.43256 24.3477 4.34845Z" fill="#151A1C"/>
<path d="M24.3481 4.34839C24.3481 4.40729 24.3475 4.46619 24.345 4.52478C23.0395 3.86346 21.5637 3.49146 20.0005 3.49146H19.9996C19.486 3.49146 18.9816 3.53143 18.4902 3.60986C18.7612 2.02203 19.8934 0.729004 21.3882 0.226074C23.1091 0.805603 24.3481 2.4325 24.3481 4.34839Z" fill="#2F373B"/>
<path d="M29.8531 35.1234V37.4082C28.6785 38.0735 27.4303 38.6252 26.1226 39.0439C25.9871 39.0882 25.8516 39.1297 25.7143 39.1706C25.2059 39.3226 24.6883 39.4547 24.1634 39.5649C23.933 39.6137 23.702 39.6589 23.4694 39.6989C22.3421 39.8972 21.183 40.0001 20.0002 40.0001C18.8173 40.0001 17.658 39.8972 16.5306 39.6995C16.2981 39.6595 16.0671 39.6146 15.837 39.5658C15.2269 39.4367 14.6288 39.2798 14.041 39.097C14.0084 39.0864 13.9757 39.0766 13.9431 39.0662C13.9208 39.0595 13.8997 39.0522 13.8777 39.0449C12.5707 38.6262 11.3216 38.0744 10.147 37.4082V35.1234C10.147 32.3664 11.6475 29.9601 13.8777 28.6774C14.4481 28.3484 15.0661 28.0939 15.7192 27.9264C15.7585 27.916 15.7976 27.9069 15.837 27.8971C16.205 27.8083 16.5837 27.7469 16.9716 27.7158C17.1724 27.6996 17.3748 27.6914 17.5795 27.6914H22.4196C22.9918 27.6914 23.5488 27.7552 24.0834 27.8776C24.1103 27.884 24.1371 27.8898 24.1634 27.8962C24.2025 27.9053 24.2418 27.9151 24.28 27.9258C24.933 28.0939 25.5519 28.3484 26.1226 28.6774C28.3519 29.9607 29.8531 32.3673 29.8531 35.1234Z" fill="#0C85A5"/>
<path d="M29.8529 35.1234V37.4082C26.9452 39.058 23.5828 40.0001 20 40.0001C17.8882 40.0001 15.8539 39.6726 13.9429 39.0662V35.1234C13.9429 31.0187 17.2711 27.6914 21.3763 27.6914H22.4194C26.5256 27.6914 29.8529 31.0187 29.8529 35.1234Z" fill="#1DA2DD"/>
<path d="M24.28 27.9258L24.0728 28.7861L22.1862 36.6352L21.5872 39.1248H18.4115L15.7192 27.9264C15.7586 27.916 15.7977 27.9069 15.837 27.8971C16.2051 27.8083 16.5838 27.7469 16.9717 27.7158C17.1725 27.6996 17.3748 27.6914 17.5796 27.6914H22.4197C22.9919 27.6914 23.5488 27.7552 24.0835 27.8776C24.1104 27.884 24.1372 27.8898 24.1635 27.8962C24.2025 27.9053 24.2419 27.9151 24.28 27.9258Z" fill="#FFE05C"/>
<path d="M22.6518 25.1934V27.7157L22.4861 28.4039L20.5986 36.253L19.9995 38.7426L17.3481 27.7157V25.1934C17.3481 23.1649 18.1334 21.4498 19.2158 20.8807C19.4633 20.7491 19.7276 20.679 20.0004 20.679C21.4647 20.679 22.6518 22.6995 22.6518 25.1934Z" fill="#EAA27F"/>
<path d="M22.4862 28.4038L20.5987 36.2529L19.0819 29.9468C18.8933 29.1597 19.4893 28.4038 20.2984 28.4038H22.4862Z" fill="#F6BA97"/>
<path d="M12.6061 19.4949C12.6061 20.7224 11.7092 21.7404 10.5352 21.9293C10.4067 21.9501 10.2748 21.9608 10.14 21.9608C8.77765 21.9608 7.67383 20.8572 7.67383 19.4949C7.67383 18.1326 8.77765 17.0288 10.14 17.0288C10.2748 17.0288 10.4067 17.0395 10.5352 17.0605C11.7092 17.2495 12.6061 18.2672 12.6061 19.4949Z" fill="#F6BA97"/>
<path d="M12.6059 19.4949C12.6059 20.7224 11.709 21.7404 10.535 21.9293C10.3217 21.1536 10.2075 20.3372 10.2075 19.4949C10.2075 18.6523 10.3214 17.836 10.535 17.0605C11.709 17.2495 12.6059 18.2672 12.6059 19.4949Z" fill="#EAA27F"/>
<path d="M11.021 19.4949C11.021 19.9817 10.6264 20.3763 10.1396 20.3763C9.65289 20.3763 9.2583 19.9817 9.2583 19.4949C9.2583 19.0082 9.65289 18.6133 10.1396 18.6133C10.6264 18.6133 11.021 19.0082 11.021 19.4949Z" fill="#EAA27F"/>
<path d="M27.3936 19.4949C27.3936 20.7224 28.2902 21.7404 29.4645 21.9293C29.5927 21.9501 29.7248 21.9608 29.8594 21.9608C31.2217 21.9608 32.3255 20.8572 32.3255 19.4949C32.3255 18.1326 31.2217 17.0288 29.8594 17.0288C29.7248 17.0288 29.5927 17.0395 29.4645 17.0605C28.2902 17.2495 27.3936 18.2672 27.3936 19.4949Z" fill="#F6BA97"/>
<path d="M27.3936 19.4949C27.3936 20.7224 28.2902 21.7404 29.4645 21.9293C29.6778 21.1536 29.7916 20.3372 29.7916 19.4949C29.7916 18.6523 29.6778 17.836 29.4645 17.0605C28.2902 17.2495 27.3936 18.2672 27.3936 19.4949Z" fill="#EAA27F"/>
<path d="M30.7412 19.4949C30.7412 19.9817 30.3466 20.3763 29.8599 20.3763C29.3731 20.3763 28.9785 19.9817 28.9785 19.4949C28.9785 19.0082 29.3731 18.6133 29.8599 18.6133C30.3466 18.6133 30.7412 19.0082 30.7412 19.4949Z" fill="#EAA27F"/>
<path d="M29.1749 14.6906V18.1845C29.1749 22.7502 25.8394 26.5378 21.4723 27.2409C21.4573 27.2433 21.4421 27.2458 21.4271 27.2482C20.9626 27.3224 20.486 27.359 19.9995 27.359C14.9327 27.359 10.8247 23.2513 10.8247 18.1845V14.6906C10.8247 13.6237 11.0069 12.5983 11.3432 11.6458C12.5978 8.07495 16.0002 5.51514 19.9995 5.51514H20.0004C20.486 5.51514 20.9636 5.55267 21.429 5.62622C25.8174 6.31195 29.1749 10.1093 29.1749 14.6906Z" fill="#EAA27F"/>
<path d="M29.175 14.6906V18.1845C29.175 22.7502 25.8394 26.5378 21.4724 27.2409C21.4574 27.2433 21.4421 27.2458 21.4272 27.2482C17.0388 26.5625 13.6821 22.7649 13.6821 18.1845V14.6906C13.6821 10.1093 17.0397 6.31195 21.429 5.62622C25.8174 6.31195 29.175 10.1093 29.175 14.6906Z" fill="#F6BA97"/>
<path d="M26.2448 20.5936C26.2448 21.2247 25.733 21.7361 25.1019 21.7361C24.4705 21.7361 23.959 21.2247 23.959 20.5936C23.959 19.9622 24.4705 19.4507 25.1019 19.4507C25.733 19.4507 26.2448 19.9622 26.2448 20.5936Z" fill="#EAA27F"/>
<path d="M16.0406 20.5936C16.0406 21.2247 15.5289 21.7361 14.8978 21.7361C14.2667 21.7361 13.7549 21.2247 13.7549 20.5936C13.7549 19.9622 14.2667 19.4507 14.8978 19.4507C15.5289 19.4507 16.0406 19.9622 16.0406 20.5936Z" fill="#EAA27F"/>
<path d="M24.9272 17.4098C24.9272 16.5681 24.2448 15.8857 23.4031 15.8857C22.5618 15.8857 21.8794 16.5681 21.8794 17.4098" fill="#EAA27F"/>
<path d="M18.121 17.4098C18.121 16.5681 17.4387 15.8857 16.597 15.8857C15.7556 15.8857 15.0732 16.5681 15.0732 17.4098" fill="#EAA27F"/>
<path d="M17.6378 18.0585C17.6378 18.6332 17.1718 19.0992 16.5968 19.0992C16.0222 19.0992 15.5562 18.6332 15.5562 18.0585C15.5562 17.4836 16.0222 17.0176 16.5968 17.0176C17.1718 17.0176 17.6378 17.4836 17.6378 18.0585Z" fill="#2F373B"/>
<path d="M24.4439 18.0585C24.4439 18.6332 23.9779 19.0992 23.403 19.0992C22.8283 19.0992 22.3623 18.6332 22.3623 18.0585C22.3623 17.4836 22.8283 17.0176 23.403 17.0176C23.9779 17.0176 24.4439 17.4836 24.4439 18.0585Z" fill="#2F373B"/>
<path d="M21.0408 20.6789H18.9592C18.7111 20.6789 18.5103 20.4778 18.5103 20.2297C18.5103 19.9819 18.7111 19.7808 18.9592 19.7808H21.0408C21.2889 19.7808 21.4897 19.9819 21.4897 20.2297C21.4897 20.4778 21.2889 20.6789 21.0408 20.6789Z" fill="#EAA27F"/>
<path d="M19.9996 23.5195C19.2315 23.5195 18.4631 23.3269 17.763 22.9418C17.5653 22.8335 17.4932 22.5851 17.6019 22.3876C17.7105 22.1902 17.9586 22.1182 18.1561 22.2265C19.3106 22.8613 20.689 22.8613 21.8432 22.2265C22.0406 22.1182 22.2891 22.1899 22.3977 22.3876C22.5063 22.5851 22.434 22.8335 22.2366 22.9418C21.5362 23.3269 20.7681 23.5195 19.9996 23.5195Z" fill="#EAA27F"/>
<path d="M17.4254 17.8749C17.4254 18.1212 17.2258 18.3207 16.9796 18.3207C16.7333 18.3207 16.5337 18.1212 16.5337 17.8749C16.5337 17.6286 16.7333 17.4287 16.9796 17.4287C17.2258 17.4287 17.4254 17.6286 17.4254 17.8749Z" fill="white"/>
<path d="M24.2828 17.8749C24.2828 18.1212 24.0833 18.3207 23.837 18.3207C23.5907 18.3207 23.3911 18.1212 23.3911 17.8749C23.3911 17.6286 23.5907 17.4287 23.837 17.4287C24.0833 17.4287 24.2828 17.6286 24.2828 17.8749Z" fill="white"/>
<path d="M19.9998 4.34839C14.6799 4.34839 10.3672 8.66113 10.3672 13.9813V15.505H29.6326V13.9813C29.6326 8.66113 25.3199 4.34839 19.9998 4.34839Z" fill="#2F373B"/>
<path d="M19.9998 4.34839C17.0838 4.34839 14.7208 8.66113 14.7208 13.9813V15.5053H10.3672V13.9813C10.3672 8.66113 14.6799 4.34839 19.9998 4.34839Z" fill="#151A1C"/>
<path d="M29.6326 15.5051V27.532L26.9663 14.3079" fill="#2F373B"/>
<path d="M10.3672 15.5051V27.532L13.0335 14.3079" fill="#151A1C"/>
<path d="M31.517 21.7742C31.517 22.1615 31.203 22.4755 30.8157 22.4755C30.4285 22.4755 30.1147 22.1615 30.1147 21.7742C30.1147 21.387 30.4285 21.0732 30.8157 21.0732C31.203 21.0732 31.517 21.387 31.517 21.7742Z" fill="#FFE05C"/>
<path d="M9.88568 21.7742C9.88568 22.1615 9.57166 22.4755 9.18439 22.4755C8.79712 22.4755 8.4834 22.1615 8.4834 21.7742C8.4834 21.387 8.79712 21.0732 9.18439 21.0732C9.57166 21.0732 9.88568 21.387 9.88568 21.7742Z" fill="#FFE05C"/>
</svg>
