<svg width="40" height="40" viewBox="0 0 40 40" fill="none" xmlns="http://www.w3.org/2000/svg">
<path d="M40 20C40 31.0458 31.0458 40 20 40C8.95416 40 0 31.0458 0 20C0 8.95416 8.95416 0 20 0C31.0458 0 40 8.95416 40 20Z" fill="#F73B6C"/>
<path d="M29.8534 35.1234V37.4082C26.9454 39.058 23.5829 40.0001 20.0002 40.0001C17.8884 40.0001 15.8541 39.6726 13.9431 39.0662C12.6125 38.6442 11.3414 38.0857 10.147 37.4082V35.1234C10.147 31.2235 13.1505 28.0244 16.9716 27.7158C17.1724 27.6996 17.3748 27.6914 17.5798 27.6914H22.4199C22.9921 27.6914 23.5488 27.7552 24.0834 27.8776C27.3879 28.6335 29.8534 31.5909 29.8534 35.1234Z" fill="#9FC2CC"/>
<path d="M29.8534 35.1234V37.4082C27.4495 38.7723 24.735 39.6522 21.8419 39.9152C21.2355 39.9714 20.6209 40.0001 20.0005 40.0001C19.3792 40.0001 18.7645 39.9714 18.1578 39.9158C16.7025 39.7828 15.2919 39.4938 13.9434 39.0662V35.1234C13.9434 31.0187 17.2713 27.6914 21.3768 27.6914H22.4199C26.5261 27.6914 29.8534 31.0187 29.8534 35.1234Z" fill="#C1DCE5"/>
<path d="M21.9954 30.373L20.0001 33.5731L18.0049 30.373" fill="#2F373B"/>
<path d="M21.8418 39.9152C21.2354 39.9713 20.6208 40 20.0004 40C19.379 40 18.7644 39.9713 18.1577 39.9158L20.0004 32.7405L21.8418 39.9152Z" fill="#2F373B"/>
<path d="M19.9993 30.734L16.6533 32.5934L15.6353 27.8589L17.7144 26.6343" fill="#9FC2CC"/>
<path d="M19.9995 30.734L23.3455 32.5934L24.3635 27.8589L22.2844 26.6343" fill="#9FC2CC"/>
<path d="M22.6518 24.8281V28.0825C22.6518 29.2739 21.8663 30.2807 20.7841 30.6152C20.5366 30.6921 20.2726 30.7339 19.9995 30.7339C18.5353 30.7339 17.3481 29.5468 17.3481 28.0825V24.8281H22.6518Z" fill="#EAA27F"/>
<path d="M22.6519 27.8762V28.0825C22.6519 29.2739 21.8663 30.281 20.7842 30.6155C19.8079 30.3152 19.074 29.4665 18.9385 28.4277C19.1155 28.4387 19.2937 28.4442 19.4725 28.4442C19.9742 28.4442 20.4662 28.4042 20.9453 28.3254C21.5355 28.2305 22.1059 28.0789 22.6519 27.8762Z" fill="#F6BA97"/>
<path d="M23.0205 34.8792H27.0204V36.1035H23.0205V34.8792Z" fill="#9FC2CC"/>
<path d="M27.2734 19.4949C27.2734 20.7227 28.17 21.7404 29.3444 21.9293C29.4728 21.9501 29.6047 21.9611 29.7396 21.9611C31.1019 21.9611 32.2054 20.8572 32.2054 19.4949C32.2054 18.1326 31.1019 17.0288 29.7396 17.0288C29.6047 17.0288 29.4728 17.0398 29.3444 17.0605C28.17 17.2495 27.2734 18.2672 27.2734 19.4949Z" fill="#F6BA97"/>
<path d="M27.2734 19.4949C27.2734 20.7227 28.17 21.7404 29.3444 21.9293C29.5577 21.1536 29.6718 20.3375 29.6718 19.4949C29.6718 18.6523 29.558 17.8363 29.3444 17.0605C28.17 17.2495 27.2734 18.2672 27.2734 19.4949Z" fill="#EAA27F"/>
<path d="M30.6211 19.4949C30.6211 19.9816 30.2265 20.3762 29.7397 20.3762C29.253 20.3762 28.8584 19.9816 28.8584 19.4949C28.8584 19.0081 29.253 18.6135 29.7397 18.6135C30.2265 18.6135 30.6211 19.0081 30.6211 19.4949Z" fill="#EAA27F"/>
<path d="M12.7257 19.4949C12.7257 20.7227 11.8288 21.7404 10.6545 21.9293C10.5263 21.9501 10.3942 21.9611 10.2596 21.9611C8.89728 21.9611 7.79346 20.8572 7.79346 19.4949C7.79346 18.1326 8.89728 17.0288 10.2596 17.0288C10.3942 17.0288 10.5263 17.0398 10.6545 17.0605C11.8288 17.2495 12.7257 18.2672 12.7257 19.4949Z" fill="#F6BA97"/>
<path d="M12.7255 19.4949C12.7255 20.7227 11.8286 21.7404 10.6543 21.9293C10.441 21.1536 10.3271 20.3375 10.3271 19.4949C10.3271 18.6523 10.441 17.8363 10.6543 17.0605C11.8286 17.2495 12.7255 18.2672 12.7255 19.4949Z" fill="#EAA27F"/>
<path d="M11.1406 19.4949C11.1406 19.9816 10.746 20.3762 10.2593 20.3762C9.77252 20.3762 9.37793 19.9816 9.37793 19.4949C9.37793 19.0081 9.77252 18.6135 10.2593 18.6135C10.746 18.6135 11.1406 19.0081 11.1406 19.4949Z" fill="#EAA27F"/>
<path d="M29.3446 17.0602L29.1746 18.1845C29.1746 22.5525 26.1216 26.2088 22.0326 27.1323C21.8474 27.1738 21.6606 27.2104 21.472 27.2406C21.4573 27.243 21.4418 27.2455 21.4271 27.2482C20.9626 27.3224 20.4857 27.359 19.9992 27.359C19.3004 27.359 18.6204 27.2809 17.9667 27.1329C13.8777 26.2082 10.8244 22.5525 10.8244 18.1845L10.6538 17.0602C10.6538 15.9933 11.0066 12.5983 11.3429 11.6455C12.5975 8.07495 16.0002 5.51514 19.9992 5.51514H20.0001C20.4857 5.51514 20.9633 5.55267 21.4286 5.62592C25.8171 6.31165 29.3446 12.4792 29.3446 17.0602Z" fill="#151A1C"/>
<path d="M28.3589 14.6906V18.1846C28.3589 20.1829 27.6421 22.1158 26.3423 23.6295C25.6972 24.3793 24.9294 25.0046 24.0801 25.4795C23.7993 25.6367 23.4899 25.7419 23.1694 25.7709C22.5179 25.8298 21.8584 25.626 21.3604 25.1765C20.9996 24.8524 20.5229 24.6546 19.9996 24.6546C19.4762 24.6546 18.9995 24.8524 18.6388 25.1765C18.1972 25.5756 17.6281 25.7813 17.0504 25.7813C17.0473 25.7813 17.0446 25.7813 17.0415 25.7813C16.6429 25.7798 16.2526 25.6653 15.9056 25.4694C13.3617 24.0351 11.6411 21.3071 11.6411 18.1846V14.6906C11.6411 13.7372 11.7995 12.804 12.1132 11.9175C13.1661 8.92004 15.8248 6.80487 18.9189 6.40173C19.2739 6.35504 19.6346 6.33154 19.9996 6.33154C20.4387 6.33154 20.8773 6.36572 21.3018 6.43256C23.2494 6.73712 25.0347 7.73047 26.3295 9.23102C27.6381 10.7468 28.3589 12.6856 28.3589 14.6906Z" fill="#EAA27F"/>
<path d="M28.3589 14.6906V18.1846C28.3589 20.1829 27.6421 22.1158 26.3423 23.6295C25.6292 24.4587 24.7652 25.1356 23.8079 25.6254C22.972 25.9379 22.0232 25.7746 21.3604 25.1765C20.9996 24.8524 20.5229 24.6546 19.9996 24.6546C19.4762 24.6546 18.9995 24.8524 18.6388 25.1765C18.3425 25.4441 17.9891 25.6245 17.6134 25.7142C15.2364 24.0565 13.6821 21.3019 13.6821 18.1846V14.6906C13.6821 11.0334 15.8217 7.87512 18.9189 6.40173C19.2739 6.35504 19.6346 6.33154 19.9996 6.33154C20.4387 6.33154 20.8773 6.36572 21.3018 6.43256C23.2494 6.73712 25.0347 7.73047 26.3295 9.23102C27.6381 10.7468 28.3589 12.6856 28.3589 14.6906Z" fill="#F6BA97"/>
<path d="M19.9989 22.7032C19.2305 22.7032 18.4623 22.5106 17.762 22.1258C17.5645 22.0172 17.4922 21.7691 17.6008 21.5716C17.7095 21.3738 17.9576 21.3018 18.1553 21.4105C19.3095 22.0452 20.688 22.0449 21.8425 21.4105C22.0399 21.3018 22.288 21.3738 22.3967 21.5716C22.5053 21.7691 22.4333 22.0172 22.2355 22.1258C21.5355 22.5106 20.767 22.7032 19.9989 22.7032Z" fill="#EAA27F"/>
<path d="M21.0403 20.2709H18.9587C18.7109 20.2709 18.5098 20.0698 18.5098 19.8217C18.5098 19.5739 18.7109 19.3728 18.9587 19.3728H21.0403C21.2884 19.3728 21.4895 19.5739 21.4895 19.8217C21.4895 20.0698 21.2884 20.2709 21.0403 20.2709Z" fill="#EAA27F"/>
<path d="M18.0455 17.65C18.0455 18.225 17.5795 18.691 17.0045 18.691C16.4299 18.691 15.9639 18.225 15.9639 17.65C15.9639 17.0754 16.4299 16.6094 17.0045 16.6094C17.5795 16.6094 18.0455 17.0754 18.0455 17.65Z" fill="#2F373B"/>
<path d="M24.0352 17.65C24.0352 18.225 23.5692 18.691 22.9943 18.691C22.4196 18.691 21.9536 18.225 21.9536 17.65C21.9536 17.0754 22.4196 16.6094 22.9943 16.6094C23.5692 16.6094 24.0352 17.0754 24.0352 17.65Z" fill="#2F373B"/>
<path d="M17.8331 17.4664C17.8331 17.7126 17.6335 17.9125 17.3873 17.9125C17.141 17.9125 16.9414 17.7126 16.9414 17.4664C16.9414 17.2201 17.141 17.0205 17.3873 17.0205C17.6335 17.0205 17.8331 17.2201 17.8331 17.4664Z" fill="white"/>
<path d="M23.8745 17.4664C23.8745 17.7126 23.6746 17.9125 23.4283 17.9125C23.182 17.9125 22.9824 17.7126 22.9824 17.4664C22.9824 17.2201 23.182 17.0205 23.4283 17.0205C23.6746 17.0205 23.8745 17.2201 23.8745 17.4664Z" fill="white"/>
<path d="M18.3702 11.2515L15.4857 10.6107C14.3401 10.3561 13.2115 11.1032 12.9988 12.2577L12.5609 14.6347C12.3635 15.7077 11.6506 16.6147 10.6548 17.0605V11.9678C10.6548 7.69226 14.121 4.22607 18.3968 4.22607H21.6042C25.88 4.22607 29.3462 7.69226 29.3462 11.9678V17.0605L28.9501 16.8832C28.2024 16.5485 27.6668 15.8673 27.5185 15.0613L27.0018 12.2577C26.7891 11.1032 25.6609 10.3558 24.515 10.6107L21.6304 11.2515C20.5568 11.4902 19.4442 11.4902 18.3702 11.2515Z" fill="#2F373B"/>
<path d="M21.8367 4.22943C18.1157 4.3396 15.0539 7.07581 14.4408 10.6488C13.7215 10.8643 13.1444 11.4651 12.9982 12.258L12.4819 15.0613C12.3336 15.867 11.798 16.5485 11.0503 16.8832L10.6548 17.0602V11.9681C10.6548 7.69226 14.121 4.22607 18.3968 4.22607H21.6042C21.6814 4.22607 21.7589 4.22699 21.8367 4.22943Z" fill="#151A1C"/>
</svg>
