<svg width="40" height="40" viewBox="0 0 40 40" fill="none" xmlns="http://www.w3.org/2000/svg">
<path d="M40 20C40 31.0455 31.0455 40 20 40C8.95416 40 0 31.0455 0 20C0 8.95416 8.95416 0 20 0C31.0455 0 40 8.95416 40 20Z" fill="#1DA2DD"/>
<path d="M12.8662 3.77441L26.9522 0.209961L27.1326 0.922241L13.0466 4.48669L12.8662 3.77441Z" fill="#FFE05C"/>
<path d="M26.9542 4.48694L12.8682 0.922485L13.0485 0.210205L27.1342 3.77466L26.9542 4.48694Z" fill="#FFE05C"/>
<path d="M23.4291 3.47748C23.4291 5.04059 22.3832 6.35895 20.9532 6.77216C20.6511 6.85944 20.3309 6.90613 20.0004 6.90613C18.1065 6.90613 16.5718 5.3714 16.5718 3.47748C16.5718 1.58447 18.1065 0.0488281 20.0004 0.0488281C20.3309 0.0488281 20.6511 0.09552 20.9532 0.1828C22.3832 0.595703 23.4291 1.91498 23.4291 3.47748Z" fill="#151A1C"/>
<path d="M23.4288 3.47754C23.4288 3.60907 23.4214 3.73877 23.4065 3.86603C22.8288 3.72717 22.2245 3.65454 21.6041 3.65454H18.481C18.4776 3.59595 18.4761 3.53705 18.4761 3.47754C18.4761 1.91504 19.5225 0.595764 20.9529 0.182861C22.3829 0.595764 23.4288 1.91504 23.4288 3.47754Z" fill="#2F373B"/>
<path d="M29.8531 35.1234V37.4082C26.9451 39.058 23.5826 40.0001 19.9999 40.0001C17.8881 40.0001 15.8538 39.6726 13.9427 39.0662C12.6122 38.6442 11.3411 38.0857 10.147 37.4082V35.1234C10.147 31.2238 13.1502 28.0247 16.9713 27.7161C17.1721 27.6996 17.3745 27.6914 17.5795 27.6914H22.4196C22.9918 27.6914 23.5485 27.7552 24.0831 27.8776C27.3876 28.6335 29.8531 31.5912 29.8531 35.1234Z" fill="#512375"/>
<path d="M29.8529 35.1234V37.4082C28.0774 38.4156 26.1331 39.1593 24.0717 39.5844C22.9175 39.8237 21.7264 39.9631 20.5084 39.9933C20.3397 39.9976 20.1697 40.0001 20 40.0001C17.8882 40.0001 15.8539 39.6726 13.9429 39.0662V35.1234C13.9429 34.5966 13.9975 34.0824 14.1019 33.5868C14.3143 32.5748 14.733 31.6392 15.3119 30.8243C16.6586 28.9283 18.8733 27.6914 21.3763 27.6914H22.4194C26.5256 27.6914 29.8529 31.0187 29.8529 35.1234Z" fill="#673389"/>
<path d="M24.2722 27.9233V28.5935C24.2722 30.9525 22.3593 32.8654 20.0003 32.8654H19.9994C18.1415 32.8654 16.5594 31.6782 15.9726 30.0211C15.8142 29.5746 15.7275 29.0946 15.7275 28.5935V27.924C16.1301 27.8202 16.5457 27.75 16.9717 27.7158C17.1725 27.6996 17.3749 27.6914 17.58 27.6914H22.4197C22.9922 27.6914 23.5489 27.7549 24.0836 27.8776C24.1464 27.8922 24.2102 27.9069 24.2722 27.9233Z" fill="#F6BA97"/>
<path d="M21.3766 27.6914C19.2477 27.6914 17.3276 28.5868 15.9726 30.0211C15.8142 29.5746 15.7275 29.0946 15.7275 28.5935V27.924C16.1301 27.8202 16.5457 27.75 16.9717 27.7158C17.1725 27.6996 17.3749 27.6914 17.58 27.6914H21.3766Z" fill="#EAA27F"/>
<path d="M22.6513 24.8281V28.0825C22.6513 29.2739 21.8658 30.281 20.7836 30.6155C20.5361 30.6921 20.2722 30.7339 19.999 30.7339C18.5348 30.7339 17.3477 29.5468 17.3477 28.0825V24.8281H22.6513Z" fill="#EAA27F"/>
<path d="M22.6514 27.8762V28.0825C22.6514 29.2739 21.8658 30.281 20.7837 30.6155C19.8074 30.3152 19.0735 29.4665 18.938 28.4277C19.115 28.4387 19.2932 28.4442 19.472 28.4442C19.9738 28.4442 20.4657 28.4042 20.9448 28.3257C21.535 28.2308 22.1054 28.0789 22.6514 27.8762Z" fill="#F6BA97"/>
<path d="M12.7254 19.4949C12.7254 20.7224 11.8288 21.7404 10.6545 21.9293C10.5263 21.9501 10.3942 21.9608 10.2596 21.9608C8.89728 21.9608 7.79346 20.8572 7.79346 19.4949C7.79346 18.1326 8.89728 17.0288 10.2596 17.0288C10.3942 17.0288 10.5263 17.0395 10.6545 17.0605C11.8288 17.2495 12.7254 18.2672 12.7254 19.4949Z" fill="#F6BA97"/>
<path d="M12.7252 19.4949C12.7252 20.7224 11.8286 21.7404 10.6543 21.9293C10.441 21.1536 10.3271 20.3372 10.3271 19.4949C10.3271 18.6523 10.441 17.836 10.6543 17.0605C11.8286 17.2495 12.7252 18.2672 12.7252 19.4949Z" fill="#EAA27F"/>
<path d="M11.1406 19.4949C11.1406 19.9817 10.746 20.3763 10.2593 20.3763C9.77252 20.3763 9.37793 19.9817 9.37793 19.4949C9.37793 19.0082 9.77252 18.6133 10.2593 18.6133C10.746 18.6133 11.1406 19.0082 11.1406 19.4949Z" fill="#EAA27F"/>
<path d="M27.2734 19.4949C27.2734 20.7224 28.17 21.7404 29.3444 21.9293C29.4728 21.9501 29.6047 21.9608 29.7396 21.9608C31.1019 21.9608 32.2054 20.8572 32.2054 19.4949C32.2054 18.1326 31.1019 17.0288 29.7396 17.0288C29.6047 17.0288 29.4728 17.0395 29.3444 17.0605C28.17 17.2495 27.2734 18.2672 27.2734 19.4949Z" fill="#F6BA97"/>
<path d="M27.2734 19.4949C27.2734 20.7224 28.17 21.7404 29.3444 21.9293C29.5577 21.1536 29.6718 20.3372 29.6718 19.4949C29.6718 18.6523 29.558 17.836 29.3444 17.0605C28.17 17.2495 27.2734 18.2672 27.2734 19.4949Z" fill="#EAA27F"/>
<path d="M29.1746 14.6906V18.1845C29.1746 22.7502 25.8394 26.5378 21.472 27.2409C21.4573 27.2433 21.4418 27.2458 21.4271 27.2482C20.9626 27.3224 20.4857 27.359 19.9992 27.359C14.9324 27.359 10.8247 23.2513 10.8247 18.1845V14.6906C10.8247 13.6237 11.0066 12.5983 11.3429 11.6458C12.5978 8.07495 16.0002 5.51514 19.9992 5.51514H20.0001C20.4857 5.51514 20.9633 5.55267 21.4286 5.62622C25.8171 6.31195 29.1746 10.1093 29.1746 14.6906Z" fill="#EAA27F"/>
<path d="M30.6211 19.4949C30.6211 19.9817 30.2265 20.3763 29.7397 20.3763C29.253 20.3763 28.8584 19.9817 28.8584 19.4949C28.8584 19.0082 29.253 18.6133 29.7397 18.6133C30.2265 18.6133 30.6211 19.0082 30.6211 19.4949Z" fill="#EAA27F"/>
<path d="M29.1745 14.6906V18.1845C29.1745 22.7502 25.8392 26.5378 21.4719 27.2409C21.4572 27.2433 21.4417 27.2458 21.427 27.2482C17.0383 26.5625 13.6816 22.7649 13.6816 18.1845V14.6906C13.6816 10.1093 17.0392 6.31195 21.4285 5.62622C25.817 6.31195 29.1745 10.1093 29.1745 14.6906Z" fill="#F6BA97"/>
<path d="M19.9997 22.7035C19.2313 22.7035 18.4632 22.5109 17.7628 22.1261C17.5654 22.0174 17.4933 21.7693 17.6017 21.5716C17.7103 21.3741 17.9587 21.3021 18.1562 21.4107C19.3107 22.0452 20.6888 22.0452 21.8433 21.4107C22.0408 21.3021 22.2889 21.3741 22.3975 21.5716C22.5062 21.7693 22.4341 22.0174 22.2367 22.1261C21.5363 22.5109 20.7679 22.7035 19.9997 22.7035Z" fill="#EAA27F"/>
<path d="M21.0403 20.2706H18.9587C18.7109 20.2706 18.5098 20.0698 18.5098 19.8217C18.5098 19.5739 18.7109 19.3728 18.9587 19.3728H21.0403C21.2884 19.3728 21.4892 19.5739 21.4892 19.8217C21.4892 20.0698 21.2884 20.2706 21.0403 20.2706Z" fill="#EAA27F"/>
<path d="M18.0458 17.65C18.0458 18.225 17.5798 18.691 17.0048 18.691C16.4299 18.691 15.9639 18.225 15.9639 17.65C15.9639 17.0751 16.4299 16.6094 17.0048 16.6094C17.5798 16.6094 18.0458 17.0751 18.0458 17.65Z" fill="#2F373B"/>
<path d="M24.0352 17.65C24.0352 18.225 23.5692 18.691 22.9943 18.691C22.4193 18.691 21.9536 18.225 21.9536 17.65C21.9536 17.0751 22.4193 16.6094 22.9943 16.6094C23.5692 16.6094 24.0352 17.0751 24.0352 17.65Z" fill="#2F373B"/>
<path d="M17.8331 17.4664C17.8331 17.7126 17.6335 17.9125 17.3873 17.9125C17.141 17.9125 16.9414 17.7126 16.9414 17.4664C16.9414 17.2201 17.141 17.0205 17.3873 17.0205C17.6335 17.0205 17.8331 17.2201 17.8331 17.4664Z" fill="white"/>
<path d="M23.8745 17.4664C23.8745 17.7126 23.6749 17.9125 23.4286 17.9125C23.182 17.9125 22.9824 17.7126 22.9824 17.4664C22.9824 17.2201 23.182 17.0205 23.4286 17.0205C23.6749 17.0205 23.8745 17.2201 23.8745 17.4664Z" fill="white"/>
<path d="M18.3702 11.2515L15.4857 10.6107C14.3401 10.3558 13.2115 11.1032 12.9988 12.2577L12.2454 16.3486L10.6548 17.0605V11.9681C10.6548 7.69226 14.121 4.22607 18.3968 4.22607H21.6042C25.88 4.22607 29.3462 7.69226 29.3462 11.9681V17.0605L27.7556 16.3486L27.0021 12.2577C26.7894 11.1032 25.6609 10.3558 24.515 10.6107L21.6307 11.2515C20.5568 11.4902 19.4438 11.4902 18.3702 11.2515Z" fill="#2F373B"/>
<path d="M21.8367 4.22943C18.116 4.3396 15.0539 7.07581 14.4411 10.6488C13.7218 10.8643 13.1447 11.4651 12.9985 12.258L12.2451 16.3486L10.6548 17.0602V11.9681C10.6548 7.69226 14.121 4.22607 18.3962 4.22607H21.6042C21.6817 4.22607 21.7592 4.22699 21.8367 4.22943Z" fill="#151A1C"/>
</svg>
