<svg width="40" height="40" viewBox="0 0 40 40" fill="none" xmlns="http://www.w3.org/2000/svg">
<path d="M40 20C40 31.0458 31.0458 40 20 40C8.95416 40 0 31.0458 0 20C0 8.95416 8.95416 0 20 0C31.0458 0 40 8.95416 40 20Z" fill="#1DA2DD"/>
<path d="M29.8534 35.1234V37.4082C26.9454 39.058 23.5829 40.0001 20.0002 40.0001C17.8884 40.0001 15.8541 39.6726 13.9431 39.0662C12.6125 38.6442 11.3414 38.0857 10.147 37.4082V35.1234C10.147 31.2238 13.1505 28.0247 16.9716 27.7161C17.1724 27.6996 17.3748 27.6914 17.5798 27.6914H22.4199C22.9921 27.6914 23.5488 27.7552 24.0834 27.8776C27.3879 28.6335 29.8534 31.5909 29.8534 35.1234Z" fill="#EAA27F"/>
<path d="M29.8534 35.1234V37.4082C28.0779 38.4156 26.1336 39.1593 24.0721 39.5844C22.918 39.8237 21.7269 39.9631 20.5089 39.9933C20.3401 39.9976 20.1702 40.0001 20.0005 40.0001C17.8887 40.0001 15.8544 39.6726 13.9434 39.0662V35.1234C13.9434 34.5966 13.998 34.0824 14.1024 33.5868C14.3148 32.5745 14.7335 31.6392 15.3124 30.8243C16.6591 28.9283 18.8738 27.6914 21.3768 27.6914H22.4199C26.5261 27.6914 29.8534 31.0187 29.8534 35.1234Z" fill="#F6BA97"/>
<path d="M22.6518 24.8281V28.0825C22.6518 29.2739 21.8663 30.281 20.7841 30.6155C20.5363 30.6921 20.2723 30.7339 19.9995 30.7339C18.535 30.7339 17.3481 29.5468 17.3481 28.0825V24.8281H22.6518Z" fill="#EAA27F"/>
<path d="M22.6517 27.8762V28.0825C22.6517 29.2739 21.8661 30.281 20.784 30.6155C19.8077 30.3152 19.0738 29.4665 18.938 28.4277C19.1153 28.4387 19.2935 28.4442 19.4724 28.4442C19.9741 28.4442 20.4657 28.4042 20.9448 28.3254C21.5353 28.2308 22.1057 28.0789 22.6517 27.8762Z" fill="#F6BA97"/>
<path d="M12.7254 19.4949C12.7254 20.7224 11.8288 21.7404 10.6545 21.9293C10.5263 21.9501 10.3942 21.9608 10.2596 21.9608C8.89728 21.9608 7.79346 20.8572 7.79346 19.4949C7.79346 18.1326 8.89728 17.0288 10.2596 17.0288C10.3942 17.0288 10.5263 17.0398 10.6545 17.0605C11.8288 17.2495 12.7254 18.2672 12.7254 19.4949Z" fill="#F6BA97"/>
<path d="M12.7257 19.4949C12.7257 20.7224 11.8291 21.7404 10.6548 21.9293C10.4415 21.1536 10.3276 20.3372 10.3276 19.4949C10.3276 18.6523 10.4415 17.836 10.6548 17.0605C11.8291 17.2495 12.7257 18.2672 12.7257 19.4949Z" fill="#EAA27F"/>
<path d="M11.1409 19.4949C11.1409 19.9816 10.7463 20.3762 10.2596 20.3762C9.77283 20.3762 9.37793 19.9816 9.37793 19.4949C9.37793 19.0081 9.77283 18.6135 10.2596 18.6135C10.7463 18.6135 11.1409 19.0081 11.1409 19.4949Z" fill="#EAA27F"/>
<path d="M27.2739 19.4949C27.2739 20.7224 28.1705 21.7404 29.3448 21.9293C29.4733 21.9501 29.6052 21.9608 29.7397 21.9608C31.1021 21.9608 32.2059 20.8572 32.2059 19.4949C32.2059 18.1326 31.1021 17.0288 29.7397 17.0288C29.6052 17.0288 29.4733 17.0398 29.3448 17.0605C28.1705 17.2495 27.2739 18.2672 27.2739 19.4949Z" fill="#F6BA97"/>
<path d="M27.2739 19.4949C27.2739 20.7224 28.1705 21.7404 29.3448 21.9293C29.5582 21.1536 29.672 20.3372 29.672 19.4949C29.672 18.6523 29.5582 17.836 29.3448 17.0605C28.1705 17.2495 27.2739 18.2672 27.2739 19.4949Z" fill="#EAA27F"/>
<path d="M29.1749 14.6906V18.1845C29.1749 22.7502 25.8397 26.5378 21.4723 27.2406C21.4576 27.243 21.4421 27.2455 21.4274 27.2482C20.963 27.3224 20.486 27.359 19.9995 27.359C14.9327 27.359 10.8247 23.2513 10.8247 18.1845V14.6906C10.8247 13.6237 11.0069 12.5983 11.3432 11.6455C12.5978 8.07495 16.0005 5.51514 19.9995 5.51514H20.0004C20.486 5.51514 20.9636 5.55267 21.429 5.62592C25.8174 6.31165 29.1749 10.1093 29.1749 14.6906Z" fill="#EAA27F"/>
<path d="M30.6214 19.4949C30.6214 19.9816 30.2268 20.3762 29.7397 20.3762C29.253 20.3762 28.8584 19.9816 28.8584 19.4949C28.8584 19.0081 29.253 18.6135 29.7397 18.6135C30.2268 18.6135 30.6214 19.0081 30.6214 19.4949Z" fill="#EAA27F"/>
<path d="M29.175 14.6906V18.1846C29.175 22.7503 25.8397 26.5378 21.4724 27.2407C21.4577 27.2431 21.4421 27.2455 21.4275 27.2483C17.0388 26.5626 13.6821 22.765 13.6821 18.1846V14.6906C13.6821 10.1093 17.0397 6.31171 21.429 5.62598C25.8174 6.31171 29.175 10.1093 29.175 14.6906Z" fill="#F6BA97"/>
<path d="M19.9995 22.7033C19.231 22.7033 18.4629 22.5107 17.7625 22.1259C17.5648 22.0173 17.4927 21.7692 17.6014 21.5714C17.71 21.374 17.9581 21.3019 18.1556 21.4103C19.3101 22.045 20.6885 22.045 21.843 21.4103C22.0405 21.3019 22.2886 21.374 22.3972 21.5714C22.5059 21.7692 22.4338 22.0173 22.2361 22.1259C21.536 22.5107 20.7676 22.7033 19.9995 22.7033Z" fill="#EAA27F"/>
<path d="M21.0403 20.2706H18.9587C18.7106 20.2706 18.5098 20.0698 18.5098 19.8217C18.5098 19.5736 18.7106 19.3728 18.9587 19.3728H21.0403C21.2884 19.3728 21.4892 19.5736 21.4892 19.8217C21.4892 20.0698 21.2884 20.2706 21.0403 20.2706Z" fill="#EAA27F"/>
<path d="M18.0455 17.6501C18.0455 18.225 17.5798 18.6907 17.0048 18.6907C16.4299 18.6907 15.9639 18.225 15.9639 17.6501C15.9639 17.0751 16.4299 16.6091 17.0048 16.6091C17.5798 16.6091 18.0455 17.0751 18.0455 17.6501Z" fill="#2F373B"/>
<path d="M24.0355 17.6501C24.0355 18.225 23.5695 18.6907 22.9946 18.6907C22.4196 18.6907 21.9536 18.225 21.9536 17.6501C21.9536 17.0751 22.4196 16.6091 22.9946 16.6091C23.5695 16.6091 24.0355 17.0751 24.0355 17.6501Z" fill="#2F373B"/>
<path d="M17.8334 17.4664C17.8334 17.7126 17.6339 17.9122 17.3876 17.9122C17.1413 17.9122 16.9414 17.7126 16.9414 17.4664C16.9414 17.2201 17.1413 17.0205 17.3876 17.0205C17.6339 17.0205 17.8334 17.2201 17.8334 17.4664Z" fill="white"/>
<path d="M23.8745 17.4664C23.8745 17.7126 23.6746 17.9122 23.4283 17.9122C23.182 17.9122 22.9824 17.7126 22.9824 17.4664C22.9824 17.2201 23.182 17.0205 23.4283 17.0205C23.6746 17.0205 23.8745 17.2201 23.8745 17.4664Z" fill="white"/>
<path d="M24.6483 1.55098C24.1063 4.66041 23.5634 7.76985 23.0204 10.8793C21.667 10.6434 20.2873 10.6007 18.925 10.7536C18.6296 10.7862 18.3348 10.8277 18.0409 10.8793C17.498 7.76985 16.9551 4.66041 16.4131 1.55098C17.1895 1.41548 17.9707 1.31843 18.7544 1.26045C19.925 1.17317 21.1006 1.17225 22.2709 1.25801L22.5306 4.83833L23.1398 1.33705C23.6442 1.39198 24.1469 1.4637 24.6483 1.55098Z" fill="#F73B6C"/>
<path d="M18.925 10.7534C18.6296 10.786 18.3348 10.8275 18.0409 10.8791C17.498 7.76965 16.9551 4.66022 16.4131 1.55078C17.1895 1.41528 17.9707 1.31824 18.7544 1.26025L18.925 10.7534Z" fill="#DD104F"/>
<path d="M26.0576 28.4301V39.0643C25.9441 39.1012 25.83 39.1363 25.7146 39.1705C25.2062 39.3224 24.6886 39.4546 24.1637 39.5648C23.9336 39.6136 23.7026 39.6588 23.4697 39.6987C22.3424 39.8971 21.1833 39.9999 20.0005 39.9999C18.8176 39.9999 17.6583 39.8971 16.5309 39.6993C16.4632 39.688 16.3948 39.6758 16.3271 39.6627C16.1907 39.6383 16.0543 39.6111 15.9188 39.5828C15.8919 39.577 15.8641 39.5712 15.8373 39.5657C15.194 39.4293 14.5629 39.2626 13.9434 39.0661V28.4301L15.8373 27.6138V32.5567C15.8373 33.1222 16.0182 33.6465 16.3271 34.0734C16.798 34.7265 17.5652 35.151 18.4316 35.151H21.5694C23.0022 35.151 24.1637 33.9892 24.1637 32.5567V27.6138L26.0576 28.4301Z" fill="#F2EFEA"/>
<path d="M31.012 21.014C31.012 21.4468 30.6616 21.7971 30.2289 21.7971C29.7964 21.7971 29.4458 21.4468 29.4458 21.014C29.4458 20.5816 29.7964 20.231 30.2289 20.231C30.6616 20.231 31.012 20.5816 31.012 21.014Z" fill="#2F373B"/>
<path d="M19.9995 24.9006L20.7838 23.542H19.2148L19.9995 24.9006Z" fill="#F73B6C"/>
</svg>
