<svg width="40" height="40" viewBox="0 0 40 40" fill="none" xmlns="http://www.w3.org/2000/svg">
<path d="M20 40C31.0457 40 40 31.0457 40 20C40 8.9543 31.0457 0 20 0C8.9543 0 0 8.9543 0 20C0 31.0457 8.9543 40 20 40Z" fill="#EA792E"/>
<path d="M33.035 24.7364L30.7332 31.3429C29.7313 34.2161 27.0212 36.1421 23.978 36.1421H16.0212C12.978 36.1421 10.2679 34.2161 9.266 31.3429L6.9642 24.7364C6.23819 22.6541 6.51326 20.354 7.70983 18.5014L10.9155 12.327C11.4024 11.5737 11.7432 10.7358 11.92 9.85696L12.2053 8.43657C12.5409 6.76595 13.4429 5.33103 14.6865 4.31204C15.9301 3.29399 18.2965 2.6936 19.9996 2.6936C23.4066 2.6936 27.1218 5.09618 27.794 8.43665L28.0793 9.85704C28.2561 10.7359 28.5969 11.5738 29.0837 12.3271L32.2894 18.5015C33.486 20.354 33.761 22.6542 33.035 24.7364Z" fill="#2D2C33"/>
<path d="M33.0354 24.7364L30.7336 31.3429C29.7317 34.2161 27.0216 36.1421 23.9784 36.1421H20V2.6936C23.407 2.6936 27.1222 5.09618 27.7944 8.43665L28.0797 9.85704C28.2565 10.7359 28.5973 11.5738 29.0842 12.3271L32.2899 18.5015C33.4864 20.354 33.7614 22.6542 33.0354 24.7364Z" fill="#2E3140"/>
<path d="M25.3907 31.657L25.5964 29.4407C25.7439 27.8522 26.7487 26.4717 28.215 25.8432L28.6209 25.6691C29.5833 25.2564 30.5829 26.1717 30.2563 27.1667L29.0228 30.9255C28.7036 31.8981 27.9254 32.6508 26.9428 32.9375C26.1186 33.1779 25.3113 32.5119 25.3907 31.657Z" fill="#334353"/>
<path d="M14.6089 31.657L14.4032 29.4407C14.2557 27.8522 13.2509 26.4717 11.7846 25.8432L11.3787 25.6691C10.4163 25.2564 9.41675 26.1717 9.74331 27.1667L10.9768 30.9255C11.296 31.8981 12.0742 32.6508 13.0568 32.9375C13.881 33.1779 14.6883 32.5119 14.6089 31.657Z" fill="#2E3140"/>
<path d="M20 4.82788C20 4.82788 22.1048 4.96835 22.7795 5.15358C24.4624 5.61554 25.5378 7.28632 25.9188 8.98944L26.3624 10.9719C26.6069 12.0646 25.7757 13.1023 24.656 13.1023H20V4.82788Z" fill="#334353"/>
<path d="M20 4.82788C20 4.82788 17.8952 4.96835 17.2205 5.15358C15.5376 5.61554 14.4622 7.28632 14.0812 8.98944L13.6376 10.9719C13.3932 12.0646 14.2243 13.1023 15.344 13.1023H20V4.82788Z" fill="#2E3140"/>
<path d="M28.5966 20.9926C28.5966 22.6841 27.7412 24.176 26.4401 25.0596C24.9562 26.0673 24.0376 27.7183 24.0376 29.5114V31.0269C24.0376 32.1419 23.5862 33.1519 22.855 33.8831C22.1237 34.6132 21.1149 35.0658 20 35.0658C17.7701 35.0658 15.9623 33.2569 15.9623 31.0269V29.5114C15.9623 27.7183 15.0437 26.0673 13.5598 25.0596C12.9087 24.6183 12.3704 24.0237 11.9935 23.3297C11.6177 22.6345 11.4033 21.8379 11.4033 20.9926C11.4033 18.2776 13.6039 16.0759 16.3189 16.0759H23.6811C25.0386 16.0759 26.2676 16.6266 27.1568 17.5158C28.0459 18.4062 28.5966 19.6351 28.5966 20.9926Z" fill="#334353"/>
<path d="M28.5969 20.9929C28.5969 22.6843 27.7414 24.1757 26.4398 25.0593C24.9562 26.0671 24.0375 27.7179 24.0375 29.5116V31.0272C24.0375 32.1421 23.5859 33.1515 22.8547 33.8827C22.1234 34.6132 21.1148 35.0655 20 35.0655V16.0757H23.6812C25.0383 16.0757 26.2672 16.6265 27.157 17.5155C28.0461 18.4062 28.5969 19.6351 28.5969 20.9929Z" fill="#3E4E60"/>
<path d="M20 29.1499C20.9852 29.2051 21.9014 29.6733 22.5234 30.4394L23.8877 32.1201L20 33.1034V29.1499Z" fill="#3F5D77"/>
<path d="M19.9995 29.1499C19.0143 29.2051 18.0981 29.6733 17.4762 30.4394L16.1118 32.1201L19.9995 33.1034V29.1499Z" fill="#3E4E60"/>
<path d="M19.9997 33.3777C19.1738 33.3777 18.3929 33.0865 17.7038 32.8297C17.2122 32.6464 16.7477 32.4733 16.3475 32.4344C16.1327 32.4135 15.9756 32.2226 15.9965 32.0078C16.0173 31.7931 16.2086 31.6362 16.423 31.6568C16.925 31.7056 17.4359 31.896 17.9768 32.0977C18.6345 32.3429 19.3148 32.5964 19.9998 32.5964C20.685 32.5964 21.3654 32.3428 22.0234 32.0976C22.5644 31.896 23.0752 31.7056 23.5772 31.6567C23.7923 31.6353 23.9829 31.7931 24.0038 32.0078C24.0246 32.2225 23.8675 32.4135 23.6527 32.4343C23.2524 32.4732 22.788 32.6464 22.2963 32.8296C21.607 33.0865 20.8258 33.3777 19.9997 33.3777Z" fill="#2D2C33"/>
<path d="M25.0068 19.2783H22.2008C21.6762 19.2783 21.251 18.8531 21.251 18.3285C21.251 17.8039 21.6762 17.3787 22.2008 17.3787H25.0068C25.5314 17.3787 25.9567 17.8039 25.9567 18.3285C25.9567 18.853 25.5314 19.2783 25.0068 19.2783Z" fill="#3F5D77"/>
<path d="M17.7983 19.2783H14.9923C14.4677 19.2783 14.0425 18.8531 14.0425 18.3285C14.0425 17.8039 14.4677 17.3787 14.9923 17.3787H17.7983C18.3229 17.3787 18.7482 17.8039 18.7482 18.3285C18.7482 18.853 18.3229 19.2783 17.7983 19.2783Z" fill="#3E4E60"/>
<path d="M19.9997 23.6183H14.255C13.6506 23.6183 13.1606 23.1284 13.1606 22.5239V21.7064C13.1606 20.3654 14.2478 19.2783 15.5888 19.2783H16.5144H19.9997V23.6183Z" fill="#2E3140"/>
<path d="M19.9995 23.6183H25.7442C26.3486 23.6183 26.8386 23.1284 26.8386 22.5239V21.7064C26.8386 20.3654 25.7515 19.2783 24.4104 19.2783H23.4848H19.9995V23.6183Z" fill="#334353"/>
<path d="M23.409 20.2622L22.4071 20.5526C21.7696 20.7373 21.4026 21.4039 21.5874 22.0414C21.7721 22.6789 22.4387 23.0459 23.0762 22.8611L24.0781 22.5708C24.7156 22.386 25.0826 21.7194 24.8978 21.0819C24.7131 20.4444 24.0465 20.0774 23.409 20.2622Z" fill="#EA792E"/>
<path d="M24.313 21.5618C24.313 21.8071 24.2302 22.0344 24.0903 22.2149C23.895 22.468 23.588 22.6321 23.2427 22.6321C22.6521 22.6321 22.1724 22.1524 22.1724 21.5618C22.1724 21.0782 22.4935 20.6696 22.9341 20.5368C23.0317 20.5071 23.1356 20.4915 23.2427 20.4915C23.8341 20.4915 24.313 20.9704 24.313 21.5618Z" fill="#3E4E60"/>
<path d="M24.3123 21.5618C24.3123 21.8071 24.2295 22.0344 24.0896 22.2149C23.9912 22.2454 23.8873 22.261 23.7795 22.261C23.1889 22.261 22.71 21.7813 22.71 21.1907C22.71 20.9446 22.7928 20.718 22.9334 20.5368C23.0311 20.5071 23.135 20.4915 23.242 20.4915C23.8334 20.4915 24.3123 20.9704 24.3123 21.5618Z" fill="#2E3140"/>
<path d="M24.0229 21.5618C24.3056 21.5618 24.5347 21.3327 24.5347 21.05C24.5347 20.7674 24.3056 20.5383 24.0229 20.5383C23.7403 20.5383 23.5112 20.7674 23.5112 21.05C23.5112 21.3327 23.7403 21.5618 24.0229 21.5618Z" fill="white"/>
<path d="M16.5904 20.2622L17.5922 20.5526C18.2297 20.7373 18.5968 21.4039 18.412 22.0414C18.2272 22.6789 17.5607 23.0459 16.9232 22.8611L15.9213 22.5708C15.2838 22.386 14.9168 21.7194 15.1015 21.0819C15.2863 20.4444 15.9529 20.0774 16.5904 20.2622Z" fill="#EA792E"/>
<path d="M15.687 21.5618C15.687 21.8071 15.7698 22.0344 15.9097 22.2149C16.105 22.468 16.412 22.6321 16.7573 22.6321C17.3479 22.6321 17.8276 22.1524 17.8276 21.5618C17.8276 21.0782 17.5065 20.6696 17.0659 20.5368C16.9683 20.5071 16.8644 20.4915 16.7573 20.4915C16.1659 20.4915 15.687 20.9704 15.687 21.5618Z" fill="#3E4E60"/>
<path d="M15.687 21.5618C15.687 21.8071 15.7698 22.0344 15.9097 22.2149C16.0081 22.2454 16.112 22.261 16.2198 22.261C16.8104 22.261 17.2894 21.7813 17.2894 21.1907C17.2894 20.9446 17.2065 20.718 17.0659 20.5368C16.9683 20.5071 16.8644 20.4915 16.7573 20.4915C16.1659 20.4915 15.687 20.9704 15.687 21.5618Z" fill="#2E3140"/>
<path d="M17.1318 21.5525C17.4145 21.5525 17.6436 21.3234 17.6436 21.0408C17.6436 20.7582 17.4145 20.5291 17.1318 20.5291C16.8492 20.5291 16.6201 20.7582 16.6201 21.0408C16.6201 21.3234 16.8492 21.5525 17.1318 21.5525Z" fill="white"/>
<path d="M20.0005 27.8539V29.15C19.9763 29.1804 19.9505 29.2093 19.9231 29.2367C19.5169 29.6429 18.8591 29.6429 18.4536 29.2367L18.1224 28.9054L17.3427 28.1265C16.9372 27.7203 16.9372 27.0625 17.3427 26.657C17.5458 26.4539 17.8114 26.3523 18.0778 26.3523C18.3442 26.3523 18.6099 26.4539 18.813 26.657L19.9231 27.7671C19.9505 27.7953 19.9763 27.8242 20.0005 27.8539Z" fill="#2D2C33"/>
<path d="M22.6588 28.1265L21.5479 29.2367C21.1424 29.6429 20.4846 29.6429 20.0783 29.2367C20.051 29.2093 20.0252 29.1804 20.001 29.15V27.8539C20.0252 27.8242 20.051 27.7953 20.0783 27.7671L21.1885 26.657C21.3916 26.4539 21.6572 26.3523 21.9236 26.3523C22.19 26.3523 22.4557 26.4539 22.6588 26.657C23.0643 27.0625 23.0643 27.7203 22.6588 28.1265Z" fill="#2E3140"/>
<path d="M20.959 26.0032C20.7833 26.0032 20.6097 25.9245 20.4942 25.7746C20.2968 25.5181 20.3447 25.1502 20.6011 24.9529C21.7814 24.0445 22.694 24.448 23.2776 24.8305C23.5483 25.008 23.6239 25.3712 23.4465 25.6418C23.2691 25.9124 22.9059 25.988 22.6353 25.8107C22.2349 25.5483 21.9266 25.4115 21.316 25.8815C21.2094 25.9635 21.0836 26.0032 20.959 26.0032Z" fill="#3F5D77"/>
<path d="M19.0415 26.0032C19.2171 26.0032 19.3908 25.9245 19.5063 25.7746C19.7036 25.5181 19.6558 25.1502 19.3993 24.9529C18.2191 24.0445 17.3065 24.448 16.7228 24.8305C16.4522 25.008 16.3766 25.3712 16.5539 25.6418C16.7313 25.9124 17.0945 25.988 17.3652 25.8107C17.7656 25.5483 18.0738 25.4115 18.6845 25.8815C18.791 25.9635 18.9168 26.0032 19.0415 26.0032Z" fill="#3E4E60"/>
</svg>
