<svg width="40" height="40" viewBox="0 0 40 40" fill="none" xmlns="http://www.w3.org/2000/svg">
<path d="M20 40C31.0457 40 40 31.0457 40 20C40 8.9543 31.0457 0 20 0C8.9543 0 0 8.9543 0 20C0 31.0457 8.9543 40 20 40Z" fill="#6C53A2"/>
<path d="M10.5733 8.41796C10.8858 9.32031 11.4905 10.0227 12.1538 10.5562C13.4475 11.6 14.9624 12.0016 14.9624 12.0016L18.4374 8.69453C17.3749 6.24765 16.1928 4.73672 15.1522 3.83125C13.7882 2.6414 12.6663 2.4914 12.3725 2.63046C11.5561 3.01875 9.64902 5.75234 10.5733 8.41796Z" fill="#3E4E60"/>
<path d="M10.5733 8.41796C10.8858 9.32031 11.4905 10.0227 12.1538 10.5562C14.0171 9.61875 15.3077 7.58437 15.3077 5.22578C15.3077 4.74531 15.2538 4.27812 15.1522 3.83125C13.7882 2.6414 12.6663 2.4914 12.3725 2.63046C11.5561 3.01875 9.64902 5.75234 10.5733 8.41796Z" fill="#3F5D77"/>
<path d="M11.9091 9.36491C13.0349 10.3977 14.3458 11.2376 15.47 10.7227C15.6591 10.6368 15.8419 10.5126 16.0185 10.3446C17.17 9.24929 16.2763 6.48601 14.9653 4.74773H14.9646C14.2505 3.80007 13.4122 3.1571 12.7138 3.25554C10.7341 3.53366 10.595 8.15866 11.9091 9.36491Z" fill="#C2AACF"/>
<path d="M13.7291 6.76668C13.3482 6.88379 12.9566 7.03067 12.6562 7.20481C12.4787 7.3077 12.4467 7.55246 12.592 7.69731C12.8782 7.98254 13.393 8.41746 14.0289 8.61215C14.283 8.68996 14.3392 9.02239 14.1203 9.17293C14.0119 9.24746 13.903 9.3284 13.8008 9.41379C13.6601 9.53145 13.6496 9.74426 13.7783 9.87504C14.0997 10.2016 14.7456 10.7446 15.4702 10.7227C15.6593 10.6368 15.8421 10.5125 16.0187 10.3446C17.1702 9.24926 16.2765 6.48598 14.9655 4.7477H14.9647C13.8268 4.33715 13.0502 4.23301 12.6129 4.21512C12.3884 4.2059 12.2292 4.4291 12.3072 4.63973C12.4717 5.08426 12.8223 5.76903 13.4844 6.0641C13.5764 6.10504 13.6649 6.1416 13.7497 6.17434C14.0269 6.28114 14.0131 6.67934 13.7291 6.76668Z" fill="#DECEE5"/>
<path d="M29.4339 8.41796C29.1214 9.32031 28.5167 10.0227 27.8534 10.5562C26.5597 11.6 25.0448 12.0016 25.0448 12.0016L21.5698 8.69453C22.6323 6.24765 23.8144 4.73672 24.855 3.83125C26.219 2.6414 27.3409 2.4914 27.6347 2.63046C28.4511 3.01875 30.3581 5.75234 29.4339 8.41796Z" fill="#3F5D77"/>
<path d="M29.4341 8.41796C29.1216 9.32031 28.5169 10.0227 27.8536 10.5562C25.9903 9.61875 24.6997 7.58437 24.6997 5.22578C24.6997 4.74531 24.7536 4.27812 24.8552 3.83125C26.2192 2.6414 27.3411 2.4914 27.6349 2.63046C28.4513 3.01875 30.3583 5.75234 29.4341 8.41796Z" fill="#3F6C8E"/>
<path d="M28.0975 9.36491C26.9717 10.3977 25.6607 11.2376 24.5365 10.7227C24.3475 10.6368 24.1647 10.5126 23.9881 10.3446C22.8365 9.24929 23.7303 6.48601 25.0412 4.74773H25.042C25.7561 3.80007 26.5943 3.1571 27.2928 3.25554C29.2725 3.53366 29.4115 8.15866 28.0975 9.36491Z" fill="#F4E6F4"/>
<path d="M26.2781 6.76668C26.659 6.88379 27.0506 7.03067 27.3511 7.20481C27.5286 7.3077 27.5605 7.55246 27.4152 7.69731C27.129 7.98254 26.6142 8.41746 25.9783 8.61215C25.7243 8.68996 25.668 9.02239 25.8869 9.17293C25.9953 9.24746 26.1042 9.3284 26.2064 9.41379C26.3472 9.53145 26.3576 9.74426 26.229 9.87504C25.9076 10.2016 25.2616 10.7446 24.537 10.7227C24.348 10.6368 24.1651 10.5125 23.9886 10.3446C22.837 9.24926 23.7308 6.48598 25.0417 4.7477H25.0425C26.1804 4.33715 26.957 4.23301 27.3944 4.21512C27.6188 4.2059 27.778 4.4291 27.7001 4.63973C27.5355 5.08426 27.1849 5.76903 26.5229 6.0641C26.4308 6.10504 26.3423 6.1416 26.2576 6.17434C25.9802 6.28114 25.994 6.67934 26.2781 6.76668Z" fill="white"/>
<path d="M26.6224 21.7526V25.0753C26.6224 26.5894 26.0031 28.059 24.8667 29.2409L21.938 32.2869H18.094L15.1654 29.2409C14.029 28.059 13.4097 26.5894 13.4097 25.0753V21.7526C13.4097 18.73 16.3402 16.2773 19.965 16.2554C19.9819 16.2546 19.9987 16.2546 20.0156 16.2546C21.8406 16.2546 23.4915 16.8698 24.6878 17.8646C25.8832 18.8602 26.6224 20.2339 26.6224 21.7526Z" fill="#C2AACF"/>
<path d="M26.6223 21.7526V25.0753C26.6223 26.5894 26.003 28.059 24.8666 29.2409L21.9379 32.2869H19.9648V16.2554C19.9817 16.2546 19.9986 16.2546 20.0155 16.2546C21.8405 16.2546 23.4913 16.8698 24.6876 17.8646C25.883 18.8602 26.6223 20.2339 26.6223 21.7526Z" fill="#DECEE5"/>
<path d="M25.9023 18.0961L25.5718 18.5625C24.6609 19.8493 24.0507 21.268 23.7757 22.7438L23.064 26.5516L22.5733 29.175C22.3944 30.1329 22.5655 31.1133 23.0663 31.9891L23.553 32.8414C23.9148 33.4743 24.0702 34.175 24.0046 34.8743L23.8007 37.0282C23.7312 37.768 22.9898 38.3383 22.0976 38.3383H17.9312C17.0405 38.3383 16.2983 37.768 16.228 37.0289L16.0202 34.8454C15.9546 34.1649 16.1007 33.4813 16.4421 32.861L16.9983 31.8516C17.4718 30.9922 17.6312 30.0344 17.4562 29.0993L16.9905 26.6071L16.2468 22.6274C15.971 21.1547 15.3632 19.7383 14.4554 18.4532L14.1296 17.9922C13.4593 17.0461 13.3249 15.9024 13.7601 14.8657L15.6601 10.3422C16.0749 9.35552 17.1937 8.69458 18.4491 8.69458H21.5702C22.8312 8.69458 23.9523 9.36099 24.3632 10.3532L26.2788 14.9836C26.7062 16.0172 26.5679 17.1547 25.9023 18.0961Z" fill="#DECEE5"/>
<path d="M25.9025 18.0962L25.5718 18.5625C24.6612 19.8497 24.0512 21.2678 23.7758 22.7437L22.5737 29.1756C22.3947 30.133 22.5662 31.1137 23.0665 31.9893L23.5537 32.8414C23.9154 33.4744 24.0709 34.1754 24.0053 34.8747L23.8011 37.028C23.7318 37.7679 22.9897 38.3386 22.0979 38.3386H20.0171V8.69482H21.5704C22.8315 8.69482 23.953 9.36139 24.3633 10.3531L26.2792 14.9841C26.7062 16.017 26.5686 17.1544 25.9025 18.0962Z" fill="#F4E6F4"/>
<path d="M24.0046 34.8742L23.8007 37.0281C23.7311 37.7679 22.9897 38.3382 22.0975 38.3382H17.9311C17.0405 38.3382 16.2983 37.7679 16.228 37.0289L16.0202 34.8453C15.9546 34.1648 16.1007 33.4812 16.4421 32.8609L16.9983 31.8515C17.4718 30.9921 17.6311 30.0343 17.4561 29.0992L16.9905 26.607C17.9061 27.0062 18.9108 27.2265 19.9647 27.2265C21.0671 27.2265 22.1155 26.9859 23.064 26.5515L22.5733 29.175C22.3944 30.1328 22.5655 31.1132 23.0663 31.989L23.553 32.8414C23.9147 33.4742 24.0702 34.175 24.0046 34.8742Z" fill="#3E4E60"/>
<path d="M24.0042 34.8742L23.8003 37.0281C23.7308 37.7679 22.9893 38.3382 22.0972 38.3382H19.9644V27.2265C21.0667 27.2265 22.1151 26.9859 23.0636 26.5515L22.5729 29.175C22.394 30.1328 22.5651 31.1132 23.0659 31.989L23.5526 32.8414C23.9143 33.4742 24.0698 34.175 24.0042 34.8742Z" fill="#3F5D77"/>
<path d="M20.0152 27.226V29.551C19.6441 29.551 19.3027 29.4362 19.0426 29.244C18.7832 29.0518 18.6043 28.7831 18.5598 28.4768L18.3535 27.051C18.873 27.1667 19.4121 27.2268 19.9644 27.2268C19.9816 27.2268 19.998 27.2268 20.0152 27.226Z" fill="#3F5D77"/>
<path d="M21.6812 27.0259L21.4719 28.4767C21.4273 28.7829 21.2484 29.0517 20.9891 29.2438C20.7281 29.436 20.3867 29.5509 20.0156 29.5509V27.2259C20.5883 27.2228 21.1453 27.154 21.6812 27.0259Z" fill="#3F6C8E"/>
<path d="M18.3535 27.0505C18.8732 27.1656 19.412 27.2267 19.9645 27.2267C19.9815 27.2267 19.9984 27.2262 20.0153 27.226V21.1189H19.1505C18.2708 21.1189 17.5895 21.758 17.6942 22.4845L18.3535 27.0505Z" fill="#F4E6F4"/>
<path d="M21.6812 27.0263L21.6812 27.0259L22.3367 22.4845C22.4422 21.758 21.7601 21.1189 20.8812 21.1189H20.0156V27.226C20.5877 27.2221 21.1451 27.1533 21.6812 27.0263Z" fill="white"/>
<path d="M21.7327 5.55942L21.271 8.94849C21.2195 9.32349 20.8992 9.60396 20.5202 9.60396H19.4085C19.0296 9.60396 18.7093 9.32349 18.6578 8.94849L18.196 5.55942C18.0742 4.66646 18.7687 3.87036 19.6703 3.87036H20.2585C21.1601 3.87036 21.8546 4.66646 21.7327 5.55942Z" fill="#3E4E60"/>
<path d="M21.7331 5.55942L21.2714 8.94849C21.2198 9.32349 20.8995 9.60396 20.5206 9.60396H19.9644V3.87036H20.2589C21.1604 3.87036 21.855 4.66646 21.7331 5.55942Z" fill="#3F5D77"/>
<path d="M20.0161 10.2112H20.8321C21.7413 10.2112 22.5528 10.782 22.8599 11.6378L23.8367 14.3599C24.1413 15.2088 23.6961 16.1402 22.8466 16.4428C22.107 16.7063 21.1321 16.9429 20.0162 16.9429V10.2112H20.0161Z" fill="white"/>
<path d="M20.016 10.2112H19.2001C18.2909 10.2112 17.4795 10.782 17.1723 11.6378L16.1955 14.3599C15.8909 15.2088 16.3361 16.1402 17.1856 16.4428C17.9252 16.7063 18.9002 16.9429 20.016 16.9429V10.2112Z" fill="#F4E6F4"/>
<path d="M26.0125 17.75C26.5908 18.0839 26.7919 18.8192 26.4663 19.4C26.4643 19.4054 26.4615 19.4103 26.4587 19.4151L26.0346 20.1496C25.8665 20.4408 25.5959 20.637 25.2944 20.7178C24.9925 20.7993 24.6608 20.7652 24.3689 20.5966C23.8264 20.2834 23.6153 19.6161 23.8597 19.0555C23.8778 19.0129 23.8988 18.9708 23.9223 18.9301L24.3464 18.1957C24.515 17.9037 24.7858 17.7087 25.0873 17.6279C25.3889 17.5472 25.7205 17.5814 26.0125 17.75Z" fill="#3E4E60"/>
<path d="M26.0125 17.75C26.5908 18.0839 26.792 18.8192 26.4664 19.4C25.8145 19.7459 24.966 19.7429 24.2348 19.3208C24.0989 19.2424 23.9735 19.1536 23.8599 19.0555C23.878 19.0129 23.899 18.9708 23.9225 18.9301L24.3466 18.1957C24.5152 17.9037 24.786 17.7087 25.0875 17.6279C25.3889 17.5472 25.7206 17.5814 26.0125 17.75Z" fill="#2E3140"/>
<path d="M24.9535 18.2451L24.6984 18.687C24.5885 18.8773 24.6537 19.1206 24.844 19.2304C25.0343 19.3403 25.2776 19.2751 25.3875 19.0848L25.6426 18.6429C25.7525 18.4526 25.6873 18.2093 25.497 18.0995C25.3067 17.9896 25.0635 18.0549 24.9535 18.2451Z" fill="white"/>
<path d="M13.9167 17.75C13.3384 18.0839 13.1372 18.8192 13.4628 19.4C13.4649 19.4054 13.4677 19.4103 13.4705 19.4151L13.8945 20.1496C14.0627 20.4408 14.3332 20.637 14.6347 20.7178C14.9367 20.7993 15.2683 20.7652 15.5602 20.5966C16.1027 20.2834 16.3138 19.6161 16.0695 19.0555C16.0513 19.0129 16.0303 18.9708 16.0068 18.9301L15.5827 18.1957C15.4142 17.9037 15.1433 17.7087 14.8418 17.6279C14.5402 17.5472 14.2087 17.5814 13.9167 17.75Z" fill="#3E4E60"/>
<path d="M13.9167 17.75C13.3384 18.0839 13.1372 18.8192 13.4628 19.4C14.1147 19.7459 14.9632 19.7429 15.6944 19.3208C15.8302 19.2424 15.9557 19.1536 16.0694 19.0555C16.0513 19.0129 16.0302 18.9708 16.0067 18.9301L15.5827 18.1957C15.4141 17.9037 15.1432 17.7087 14.8417 17.6279C14.5402 17.5472 14.2087 17.5814 13.9167 17.75Z" fill="#2E3140"/>
<path d="M14.9758 18.2451L15.231 18.687C15.3408 18.8773 15.2757 19.1206 15.0854 19.2304C14.895 19.3403 14.6518 19.2751 14.5419 19.0848L14.2868 18.6429C14.1769 18.4526 14.2421 18.2093 14.4324 18.0995C14.6227 17.9896 14.866 18.0549 14.9758 18.2451Z" fill="white"/>
<path d="M19.1392 35.9246C19.1392 36.3604 18.7392 36.7323 18.208 36.7705C17.6468 36.811 17.1521 36.4656 17.1034 35.9987L17.0228 35.2299L16.9254 34.3077C16.8757 33.8406 17.2917 33.429 17.8529 33.3878C18.4141 33.3472 18.9088 33.6926 18.9575 34.1596L19.0221 34.7731L19.1355 35.8506C19.1383 35.8755 19.1392 35.9005 19.1392 35.9246Z" fill="#151516"/>
<path d="M19.1389 35.9245C19.1389 36.3603 18.7388 36.7322 18.2076 36.7704C17.6464 36.8109 17.1518 36.4655 17.103 35.9986L17.0225 35.2298C17.6502 35.0053 18.321 34.8494 19.0218 34.7729L19.1351 35.8504C19.1379 35.8754 19.1389 35.9004 19.1389 35.9245Z" fill="#2E3140"/>
<path d="M23.0776 34.3077L22.9821 35.2199L22.8996 35.9987C22.8528 36.4407 22.4068 36.7736 21.8832 36.7736C21.8541 36.7736 21.8242 36.7728 21.7942 36.7705C21.233 36.7299 20.8179 36.3175 20.8667 35.8506L20.98 34.77L21.0447 34.1596C21.0943 33.6925 21.5889 33.3472 22.1502 33.3878C22.7114 33.4291 23.1264 33.8407 23.0776 34.3077Z" fill="#2E3140"/>
<path d="M22.9821 35.2199L22.8996 35.9987C22.8528 36.4407 22.4068 36.7736 21.8832 36.7736C21.8541 36.7736 21.8242 36.7728 21.7942 36.7705C21.233 36.7299 20.8179 36.3175 20.8667 35.8506L20.98 34.77C21.6817 34.8441 22.3535 34.9977 22.9821 35.2199Z" fill="#334353"/>
<path d="M25.5129 16.8203C25.5277 16.9703 25.4175 17.1039 25.2675 17.1195C25.2582 17.1203 25.2496 17.1203 25.2402 17.1203C25.1011 17.1203 24.9824 17.0156 24.9683 16.8742C24.8379 15.5641 24.2543 15.4766 23.5793 15.3758C23.1597 15.3125 22.7254 15.2477 22.4269 14.8836C22.0371 14.4086 21.8863 13.8477 21.7527 13.3531C21.5066 12.4406 21.3441 11.8375 20.0152 11.8375C20.0113 11.8375 20.0074 11.8359 20.0035 11.8359C19.9996 11.8359 19.9957 11.8375 19.991 11.8375H19.9636C18.6597 11.8461 18.498 12.4469 18.2543 13.3531C18.1207 13.8477 17.9699 14.4086 17.58 14.8836C17.2816 15.2477 16.8472 15.3125 16.4277 15.3758C15.7519 15.4766 15.1691 15.5641 15.0386 16.8742C15.0246 17.0156 14.905 17.1203 14.7668 17.1203C14.7574 17.1203 14.7488 17.1203 14.7394 17.1195C14.5886 17.1039 14.4793 16.9703 14.4941 16.8203C14.6675 15.0859 15.6379 14.9406 16.3465 14.8344C16.6925 14.7828 16.9918 14.7383 17.1574 14.5367C17.4722 14.1523 17.6011 13.6742 17.7261 13.2109C17.9668 12.3156 18.2402 11.3016 19.9636 11.2906H19.991C19.9957 11.2906 19.9996 11.2914 20.0035 11.2914C20.0074 11.2914 20.0113 11.2906 20.0152 11.2906C21.7636 11.2906 22.0386 12.3109 22.2808 13.2109C22.4058 13.6742 22.5347 14.1523 22.8496 14.5367C23.0144 14.7383 23.3136 14.7828 23.6605 14.8344C24.3691 14.9406 25.3394 15.0859 25.5129 16.8203ZM24.0215 17.5125C23.7722 16.6188 23.2699 16.5336 22.8277 16.4586C22.6363 16.4266 22.4386 16.393 22.2402 16.2945C21.616 15.9844 21.5355 15.9445 20.2621 13.2766C20.2136 13.175 20.1105 13.1172 20.0043 13.1219H20.0035C20.0027 13.1219 20.0027 13.1219 20.0027 13.1219C19.9894 13.1211 19.9761 13.1219 19.9636 13.1234C19.8715 13.132 19.7879 13.1875 19.7449 13.2766C18.4707 15.9445 18.391 15.9844 17.7668 16.2945C17.5683 16.393 17.3707 16.4266 17.1793 16.4586C16.7363 16.5336 16.2347 16.6188 15.9847 17.5125C15.9441 17.6578 16.0293 17.8086 16.1746 17.8492C16.1996 17.8563 16.2238 17.8594 16.2488 17.8594C16.3683 17.8594 16.4777 17.7805 16.5121 17.6602C16.6683 17.1 16.8699 17.0656 17.2707 16.9977C17.4902 16.9609 17.7394 16.9188 18.0105 16.7836C18.7386 16.4227 18.9043 16.2797 19.9636 14.0844C19.9769 14.057 19.9902 14.0297 20.0035 14.0023C21.0988 16.2766 21.2597 16.418 21.9965 16.7836C22.2675 16.9188 22.5168 16.9609 22.7363 16.9977C23.1371 17.0656 23.3386 17.1 23.4949 17.6602C23.5285 17.7805 23.6386 17.8594 23.7582 17.8594C23.7824 17.8594 23.8074 17.8563 23.8316 17.8492C23.9777 17.8086 24.0621 17.6578 24.0215 17.5125ZM22.1847 18.3547C21.8043 18.1156 21.3722 17.8445 20.9777 17.1922C20.8996 17.0625 20.7316 17.0211 20.6027 17.0992C20.473 17.1773 20.4316 17.3453 20.5097 17.475C20.9715 18.2383 21.5043 18.5734 21.8941 18.818C22.341 19.0992 22.5261 19.2148 22.4675 19.7367C22.4222 20.143 22.3894 20.5156 22.3574 20.8758C22.2496 22.1078 22.1715 22.9969 21.723 23.475C20.9902 24.2547 20.709 24.8187 20.5894 26.432C20.5785 26.5828 20.6918 26.7133 20.8418 26.725C20.8488 26.725 20.8558 26.7258 20.8629 26.7258C21.0043 26.7258 21.1246 26.6164 21.1347 26.4727C21.2496 24.9266 21.5238 24.4859 22.1215 23.8492C22.6996 23.2336 22.7847 22.2648 22.9027 20.9242C22.934 20.5664 22.9668 20.1969 23.0113 19.7977C23.1082 18.9344 22.6597 18.6531 22.1847 18.3547ZM20.9332 18.9758C20.8238 18.8711 20.6504 18.875 20.5465 18.9844C20.4418 19.0938 20.4457 19.2664 20.555 19.3711C21.0777 19.8695 21.2925 20.3328 21.1027 21.6125C20.948 22.6555 20.6261 22.9836 20.584 23.0227L20.5863 23.0211L20.9011 23.4688C20.9558 23.4305 21.4425 23.0531 21.6441 21.6922C21.8394 20.3742 21.6535 19.6633 20.9332 18.9758ZM19.9996 19.7266C19.9871 19.7266 19.9754 19.7273 19.9636 19.7289C19.83 19.7469 19.7261 19.8617 19.7261 20V22.3117C19.7261 22.45 19.83 22.5648 19.9636 22.5828C19.9754 22.5844 19.9871 22.5852 19.9996 22.5852C20.1504 22.5852 20.273 22.4625 20.273 22.3117V20C20.273 19.8492 20.1504 19.7266 19.9996 19.7266ZM26.3613 21.6211C26.309 21.4797 26.1519 21.407 26.0097 21.4586L24.391 22.0555C24.2496 22.107 24.1769 22.2648 24.2293 22.4062C24.2699 22.5164 24.3746 22.5852 24.4855 22.5852C24.5175 22.5852 24.5488 22.5797 24.58 22.568L26.1988 21.9719C26.341 21.9195 26.4129 21.7625 26.3613 21.6211ZM26.0324 23.5203L24.3152 23.5609C24.1644 23.5648 24.0449 23.6898 24.048 23.8406C24.0519 23.9898 24.1738 24.1078 24.3215 24.1078H24.3285L26.0449 24.0672C26.1965 24.0633 26.316 23.9383 26.3121 23.7867C26.309 23.6359 26.1816 23.5195 26.0324 23.5203ZM25.9566 25.6078L24.034 25.0883C23.8879 25.0492 23.7379 25.1352 23.6988 25.2813C23.659 25.4273 23.7457 25.5773 23.891 25.6164L25.8144 26.1359C25.8386 26.1422 25.8621 26.1453 25.8855 26.1453C26.0066 26.1453 26.1168 26.0648 26.1496 25.943C26.1886 25.7969 26.1027 25.6469 25.9566 25.6078ZM25.1715 27.6266L23.7496 26.7898C23.6191 26.7133 23.4519 26.757 23.3754 26.8875C23.2988 27.0172 23.3418 27.1852 23.4722 27.2617L24.8941 28.0977C24.9379 28.1234 24.9855 28.1359 25.0324 28.1359C25.1261 28.1359 25.2175 28.0875 25.2683 28.0008C25.3449 27.8703 25.3011 27.7031 25.1715 27.6266ZM25.7293 14.4266C25.7191 14.3836 25.466 13.3812 24.0761 13.3039C23.5558 13.275 23.4269 12.8477 23.259 12.1531C23.1597 11.7414 23.0566 11.3148 22.7894 11.0383C22.1207 10.3461 21.6019 10.1875 20.0152 10.1875C20.0113 10.1875 20.0074 10.1883 20.0035 10.1883C19.9996 10.1883 19.9957 10.1875 19.991 10.1875H19.9636C18.398 10.1891 17.8824 10.35 17.2175 11.0383C16.9504 11.3148 16.8472 11.7414 16.748 12.1531C16.58 12.8477 16.4511 13.275 15.93 13.3039C14.5402 13.3812 14.2871 14.3836 14.2769 14.4266C14.2425 14.5734 14.3332 14.7203 14.48 14.7555C14.5011 14.7602 14.5222 14.7625 14.5433 14.7625C14.6675 14.7625 14.7793 14.6781 14.809 14.5523C14.8105 14.5461 14.9738 13.9047 15.9605 13.85C16.9136 13.7969 17.1168 12.957 17.2793 12.2813C17.3621 11.9406 17.4472 11.5883 17.6105 11.4188C18.0972 10.9148 18.409 10.7367 19.9636 10.7344H19.991C19.9957 10.7344 19.9996 10.7336 20.0035 10.7328C20.0074 10.7336 20.0113 10.7344 20.0152 10.7344C21.5941 10.7344 21.9066 10.9117 22.3965 11.4188C22.5597 11.5883 22.6449 11.9406 22.7277 12.2813C22.8902 12.957 23.0933 13.7969 24.0465 13.85C25.0144 13.9039 25.191 14.5289 25.1972 14.5523C25.2269 14.6781 25.3394 14.7625 25.4636 14.7625C25.484 14.7625 25.505 14.7602 25.5269 14.7555C25.6738 14.7203 25.7644 14.5734 25.7293 14.4266ZM17.6491 20.8766C17.6174 20.5159 17.5846 20.1429 17.539 19.737C17.4804 19.2151 17.6655 19.0989 18.1127 18.818C18.5022 18.5735 19.0356 18.2385 19.497 17.4748C19.575 17.3455 19.5336 17.1774 19.4043 17.0994C19.2751 17.0213 19.107 17.0627 19.0288 17.192C18.6347 17.8445 18.2029 18.1157 17.8218 18.3549C17.3471 18.653 16.8987 18.9346 16.9955 19.7979C17.0404 20.1973 17.0729 20.567 17.1043 20.9245C17.2223 22.265 17.3075 23.2335 17.8854 23.8491C18.4833 24.4858 18.7573 24.9264 18.8718 26.4723C18.8825 26.6159 19.0024 26.7255 19.1442 26.7255C19.151 26.7255 19.1579 26.7252 19.1647 26.7247C19.3154 26.7135 19.4283 26.5824 19.4172 26.4318C19.2977 24.8186 19.0164 24.2546 18.2841 23.4748C17.8356 22.9971 17.7574 22.1077 17.6491 20.8766ZM19.074 18.9755C18.3537 19.6634 18.1676 20.3745 18.3629 21.6925C18.5644 23.0529 19.0507 23.4302 19.1055 23.4688L19.4201 23.0214L19.4275 23.0269C19.424 23.024 19.0686 22.7248 18.9038 21.6123C18.7143 20.3324 18.9294 19.8698 19.4518 19.3709C19.5609 19.2666 19.5649 19.0934 19.4606 18.9843C19.3563 18.8752 19.1834 18.8712 19.074 18.9755ZM13.8079 21.9721L15.4265 22.5684C15.4577 22.5798 15.4897 22.5853 15.5211 22.5853C15.6323 22.5853 15.7369 22.5169 15.7776 22.4063C15.8298 22.2646 15.7572 22.1074 15.6156 22.0552L13.9969 21.459C13.8554 21.4069 13.6981 21.4793 13.6458 21.621C13.5936 21.7627 13.6662 21.9199 13.8079 21.9721ZM15.6786 24.1078C15.6808 24.1078 15.6831 24.1079 15.6853 24.1079C15.8332 24.1079 15.955 23.9897 15.9585 23.8409C15.9621 23.6899 15.8426 23.5646 15.6916 23.561L13.9745 23.5202C13.8221 23.5174 13.6982 23.636 13.6947 23.787C13.6911 23.938 13.8105 24.0634 13.9615 24.067L15.6786 24.1078ZM16.3084 25.2813C16.2691 25.1355 16.1193 25.0494 15.9732 25.0886L14.0499 25.6077C13.9041 25.647 13.8178 25.7971 13.8572 25.9429C13.89 26.0648 14.0004 26.1452 14.121 26.1452C14.1446 26.1452 14.1685 26.142 14.1924 26.1356L16.1157 25.6166C16.2615 25.5772 16.3478 25.4271 16.3084 25.2813ZM16.2575 26.7901L14.8357 27.6265C14.7055 27.703 14.662 27.8706 14.7386 28.0008C14.7896 28.0874 14.8808 28.1356 14.9746 28.1356C15.0218 28.1356 15.0695 28.1234 15.1129 28.0978L16.5347 27.2614C16.6649 27.1848 16.7084 27.0173 16.6318 26.8871C16.5551 26.7569 16.3873 26.7135 16.2575 26.7901Z" fill="#3E4E60"/>
<path d="M20.0156 10.1875C21.6023 10.1875 22.1211 10.3461 22.7898 11.0383C23.057 11.3148 23.1602 11.7414 23.2594 12.1531C23.4273 12.8477 23.5562 13.275 24.0766 13.3039C25.4664 13.3812 25.7195 14.3836 25.7297 14.4266C25.7648 14.5734 25.6742 14.7203 25.5273 14.7555C25.5055 14.7602 25.4844 14.7625 25.4641 14.7625C25.3398 14.7625 25.2273 14.6781 25.1976 14.5523C25.1914 14.5289 25.0148 13.9039 24.0469 13.85C23.0937 13.7969 22.8906 12.957 22.7281 12.2813C22.6453 11.9406 22.5602 11.5883 22.3969 11.4188C21.907 10.9117 21.5945 10.7344 20.0156 10.7344V10.1875ZM20.0156 19.7281V22.5836C20.159 22.5753 20.2734 22.4572 20.2734 22.3117V20C20.2734 19.8546 20.159 19.7364 20.0156 19.7281ZM24.2297 22.4062C24.2703 22.5164 24.375 22.5852 24.4859 22.5852C24.518 22.5852 24.5492 22.5797 24.5805 22.568L26.1992 21.9719C26.3414 21.9195 26.4133 21.7625 26.3617 21.6211C26.3094 21.4797 26.1523 21.407 26.0101 21.4586L24.3914 22.0555C24.25 22.107 24.1773 22.2648 24.2297 22.4062ZM21.7531 13.3531C21.8867 13.8477 22.0375 14.4086 22.4273 14.8836C22.7258 15.2477 23.1602 15.3125 23.5797 15.3758C24.2547 15.4766 24.8383 15.5641 24.9687 16.8742C24.9828 17.0156 25.1016 17.1203 25.2406 17.1203C25.25 17.1203 25.2586 17.1203 25.268 17.1195C25.418 17.1039 25.5281 16.9703 25.5133 16.8203C25.3398 15.0859 24.3695 14.9406 23.6609 14.8344C23.3141 14.7828 23.0148 14.7383 22.85 14.5367C22.5352 14.1523 22.4062 13.6742 22.2812 13.2109C22.0391 12.3109 21.7641 11.2906 20.0156 11.2906V11.8375C21.3445 11.8375 21.507 12.4406 21.7531 13.3531ZM21.6445 21.6922C21.8398 20.3742 21.6539 19.6633 20.9336 18.9758C20.8242 18.8711 20.6508 18.875 20.5469 18.9844C20.4422 19.0938 20.4461 19.2664 20.5555 19.3711C21.0781 19.8695 21.293 20.3328 21.1031 21.6125C20.9484 22.6555 20.6266 22.9836 20.5844 23.0227L20.5867 23.0211L20.9016 23.4688C20.9562 23.4305 21.443 23.0531 21.6445 21.6922ZM25.1719 27.6266L23.75 26.7898C23.6195 26.7133 23.4523 26.757 23.3758 26.8875C23.2992 27.0172 23.3422 27.1852 23.4727 27.2617L24.8945 28.0977C24.9383 28.1234 24.9859 28.1359 25.0328 28.1359C25.1266 28.1359 25.218 28.0875 25.2687 28.0008C25.3453 27.8703 25.3016 27.7031 25.1719 27.6266ZM25.957 25.6078L24.0344 25.0883C23.8883 25.0492 23.7383 25.1352 23.6992 25.2813C23.6594 25.4273 23.7461 25.5773 23.8914 25.6164L25.8148 26.1359C25.8391 26.1422 25.8625 26.1453 25.8859 26.1453C26.007 26.1453 26.1172 26.0648 26.15 25.943C26.1891 25.7969 26.1031 25.6469 25.957 25.6078ZM26.0328 23.5203L24.3156 23.5609C24.1648 23.5648 24.0453 23.6898 24.0484 23.8406C24.0523 23.9898 24.1742 24.1078 24.3219 24.1078H24.3289L26.0453 24.0672C26.1969 24.0633 26.3164 23.9383 26.3125 23.7867C26.3094 23.6359 26.182 23.5195 26.0328 23.5203ZM23.7586 17.8594C23.7828 17.8594 23.8078 17.8563 23.832 17.8492C23.9781 17.8086 24.0625 17.6578 24.0219 17.5125C23.7727 16.6188 23.2703 16.5336 22.8281 16.4586C22.6367 16.4266 22.4391 16.393 22.2406 16.2945C21.6164 15.9844 21.5359 15.9445 20.2625 13.2766C20.2157 13.1785 20.118 13.1218 20.0156 13.1222V14.0266C21.1002 16.277 21.2628 16.4193 21.9969 16.7836C22.268 16.9188 22.5172 16.9609 22.7367 16.9977C23.1375 17.0656 23.3391 17.1 23.4953 17.6602C23.5289 17.7805 23.6391 17.8594 23.7586 17.8594ZM22.1852 18.3547C21.8047 18.1156 21.3727 17.8445 20.9781 17.1922C20.9 17.0625 20.732 17.0211 20.6031 17.0992C20.4734 17.1773 20.432 17.3453 20.5102 17.475C20.9719 18.2383 21.5047 18.5734 21.8945 18.818C22.3414 19.0992 22.5266 19.2148 22.468 19.7367C22.4227 20.143 22.3898 20.5156 22.3578 20.8758C22.25 22.1078 22.1719 22.9969 21.7234 23.475C20.9906 24.2547 20.7094 24.8187 20.5898 26.432C20.5789 26.5828 20.6922 26.7133 20.8422 26.725C20.8492 26.725 20.8562 26.7258 20.8633 26.7258C21.0047 26.7258 21.125 26.6164 21.1352 26.4727C21.25 24.9266 21.5242 24.4859 22.1219 23.8492C22.7 23.2336 22.7852 22.2648 22.9031 20.9242C22.9344 20.5664 22.9672 20.1969 23.0117 19.7977C23.1086 18.9344 22.6602 18.6531 22.1852 18.3547Z" fill="#3F5D77"/>
</svg>
