<svg width="40" height="40" viewBox="0 0 40 40" fill="none" xmlns="http://www.w3.org/2000/svg">
<path d="M20 40C31.0457 40 40 31.0457 40 20C40 8.9543 31.0457 0 20 0C8.9543 0 0 8.9543 0 20C0 31.0457 8.9543 40 20 40Z" fill="#EE6781"/>
<path d="M32.89 22.1173C33.4509 22.6766 33.7975 23.4502 33.7975 24.3048C33.7975 26.0108 32.4142 27.3941 30.7082 27.3941C30.4642 27.3941 30.2268 27.3651 29.9993 27.3114C30.1043 27.5628 30.1631 27.8384 30.1631 28.1279C30.1631 29.297 29.215 30.2451 28.0459 30.2451C27.5644 30.2451 27.1209 30.0838 26.7652 29.8132C26.2572 29.4268 25.9287 28.8154 25.9287 28.1279C25.9287 26.9589 26.8768 26.0107 28.0459 26.0107C28.0757 26.0107 28.1054 26.0124 28.1344 26.0132C27.8093 25.5242 27.6189 24.9368 27.6189 24.3048C27.6189 23.3269 28.074 22.4557 28.783 21.8889C27.5478 21.1286 26.7246 19.7635 26.7246 18.2064C26.7246 15.9577 28.4405 14.111 30.6346 13.9034C30.7703 13.8902 30.9085 13.8835 31.0475 13.8835C33.4352 13.8835 35.3703 15.8187 35.3703 18.2064C35.3703 19.9347 34.3561 21.4257 32.89 22.1173Z" fill="white"/>
<path d="M30.858 21.8236C31.4189 22.3829 31.7656 23.1564 31.7656 24.0111C31.7656 25.7171 30.3822 27.1004 28.6763 27.1004C28.4322 27.1004 28.1948 27.0706 27.9673 27.0176C28.0724 27.2683 28.1311 27.5447 28.1311 27.8342C28.1311 28.7385 27.5636 29.5104 26.7652 29.8132C26.2572 29.4268 25.9287 28.8154 25.9287 28.1279C25.9287 26.9588 26.8768 26.0107 28.0459 26.0107C28.0757 26.0107 28.1054 26.0123 28.1344 26.0132C27.8093 25.5242 27.6189 24.9368 27.6189 24.3047C27.6189 23.3268 28.074 22.4556 28.783 21.8889C27.5478 21.1286 26.7246 19.7634 26.7246 18.2064C26.7246 15.9576 28.4405 14.111 30.6346 13.9033C32.2198 14.5437 33.3384 16.0975 33.3384 17.9126C33.3384 19.6411 32.3241 21.1319 30.858 21.8236Z" fill="#F4E6F4"/>
<path d="M7.11076 22.1173C6.54983 22.6766 6.20319 23.4502 6.20319 24.3048C6.20319 26.0108 7.58655 27.3941 9.29248 27.3941C9.53655 27.3941 9.77397 27.3651 10.0015 27.3114C9.89639 27.5628 9.83764 27.8384 9.83764 28.1279C9.83764 29.297 10.7858 30.2451 11.9548 30.2451C12.4363 30.2451 12.8798 30.0838 13.2355 29.8132C13.7435 29.4268 14.072 28.8154 14.072 28.1279C14.072 26.9589 13.1239 26.0107 11.9548 26.0107C11.9251 26.0107 11.8953 26.0124 11.8663 26.0132C12.1915 25.5242 12.3818 24.9368 12.3818 24.3048C12.3818 23.3269 11.9267 22.4557 11.2177 21.8889C12.453 21.1286 13.2762 19.7635 13.2762 18.2064C13.2762 15.9577 11.5602 14.111 9.36608 13.9034C9.23037 13.8902 9.09225 13.8835 8.95327 13.8835C6.56553 13.8835 4.63037 15.8187 4.63037 18.2064C4.63037 19.9347 5.64467 21.4257 7.11076 22.1173Z" fill="white"/>
<path d="M9.14299 21.8236C8.58205 22.3829 8.23541 23.1564 8.23541 24.0111C8.23541 25.7171 9.61877 27.1004 11.3247 27.1004C11.5688 27.1004 11.8062 27.0706 12.0337 27.0176C11.9286 27.2683 11.8699 27.5447 11.8699 27.8342C11.8699 28.7385 12.4374 29.5104 13.2358 29.8132C13.7438 29.4268 14.0723 28.8154 14.0723 28.1279C14.0723 26.9588 13.1242 26.0107 11.9551 26.0107C11.9253 26.0107 11.8956 26.0123 11.8666 26.0132C12.1917 25.5242 12.3821 24.9368 12.3821 24.3047C12.3821 23.3268 11.927 22.4556 11.218 21.8889C12.4532 21.1286 13.2764 19.7634 13.2764 18.2064C13.2764 15.9576 11.5605 14.111 9.36635 13.9033C7.78119 14.5437 6.6626 16.0975 6.6626 17.9126C6.6626 19.6411 7.6769 21.1319 9.14299 21.8236Z" fill="#F4E6F4"/>
<path d="M36.9442 11.022L37.0562 11.693C37.4131 13.8316 36.3207 15.9286 34.6167 16.3764L29.637 17.6851C28.7422 17.9203 27.8652 17.2008 27.6779 16.0785C27.5963 15.5891 27.6593 15.0985 27.8342 14.6825C28.0097 14.2664 28.2975 13.9245 28.6649 13.7332L32.0559 11.9729L35.6022 10.1321C36.1732 9.83557 36.8177 10.2635 36.9442 11.022Z" fill="#C2AACF"/>
<path d="M34.0636 15.4252L29.9473 17.0255L29.7684 17.0948C29.7325 17.1091 29.6966 17.1206 29.6604 17.1301C29.0757 17.2837 28.4828 16.8555 28.3026 16.1251C28.1115 15.3494 28.4573 14.526 29.0753 14.2855L33.2333 12.6694L33.37 12.616C33.4059 12.6017 33.4417 12.5902 33.4779 12.5807C34.0626 12.427 34.6554 12.8546 34.8357 13.5857C35.0274 14.3613 34.6816 15.1847 34.0636 15.4252Z" fill="#EE6781"/>
<path d="M34.0646 15.4253L29.9482 17.0256C30.3875 15.1887 31.5907 13.5664 33.2343 12.6696L33.371 12.6163C33.4069 12.602 33.4428 12.5904 33.479 12.5809C34.0636 12.4273 34.6565 12.8549 34.8368 13.586C35.0283 14.3615 34.6825 15.1849 34.0646 15.4253Z" fill="#F4829B"/>
<path d="M36.0265 13.8834H35.7344C35.4933 13.8834 35.2859 13.6688 35.2401 13.3717L34.9908 11.7581C34.9358 11.4021 35.1302 11.0612 35.4164 11.0117L35.9578 10.9181C36.2604 10.8658 36.5301 11.1609 36.5301 11.5442V13.2513C36.5301 13.6004 36.3046 13.8834 36.0265 13.8834Z" fill="#DECEE5"/>
<path d="M3.05645 11.022L2.94449 11.693C2.5877 13.8316 3.67996 15.9287 5.38403 16.3765L10.3636 17.6851C11.2585 17.9203 12.1354 17.2008 12.3228 16.0785C12.4044 15.5891 12.3414 15.0986 12.1664 14.6826C11.991 14.2664 11.7032 13.9245 11.3358 13.7332L7.94481 11.973L4.39832 10.132C3.82746 9.83561 3.18301 10.2635 3.05645 11.022Z" fill="#A583BB"/>
<path d="M5.93639 15.4253L10.0527 17.0256L10.2316 17.0949C10.2676 17.1092 10.3034 17.1208 10.3396 17.1302C10.9243 17.2839 11.5172 16.8557 11.6974 16.1252C11.8885 15.3495 11.5427 14.5262 10.9247 14.2857L6.76654 12.6696L6.6299 12.6163C6.59397 12.602 6.55811 12.5904 6.52193 12.5809C5.93725 12.4273 5.34443 12.8549 5.16412 13.5859C4.97264 14.3615 5.31842 15.1849 5.93639 15.4253Z" fill="#DD5273"/>
<path d="M5.93635 15.4253L10.0527 17.0256C9.61338 15.1887 8.41017 13.5664 6.76658 12.6696L6.62994 12.6163C6.594 12.602 6.55814 12.5904 6.52197 12.5809C5.93728 12.4273 5.34447 12.8549 5.16416 13.586C4.9726 14.3615 5.31838 15.1849 5.93635 15.4253Z" fill="#EE6781"/>
<path d="M3.96656 13.8836H4.25859C4.49977 13.8836 4.70711 13.669 4.75297 13.3719L5.00227 11.7584C5.05727 11.4024 4.86281 11.0614 4.57664 11.012L4.03524 10.9184C3.73266 10.866 3.46289 11.1611 3.46289 11.5445V13.2516C3.46297 13.6006 3.68844 13.8836 3.96656 13.8836Z" fill="#C2AACF"/>
<path d="M29.3198 17.2138L28.5577 25.1017C28.3716 27.0228 27.296 28.6593 25.7621 29.6198C25.4411 29.82 25.1854 30.098 25.0092 30.4199C24.833 30.7417 24.737 31.1082 24.737 31.4864C24.737 32.7944 24.2067 33.9783 23.3495 34.8355C22.4924 35.6926 21.3084 36.223 20.0005 36.223C18.6925 36.223 17.5085 35.6927 16.6514 34.8355C15.7943 33.9784 15.2639 32.7944 15.2639 31.4864C15.2639 30.7302 14.88 30.0211 14.2388 29.6199C12.7049 28.6593 11.6294 27.0229 11.4432 25.1018L10.6812 17.2139C10.3403 13.6819 13.1169 10.624 16.6654 10.624H23.3355C26.8841 10.6239 29.6606 13.6818 29.3198 17.2138Z" fill="#C2AACF"/>
<path d="M29.3203 17.2129L28.5582 25.1008C28.3721 27.0219 27.2965 28.6584 25.7626 29.6189C25.4416 29.8191 25.1859 30.0971 25.0097 30.419C24.8335 30.7408 24.7375 31.1073 24.7375 31.4855C24.7375 32.7935 24.2072 33.9774 23.35 34.8346C22.4929 35.6917 21.3089 36.2221 20.001 36.2221V10.623H23.3361C26.8846 10.623 29.6611 13.6809 29.3203 17.2129Z" fill="#DECEE5"/>
<path d="M28.0193 18.4082C28.2264 19.1811 27.7738 19.9746 27.0057 20.1909C26.9995 20.1937 26.993 20.1955 26.9864 20.1972L26.0049 20.4602C25.6157 20.5645 25.2202 20.5016 24.8963 20.3145C24.5713 20.1278 24.3193 19.8179 24.2147 19.4277C24.0204 18.7026 24.407 17.9582 25.0891 17.6905C25.1406 17.6697 25.1941 17.6519 25.2485 17.6373L26.23 17.3742C26.6203 17.2697 27.015 17.334 27.3389 17.521C27.6628 17.7081 27.9147 18.018 28.0193 18.4082Z" fill="#3E4E60"/>
<path d="M28.0196 18.4073C28.2267 19.1802 27.774 19.9737 27.006 20.19C26.1606 19.9307 25.4441 19.2092 25.1823 18.232C25.1337 18.0504 25.1025 17.8689 25.0894 17.6895C25.1408 17.6687 25.1944 17.6509 25.2487 17.6363L26.2303 17.3732C26.6205 17.2687 27.0153 17.333 27.3391 17.52C27.663 17.7072 27.915 18.0171 28.0196 18.4073Z" fill="#2E3140"/>
<path d="M26.7029 17.9294L26.1123 18.0877C25.858 18.1559 25.707 18.4173 25.7751 18.6716C25.8433 18.9259 26.1047 19.0768 26.359 19.0087L26.9496 18.8504C27.2039 18.7823 27.3548 18.5209 27.2867 18.2666C27.2186 18.0122 26.9572 17.8613 26.7029 17.9294Z" fill="white"/>
<path d="M15.8455 19.4267C15.6384 20.1996 14.8496 20.6605 14.0764 20.4637C14.0696 20.4631 14.063 20.4613 14.0565 20.4596L13.0749 20.1966C12.6858 20.0923 12.3747 19.84 12.1878 19.5161C11.9996 19.1919 11.9364 18.7975 12.041 18.4073C12.2353 17.6822 12.9422 17.2309 13.6667 17.3399C13.7217 17.3477 13.777 17.359 13.8314 17.3735L14.8129 17.6366C15.2032 17.7411 15.5128 17.9942 15.6999 18.3181C15.8868 18.642 15.9501 19.0365 15.8455 19.4267Z" fill="#3E4E60"/>
<path d="M15.8451 19.4268C15.638 20.1997 14.8493 20.6605 14.076 20.4638C13.4735 19.8166 13.2138 18.8335 13.4756 17.8563C13.5243 17.6748 13.588 17.502 13.6664 17.3401C13.7214 17.3478 13.7766 17.3591 13.831 17.3737L14.8126 17.6367C15.2028 17.7413 15.5125 17.9944 15.6995 18.3183C15.8865 18.6421 15.9498 19.0366 15.8451 19.4268Z" fill="#2E3140"/>
<path d="M14.9442 18.3546L14.3536 18.1963C14.0993 18.1282 13.8379 18.2791 13.7698 18.5334C13.7016 18.7877 13.8526 19.0491 14.1069 19.1172L14.6975 19.2755C14.9518 19.3436 15.2132 19.1927 15.2813 18.9384C15.3495 18.6841 15.1985 18.4227 14.9442 18.3546Z" fill="white"/>
<path d="M21.2186 26.2135H20V20.1899H21.2186C22.2008 20.1899 22.997 20.9861 22.997 21.9683V24.4351C22.997 25.4173 22.2008 26.2135 21.2186 26.2135Z" fill="#F4E6F4"/>
<path d="M18.7818 26.2135H20.0004V20.1899H18.7818C17.7996 20.1899 17.0034 20.9861 17.0034 21.9683V24.4351C17.0034 25.4173 17.7996 26.2135 18.7818 26.2135Z" fill="#DECEE5"/>
<path d="M20.0005 31.0801C20.6997 31.0801 21.2665 29.2055 21.2665 28.5063C21.2665 27.807 20.6997 27.2402 20.0005 27.2402V31.0801Z" fill="#F4E6F4"/>
<path d="M20.0004 27.2402C19.3012 27.2402 18.7344 27.807 18.7344 28.5063C18.7344 29.2055 19.3012 31.0801 20.0004 31.0801V27.2402Z" fill="#DECEE5"/>
<path d="M25.7103 21.7703C24.975 21.7703 24.3789 22.3664 24.3789 23.1017V26.1148C24.3789 26.8501 24.975 27.4462 25.7103 27.4462C26.4456 27.4462 27.0417 26.8501 27.0417 26.1148V23.1017C27.0417 22.3664 26.4456 21.7703 25.7103 21.7703Z" fill="#F4E6F4"/>
<path d="M14.2899 21.7703C13.5546 21.7703 12.9585 22.3664 12.9585 23.1017V26.1148C12.9585 26.8501 13.5546 27.4462 14.2899 27.4462C15.0252 27.4462 15.6213 26.8501 15.6213 26.1148V23.1017C15.6212 22.3664 15.0252 21.7703 14.2899 21.7703Z" fill="#DECEE5"/>
<path d="M21.2217 31.9209C21.2217 31.743 21.2924 31.5723 21.4182 31.4464L22.4227 30.4419C22.7981 30.0666 23.4402 30.2551 23.553 30.7739L23.7714 31.7783C23.8624 32.1966 23.5438 32.592 23.1157 32.592H21.8928C21.5221 32.592 21.2217 32.2915 21.2217 31.9209Z" fill="#F4E6F4"/>
<path d="M18.7792 31.9209C18.7792 31.743 18.7085 31.5723 18.5827 31.4464L17.5782 30.4419C17.2028 30.0666 16.5607 30.2551 16.4479 30.7739L16.2294 31.7783C16.1385 32.1966 16.4571 32.592 16.8852 32.592H18.1081C18.4788 32.592 18.7792 32.2915 18.7792 31.9209Z" fill="#DECEE5"/>
<path d="M16.2253 14.3076H15.5065C14.8209 14.3076 14.2651 14.8634 14.2651 15.5489V16.2678C14.2651 16.9533 14.8209 17.5091 15.5065 17.5091H16.2253C16.9108 17.5091 17.4666 16.9533 17.4666 16.2678V15.5489C17.4665 14.8634 16.9108 14.3076 16.2253 14.3076Z" fill="#A583BB"/>
<path d="M24.4943 14.3076H23.7755C23.09 14.3076 22.5342 14.8634 22.5342 15.5489V16.2678C22.5342 16.9533 23.09 17.5091 23.7755 17.5091H24.4943C25.1799 17.5091 25.7357 16.9533 25.7357 16.2678V15.5489C25.7357 14.8634 25.18 14.3076 24.4943 14.3076Z" fill="#C2AACF"/>
<path d="M24.6843 33.2607C24.5753 33.06 24.3242 32.9852 24.1235 33.0943C24.1167 33.098 23.4317 33.4579 22.666 33.4579C22.0419 33.4579 21.3219 33.2981 20.7963 33.1814C20.6529 33.1496 20.5262 33.1215 20.4135 33.099V31.7396L22.9646 29.0778C23.1227 28.9129 23.1171 28.651 22.9522 28.4929C22.7872 28.3349 22.5253 28.3404 22.3674 28.5053L19.9998 30.9756L17.6322 28.5054C17.4742 28.3404 17.2123 28.3349 17.0474 28.493C16.8824 28.651 16.8769 28.913 17.035 29.0779L19.5861 31.7396V33.0991C19.4734 33.1216 19.3466 33.1496 19.2033 33.1814C18.6777 33.2982 17.9577 33.458 17.3336 33.458C16.5653 33.458 15.8852 33.0992 15.8753 33.0939C15.6745 32.9857 15.4241 33.0603 15.3153 33.2608C15.2063 33.4616 15.2808 33.7128 15.4817 33.8217C15.5166 33.8406 16.3478 34.2854 17.3336 34.2854C18.0484 34.2854 18.8196 34.1143 19.3826 33.9892C19.6306 33.9342 19.9117 33.8718 19.9998 33.8718C20.0879 33.8718 20.369 33.9342 20.617 33.9892C21.1799 34.1142 21.9511 34.2854 22.666 34.2854C23.6517 34.2854 24.483 33.8407 24.5179 33.8217C24.7188 33.7126 24.7932 33.4615 24.6843 33.2607Z" fill="#9175A7"/>
<path d="M31.0707 11.4488C30.6647 10.6856 29.7467 10.2069 28.8484 10.3617C29.5794 7.87473 27.1632 5.53207 24.6736 6.39621V6.39707C24.5379 6.4434 24.4064 6.49887 24.2798 6.5634C22.6351 2.85004 17.3634 2.85184 15.72 6.5634C13.1763 5.29691 10.375 7.67316 11.1515 10.3618C9.85856 10.1392 8.64544 11.1943 8.66528 12.4806C8.66528 13.6661 9.62661 14.6275 10.8114 14.6275C12.015 14.6296 12.9925 13.6291 12.9567 12.4251C14.1601 12.9916 15.7682 12.6441 16.6276 11.678C18.3828 13.5815 21.6176 13.581 23.3722 11.678C24.2313 12.644 25.8399 12.9915 27.0431 12.4251C27.0074 13.6291 27.9847 14.6295 29.1884 14.6275C30.7976 14.6507 31.8609 12.8393 31.0707 11.4488Z" fill="#F4E6F4"/>
<path d="M29.1885 10.3334C29.0726 10.3334 28.9594 10.3425 28.8484 10.3607C29.5794 7.87375 27.1633 5.53102 24.6737 6.39523V6.39609C24.5379 6.44242 24.4064 6.49789 24.2798 6.56242C22.6351 2.84906 17.3634 2.85086 15.7201 6.56242C13.1762 5.29594 10.3751 7.67227 11.1515 10.3608C10.2531 10.206 9.33529 10.6847 8.9292 11.4479C10.0341 13.3968 12.9791 12.6223 12.9567 10.3608C14.1679 10.919 15.7344 10.5984 16.6276 9.61367C18.413 11.5223 21.5872 11.5219 23.3722 9.61367C24.2651 10.5983 25.8322 10.919 27.0431 10.3608C27.021 12.6237 29.9671 13.3957 31.0707 11.4479C30.7058 10.7835 29.9993 10.3334 29.1885 10.3334Z" fill="white"/>
</svg>
