<svg width="40" height="40" viewBox="0 0 40 40" fill="none" xmlns="http://www.w3.org/2000/svg">
<path d="M20 40C31.0457 40 40 31.0457 40 20C40 8.9543 31.0457 0 20 0C8.9543 0 0 8.9543 0 20C0 31.0457 8.9543 40 20 40Z" fill="#22BCE0"/>
<path d="M27.5948 30.0727L24.6839 34.5969C24.1355 35.45 23.1901 35.9657 22.1761 35.9657H17.8245C16.8104 35.9657 15.8651 35.45 15.3167 34.5969L12.4058 30.0727C11.4722 28.6219 11.1315 26.8672 11.4542 25.1727L12.1011 21.7774C12.2269 21.1172 12.4511 20.479 12.7651 19.8852L14.6667 16.2969C15.6081 14.5204 17.4542 13.4094 19.4644 13.4094H20.5362C22.5464 13.4094 24.3925 14.5204 25.3339 16.2969L27.2354 19.8852C27.5495 20.479 27.7737 21.1172 27.8995 21.7774L28.5464 25.1727C28.869 26.8672 28.5284 28.6219 27.5948 30.0727Z" fill="#C17E62"/>
<path d="M27.5945 30.0727L24.6836 34.5969C24.1352 35.45 23.1898 35.9657 22.1758 35.9657H20V13.4094H20.5359C22.5461 13.4094 24.3922 14.5204 25.3336 16.2969L27.2352 19.8852C27.5492 20.479 27.7734 21.1172 27.8992 21.7774L28.5461 25.1727C28.8688 26.8672 28.5281 28.6219 27.5945 30.0727Z" fill="#D48D77"/>
<path d="M25.5687 26.3173C25.3539 26.4572 25.1031 26.5478 24.8305 26.5712C23.9398 26.6493 22.864 26.0157 22.7859 25.1251C22.7328 24.5103 23.1922 24.204 23.775 24.047C24.0359 23.9775 24.3219 23.9376 24.5977 23.9134C25.4883 23.836 26.2242 23.9267 26.3016 24.8173C26.3555 25.4353 26.0555 26.0025 25.5687 26.3173Z" fill="#3E4E60"/>
<path d="M25.5686 26.3173C24.5515 26.2064 23.7593 25.3446 23.7593 24.2978C23.7593 24.2126 23.7647 24.129 23.7749 24.047C24.0358 23.9775 24.3218 23.9376 24.5976 23.9134C25.4882 23.836 26.2241 23.9267 26.3015 24.8173C26.3554 25.4353 26.0554 26.0025 25.5686 26.3173Z" fill="#2E3140"/>
<path d="M25.6513 24.9801C25.6301 24.7383 25.417 24.5595 25.1752 24.5805C24.5967 24.6538 24.6695 25.4846 25.2518 25.4562C25.4935 25.435 25.6724 25.2219 25.6513 24.9801Z" fill="white"/>
<path d="M17.2138 25.1252C17.1701 25.6221 16.8162 26.0393 16.3568 26.2963C15.9927 26.501 15.563 26.6057 15.1693 26.5713C14.2787 26.4939 13.6201 25.708 13.6982 24.8174C13.7544 24.1666 14.1622 23.9432 14.7255 23.9002C14.9333 23.8838 15.1622 23.8924 15.4021 23.9135C16.2927 23.9916 17.2912 24.2346 17.2138 25.1252Z" fill="#3E4E60"/>
<path d="M17.2139 25.1252C17.1701 25.6221 16.8162 26.0392 16.3568 26.2963C15.4068 26.1267 14.6865 25.2963 14.6865 24.2978C14.6865 24.1619 14.6998 24.0291 14.7256 23.9002C14.9334 23.8838 15.1623 23.8924 15.4021 23.9135C16.2928 23.9916 17.2912 24.2346 17.2139 25.1252Z" fill="#2E3140"/>
<path d="M16.7153 25.1873C16.7364 24.9455 16.5575 24.7323 16.3157 24.7112C15.7333 24.6828 15.6607 25.5137 16.2392 25.5868C16.4809 25.6079 16.6941 25.4291 16.7153 25.1873Z" fill="white"/>
<path d="M23.0877 27.8994V32.951C23.0877 34.6158 21.7377 37.0479 20.0729 37.0479H19.926C18.2611 37.0479 16.9111 34.6158 16.9111 32.951V27.8994C16.9111 26.1939 18.2939 23.8916 19.9994 23.8916C20.8525 23.8916 21.6244 24.4674 22.183 25.2557C22.7416 26.0447 23.0877 27.0471 23.0877 27.8994Z" fill="#D48D77"/>
<path d="M23.0873 27.8994V32.951C23.0873 34.6158 21.7373 37.0479 20.0725 37.0479H19.999V23.8916C20.8521 23.8916 21.624 24.4674 22.1826 25.2557C22.7412 26.0447 23.0873 27.0471 23.0873 27.8994Z" fill="#EEA47D"/>
<path d="M22.4886 30.9134C22.4886 31.1204 22.4371 31.3329 22.3246 31.5345C22.016 32.086 21.4332 32.4282 20.8011 32.4282H19.1965C18.88 32.4282 18.5769 32.3423 18.3136 32.1884C18.0504 32.0337 17.8269 31.8103 17.673 31.5345C17.1972 30.6837 17.8121 29.6353 18.7871 29.6353H21.2105C21.9543 29.6353 22.4886 30.2454 22.4886 30.9134Z" fill="#3E4E60"/>
<path d="M22.4889 30.9134C22.4889 31.1204 22.4373 31.3329 22.3248 31.5345C22.0162 32.086 21.4334 32.4282 20.8014 32.4282H19.999V29.6353H21.2107C21.9545 29.6353 22.4889 30.2454 22.4889 30.9134Z" fill="#3F5D77"/>
<path d="M23.0487 31.0068C22.8457 31.0263 22.6966 31.2088 22.6965 31.4127C22.6962 34.3615 22.6054 34.6999 21.8252 34.6999C21.1737 34.6999 20.9155 34.6234 20.6877 34.556C20.6868 34.5557 20.6858 34.5555 20.6849 34.5552C20.51 34.5034 20.3898 34.3431 20.3898 34.1608V32.2071C20.3898 32.0031 20.2407 31.8209 20.0376 31.8015C19.8046 31.7792 19.6086 31.9619 19.6086 32.1902V34.1607C19.6086 34.3431 19.4883 34.5034 19.3135 34.5551C19.3125 34.5554 19.3116 34.5556 19.3107 34.5559C19.0828 34.6234 18.8246 34.6999 18.1732 34.6999C17.3929 34.6999 17.3022 34.3615 17.3018 31.4127C17.3018 31.2088 17.1527 31.0262 16.9496 31.0067C16.7166 30.9845 16.5205 31.1671 16.5205 31.3955C16.5205 32.8084 16.5205 33.7419 16.6919 34.3732C16.8971 35.129 17.3677 35.481 18.1731 35.481C18.9378 35.481 19.2675 35.3834 19.5323 35.305C19.6932 35.2574 19.8001 35.2259 19.995 35.2254C19.9964 35.2254 19.9976 35.2258 19.999 35.2258C20.0004 35.2258 20.0017 35.2254 20.0031 35.2254C20.198 35.2259 20.3049 35.2574 20.4657 35.305C20.7307 35.3834 21.0603 35.481 21.825 35.481C22.6303 35.481 23.101 35.129 23.3061 34.3732C23.4775 33.7419 23.4775 32.8084 23.4775 31.3955C23.4778 31.1672 23.2818 30.9845 23.0487 31.0068Z" fill="#A26D5A"/>
<path d="M19.9989 31.3564V32.1904C19.9843 32.2097 19.9688 32.2279 19.9523 32.2452C19.7093 32.5004 19.3153 32.5004 19.0677 32.2452L18.8636 32.0351L18.3762 31.5341C18.1189 31.2688 18.1028 30.8333 18.345 30.5611C18.4674 30.4237 18.6313 30.3547 18.7977 30.3547C18.9641 30.3547 19.1312 30.4237 19.2599 30.5611L19.9514 31.2996C19.9682 31.318 19.984 31.3369 19.9989 31.3564Z" fill="#151516"/>
<path d="M21.6217 31.5341L20.9302 32.2452C20.6826 32.5004 20.2886 32.5004 20.0456 32.2452C20.0291 32.2279 20.0136 32.2097 19.999 32.1904V31.3564C20.0139 31.3369 20.0296 31.318 20.0464 31.2996L20.7379 30.5611C20.8666 30.4237 21.0337 30.3547 21.2002 30.3547C21.3667 30.3547 21.5305 30.4237 21.6529 30.5611C21.8951 30.8333 21.879 31.2688 21.6217 31.5341Z" fill="#2E3140"/>
<path d="M23.5279 22.7563H16.4717C15.8022 22.7563 15.3006 22.1423 15.435 21.486L15.6787 20.2923C15.8623 19.3923 16.2022 18.5313 16.6818 17.7485L17.4123 16.5571C17.9639 15.6571 18.9436 15.1079 19.9998 15.1079C21.0561 15.1079 22.0357 15.6571 22.5873 16.5571L23.3178 17.7485C23.7975 18.5313 24.1373 19.3923 24.3209 20.2923L24.5647 21.486C24.699 22.1423 24.1975 22.7563 23.5279 22.7563Z" fill="#D48D77"/>
<path d="M23.5281 22.7563H20V15.1079C21.0563 15.1079 22.0359 15.6571 22.5875 16.5571L23.318 17.7485C23.7977 18.5313 24.1375 19.3923 24.3211 20.2923L24.5648 21.486C24.6992 22.1423 24.1977 22.7563 23.5281 22.7563Z" fill="#EEA47D"/>
<path d="M33.1593 7.17968L32.8874 8.78983L32.1882 12.9297C32.0897 13.5094 31.8718 14.0625 31.5483 14.5539L29.4014 17.8094L27.5616 20.5984L24.1842 16.5039L22.9178 14.968C22.2289 14.1326 22.198 12.9354 22.8429 12.0655L24.0773 10.4007C24.2242 10.2023 24.3796 10.0108 24.5429 9.82725C25.0812 9.21866 25.7039 8.68975 26.3945 8.25616L30.8953 5.4296C31.4226 5.09835 32.1148 5.21553 32.5031 5.70303L32.9093 6.21241C33.1264 6.48436 33.2171 6.83593 33.1593 7.17968Z" fill="#C17E62"/>
<path d="M33.1589 7.1796L32.887 8.78975L32.1878 12.9296C32.0894 13.5093 31.8714 14.0624 31.548 14.5538L29.4011 17.8093C26.6792 16.5468 24.7136 13.4733 24.5425 9.82725C25.0808 9.21866 25.7034 8.68975 26.394 8.25616L30.8948 5.4296C31.4222 5.09835 32.1144 5.21553 32.5026 5.70303L32.9089 6.21241C33.1261 6.48428 33.2167 6.83585 33.1589 7.1796Z" fill="#A26D5A"/>
<path d="M32.8874 8.78975L32.1882 12.9296C32.0897 13.5093 31.8718 14.0624 31.5483 14.5538L27.5616 20.5983L25.4474 18.0351C24.6513 17.07 24.3507 15.7889 24.6344 14.5705L25.3652 11.4318C25.5508 10.635 26.031 9.93803 26.7094 9.48092L30.779 6.7392C31.1396 6.49623 31.6306 6.6099 31.8478 6.98662L32.8874 8.78975Z" fill="white"/>
<path d="M25.4468 18.0353L26.8851 16.1242C27.2583 15.6283 27.4601 15.0245 27.4601 14.4038V12.3955C27.4601 11.5113 27.8114 10.6632 28.4367 10.0379L29.7799 8.69471C30.0383 8.43627 30.4803 8.61932 30.4803 8.98479V16.1724L27.561 20.5985L25.4468 18.0353Z" fill="#3F5D77"/>
<path d="M6.84176 7.17968L7.11364 8.78983L7.81285 12.9297C7.91129 13.5094 8.12926 14.0625 8.4527 14.5539L10.5996 17.8094L12.4394 20.5984L15.8168 16.5039L17.0832 14.968C17.7721 14.1326 17.803 12.9354 17.1581 12.0655L15.9237 10.4007C15.7768 10.2023 15.6214 10.0108 15.4581 9.82725C14.9198 9.21866 14.2972 8.68975 13.6065 8.25616L9.10574 5.4296C8.5784 5.09835 7.88621 5.21553 7.49793 5.70303L7.09168 6.21241C6.87457 6.48436 6.78395 6.83593 6.84176 7.17968Z" fill="#D48D77"/>
<path d="M6.84176 7.18057L7.11363 8.79073L7.81285 12.9306C7.91129 13.5103 8.12926 14.0634 8.4527 14.5548L10.5996 17.8103C13.3214 16.5478 15.2871 13.4743 15.4582 9.82823C14.9199 9.21963 14.2972 8.69073 13.6066 8.25713L9.10582 5.43057C8.57848 5.09932 7.88629 5.21651 7.49801 5.70401L7.09176 6.21339C6.87457 6.48526 6.78395 6.83682 6.84176 7.18057Z" fill="#A26D5A"/>
<path d="M7.11377 8.78975L7.81299 12.9296C7.91143 13.5093 8.12939 14.0624 8.45283 14.5538L12.4395 20.5983L14.5538 18.0351C15.3499 17.07 15.6505 15.7889 15.3667 14.5705L14.636 11.4318C14.4505 10.635 13.9702 9.93803 13.2917 9.48092L9.22221 6.7392C8.86158 6.49623 8.37057 6.6099 8.15338 6.98662L7.11377 8.78975Z" fill="#C2AACF"/>
<path d="M14.554 18.0353L13.1157 16.1242C12.7425 15.6283 12.5407 15.0245 12.5407 14.4038V12.3955C12.5407 11.5113 12.1894 10.6632 11.5641 10.0379L10.2209 8.69471C9.96246 8.43627 9.52051 8.61932 9.52051 8.98479V16.1724L12.4397 20.5984L14.554 18.0353Z" fill="#3E4E60"/>
</svg>
