<svg width="40" height="40" viewBox="0 0 40 40" fill="none" xmlns="http://www.w3.org/2000/svg">
<path d="M40 20C40 31.0458 31.0458 40 20 40C8.95416 40 0 31.0458 0 20C0 8.95416 8.95416 0 20 0C31.0458 0 40 8.95416 40 20Z" fill="#F73B6C"/>
<path d="M13.3066 23.6953H25.8781V32.8381H13.3066V23.6953Z" fill="#512375"/>
<path d="M29.8529 35.1234V37.4082C28.678 38.0735 27.4298 38.6252 26.1221 39.0443C25.9866 39.0882 25.8511 39.13 25.7141 39.1706C25.2054 39.3226 24.6878 39.4547 24.1629 39.5649C23.9328 39.614 23.7018 39.6589 23.4689 39.6989C22.3416 39.8972 21.1826 40.0001 19.9997 40.0001C18.8168 40.0001 17.6578 39.8972 16.5305 39.6998C16.2976 39.6598 16.0666 39.6146 15.8365 39.5658C15.2267 39.4367 14.6283 39.2802 14.0405 39.0974C14.0079 39.0867 13.9752 39.0769 13.9426 39.0662C13.9206 39.0595 13.8992 39.0522 13.8773 39.0449C12.5702 38.6262 11.3214 38.0744 10.1465 37.4082V35.1234C10.1465 32.3667 11.647 29.9601 13.8773 28.6777C14.4821 28.3289 15.1401 28.0637 15.8365 27.8971C16.2045 27.8083 16.5833 27.7469 16.9711 27.7161C17.1719 27.6996 17.3743 27.6914 17.5793 27.6914H22.4194C22.9916 27.6914 23.5483 27.7552 24.0829 27.8776C24.1098 27.8843 24.137 27.8898 24.1629 27.8965C24.8593 28.0637 25.5173 28.3289 26.1221 28.6777C28.3514 29.961 29.8529 32.3673 29.8529 35.1234Z" fill="#BF7C5E"/>
<path d="M29.8537 35.1234V37.4082C27.0861 38.9789 23.9067 39.9079 20.5172 39.9937C20.345 39.9976 20.1735 40.0001 20.0005 40.0001C19.8275 40.0001 19.6553 39.9976 19.4838 39.9927C17.5563 39.9445 15.6975 39.6229 13.9434 39.0662V35.1234C13.9434 31.0187 17.2716 27.6914 21.3768 27.6914H22.4202C26.5261 27.6914 29.8537 31.0187 29.8537 35.1234Z" fill="#D39272"/>
<path d="M22.6513 24.8281V28.0825C22.6513 29.2739 21.8658 30.281 20.7836 30.6155C20.5361 30.6924 20.2722 30.7339 19.999 30.7339C18.5348 30.7339 17.3477 29.5471 17.3477 28.0825V24.8281H22.6513Z" fill="#BF7C5E"/>
<path d="M22.6509 27.8765V28.0825C22.6509 29.2739 21.8654 30.2809 20.7832 30.6154C19.8073 30.3154 19.073 29.4664 18.9375 28.4279C19.1145 28.4386 19.2927 28.4441 19.4716 28.4441C19.9733 28.4441 20.4652 28.4044 20.9443 28.3257C21.5345 28.2308 22.1049 28.0788 22.6509 27.8765Z" fill="#D39272"/>
<path d="M12.6058 19.4949C12.6058 20.7224 11.7092 21.7404 10.5349 21.9293C10.4067 21.9501 10.2745 21.9608 10.14 21.9608C8.77765 21.9608 7.67383 20.8572 7.67383 19.4949C7.67383 18.1326 8.77765 17.0288 10.14 17.0288C10.2745 17.0288 10.4067 17.0398 10.5349 17.0605C11.7092 17.2495 12.6058 18.2672 12.6058 19.4949Z" fill="#D39272"/>
<path d="M12.6051 19.4949C12.6051 20.7224 11.7085 21.7404 10.5342 21.9293C10.3209 21.1536 10.207 20.3372 10.207 19.4949C10.207 18.6523 10.3209 17.836 10.5342 17.0605C11.7085 17.2495 12.6051 18.2672 12.6051 19.4949Z" fill="#BF7C5E"/>
<path d="M11.0215 19.4949C11.0215 19.9816 10.6269 20.3762 10.1401 20.3762C9.65338 20.3762 9.25879 19.9816 9.25879 19.4949C9.25879 19.0081 9.65338 18.6135 10.1401 18.6135C10.6269 18.6135 11.0215 19.0081 11.0215 19.4949Z" fill="#BF7C5E"/>
<path d="M27.3936 19.4949C27.3936 20.7224 28.2905 21.7404 29.4648 21.9293C29.593 21.9501 29.7251 21.9608 29.8597 21.9608C31.222 21.9608 32.3258 20.8572 32.3258 19.4949C32.3258 18.1326 31.222 17.0288 29.8597 17.0288C29.7251 17.0288 29.593 17.0398 29.4648 17.0605C28.2905 17.2495 27.3936 18.2672 27.3936 19.4949Z" fill="#D39272"/>
<path d="M27.3936 19.4949C27.3936 20.7224 28.2905 21.7404 29.4648 21.9293C29.6778 21.1536 29.7919 20.3372 29.7919 19.4949C29.7919 18.6523 29.6781 17.836 29.4648 17.0605C28.2905 17.2495 27.3936 18.2672 27.3936 19.4949Z" fill="#BF7C5E"/>
<path d="M30.7412 19.4949C30.7412 19.9816 30.3466 20.3762 29.8599 20.3762C29.3731 20.3762 28.9785 19.9816 28.9785 19.4949C28.9785 19.0081 29.3731 18.6135 29.8599 18.6135C30.3466 18.6135 30.7412 19.0081 30.7412 19.4949Z" fill="#BF7C5E"/>
<path d="M29.1744 14.6906V18.1845C29.1744 22.7502 25.8389 26.5381 21.4715 27.2409C21.4568 27.2433 21.4413 27.2458 21.4266 27.2482C20.9622 27.3224 20.4855 27.3593 19.9987 27.3593C14.9319 27.3593 10.8242 23.2513 10.8242 18.1845V14.6906C10.8242 13.6237 11.0061 12.5983 11.3424 11.6458C12.5973 8.07495 15.9997 5.51514 19.9987 5.51514H19.9996C20.4855 5.51514 20.9628 5.55267 21.4282 5.62622C25.8169 6.31195 29.1744 10.1093 29.1744 14.6906Z" fill="#BF7C5E"/>
<path d="M29.1748 14.6906V18.1845C29.1748 22.7502 25.8392 26.5381 21.4719 27.2409C21.4572 27.2433 21.4417 27.2458 21.427 27.2482C17.0383 26.5625 13.6816 22.7649 13.6816 18.1845V14.6906C13.6816 10.1093 17.0392 6.31195 21.4285 5.62622C25.8173 6.31195 29.1748 10.1093 29.1748 14.6906Z" fill="#D39272"/>
<path d="M26.2448 20.5936C26.2448 21.2247 25.733 21.7365 25.1019 21.7365C24.4708 21.7365 23.959 21.2247 23.959 20.5936C23.959 19.9622 24.4708 19.4507 25.1019 19.4507C25.733 19.4507 26.2448 19.9622 26.2448 20.5936Z" fill="#BF7C5E"/>
<path d="M16.0406 20.5936C16.0406 21.2247 15.5292 21.7365 14.8978 21.7365C14.2667 21.7365 13.7549 21.2247 13.7549 20.5936C13.7549 19.9622 14.2667 19.4507 14.8978 19.4507C15.5292 19.4507 16.0406 19.9622 16.0406 20.5936Z" fill="#BF7C5E"/>
<path d="M24.9272 17.4097C24.9272 16.5681 24.2451 15.886 23.4034 15.886C22.5618 15.886 21.8794 16.5681 21.8794 17.4097" fill="#BF7C5E"/>
<path d="M18.121 17.4097C18.121 16.5681 17.439 15.886 16.5973 15.886C15.7556 15.886 15.0732 16.5681 15.0732 17.4097" fill="#BF7C5E"/>
<path d="M17.6373 18.0585C17.6373 18.6332 17.1713 19.0992 16.5966 19.0992C16.0217 19.0992 15.5557 18.6332 15.5557 18.0585C15.5557 17.4836 16.0217 17.0176 16.5966 17.0176C17.1713 17.0176 17.6373 17.4836 17.6373 18.0585Z" fill="#2F373B"/>
<path d="M24.4442 18.0585C24.4442 18.6332 23.9782 19.0992 23.4033 19.0992C22.8283 19.0992 22.3623 18.6332 22.3623 18.0585C22.3623 17.4836 22.8283 17.0176 23.4033 17.0176C23.9782 17.0176 24.4442 17.4836 24.4442 18.0585Z" fill="#2F373B"/>
<path d="M21.0403 20.6789H18.9587C18.7109 20.6789 18.5098 20.4778 18.5098 20.23C18.5098 19.9819 18.7109 19.7808 18.9587 19.7808H21.0403C21.2884 19.7808 21.4892 19.9819 21.4892 20.23C21.4892 20.4778 21.2884 20.6789 21.0403 20.6789Z" fill="#BF7C5E"/>
<path d="M20.0002 23.5197C19.2318 23.5197 18.4637 23.3272 17.7633 22.942C17.5658 22.8337 17.4938 22.5856 17.6022 22.3878C17.7108 22.1904 17.9592 22.1183 18.1567 22.2267C19.3111 22.8615 20.6893 22.8615 21.8438 22.2267C22.0412 22.1183 22.2894 22.1904 22.398 22.3878C22.5066 22.5856 22.4346 22.8337 22.2372 22.942C21.5368 23.3272 20.7684 23.5197 20.0002 23.5197Z" fill="#BF7C5E"/>
<path d="M17.4252 17.8749C17.4252 18.1212 17.2256 18.3207 16.9791 18.3207C16.7328 18.3207 16.5332 18.1212 16.5332 17.8749C16.5332 17.6286 16.7328 17.4287 16.9791 17.4287C17.2256 17.4287 17.4252 17.6286 17.4252 17.8749Z" fill="white"/>
<path d="M24.2827 17.8749C24.2827 18.1212 24.0828 18.3207 23.8365 18.3207C23.5902 18.3207 23.3906 18.1212 23.3906 17.8749C23.3906 17.6286 23.5902 17.4287 23.8365 17.4287C24.0828 17.4287 24.2827 17.6286 24.2827 17.8749Z" fill="white"/>
<path d="M20.3854 5.70604C20.335 5.91661 20.202 6.09789 20.0207 6.20958C20.014 6.21355 20.0076 6.21782 20.0002 6.22087C19.9789 6.234 19.9578 6.24559 19.9349 6.25536C19.8443 6.29778 19.7439 6.32372 19.6377 6.32951C12.2793 6.74577 11.2655 11.266 11.2655 16.0887C11.2655 16.5395 10.8999 16.9051 10.4492 16.9051C9.99841 16.9051 9.63281 16.5395 9.63281 16.0887C9.63281 13.8902 9.815 11.0756 11.2368 8.80388C12.7389 6.4055 15.3732 5.03649 19.0728 4.73375C19.1903 4.72307 19.3087 4.71483 19.4286 4.70751C19.4671 4.70506 19.5062 4.70262 19.5455 4.70018C19.7112 4.69042 19.8672 4.73039 20.0002 4.80638C20.2303 4.93944 20.3903 5.18358 20.4067 5.46922C20.4116 5.55071 20.4034 5.63066 20.3854 5.70604Z" fill="#673389"/>
<path d="M20.7636 4.98674C20.6672 5.24217 20.539 5.48143 20.3855 5.70604C20.2714 5.87419 20.1423 6.03411 20.0004 6.18669C19.9936 6.19402 19.9863 6.20226 19.979 6.20958C19.9653 6.22515 19.9506 6.23979 19.9351 6.25536C19.1154 7.10924 17.9154 7.74431 16.7432 8.36473C14.766 9.41118 12.8983 10.3996 12.8983 12.1736V32.2554C12.8983 32.7059 12.5324 33.0718 12.082 33.0718C11.6312 33.0718 11.2656 32.7059 11.2656 32.2554V12.1736C11.2656 9.41698 13.7702 8.0913 15.9791 6.92156C17.2959 6.22423 18.5489 5.56139 19.0729 4.73375C19.1904 4.72307 19.3088 4.71483 19.4288 4.70751C19.4672 4.70506 19.5063 4.70262 19.5456 4.70018C19.7114 4.69042 19.8673 4.73039 20.0004 4.80638C20.1334 4.73039 20.2894 4.69042 20.4542 4.70018C20.4932 4.70262 20.5317 4.70506 20.571 4.70751C20.7194 4.78349 20.8051 4.87566 20.7636 4.98674Z" fill="#512375"/>
<path d="M26.1837 37.3282V39.0244C24.2369 39.658 22.1584 40.0001 20.0002 40.0001C17.8884 40.0001 15.8541 39.6726 13.9431 39.0662C13.9006 39.0531 13.8588 39.0391 13.8164 39.0253V37.3282C13.8164 35.5021 15.2965 34.022 17.1227 34.022C18.3568 34.022 19.4319 34.6989 20.0002 35.7014C20.5684 34.6989 21.6432 34.022 22.8777 34.022C24.7039 34.022 26.1837 35.5021 26.1837 37.3282Z" fill="#FFE05C"/>
<path d="M10.4492 36.1704C9.99841 36.1704 9.63281 35.8051 9.63281 35.354V16.0889C9.63281 12.4863 13.1686 10.3168 16.0098 8.57365C17.424 7.70573 19.1836 6.62602 19.1836 5.96623C19.1836 5.51549 20.8163 5.51549 20.8163 5.96623C20.8163 7.53972 19.0719 8.60997 16.8636 9.96526C14.2397 11.5754 11.2655 13.4003 11.2655 16.0889V35.3544C11.2655 35.8048 10.8999 36.1704 10.4492 36.1704Z" fill="#673389"/>
<path d="M12.082 36.9866C11.6312 36.9866 11.2656 36.6213 11.2656 36.1703V16.0888C11.2656 13.4454 13.8782 11.7697 16.1835 10.2911C17.5898 9.38928 19.1837 8.36694 19.1837 7.59882C19.1837 7.14807 19.5493 6.78247 20.0001 6.78247C20.4508 6.78247 20.8164 7.14807 20.8164 7.59882C20.8164 9.25928 18.9942 10.8364 17.0649 12.0736C15.1118 13.3264 12.8983 14.338 12.8983 16.0888V36.1706C12.8983 36.6213 12.5327 36.9866 12.082 36.9866Z" fill="#512375"/>
<path d="M13.6816 37.4914C13.2308 37.4914 12.8652 37.1258 12.8652 36.675V16.5933C12.8652 13.9117 15.111 12.687 16.9152 11.7028C18.3267 10.9332 19.1836 10.4168 19.1836 9.73627C19.1836 9.28522 19.5492 8.91992 19.9999 8.91992C20.4507 8.91992 20.8163 9.28522 20.8163 9.73627C20.8163 11.4352 19.2306 12.2997 17.6968 13.1362C15.7644 14.19 14.4979 15.0002 14.4979 16.5933V36.675C14.4979 37.1258 14.1323 37.4914 13.6816 37.4914Z" fill="#673389"/>
<path d="M30.368 16.0887C30.368 16.5395 30.0021 16.9051 29.5517 16.9051C29.1 16.9051 28.7353 16.5395 28.7353 16.0887C28.7353 16.0137 28.7353 15.9377 28.7344 15.8626C28.7018 11.1254 27.6056 6.73937 20.3622 6.32951C20.256 6.32372 20.1556 6.29778 20.065 6.25536C20.043 6.24559 20.0216 6.234 20.0006 6.22087C19.9933 6.21782 19.9866 6.21355 19.9792 6.20958C19.798 6.09697 19.6649 5.91661 19.6145 5.70604C19.5965 5.63005 19.5883 5.55071 19.5932 5.46922C19.6097 5.18266 19.7696 4.93944 20.0006 4.80638C20.1336 4.73039 20.2896 4.69042 20.4544 4.70018C20.4935 4.70262 20.5319 4.70506 20.5713 4.70751C20.6912 4.71483 20.8096 4.72307 20.9271 4.73375C24.6268 5.03649 27.2616 6.4055 28.7637 8.80388C30.1849 11.0756 30.368 13.8902 30.368 16.0887Z" fill="#673389"/>
<path d="M28.734 12.1736V32.2554C28.734 32.7059 28.369 33.0718 27.9177 33.0718C27.4669 33.0718 27.1013 32.7059 27.1013 32.2554V12.1736C27.1013 10.3996 25.2337 9.41118 23.2564 8.36473C22.0852 7.74431 20.8849 7.10924 20.0646 6.25536C20.0499 6.23979 20.0353 6.22515 20.0206 6.20958C20.0139 6.20226 20.0066 6.19402 20.0002 6.18669C19.858 6.03411 19.7283 5.87419 19.6142 5.70604C19.4606 5.48143 19.3325 5.24217 19.236 4.98674C19.1945 4.87566 19.2803 4.78349 19.4286 4.70751C19.4671 4.70506 19.5061 4.70262 19.5455 4.70018C19.7112 4.69042 19.8671 4.73039 20.0002 4.80638C20.1333 4.73039 20.2892 4.69042 20.454 4.70018C20.4931 4.70262 20.5315 4.70506 20.5709 4.70751C20.6908 4.71483 20.8092 4.72307 20.9267 4.73375C21.4516 5.56139 22.7037 6.22423 24.0206 6.92156C26.2304 8.0913 28.734 9.41698 28.734 12.1736Z" fill="#512375"/>
<path d="M29.5507 36.1704C30.0015 36.1704 30.3671 35.8051 30.3671 35.354V16.0889C30.3671 12.4863 26.8313 10.3168 23.9901 8.57365C22.5759 7.70573 20.8163 6.62602 20.8163 5.96623C20.8163 5.51549 19.1836 5.51549 19.1836 5.96623C19.1836 7.53972 20.928 8.60997 23.1362 9.96526C25.7601 11.5754 28.7344 13.4003 28.7344 16.0889V35.3544C28.7344 35.8048 29.1 36.1704 29.5507 36.1704Z" fill="#673389"/>
<path d="M27.918 36.9866C28.3688 36.9866 28.7344 36.6213 28.7344 36.1703V16.0888C28.7344 13.4454 26.1218 11.7697 23.8165 10.2911C22.4102 9.38928 20.8163 8.36694 20.8163 7.59882C20.8163 7.14807 20.4507 6.78247 19.9999 6.78247C19.5492 6.78247 19.1836 7.14807 19.1836 7.59882C19.1836 9.25928 21.0058 10.8364 22.9351 12.0736C24.8882 13.3264 27.1017 14.338 27.1017 16.0888V36.1706C27.1017 36.6213 27.4673 36.9866 27.918 36.9866Z" fill="#512375"/>
<path d="M26.3183 37.4914C26.769 37.4914 27.1346 37.1258 27.1346 36.675V16.5933C27.1346 13.9117 24.8892 12.687 23.0847 11.7028C21.6732 10.9332 20.8163 10.4168 20.8163 9.73627C20.8163 9.28522 20.4507 8.91992 19.9999 8.91992C19.5492 8.91992 19.1836 9.28522 19.1836 9.73627C19.1836 11.4352 20.7693 12.2997 22.3031 13.1362C24.2355 14.19 25.502 15.0002 25.502 16.5933V36.675C25.502 37.1258 25.8676 37.4914 26.3183 37.4914Z" fill="#673389"/>
</svg>
