<svg width="40" height="40" viewBox="0 0 40 40" fill="none" xmlns="http://www.w3.org/2000/svg">
<path d="M40 20C40 31.0458 31.0458 40 20 40C8.95416 40 0 31.0458 0 20C0 8.95416 8.95416 0 20 0C31.0458 0 40 8.95416 40 20Z" fill="#27BA9E"/>
<path d="M29.8534 35.1234V37.4082C27.8572 38.5413 25.6469 39.3397 23.2982 39.7291C22.7944 39.8124 22.285 39.8777 21.7699 39.9225C21.4492 39.9512 21.126 39.9714 20.8 39.9839C20.5349 39.9952 20.2678 40.0001 20.0002 40.0001C19.4026 40.0001 18.8124 39.9738 18.2286 39.9225C16.7479 39.7928 15.3136 39.5014 13.9431 39.0662C12.6125 38.6442 11.3414 38.0857 10.147 37.4082V35.1234C10.147 31.6849 12.4819 28.7919 15.6533 27.9438C15.7692 27.9127 15.8858 27.8843 16.0042 27.8589C16.3195 27.7903 16.6426 27.743 16.9716 27.7161C17.1724 27.6996 17.3748 27.6914 17.5798 27.6914H22.4199C22.961 27.6914 23.4883 27.7488 23.9962 27.8589C24.0255 27.8644 24.0547 27.8712 24.0834 27.8776C24.1692 27.8971 24.2549 27.9185 24.3389 27.9413C24.3413 27.942 24.3431 27.942 24.3456 27.9429C25.1824 28.1666 25.9609 28.5331 26.6533 29.014C28.5872 30.3559 29.8534 32.5919 29.8534 35.1234Z" fill="#2F373B"/>
<path d="M24.3636 27.8589L24.3456 27.9428L21.7699 39.9225C21.187 39.9738 20.5962 40 20.0002 40C19.4026 40 18.8124 39.9738 18.2286 39.9225L15.6533 27.9437L15.6353 27.8589H24.3636Z" fill="#F2EFEA"/>
<path d="M19.9993 30.7339L16.6533 32.5937L15.6353 27.8589L17.7144 26.6345" fill="#D8D4CE"/>
<path d="M19.999 30.7339L23.3453 32.5937L24.363 27.8589L22.2839 26.6345" fill="#D8D4CE"/>
<path d="M22.6513 24.8286V28.0827C22.6513 29.2741 21.8658 30.2812 20.7836 30.6157C20.5361 30.6926 20.2722 30.7341 19.999 30.7341C18.5345 30.7341 17.3477 29.5472 17.3477 28.0827V24.8286H22.6513Z" fill="#EAA27F"/>
<path d="M22.6514 27.8765V28.0828C22.6514 29.2742 21.8658 30.2812 20.7837 30.6154C19.8074 30.3154 19.0735 29.4667 18.938 28.4279C19.115 28.4389 19.2932 28.4441 19.472 28.4441C19.9738 28.4441 20.4657 28.4044 20.9445 28.3257C21.535 28.2308 22.1054 28.0791 22.6514 27.8765Z" fill="#F6BA97"/>
<path d="M26.6531 29.014L24.4897 34.248H25.5511L23.298 39.729C22.7941 39.8123 22.2848 39.8776 21.7697 39.9225C21.4489 39.9512 21.1257 39.9713 20.7998 39.9838L24.3386 27.9413L24.3633 27.8589L26.6531 29.014Z" fill="#151A1C"/>
<path d="M13.3208 29.014L15.4839 34.248H14.4228L16.6759 39.729C17.1794 39.8123 17.6888 39.8776 18.2039 39.9225C18.5247 39.9512 18.8481 39.9713 19.1738 39.9838L15.6349 27.9413L15.6105 27.8589L13.3208 29.014Z" fill="#151A1C"/>
<path d="M20.0005 30.6417L17.0385 28.9318C16.6638 28.7151 16.1953 28.9858 16.1953 29.4185V31.8648C16.1953 32.2975 16.6638 32.5679 17.0385 32.3515L20.0005 30.6417Z" fill="#F73B6C"/>
<path d="M20.0005 30.6417L22.9622 28.9318C23.337 28.7151 23.8054 28.9858 23.8054 29.4185V31.8648C23.8054 32.2975 23.337 32.5679 22.9622 32.3515L20.0005 30.6417Z" fill="#F73B6C"/>
<path d="M20.7341 33.2465C20.7341 33.6524 20.4051 33.9811 19.9992 33.9811C19.5936 33.9811 19.2646 33.6524 19.2646 33.2465C19.2646 32.8406 19.5936 32.512 19.9992 32.512C20.4051 32.512 20.7341 32.8406 20.7341 33.2465Z" fill="#151A1C"/>
<path d="M20.7341 37.2595C20.7341 37.6653 20.4051 37.994 19.9992 37.994C19.5936 37.994 19.2646 37.6653 19.2646 37.2595C19.2646 36.8536 19.5936 36.5249 19.9992 36.5249C20.4051 36.5249 20.7341 36.8536 20.7341 37.2595Z" fill="#151A1C"/>
<path d="M21.1953 30.6704C21.1953 31.3378 20.6542 31.8789 19.9868 31.8789C19.3194 31.8789 18.7783 31.3378 18.7783 30.6704C18.7783 30.003 19.3194 29.4619 19.9868 29.4619C20.6542 29.4619 21.1953 30.003 21.1953 30.6704Z" fill="#F73B6C"/>
<path d="M12.7254 19.4946C12.7254 20.7224 11.8288 21.7401 10.6545 21.929C10.5263 21.9501 10.3942 21.9608 10.2596 21.9608C8.89728 21.9608 7.79346 20.8569 7.79346 19.4946C7.79346 18.1326 8.89728 17.0288 10.2596 17.0288C10.3942 17.0288 10.5263 17.0395 10.6545 17.0605C11.8288 17.2495 12.7254 18.2672 12.7254 19.4946Z" fill="#F6BA97"/>
<path d="M12.7257 19.4946C12.7257 20.7224 11.8291 21.7401 10.6548 21.929C10.4415 21.1536 10.3276 20.3372 10.3276 19.4946C10.3276 18.6523 10.4415 17.836 10.6548 17.0605C11.8291 17.2495 12.7257 18.2672 12.7257 19.4946Z" fill="#EAA27F"/>
<path d="M11.1409 19.4946C11.1409 19.9817 10.7463 20.3763 10.2596 20.3763C9.77283 20.3763 9.37793 19.9817 9.37793 19.4946C9.37793 19.0079 9.77283 18.6133 10.2596 18.6133C10.7463 18.6133 11.1409 19.0079 11.1409 19.4946Z" fill="#EAA27F"/>
<path d="M27.2739 19.4946C27.2739 20.7224 28.1705 21.7401 29.3448 21.929C29.4733 21.9501 29.6052 21.9608 29.7401 21.9608C31.1024 21.9608 32.2059 20.8569 32.2059 19.4946C32.2059 18.1326 31.1024 17.0288 29.7401 17.0288C29.6052 17.0288 29.4733 17.0395 29.3448 17.0605C28.1705 17.2495 27.2739 18.2672 27.2739 19.4946Z" fill="#F6BA97"/>
<path d="M27.2739 19.4946C27.2739 20.7224 28.1705 21.7401 29.3448 21.929C29.5582 21.1536 29.6723 20.3372 29.6723 19.4946C29.6723 18.6523 29.5585 17.836 29.3448 17.0605C28.1705 17.2495 27.2739 18.2672 27.2739 19.4946Z" fill="#EAA27F"/>
<path d="M30.6214 19.4946C30.6214 19.9817 30.2268 20.3763 29.7397 20.3763C29.253 20.3763 28.8584 19.9817 28.8584 19.4946C28.8584 19.0079 29.253 18.6133 29.7397 18.6133C30.2268 18.6133 30.6214 19.0079 30.6214 19.4946Z" fill="#EAA27F"/>
<path d="M29.1752 18.1839C29.1752 22.7499 25.8397 26.5375 21.4726 27.2409C20.9935 27.3193 20.5015 27.3593 19.9998 27.3593C14.9324 27.3593 10.8247 23.2516 10.8247 18.1839C10.8247 13.1165 14.9324 9.00879 19.9998 9.00879C20.5015 9.00879 20.9935 9.04846 21.4726 9.1272C25.8397 9.83032 29.1752 13.6182 29.1752 18.1839Z" fill="#EAA27F"/>
<path d="M29.1753 18.1839C29.1753 22.7499 25.8397 26.5375 21.4727 27.2409C17.1056 26.5375 13.77 22.7499 13.77 18.1839C13.77 15.3726 15.0347 12.8561 17.0269 11.1728C18.2689 10.1224 19.7948 9.39728 21.4727 9.1272C25.544 9.78241 28.7197 13.1198 29.1301 17.2693C29.16 17.5702 29.1753 17.8757 29.1753 18.1839Z" fill="#F6BA97"/>
<path d="M19.9996 22.703C19.2315 22.703 18.4631 22.5107 17.763 22.1256C17.5653 22.0169 17.4932 21.7688 17.6019 21.5714C17.7105 21.3736 17.9586 21.3016 18.1561 21.4102C19.3105 22.045 20.689 22.0447 21.8435 21.4102C22.0406 21.3016 22.2891 21.3736 22.3977 21.5714C22.5063 21.7688 22.434 22.0169 22.2366 22.1256C21.5365 22.5107 20.7681 22.703 19.9996 22.703Z" fill="#EAA27F"/>
<path d="M29.1299 17.2692L27.0443 17.915L26.8917 16.9003L26.7684 16.0806L26.1831 12.1884H19.2263L16.9888 11.1532C18.2345 10.1004 19.765 9.37282 21.4483 9.10182C24.9072 9.65876 26.4794 7.0724 27.5103 10.3485C27.5912 10.6073 28.4319 9.1418 28.4899 9.40974C28.5668 9.7549 29.0948 16.91 29.1299 17.2692Z" fill="#151A1C"/>
<path d="M28.731 4.17285C30.9444 6.38629 30.9444 9.97485 28.731 12.188C26.5175 14.4014 22.9293 14.4014 20.7158 12.188L28.731 4.17285Z" fill="#2F373B"/>
<path d="M20.7155 12.1882H13.7596L12.8981 17.9151L10.8125 17.2694L11.092 11.6578C11.2401 8.68937 13.6958 6.3621 16.6676 6.37309L26.7137 6.41093L28.0418 8.80167" fill="#2F373B"/>
<path d="M20.5367 6.38773C17.7572 6.5864 15.5255 8.83158 15.3842 11.6581L15.3579 12.1885H13.7591L12.8976 17.9151L10.812 17.2694L11.0922 11.6581C11.2399 8.68906 13.6956 6.3624 16.6674 6.37308L20.5367 6.38773Z" fill="#151A1C"/>
<path d="M18.0455 17.6501C18.0455 18.2247 17.5798 18.6907 17.0048 18.6907C16.4299 18.6907 15.9639 18.2247 15.9639 17.6501C15.9639 17.0751 16.4299 16.6091 17.0048 16.6091C17.5798 16.6091 18.0455 17.0751 18.0455 17.6501Z" fill="#2F373B"/>
<path d="M24.0355 17.6501C24.0355 18.2247 23.5695 18.6907 22.9946 18.6907C22.4196 18.6907 21.9536 18.2247 21.9536 17.6501C21.9536 17.0751 22.4196 16.6091 22.9946 16.6091C23.5695 16.6091 24.0355 17.0751 24.0355 17.6501Z" fill="#2F373B"/>
<path d="M17.8336 17.4664C17.8336 17.7127 17.634 17.9123 17.3878 17.9123C17.1415 17.9123 16.9419 17.7127 16.9419 17.4664C16.9419 17.2202 17.1415 17.0203 17.3878 17.0203C17.634 17.0203 17.8336 17.2202 17.8336 17.4664Z" fill="white"/>
<path d="M23.8745 17.4664C23.8745 17.7127 23.6749 17.9123 23.4283 17.9123C23.182 17.9123 22.9824 17.7127 22.9824 17.4664C22.9824 17.2202 23.182 17.0203 23.4283 17.0203C23.6749 17.0203 23.8745 17.2202 23.8745 17.4664Z" fill="white"/>
<path d="M21.0408 20.2707H18.9592C18.7111 20.2707 18.5103 20.0696 18.5103 19.8218C18.5103 19.5737 18.7111 19.3726 18.9592 19.3726H21.0408C21.2889 19.3726 21.4897 19.5737 21.4897 19.8218C21.4897 20.0696 21.2889 20.2707 21.0408 20.2707Z" fill="#EAA27F"/>
</svg>
