<svg width="40" height="40" viewBox="0 0 40 40" fill="none" xmlns="http://www.w3.org/2000/svg">
<path d="M20 40C31.0457 40 40 31.0457 40 20C40 8.9543 31.0457 0 20 0C8.9543 0 0 8.9543 0 20C0 31.0457 8.9543 40 20 40Z" fill="#22BCE0"/>
<path d="M24.3881 24.5436C24.1591 24.7725 23.7881 24.7727 23.5593 24.5436L21.6929 22.6772L22.5217 21.8484L24.3881 23.7148C24.62 23.9453 24.6128 24.3208 24.3881 24.5436Z" fill="#C0405C"/>
<path d="M24.5193 24.3413C24.3053 24.4239 24.0614 24.3774 23.8928 24.2096L22.0264 22.3432L22.5211 21.8484L24.3875 23.7148C24.5572 23.8843 24.6008 24.1318 24.5193 24.3413Z" fill="#DD5273"/>
<path d="M23.5796 23.8955L22.5493 22.8653C22.3254 22.6274 22.6606 22.2912 22.8992 22.5154L23.9294 23.5457C24.026 23.6422 24.026 23.7989 23.9294 23.8955C23.8328 23.9922 23.6762 23.9922 23.5796 23.8955Z" fill="#EE6781"/>
<path d="M24.9384 23.9588H26.8534C27.3739 23.979 27.3708 24.7231 26.8534 24.7417H24.9384C24.8305 24.7417 24.7327 24.6979 24.662 24.6269C24.4182 24.392 24.5902 23.9552 24.9384 23.9588Z" fill="#C0405C"/>
<path d="M24.9385 23.9587H26.8535C27.0155 23.9587 27.1547 24.0573 27.2144 24.1974C27.1547 24.3374 27.0155 24.4361 26.8535 24.4361H24.9385C24.7778 24.4358 24.6397 24.3397 24.5781 24.1974C24.6377 24.0573 24.7766 23.9587 24.9385 23.9587Z" fill="#DD5273"/>
<path d="M26.7028 24.2807C26.7028 24.3666 26.6332 24.4362 26.5473 24.4362H25.2189C25.1331 24.4362 25.0635 24.3666 25.0635 24.2807C25.0635 24.1949 25.1331 24.1252 25.2189 24.1252H26.5474C26.6332 24.1252 26.7028 24.1949 26.7028 24.2807Z" fill="#EE6781"/>
<path d="M27.9272 24.1368L29.2812 25.4909C29.635 25.8733 29.1066 26.3972 28.7276 26.0445L27.3736 24.6904C27.2972 24.6141 27.259 24.514 27.2593 24.4138C27.253 24.0754 27.6835 23.8882 27.9272 24.1368Z" fill="#C0405C"/>
<path d="M27.9269 24.1369L29.281 25.491C29.3955 25.6055 29.4242 25.7736 29.3674 25.9149C29.2262 25.9717 29.058 25.943 28.9435 25.8285L27.5894 24.4744C27.476 24.3607 27.4463 24.195 27.5033 24.0508C27.6445 23.994 27.8124 24.0225 27.9269 24.1369Z" fill="#DD5273"/>
<path d="M28.9465 25.612C28.8857 25.6727 28.7873 25.6727 28.7266 25.612L27.7872 24.6726C27.7265 24.6119 27.7265 24.5135 27.7872 24.4528C27.8479 24.3921 27.9464 24.3921 28.0071 24.4528L28.9465 25.3921C29.0072 25.4528 29.0072 25.5513 28.9465 25.612Z" fill="#EE6781"/>
<path d="M15.6112 24.5436C15.8402 24.7725 16.2112 24.7727 16.44 24.5436L18.3064 22.6772L17.4776 21.8484L15.6112 23.7148C15.3793 23.9453 15.3865 24.3208 15.6112 24.5436Z" fill="#C0405C"/>
<path d="M15.4797 24.3413C15.6938 24.4239 15.9376 24.3774 16.1063 24.2096L17.9727 22.3432L17.4779 21.8484L15.6115 23.7148C15.4418 23.8843 15.3982 24.1318 15.4797 24.3413Z" fill="#DD5273"/>
<path d="M16.4198 23.8955L17.4501 22.8653C17.674 22.6274 17.3388 22.2912 17.1002 22.5154L16.07 23.5457C15.9734 23.6422 15.9734 23.7989 16.07 23.8955C16.1666 23.9922 16.3232 23.9922 16.4198 23.8955Z" fill="#EE6781"/>
<path d="M15.0606 23.9588H13.1456C12.6251 23.979 12.6281 24.7231 13.1456 24.7417H15.0605C15.1685 24.7417 15.2663 24.6979 15.3369 24.6269C15.5807 24.392 15.4087 23.9552 15.0606 23.9588Z" fill="#C0405C"/>
<path d="M15.06 23.9587H13.145C12.9831 23.9587 12.8439 24.0573 12.7842 24.1974C12.8439 24.3374 12.9831 24.4361 13.145 24.4361H15.06C15.2207 24.4358 15.3589 24.3397 15.4204 24.1974C15.3608 24.0573 15.222 23.9587 15.06 23.9587Z" fill="#DD5273"/>
<path d="M13.2959 24.2807C13.2959 24.3666 13.3655 24.4362 13.4514 24.4362H14.7798C14.8657 24.4362 14.9353 24.3666 14.9353 24.2807C14.9353 24.1949 14.8657 24.1252 14.7798 24.1252H13.4514C13.3655 24.1252 13.2959 24.1949 13.2959 24.2807Z" fill="#EE6781"/>
<path d="M12.0718 24.1368L10.7177 25.4909C10.364 25.8733 10.8923 26.3972 11.2713 26.0445L12.6254 24.6904C12.7017 24.6141 12.7399 24.514 12.7396 24.4138C12.7459 24.0754 12.3155 23.8882 12.0718 24.1368Z" fill="#C0405C"/>
<path d="M12.0713 24.1369L10.7172 25.491C10.6027 25.6055 10.574 25.7736 10.6308 25.9149C10.7721 25.9717 10.9402 25.943 11.0547 25.8285L12.4088 24.4744C12.5222 24.3607 12.5519 24.195 12.4949 24.0508C12.3537 23.994 12.1858 24.0225 12.0713 24.1369Z" fill="#DD5273"/>
<path d="M11.0519 25.612C11.1126 25.6727 11.211 25.6727 11.2717 25.612L12.2111 24.6726C12.2718 24.6119 12.2718 24.5135 12.2111 24.4528C12.1504 24.3921 12.052 24.3921 11.9913 24.4528L11.0519 25.3921C10.9912 25.4528 10.9912 25.5513 11.0519 25.612Z" fill="#EE6781"/>
<path d="M24.8871 22.6408C24.6581 22.8696 24.2871 22.8699 24.0583 22.6408L22.1919 20.7744L23.0207 19.9456L24.8871 21.812C25.1191 22.0424 25.1118 22.418 24.8871 22.6408Z" fill="#C0405C"/>
<path d="M25.0184 22.4385C24.8043 22.5211 24.5605 22.4746 24.3918 22.3067L22.5254 20.4403L23.0202 19.9456L24.8866 21.812C25.0563 21.9816 25.0999 22.2289 25.0184 22.4385Z" fill="#DD5273"/>
<path d="M24.0786 21.9927L23.0484 20.9624C22.8245 20.7246 23.1596 20.3884 23.3982 20.6126L24.4284 21.6428C24.525 21.7394 24.525 21.896 24.4284 21.9927C24.3318 22.0893 24.1752 22.0893 24.0786 21.9927Z" fill="#EE6781"/>
<path d="M25.3012 21.2732H27.2162C27.7367 21.2934 27.7336 22.0376 27.2162 22.0562H25.3013C25.1933 22.0562 25.0955 22.0123 25.0249 21.9413C24.781 21.7064 24.953 21.2696 25.3012 21.2732Z" fill="#C0405C"/>
<path d="M25.3013 21.2732H27.2163C27.3783 21.2732 27.5175 21.3718 27.5772 21.5119C27.5175 21.6519 27.3783 21.7505 27.2163 21.7505H25.3013C25.1406 21.7503 25.0025 21.6541 24.9409 21.5119C25.0005 21.3718 25.1394 21.2732 25.3013 21.2732Z" fill="#DD5273"/>
<path d="M27.0656 21.5949C27.0656 21.6808 26.996 21.7504 26.9102 21.7504H25.5817C25.4959 21.7504 25.4263 21.6808 25.4263 21.5949C25.4263 21.5091 25.4959 21.4395 25.5817 21.4395H26.9102C26.996 21.4395 27.0656 21.5091 27.0656 21.5949Z" fill="#EE6781"/>
<path d="M28.2904 21.4516L29.6445 22.8056C29.9982 23.188 29.4699 23.7119 29.0909 23.3592L27.7368 22.0052C27.6605 21.9288 27.6223 21.8287 27.6226 21.7285C27.6164 21.3901 28.0468 21.2029 28.2904 21.4516Z" fill="#C0405C"/>
<path d="M28.2902 21.4516L29.6443 22.8057C29.7588 22.9202 29.7875 23.0883 29.7307 23.2296C29.5894 23.2864 29.4213 23.2577 29.3068 23.1432L27.9527 21.7891C27.8393 21.6754 27.8096 21.5097 27.8666 21.3655C28.0079 21.3087 28.1758 21.3372 28.2902 21.4516Z" fill="#DD5273"/>
<path d="M29.3107 22.9268C29.25 22.9875 29.1516 22.9875 29.0909 22.9268L28.1515 21.9875C28.0908 21.9268 28.0908 21.8284 28.1515 21.7677C28.2122 21.707 28.3106 21.707 28.3713 21.7677L29.3107 22.7071C29.3714 22.7677 29.3714 22.866 29.3107 22.9268Z" fill="#EE6781"/>
<path d="M15.1122 22.6408C15.3412 22.8696 15.7122 22.8699 15.941 22.6408L17.8074 20.7744L16.9786 19.9456L15.1122 21.812C14.8802 22.0424 14.8875 22.418 15.1122 22.6408Z" fill="#C0405C"/>
<path d="M14.9802 22.4385C15.1943 22.5211 15.4381 22.4746 15.6068 22.3067L17.4732 20.4403L16.9784 19.9456L15.112 21.812C14.9423 21.9816 14.8987 22.2289 14.9802 22.4385Z" fill="#DD5273"/>
<path d="M15.9203 21.9927L16.9506 20.9624C17.1745 20.7246 16.8393 20.3884 16.6007 20.6126L15.5705 21.6428C15.4739 21.7394 15.4739 21.896 15.5705 21.9927C15.6671 22.0893 15.8238 22.0893 15.9203 21.9927Z" fill="#EE6781"/>
<path d="M14.6973 21.2732H12.7823C12.2618 21.2934 12.2649 22.0376 12.7823 22.0562H14.6972C14.8052 22.0562 14.903 22.0123 14.9736 21.9413C15.2174 21.7064 15.0455 21.2696 14.6973 21.2732Z" fill="#C0405C"/>
<path d="M14.6968 21.2732H12.7818C12.6198 21.2732 12.4806 21.3718 12.4209 21.5119C12.4806 21.6519 12.6198 21.7505 12.7818 21.7505H14.6968C14.8575 21.7503 14.9956 21.6541 15.0571 21.5119C14.9975 21.3718 14.8587 21.2732 14.6968 21.2732Z" fill="#DD5273"/>
<path d="M12.9326 21.5949C12.9326 21.6808 13.0022 21.7504 13.0881 21.7504H14.4165C14.5024 21.7504 14.572 21.6808 14.572 21.5949C14.572 21.5091 14.5024 21.4395 14.4165 21.4395H13.0881C13.0022 21.4395 12.9326 21.5091 12.9326 21.5949Z" fill="#EE6781"/>
<path d="M11.7085 21.4516L10.3544 22.8056C10.0007 23.188 10.5291 23.7119 10.9081 23.3592L12.2622 22.0052C12.3385 21.9288 12.3767 21.8287 12.3764 21.7285C12.3826 21.3901 11.9521 21.2029 11.7085 21.4516Z" fill="#C0405C"/>
<path d="M11.708 21.4516L10.354 22.8057C10.2394 22.9202 10.2108 23.0883 10.2676 23.2296C10.4088 23.2864 10.5769 23.2577 10.6915 23.1432L12.0455 21.7891C12.159 21.6754 12.1886 21.5097 12.1316 21.3655C11.9904 21.3087 11.8225 21.3372 11.708 21.4516Z" fill="#DD5273"/>
<path d="M10.6886 22.9268C10.7493 22.9875 10.8477 22.9875 10.9084 22.9268L11.8478 21.9875C11.9085 21.9268 11.9085 21.8284 11.8478 21.7677C11.7871 21.707 11.6887 21.707 11.628 21.7677L10.6886 22.7071C10.6279 22.7677 10.6279 22.866 10.6886 22.9268Z" fill="#EE6781"/>
<path d="M26.247 19.0485C26.2468 19.3723 25.9848 19.6348 25.6609 19.6346H23.0215V18.4624H25.6609C25.9879 18.4615 26.2484 18.7321 26.247 19.0485Z" fill="#C0405C"/>
<path d="M26.1971 18.8123C26.1042 19.0221 25.8988 19.1616 25.6609 19.1622H23.0215V18.4624H25.6609C25.9008 18.4624 26.1066 18.6065 26.1971 18.8123Z" fill="#DD5273"/>
<path d="M25.2168 19.1622H23.7598C23.4333 19.1522 23.4326 18.6776 23.7598 18.6675H25.2168C25.3534 18.6675 25.4641 18.7783 25.4641 18.9148C25.4641 19.0514 25.3534 19.1622 25.2168 19.1622Z" fill="#EE6781"/>
<path d="M26.2572 18.2859L27.6113 16.9318C27.9936 16.5781 28.5176 17.1064 28.1649 17.4855L26.8108 18.8396C26.7345 18.9159 26.6343 18.9541 26.5342 18.9538C26.1957 18.96 26.0086 18.5296 26.2572 18.2859Z" fill="#C0405C"/>
<path d="M26.257 18.2859L27.6111 16.9318C27.7256 16.8173 27.8938 16.7886 28.035 16.8454C28.0918 16.9867 28.0631 17.1548 27.9486 17.2693L26.5945 18.6234C26.4808 18.7369 26.3151 18.7665 26.171 18.7095C26.1142 18.5683 26.1425 18.4004 26.257 18.2859Z" fill="#DD5273"/>
<path d="M27.7316 17.266C27.7923 17.3267 27.7923 17.4251 27.7316 17.4858L26.7922 18.4252C26.7315 18.4859 26.6331 18.4859 26.5724 18.4252C26.5117 18.3645 26.5117 18.2661 26.5724 18.2054L27.5118 17.266C27.5725 17.2053 27.6709 17.2053 27.7316 17.266Z" fill="#EE6781"/>
<path d="M28.497 16.2989H30.412C30.9324 16.3191 30.9294 17.0632 30.412 17.0818H28.497C28.3891 17.0818 28.2913 17.038 28.2206 16.967C27.9768 16.732 28.1488 16.2953 28.497 16.2989Z" fill="#C0405C"/>
<path d="M28.4966 16.2988H30.4116C30.5736 16.2988 30.7128 16.3974 30.7725 16.5375C30.7128 16.6775 30.5736 16.7762 30.4116 16.7762H28.4966C28.3359 16.7759 28.1978 16.6798 28.1362 16.5375C28.1959 16.3974 28.3347 16.2988 28.4966 16.2988Z" fill="#DD5273"/>
<path d="M30.261 16.6208C30.261 16.7067 30.1913 16.7763 30.1055 16.7763H28.7771C28.6912 16.7763 28.6216 16.7067 28.6216 16.6208C28.6216 16.5349 28.6912 16.4653 28.7771 16.4653H30.1055C30.1914 16.4653 30.261 16.5349 30.261 16.6208Z" fill="#EE6781"/>
<path d="M13.7524 19.0485C13.7527 19.3723 14.0147 19.6348 14.3385 19.6346H16.978V18.4624H14.3385C14.0116 18.4615 13.7511 18.7321 13.7524 19.0485Z" fill="#C0405C"/>
<path d="M13.8027 18.8123C13.8956 19.0221 14.101 19.1616 14.3389 19.1622H16.9784V18.4624H14.3389C14.0991 18.4624 13.8933 18.6065 13.8027 18.8123Z" fill="#DD5273"/>
<path d="M14.7825 19.1622H16.2394C16.566 19.1522 16.5667 18.6776 16.2394 18.6675H14.7825C14.6459 18.6675 14.5352 18.7783 14.5352 18.9148C14.5352 19.0514 14.6459 19.1622 14.7825 19.1622Z" fill="#EE6781"/>
<path d="M13.7416 18.2859L12.3875 16.9318C12.0052 16.5781 11.4812 17.1064 11.8339 17.4855L13.188 18.8396C13.2643 18.9159 13.3645 18.9541 13.4646 18.9538C13.8031 18.96 13.9903 18.5296 13.7416 18.2859Z" fill="#C0405C"/>
<path d="M13.7418 18.2859L12.3877 16.9318C12.2732 16.8173 12.1051 16.7886 11.9638 16.8454C11.907 16.9867 11.9357 17.1548 12.0502 17.2693L13.4043 18.6234C13.5181 18.7369 13.6838 18.7665 13.8279 18.7095C13.8847 18.5683 13.8563 18.4004 13.7418 18.2859Z" fill="#DD5273"/>
<path d="M12.2667 17.266C12.206 17.3267 12.206 17.4251 12.2667 17.4858L13.2061 18.4252C13.2668 18.4859 13.3652 18.4859 13.4259 18.4252C13.4866 18.3645 13.4866 18.2661 13.4259 18.2054L12.4866 17.266C12.4259 17.2053 12.3274 17.2053 12.2667 17.266Z" fill="#EE6781"/>
<path d="M11.5029 16.2989H9.58794C9.06747 16.3191 9.07052 17.0632 9.58794 17.0818H11.5029C11.6108 17.0818 11.7087 17.038 11.7793 16.967C12.0231 16.732 11.8511 16.2953 11.5029 16.2989Z" fill="#C0405C"/>
<path d="M11.5024 16.2988H9.58742C9.42547 16.2988 9.28625 16.3974 9.22656 16.5375C9.28625 16.6775 9.42547 16.7762 9.58742 16.7762H11.5024C11.6631 16.7759 11.8013 16.6798 11.8628 16.5375C11.8031 16.3974 11.6644 16.2988 11.5024 16.2988Z" fill="#DD5273"/>
<path d="M9.73828 16.6208C9.73828 16.7067 9.80789 16.7763 9.89375 16.7763H11.2222C11.308 16.7763 11.3777 16.7067 11.3777 16.6208C11.3777 16.5349 11.308 16.4653 11.2222 16.4653H9.89375C9.80781 16.4653 9.73828 16.5349 9.73828 16.6208Z" fill="#EE6781"/>
<path d="M26.247 17.1835C26.2468 17.5073 25.9848 17.7698 25.6609 17.7696H23.0215V16.5974H25.6609C25.9879 16.5964 26.2484 16.8671 26.247 17.1835Z" fill="#C0405C"/>
<path d="M26.1971 16.9464C26.1042 17.1561 25.8988 17.2957 25.6609 17.2962H23.0215V16.5964H25.6609C25.9008 16.5965 26.1066 16.7406 26.1971 16.9464Z" fill="#DD5273"/>
<path d="M25.2168 17.2962H23.7598C23.4333 17.2863 23.4326 16.8117 23.7598 16.8015H25.2168C25.3534 16.8015 25.4641 16.9123 25.4641 17.0489C25.4641 17.1854 25.3534 17.2962 25.2168 17.2962Z" fill="#EE6781"/>
<path d="M25.5727 15.9224L26.9267 14.5683C27.3091 14.2146 27.833 14.7429 27.4803 15.1219L26.1262 16.476C26.0499 16.5523 25.9498 16.5905 25.8496 16.5902C25.5112 16.5965 25.324 16.1661 25.5727 15.9224Z" fill="#C0405C"/>
<path d="M25.5729 15.9224L26.927 14.5683C27.0415 14.4538 27.2097 14.4251 27.3509 14.4819C27.4077 14.6232 27.379 14.7913 27.2645 14.9058L25.9104 16.2599C25.7967 16.3733 25.631 16.403 25.4869 16.346C25.4301 16.2048 25.4585 16.0369 25.5729 15.9224Z" fill="#DD5273"/>
<path d="M27.0485 14.9025C27.1092 14.9632 27.1092 15.0616 27.0485 15.1223L26.1091 16.0617C26.0484 16.1224 25.95 16.1224 25.8893 16.0617C25.8286 16.001 25.8286 15.9025 25.8893 15.8418L26.8287 14.9025C26.8894 14.8418 26.9877 14.8418 27.0485 14.9025Z" fill="#EE6781"/>
<path d="M27.8124 13.9353H29.7274C30.2479 13.9555 30.2448 14.6997 29.7274 14.7183H27.8125C27.7045 14.7183 27.6067 14.6745 27.5361 14.6035C27.2923 14.3685 27.4642 13.9318 27.8124 13.9353Z" fill="#C0405C"/>
<path d="M27.8125 13.9353H29.7275C29.8895 13.9353 30.0287 14.0339 30.0884 14.174C30.0287 14.314 29.8895 14.4127 29.7275 14.4127H27.8125C27.6518 14.4124 27.5137 14.3163 27.4521 14.174C27.5118 14.034 27.6506 13.9353 27.8125 13.9353Z" fill="#DD5273"/>
<path d="M29.5769 14.2573C29.5769 14.3431 29.5073 14.4128 29.4214 14.4128H28.093C28.0071 14.4128 27.9375 14.3431 27.9375 14.2573C27.9375 14.1714 28.0071 14.1018 28.093 14.1018H29.4214C29.5073 14.1018 29.5769 14.1714 29.5769 14.2573Z" fill="#EE6781"/>
<path d="M13.752 17.1835C13.7522 17.5073 14.0142 17.7698 14.3381 17.7696H16.9775V16.5974H14.3381C14.0111 16.5964 13.7506 16.8671 13.752 17.1835Z" fill="#C0405C"/>
<path d="M13.8022 16.9464C13.8951 17.1561 14.1005 17.2957 14.3384 17.2962H16.9779V16.5964H14.3384C14.0986 16.5965 13.8928 16.7406 13.8022 16.9464Z" fill="#DD5273"/>
<path d="M14.782 17.2962H16.239C16.5655 17.2863 16.5662 16.8117 16.239 16.8015H14.782C14.6454 16.8015 14.5347 16.9123 14.5347 17.0489C14.5347 17.1854 14.6454 17.2962 14.782 17.2962Z" fill="#EE6781"/>
<path d="M14.4262 15.9224L13.0721 14.5683C12.6898 14.2146 12.1658 14.7429 12.5185 15.1219L13.8726 16.476C13.9489 16.5523 14.0491 16.5905 14.1492 16.5902C14.4876 16.5965 14.6748 16.1661 14.4262 15.9224Z" fill="#C0405C"/>
<path d="M14.4264 15.9224L13.0723 14.5683C12.9578 14.4538 12.7897 14.4251 12.6484 14.4819C12.5916 14.6232 12.6203 14.7913 12.7348 14.9058L14.0889 16.2599C14.2026 16.3733 14.3683 16.403 14.5125 16.346C14.5693 16.2048 14.5408 16.0369 14.4264 15.9224Z" fill="#DD5273"/>
<path d="M12.9513 14.9025C12.8906 14.9632 12.8906 15.0616 12.9513 15.1223L13.8907 16.0617C13.9514 16.1224 14.0498 16.1224 14.1105 16.0617C14.1712 16.001 14.1712 15.9025 14.1105 15.8418L13.1711 14.9025C13.1104 14.8418 13.0121 14.8418 12.9513 14.9025Z" fill="#EE6781"/>
<path d="M12.187 13.9353H10.272C9.75155 13.9555 9.7546 14.6997 10.272 14.7183H12.1869C12.2949 14.7183 12.3927 14.6745 12.4633 14.6035C12.7072 14.3685 12.5352 13.9318 12.187 13.9353Z" fill="#C0405C"/>
<path d="M12.1865 13.9353H10.2715C10.1096 13.9353 9.97033 14.0339 9.91064 14.174C9.97033 14.314 10.1096 14.4127 10.2715 14.4127H12.1865C12.3472 14.4124 12.4853 14.3163 12.5469 14.174C12.4873 14.034 12.3485 13.9353 12.1865 13.9353Z" fill="#DD5273"/>
<path d="M10.4229 14.2573C10.4229 14.3431 10.4925 14.4128 10.5783 14.4128H11.9068C11.9926 14.4128 12.0622 14.3431 12.0622 14.2573C12.0622 14.1714 11.9926 14.1018 11.9068 14.1018H10.5783C10.4925 14.1018 10.4229 14.1714 10.4229 14.2573Z" fill="#EE6781"/>
<path d="M25.9374 13.8053L23.9462 15.7966C23.5065 16.2369 22.7933 16.2369 22.3536 15.7966C22.2469 15.6899 22.1656 15.5668 22.1111 15.4354C21.94 15.0268 22.0207 14.5376 22.3536 14.2047L23.9081 12.6495C24.0628 12.4955 24.2856 12.4311 24.4976 12.4799L25.5183 12.7139L25.6307 12.7394C26.117 12.8504 26.2902 13.4526 25.9374 13.8053Z" fill="#C0405C"/>
<path d="M25.3338 13.2L23.3418 15.192C23.0089 15.5249 22.5197 15.6055 22.1111 15.4344C21.94 15.0258 22.0207 14.5367 22.3536 14.2037L23.9081 12.6485C24.0628 12.4945 24.2856 12.4301 24.4976 12.4789L25.5183 12.7129C25.5295 12.8841 25.4723 13.0615 25.3338 13.2Z" fill="#DD5273"/>
<path d="M23.0485 14.8982C22.8862 14.7359 22.8862 14.4728 23.0484 14.3105L24.0411 13.3174C24.1929 13.1655 24.4355 13.1542 24.6007 13.2915L24.6009 13.2917C24.789 13.4481 24.8021 13.7323 24.6292 13.9053L23.6362 14.8982C23.4739 15.0605 23.2108 15.0605 23.0485 14.8982Z" fill="#EE6781"/>
<path d="M26.1153 10.2545V12.2952C26.1153 12.7455 25.7498 13.1109 25.2996 13.1109C24.8493 13.1109 24.4839 12.7454 24.4839 12.2952V10.7019C24.4839 10.5442 24.5651 10.3972 24.6988 10.3132L25.4121 9.86573C25.5061 9.80636 25.6093 9.78659 25.7062 9.79714C25.9251 9.8219 26.1153 10.0042 26.1153 10.2545Z" fill="#C0405C"/>
<path d="M25.7051 9.79714V11.4993C25.7051 11.9496 25.3396 12.315 24.8894 12.315C24.741 12.315 24.6024 12.2754 24.4829 12.2062V10.702C24.4829 10.5443 24.5642 10.3973 24.6978 10.3132L25.4111 9.86581C25.5051 9.80636 25.6083 9.78659 25.7051 9.79714Z" fill="#DD5273"/>
<path d="M25.1188 11.8849C24.9707 11.8849 24.8506 11.7649 24.8506 11.6167V10.7684C24.8506 10.6203 24.9707 10.5002 25.1188 10.5002C25.2669 10.5002 25.387 10.6203 25.387 10.7684V11.6167C25.387 11.7649 25.2669 11.8849 25.1188 11.8849Z" fill="#EE6781"/>
<path d="M24.026 9.72162L22.9798 8.67545C22.0888 7.78451 21.5884 6.57623 21.5884 5.31631V3.31201L26.012 7.7356L24.026 9.72162Z" fill="#DD5273"/>
<path d="M24.044 6.19738C23.1254 7.11598 23.0357 8.60426 23.8926 9.58059C24.8444 10.6651 26.5034 10.696 27.4955 9.67332C28.4196 8.72074 28.3682 7.13582 27.4297 6.19738L24.6814 3.44902C23.7304 2.49809 22.4407 1.96379 21.0957 1.96387C20.7796 1.96387 20.6214 2.34598 20.8449 2.56949L24.0439 5.76855C24.1624 5.88699 24.1624 6.07902 24.044 6.19738Z" fill="#C0405C"/>
<path d="M23.692 3.19366L26.5255 6.02718C26.7073 6.20897 26.7073 6.50366 26.5255 6.68538C26.3437 6.86718 26.049 6.86718 25.8673 6.68538L23.0338 3.85187C22.852 3.67007 22.852 3.37538 23.0338 3.19366C23.2155 3.01194 23.5102 3.01194 23.692 3.19366Z" fill="#DD5273"/>
<path d="M24.2018 3.70349L25.4303 4.932C25.6121 5.1138 25.6121 5.40848 25.4303 5.5902C25.2485 5.772 24.9538 5.772 24.7721 5.5902L23.5436 4.36169C23.3618 4.17989 23.3618 3.8852 23.5436 3.70349C23.7253 3.52169 24.0201 3.52169 24.2018 3.70349Z" fill="#EE6781"/>
<path d="M23.0512 5.50348L23.1569 6.55731C23.1826 6.81309 22.9961 7.04121 22.7403 7.06691C22.4845 7.09262 22.2564 6.90606 22.2307 6.65027L22.1249 5.59645C22.0992 5.34067 22.2858 5.11254 22.5416 5.08684C22.7973 5.06114 23.0255 5.2477 23.0512 5.50348Z" fill="#EE6781"/>
<path d="M26.9381 9.30106C26.2458 9.9934 25.1193 9.9934 24.427 9.30106C24.2835 9.15755 24.2835 8.92474 24.427 8.78122C24.5705 8.63771 24.8033 8.63771 24.9468 8.78122C25.3526 9.18692 26.0126 9.18692 26.4184 8.78122C26.5619 8.63771 26.7947 8.63771 26.9382 8.78122C27.0817 8.92481 27.0817 9.15755 26.9381 9.30106Z" fill="#DD5273"/>
<path d="M14.0634 13.8053L16.0546 15.7966C16.4943 16.2369 17.2075 16.2369 17.6472 15.7966C17.7539 15.6899 17.8352 15.5668 17.8897 15.4354C18.0608 15.0268 17.9802 14.5376 17.6472 14.2047L16.0927 12.6495C15.938 12.4955 15.7153 12.4311 15.5032 12.4799L14.4825 12.7139L14.3701 12.7394C13.8838 12.8504 13.7106 13.4526 14.0634 13.8053Z" fill="#C0405C"/>
<path d="M14.6669 13.2L16.6588 15.192C16.9918 15.5249 17.4809 15.6055 17.8895 15.4344C18.0606 15.0258 17.98 14.5367 17.647 14.2037L16.0926 12.6485C15.9378 12.4945 15.7151 12.4301 15.503 12.4789L14.4823 12.7129C14.4711 12.8841 14.5284 13.0615 14.6669 13.2Z" fill="#DD5273"/>
<path d="M16.9529 14.8982C17.1152 14.7359 17.1152 14.4728 16.953 14.3105L15.9603 13.3174C15.8085 13.1655 15.5659 13.1542 15.4007 13.2915L15.4005 13.2917C15.2124 13.4481 15.1992 13.7323 15.3722 13.9053L16.3652 14.8982C16.5274 15.0605 16.7906 15.0605 16.9529 14.8982Z" fill="#EE6781"/>
<path d="M13.8857 10.2545V12.2952C13.8857 12.7455 14.2512 13.1109 14.7014 13.1109C15.1518 13.1109 15.5171 12.7454 15.5171 12.2952V10.7019C15.5171 10.5442 15.4359 10.3972 15.3022 10.3132L14.5889 9.86573C14.495 9.80636 14.3918 9.78659 14.2949 9.79714C14.0759 9.8219 13.8857 10.0042 13.8857 10.2545Z" fill="#C0405C"/>
<path d="M14.2949 9.79714V11.4993C14.2949 11.9496 14.6604 12.315 15.1106 12.315C15.2591 12.315 15.3977 12.2754 15.5171 12.2062V10.702C15.5171 10.5443 15.4359 10.3973 15.3022 10.3132L14.5889 9.86581C14.4949 9.80636 14.3917 9.78659 14.2949 9.79714Z" fill="#DD5273"/>
<path d="M14.8815 11.8849C15.0296 11.8849 15.1497 11.7649 15.1497 11.6167V10.7684C15.1497 10.6203 15.0296 10.5002 14.8815 10.5002C14.7334 10.5002 14.6133 10.6203 14.6133 10.7684V11.6167C14.6133 11.7649 14.7334 11.8849 14.8815 11.8849Z" fill="#EE6781"/>
<path d="M15.9738 9.72162L17.02 8.67545C17.9109 7.78451 18.4114 6.57623 18.4114 5.31631V3.31201L13.9878 7.7356L15.9738 9.72162Z" fill="#DD5273"/>
<path d="M15.9561 6.19738C16.8747 7.11598 16.9644 8.60426 16.1075 9.58059C15.1557 10.6651 13.4968 10.696 12.5046 9.67332C11.5805 8.72074 11.632 7.13582 12.5704 6.19738L15.3188 3.44902C16.2697 2.49809 17.5595 1.96379 18.9044 1.96387C19.2205 1.96387 19.3788 2.34598 19.1553 2.56949L15.9562 5.76855C15.8378 5.88699 15.8378 6.07902 15.9561 6.19738Z" fill="#C0405C"/>
<path d="M16.3077 3.19366L13.4742 6.02718C13.2924 6.20897 13.2924 6.50366 13.4742 6.68538C13.656 6.86718 13.9507 6.86718 14.1324 6.68538L16.966 3.85187C17.1477 3.67007 17.1477 3.37538 16.966 3.19366C16.7842 3.01194 16.4895 3.01194 16.3077 3.19366Z" fill="#DD5273"/>
<path d="M15.798 3.70349L14.5695 4.932C14.3877 5.1138 14.3877 5.40848 14.5695 5.5902C14.7513 5.772 15.0459 5.772 15.2277 5.5902L16.4562 4.36169C16.638 4.17989 16.638 3.8852 16.4562 3.70349C16.2745 3.52169 15.9797 3.52169 15.798 3.70349Z" fill="#EE6781"/>
<path d="M16.949 5.50348L16.8432 6.55731C16.8175 6.81309 17.004 7.04121 17.2598 7.06691C17.5156 7.09262 17.7437 6.90606 17.7694 6.65027L17.8752 5.59645C17.9009 5.34067 17.7144 5.11254 17.4586 5.08684C17.2028 5.06114 16.9746 5.2477 16.949 5.50348Z" fill="#EE6781"/>
<path d="M13.0622 9.30106C13.7546 9.9934 14.8811 9.9934 15.5734 9.30106C15.7169 9.15755 15.7169 8.92474 15.5734 8.78122C15.4299 8.63771 15.1971 8.63771 15.0536 8.78122C14.6479 9.18692 13.9878 9.18692 13.582 8.78122C13.4385 8.63771 13.2057 8.63771 13.0622 8.78122C12.9187 8.92481 12.9187 9.15755 13.0622 9.30106Z" fill="#DD5273"/>
<path d="M23.0222 16.3437V22.5176C23.0222 23.3965 22.31 24.1086 21.4312 24.1086H18.57C17.6911 24.1086 16.979 23.3965 16.979 22.5176V16.3437C16.979 14.6749 18.3318 11.4387 20.0006 11.4387C21.6695 11.4387 23.0222 14.675 23.0222 16.3437Z" fill="#C0405C"/>
<path d="M23.0226 16.3436V22.5176C23.0226 23.3964 22.3104 24.1086 21.4316 24.1086H20.001V11.4387C21.6698 11.4387 23.0226 14.6749 23.0226 16.3436Z" fill="#DD5273"/>
<path d="M20.001 22.7746V14.6555C20.661 14.6555 21.196 15.7028 21.196 16.3628V21.5796C21.196 22.2395 20.661 22.7746 20.001 22.7746Z" fill="#EE6781"/>
<path d="M20.0007 22.7746V14.6555C19.3407 14.6555 18.8057 15.7028 18.8057 16.3628V21.5796C18.8057 22.2395 19.3407 22.7746 20.0007 22.7746Z" fill="#DD5273"/>
<path d="M20.5985 21.5179C20.2685 21.5179 20.001 21.2504 20.001 20.9204V17.578C20.001 17.248 20.2685 16.9805 20.5985 16.9805C20.9285 16.9805 21.196 17.248 21.196 17.578V20.9204C21.196 21.2504 20.9285 21.5179 20.5985 21.5179Z" fill="#F4829B"/>
<path d="M21.3626 14.743V14.9928C21.3641 15.2313 21.1653 15.4266 20.9306 15.4251C20.6918 15.4251 20.4985 15.2315 20.4985 14.9928V14.743C20.5185 14.1725 21.3403 14.1687 21.3626 14.743Z" fill="#334353"/>
<path d="M21.363 14.7432V14.9926C21.3624 15.1661 21.2623 15.3167 21.1099 15.3863C20.9613 15.318 20.8574 15.1674 20.8574 14.9926V14.7432C20.8574 14.7153 20.8599 14.6878 20.8655 14.6617C20.8916 14.5224 20.985 14.4074 21.11 14.3501C21.2356 14.4073 21.3289 14.5224 21.3551 14.6617C21.3605 14.6878 21.363 14.7152 21.363 14.7432Z" fill="#3E4E60"/>
<path d="M21.3543 14.6617C21.354 14.6631 21.3537 14.6646 21.3534 14.666C21.3018 14.9246 20.9167 14.9245 20.8655 14.6659L20.8647 14.6617C20.8908 14.5224 20.9842 14.4074 21.1092 14.3501C21.2348 14.4074 21.3282 14.5224 21.3543 14.6617Z" fill="#3F5D77"/>
<path d="M18.6382 14.9932V14.7434C18.6367 14.5049 18.8355 14.3096 19.0702 14.311C19.309 14.311 19.5023 14.5046 19.5023 14.7434V14.9932C19.4823 15.5637 18.6605 15.5674 18.6382 14.9932Z" fill="#2E3140"/>
<path d="M19.1438 14.7432V14.9933C19.1438 15.1681 19.04 15.318 18.8913 15.3863C18.742 15.318 18.6382 15.1681 18.6382 14.9933V14.7432C18.6382 14.7146 18.6413 14.6866 18.6469 14.6592C18.6736 14.5224 18.7644 14.408 18.8913 14.3501C19.0157 14.4067 19.109 14.5217 19.1358 14.6605C19.1413 14.6872 19.1438 14.7146 19.1438 14.7432Z" fill="#334353"/>
<path d="M19.1354 14.6605C19.077 14.9018 18.7037 14.9012 18.6465 14.6592C18.6732 14.5224 18.7641 14.408 18.8909 14.3501C19.0153 14.4067 19.1086 14.5217 19.1354 14.6605Z" fill="#3E4E60"/>
<path d="M20.3901 12.4499V7.1553C20.3901 6.99201 20.6305 6.97967 20.6472 7.14209L21.1883 12.3926C21.2232 12.6345 21.0356 12.8511 20.7913 12.8511C20.5697 12.8511 20.3901 12.6715 20.3901 12.4499Z" fill="#EE6781"/>
<path d="M19.609 12.4499V7.1553C19.609 6.99201 19.3686 6.97967 19.3519 7.14209L18.8108 12.3926C18.776 12.6345 18.9636 12.8511 19.2078 12.8511C19.4294 12.8511 19.609 12.6715 19.609 12.4499Z" fill="#DD5273"/>
<path d="M37.6894 17.4462C37.5996 17.5352 37.4527 17.536 37.3581 17.4462L32.0152 12.3392C31.7261 12.0634 31.3417 11.9095 30.9425 11.9095H24.2011C23.7894 11.9095 23.3949 12.0728 23.1035 12.3642L21.6081 13.8595C21.4495 14.0181 21.1933 14.0431 21.0206 13.9009C20.823 13.7376 20.8128 13.4438 20.9894 13.2673L22.9745 11.2821L23.0785 11.1782C23.1738 11.0829 23.3035 11.0438 23.4285 11.0579C23.448 11.0548 23.4675 11.0532 23.4878 11.0532H31.5652C31.5683 11.0532 31.5706 11.0532 31.5738 11.054C31.7285 11.0517 31.923 11.1337 32.0996 11.2821C32.1363 11.3126 32.1722 11.3462 32.2066 11.3821L37.6894 17.1149C37.7792 17.2095 37.7785 17.3571 37.6894 17.4462Z" fill="#C0405C"/>
<path d="M18.979 13.9009C18.8063 14.0431 18.5501 14.0181 18.3915 13.8595L16.8962 12.3642C16.6048 12.0728 16.2103 11.9095 15.7985 11.9095H9.05713C8.65791 11.9095 8.27354 12.0634 7.98447 12.3392L2.6415 17.4462C2.54697 17.536 2.4001 17.5352 2.31025 17.4462C2.22119 17.3571 2.22041 17.2095 2.31025 17.1149L7.79307 11.3821C7.82744 11.3462 7.86338 11.3126 7.9001 11.2821C8.07666 11.1337 8.27119 11.0517 8.42588 11.054C8.429 11.0532 8.43135 11.0532 8.43447 11.0532H16.5118C16.5321 11.0532 16.5517 11.0548 16.5712 11.0579C16.6962 11.0438 16.8259 11.0829 16.9212 11.1782L17.0251 11.2821L19.0103 13.2673C19.1868 13.4438 19.1767 13.7376 18.979 13.9009Z" fill="#DD5273"/>
<path d="M17.0249 11.2821L16.921 11.3853C16.8257 11.4813 16.696 11.5204 16.571 11.5063C16.5515 11.5095 16.5319 11.511 16.5116 11.511H8.43428C8.43115 11.511 8.42881 11.5103 8.42568 11.5103C8.271 11.5126 8.07646 11.4306 7.8999 11.2821C8.07646 11.1337 8.271 11.0517 8.42568 11.054C8.42881 11.0532 8.43115 11.0532 8.43428 11.0532H16.5116C16.5319 11.0532 16.5515 11.0548 16.571 11.0579C16.696 11.0438 16.8257 11.0829 16.921 11.1782L17.0249 11.2821Z" fill="#EE6781"/>
<path d="M32.1001 11.2821C31.9235 11.4306 31.729 11.5126 31.5743 11.5103C31.5712 11.5103 31.5688 11.511 31.5657 11.511H23.4884C23.4681 11.511 23.4485 11.5095 23.429 11.5063C23.304 11.5204 23.1743 11.4813 23.079 11.3853L22.9751 11.2821L23.079 11.1782C23.1743 11.0829 23.304 11.0438 23.429 11.0579C23.4485 11.0548 23.4681 11.0532 23.4884 11.0532H31.5657C31.5688 11.0532 31.5712 11.0532 31.5743 11.054C31.729 11.0517 31.9235 11.1337 32.1001 11.2821Z" fill="#EE6781"/>
<path d="M23.0209 25.4046V25.5482C23.0209 26.0346 22.6265 26.4289 22.1401 26.4289H17.8583C17.3719 26.4289 16.9775 26.0346 16.9775 25.5482V25.4046C16.9775 24.2981 17.8745 23.4011 18.981 23.4011H21.0174C22.124 23.4011 23.0209 24.2981 23.0209 25.4046Z" fill="#DD5273"/>
<path d="M23.0212 25.4037V25.5473C23.0212 26.0337 22.6268 26.428 22.1404 26.428H19.9995V24.4183C19.9995 24.1658 20.0915 23.9351 20.244 23.7572C20.4305 23.5383 20.7079 23.4001 21.0177 23.4001C21.5707 23.4001 22.072 23.6241 22.4346 23.9866C22.7972 24.3494 23.0212 24.8507 23.0212 25.4037Z" fill="#EE6781"/>
<path d="M21.6881 25.2766H21.2796C21.065 25.2766 20.8911 25.1027 20.8911 24.8882V24.616C20.8911 24.6159 20.8911 24.6158 20.8911 24.6157C20.8911 24.2077 20.6174 23.8637 20.243 23.7573C20.0906 23.9352 19.9985 24.166 19.9985 24.4185V26.1794H21.6881C21.9374 26.1794 22.1394 25.9772 22.1394 25.728C22.1395 25.4787 21.9374 25.2766 21.6881 25.2766Z" fill="#F4829B"/>
<path d="M19.9987 23.7234C19.5212 23.7234 19.1324 24.0987 19.1085 24.5703C19.107 24.5853 19.1062 24.6005 19.1062 24.6159V24.8881C19.1062 25.1026 18.9323 25.2765 18.7178 25.2765H18.3092C18.0599 25.2765 17.8579 25.4786 17.8579 25.7278C17.8579 25.9771 18.06 26.1792 18.3092 26.1792H19.9987V24.4183C19.9987 24.1661 20.0906 23.9357 20.2426 23.7578C20.165 23.736 20.0834 23.7234 19.9987 23.7234Z" fill="#C0405C"/>
<path d="M23.0209 27.6228V27.7665C23.0209 28.2529 22.6265 28.6472 22.1401 28.6472H17.8583C17.3719 28.6472 16.9775 28.2529 16.9775 27.7665V27.6228C16.9775 26.5163 17.8745 25.6194 18.981 25.6194H21.0174C22.124 25.6194 23.0209 26.5163 23.0209 27.6228Z" fill="#DD5273"/>
<path d="M23.0212 27.6228V27.7665C23.0212 28.2529 22.6268 28.6472 22.1404 28.6472H19.9995V26.6376C19.9995 26.3851 20.0915 26.1543 20.244 25.9764C20.4305 25.7575 20.7079 25.6194 21.0177 25.6194C21.5707 25.6194 22.072 25.8433 22.4346 26.2059C22.7972 26.5685 23.0212 27.0699 23.0212 27.6228Z" fill="#EE6781"/>
<path d="M21.6881 27.4959H21.2796C21.065 27.4959 20.8911 27.322 20.8911 27.1074V26.8352C20.8911 26.8352 20.8911 26.8351 20.8911 26.8349C20.8911 26.427 20.6174 26.083 20.243 25.9766C20.0906 26.1545 19.9985 26.3852 19.9985 26.6377V28.3986H21.6881C21.9374 28.3986 22.1394 28.1965 22.1394 27.9473C22.1394 27.698 21.9374 27.4959 21.6881 27.4959Z" fill="#F4829B"/>
<path d="M19.9987 25.9426C19.5212 25.9426 19.1324 26.3179 19.1085 26.7895C19.107 26.8045 19.1062 26.8197 19.1062 26.8351V27.1073C19.1062 27.3218 18.9323 27.4958 18.7178 27.4958H18.3092C18.0599 27.4958 17.8579 27.6979 17.8579 27.9471C17.8579 28.1963 18.06 28.3984 18.3092 28.3984H19.9987V26.6375C19.9987 26.3854 20.0906 26.1549 20.2426 25.9771C20.165 25.9552 20.0834 25.9426 19.9987 25.9426Z" fill="#C0405C"/>
<path d="M22.7732 29.6775V29.8093C22.7732 30.2557 22.4112 30.6177 21.9648 30.6177H18.0349C17.5885 30.6177 17.2266 30.2557 17.2266 29.8093V29.6775C17.2266 28.6618 18.0498 27.8386 19.0654 27.8386H20.9344C21.95 27.8387 22.7732 28.6619 22.7732 29.6775Z" fill="#DD5273"/>
<path d="M22.7734 29.6775V29.8093C22.7734 30.2557 22.4114 30.6177 21.965 30.6177H20V28.7732C20 28.5414 20.0845 28.3296 20.2244 28.1663C20.3956 27.9653 20.6502 27.8386 20.9345 27.8386C21.442 27.8386 21.9022 28.0441 22.235 28.377C22.5678 28.7099 22.7734 29.17 22.7734 29.6775Z" fill="#EE6781"/>
<path d="M21.5508 29.5608H21.1758C20.9789 29.5608 20.8192 29.4012 20.8192 29.2042V28.9544C20.8192 28.9543 20.8192 28.9542 20.8192 28.9541C20.8192 28.5796 20.568 28.2639 20.2244 28.1663C20.0845 28.3295 20 28.5413 20 28.7731V30.3893H21.5507C21.7795 30.3893 21.965 30.2038 21.965 29.975C21.965 29.7462 21.7796 29.5608 21.5508 29.5608Z" fill="#F4829B"/>
<path d="M20.0002 28.1353C19.5619 28.1353 19.2051 28.4797 19.1831 28.9126C19.1817 28.9263 19.181 28.9403 19.181 28.9545V29.2042C19.181 29.4011 19.0214 29.5608 18.8244 29.5608H18.4495C18.2206 29.5608 18.0352 29.7463 18.0352 29.9751C18.0352 30.2039 18.2206 30.3894 18.4495 30.3894H20.0002V28.7732C20.0002 28.5417 20.0845 28.3302 20.224 28.1671C20.1528 28.1467 20.078 28.1353 20.0002 28.1353Z" fill="#C0405C"/>
<path d="M22.7732 31.7724V31.9043C22.7732 32.3507 22.4112 32.7127 21.9648 32.7127H18.0349C17.5885 32.7127 17.2266 32.3507 17.2266 31.9043V31.7724C17.2266 30.7568 18.0498 29.9336 19.0654 29.9336H20.9344C21.95 29.9337 22.7732 30.7569 22.7732 31.7724Z" fill="#DD5273"/>
<path d="M22.7734 31.7724V31.9043C22.7734 32.3507 22.4114 32.7127 21.965 32.7127H20V30.8681C20 30.6364 20.0845 30.4245 20.2244 30.2613C20.3956 30.0603 20.6502 29.9336 20.9345 29.9336C21.442 29.9336 21.9022 30.1391 22.235 30.472C22.5678 30.8048 22.7734 31.2649 22.7734 31.7724Z" fill="#EE6781"/>
<path d="M21.5508 31.6558H21.1758C20.9789 31.6558 20.8192 31.4962 20.8192 31.2992V31.0494C20.8192 31.0493 20.8192 31.0492 20.8192 31.049C20.8192 30.6746 20.568 30.3589 20.2244 30.2612C20.0845 30.4245 20 30.6363 20 30.8681V32.4843H21.5507C21.7795 32.4843 21.965 32.2988 21.965 32.07C21.9651 31.8412 21.7796 31.6558 21.5508 31.6558Z" fill="#F4829B"/>
<path d="M20.0002 30.2302C19.5619 30.2302 19.2051 30.5747 19.1831 31.0076C19.1817 31.0213 19.181 31.0353 19.181 31.0494V31.2992C19.181 31.4961 19.0214 31.6558 18.8244 31.6558H18.4495C18.2206 31.6558 18.0352 31.8412 18.0352 32.0701C18.0352 32.2989 18.2206 32.4844 18.4495 32.4844H20.0002V30.8682C20.0002 30.6368 20.0845 30.4251 20.224 30.262C20.1528 30.2417 20.078 30.2302 20.0002 30.2302Z" fill="#C0405C"/>
<path d="M22.3894 33.5509V33.6646C22.3894 34.0493 22.0774 34.3612 21.6927 34.3612H18.306C17.9213 34.3612 17.6094 34.0494 17.6094 33.6646V33.5509C17.6094 32.6757 18.3188 31.9663 19.1941 31.9663H20.8048C21.6799 31.9662 22.3894 32.6757 22.3894 33.5509Z" fill="#DD5273"/>
<path d="M22.3895 33.5508V33.6645C22.3895 34.0492 22.0776 34.3612 21.6929 34.3612H19.9995V32.7716C19.9995 32.5719 20.0723 32.3894 20.1929 32.2487C20.3404 32.0754 20.5599 31.9663 20.8049 31.9663C21.2422 31.9663 21.6388 32.1434 21.9256 32.4302C22.2124 32.717 22.3895 33.1134 22.3895 33.5508Z" fill="#EE6781"/>
<path d="M21.3359 33.4505H21.0128C20.8431 33.4505 20.7055 33.3129 20.7055 33.1432V32.9279C20.7055 32.9278 20.7055 32.9278 20.7055 32.9277C20.7055 32.6049 20.489 32.3329 20.1929 32.2488C20.0723 32.3895 19.9995 32.5721 19.9995 32.7717V34.1646H21.3359C21.5331 34.1646 21.6929 34.0047 21.6929 33.8075C21.6929 33.6103 21.533 33.4505 21.3359 33.4505Z" fill="#F4829B"/>
<path d="M19.9995 32.2219C19.6218 32.2219 19.3143 32.5188 19.2954 32.8918C19.2942 32.9036 19.2936 32.9157 19.2936 32.9279V33.1431C19.2936 33.3128 19.156 33.4504 18.9863 33.4504H18.6632C18.466 33.4504 18.3062 33.6102 18.3062 33.8074C18.3062 34.0046 18.466 34.1644 18.6632 34.1644H19.9995V32.7716C19.9995 32.5722 20.0722 32.3898 20.1924 32.2492C20.131 32.2318 20.0665 32.2219 19.9995 32.2219Z" fill="#C0405C"/>
<path d="M22.0871 35.1855V35.2848C22.0871 35.6209 21.8146 35.8933 21.4786 35.8933H18.5201C18.184 35.8933 17.9116 35.6209 17.9116 35.2848V35.1855C17.9116 34.421 18.5313 33.8013 19.2958 33.8013H20.7029C21.4674 33.8013 22.0871 34.421 22.0871 35.1855Z" fill="#DD5273"/>
<path d="M22.0872 35.1854V35.2847C22.0872 35.6208 21.8147 35.8932 21.4787 35.8932H19.9995V34.5047C19.9995 34.3303 20.0631 34.1708 20.1684 34.0479C20.2973 33.8967 20.489 33.8013 20.703 33.8013C21.0851 33.8013 21.4315 33.956 21.682 34.2065C21.9326 34.457 22.0872 34.8034 22.0872 35.1854Z" fill="#EE6781"/>
<path d="M21.1669 35.0979H20.8847C20.7365 35.0979 20.6162 34.9777 20.6162 34.8294V34.6414C20.6162 34.6413 20.6162 34.6412 20.6162 34.6411C20.6162 34.3593 20.4272 34.1216 20.1684 34.0481C20.0631 34.171 19.9995 34.3304 19.9995 34.5049V35.7215H21.1669C21.3391 35.7215 21.4787 35.5819 21.4787 35.4097C21.4788 35.2375 21.3392 35.0979 21.1669 35.0979Z" fill="#F4829B"/>
<path d="M19.9993 34.0247C19.6693 34.0247 19.4007 34.284 19.3842 34.6098C19.3832 34.6202 19.3826 34.6307 19.3826 34.6414V34.8294C19.3826 34.9776 19.2624 35.0979 19.1142 35.0979H18.8319C18.6596 35.0979 18.52 35.2375 18.52 35.4097C18.52 35.582 18.6596 35.7216 18.8319 35.7216H19.9993V34.505C19.9993 34.3307 20.0627 34.1715 20.1678 34.0486C20.1141 34.0333 20.0578 34.0247 19.9993 34.0247Z" fill="#C0405C"/>
<path d="M24.336 37.591C24.336 37.8298 24.239 38.0457 24.0829 38.2024C23.9268 38.3591 23.7103 38.4555 23.4715 38.4555H21.6117C21.0233 38.4555 20.5083 38.1402 20.2272 37.6693C20.0822 37.428 19.9995 37.1457 19.9995 36.8433V35.8936H21.4786L23.7345 36.7662L23.783 36.7849C24.1165 36.9136 24.336 37.2339 24.336 37.591Z" fill="#DD5273"/>
<path d="M24.3359 37.591C24.3359 37.8298 24.2388 38.0456 24.0828 38.2024C23.9267 38.3591 23.7102 38.4555 23.4713 38.4555H21.6116C21.0232 38.4555 20.5081 38.1402 20.2271 37.6693C20.4684 37.8136 20.7508 37.8963 21.0524 37.8963H22.9122C23.3892 37.8963 23.7767 37.5095 23.7767 37.0317C23.7767 36.9397 23.7618 36.8508 23.7345 36.7661L23.783 36.7848C24.1163 36.9135 24.3359 37.2339 24.3359 37.591Z" fill="#3F5D77"/>
<path d="M21.1645 36.8657L22.7773 37.4895C22.988 37.571 23.2149 37.4155 23.2149 37.1896C23.2149 37.0568 23.1333 36.9376 23.0094 36.8897L21.3966 36.2658C21.1859 36.1844 20.959 36.3398 20.959 36.5658C20.959 36.6986 21.0407 36.8177 21.1645 36.8657Z" fill="#EE6781"/>
<path d="M15.6631 37.591C15.6631 37.8298 15.7601 38.0457 15.9162 38.2024C16.0723 38.3591 16.2888 38.4555 16.5276 38.4555H18.3874C18.9757 38.4555 19.4908 38.1402 19.7719 37.6693C19.9168 37.428 19.9996 37.1457 19.9996 36.8433V35.8936H18.5205L16.2646 36.7662L16.2161 36.7849C15.8826 36.9136 15.6631 37.2339 15.6631 37.591Z" fill="#C0405C"/>
<path d="M15.6631 37.591C15.6631 37.8298 15.7601 38.0456 15.9162 38.2024C16.0723 38.3591 16.2888 38.4555 16.5276 38.4555H18.3874C18.9757 38.4555 19.4908 38.1402 19.7719 37.6693C19.5306 37.8136 19.2482 37.8963 18.9465 37.8963H17.0868C16.6097 37.8963 16.2222 37.5095 16.2222 37.0317C16.2222 36.9397 16.2371 36.8508 16.2645 36.7661L16.216 36.7848C15.8826 36.9135 15.6631 37.2339 15.6631 37.591Z" fill="#334353"/>
<path d="M18.8346 36.8657L17.2218 37.4895C17.0111 37.571 16.7842 37.4155 16.7842 37.1896C16.7842 37.0568 16.8658 36.9376 16.9897 36.8897L18.6025 36.2658C18.8132 36.1844 19.0401 36.3398 19.0401 36.5658C19.0401 36.6986 18.9584 36.8177 18.8346 36.8657Z" fill="#DD5273"/>
</svg>
