<svg width="40" height="40" viewBox="0 0 40 40" fill="none" xmlns="http://www.w3.org/2000/svg">
<path d="M40 20C40 31.0458 31.0458 40 20 40C8.95416 40 0 31.0458 0 20C0 8.95416 8.95416 0 20 0C31.0458 0 40 8.95416 40 20Z" fill="#1DA2DD"/>
<path d="M29.8531 35.1234V37.4082C28.6785 38.0735 27.4303 38.6252 26.1226 39.0439C25.9871 39.0882 25.8516 39.1297 25.7143 39.1706C25.2059 39.3226 24.6883 39.4547 24.1634 39.5649C23.9333 39.6137 23.7023 39.6589 23.4694 39.6989C22.3421 39.8972 21.183 40.0001 20.0002 40.0001C18.8173 40.0001 17.658 39.8972 16.5306 39.6995C16.2981 39.6595 16.0671 39.6146 15.837 39.5658C15.2269 39.4367 14.6288 39.2798 14.041 39.097C14.0084 39.0864 13.9757 39.0766 13.9431 39.0662C13.9211 39.0595 13.8997 39.0522 13.8777 39.0449C12.5707 38.6262 11.3219 38.0744 10.147 37.4082V35.1234C10.147 32.3664 11.6475 29.9601 13.8777 28.6774C14.4826 28.3289 15.1406 28.0637 15.837 27.8971C16.205 27.8083 16.5837 27.7469 16.9716 27.7158C17.1724 27.6996 17.3748 27.6914 17.5798 27.6914H22.4196C22.9918 27.6914 23.5488 27.7552 24.0834 27.8776C24.1103 27.884 24.1371 27.8898 24.1634 27.8962C24.8598 28.0637 25.5178 28.3289 26.1226 28.6774C28.3519 29.9607 29.8531 32.3673 29.8531 35.1234Z" fill="#E89F18"/>
<path d="M29.8532 35.1234V37.4082C26.9452 39.058 23.5828 40.0001 20 40.0001C17.8882 40.0001 15.8539 39.6726 13.9429 39.0662V35.1234C13.9429 31.0187 17.2711 27.6914 21.3763 27.6914H22.4197C26.5256 27.6914 29.8532 31.0187 29.8532 35.1234Z" fill="#FFE05C"/>
<path d="M23.2112 27.8596V28.0448C23.2112 29.4611 22.3027 30.6937 20.9492 31.1118C20.6431 31.2073 20.323 31.2556 19.9998 31.2556C18.2292 31.2556 16.7891 29.8154 16.7891 28.0448V27.7134C16.9703 27.6987 17.1531 27.6914 17.3384 27.6914H21.7091C22.2258 27.6914 22.7287 27.7494 23.2112 27.8596Z" fill="#F2EFEA"/>
<path d="M22.6518 24.8281V28.0825C22.6518 29.2739 21.8663 30.281 20.7841 30.6155C20.5366 30.6921 20.2726 30.7339 19.9995 30.7339C18.5353 30.7339 17.3481 29.5468 17.3481 28.0825V24.8281H22.6518Z" fill="#EAA27F"/>
<path d="M22.6519 27.8762V28.0825C22.6519 29.2739 21.8663 30.281 20.7842 30.6155C19.8079 30.3152 19.074 29.4665 18.9385 28.4277C19.1155 28.4387 19.2937 28.4442 19.4725 28.4442C19.9742 28.4442 20.4662 28.4042 20.9453 28.3254C21.5355 28.2308 22.1059 28.0789 22.6519 27.8762Z" fill="#F6BA97"/>
<path d="M12.6058 19.4946C12.6058 20.7224 11.7092 21.7401 10.5349 21.929C10.4064 21.9501 10.2745 21.9608 10.1396 21.9608C8.77765 21.9608 7.67383 20.8569 7.67383 19.4946C7.67383 18.1326 8.77765 17.0288 10.1396 17.0288C10.2745 17.0288 10.4064 17.0395 10.5349 17.0605C11.7092 17.2495 12.6058 18.2672 12.6058 19.4946Z" fill="#F6BA97"/>
<path d="M12.6061 19.4946C12.6061 20.7224 11.7095 21.7401 10.5352 21.929C10.3218 21.1536 10.208 20.3372 10.208 19.4946C10.208 18.6523 10.3218 17.836 10.5352 17.0605C11.7095 17.2495 12.6061 18.2672 12.6061 19.4946Z" fill="#EAA27F"/>
<path d="M11.0213 19.4946C11.0213 19.9817 10.6267 20.3763 10.1396 20.3763C9.65289 20.3763 9.2583 19.9817 9.2583 19.4946C9.2583 19.0079 9.65289 18.6133 10.1396 18.6133C10.6267 18.6133 11.0213 19.0079 11.0213 19.4946Z" fill="#EAA27F"/>
<path d="M27.3936 19.4946C27.3936 20.7224 28.2902 21.7401 29.4645 21.929C29.593 21.9501 29.7248 21.9608 29.8597 21.9608C31.222 21.9608 32.3255 20.8569 32.3255 19.4946C32.3255 18.1326 31.222 17.0288 29.8597 17.0288C29.7248 17.0288 29.593 17.0395 29.4645 17.0605C28.2902 17.2495 27.3936 18.2672 27.3936 19.4946Z" fill="#F6BA97"/>
<path d="M27.394 19.4946C27.394 20.7224 28.2906 21.7401 29.465 21.929C29.6783 21.1536 29.7924 20.3372 29.7924 19.4946C29.7924 18.6523 29.6786 17.836 29.465 17.0605C28.2906 17.2495 27.394 18.2672 27.394 19.4946Z" fill="#EAA27F"/>
<path d="M30.7412 19.4946C30.7412 19.9817 30.3466 20.3763 29.8599 20.3763C29.3731 20.3763 28.9785 19.9817 28.9785 19.4946C28.9785 19.0079 29.3731 18.6133 29.8599 18.6133C30.3466 18.6133 30.7412 19.0079 30.7412 19.4946Z" fill="#EAA27F"/>
<path d="M29.1749 14.6906V18.1845C29.1749 22.7502 25.8397 26.5378 21.4723 27.2406C21.4576 27.243 21.4421 27.2455 21.4274 27.2482C20.963 27.3224 20.486 27.359 19.9995 27.359C14.9327 27.359 10.8247 23.2513 10.8247 18.1845V14.6906C10.8247 13.6237 11.0069 12.5983 11.3432 11.6455C12.5978 8.07495 16.0005 5.51514 19.9995 5.51514H20.0004C20.486 5.51514 20.9636 5.55267 21.429 5.62592C25.8174 6.31165 29.1749 10.1093 29.1749 14.6906Z" fill="#EAA27F"/>
<path d="M24.4439 18.0582C24.4439 18.6332 23.9779 19.0992 23.4033 19.0992C22.8283 19.0992 22.3623 18.6332 22.3623 18.0582C22.3623 17.4836 22.8283 17.0176 23.4033 17.0176C23.9779 17.0176 24.4439 17.4836 24.4439 18.0582Z" fill="#2F373B"/>
<path d="M24.2828 17.8749C24.2828 18.1212 24.0833 18.3207 23.837 18.3207C23.5907 18.3207 23.3911 18.1212 23.3911 17.8749C23.3911 17.6283 23.5907 17.4287 23.837 17.4287C24.0833 17.4287 24.2828 17.6283 24.2828 17.8749Z" fill="white"/>
<path d="M25.8861 25.2218C24.6495 26.2579 23.1359 26.9729 21.4724 27.2405C21.4577 27.243 21.4421 27.2454 21.4275 27.2482C17.0388 26.5624 13.6821 22.7648 13.6821 18.1844V14.6905C13.6821 13.6904 13.842 12.7279 14.1384 11.8276C15.1448 12.4261 22.0168 16.741 25.8861 25.2218Z" fill="#F6BA97"/>
<path d="M29.175 14.6906V15.3461L16.0674 8.51996C17.4428 7.0072 19.3163 5.95587 21.429 5.62598C21.8526 5.6922 22.2673 5.78772 22.6699 5.9101C24.2519 6.39014 25.6526 7.28644 26.7449 8.47174C27.5875 9.38361 28.246 10.467 28.6632 11.6636C28.9955 12.6115 29.175 13.6301 29.175 14.6906Z" fill="#F6BA97"/>
<path d="M26.2448 20.5933C26.2448 21.2247 25.733 21.7362 25.1019 21.7362C24.4708 21.7362 23.959 21.2247 23.959 20.5933C23.959 19.9622 24.4708 19.4504 25.1019 19.4504C25.733 19.4504 26.2448 19.9622 26.2448 20.5933Z" fill="#EAA27F"/>
<path d="M16.0406 20.5933C16.0406 21.2247 15.5289 21.7362 14.8978 21.7362C14.2667 21.7362 13.7549 21.2247 13.7549 20.5933C13.7549 19.9622 14.2667 19.4504 14.8978 19.4504C15.5289 19.4504 16.0406 19.9622 16.0406 20.5933Z" fill="#EAA27F"/>
<path d="M18.121 17.4098C18.121 16.5681 17.4387 15.8857 16.5973 15.8857C15.7556 15.8857 15.0732 16.5681 15.0732 17.4098H18.121Z" fill="#EAA27F"/>
<path d="M17.6378 18.0582C17.6378 18.6332 17.1718 19.0992 16.5971 19.0992C16.0222 19.0992 15.5562 18.6332 15.5562 18.0582C15.5562 17.4836 16.0222 17.0176 16.5971 17.0176C17.1718 17.0176 17.6378 17.4836 17.6378 18.0582Z" fill="#2F373B"/>
<path d="M21.0408 20.6786H18.9592C18.7111 20.6786 18.5103 20.4778 18.5103 20.2297C18.5103 19.9819 18.7111 19.7808 18.9592 19.7808H21.0408C21.2889 19.7808 21.4897 19.9819 21.4897 20.2297C21.4897 20.4778 21.2889 20.6786 21.0408 20.6786Z" fill="#EAA27F"/>
<path d="M19.9999 23.5194C19.2314 23.5194 18.4633 23.3271 17.7629 22.942C17.5655 22.8333 17.4932 22.5852 17.6018 22.3878C17.7105 22.1903 17.9586 22.1183 18.156 22.2266C19.3105 22.8614 20.689 22.8614 21.8434 22.2266C22.0409 22.118 22.289 22.19 22.3976 22.3878C22.5063 22.5852 22.4343 22.8333 22.2365 22.942C21.5364 23.3271 20.768 23.5194 19.9999 23.5194Z" fill="#EAA27F"/>
<path d="M17.4257 17.8749C17.4257 18.1212 17.2258 18.3207 16.9796 18.3207C16.7333 18.3207 16.5337 18.1212 16.5337 17.8749C16.5337 17.6283 16.7333 17.4287 16.9796 17.4287C17.2258 17.4287 17.4257 17.6283 17.4257 17.8749Z" fill="white"/>
<path d="M13.8427 35.1233V39.0341C12.5478 38.6154 11.3112 38.0685 10.147 37.4081V35.1233H13.8427Z" fill="#EAA27F"/>
<path d="M29.8531 35.1233V37.4081C28.6891 38.0685 27.4523 38.6154 26.1577 39.0341V35.1233H29.8531Z" fill="#F6BA97"/>
<path d="M26.1577 35.1233H29.8531V36.1035H26.1577V35.1233Z" fill="#F2EFEA"/>
<path d="M29.1751 14.6906V17.0523C24.2788 16.7795 25.3881 9.57306 25.3881 9.57306L26.745 8.47168C28.2543 10.1059 29.1751 12.2913 29.1751 14.6906Z" fill="#EAA27F"/>
<path d="M10.147 35.1233H13.8427V36.1035H10.147V35.1233Z" fill="#F2EFEA"/>
<path d="M30.8165 16.9338L29.4158 25.3011L28.3055 23.4145C26.0655 19.6096 22.961 16.386 19.2424 14.0047L19.196 13.9754L16.1177 12.0031C15.2516 11.137 14.854 10.0512 14.854 8.98338C14.854 7.04063 16.1675 5.15343 18.3568 4.73869C19.3062 4.55895 20.241 4.5092 21.1461 4.57604C22.6091 4.68407 23.9937 5.09361 25.2376 5.74516C25.2843 5.76897 25.3307 5.79338 25.3765 5.81871C25.4009 5.83153 25.4253 5.84465 25.45 5.85869C29.2067 7.93205 31.6057 12.221 30.8165 16.9338Z" fill="#F73B6C"/>
<path d="M11.2296 11.6636C12.4988 11.9267 13.392 11.8965 14.014 11.7552C15.0672 11.515 15.3412 10.9544 15.3412 10.9544L17.3886 5.91016H17.2229C15.5069 6.13629 14.0204 6.75671 12.9544 7.66522C11.7569 8.68482 11.0907 10.0685 11.2296 11.6636Z" fill="#DD104F"/>
<path d="M25.2376 5.74516C21.8099 4.01451 15.7372 6.93291 19.196 13.9754L16.1177 12.0031C15.2516 11.137 14.854 10.0512 14.854 8.98338C14.854 7.04063 16.1675 5.15343 18.3568 4.73869C19.3062 4.55895 20.241 4.5092 21.1461 4.57604C22.6091 4.68407 23.9937 5.09361 25.2376 5.74516Z" fill="#DD104F"/>
<path d="M25.45 5.85883V5.85944C25.4253 5.8457 25.4009 5.83166 25.3765 5.81885C25.4009 5.83166 25.4253 5.84479 25.45 5.85883Z" fill="#DD104F"/>
<path d="M31.517 21.7743C31.517 22.1616 31.203 22.4753 30.8157 22.4753C30.4285 22.4753 30.1147 22.1616 30.1147 21.7743C30.1147 21.387 30.4285 21.073 30.8157 21.073C31.203 21.073 31.517 21.387 31.517 21.7743Z" fill="#FFE05C"/>
<path d="M9.88568 21.7743C9.88568 22.1616 9.57166 22.4753 9.18439 22.4753C8.79712 22.4753 8.4834 22.1616 8.4834 21.7743C8.4834 21.387 8.79712 21.073 9.18439 21.073C9.57166 21.073 9.88568 21.387 9.88568 21.7743Z" fill="#FFE05C"/>
<path d="M10.5439 12.5173L12.993 12.9254L12.8587 13.7307L10.4097 13.3224L10.5439 12.5173Z" fill="#DD104F"/>
<path d="M10.5439 14.1501L12.993 14.5582L12.8587 15.3635L10.4097 14.9552L10.5439 14.1501Z" fill="#DD104F"/>
<path d="M10.5439 15.7827L12.993 16.1907L12.8587 16.9961L10.4097 16.5878L10.5439 15.7827Z" fill="#DD104F"/>
</svg>
