<svg width="40" height="40" viewBox="0 0 40 40" fill="none" xmlns="http://www.w3.org/2000/svg">
<path d="M40 20C40 31.0458 31.0458 40 20 40C8.95416 40 0 31.0458 0 20C0 8.95416 8.95416 0 20 0C31.0458 0 40 8.95416 40 20Z" fill="#27BA9E"/>
<path d="M29.8531 35.1234V37.4082C28.6891 38.0686 27.4523 38.6155 26.1577 39.0336C24.218 39.6613 22.1486 40.0001 20.0002 40.0001C18.2125 40.0001 16.4794 39.7657 14.8302 39.325C14.5314 39.2457 14.236 39.1593 13.9431 39.0662C13.9095 39.0555 13.8759 39.0449 13.8427 39.0336C13.3748 38.8831 12.9143 38.715 12.463 38.5306C11.6637 38.2056 10.8907 37.8303 10.147 37.4082V35.1234C10.147 33.5584 10.6313 32.1061 11.4574 30.9086C12.5258 29.3577 14.1692 28.2334 16.0802 27.8425C16.3716 27.783 16.6686 27.7405 16.9716 27.7158C17.1724 27.6996 17.3748 27.6914 17.5798 27.6914H22.4196C22.9415 27.6914 23.4499 27.7445 23.9406 27.8464C23.9888 27.8562 24.0361 27.8669 24.0834 27.8776C25.9243 28.2987 27.5038 29.4025 28.543 30.9086C29.3691 32.1061 29.8531 33.5584 29.8531 35.1234Z" fill="#151A1C"/>
<path d="M29.8532 35.1234V37.4082C26.9452 39.058 23.5828 40.0001 20 40.0001C17.8882 40.0001 15.8539 39.6726 13.9429 39.0662V35.1234C13.9429 31.0187 17.2711 27.6914 21.3763 27.6914H22.4197C26.5256 27.6914 29.8532 31.0187 29.8532 35.1234Z" fill="#2F373B"/>
<path d="M23.347 30.7158C23.347 32.4504 22.0272 33.8774 20.3365 34.0462C20.2263 34.0569 20.1137 34.0627 20.0002 34.0627C19.8876 34.0627 19.7756 34.0569 19.6654 34.0462C17.9741 33.8781 16.6533 32.4514 16.6533 30.7158C16.6533 28.8677 18.152 27.3687 20.0002 27.3687C21.8483 27.3687 23.347 28.8677 23.347 30.7158Z" fill="#F2EFEA"/>
<path d="M19.9993 30.734L16.6533 32.5934L15.6353 27.8589L17.7144 26.6343" fill="#D8D4CE"/>
<path d="M19.9995 30.734L23.3455 32.5934L24.3635 27.8589L22.2844 26.6343" fill="#D8D4CE"/>
<path d="M22.6518 24.8281V28.0825C22.6518 29.2739 21.8663 30.281 20.7841 30.6155C20.5366 30.6921 20.2726 30.7339 19.9995 30.7339C18.5353 30.7339 17.3481 29.5468 17.3481 28.0825V24.8281H22.6518Z" fill="#EAA27F"/>
<path d="M22.6519 27.8762V28.0825C22.6519 29.2739 21.8663 30.281 20.7842 30.6155C19.8079 30.3152 19.074 29.4665 18.9385 28.4277C19.1155 28.4387 19.2937 28.4442 19.4725 28.4442C19.9742 28.4442 20.4662 28.4042 20.9453 28.3254C21.5355 28.2308 22.1059 28.0789 22.6519 27.8762Z" fill="#F6BA97"/>
<path d="M13.8427 35.1232V39.0334C13.3748 38.883 12.9143 38.7148 12.463 38.5305C11.6637 38.2055 10.8907 37.8301 10.147 37.4081V35.1232C10.147 33.5583 10.6313 32.106 11.4574 30.9084L13.8427 35.1232Z" fill="#D8D4CE"/>
<path d="M29.8531 35.1232V37.4081C28.6891 38.0685 27.4523 38.6154 26.1577 39.0334V35.1232L28.543 30.9084C29.3691 32.106 29.8531 33.5583 29.8531 35.1232Z" fill="#F2EFEA"/>
<path d="M12.7257 19.4949C12.7257 20.7224 11.8288 21.7404 10.6545 21.9293C10.5263 21.9501 10.3942 21.9608 10.2596 21.9608C8.89728 21.9608 7.79346 20.8572 7.79346 19.4949C7.79346 18.1326 8.89728 17.0288 10.2596 17.0288C10.3942 17.0288 10.5263 17.0398 10.6545 17.0605C11.8288 17.2495 12.7257 18.2672 12.7257 19.4949Z" fill="#F6BA97"/>
<path d="M12.7255 19.4949C12.7255 20.7224 11.8286 21.7404 10.6543 21.9293C10.441 21.1536 10.3271 20.3372 10.3271 19.4949C10.3271 18.6523 10.441 17.836 10.6543 17.0605C11.8286 17.2495 12.7255 18.2672 12.7255 19.4949Z" fill="#EAA27F"/>
<path d="M11.1406 19.4949C11.1406 19.9816 10.746 20.3762 10.2593 20.3762C9.77252 20.3762 9.37793 19.9816 9.37793 19.4949C9.37793 19.0081 9.77252 18.6135 10.2593 18.6135C10.746 18.6135 11.1406 19.0081 11.1406 19.4949Z" fill="#EAA27F"/>
<path d="M27.2734 19.4949C27.2734 20.7224 28.17 21.7404 29.3444 21.9293C29.4728 21.9501 29.6047 21.9608 29.7396 21.9608C31.1019 21.9608 32.2054 20.8572 32.2054 19.4949C32.2054 18.1326 31.1019 17.0288 29.7396 17.0288C29.6047 17.0288 29.4728 17.0398 29.3444 17.0605C28.17 17.2495 27.2734 18.2672 27.2734 19.4949Z" fill="#F6BA97"/>
<path d="M27.2734 19.4949C27.2734 20.7224 28.17 21.7404 29.3444 21.9293C29.5577 21.1536 29.6718 20.3372 29.6718 19.4949C29.6718 18.6523 29.558 17.836 29.3444 17.0605C28.17 17.2495 27.2734 18.2672 27.2734 19.4949Z" fill="#EAA27F"/>
<path d="M29.1749 14.6906V18.1845C29.1749 22.7502 25.8394 26.5381 21.472 27.2409C21.4573 27.2433 21.4418 27.2458 21.4271 27.2482C20.9626 27.3224 20.486 27.3593 19.9992 27.3593C14.9324 27.3593 10.8247 23.2513 10.8247 18.1845V14.6906C10.8247 13.6237 11.0066 12.5983 11.3429 11.6458C12.5978 8.07495 16.0002 5.51514 19.9992 5.51514H20.0001C20.486 5.51514 20.9633 5.55267 21.4286 5.62622C25.8174 6.31195 29.1749 10.1093 29.1749 14.6906Z" fill="#EAA27F"/>
<path d="M30.6211 19.4949C30.6211 19.9816 30.2265 20.3762 29.7397 20.3762C29.253 20.3762 28.8584 19.9816 28.8584 19.4949C28.8584 19.0081 29.253 18.6135 29.7397 18.6135C30.2265 18.6135 30.6211 19.0081 30.6211 19.4949Z" fill="#EAA27F"/>
<path d="M29.1748 14.6906V18.1845C29.1748 22.7502 25.8392 26.5381 21.4719 27.2409C21.4572 27.2433 21.4417 27.2458 21.427 27.2482C17.0383 26.5625 13.6816 22.7649 13.6816 18.1845V14.6906C13.6816 10.1093 17.0392 6.31195 21.4285 5.62622C25.8173 6.31195 29.1748 10.1093 29.1748 14.6906Z" fill="#F6BA97"/>
<path d="M19.9989 23.5196C19.2305 23.5196 18.4623 23.3271 17.762 22.9422C17.5645 22.8336 17.4922 22.5855 17.6008 22.3877C17.7095 22.1903 17.9576 22.1182 18.1553 22.2269C19.3095 22.8614 20.688 22.8614 21.8425 22.2269C22.0399 22.1182 22.288 22.1903 22.3967 22.3877C22.5053 22.5855 22.4333 22.8336 22.2355 22.9422C21.5355 23.3271 20.767 23.5196 19.9989 23.5196Z" fill="#EAA27F"/>
<path d="M21.0403 20.2709H18.9587C18.7109 20.2709 18.5098 20.0698 18.5098 19.8217C18.5098 19.5739 18.7109 19.3728 18.9587 19.3728H21.0403C21.2884 19.3728 21.4895 19.5739 21.4895 19.8217C21.4895 20.0698 21.2884 20.2709 21.0403 20.2709Z" fill="#EAA27F"/>
<path d="M18.0455 17.65C18.0455 18.225 17.5795 18.691 17.0045 18.691C16.4299 18.691 15.9639 18.225 15.9639 17.65C15.9639 17.0754 16.4299 16.6094 17.0045 16.6094C17.5795 16.6094 18.0455 17.0754 18.0455 17.65Z" fill="#2F373B"/>
<path d="M24.0352 17.65C24.0352 18.225 23.5692 18.691 22.9943 18.691C22.4196 18.691 21.9536 18.225 21.9536 17.65C21.9536 17.0754 22.4196 16.6094 22.9943 16.6094C23.5692 16.6094 24.0352 17.0754 24.0352 17.65Z" fill="#2F373B"/>
<path d="M17.8331 17.4664C17.8331 17.7126 17.6335 17.9125 17.3873 17.9125C17.141 17.9125 16.9414 17.7126 16.9414 17.4664C16.9414 17.2201 17.141 17.0205 17.3873 17.0205C17.6335 17.0205 17.8331 17.2201 17.8331 17.4664Z" fill="white"/>
<path d="M23.8745 17.4664C23.8745 17.7126 23.6746 17.9125 23.4283 17.9125C23.182 17.9125 22.9824 17.7126 22.9824 17.4664C22.9824 17.2201 23.182 17.0205 23.4283 17.0205C23.6746 17.0205 23.8745 17.2201 23.8745 17.4664Z" fill="white"/>
<path d="M15.2656 21.5684V23.281C15.2656 25.9101 17.3411 28.0701 19.9681 28.1751L20.0001 28.1763L20.0322 28.1751C22.6591 28.0704 24.7346 25.9104 24.7346 23.2813V21.5684C24.7346 20.9022 24.1948 20.3623 23.5286 20.3623H16.4717C15.8058 20.3623 15.2656 20.9022 15.2656 21.5684ZM23.1019 23.2844C23.1019 23.856 22.9567 24.3928 22.7 24.8597C22.2001 25.7691 20.8165 25.4136 20.8165 24.3757H19.1838V24.376C19.1838 25.4139 17.8004 25.7694 17.3002 24.86C17.0436 24.3931 16.8983 23.8563 16.8983 23.2847V22.8672C16.8983 22.3853 17.2889 21.995 17.7705 21.995H22.2297C22.7116 21.995 23.1019 22.3853 23.1019 22.8672V23.2844Z" fill="#D65A05"/>
<path d="M28.9775 17.5091L28.7898 12.0538C23.047 13.999 19.2216 14.9175 16.7955 14.5028C20.1964 13.8528 22.837 11.585 22.8975 11.5328C22.8264 11.5624 18.9497 13.1451 16.5376 13.6242C15.406 13.8488 14.2576 13.2644 13.8044 12.203C13.8011 12.1975 13.7987 12.1908 13.7962 12.1853C13.7962 12.1853 13.513 17.0602 10.6541 17.0602C10.6541 17.0602 7.14338 5.16472 13.2249 6.96068C13.2249 6.96068 14.984 5.34508 17.6103 4.42681C17.6201 4.42345 17.6298 4.4204 17.6405 4.41613C17.6689 4.40545 17.6982 4.39568 17.7278 4.38683C17.7586 4.37707 17.7882 4.3673 17.816 4.35753C20.5931 3.4414 24.282 3.34588 27.8779 6.67504C35.0209 13.2873 28.9775 17.5091 28.9775 17.5091Z" fill="#F46D11"/>
<path d="M16.5376 13.6241C15.406 13.8488 14.2576 13.2643 13.8044 12.2029C13.8011 12.1974 13.7987 12.1907 13.7962 12.1852C13.7962 12.1852 13.513 17.0601 10.6541 17.0601C10.6541 17.0601 7.14338 5.16467 13.2249 6.96063C13.2249 6.96063 14.984 5.34503 17.6103 4.42676C14.0062 5.73932 14.9562 13.6241 16.5376 13.6241Z" fill="#D65A05"/>
</svg>
