<svg width="40" height="40" viewBox="0 0 40 40" fill="none" xmlns="http://www.w3.org/2000/svg">
<path d="M20 40C31.0457 40 40 31.0457 40 20C40 8.9543 31.0457 0 20 0C8.9543 0 0 8.9543 0 20C0 31.0457 8.9543 40 20 40Z" fill="#EA792E"/>
<path d="M33.3216 16.7665L32.9536 18.4758L23.5396 11.754L27.02 7.98834L28.7317 6.13678C29.4396 5.37115 30.5724 5.17271 31.4982 5.65162C31.8161 5.81568 32.088 6.04928 32.2958 6.32975C32.5036 6.61021 32.6474 6.93756 32.713 7.28912L33.3872 10.9407L33.406 11.0438C33.756 12.9383 33.7278 14.8837 33.3216 16.7665Z" fill="#DD5E26"/>
<path d="M33.3872 10.9407C32.7755 11.2594 32.0802 11.4399 31.3427 11.4399C29.2325 11.4399 27.4653 9.96412 27.02 7.98834L28.7317 6.13678C29.4396 5.37115 30.5724 5.17271 31.4981 5.65162C31.8161 5.81568 32.088 6.04928 32.2958 6.32975C32.5036 6.61021 32.6474 6.93756 32.713 7.28912L33.3872 10.9407Z" fill="#334353"/>
<path d="M26.9909 13.181L29.1869 7.7176C29.4252 7.12447 30.0387 6.77174 30.6712 6.86393C31.3407 6.96158 31.8415 7.52877 31.8556 8.20518L32.0099 15.6328C32.0288 16.5417 31.003 17.0833 30.263 16.555L27.3741 14.4924C26.9591 14.196 26.8008 13.6541 26.9909 13.181Z" fill="#EA792E"/>
<path d="M6.67842 16.7665L7.04639 18.4758L16.4605 11.754L12.98 7.98834L11.2683 6.13678C10.5605 5.37115 9.42764 5.17271 8.50186 5.65162C8.18389 5.81568 7.91202 6.04928 7.70421 6.32975C7.49639 6.61021 7.35264 6.93756 7.28702 7.28912L6.6128 10.9407L6.59405 11.0438C6.24405 12.9383 6.27217 14.8837 6.67842 16.7665Z" fill="#C44A1A"/>
<path d="M6.61328 10.9407C7.225 11.2594 7.92031 11.4399 8.65782 11.4399C10.768 11.4399 12.5352 9.96412 12.9805 7.98834L11.2688 6.13678C10.5609 5.37115 9.42813 5.17271 8.50235 5.65162C8.18438 5.81568 7.9125 6.04928 7.70469 6.32975C7.49688 6.61021 7.35313 6.93756 7.2875 7.28912L6.61328 10.9407Z" fill="#2E3140"/>
<path d="M13.0085 13.181L10.8126 7.7176C10.5742 7.12447 9.96077 6.77174 9.32819 6.86393C8.65874 6.96158 8.15787 7.52877 8.14381 8.20518L7.98952 15.6328C7.97061 16.5417 8.99639 17.0833 9.73639 16.555L12.6253 14.4924C13.0403 14.196 13.1987 13.6541 13.0085 13.181Z" fill="#DD5E26"/>
<path d="M33.4898 21.7031V24.5664C33.4898 26.8695 32.7516 28.9992 31.4984 30.7336C30.2008 32.5297 28.3508 33.9008 26.1977 34.5969C25.1742 34.9289 24.082 35.1078 22.9484 35.1078H17.0531C13.5344 35.1078 10.418 33.3836 8.50312 30.7336C7.25 28.9992 6.51172 26.8695 6.51172 24.5664V21.7031C6.51172 16.2078 10.9664 11.7539 16.4617 11.7539H23.5398C29.0352 11.7539 33.4898 16.2078 33.4898 21.7031Z" fill="#9175A7"/>
<path d="M33.4896 21.7031V24.5664C33.4896 26.8695 32.7513 28.9992 31.4981 30.7336C30.2005 32.5297 28.3505 33.9008 26.1974 34.5969H20.0005V11.7539H23.5395C29.0349 11.7539 33.4896 16.2078 33.4896 21.7031Z" fill="#AEA7B9"/>
<path d="M31.4982 30.7337C29.5834 33.3837 26.467 35.1079 22.9482 35.1079H17.0529C13.5342 35.1079 10.4178 33.3837 8.50293 30.7337C8.67715 27.1915 11.6045 24.3735 15.1889 24.3735H24.8123C28.3967 24.3735 31.324 27.1915 31.4982 30.7337Z" fill="#AEA7B9"/>
<path d="M31.4981 30.7337C29.5833 33.3837 26.4669 35.1079 22.9481 35.1079H20.0005V24.3735H24.8122C28.3966 24.3735 31.3239 27.1915 31.4981 30.7337Z" fill="#DECEE5"/>
<path d="M21.0155 18.1073C20.4547 18.1073 20 17.6527 20 17.0918V13.5352C20 12.9745 20.4546 12.5198 21.0155 12.5198C21.5762 12.5198 22.0309 12.9744 22.0309 13.5352V17.0918C22.0309 17.6527 21.5762 18.1073 21.0155 18.1073Z" fill="#DECEE5"/>
<path d="M18.9847 18.1073C18.4239 18.1073 17.9692 17.6527 17.9692 17.0918V13.5352C17.9692 12.9745 18.4238 12.5198 18.9847 12.5198C19.5455 12.5198 20.0002 12.9744 20.0002 13.5352V17.0918C20.0002 17.6527 19.5456 18.1073 18.9847 18.1073Z" fill="#AEA7B9"/>
<path d="M24.083 15.7112H23.2768C22.6057 15.7112 22.0615 16.2553 22.0615 16.9265V18.0072C22.0615 18.6784 22.6057 19.2225 23.2768 19.2225H24.083C24.7542 19.2225 25.2983 18.6784 25.2983 18.0072V16.9265C25.2983 16.2553 24.7543 15.7112 24.083 15.7112Z" fill="#DD5E26"/>
<path d="M16.7231 15.7112H15.917C15.2458 15.7112 14.7017 16.2553 14.7017 16.9265V18.0072C14.7017 18.6784 15.2458 19.2225 15.917 19.2225H16.7231C17.3943 19.2225 17.9385 18.6784 17.9385 18.0072V16.9265C17.9385 16.2553 17.3943 15.7112 16.7231 15.7112Z" fill="#C44A1A"/>
<path d="M26.6625 21.0197C26.5808 20.0854 25.4528 19.4209 24.5185 19.5027C23.5842 19.5844 22.8931 20.408 22.9748 21.3423C23.0565 22.2766 23.8281 22.3722 24.7624 22.2905C25.6967 22.2088 26.7443 21.954 26.6625 21.0197Z" fill="#DECEE5"/>
<path d="M25.5689 20.5857L25.6161 21.125C25.6375 21.37 25.5577 21.6 25.4118 21.7739C25.3342 21.8664 25.2382 21.9429 25.128 21.9973C25.0309 22.0459 24.9228 22.0779 24.8082 22.0879C24.3189 22.1307 23.8874 21.7693 23.8446 21.28L23.7974 20.7407C23.7546 20.2522 24.1167 19.8206 24.606 19.7778C24.7208 19.7678 24.8328 19.7804 24.9368 19.8114C25.2768 19.9122 25.5362 20.2118 25.5689 20.5857Z" fill="#334353"/>
<path d="M25.5686 20.5859L25.6158 21.1251C25.6372 21.3701 25.5573 21.6001 25.4114 21.7741C25.3338 21.8666 25.2378 21.943 25.1276 21.9975C24.7876 21.8967 24.5283 21.5977 24.4955 21.2231L24.4483 20.6839C24.4155 20.31 24.619 19.9698 24.9364 19.8115C25.2764 19.9124 25.5358 20.212 25.5686 20.5859Z" fill="#2E3140"/>
<path d="M25.9279 20.5947C25.9058 20.3411 25.6822 20.1534 25.4286 20.1756C24.8217 20.2524 24.8982 21.1239 25.509 21.0941C25.7625 21.0719 25.9501 20.8483 25.9279 20.5947Z" fill="white"/>
<path d="M13.3375 21.0197C13.4192 20.0854 14.5473 19.4209 15.4816 19.5027C16.4159 19.5844 17.107 20.408 17.0252 21.3423C16.9435 22.2766 16.172 22.3722 15.2377 22.2905C14.3034 22.2088 13.2558 21.954 13.3375 21.0197Z" fill="#DECEE5"/>
<path d="M14.4315 20.5857L14.3843 21.125C14.3629 21.37 14.4427 21.6 14.5887 21.7739C14.6663 21.8664 14.7623 21.9429 14.8724 21.9973C14.9695 22.0459 15.0776 22.0779 15.1923 22.0879C15.6816 22.1307 16.1131 21.7693 16.1559 21.28L16.2031 20.7407C16.2458 20.2522 15.8837 19.8206 15.3944 19.7778C15.2796 19.7678 15.1677 19.7804 15.0637 19.8114C14.7237 19.9122 14.4642 20.2118 14.4315 20.5857Z" fill="#334353"/>
<path d="M16.2032 20.7408L16.156 21.2801C16.1346 21.5251 16.016 21.7377 15.842 21.8837C15.7495 21.9612 15.6417 22.0198 15.5238 22.0544C15.2065 21.896 15.0029 21.5565 15.0357 21.182L15.0829 20.6428C15.1156 20.2689 15.375 19.9693 15.715 19.8684C16.0324 20.0268 16.2359 20.367 16.2032 20.7408Z" fill="#2E3140"/>
<path d="M16.5549 20.8119C16.5771 20.5583 16.3895 20.3347 16.1359 20.3125C15.5249 20.2827 15.4488 21.1543 16.0555 21.2309C16.3091 21.2531 16.5327 21.0656 16.5549 20.8119Z" fill="white"/>
<path d="M24.3968 35.1461C23.6749 36.3133 22.3827 37.1047 20.8858 37.1047H19.114C16.6233 37.1047 14.7007 34.9149 15.0226 32.4454L15.939 26.8126L16.5608 22.9899C16.6741 22.1211 17.4148 21.4719 18.2905 21.4719H21.7093C22.5851 21.4719 23.3257 22.1211 23.439 22.9899L24.0452 26.7157L24.0608 26.8126L24.9773 32.4454C25.1054 33.4305 24.8765 34.3711 24.3968 35.1461Z" fill="#DECEE5"/>
<path d="M24.3974 35.146C23.6755 36.3132 22.3833 37.1046 20.8864 37.1046H20.0005V26.7156H24.0458L24.0614 26.8125L24.9778 32.4453C25.106 33.4304 24.8771 34.371 24.3974 35.146Z" fill="#F9F2F9"/>
<path d="M24.0608 26.8126C23.3147 27.868 22.0843 28.5563 20.6937 28.5563H19.3062C17.9155 28.5563 16.6851 27.868 15.939 26.8126L16.5608 22.9899C16.6741 22.1211 17.4147 21.4719 18.2905 21.4719H21.7093C22.5851 21.4719 23.3257 22.1211 23.439 22.9899L24.0608 26.8126Z" fill="#DD5E26"/>
<path d="M24.0604 26.8126C23.3144 27.868 22.0839 28.5563 20.6933 28.5563H19.9995V21.4719H21.7089C22.5847 21.4719 23.3253 22.1211 23.4386 22.9899L24.0604 26.8126Z" fill="#EA792E"/>
<path d="M21.1834 28.5562H18.816C17.7507 28.5562 16.9532 29.5336 17.1672 30.5772L17.4411 31.9133C17.6017 32.6963 18.2907 33.2584 19.0899 33.2584H20.9096C21.7089 33.2584 22.3979 32.6963 22.5584 31.9133L22.8323 30.5772C23.0462 29.5336 22.2489 28.5562 21.1834 28.5562Z" fill="#2E3140"/>
<path d="M21.2498 29.0303H18.7502C18.0392 29.0303 17.4629 29.6066 17.4629 30.3175V30.4699C17.4629 31.1808 18.0392 31.7572 18.7502 31.7572H21.2498C21.9607 31.7572 22.537 31.1808 22.537 30.4699V30.3175C22.537 29.6065 21.9607 29.0303 21.2498 29.0303Z" fill="#334353"/>
<path d="M21.6448 29.6526H18.3555C18.0718 29.6526 17.8418 29.8826 17.8418 30.1663C17.8418 30.4501 18.0718 30.6801 18.3555 30.6801H21.6448C21.9285 30.6801 22.1585 30.4501 22.1585 30.1663C22.1585 29.8826 21.9285 29.6526 21.6448 29.6526Z" fill="#3F5D77"/>
<path d="M20.9588 29.6526H20.0972C19.8135 29.6526 19.5835 29.8826 19.5835 30.1663C19.5835 30.4501 19.8135 30.6801 20.0972 30.6801H20.9588C21.2426 30.6801 21.4726 30.4501 21.4726 30.1663C21.4725 29.8826 21.2425 29.6526 20.9588 29.6526Z" fill="white"/>
<path d="M20.682 31.2821L20.4722 31.4918C20.2762 31.6879 20.2762 32.0057 20.4722 32.2018L20.9206 32.6501C21.1166 32.8461 21.4345 32.8461 21.6305 32.6501L21.8403 32.4404C22.0363 32.2443 22.0363 31.9265 21.8403 31.7304L21.3919 31.2821C21.1958 31.086 20.878 31.086 20.682 31.2821Z" fill="#151516"/>
<path d="M19.5278 31.4925L19.318 31.2828C19.122 31.0867 18.8041 31.0867 18.6081 31.2828L18.1597 31.7311C17.9637 31.9271 17.9637 32.245 18.1597 32.441L18.3695 32.6508C18.5655 32.8468 18.8834 32.8468 19.0794 32.6508L19.5278 32.2024C19.7238 32.0064 19.7238 31.6885 19.5278 31.4925Z" fill="#151516"/>
<path d="M22.5372 35.7981C22.1636 35.7981 21.6891 35.6367 21.1868 35.4658C20.7597 35.3206 20.2778 35.1566 20.0102 35.1628C19.7994 35.1682 19.408 35.3211 19.0628 35.456C18.6124 35.6319 18.187 35.7981 17.8418 35.7981C17.2296 35.7981 15.4687 35.0225 15.122 34.8671C14.9251 34.7788 14.8372 34.5477 14.9254 34.3508C15.0137 34.1539 15.2448 34.0659 15.4416 34.1542C16.3876 34.5782 17.544 35.0168 17.8419 35.0168C18.0399 35.0168 18.4323 34.8635 18.7786 34.7283C19.2229 34.5547 19.6425 34.3908 19.9901 34.3818C20.3954 34.3707 20.9019 34.5437 21.4384 34.7262C21.8389 34.8625 22.293 35.0168 22.5372 35.0168C22.7647 35.0132 23.7548 34.5732 24.5369 34.1645C24.7281 34.0646 24.9641 34.1385 25.064 34.3297C25.1639 34.5209 25.09 34.7569 24.8987 34.8568C24.4763 35.0776 23.0577 35.7981 22.5372 35.7981Z" fill="#334353"/>
<path d="M23.0718 33.7293C22.9212 33.7293 22.7988 33.6074 22.7983 33.4567C22.7979 33.3057 22.9199 33.1829 23.0709 33.1824L25.7051 33.1743H25.7059C25.8565 33.1743 25.9789 33.2962 25.9794 33.4469C25.9798 33.5979 25.8578 33.7207 25.7068 33.7212L23.0726 33.7293C23.0723 33.7293 23.0721 33.7293 23.0718 33.7293Z" fill="white"/>
<path d="M17.0848 33.7293C17.2355 33.7293 17.3578 33.6074 17.3583 33.4567C17.3587 33.3057 17.2367 33.1829 17.0857 33.1824L14.4515 33.1743C14.4513 33.1743 14.451 33.1743 14.4507 33.1743C14.3001 33.1743 14.1777 33.2962 14.1772 33.4469C14.1768 33.5979 14.2988 33.7207 14.4498 33.7212L17.084 33.7293H17.0848Z" fill="#F4E6F4"/>
<path d="M24.2336 32.2903C24.0852 32.3165 23.9436 32.2177 23.9169 32.0694C23.8903 31.9207 23.9891 31.7786 24.1378 31.752L26.7305 31.2866C26.7308 31.2865 26.7311 31.2865 26.7314 31.2864C26.8797 31.2603 27.0214 31.3591 27.048 31.5074C27.0747 31.656 26.9758 31.7981 26.8272 31.8248L24.2344 32.2902C24.2341 32.2903 24.2338 32.2903 24.2336 32.2903Z" fill="white"/>
<path d="M15.9228 32.2903C16.0712 32.3165 16.2128 32.2177 16.2394 32.0694C16.2661 31.9207 16.1673 31.7786 16.0186 31.752L13.4258 31.2866C13.4256 31.2865 13.4253 31.2865 13.425 31.2864C13.2766 31.2603 13.135 31.3591 13.1083 31.5074C13.0817 31.656 13.1805 31.7981 13.3292 31.8248L15.9219 32.2902C15.9223 32.2903 15.9226 32.2903 15.9228 32.2903Z" fill="#F4E6F4"/>
</svg>
